<?xml version="1.0" encoding="utf-8"?>
<!-- Generator: Adobe Illustrator 22.0.1, SVG Export Plug-In . SVG Version: 6.00 Build 0)  -->
<svg version="1.1" id="Capa_1" xmlns="http://www.w3.org/2000/svg" xmlns:xlink="http://www.w3.org/1999/xlink" x="0px" y="0px"
	 viewBox="0 0 1097.5 1215.7" style="enable-background:new 0 0 1097.5 1215.7;" xml:space="preserve">
<style type="text/css">
	.st0{fill:#FFFFFF;}
	.st1{fill:#5E004D;}
	.st2{fill:#FFFFFF;stroke:#5E004D;stroke-width:8;stroke-linecap:round;stroke-linejoin:round;stroke-miterlimit:10;}
	.st3{fill:none;stroke:#5E004D;stroke-width:8;stroke-linecap:round;stroke-linejoin:round;stroke-miterlimit:10;}
	.st4{fill:url(#SVGID_1_);}
	.st5{fill:url(#SVGID_2_);}
	.st6{fill:url(#SVGID_3_);}
	.st7{fill:url(#SVGID_4_);}
	.st8{fill:url(#SVGID_5_);}
	.st9{fill:url(#SVGID_6_);}
	.st10{fill:url(#SVGID_7_);stroke:#5E004D;stroke-width:8;stroke-linecap:round;stroke-miterlimit:10;}
	.st11{fill:url(#SVGID_8_);stroke:#5E004D;stroke-width:8;stroke-linecap:round;stroke-miterlimit:10;}
	.st12{fill:url(#SVGID_9_);stroke:#5E004D;stroke-width:8;stroke-linecap:round;stroke-miterlimit:10;}
	.st13{fill:url(#SVGID_10_);stroke:#5E004D;stroke-width:8;stroke-linecap:round;stroke-miterlimit:10;}
	.st14{fill:url(#SVGID_11_);}
	.st15{fill:url(#SVGID_12_);}
	.st16{fill:none;stroke:#5E004D;stroke-width:8;stroke-linecap:round;stroke-miterlimit:10;}
	.st17{fill:url(#SVGID_13_);}
	.st18{fill:url(#SVGID_14_);}
	.st19{fill:url(#SVGID_15_);}
	.st20{fill:url(#SVGID_16_);}
	.st21{fill:#FFFFFF;stroke:#5E004D;stroke-width:8;stroke-linecap:round;stroke-miterlimit:10;}
	.st22{fill:url(#SVGID_17_);}
	.st23{fill:url(#SVGID_18_);stroke:#5E004D;stroke-width:8;stroke-linecap:round;stroke-miterlimit:10;}
	.st24{fill:url(#SVGID_19_);stroke:#5E004D;stroke-width:8;stroke-linecap:round;stroke-miterlimit:10;}
	.st25{fill:url(#SVGID_20_);}
	.st26{fill:url(#SVGID_21_);}
	.st27{fill:url(#SVGID_22_);}
	.st28{fill:url(#SVGID_23_);}
	.st29{fill:url(#SVGID_24_);}
	.st30{fill:url(#SVGID_25_);}
	.st31{fill:url(#SVGID_26_);}
	.st32{fill:url(#SVGID_27_);}
</style>
<g>
	<g>
		<g>
			<path class="st0" d="M840.9,871.9c-38.9,0-69.3-13.8-70.6-14.4c-1.4-0.7-2.4-2.1-2.3-3.7c0-1.6,1-3,2.5-3.6
				c0.6-0.2,55.4-23.3,66.3-61.2c4.5-15.8,0.8-32.2-11.1-48.9c-24.3-34.1-76.1-40.1-126.1-45.9c-51.3-6-99.7-11.6-107.6-49.6
				c-13.6-65.3,16-110.6,83.5-127.7c3.6-1.2,48.5-16.1,106.2-16.1c37.3,0,71.4,6.3,101.4,18.8c37.9,15.8,69.1,41.5,92.6,76.4
				c1.1,1.6,0.9,3.7-0.5,5.1c-0.8,0.8-1.8,1.1-2.8,1.1c-0.8,0-1.6-0.2-2.3-0.7c-0.3-0.2-27.8-19.2-65.6-26.4
				c22.3,11.2,53.6,32.3,71.3,67.7c17.8,35.5,17.9,77.6,0.3,124.9c-14.3,38.3-35.1,66.5-62,83.9C892.9,865,868.3,871.9,840.9,871.9z
				"/>
			<path class="st1" d="M781.5,504.6c62.8,0,139.9,18.2,190.7,93.4c0,0-41.9-29.4-94.6-29.9c0,0,151.9,44.2,94.7,197.9
				c-30.8,82.7-86.5,101.8-131.3,101.8c-38.5,0-68.9-14.1-68.9-14.1s108-44.5,56.9-116.2c-51.1-71.7-218.5-24.2-233.1-94
				c-14.6-69.8,22.3-108.3,80.7-123.1C676.5,520.6,722.7,504.6,781.5,504.6 M781.6,496.6C781.6,496.6,781.5,496.6,781.6,496.6
				c-57.5,0-102.7,14.7-107.3,16.3c-32.6,8.3-56.8,23-71.9,43.9c-16.9,23.3-21.7,53-14.3,88.5c3.9,18.8,17.4,32,41.1,40.1
				c19.6,6.8,44.1,9.6,70,12.6c24.6,2.9,50.1,5.8,72.3,12.4c24.1,7.1,40.8,17.5,51.1,31.9c11.3,15.9,14.8,30.7,10.5,45.5
				c-10.4,36.1-63.4,58.5-64,58.7c-2.9,1.2-4.9,4.1-4.9,7.2c-0.1,3.2,1.8,6.1,4.6,7.4c1.3,0.6,32.5,14.8,72.3,14.8
				c45.1,0,105.8-18.6,138.8-107c18.1-48.4,17.9-91.5-0.5-128.1c-10.4-20.6-26.8-39.2-48-54.3c21.9,8.1,36.1,17.9,36.4,18.1
				c1.4,1,3,1.5,4.6,1.5c2,0,4.1-0.8,5.6-2.3c2.8-2.7,3.2-7,1-10.2c-24-35.5-55.7-61.7-94.4-77.8C854.1,503,819.4,496.6,781.6,496.6
				L781.6,496.6z"/>
		</g>
		<path class="st1" d="M818.9,852.7c0,0,85.8,26.6,121.2-70.6c0,0-2.7,98.2-133.1,82.3L818.9,852.7z"/>
		<path class="st1" d="M772.2,561c0,0,159.3,15.5,180.2,129.5c0,0-36.2-85.5-126.7-96.6c0,0-30.6,20.4-76.9,23.9
			c0,0,252,65.6,128.3,216c0,0,117.2-128.3-146.4-211.7L772.2,561z"/>
	</g>
	<g>
		<path class="st2" d="M-2,519.2c0,0-7.5-142.3-72.6-132.5l-37.5,211.9c0,0,78.1,73.2,114.1,32.5L-2,519.2z"/>
		<g>
			<path class="st1" d="M-15.7,517.4c0,0-6.1-116.4-59.4-108.4l-30.7,173.4c0,0,63.9,59.9,93.3,26.6L-15.7,517.4z"/>
		</g>
		<g>
			<path class="st0" d="M227.3,825.7c-2.8,0-5.7-0.7-8.4-2.2C175.1,800-28.3,648.8-37,642.4c-1.4-1-1.9-2.8-1.4-4.4l20-66.2
				l5.6-18.6l5.7-18.7l4.4-14.6c0.3-1,1-1.9,2-2.4c0.6-0.3,1.2-0.4,1.8-0.4c0.4,0,0.9,0.1,1.3,0.2l64.5,22l6.6,2.2l222.1,75.8
				c1.8,0.6,2.9,2.4,2.7,4.3c-0.1,0.5-6.8,50.9-18.4,100.7C263.7,791.9,246.5,825.7,227.3,825.7
				C227.3,825.7,227.3,825.7,227.3,825.7z"/>
			<path class="st1" d="M1.2,521l64.5,22l6.6,2.2L294.4,621c0,0-26.7,200.7-67,200.7c-2.1,0-4.3-0.6-6.5-1.7
				c-44-23.6-255.4-180.8-255.4-180.8l8.5-28.1l11.5-38.1l5.6-18.6l5.7-18.7L1.2,521 M1.2,513c-1.3,0-2.5,0.3-3.7,0.9
				c-1.9,1-3.4,2.7-4,4.8l-4.4,14.6l-5.7,18.7l-5.6,18.6l-11.5,38.1l-8.5,28.1c-1,3.2,0.2,6.7,2.9,8.7C-30.7,652,173,803.4,217,827
				c3.3,1.8,6.8,2.7,10.3,2.7c12.9,0,24.3-11.8,34.8-36.2c7.4-17.1,14.7-40.8,21.6-70.4c11.7-50,18.5-100.6,18.5-101.1
				c0.5-3.8-1.7-7.4-5.3-8.6L74.8,537.7l-6.6-2.2l-64.5-22C2.9,513.1,2,513,1.2,513L1.2,513z"/>
		</g>
		<g>
			<path class="st1" d="M-32.2,626.5c0,0,211.8,154.7,255.9,178.3c44,23.6,67.1-164.8,67.1-164.8L-1.7,536.2L-32.2,626.5z"/>
		</g>
		<g>
			<path class="st0" d="M151.5,677.9l-44,56.2l20.5,13.1C128,747.2,145.2,700.9,151.5,677.9z"/>
		</g>
		<path class="st3" d="M163,571.7c0,0,2,97.5-37,186.4"/>
		<g>
			
				<linearGradient id="SVGID_1_" gradientUnits="userSpaceOnUse" x1="10586.1689" y1="2025.9708" x2="11664.8408" y2="2025.9708" gradientTransform="matrix(-0.9827 -0.185 -0.185 0.9827 11656.9541 747.347)">
				<stop  offset="0" style="stop-color:#52FFCE"/>
				<stop  offset="0.9948" style="stop-color:#6700E4"/>
			</linearGradient>
			<path class="st4" d="M67.1,675.7c-9.5-2.1-42-24.3-80.2-50.9c-5.8-4-11-7.6-15.2-10.5l-2.4-1.7l9.9-32.8l76.9,46l22.9-45.1
				l3.9,4.6c21,24.6,84.4,56.4,85.1,56.7l17.1,8.6l-19.1-1c-39.2-2-64.7-13.9-74-19.1l-21.7,45.7L67.1,675.7z"/>
			<path class="st1" d="M-18.5,586l76.2,45.6L79.8,588c21.8,25.5,86.3,57.7,86.3,57.7c-48.6-2.5-76-20.7-76-20.7l-22.2,46.8
				c-11.5-2.6-69.6-44-94-60.7L-18.5,586 M78.1,573.7l-5.4,10.7l-18.2,35.9l-68.8-41.2l-8.8-5.3l-3,9.8l-7.6,25l-1.7,5.6l4.8,3.3
				c4.2,2.9,9.3,6.4,15.1,10.5c46.8,32.5,72.3,49.4,81.6,51.5l6.2,1.4l2.7-5.8l18.5-39.1c11.9,5.9,36.5,15.8,72,17.6l38.2,2
				l-34.2-17.1c-0.2-0.1-16.2-8.1-34.6-19.1c-23.9-14.3-40.9-26.9-49.2-36.7L78.1,573.7L78.1,573.7z"/>
		</g>
		<g>
			
				<linearGradient id="SVGID_2_" gradientUnits="userSpaceOnUse" x1="10511.877" y1="1963.9011" x2="11849.5537" y2="1963.9011" gradientTransform="matrix(-0.9827 -0.185 -0.185 0.9827 11656.9541 747.347)">
				<stop  offset="0" style="stop-color:#52FFCE"/>
				<stop  offset="0.9948" style="stop-color:#6700E4"/>
			</linearGradient>
			<path class="st5" d="M-13.9,556.2l7.2-20l46.2,25.4c4.3-4.5,14.4-14.7,23.7-21.8l1.3-1l12.5,1.5l-3.8,5.5
				c-1.3,1.9-2.7,3.9-4.1,5.8c-13.1,19.1-22.4,31.6-31.1,32.3l-1.2,0.1L-13.9,556.2z"/>
			<path class="st1" d="M-4.4,541.9l44.8,24.7c0,0,13.4-14.6,25.4-23.6l4.3,0.5c-10.8,15.4-23.7,35.8-32.1,36.4l-46.7-25.6
				L-4.4,541.9 M-8.8,530.4l-3.2,8.8l-4.5,12.4l-2.3,6.4l6,3.3L34,586.9l2.1,1.1l2.3-0.2c10.5-0.8,19.9-13.3,34.1-34
				c1.4-2,2.7-3.9,4-5.8l7.7-11l-13.3-1.6l-4.3-0.5l-3.2-0.4l-2.6,2c-8.2,6.2-17,14.8-22.1,20l-39.4-21.7L-8.8,530.4L-8.8,530.4z"/>
		</g>
		<g>
			<path class="st0" d="M595.8,994.4c-2.2,0-3.9-1.7-4-3.9L584.6,699c-0.1-2.2,1.6-4,3.8-4.1l62.6-3.2c0.1,0,0.1,0,0.2,0
				c0.4,0,0.8,0.1,1.2,0.2c0.4,0.1,43.8,13.6,87.3,35.7c59.3,30.1,90.7,61.1,93.2,92.2c1.5,18.1-7.8,38.4-27.7,60.5
				c-23.7,26.4-62.9,54.9-107.5,78.3C656.8,980.2,617.8,993.9,595.8,994.4C595.9,994.4,595.8,994.4,595.8,994.4z"/>
			<path class="st1" d="M651.3,695.8c0,0,171.9,53,177.7,124.3c5.8,71.3-175.2,169-233.2,170.3l-7.2-291.5L651.3,695.8 M651.3,687.8
				c-0.1,0-0.3,0-0.4,0l-62.6,3.2c-4.3,0.2-7.7,3.9-7.6,8.2l7.2,291.5c0.1,4.3,3.7,7.8,8,7.8c0.1,0,0.1,0,0.2,0
				c22.4-0.5,62.2-14.4,103.7-36.2c44.9-23.6,84.5-52.5,108.6-79.2c20.6-22.9,30.3-44.3,28.7-63.5c-2.7-32.5-34.8-64.6-95.4-95.4
				c-43.8-22.2-86.1-35.4-87.9-35.9C652.8,687.9,652,687.8,651.3,687.8L651.3,687.8z"/>
		</g>
		<g>
			<path class="st1" d="M643.4,706c0,0,155.5,48,160.8,112.5c5.3,64.5-158.4,152.8-210.9,154l-6.5-263.7L643.4,706z"/>
		</g>
		<g>
			<path class="st0" d="M806.4,817c0,0-56-21.1-91.6-11.3c0,0,82.8,14.2,91.1,46.9C805.8,852.6,817.4,841.5,806.4,817z"/>
		</g>
		<g>
			
				<linearGradient id="SVGID_3_" gradientUnits="userSpaceOnUse" x1="10672.502" y1="2130.1511" x2="11736.4619" y2="2130.1511" gradientTransform="matrix(-0.9827 -0.185 -0.185 0.9827 11656.9541 747.347)">
				<stop  offset="0" style="stop-color:#52FFCE"/>
				<stop  offset="0.9948" style="stop-color:#6700E4"/>
			</linearGradient>
			<path class="st6" d="M602.5,870.4l69.2-39.2l26.3,7.3c6.3-3.8,31.1-19.2,41.2-30.1l12.4-13.3l-5.7,17.3
				c-0.1,0.2-5.7,17.3-13.1,34.3c-14,32.2-22,36.3-27.4,36.3c0,0,0,0,0,0c-0.6,0-1.2-0.1-1.8-0.2l-0.3-0.1L677,873l-40.8,34.3
				L602.5,870.4z"/>
			<path class="st1" d="M742.2,811.2c0,0-22.3,67.8-36.7,67.8c-0.3,0-0.6,0-1-0.1l-28.4-10.5l-39.6,33.4l-27.7-30.4l63.4-35.9
				l26.3,7.4C698.6,842.9,730,824.2,742.2,811.2 M761.1,779.1l-24.8,26.6c-8.4,9-28.8,22.3-38.9,28.5l-23-6.4l-3.2-0.9l-2.9,1.6
				l-63.4,35.9l-8.7,4.9l6.8,7.4l27.7,30.4l5.2,5.7l5.9-5l36.1-30.4l24,8.9l0.5,0.2l0.5,0.1c0.9,0.2,1.8,0.3,2.7,0.3
				c10.1,0,19.1-11.2,31-38.7c7.4-17.1,13-33.9,13.2-34.6L761.1,779.1L761.1,779.1z M742.2,819.2L742.2,819.2L742.2,819.2
				L742.2,819.2z"/>
		</g>
		<path class="st3" d="M829,820.1c0,0-106.8-34.8-185.4-3.6"/>
		<g>
			<path class="st0" d="M487.1,1258.2c-0.2,0-0.5,0-0.7-0.1l-145.3-26.4c-1.1-0.2-2-0.8-2.6-1.7s-0.8-2-0.6-3.1
				c9.4-42,19-88.9,20.3-101.8c-8.5,1.2-32.7,6.3-83.8,20.1c-13.3,3.6-28,7.6-43.6,12.1c-35.3,10-75.5,21.8-119.6,35.1
				c-0.4,0.1-0.8,0.2-1.2,0.2c-0.2,0-0.5,0-0.7-0.1l-31.1-5.9l-53.7-10.1l-107.2-20.2c-1.5-0.3-2.8-1.4-3.1-3s0.2-3.1,1.4-4.1
				l129.9-103.7l145.3-115.9l11.7-54.4l8.3-38.6l13.6-62.9l9.8-45.5l22.1-102.5c0.4-1.9,2-3.2,3.9-3.2c0.1,0,0.3,0,0.4,0L644.1,665
				c1.7,0.2,3,1.4,3.4,3c0.1,0.4,9.6,39.7,19.1,93.8c8.4,47.7,14.2,92,17.2,131.7c2.8,36.7,3.3,69.3,1.3,97
				c-2.5,34.8-8.8,62.4-18.8,81.9c-27.8,54.2-74.5,101.7-108.8,132c-37.1,32.8-68,53-68.3,53.2
				C488.6,1258,487.9,1258.2,487.1,1258.2z"/>
			<path class="st1" d="M260.3,626.6L643.7,669c0,0,9.5,38.9,19.1,93.5c6.8,38.7,13.6,85.2,17.2,131.3c2.6,33.4,3.4,66.5,1.3,96.4
				c-2.2,31.8-7.9,59.9-18.4,80.4c-53.4,103.9-175.7,183.7-175.7,183.7l-145.3-26.4c0,0,23.6-105.4,20.1-106.9
				c-0.2-0.1-0.4-0.1-0.8-0.1c-5.2,0-31.8,5.4-87.8,20.5c-13,3.5-27.5,7.5-43.7,12.1c-32.8,9.2-72.4,20.8-119.7,35.1l-31.1-5.9
				l-53.7-10.1l0,0l-107.2-20.2l29.9-23.9l100-79.8l124.4-99.3l22-17.5l12-55.8l8.3-38.6l13.6-62.9l0,0l9.8-45.5L260.3,626.6
				 M260.3,618.6c-3.7,0-7,2.6-7.8,6.3l-22.1,102.5l-9.8,45.5c0,0,0,0.1,0,0.1l-13.6,62.8l-8.3,38.6l-11.4,53l-19.7,15.8L43,1042.4
				l-100,79.8l-29.9,23.9c-2.4,2-3.5,5.1-2.8,8.2c0.8,3,3.2,5.4,6.3,5.9l107.2,20.2l53.7,10.1l31.1,5.9c0.5,0.1,1,0.1,1.5,0.1
				c0.8,0,1.6-0.1,2.3-0.3c44-13.3,84.2-25.1,119.5-35.1c15.6-4.4,30.3-8.5,43.6-12c43.8-11.8,67.2-17.1,78.1-19.1
				c-2.6,17.2-11.1,58.5-19.5,96.1c-0.5,2.1-0.1,4.4,1.1,6.2c1.2,1.8,3.1,3.1,5.2,3.5l145.3,26.4c0.5,0.1,1,0.1,1.4,0.1
				c1.5,0,3.1-0.4,4.4-1.3c1.3-0.8,31.5-20.6,68.8-53.6c21.9-19.4,41.6-39.2,58.7-59.1c21.4-24.9,38.6-49.8,51-74.1
				c10.3-20,16.8-48.1,19.3-83.5c2-27.9,1.5-60.7-1.3-97.6c-3.1-39.8-8.9-84.3-17.3-132.1c-9.5-54.2-19.1-93.6-19.2-94
				c-0.8-3.3-3.6-5.7-6.9-6.1l-383.4-42.3C260.9,618.6,260.6,618.6,260.3,618.6L260.3,618.6z"/>
		</g>
		<g>
			<path class="st1" d="M-81.9,1152.3l107.2,20.2l0,0l53.7,10.1l0,0c47.3-14.3,116.5-37,149.3-46.3c16.2-4.6,50.8-14.5,63.7-18
				c33.1-8.9,67.7,2.7,70,2.5c20.1-1.5-4.1,109.8-4.1,109.8l129.3,23.5c0,0,122-95.1,166.5-203.1c27.6-67-27.6-385.5-27.6-385.5
				l-365.7-39l3.8,97.7l-21.8,59.2l-27.5,146.2l-19,18.6l-221.2,185.2L-81.9,1152.3z"/>
		</g>
		<path class="st0" d="M510.5,1118.1c0,0-45.2-6.2-59.6-4.2l40.6,22.2L510.5,1118.1z"/>
		<g>
			<path class="st0" d="M478.1,821.8c-55.3,0-102.6-6.8-140.6-20.3c-1.4-0.5-2.4-1.7-2.6-3.2l-6.3-41.5c-0.2-1.1,0.2-2.3,0.9-3.2
				s1.8-1.4,3-1.4c0,0,233.2-5,233.2-5c2.2,0,3.9,1.7,4,3.9c0,1.2,0.6,29.7-9.7,63.1c-0.5,1.5-1.7,2.6-3.3,2.8
				C556.4,817.2,522.7,821.8,478.1,821.8z"/>
			<path class="st1" d="M565.7,751.3c0,0,0.7,28.7-9.5,61.8c0,0-33.2,4.7-78.1,4.7c-42,0-94.2-4.1-139.2-20l-6.3-41.5L565.7,751.3
				 M565.7,743.3c-0.1,0-0.1,0-0.2,0l-233.1,5c-2.3,0-4.5,1.1-5.9,2.8s-2.1,4.1-1.8,6.3l6.3,41.5c0.4,2.9,2.5,5.4,5.2,6.3
				c38.4,13.6,86.2,20.5,141.9,20.5c44.9,0,77.8-4.6,79.2-4.8c3.1-0.4,5.6-2.6,6.5-5.6c10.5-34,9.9-63.2,9.9-64.4
				C573.6,746.8,570,743.3,565.7,743.3L565.7,743.3z"/>
		</g>
		<g>
			
				<linearGradient id="SVGID_4_" gradientUnits="userSpaceOnUse" x1="10703.8398" y1="2508.594" x2="11591.0254" y2="2508.594" gradientTransform="matrix(-0.9827 -0.185 -0.185 0.9827 11656.9541 747.347)">
				<stop  offset="0" style="stop-color:#52FFCE"/>
				<stop  offset="0.9948" style="stop-color:#6700E4"/>
			</linearGradient>
			<path class="st7" d="M409.4,1160.8l-55.3-13.1l5.3-20.8l3.1,0c12.7,0,76.4,0.7,88.1,13.8c5.8,6.5,4.7,21.3-3.4,46.7
				c-5.6,17.5-12.6,33.8-12.7,33.9l-0.8,1.9l-49.1,9.3L409.4,1160.8z"/>
			<path class="st1" d="M362.5,1130.9c0,0,74,0,85.1,12.5c11.1,12.4-16.8,76.4-16.8,76.4l-40.2,7.7l24-69.5l-55.6-13.2L362.5,1130.9
				 M356.3,1122.8l-1.5,6l-3.5,13.9l-2,7.9l7.9,1.9l47,11.1l-21.1,61.1l-4.5,13.1l13.6-2.6l40.2-7.7l4.1-0.8l1.7-3.9
				c0.3-0.7,7.2-16.6,12.9-34.3c11.1-34.9,7.2-45.4,2.6-50.6c-4.2-4.7-13.9-10.6-52-13.6c-20-1.6-38.2-1.6-39-1.6L356.3,1122.8
				L356.3,1122.8z"/>
		</g>
		<g>
			
				<linearGradient id="SVGID_5_" gradientUnits="userSpaceOnUse" x1="10673.4062" y1="2525.1887" x2="11572.5977" y2="2525.1887" gradientTransform="matrix(-0.9827 -0.185 -0.185 0.9827 11656.9541 747.347)">
				<stop  offset="0" style="stop-color:#52FFCE"/>
				<stop  offset="0.9948" style="stop-color:#6700E4"/>
			</linearGradient>
			<path class="st8" d="M12.7,1174.3l140.7-69.1l0.5-0.1c1.7-0.4,3.7-0.6,6.1-0.6c22.9,0,75.1,18,114.8,33.1l11.5,4.4l-11.9,3.2
				c-13.3,3.6-28,7.6-43.6,12.1l-1.2,0.3l-1.2-0.4c-27.7-9.8-55.6-17.1-62.3-18.9l-86.4,48.5L12.7,1174.3z"/>
			<path class="st1" d="M160,1108.5c23.2,0,79.3,19.9,113.4,32.8c-13,3.5-27.5,7.5-43.7,12.1c-32.2-11.4-64.2-19.4-64.2-19.4
				L79,1182.7l-53.7-10.1l129.5-63.6C156.2,1108.7,158,1108.5,160,1108.5 M160,1100.5c-2.6,0-4.9,0.2-6.9,0.6l-1,0.2l-0.9,0.4
				l-129.5,63.6L0.2,1176l23.6,4.5l53.7,10.1l2.9,0.5l2.5-1.4l83.7-47c8.7,2.3,34.7,9.2,60.4,18.4l2.4,0.9l2.5-0.7
				c15.6-4.4,30.3-8.5,43.6-12l23.9-6.4l-23.1-8.8C236.2,1118.7,183.6,1100.5,160,1100.5L160,1100.5z"/>
		</g>
		<g>
			
				<linearGradient id="SVGID_6_" gradientUnits="userSpaceOnUse" x1="10638.0156" y1="2491.6045" x2="11562.4082" y2="2491.6045" gradientTransform="matrix(-0.9827 -0.185 -0.185 0.9827 11656.9541 747.347)">
				<stop  offset="0" style="stop-color:#52FFCE"/>
				<stop  offset="0.9948" style="stop-color:#6700E4"/>
			</linearGradient>
			<polygon class="st9" points="-59.7,1129.5 51.8,1040.5 52.3,1064.1 -38,1138.9 			"/>
			<path class="st1" d="M48,1048.7l0.3,13.6l-86.9,72l-13.4-5.8L48,1048.7 M55.6,1032.4L43,1042.4l-100,79.8l-10.4,8.3l12.2,5.3
				l13.4,5.8l4.5,1.9l3.8-3.1l86.9-72l3-2.5l-0.1-3.9l-0.3-13.6L55.6,1032.4L55.6,1032.4z"/>
		</g>
		
			<linearGradient id="SVGID_7_" gradientUnits="userSpaceOnUse" x1="10725.8672" y1="2176.9978" x2="11327.2549" y2="2176.9978" gradientTransform="matrix(-0.9827 -0.185 -0.185 0.9827 11656.9541 747.347)">
			<stop  offset="0" style="stop-color:#52FFCE"/>
			<stop  offset="0.9948" style="stop-color:#6700E4"/>
		</linearGradient>
		<polygon class="st10" points="216.5,828.1 246.9,861.1 348.3,871.4 438.6,895.8 351.3,855.1 250.8,840 230.1,765.2 		"/>
		
			<linearGradient id="SVGID_8_" gradientUnits="userSpaceOnUse" x1="10725.8672" y1="2145.5024" x2="11327.2549" y2="2145.5024" gradientTransform="matrix(-0.9827 -0.185 -0.185 0.9827 11656.9541 747.347)">
			<stop  offset="0" style="stop-color:#52FFCE"/>
			<stop  offset="0.9948" style="stop-color:#6700E4"/>
		</linearGradient>
		<polygon class="st11" points="680.5,845.2 635.9,873.1 546.9,882.3 455.5,902.5 544.6,865.9 629,853.6 669.9,781.8 		"/>
		
			<linearGradient id="SVGID_9_" gradientUnits="userSpaceOnUse" x1="10725.8672" y1="2140.8542" x2="11327.2549" y2="2140.8542" gradientTransform="matrix(-0.9827 -0.185 -0.185 0.9827 11656.9541 747.347)">
			<stop  offset="0" style="stop-color:#52FFCE"/>
			<stop  offset="0.9948" style="stop-color:#6700E4"/>
		</linearGradient>
		<path class="st12" d="M427.3,868.8l-43.2-59.5l-45.5-10.2l-8.8-62l-65.8-12.8c0,0,6.9,92.2,27.7,93.7l75.3,19.1L427.3,868.8z"/>
		
			<linearGradient id="SVGID_10_" gradientUnits="userSpaceOnUse" x1="10725.8672" y1="2116.9487" x2="11327.2549" y2="2116.9487" gradientTransform="matrix(-0.9827 -0.185 -0.185 0.9827 11656.9541 747.347)">
			<stop  offset="0" style="stop-color:#52FFCE"/>
			<stop  offset="0.9948" style="stop-color:#6700E4"/>
		</linearGradient>
		<path class="st13" d="M466.6,881.7l42.9-60.5l46.6-8.1l9.5-61.8l66-12c0,0-8.1,92.1-28.9,93.3l-75.6,18.1L466.6,881.7z"/>
		<g>
			
				<linearGradient id="SVGID_11_" gradientUnits="userSpaceOnUse" x1="10799.3262" y1="2039.1045" x2="11229.1836" y2="2039.1045" gradientTransform="matrix(-0.9827 -0.185 -0.185 0.9827 11656.9541 747.347)">
				<stop  offset="0" style="stop-color:#52FFCE"/>
				<stop  offset="0.9948" style="stop-color:#6700E4"/>
			</linearGradient>
			<path class="st14" d="M478.4,794.2c-85,0-166.2-22.4-241.4-66.6l-2.5-1.5l22.6-103.8l389.8,43l0.7,2.7c0.1,0.3,8.3,32.9,17.8,87
				l0.6,3.2l-3.1,1.2C603.4,782.1,539.6,794.2,478.4,794.2C478.4,794.2,478.4,794.2,478.4,794.2z"/>
			<g>
				<path class="st1" d="M260.3,626.6L643.7,669c0,0,8.1,32.1,17.7,86.7c-38.9,14.9-103.9,34.5-183,34.5
					c-71.4,0-154.2-16-239.3-66.1L260.3,626.6 M254,617.9l-1.5,7l-21.2,97.5L230,728l5,2.9c75.8,44.6,157.7,67.2,243.4,67.2
					c35.8,0,72.2-4,108.3-11.9c26.3-5.7,52.4-13.5,77.6-23.2l6.2-2.4l-1.1-6.5c-9.5-54.3-17.8-87-17.8-87.3l-1.4-5.4l-5.5-0.6
					l-383.4-42.3L254,617.9L254,617.9z"/>
			</g>
		</g>
		<g>
			<g>
				<path class="st0" d="M485.4,737.7c-7.3,0-14.7-0.1-22-0.4c-17.6-0.7-35.5-2.2-53.2-4.6c-62.8-8.6-107.6-25.6-116.1-29.7
					c-52.5-25.2-80.8-57.8-79.9-91.9c-1.7-3.2-12.1-14.9-19.9-23.5c-8.2-9.2-16.8-18.7-20.9-24.4c-26.9-37.5-22.8-84.6-18.8-130.2
					c1.1-12.7,2.3-25.8,2.7-38.6c2.8-73.7,37-142.3,96.4-193.3c59.1-50.6,136.9-78.5,219-78.5c4.6,0,9.3,0.1,13.9,0.3
					c85,3.2,163.8,35.7,221.9,91.5c58.2,55.9,88.7,128.4,85.8,204.3c-2.2,58-23.9,113-62.6,159.1c-6.6,7.8-9.7,31.8-10.4,51.6l0,0.3
					c-1,26.1-18.5,50.2-50.7,69.9c-0.5,0.3-49.8,29-141.7,36.4C514.8,737.1,500.1,737.7,485.4,737.7
					C485.4,737.7,485.4,737.7,485.4,737.7z"/>
				<path class="st1" d="M472.9,126.6c4.5,0,9.1,0.1,13.7,0.3c173.7,6.6,309.8,137.2,303.9,291.6c-2.3,59-24.9,112.9-61.7,156.7
					c-10,11.9-11.2,50.3-11.4,54.3c-1,25.5-19,48.4-48.8,66.6c-6.7,4.1-55.5,29-139.9,35.8c-13.5,1.1-28,1.7-43.3,1.7
					c-7.1,0-14.4-0.1-21.9-0.4c-18.7-0.7-36.4-2.4-52.8-4.6c-62.5-8.5-106.5-25.3-114.9-29.3c-48.9-23.4-78.9-54.4-77.6-88.8
					c0.2-4.1-32.4-37-41.5-49.7c-33.3-46.5-17.6-107.3-15.3-166.3C167.2,244.1,305.3,126.6,472.9,126.6 M472.9,118.6
					c-83.1,0-161.9,28.2-221.7,79.5c-60.2,51.6-95,121.3-97.8,196.1c-0.5,12.7-1.6,25.7-2.7,38.4c-4.1,46.3-8.3,94.2,19.5,132.9
					c4.2,5.9,12.8,15.4,21.1,24.7c6.5,7.3,16.2,18,18.8,21.9c-0.2,18.2,7.2,35.7,22.1,52.2c14,15.5,34.2,29.7,60.1,42.1
					c8.7,4.2,54,21.4,117.3,30.1c17.8,2.4,35.9,4,53.6,4.7c7.4,0.3,14.9,0.4,22.2,0.4c14.8,0,29.6-0.6,43.9-1.7
					c78.3-6.3,130.1-28.8,143.5-37c16-9.7,28.6-20.7,37.5-32.6c9.5-12.8,14.6-26.4,15.2-40.5l0-0.3c0.9-24.1,4.6-43.4,9.5-49.2
					c39.3-46.8,61.3-102.7,63.6-161.5c1.5-39-5.7-77.1-21.2-113.3c-15-34.9-37.1-66.5-65.8-94.1c-28.6-27.5-62.3-49.5-100.1-65.3
					c-39.1-16.4-81-25.6-124.4-27.3C482.3,118.7,477.6,118.6,472.9,118.6L472.9,118.6z"/>
			</g>
			<g>
				
					<linearGradient id="SVGID_12_" gradientUnits="userSpaceOnUse" x1="10729.6182" y1="1793.4398" x2="11384.7549" y2="1793.4398" gradientTransform="matrix(-0.9827 -0.185 -0.185 0.9827 11656.9541 747.347)">
					<stop  offset="0" style="stop-color:#52FFCE"/>
					<stop  offset="0.9948" style="stop-color:#6700E4"/>
				</linearGradient>
				<path class="st15" d="M153.9,503.1c3.6,11.3,8,22.5,13.2,33.4c4.7,9.9,10.2,19.6,16.3,29c6.9,10.5,14.7,20.5,23.4,30
					c3,3.3,6,6.4,9,9.5c0.7,0.7,1.3,1.3,2,2c12.6,12.6,24.6,22.7,36.2,30.7c9.1,6.3,17.9,11.4,26.3,15.3c27,12.5,50.7,13.3,71.3,8.4
					c38.6-9.2,66.6-38.8,86-51.4c38.3-24.9,86.8,22.9,109.4,36.3c115.3,68.8,228.4-151.4,228.4-151.4
					c64.4-95.1-33.3-203.4-33.3-203.4s-135.9-2.9-269-10.1c-11.4-0.6-22.7-1.2-33.9-1.9c-10.8-0.7-21.5-1.3-32-2
					c-15.3-1-30.3-2.1-44.6-3.3c-1.9-0.2-3.9-0.3-5.8-0.5c-12.6-1-24.6-2.2-36.1-3.3c-10.5-1.1-20.5-2.2-29.8-3.3
					c-9.7-1.2-18.7-2.5-26.8-3.8c-12.5-2-22.7-4.2-30.2-6.5C167.8,236.4,114.1,378.2,153.9,503.1z"/>
			</g>
			<g>
				<path class="st1" d="M229.9,285.7c47,0,109.6,70.7,227.6,84.5c10.8,1.3,21.5,1.8,32.2,1.8c118.3,0,227.4-70.7,227.4-70.7
					s47.3,24,65.3,115.6c17.9,91.6-38,158.3-38,158.3c-30.6-35.2,0.2-131.8,0.2-131.8c-4,7.9-10.6,10.1-16.8,10.1
					c-8,0-15.3-3.7-15.3-3.7c33.7-33.8-23.6-103.1-23.6-103.1c25.4,35.4-28.4,96.5-28.4,96.5c-13-50.4-79.3-63.6-79.3-63.6
					c48.5,34.4,19.6,99.1,19.6,99.1c-0.1,0-0.3,0-0.4,0c-65.8,0-116.1-80-116.1-80C457.8,470.3,365,474.2,365,474.2
					c-18.5-53.8,24.5-94.2,24.5-94.2l-32.7-12c-30.3,32.3-32.2,99.7-32.2,99.7c-40.8-9-59.3-57.1-64-71.3c-0.3-1.3-0.7-2.6-1.2-3.9
					c0,0,0.4,1.4,1.2,3.9c9.1,35.4-24.2,77.3-24.2,77.3c-2.8-27.9-33.5-52.1-33.5-52.1c9.4,72-26.2,139.2-26.2,139.2
					c-61.3-50.6-9.4-255.7,39.3-272.8C220.6,286.4,225.1,285.7,229.9,285.7 M229.9,277.7c-5.7,0-11.3,0.9-16.4,2.7
					c-17.8,6.3-32,30-40.8,48.8c-11.4,24.3-20.7,55-26.3,86.2c-5.6,31.8-7,61.9-3.8,87c3.7,29.9,13.5,51.6,29.2,64.5
					c1.4,1.2,3.2,1.8,5.1,1.8c0.5,0,1-0.1,1.6-0.2c2.4-0.5,4.4-2,5.5-4.1c0.4-0.7,9.4-17.8,17.2-44c5.9-19.7,12-47.7,11.4-78.2
					c7.3,8.6,14.8,20.2,16,32.2c0.3,3.2,2.6,6,5.7,6.9c0.7,0.2,1.5,0.3,2.3,0.3c2.4,0,4.7-1.1,6.3-3c1-1.3,17.7-22.5,24.6-48.4
					c11.2,18.9,29,39.3,55.6,45.2c0.6,0.1,1.1,0.2,1.7,0.2c1.8,0,3.5-0.6,4.9-1.7c1.9-1.5,3-3.7,3.1-6.1c0-0.6,2-59.4,26.6-90.5
					l16.5,6.1c-3.9,4.9-8.5,11.6-12.6,19.8c-12,24-14,49.4-5.7,73.5c1.1,3.2,4.2,5.4,7.6,5.4c0.1,0,0.2,0,0.3,0
					c1,0,24.8-1.1,52.2-11.4c16.2-6.1,30.4-14.2,42.1-24c10.9-9.2,19.7-20,26.2-32.1c6,7.9,14.9,18.8,26.3,29.7
					c12.6,12.1,25.6,21.8,38.6,28.8c16.6,8.9,33.3,13.5,49.7,13.5l0.4,0c3.1,0,6-1.9,7.3-4.7c0.3-0.7,7.8-17.8,9.1-39.4
					c1-17.1-2.2-32.3-9.3-45.1c1.6,0.7,3.1,1.5,4.7,2.4c21.9,11.6,35.4,26.9,40.2,45.5c0.7,2.9,3,5.1,5.9,5.8
					c0.6,0.1,1.2,0.2,1.9,0.2c2.3,0,4.5-1,6-2.7c0.6-0.7,14.2-16.2,24.8-36.6c5.6-10.7,9.3-20.9,11.1-30.2c1.3,2.4,2.6,4.9,3.8,7.5
					c5.4,11.5,8.4,21.9,8.8,30.8c0.5,10.2-2.1,18.1-8.2,24.2c-1.8,1.8-2.6,4.4-2.2,6.9c0.4,2.5,2,4.7,4.3,5.9
					c0.9,0.5,9.3,4.6,19,4.6c1.3,0,2.5-0.1,3.7-0.2c-2.2,9.3-4.7,21.1-6.4,33.7c-5.5,40.3-1,69,13.3,85.4c1.5,1.7,3.7,2.8,6,2.8
					c0,0,0,0,0.1,0c2.3,0,4.6-1.1,6.1-2.9c0.6-0.7,14.9-17.9,27-46.9c7.1-17,11.9-34.5,14.4-52.1c3.1-22,2.6-44.3-1.7-66
					c-5.3-27-16.7-65.5-41-95.6c-15-18.6-28-25.3-28.5-25.5c-1.1-0.6-2.4-0.9-3.6-0.9c-1.5,0-3,0.4-4.3,1.3
					c-0.3,0.2-27.4,17.6-68.4,34.8c-37.6,15.8-95,34.6-154.6,34.6c-10.6,0-21.2-0.6-31.3-1.8c-67.4-7.9-116-34.6-155.1-56.1
					C274.3,290.3,251.5,277.7,229.9,277.7L229.9,277.7z"/>
			</g>
			<path class="st1" d="M666.8,471.4c0,0,41.1,27.4,71.4-1.1c0,0,12.5,17.5-12.4,34c0,0,13.2,13.1,31,4.4c0,0-5.9,22.1-24.2,21.3
				c0,0,10.6,24.3,24.9,19.1c0,0-26,25.1-64.9,7.4L666.8,471.4z"/>
			<path class="st1" d="M303.4,464.5c0,0-48.2,10.6-66.1-27c0,0-18,11.7-0.8,36.2c0,0-17,7.5-30.4-7.2c0,0-2.6,22.7,14.8,28.7
				c0,0-18.7,18.8-30.1,8.8c0,0,15.1,32.8,57.8,30.5L303.4,464.5z"/>
			<g>
				<path class="st0" d="M586.7,596.3c-30.9,0-48-13.4-53.7-42.3c-9.3-47.4,21.6-93.5,69-102.8c5.6-1.1,11.3-1.7,17-1.7
					c41.7,0,77.8,29.7,85.8,70.7c4.4,22.5-1.2,39.1-17.3,50.7c-14.5,10.5-36.4,15.9-58,20.1C616.2,593.6,600.6,596.3,586.7,596.3z"
					/>
				<path class="st1" d="M619,453.5c39.1,0,74,27.6,81.9,67.4c8.9,45.3-26.9,57.2-72.1,66.1c-15.1,3-29.4,5.2-42.1,5.2
					c-25.2,0-43.8-9-49.7-39.1c-8.9-45.3,20.6-89.2,65.8-98.1C608.2,454,613.7,453.5,619,453.5 M619,445.5v8V445.5
					c-5.9,0-11.9,0.6-17.8,1.7c-49.5,9.7-81.9,58-72.1,107.5c6,30.7,24.9,45.6,57.6,45.6c14.3,0,30.1-2.7,43.6-5.4
					c13.9-2.7,23.9-5.2,32.5-8c11.2-3.6,20-7.8,27-12.8c17.2-12.5,23.6-30.9,18.9-54.7C700.3,476.5,662.6,445.5,619,445.5L619,445.5
					z"/>
			</g>
			<path class="st1" d="M514.3,513.9c37.5-32.5,116.9-88.2,194.4-57.6c4.1,1.6,7.2-3.9,3.6-6.5c-33.7-24.8-107-53.1-201.3,60.9
				C509.2,512.9,512.1,515.8,514.3,513.9z"/>
			<g>
				<path class="st0" d="M351.8,583.8c-15.2,0-33-4.4-48.4-8.6c-20.6-5.7-41.5-12.6-54.9-23.9c-14.8-12.5-19.1-29.1-13.1-50.7
					c10.2-36.9,44.1-62.6,82.3-62.6c7.7,0,15.4,1.1,22.9,3.1c22,6.1,40.3,20.4,51.5,40.3c11.2,19.9,14.1,42.9,8,64.9
					C393.1,571.5,377.3,583.8,351.8,583.8C351.8,583.8,351.8,583.8,351.8,583.8z"/>
				<path class="st1" d="M317.7,441.9c7.2,0,14.5,1,21.8,3c43.4,12,68.8,56.9,56.7,100.3c-7.2,26.1-23.3,34.6-44.4,34.6
					c-13.9,0-30.1-3.7-47.3-8.5c-43.4-12-77.2-26.3-65.2-69.6C249.2,465.6,282,441.9,317.7,441.9 M317.7,433.9
					c-19.2,0-38.2,6.4-53.7,17.9c-15.9,11.9-27.2,28.4-32.5,47.6c-6.4,22.9-1.5,41.4,14.4,54.8c13.9,11.8,35.4,18.8,56.4,24.7
					c16.4,4.6,33.8,8.8,49.5,8.8c13.1,0,23.6-2.9,32.1-9c9.4-6.7,16.1-17.3,20.1-31.5c13.2-47.5-14.8-96.9-62.3-110.1
					C333.8,435,325.7,433.9,317.7,433.9L317.7,433.9z"/>
			</g>
			<path class="st1" d="M423.7,527.9C395.7,487,332.9,413,250.2,423c-4.4,0.5-6-5.5-1.9-7.2c38.8-15.5,116.9-24.4,179.4,109.7
				C428.9,528.2,425.3,530.2,423.7,527.9z"/>
			<circle class="st1" cx="328.2" cy="520" r="19.6"/>
			<g>
				<path class="st1" d="M572.2,617.4c-0.9,4.2-2.9,8.1-5.5,11.7c-2.6,3.6-5.8,6.6-9.3,9.3c-7.2,5.2-15.6,8.5-24.2,10.3l-3.2,0.7
					l-3.3,0.4l-3.3,0.4l-1.6,0.2l-1.6,0.1c-4.2,0.3-8.5,0.6-12.7,0.9c-4.2,0.3-8.5,0.5-12.7,0.8l-12.7,0.6
					c-17,0.8-33.9,1.3-50.9,1.5c-8.5,0.1-17,0.1-25.5,0.1c-8.5-0.1-17-0.1-25.5-0.3c16.8-3,33.8-4.6,50.7-6.1
					c16.9-1.4,33.9-2.4,50.8-3.2c8.5-0.4,16.9-0.7,25.4-1l12.7-0.4l1.6,0l1.5-0.1l3.1-0.2l3.1-0.2l3-0.4c8.1-1.1,16-3.3,23.1-7.3
					c3.5-2,6.8-4.5,9.8-7.5c0.7-0.8,1.4-1.5,2.1-2.3c0.6-0.8,1.3-1.6,1.9-2.5C570.2,621.1,571.3,619.3,572.2,617.4z"/>
			</g>
			<path class="st16" d="M774.6,500c0,0-113.1,220.2-228.4,151.4c-22.6-13.5-71.1-61.2-109.4-36.4
				c-38.3,24.9-110.5,116.2-230.8-14.4s-56.7-364.5,27.1-338.8c83.8,25.7,508.2,34.8,508.2,34.8S839,404.9,774.6,500z"/>
			<path class="st16" d="M775.6,494.9c0,0-113.1,220.2-228.4,151.4c-22.6-13.5-71.1-61.2-109.4-36.4
				c-38.3,24.9-110.5,116.2-230.8-14.4S150.2,231,234,256.7s508.2,34.8,508.2,34.8S840,399.8,775.6,494.9z"/>
			<circle class="st1" cx="608.5" cy="532.8" r="20.1"/>
			<g>
				<path class="st0" d="M634.6,706.6c0.4-0.2,36.6-18.8,72.2-63.5c20.9-26.3,37.5-56.3,49.4-89.3c14.9-41.3,22.3-87.3,22.1-136.8
					c-0.2-36.9-31.6-76.4-78.1-76.4c-14.6,0-29.7,3.9-44.8,11.7c-69.9,35.9-131.1,43.5-170.1,43.5c-3.8,0-7.6-0.1-11.3-0.2
					c-54.1-2.1-132-41.2-207.3-79l-1.8-0.9c-9.6-4.8-18.9-7.2-27.7-7.2c-27,0-46.8,23.1-54.4,63.4c-10.6,56.4-11.2,108.8-1.8,155.7
					c7.5,37.4,21.3,71.4,41.2,101.1c33.7,50.4,73.3,71,73.7,71.2l28.4,14.5l-31.1-7c-38.5-8.7-98.9-47.3-140.3-111.4
					c-20-30.9-34.2-56-43.6-85.6c-10.3-32.3-14.4-69.6-13-117.5c2.9-98.9,43.7-191.7,114.9-261.4C282.3,61.7,375.6,23.3,473.8,23.3
					c4,0,8,0.1,11.9,0.2c52.2,1.7,102.5,13.7,149.7,35.8c45.6,21.4,85.9,51,119.8,88.1c67.7,74.1,101.8,169.3,96,268.1
					c-3.8,65.3-21.8,123.8-53.5,173.9c-31.3,49.4-67.9,78.4-93.2,94C660,711,637.8,714,636.9,714.1l-23.2,2.9L634.6,706.6z"/>
				<g>
					<path class="st1" d="M473.8,27.3c3.9,0,7.9,0.1,11.8,0.2C693,34.1,859.4,208.4,847.2,415.3c-8.4,142.9-84.4,227.4-144.8,264.7
						c-44.3,27.4-66,30.1-66,30.1s146.8-73.7,145.9-293.2c-0.2-39.9-34.1-80.4-82.1-80.4c-14.4,0-30.2,3.7-46.6,12.1
						c-59.6,30.7-118.8,43-168.3,43c-3.8,0-7.5-0.1-11.1-0.2c-53.7-2.1-133-42.1-207.5-79.4c-10.1-5.1-20.1-7.7-29.5-7.7
						c-27.1,0-49.8,21.4-58.3,66.7C131.9,620.7,294,703.4,294,703.4c-40.9-9.2-99.5-50.3-137.9-109.7
						c-37.6-58.1-58.9-100.6-56-200.8C106.1,190.7,272.9,27.3,473.8,27.3 M473.8,19.3c-50.2,0-99.1,9.9-145.4,29.3
						c-44.7,18.8-85.1,45.7-120.1,79.9c-35,34.2-62.8,74.2-82.8,118.6c-20.6,46-31.8,95-33.3,145.5c-1.4,48.3,2.8,86.1,13.2,118.8
						c9.6,30,24,55.4,44.1,86.5c18.5,28.6,42.7,54.8,69.8,75.7c25,19.2,50.9,32.5,73,37.5l62.2,14.1l-56.8-29
						c-0.1,0-10-5.2-23.8-16.4c-12.7-10.3-31.6-28.1-48.8-54.2c-19.4-29.2-32.9-62.7-40.2-99.5c-9.2-46.2-8.5-97.9,2-153.6
						c3.8-20.4,10.6-36,20.2-46.4c8.4-9.1,18.6-13.8,30.2-13.8c8.2,0,16.9,2.3,25.9,6.8l1.8,0.9c75.7,38,154,77.3,209,79.4
						c3.8,0.1,7.6,0.2,11.4,0.2c26.7,0,54.3-3.4,82.2-10.2c30.5-7.4,60.7-18.8,89.7-33.7c14.5-7.5,29-11.2,43-11.2
						c44.1,0,74,37.5,74.1,72.4c0.2,49.1-7.2,94.8-21.9,135.7c-11.8,32.6-28.2,62.3-48.9,88.2c-35.1,44-70.3,62-70.6,62.1L591.1,724
						l46.3-5.9c1-0.1,24-3.3,69.2-31.3c25.6-15.8,62.8-45.2,94.5-95.3c32-50.7,50.2-109.8,54.1-175.8c3-50.6-4.4-100.3-21.8-147.7
						c-16.7-45.5-42.1-87-75.2-123.3c-34.3-37.5-75-67.5-121.1-89.1c-47.6-22.3-98.5-34.5-151.2-36.2
						C481.9,19.4,477.8,19.3,473.8,19.3L473.8,19.3z"/>
				</g>
			</g>
			<g>
				<path class="st0" d="M634.6,706.6c1.5-0.8,37.2-19.3,72.7-64.1c20.8-26.3,37.3-56.3,49.1-89.2c14.7-41.1,22.1-87,21.9-136.3
					c-0.2-36.7-31.4-76.2-77.7-76.4l-0.5,0c-4.2,0-8.6,0.3-12.9,1c-10.5,1.6-21.1,5.2-31.7,10.6c-69.9,35.9-131.1,43.5-170.1,43.5
					c-3.8,0-7.5-0.1-11.2-0.2c-54.1-2.1-131.9-41.2-207.2-78.9l-1.9-0.9c-9.6-4.8-18.9-7.2-27.7-7.2c-27,0-46.8,23.1-54.4,63.4
					c-10.6,56.3-11.2,108.6-1.9,155.4c7.4,37.4,21.2,71.4,41,101c26.9,40.5,60.1,64.5,73.9,71.6l28.2,14.4l-30.9-7
					c-38.5-8.7-98.9-47.3-140.3-111.4c-20-30.9-34.2-55.9-43.6-85.6c-10.3-32.3-14.4-69.6-13-117.5c2.7-93.8,40.1-183.1,105.2-251.5
					c11.1-11.6,23-22.7,35.5-32.9c9.6-7.8,19.6-15.2,29.9-22.1c17.7-11.8,36.5-22.2,55.9-30.8c47.9-21.3,98.8-32.2,151.2-32.2
					c4,0,8,0.1,12,0.2c76.1,2.4,149,27.2,210.7,71.6c16.8,12.1,32.7,25.6,47.4,40.3c8.6,8.6,16.9,17.8,24.6,27.2
					c10.5,12.8,20.1,26.3,28.7,40.2c9.6,15.5,18.1,31.7,25.2,48.2c4.2,9.7,8,19.8,11.4,29.9c14.3,43.4,20.2,88.6,17.5,134.5
					c-3.8,65.3-21.8,123.8-53.5,173.9c-31.3,49.4-67.9,78.4-93.2,94c-44.9,27.7-67.4,30.7-67.7,30.7l-22.3,2.6L634.6,706.6z"/>
				<g>
					<path class="st1" d="M473.8,27.3c3.9,0,7.9,0.1,11.8,0.2C563.3,30,635.2,56,694.1,98.4c16.7,12,32.4,25.4,46.9,39.9
						c8.6,8.6,16.7,17.6,24.3,26.9c10.3,12.6,19.9,25.9,28.4,39.8c9.4,15.2,17.8,31.2,24.9,47.7c4.2,9.6,7.9,19.5,11.2,29.5
						c13.8,41.7,20.1,86.5,17.3,133.1c-8.4,142.9-84.4,227.4-144.8,264.7c-43.6,27-65.4,30.1-66,30.1c2-1,146.8-75.2,145.9-293.2
						c-0.2-39.8-33.9-80.2-81.7-80.4c-0.2,0-0.4,0-0.5,0c-4.4,0-8.9,0.3-13.5,1.1c-10.5,1.6-21.5,5.2-32.9,11
						c-59.6,30.7-118.8,43.1-168.3,43.1c-3.7,0-7.4-0.1-11.1-0.2c-53.7-2.1-133-42.1-207.5-79.5c-10.1-5.1-20.1-7.7-29.5-7.7
						c-27.1,0-49.8,21.4-58.3,66.7C131.9,620.7,294,703.4,294,703.4c-40.9-9.2-99.5-50.3-137.9-109.7
						c-37.6-58.1-58.9-100.6-56-200.8c2.8-96.3,42.1-183.7,104.1-248.9c11-11.6,22.8-22.5,35.1-32.6c9.5-7.7,19.3-15,29.5-21.8
						c17.5-11.6,36-21.9,55.3-30.5C370.2,38.7,420.8,27.3,473.8,27.3 M473.8,19.3c-53,0-104.4,10.9-152.8,32.5
						C301.4,60.6,282.4,71,264.5,83c-10.3,6.9-20.5,14.4-30.2,22.3c-12.6,10.3-24.7,21.5-35.9,33.3
						C132.7,207.7,94.9,297.9,92.2,392.7c-1.4,48.3,2.8,86.1,13.2,118.8c9.6,30.1,24,55.4,44.1,86.5c18.5,28.6,42.7,54.8,69.8,75.7
						c25,19.2,50.9,32.5,73,37.5l62.2,14l-56.8-29c-0.1,0-10-5.2-23.8-16.4c-12.7-10.3-31.6-28.1-48.8-54.2
						c-19.4-29.2-32.9-62.7-40.2-99.5c-9.2-46.2-8.5-97.9,2-153.6c3.8-20.4,10.6-36,20.2-46.4c8.4-9.1,18.6-13.8,30.2-13.8
						c8.2,0,16.9,2.3,25.9,6.8l1.9,0.9c75.7,38,153.9,77.2,208.9,79.4c3.7,0.1,7.6,0.2,11.4,0.2c26.7,0,54.3-3.4,82.3-10.2
						c30.5-7.4,60.7-18.8,89.7-33.7c10.2-5.2,20.5-8.7,30.5-10.3c4.1-0.6,8.3-1,12.3-1l0.5,0c43.9,0.2,73.6,37.6,73.8,72.4
						c0.2,48.8-7.1,94.2-21.7,134.9c-11.6,32.5-28,62.1-48.5,88.1c-35,44.2-69.9,62.3-71.4,63.1l-40,20.4l44.6-5.3
						c0.9-0.1,23.7-3.1,69.3-31.3c25.6-15.8,62.8-45.2,94.5-95.3c32-50.7,50.2-109.8,54.1-175.8c2.7-46.4-3.2-92.2-17.7-136
						c-3.4-10.2-7.2-20.4-11.5-30.2c-7.2-16.7-15.7-33.1-25.4-48.7c-8.7-14.1-18.5-27.7-29.1-40.6c-7.8-9.5-16.2-18.8-24.9-27.5
						c-14.8-14.8-30.9-28.6-47.9-40.7C636.4,47,562.8,22,485.9,19.5C481.9,19.4,477.8,19.3,473.8,19.3L473.8,19.3z"/>
				</g>
			</g>
			<g>
				<path class="st1" d="M108.7,397.1c-2.8,96.5,20.4,137.6,69.1,196.3c43.5,52.4,53.9,87.9,93.4,96.8c0,0-144-101.3-98.7-341.8
					c11.1-58.8,74.2-45.2,111.9-26.3c71.7,36,148.1,74.5,199.9,76.5c49.8,1.9,111-9.5,172.8-41.3c11-5.6,21.6-9.1,31.7-10.6
					c4.6-0.7,9.2-1.1,13.6-1c46,0.2,78.5,39.1,78.7,77.5c0.9,210.1-138.6,281.5-140.5,282.5c0.6-0.1,21.6-3.1,63.6-29
					c58.2-36,131.4-117.4,139.5-255c2.6-44.8-3.4-88-16.7-128.2c-3.2-9.7-6.8-19.2-10.8-28.5c-6.9-15.9-14.9-31.3-24-46
					c-8.3-13.4-17.4-26.2-27.4-38.3c-7.4-9-15.2-17.7-23.5-25.9c-13.9-14-29-26.9-45.2-38.4C639.3,75.4,570,50.4,495.2,48
					c-55.2-1.8-108,9.3-155.5,30.5c-18.6,8.3-36.4,18.1-53.3,29.3c-9.8,6.5-19.3,13.6-28.5,21c-11.9,9.7-23.2,20.2-33.8,31.4
					C164.4,223,111.4,304.4,108.7,397.1z"/>
			</g>
			
				<ellipse transform="matrix(0.7137 -0.7004 0.7004 0.7137 25.6929 265.1778)" class="st0" cx="337.2" cy="101.2" rx="54.3" ry="27.3"/>
			<g>
				
					<linearGradient id="SVGID_13_" gradientUnits="userSpaceOnUse" x1="10627.9434" y1="1581.3221" x2="11728.8223" y2="1581.3221" gradientTransform="matrix(-0.9827 -0.185 -0.185 0.9827 11656.9541 747.347)">
					<stop  offset="0" style="stop-color:#52FFCE"/>
					<stop  offset="0.9948" style="stop-color:#6700E4"/>
				</linearGradient>
				<path class="st17" d="M792.7,350.8l20-50.3l-4.1-33.3l10-24.9l3.8,8.8c4.2,9.7,8,19.8,11.4,29.9l0.1,0.3l5.5,36.2l-31,70.7
					L792.7,350.8z"/>
				<path class="st1" d="M818.7,252.7c4.2,9.6,7.9,19.5,11.2,29.5l5.3,34.7l-26.8,61.1L797,350.8l19.8-49.8l-4.1-33.3L818.7,252.7
					 M818.4,231.9l-7.1,17.8l-6,15l-0.8,1.9l0.3,2l3.9,31.3l-19,47.9l-1.2,3l1.3,3l11.4,27.3l7.2,17.3l7.5-17.1l26.8-61.1l0.9-2.1
					l-0.3-2.3l-5.3-34.7l-0.1-0.7l-0.2-0.6c-3.4-10.2-7.2-20.4-11.5-30.2L818.4,231.9L818.4,231.9z"/>
			</g>
			<g>
				
					<linearGradient id="SVGID_14_" gradientUnits="userSpaceOnUse" x1="10478.1719" y1="1636.3229" x2="11545.9893" y2="1636.3229" gradientTransform="matrix(-0.9827 -0.185 -0.185 0.9827 11656.9541 747.347)">
					<stop  offset="0" style="stop-color:#52FFCE"/>
					<stop  offset="0.9948" style="stop-color:#6700E4"/>
				</linearGradient>
				<path class="st18" d="M135.8,244.9l13.6-34l0.2-0.3c5.5-9.1,11.5-18,17.8-26.5l5.7-7.7l4.1,26.5l-11.5,31.5l8.1,53.6l-23.7,32.9
					L135.8,244.9z"/>
				<path class="st1" d="M170.6,186.4l2.5,15.9l-11.5,31.5l8,53l-17.3,24L140,245.3l13-32.7C158.5,203.6,164.4,194.8,170.6,186.4
					 M175.6,166.2l-11.4,15.5c-6.4,8.6-12.4,17.6-18,26.8l-0.3,0.6l-0.2,0.6l-13,32.7l-0.9,2.2l0.4,2.3l12.3,65.5l3.4,18.4
					l10.9-15.2l17.3-24l1.9-2.6l-0.5-3.2l-7.7-50.9l10.8-29.6l0.7-1.9l-0.3-2l-2.5-15.9L175.6,166.2L175.6,166.2z"/>
			</g>
			<g>
				
					<linearGradient id="SVGID_15_" gradientUnits="userSpaceOnUse" x1="10677.5205" y1="1543.667" x2="11597.6016" y2="1543.667" gradientTransform="matrix(-0.9827 -0.185 -0.185 0.9827 11656.9541 747.347)">
					<stop  offset="0" style="stop-color:#52FFCE"/>
					<stop  offset="0.9948" style="stop-color:#6700E4"/>
				</linearGradient>
				<path class="st19" d="M199.6,143.1l1.7-1.8c11.1-11.7,23-22.7,35.5-32.9l2.8-2.3l12.8,12.4l20.5-17.4l-9.8-12.4l3.6-2.4
					c17.7-11.8,36.5-22.2,55.9-30.8l3.6-1.6l36.3,76.1l-57.8-10.9l-18.3,22.1l58.1,70.2l-85,92.5L199.6,143.1z"/>
				<path class="st1" d="M324.2,59.2l31.2,65.5l-52.4-9.9l-21.9,26.5l58,70.1l-78.2,85.1L204.3,144c11-11.6,22.8-22.5,35.1-32.6
					l12.8,12.5l26.2-22.2l-9.5-12.1C286.4,78,304.9,67.8,324.2,59.2 M328.1,48.7l-7.1,3.2C301.4,60.6,282.4,71,264.5,83l-7.2,4.8
					l5.4,6.8l4.7,6l-14.8,12.6l-7.6-7.4l-5.1-5l-5.5,4.5c-12.6,10.3-24.7,21.5-35.9,33.3l-3.4,3.6l1.7,4.7l56.7,152.4l4.6,12.2
					l8.8-9.6l78.2-85.1l4.7-5.1l-4.4-5.4l-53.8-65l14.7-17.7l47.7,9l15.5,2.9l-6.8-14.2l-31.2-65.5L328.1,48.7L328.1,48.7z"/>
			</g>
			<g>
				
					<linearGradient id="SVGID_16_" gradientUnits="userSpaceOnUse" x1="10719.6064" y1="1508.2599" x2="11635.2334" y2="1508.2599" gradientTransform="matrix(-0.9827 -0.185 -0.185 0.9827 11656.9541 747.347)">
					<stop  offset="0" style="stop-color:#52FFCE"/>
					<stop  offset="0.9948" style="stop-color:#6700E4"/>
				</linearGradient>
				<path class="st20" d="M642.3,232.4l73.9-52.7l-12-26.1l-58.6-4.4l48-56.3l3,2.2c16.8,12.1,32.7,25.6,47.4,40.3l3.2,3.3l-7.6,5.7
					l15.3,22.1l11.5-6.5l2.1,2.6c10.5,12.8,20.1,26.3,28.7,40.2l1.4,2.3l-95.8,135.3l-18.9,1.4L642.3,232.4z"/>
				<path class="st1" d="M694.1,98.4c16.7,12,32.4,25.4,46.9,39.9l-7,5.3l19.6,28.2l11.8-6.6c10.3,12.6,19.9,25.9,28.4,39.8
					l-93.2,131.6l-14.1,1.1l-39.4-103.7l74.1-52.8l-14.4-31.2l-53.1-4L694.1,98.4 M692.8,87.6l-4.8,5.6l-40.5,47.5l-10.2,12
					l15.7,1.2l48.4,3.6l9.6,20.9l-68.7,48.9l-5,3.6l2.2,5.8L679,340.4l2.1,5.6l6-0.5l14.1-1.1l3.7-0.3l2.2-3.1l93.2-131.6l3.1-4.3
					l-2.8-4.5c-8.7-14.1-18.5-27.7-29.1-40.6l-4.3-5.2l-5.8,3.3l-5.4,3L745,145.4l0.8-0.6l7.4-5.5l-6.5-6.5
					c-14.8-14.8-30.9-28.6-47.9-40.8L692.8,87.6L692.8,87.6z"/>
			</g>
			<path class="st21" d="M717,301.4c0,0-83.7-113.6-121-122.5s-171-33.1-227.6-18.5c-44.8,11.6-124.9,73.4-144.8,115.6
				c0,0,126.4,91.2,277.1,96.3C651.5,377.3,717,301.4,717,301.4z"/>
			<polygon class="st0" points="418.3,246.2 312.7,187.8 308.1,212.3 			"/>
			
				<linearGradient id="SVGID_17_" gradientUnits="userSpaceOnUse" x1="10858.5088" y1="1604.2427" x2="11298.3389" y2="1604.2427" gradientTransform="matrix(-0.9827 -0.185 -0.185 0.9827 11656.9541 747.347)">
				<stop  offset="0" style="stop-color:#52FFCE"/>
				<stop  offset="0.9948" style="stop-color:#6700E4"/>
			</linearGradient>
			<path class="st22" d="M690.4,308.2c0,0-75.2-102-108.7-110.1s-153.6-29.8-204.5-16.6C337,191.9,265,247.4,247.2,285.3
				c0,0,113.5,81.9,249,86.5C631.6,376.4,690.4,308.2,690.4,308.2z"/>
			<polygon class="st0" points="418.3,246.2 312.7,187.8 308.1,212.3 			"/>
			<path class="st16" d="M637.4,208l-168.1,66.7l-156.6-86.9c20.2-13.3,40.1-23.4,55.7-27.5c56.6-14.6,190.4,9.6,227.6,18.5
				C606.9,181.5,621.8,193,637.4,208L637.4,208z"/>
			<polygon class="st21" points="558.1,239.5 545.7,200.4 469.4,232.9 394.4,190.2 373.4,220.8 440.5,258.8 431.8,356.2 
				491.1,360.9 489.7,266.6 			"/>
			<g>
				<path class="st1" d="M171,480.5c0,0,34.4-117.3,28.5-133.5c-6-16.2,19.2-9.8,28.4,40.4c0,0,13.6-21.5,26.8-34.3
					c0,0,15.5,36,57.1,55.3c0,0-12.5-30.9,14-63l113.4,52.6c0,0-25.7,12.3-32.6,35.6c0,0,53.4-11.5,69-42.1l39.4,0.1
					c0,0,1.2,27.1,43.5,57.1l-16.7-57.8l48.3,51.5l-8.1-78.2c0,0,65.4-0.4,76.9,29.6l8.2-59.9c0,0,108.5,6.7,88.6,50.2
					s-30.2,55.2-30.2,55.2s48.5,4.2,56.8-22.3c0,0-44.6,48.2-25.5,91.8s40.1-87.8,40.1-87.8S784.2,288.2,717,301.4
					c-67.2,13.1-113.2,35-134.3,36.7c-21.1,1.7-105.4,55.7-200.4,0.1s-173.9-75.4-186.5-54.7C183.2,304.1,151.4,457,171,480.5z"/>
			</g>
			<g>
				<path class="st1" d="M297.5,704c-17.4-3.9-38.2-13.5-59.2-27.8c-49.4-42.8-122.7-135.9-88.4-318c12.1-64,52.3-86.7,95.3-65.8
					c81.9,39.9,166.9,82.2,225.7,84.8c56.6,2.5,126.2-9.3,196.2-43.4c77.5-37.7,129,32.5,129.7,87.1c2,157.1-59.8,228.2-107,266.7
					c-40.4,23.2-60.3,25.5-60.3,25.5s141.8-67.3,139.1-271.3c-0.6-48.3-56.7-97.8-125.3-64.4c-61.9,30.2-123.5,40.6-173.6,38.4
					c-52.1-2.3-129.3-40.1-201.8-75.4c-38.1-18.5-74-2.5-84.6,54.2C139.8,626,297.5,704,297.5,704z"/>
			</g>
			<path class="st0" d="M601.3,355.3l49.1-17.6c0,0,61.8,164.8,49.4,260.1c0,0-20,23.9-40.3,33.4
				C659.4,631.3,673.5,437.9,601.3,355.3z"/>
			<path class="st0" d="M683.7,318.9c0,0,45.8,119.2,38.5,251.7l25.3-28.6c0,0-5.6-176.2-52.2-227.1L683.7,318.9z"/>
			<g>
				<path class="st0" d="M634.6,706.6c1.5-0.8,37.1-19.2,72.7-64.1c20.8-26.3,37.3-56.3,49.1-89.2c14.7-41.1,22.1-87,21.9-136.3
					c-0.2-36.9-31.6-76.4-78.1-76.4c-14.6,0-29.7,3.9-44.8,11.7c-69.9,35.9-131.1,43.5-170.1,43.5c-3.8,0-7.6-0.1-11.3-0.2
					c-30.8-1.2-71.1-14-130.4-41.4c-10.7-4.9-22.4-10.5-35.8-17.1c-9.8-4.8-19.7-9.8-29-14.4l-0.6-0.3c-4.4-2.2-8.9-4.4-13.3-6.7
					c-1.9-0.9-3.8-1.8-5.5-2.5c-7.6-3.1-15.1-4.7-22.2-4.7c-27,0-46.8,23.1-54.4,63.4c-1.5,7.9-2.8,16-3.9,23.9
					c-10,71.2-3.4,134.8,19.6,189.1c3,7.1,6.3,14,9.8,20.6c4.8,9.2,10.3,18.1,16.2,26.7c7.6,11,16.2,21.5,25.4,31.1
					c13,13.6,25.1,23,32.9,28.4c7.9,5.6,13,8.2,13.1,8.2l28.1,14.4l-30.8-6.9c-4.7-1.1-9.7-2.5-14.8-4.4
					c-11.6-4.2-23.8-10.4-36.3-18.2c-3.6-2.3-7.4-4.8-11.1-7.4l-0.2-0.1l-0.2-0.2c-5.7-5.1-11.3-10.6-16.6-16.2
					c-6.3-6.7-12.4-13.7-17.9-20.9c-10.5-13.4-19.8-28-27.8-43.1c-37.8-71.9-47-161.1-27.5-265.1c9.8-51.9,36.7-82.8,72.1-82.8
					c10.6,0,21.5,2.8,32.5,8.3c4.3,2.2,8.7,4.4,13,6.5l11.9,6c6.3,3.1,12.6,6.3,18.8,9.4c11.2,5.5,20.4,10,29,14.1
					c13,6.2,24.7,11.6,35.7,16.5c53.4,23.7,92.2,35.2,122,36.4c4.1,0.2,8.2,0.2,12.4,0.2c43.2,0,110.9-8.4,188.4-48.2
					c15.9-8.2,31.5-12.3,46.5-12.3c26.1,0,50.2,12.9,67.8,36.2c15.3,20.3,24.5,47.3,24.6,72.2c0.3,75.6-12.5,140.7-38.1,193.5
					c-18.2,37.6-43.1,69.5-76,97.6l-0.2,0.2l-0.3,0.2c-42.2,25.5-63.1,28.4-64,28.5l-22.6,2.8L634.6,706.6z"/>
				<g>
					<path class="st1" d="M212.9,252.8c9.9,0,20.2,2.6,30.7,7.9c8,4,16.1,8.1,24.2,12.1c6.6,3.3,13.1,6.6,19.7,9.8
						c9.7,4.8,19.4,9.5,29,14.1c12.1,5.8,24,11.3,35.8,16.6c46.1,20.4,89,35.4,123.5,36.7c4.1,0.2,8.3,0.2,12.5,0.2
						c56,0,122.8-14,190.2-48.7c16.1-8.3,31-11.9,44.7-11.9c54.6,0,88.2,57.5,88.4,104.5c0.7,169.1-63.7,246.2-112.7,288
						c-41.2,24.9-61.8,27.8-62.4,27.9c2-1,146.8-75.2,145.9-293.2c-0.2-39.9-34.1-80.4-82.1-80.4c-14.4,0-30.2,3.7-46.6,12.1
						c-59.6,30.7-118.8,43-168.3,43c-3.8,0-7.5-0.1-11.1-0.2c-34.9-1.3-80.7-18.7-128.9-41c-11.8-5.5-23.7-11.2-35.7-17.1
						c-9.7-4.7-19.4-9.6-29-14.4c-4.6-2.3-9.3-4.7-13.9-7c-1.9-1-3.9-1.9-5.8-2.6c-8.1-3.3-16.1-5-23.7-5
						c-27.1,0-49.8,21.4-58.3,66.7c-1.5,8.2-2.9,16.2-4,24.1c-11.6,81.9,0.1,144.5,19.9,191.2c3.1,7.4,6.5,14.3,10,20.9
						c5.2,9.9,10.8,18.9,16.4,27.1c8.5,12.3,17.3,22.8,25.8,31.6c12.9,13.4,24.8,22.9,33.5,28.9c8.3,5.8,13.5,8.5,13.5,8.5
						c-4.6-1-9.4-2.5-14.3-4.3c-11.2-4.1-23.3-10.1-35.6-17.8c-3.6-2.3-7.3-4.7-11-7.3c-5.2-4.7-10.7-10-16.3-16
						c-5.8-6.2-11.8-13-17.6-20.6c-9.5-12.2-18.9-26.3-27.4-42.5c-30.2-57.5-49.8-141.7-27.1-262.5
						C154.6,279.8,181.2,252.8,212.9,252.8 M212.9,244.8c-18.3,0-35,7.9-48.2,22.7c-13.4,15-22.7,36.3-27.8,63.3
						c-19.7,104.9-10.4,195,27.9,267.7c8.1,15.4,17.5,30.1,28.1,43.7c5.6,7.2,11.7,14.3,18.1,21.1c5.4,5.7,11,11.2,16.8,16.4
						l0.4,0.3l0.4,0.3c3.8,2.7,7.6,5.2,11.3,7.5c12.7,8,25.2,14.2,37.1,18.6c5.3,1.9,10.5,3.5,15.3,4.6l61.9,14l-56.5-28.9
						c0,0-4.9-2.6-12.6-7.9c-7.7-5.4-19.5-14.6-32.3-27.9c-9-9.4-17.4-19.7-24.9-30.6c-5.8-8.4-11.2-17.2-15.9-26.3
						c-3.5-6.5-6.7-13.4-9.7-20.3c-22.8-53.6-29.3-116.5-19.4-187c1.1-7.9,2.4-15.9,3.9-23.7c3.8-20.4,10.6-36,20.2-46.4
						c8.4-9.1,18.6-13.8,30.2-13.8c6.6,0,13.5,1.5,20.7,4.4c1.7,0.7,3.4,1.5,5.3,2.4c4.4,2.2,8.9,4.5,13.4,6.7l0.5,0.2
						c9.3,4.6,19.2,9.6,29.1,14.4c13.4,6.6,25.2,12.2,35.9,17.1c59.9,27.7,100.5,40.5,131.9,41.7c3.8,0.1,7.6,0.2,11.4,0.2
						c26.7,0,54.3-3.4,82.2-10.2c30.5-7.4,60.7-18.8,89.7-33.7c14.5-7.5,29-11.2,43-11.2c44.1,0,73.9,37.5,74.1,72.4
						c0.2,48.8-7.1,94.2-21.7,134.9c-11.6,32.5-28,62.1-48.5,88.1c-35,44.3-69.9,62.3-71.4,63l-40.7,20.7l45.3-5.6
						c0.9-0.1,22.6-3,65.6-29l0.6-0.3l0.5-0.4c33.4-28.4,58.5-60.8,77-98.9c12.2-25.1,21.6-53,27.9-83.1
						c7.2-34,10.8-71.7,10.6-112.1c-0.1-25.7-9.6-53.6-25.4-74.6c-18.4-24.4-43.6-37.8-71-37.8c-15.6,0-31.9,4.3-48.4,12.8
						c-31.6,16.2-64.4,28.6-97.6,36.7c-30.2,7.4-60.1,11.1-88.9,11.1c-4.1,0-8.2-0.1-12.2-0.2c-29.3-1.1-67.6-12.6-120.5-36
						c-11-4.9-22.6-10.2-35.6-16.5c-8.6-4.1-17.8-8.6-28.9-14.1c-6.4-3.2-12.9-6.4-19.3-9.6l-0.3-0.2c-3.7-1.9-7.4-3.7-11.1-5.6
						c-4.4-2.2-8.7-4.4-13-6.6C235.7,247.8,224.1,244.8,212.9,244.8L212.9,244.8z"/>
				</g>
			</g>
			
				<linearGradient id="SVGID_18_" gradientUnits="userSpaceOnUse" x1="10989.2939" y1="1459.0156" x2="11176.6768" y2="1459.0156" gradientTransform="matrix(-0.9827 -0.185 -0.185 0.9827 11656.9541 747.347)">
				<stop  offset="0" style="stop-color:#52FFCE"/>
				<stop  offset="0.9948" style="stop-color:#6700E4"/>
			</linearGradient>
			<path class="st23" d="M571.1,152.6c0,0-73.3-22.9-156.7-22c0,0-23.7-2.2-6.7-16.4C426.5,98.6,556,126,575,135
				S589.7,159.1,571.1,152.6z"/>
			
				<linearGradient id="SVGID_19_" gradientUnits="userSpaceOnUse" x1="10972.6133" y1="1409.1317" x2="11189.8301" y2="1409.1317" gradientTransform="matrix(-0.9827 -0.185 -0.185 0.9827 11656.9541 747.347)">
				<stop  offset="0" style="stop-color:#52FFCE"/>
				<stop  offset="0.9948" style="stop-color:#6700E4"/>
			</linearGradient>
			<path class="st24" d="M594.2,106.9c0,0-85.2-25.6-181.2-27.5c0,0-27.4-3-8.2-16.7c21.1-15.1,171.2,16.9,193.4,26.6
				S615.9,114.1,594.2,106.9z"/>
			<g>
				
					<linearGradient id="SVGID_20_" gradientUnits="userSpaceOnUse" x1="10931.3389" y1="2038.2231" x2="11062.9014" y2="2038.2231" gradientTransform="matrix(-0.9827 -0.185 -0.185 0.9827 11656.9541 747.347)">
					<stop  offset="0" style="stop-color:#52FFCE"/>
					<stop  offset="0.9948" style="stop-color:#6700E4"/>
				</linearGradient>
				<path class="st25" d="M485.7,736.4c-7.3,0-14.7-0.1-22-0.4c-17.6-0.7-35.5-2.2-53.2-4.6l-7.5-1l5-5.6
					c12-13.4,20.2-27.4,20.3-27.6l1.3-2.3l2.6,0.3c9.8,1.1,26.1,1.7,47,1.7c16.8,0,31-0.4,31.1-0.4l3.4-0.1l0.6,3.3
					c0.7,3.6,9.8,16.9,15.3,24.9c0.9,1.3,1.8,2.6,2.6,3.8l3.9,5.7l-6.8,0.6C515,735.8,500.4,736.4,485.7,736.4
					C485.7,736.4,485.7,736.4,485.7,736.4z"/>
				<g>
					<path class="st1" d="M431.7,699.1c12.1,1.4,31.2,1.7,47.5,1.7c17.1,0,31.2-0.4,31.2-0.4c1,5,11.6,20.1,18.5,30.2
						c-13.5,1.1-28,1.7-43.3,1.7c-7.1,0-14.4-0.1-21.9-0.4c-18.7-0.7-36.4-2.4-52.8-4.6C423.4,713.5,431.7,699.1,431.7,699.1
						 M427.4,690.6l-2.6,4.5c-0.2,0.3-8.1,13.9-19.8,26.9l-10.1,11.2l15,2c17.8,2.4,35.9,4,53.6,4.7c7.4,0.3,14.9,0.4,22.2,0.4
						c14.8,0,29.6-0.6,43.9-1.7l13.7-1.1l-7.7-11.4c-0.8-1.2-1.7-2.5-2.6-3.8c-4.4-6.5-13.6-19.9-14.7-23.5l-1.3-6.6l-6.8,0.2
						c-0.1,0-14.2,0.4-31,0.4c-20.8,0-36.9-0.6-46.6-1.7L427.4,690.6L427.4,690.6z"/>
				</g>
			</g>
			<g>
				<g>
					<path class="st1" d="M475.7,350.1c11.5,0.4,23.5,0.3,36-0.6c-0.8,13.4,5.4,28.7,3.2,42.2c-10.8,0.7-29.4,0.2-39.4-0.1
						c0.2-13.7-0.3-28.3-1-41.5C474.9,350,475.4,350.1,475.7,350.1z"/>
				</g>
				<g>
					<path class="st1" d="M532.5,345.2c41.4-6.7,101.1-20.4,146-43.5c80.3-41.3,132.8,33.9,133.1,92.6c0.2,41.3-3.5,77.1-10,108.2
						c-11.5,8.2-22.6,16.1-32.3,22.5c8.2-31.2,13.1-67.1,13-108c-0.2-52-57.6-104.8-128.7-68.3c-33.8,17.4-80,35.6-111.8,42.3
						C540.8,374.1,535.8,354.6,532.5,345.2z"/>
				</g>
			</g>
			<path class="st1" d="M144.7,332.4c-22.7,120.8-3.1,205,27.1,262.5l23.1-8.5c-19.8-46.7-31.5-109.3-19.9-191.2L144.7,332.4z"/>
		</g>
		<polygon class="st1" points="152.1,293.1 177,364.7 145.1,317.1 		"/>
		<g>
			<path class="st0" d="M550.8,1279.1c-0.2,0-0.3,0-0.5,0c-0.5-0.1-52-6.8-103.3-15.9c-30.2-5.4-54.4-10.5-72-15.3
				c-25.1-6.8-35.9-12.4-37.1-19.1c-0.4-1.9,0.7-3.8,2.6-4.5c0.6-0.2,63.2-22,122.1-22c37.5,0,65.8,8.7,84.1,25.8
				c17,15.9,23.8,28.5,20.8,38.5c-3.1,10.3-15.4,12.6-15.9,12.7C551.3,1279,551.1,1279.1,550.8,1279.1z"/>
			<path class="st1" d="M462.5,1206.1c31.1,0,61.4,6.1,81.3,24.7c41,38.3,7,44.3,7,44.3s-205.3-26.7-209-47.2
				C341.8,1227.9,403.7,1206.1,462.5,1206.1 M462.5,1198.1v8V1198.1c-59.6,0-120.8,21.3-123.4,22.2c-3.7,1.3-5.9,5.1-5.2,9
				c1.6,8.7,12.5,14.8,40,22.3c17.7,4.8,42.1,10,72.4,15.4c51.4,9.2,103,15.9,103.5,16c0.3,0,0.7,0.1,1,0.1c0.5,0,0.9,0,1.4-0.1
				c1.6-0.3,15.3-3,19-15.5c3.4-11.6-3.7-25.5-21.9-42.5C530.3,1207.1,501.1,1198.1,462.5,1198.1L462.5,1198.1z"/>
		</g>
		<g>
			<path class="st1" d="M392.5,1202.8c0,0,58.4,29.5,97.4,34l-3.4,13.4c0,0-77.8-14.3-96.8-28c0,0-19,11.2,95.2,38.7
				c0,0-91.8-9.3-121.4-42.5L392.5,1202.8z"/>
		</g>
		<g>
			
				<linearGradient id="SVGID_21_" gradientUnits="userSpaceOnUse" x1="10803.7129" y1="2558.7976" x2="10951.2578" y2="2558.7976" gradientTransform="matrix(-0.9827 -0.185 -0.185 0.9827 11656.9541 747.347)">
				<stop  offset="0" style="stop-color:#52FFCE"/>
				<stop  offset="0.9948" style="stop-color:#6700E4"/>
			</linearGradient>
			<path class="st26" d="M550.3,1279c-0.6-0.1-64.3-8.4-120.9-19.2l-12.2-2.3l11.2-5.2c13.3-6.2,47.7-20.7,78.7-20.7
				c20.5,0,35.9,6.3,45.9,18.8c5.6,7,9.3,13.3,11,19l0.7,2.4l-1.8,1.7c-4.6,4.3-10.7,5.5-11.4,5.6l-0.6,0.1L550.3,1279z"/>
			<path class="st1" d="M507.2,1235.6c16.8,0,32.5,4.4,42.7,17.3c5.7,7.2,8.9,13,10.3,17.6c-3.9,3.6-9.4,4.6-9.4,4.6
				s-63.6-8.3-120.6-19.1C442.9,1250,476.9,1235.6,507.2,1235.6 M507.2,1227.6c-31.8,0-66.8,14.8-80.4,21.1l-22.4,10.5l24.3,4.6
				c56.6,10.8,120.4,19.1,121.1,19.2l1.2,0.2l1.2-0.2c0.8-0.1,8-1.5,13.5-6.6l3.7-3.4l-1.5-4.8c-1.9-6.2-5.7-12.8-11.7-20.3
				C545.4,1234.4,529,1227.6,507.2,1227.6L507.2,1227.6z"/>
		</g>
		<g>
			<path class="st0" d="M86.2,1194.8c-21.5,0-58-5.1-100.3-14c-24.6-5.1-48-11-65.9-16.4c-31-9.3-32.9-13.6-33.8-15.7
				c-0.7-1.6-1.2-3.2-1.5-4.9c-1.1-6.2,0.8-12.5,5.2-17.8c6.2-7.4,20.4-16.2,52.5-16.2c3.3,0,6.8,0.1,10.3,0.3
				c48.8,2.6,88.5,22.8,113.2,39.3c26.7,17.8,41.8,34.8,42.4,35.6c0.8,0.9,1.1,2,1,3.1s-0.8,2.1-1.7,2.8
				C103.8,1193.6,97,1194.8,86.2,1194.8C86.2,1194.8,86.2,1194.8,86.2,1194.8z"/>
			<path class="st1" d="M-57.6,1113.9c3.2,0,6.6,0.1,10.1,0.3c92.7,5,152.8,73.5,152.8,73.5c-3.1,2.2-9.9,3.1-19.1,3.1
				c-23.2,0-62.3-6.1-99.5-13.9c-48.6-10.2-94-23.3-96.9-29.8c-0.5-1.2-1-2.5-1.2-3.9C-113.5,1130.7-101.3,1113.9-57.6,1113.9
				 M-57.6,1105.9c-18.6,0-43.3,3.1-55.6,17.6c-5.2,6.2-7.4,13.7-6.1,21.1c0.3,2,0.9,3.9,1.8,5.8c1.7,3.8,5.5,6.6,13.7,10
				c5.6,2.4,13.2,5,22.6,7.8c18,5.4,41.6,11.3,66.3,16.5c42.5,8.9,79.4,14,101.1,14c11.8,0,19.1-1.4,23.7-4.6
				c1.9-1.3,3.1-3.3,3.4-5.6c0.3-2.3-0.4-4.5-1.9-6.2c-0.6-0.7-16-18.1-43.2-36.3c-15.9-10.6-32.7-19.3-49.8-25.8
				c-21.4-8.2-43.4-12.9-65.4-14.1C-50.7,1106-54.2,1105.9-57.6,1105.9L-57.6,1105.9z"/>
		</g>
		<g>
			<path class="st1" d="M75.3,1148c0,0-64.8,9-103.2,0.6l-1.1,13.8c0,0,78.2,11.7,100.6,4.9c0,0,14.3,16.7-102.6,5.7
				c0,0,89.8,21,128.6-0.8L75.3,1148z"/>
		</g>
		<g>
			<path class="st0" d="M445.2,954.2c-4,0-8-0.4-12-1.1c-34.9-6.6-58-40.3-51.4-75.3c5.7-30.4,32.3-52.5,63.3-52.5c4,0,8,0.4,12,1.1
				c34.9,6.6,58,40.3,51.4,75.3C502.7,932.1,476.1,954.2,445.2,954.2C445.2,954.2,445.2,954.2,445.2,954.2z"/>
			<path class="st1" d="M445,829.3c3.7,0,7.5,0.3,11.3,1.1c32.8,6.2,54.4,37.8,48.2,70.6c-5.5,29-30.8,49.3-59.3,49.3
				c-3.7,0-7.5-0.3-11.3-1.1c-32.8-6.2-54.4-37.8-48.2-70.6C391.1,849.5,416.5,829.3,445,829.3 M445,821.3
				c-32.9,0-61.1,23.5-67.2,55.8c-3.4,18,0.4,36.2,10.7,51.3c10.3,15.1,25.9,25.3,43.9,28.7c4.2,0.8,8.5,1.2,12.7,1.2
				c32.9,0,61.1-23.5,67.2-55.8c3.4-18-0.4-36.2-10.7-51.3s-25.9-25.3-43.9-28.7C453.6,821.7,449.3,821.3,445,821.3L445,821.3z"/>
		</g>
		<g>
			<path class="st0" d="M309.1,994.9c-0.5,0-1-0.1-1.5-0.3c-0.7-0.3-72.1-28.5-132.1-44.3c-1.5-0.4-2.6-1.5-2.9-3
				c-0.3-1.5,0.2-3,1.4-3.9l16.7-13.8l11.7-54.4c0.2-0.8,0.6-1.5,1.2-2.1l1.3-1.2c0.8-0.7,1.7-1.1,2.7-1.1c0.5,0,1,0.1,1.5,0.3
				l89.4,36.4c1.1,0.4,1.9,1.3,2.3,2.4c0.8,2.2,18.5,53.8,12.1,81.9c-0.3,1.1-1,2.1-2,2.6C310.4,994.8,309.7,994.9,309.1,994.9z"/>
			<path class="st1" d="M207.7,874.9l89.4,36.4c0,0,18.2,52.4,12,79.7c0,0-71.6-28.4-132.5-44.4l17.8-14.7l12-55.7L207.7,874.9
				 M207.7,866.9c-2,0-4,0.7-5.5,2.2l-1.3,1.2c-1.2,1.1-2,2.6-2.3,4.1l-11.5,53l-15.6,12.9c-2.3,1.9-3.4,5-2.7,7.9
				c0.6,2.9,2.9,5.3,5.8,6c59.8,15.8,130.9,43.9,131.6,44.1c0.9,0.4,1.9,0.6,2.9,0.6c1.3,0,2.6-0.3,3.7-0.9c2.1-1.1,3.6-3,4.1-5.3
				c6.7-29.2-11.5-81.9-12.2-84.1c-0.8-2.2-2.4-3.9-4.5-4.8l-89.4-36.4C209.7,867.1,208.7,866.9,207.7,866.9L207.7,866.9z"/>
		</g>
		<g>
			<path class="st0" d="M537.3,1021.6c-0.9,0-1.8-0.3-2.5-0.9c-1-0.8-1.5-1.9-1.5-3.2c0.4-21.9,22.7-75.1,23.6-77.4
				c0.3-0.7,0.8-1.4,1.5-1.8c12.2-7.8,54.2-23.6,91.4-37.5c10.5-3.9,20.4-7.7,28.6-10.8c0.5-0.2,1-0.3,1.4-0.3
				c0.7,0,1.5,0.2,2.1,0.6c1.1,0.7,1.8,1.8,1.9,3.1c2.9,36.9,3.2,63.2,1.2,90.9c-0.1,1.8-1.4,3.2-3.1,3.6l-143.8,33.5
				C537.9,1021.6,537.6,1021.6,537.3,1021.6z"/>
			<path class="st1" d="M679.9,893.8c2.6,33.4,3.4,60.4,1.2,90.3l-143.8,33.5c0.4-21.4,23.3-75.9,23.3-75.9
				C575.9,931.9,644,907.6,679.9,893.8 M679.9,885.8c-1,0-1.9,0.2-2.9,0.5c-8.2,3.1-18.1,6.9-28.6,10.8
				c-37.3,14-79.6,29.8-92.1,37.9c-1.4,0.9-2.4,2.1-3,3.6c-2.4,5.7-23.6,56.5-23.9,78.9c0,2.5,1.1,4.8,3,6.4c1.4,1.2,3.2,1.8,5,1.8
				c0.6,0,1.2-0.1,1.8-0.2L683,991.9c3.4-0.8,5.9-3.7,6.2-7.2c2-27.9,1.6-54.4-1.3-91.5c-0.2-2.5-1.6-4.8-3.7-6.1
				C682.9,886.2,681.4,885.8,679.9,885.8L679.9,885.8z"/>
		</g>
		<g>
			
				<linearGradient id="SVGID_22_" gradientUnits="userSpaceOnUse" x1="10809.0264" y1="2446.7888" x2="11461.2803" y2="2446.7888" gradientTransform="matrix(-0.9827 -0.185 -0.185 0.9827 11656.9541 747.347)">
				<stop  offset="0" style="stop-color:#52FFCE"/>
				<stop  offset="0.9948" style="stop-color:#6700E4"/>
			</linearGradient>
			<path class="st27" d="M545.4,1180.9c-31.2,0-48.5-23.6-58.8-37.7c-4.9-6.7-3.8-12.3-2.1-15.9c2.8-5.6,9.7-10.2,19.9-13.4
				c9.1-2.8,20.5-4.4,32.2-4.4c15.5,0,30.6,2.7,42.4,7.7c16.9,7.1,26.7,15.6,29,25.3c2.2,9-3,15.4-3.2,15.6l-0.4,0.4l-0.5,0.3
				C582.4,1173.5,562.6,1180.9,545.4,1180.9C545.4,1180.9,545.4,1180.9,545.4,1180.9z"/>
			<path class="st1" d="M536.6,1113.6c14,0,28.7,2.3,40.9,7.4c39.4,16.5,24.3,34.6,24.3,34.6c-23,15.5-41.4,21.3-56.4,21.3
				c-28.4,0-44.4-20.8-55.5-36C478.1,1124.8,505.5,1113.6,536.6,1113.6 M536.6,1105.6c-21,0-48.2,5.2-55.6,20
				c-1.9,3.7-4.1,11.2,2.4,20c6.3,8.7,13.3,17.7,22.8,25.3c11.7,9.3,24.9,14,39.2,14c18.4,0,38.3-7.4,60.9-22.7l0.9-0.6l0.7-0.9
				c0.7-0.8,6.7-8.4,4-19.1c-2.7-11-13.2-20.4-31.4-28C568.3,1108.4,552.7,1105.6,536.6,1105.6L536.6,1105.6z"/>
		</g>
		<path class="st1" d="M597.6,1133c0,0-24.7-9.2-33.5-1.4c0,0,17.3,10.6,4.1,19.5c-13.1,8.9-44.2,2.7-44.2,2.7s-9.2,7.5-4.3,16.5
			c0,0-35.3-22-22.3-37.1S569,1111.5,597.6,1133z"/>
		<path class="st0" d="M577.5,1121c9.6,4,15.9,8.1,20.1,12.1c-2.7-1.5-5.7-2.9-9.1-4.4c-39.4-16.5-104.7-3.4-87.7,19.9
			c5.1,6.9,11.1,15,18.9,21.8c-13.4-7.4-22.7-19.6-29.9-29.5C472.8,1117.6,538.1,1104.4,577.5,1121z"/>
		<g>
			
				<linearGradient id="SVGID_23_" gradientUnits="userSpaceOnUse" x1="10778.6406" y1="2416.7126" x2="11433.585" y2="2416.7126" gradientTransform="matrix(-0.9827 -0.185 -0.185 0.9827 11656.9541 747.347)">
				<stop  offset="0" style="stop-color:#52FFCE"/>
				<stop  offset="0.9948" style="stop-color:#6700E4"/>
			</linearGradient>
			<path class="st28" d="M156.3,1075.7c-25.1,0-48-7.9-61.1-21.2c-9.4-9.5-14.1-21.4-14-35.4c-0.1-1.4-0.1-7.8,5-13.3
				c4.8-5.2,12.4-7.9,22.7-7.9c4.6,0,9.8,0.5,15.5,1.6c31.5,6,68.1,35.4,70,56.3c0.7,7.3-3.1,12.9-10.4,15.7
				C176.8,1074.2,167,1075.7,156.3,1075.7z"/>
			<path class="st1" d="M108.9,1001.9c4.2,0,9,0.5,14.8,1.6c40.5,7.7,85.3,54.2,58.9,64.3c-6.6,2.5-15.9,4-26.2,4
				c-31.2,0-71.5-13.5-71.1-52.7C85.2,1019,83.7,1001.9,108.9,1001.9 M108.9,993.9L108.9,993.9c-11.4,0-20.1,3.1-25.7,9.2
				c-5.9,6.5-6.1,14-6,16.1c-0.1,15.1,5,27.9,15.1,38.1c13.9,14,37.8,22.4,64,22.4c11.1,0,21.5-1.6,29.1-4.5
				c9.1-3.5,13.8-10.7,13-19.8c-0.5-5.1-3.8-18.9-25.1-36.2c-14.8-12-32.3-20.6-48.1-23.6C119.2,994.4,113.8,993.9,108.9,993.9
				L108.9,993.9z"/>
		</g>
		<g>
			<path class="st1" d="M190.2,1054.4c0,0-25.8-20.7-43.1-16.4c0,0,0.1,14.2-24.4,10.5s-28.6-24.6-31.7-6c0,0-16.3-40.9,20.5-37
				C164.4,1011.1,190.2,1054.4,190.2,1054.4z"/>
		</g>
		<path class="st0" d="M123.7,1003.4c30.3,5.8,63.1,33.3,66.5,51c-10.3-16.7-37.2-36.6-62.5-41.4c-40.5-7.7-38.5,15.6-38.5,15.6
			c0,5.1,0.6,9.7,1.8,14c-3.8-6.5-6-14.3-5.9-23.6C85.2,1019,83.2,995.7,123.7,1003.4z"/>
		<g>
			
				<linearGradient id="SVGID_24_" gradientUnits="userSpaceOnUse" x1="11384.4697" y1="2560.9507" x2="11496.3662" y2="2560.9507" gradientTransform="matrix(-0.9827 -0.185 -0.185 0.9827 11656.9541 747.347)">
				<stop  offset="0" style="stop-color:#52FFCE"/>
				<stop  offset="0.9948" style="stop-color:#6700E4"/>
			</linearGradient>
			<path class="st29" d="M-14.1,1180.9c-24.6-5.1-48-11-65.9-16.4c-31-9.3-32.9-13.6-33.8-15.7c-0.7-1.6-1.2-3.2-1.5-4.9l-0.3-1.9
				l1.3-1.4c10.9-12.5,24.9-18.8,41.5-18.8c6,0,12.5,0.9,19.1,2.6c36.8,9.4,44.5,33.8,44.5,52.6l0,4.9L-14.1,1180.9z"/>
			<g>
				<path class="st1" d="M-72.9,1125.8c5.5,0,11.6,0.8,18.2,2.4c33.8,8.6,41.5,30.5,41.5,48.7c-48.6-10.2-94-23.3-96.9-29.8
					c-0.5-1.2-1-2.5-1.2-3.9C-102.9,1133.6-90.6,1125.8-72.9,1125.8 M-72.9,1117.8c-17.6,0-32.9,7-44.5,20.2l-2.5,2.9l0.6,3.7
					c0.3,2,0.9,3.9,1.8,5.8c1.9,4.2,6.1,8.8,36.3,17.9c18,5.4,41.6,11.3,66.3,16.5l9.6,2l0-9.8c0-12.5-3.2-23.5-9.5-32.5
					c-8-11.5-20.8-19.5-38-23.9C-59.8,1118.7-66.5,1117.8-72.9,1117.8L-72.9,1117.8z"/>
			</g>
		</g>
		<g>
			<g>
				<g>
					<path class="st0" d="M90,357.9c-0.3,0-0.7,0-1-0.1c-1.2-0.3-2.1-1.1-2.6-2.2l-28.1-62.4c-0.7-1.6-0.3-3.6,1.1-4.7l15.1-12.5
						c0.7-0.6,1.6-0.9,2.6-0.9c0.3,0,0.5,0,0.8,0.1c1.2,0.2,2.2,1,2.8,2.1l31.8,61.4c0.9,1.8,0.4,3.9-1.2,5.1l-18.8,13.5
						C91.6,357.6,90.8,357.9,90,357.9z"/>
					<path class="st1" d="M77,279l31.8,61.4L90,353.9l-28.1-62.4L77,279 M77,271c-1.8,0-3.7,0.6-5.1,1.8l-15.1,12.5
						c-2.8,2.3-3.7,6.2-2.2,9.4l28.1,62.4c1,2.2,2.9,3.8,5.2,4.4c0.7,0.2,1.4,0.3,2.1,0.3c1.7,0,3.3-0.5,4.7-1.5l18.8-13.5
						c3.2-2.3,4.3-6.7,2.4-10.2l-31.8-61.4c-1.1-2.1-3.1-3.7-5.5-4.2C78,271,77.5,271,77,271L77,271z"/>
				</g>
				<g>
					
						<linearGradient id="SVGID_25_" gradientUnits="userSpaceOnUse" x1="13717.3203" y1="2119.2681" x2="14073.6885" y2="1731.9113" gradientTransform="matrix(-0.6913 -0.1582 -0.1574 0.9853 9984.6924 593.7675)">
						<stop  offset="0" style="stop-color:#52FFCE"/>
						<stop  offset="0.9948" style="stop-color:#6700E4"/>
					</linearGradient>
					<path class="st30" d="M106.3,536.1c-0.2,0-0.3,0-0.5,0c-1.2-0.2-2.2-1.2-2.4-2.4L56.1,292.7c-0.3-1.5,0.6-2.9,2-3.4
						c0.3-0.1,0.6-0.2,1-0.2c1.1,0,2.2,0.6,2.7,1.7L84.4,336L52.4,113.4c-0.2-1.3,0.5-2.5,1.6-3.1l12.8-6.6c0.4-0.2,0.9-0.3,1.4-0.3
						c0.4,0,0.8,0.1,1.1,0.2c0.8,0.3,1.4,1,1.7,1.8l78,223.2c0.4,1.3,0,2.7-1.1,3.4l-10.2,7.3l-11.5,9.3L154.8,455
						c0.2,0.8,0.1,1.6-0.3,2.3l-45.5,77.3C108.4,535.5,107.4,536.1,106.3,536.1z"/>
					<path class="st1" d="M68.2,106.5l78,223.2L136,337l-13.1,10.6l29,108.2l-45.5,77.3L59,292.1l31,61.7L55.4,113L68.2,106.5
						 M68.2,100.5c-0.9,0-1.9,0.2-2.7,0.7l-12.8,6.6c-2.3,1.2-3.6,3.7-3.2,6.2l29.3,204.3l-14.4-28.7c-1-2.1-3.1-3.3-5.4-3.3
						c-0.6,0-1.3,0.1-1.9,0.3c-2.8,1-4.5,3.9-3.9,6.8l47.3,240.9c0.5,2.4,2.4,4.3,4.9,4.8c0.3,0.1,0.7,0.1,1,0.1
						c2.1,0,4.1-1.1,5.2-3l45.5-77.3c0.8-1.4,1-3,0.6-4.6l-28-104.4l9.9-8l10.1-7.2c2.2-1.5,3.1-4.3,2.2-6.9l-78-223.2
						c-0.6-1.6-1.8-2.9-3.4-3.6C69.7,100.6,69,100.5,68.2,100.5L68.2,100.5z"/>
				</g>
				<g>
					<path class="st0" d="M164.1,492.3c-1.2,0-2.4-0.5-3.2-1.5l-17-21.7c-0.4-0.5-0.6-1-0.8-1.7l-23.7-113.7c-0.2-1.1,0-2.3,0.7-3.2
						l8.4-11.1c0.8-1,2-1.6,3.2-1.6c0.3,0,0.6,0,0.9,0.1c1.5,0.3,2.7,1.5,3,3L168,487.5c0.4,1.8-0.5,3.7-2.2,4.5
						C165.3,492.2,164.7,492.3,164.1,492.3z"/>
					<path class="st1" d="M131.8,341.8l32.3,146.5l-17-21.7l-23.7-113.7L131.8,341.8 M131.8,333.8c-2.5,0-4.8,1.1-6.4,3.2L117,348
						c-1.4,1.8-1.9,4.2-1.5,6.5l23.7,113.7c0.3,1.2,0.8,2.3,1.5,3.3l17,21.7c1.6,2,3.9,3.1,6.3,3.1c1.2,0,2.3-0.2,3.4-0.8
						c3.4-1.6,5.2-5.3,4.4-9l-32.3-146.5c-0.7-3-3-5.4-6.1-6.1C132.9,333.9,132.4,333.8,131.8,333.8L131.8,333.8z"/>
				</g>
				<g>
					<path class="st0" d="M133.5,349.5c-0.4,0-0.8-0.1-1.2-0.2c-1.2-0.4-2.2-1.3-2.6-2.5L51.6,114.3c-0.6-1.9,0.2-3.9,2-4.8
						l12.8-6.6c0.6-0.3,1.2-0.4,1.8-0.4c0.5,0,1,0.1,1.5,0.3c1.1,0.4,1.9,1.3,2.3,2.4l79.9,228.7c0.6,1.7,0,3.5-1.5,4.6l-14.6,10.4
						C135.2,349.3,134.4,349.5,133.5,349.5z"/>
					<path class="st1" d="M68.2,106.5l79.9,228.7l-14.6,10.4L55.4,113L68.2,106.5 M68.2,98.5c-1.3,0-2.5,0.3-3.6,0.9l-12.8,6.6
						c-3.5,1.8-5.2,5.9-3.9,9.7l78.1,232.5c0.8,2.4,2.7,4.3,5.1,5.1c0.8,0.3,1.6,0.4,2.5,0.4c1.6,0,3.3-0.5,4.6-1.5l14.6-10.4
						c2.9-2.1,4.1-5.8,2.9-9.2L75.8,103.8c-0.8-2.2-2.4-3.9-4.6-4.8C70.2,98.6,69.2,98.5,68.2,98.5L68.2,98.5z"/>
				</g>
			</g>
			<g>
				<g>
					<path class="st0" d="M94.6,558.2c19.8,55,53.2,77.7,81.1,78.6c45,1.6,35.3-67.8,15.5-122.7s-54.6-105.3-87.1-76.3
						C82.4,457.2,74.9,503.2,94.6,558.2z"/>
					<path class="st1" d="M94.6,558.2c3.8,10.3,8.3,20.3,13.9,29.7c5.6,9.4,12.2,18.2,20.1,25.7c2,1.8,3.9,3.8,6.1,5.4l3.2,2.5
						l3.4,2.3c2.2,1.6,4.6,2.8,7,4.1c0.6,0.3,1.2,0.6,1.8,0.9l1.8,0.8c1.2,0.5,2.4,1.2,3.7,1.6l3.8,1.3c1.3,0.4,2.6,0.7,3.9,1
						l1.9,0.5c0.7,0.1,1.3,0.2,2,0.3c1.3,0.2,2.6,0.5,4,0.6c5.3,0.5,10.7,0.3,15.4-1.4c4.8-1.7,8.8-4.9,11.5-9.2
						c2.7-4.2,4.3-9.2,5.3-14.3c1-5.1,1.3-10.4,1.2-15.8c-0.1-5.3-0.5-10.7-1.2-16c-0.7-5.3-1.6-10.6-2.6-15.9
						c-1.1-5.3-2.4-10.5-3.7-15.8c-2.8-10.5-6-20.8-9.7-31c-1.8-5.1-3.8-10.1-5.8-15.1c-2.1-5-4.3-9.9-6.6-14.8
						c-4.7-9.7-9.8-19.2-16-27.9c-3.1-4.3-6.4-8.5-10-12.3c-3.6-3.8-7.7-7.2-12.1-9.7c-4.4-2.6-9.3-4-14.3-4
						c-4.9,0.2-9.8,2.1-14.1,5c-1.1,0.8-2.1,1.6-3.1,2.4c-1,0.9-2,1.7-2.9,2.7c-1.9,1.9-3.5,3.9-5.1,6.1c-1.6,2.1-2.9,4.5-4.2,6.8
						c-1.2,2.4-2.4,4.8-3.3,7.3c-3.9,10.1-5.8,20.9-6.2,31.8C82.9,515.7,87.3,537.6,94.6,558.2z M94.6,558.2
						c-3.7-10.3-6.7-20.9-8.8-31.6c-2.1-10.7-3.3-21.7-3.2-32.7c0.2-11,1.5-22.1,5.1-32.6c0.9-2.6,1.9-5.2,3.1-7.8
						c1.2-2.5,2.5-5,4-7.4c1.5-2.4,3.2-4.7,5.1-6.8c0.9-1.1,2-2.1,3-3.1c1.1-0.9,2.2-1.9,3.3-2.8c4.6-3.5,10.1-6,16.2-6.6
						c6-0.4,12.1,1.1,17.2,3.8c5.2,2.7,9.7,6.3,13.9,10.2c4.1,3.9,7.8,8.2,11.2,12.7c6.7,9,12.4,18.6,17.4,28.5c2.5,5,4.8,10,7,15.1
						c2.1,5.1,4.2,10.3,6.1,15.5c7.4,20.8,13.1,42.4,15.3,64.6c0.5,5.6,0.7,11.2,0.6,16.8c-0.2,5.6-0.7,11.3-2,16.9
						c-1.3,5.6-3.4,11.1-6.8,15.9c-3.4,4.8-8.6,8.5-14.2,10.2c-5.7,1.7-11.5,1.5-17.1,0.8c-1.4-0.2-2.8-0.5-4.1-0.8
						c-0.7-0.1-1.4-0.3-2.1-0.4l-2-0.6c-1.3-0.4-2.7-0.8-4-1.3l-3.9-1.5c-1.3-0.5-2.5-1.2-3.8-1.8l-1.9-0.9c-0.6-0.3-1.2-0.6-1.8-1
						c-2.4-1.5-4.8-2.8-7-4.5l-3.3-2.4l-3.1-2.7c-2.2-1.7-4-3.7-6-5.6c-7.8-7.8-14.1-16.9-19.6-26.4
						C102.9,578.5,98.4,568.5,94.6,558.2z"/>
				</g>
				
					<ellipse transform="matrix(0.9456 -0.3253 0.3253 0.9456 -170.7693 68.882)" class="st2" cx="120.6" cy="545.2" rx="21.9" ry="63.9"/>
				<g>
					<path class="st1" d="M97.6,558.5c2.8,7.6,5.9,15.1,9.5,22.3c3.6,7.2,7.7,14.2,12.4,20.8c2.3,3.3,4.8,6.5,7.5,9.4
						c2.7,3,5.6,5.8,8.7,8.2c1.5,1.3,3.2,2.3,4.9,3.3c1.7,0.9,3.5,1.8,5.3,2.3c1.8,0.5,3.7,0.8,5.5,0.6c1.8-0.2,3.5-0.8,5-1.7
						c1.5-1,2.8-2.3,3.8-3.9c0.6-0.7,1-1.6,1.4-2.4c0.4-0.9,0.8-1.7,1.1-2.6c1.4-3.6,2.1-7.4,2.5-11.3c0.9-7.8,0.5-15.8-0.4-23.7
						c-0.9-7.9-2.4-15.7-4.3-23.5c-1.9-7.7-4.2-15.4-6.9-22.9c-2.7-7.5-5.7-14.9-9.2-22.1c-3.5-7.2-7.2-14.2-11.7-20.8
						c-4.4-6.6-9.3-12.9-15.2-18c-1.5-1.3-3-2.4-4.6-3.5c-1.6-1-3.3-1.9-5-2.5c-1.7-0.6-3.5-0.9-5.3-0.9c-1.8,0.1-3.5,0.5-5,1.4
						c-1.6,0.9-2.9,2.2-4,3.7c-0.6,0.7-1.1,1.6-1.6,2.4c-0.4,0.9-0.9,1.7-1.3,2.6c-1.6,3.6-2.5,7.5-3.2,11.4c-1.2,7.9-1.2,16-0.6,24
						c0.7,8,2,16,3.8,23.9C92.7,543.1,95,550.8,97.6,558.5z M97.6,558.5c-2.7-7.6-5.1-15.3-7-23.2c-1.9-7.9-3.5-15.8-4.4-23.9
						c-0.9-8-1.3-16.2-0.4-24.4c0.5-4.1,1.2-8.1,2.7-12.1c0.3-1,0.8-1.9,1.3-2.9c0.5-0.9,1-1.9,1.7-2.7c1.2-1.8,2.8-3.4,4.7-4.6
						c1.9-1.2,4.1-2,6.4-2.2c2.3-0.2,4.5,0.1,6.6,0.7c2.1,0.6,4.1,1.6,5.9,2.6c1.8,1.1,3.6,2.2,5.3,3.6c3.3,2.6,6.3,5.5,9.1,8.6
						c2.8,3.1,5.3,6.3,7.7,9.7c9.5,13.5,16.6,28.4,22.2,43.8c2.7,7.7,5,15.6,6.9,23.6c1.8,8,3.1,16.1,3.8,24.3
						c0.6,8.2,0.7,16.5-0.6,24.7c-0.6,4.1-1.6,8.2-3.4,12.1c-0.4,1-0.9,1.9-1.4,2.9c-0.6,0.9-1.1,1.9-1.8,2.7
						c-1.3,1.7-2.9,3.3-4.9,4.5c-2,1.1-4.2,1.8-6.4,1.9c-2.2,0.1-4.4-0.3-6.4-1c-2-0.7-3.9-1.7-5.7-2.8c-1.7-1.1-3.4-2.3-5-3.7
						c-6.3-5.3-11.3-11.9-15.8-18.6c-4.5-6.7-8.4-13.9-11.9-21.2C103.4,573.6,100.3,566.1,97.6,558.5z"/>
				</g>
				<path class="st1" d="M182.8,490c0,0-35.3,23-47.6,34.4c0,0,11.1,28.9,12.8,50.6c0,0,12.1-24,15.9-34c3.9-10,41.1-3.2,41.1-3.2
					S198.2,498.7,182.8,490z"/>
				<g>
					<path class="st1" d="M152.6,463c3.7,2.5,7,5.6,9.9,8.9c3,3.3,5.7,6.9,8.2,10.5c2.5,3.7,4.8,7.5,7,11.4c2.2,3.9,4.1,7.8,6,12
						c0,0,0,0.1,0.1,0.1l0,0.1c1.7,4.9,3.2,9.7,4.5,14.6c1.3,4.9,2.5,9.9,3.5,14.9c1,5,1.8,10.1,2.3,15.2c0.4,5.1,0.7,10.2,0.3,15.3
						c-1-5-2.2-9.9-3.4-14.8c-1.2-4.9-2.6-9.7-4-14.5c-1.4-4.8-2.8-9.6-4.3-14.4c-1.5-4.8-2.9-9.6-4.4-14.4l0.1,0.2
						c-0.8-1.9-1.7-3.9-2.6-5.9c-0.9-2-1.8-3.9-2.7-5.9c-1.9-3.9-3.8-7.8-5.9-11.6c-2.1-3.8-4.2-7.6-6.6-11.2
						C158.1,469.8,155.5,466.3,152.6,463z"/>
				</g>
				<g>
					<path class="st1" d="M149.7,470.5c3.1,2.7,5.8,5.9,8.5,9.1c2.6,3.2,5.1,6.5,7.4,10c2.3,3.4,4.5,6.9,6.6,10.4
						c2.1,3.6,4.1,7.1,6,10.8l0,0c0.1,0.1,0.1,0.2,0.1,0.3c1.4,4.1,2.6,8.2,3.6,12.3c1,4.1,1.8,8.3,2.5,12.5
						c0.7,4.2,1.1,8.4,1.4,12.7c0.2,4.2,0.2,8.5-0.2,12.7c-0.9-4.2-1.7-8.3-2.7-12.3c-1-4.1-1.9-8.1-3.1-12.1c-1.1-4-2.2-8-3.4-12
						c-1.2-3.9-2.5-7.9-3.8-11.8l0.2,0.4L161.5,492l-5.8-10.8C153.8,477.6,151.7,474.1,149.7,470.5z"/>
				</g>
				<g>
					<path class="st1" d="M143.1,475.8c3,2.5,5.7,5.4,8.2,8.4c2.5,3,4.9,6.1,7.1,9.4c2.2,3.2,4.3,6.5,6.3,9.9
						c2,3.4,3.8,6.8,5.6,10.3l0,0.1c0,0.1,0.1,0.2,0.1,0.3c1.2,3.5,2.2,6.9,3.2,10.4c1,3.5,1.9,7,2.6,10.6c0.8,3.6,1.5,7.1,1.9,10.7
						c0.5,3.6,0.8,7.2,0.8,10.9c-1.1-3.5-2.2-6.9-3.4-10.3l-3.5-10.2l-3.6-10.1c-1.2-3.4-2.4-6.7-3.6-10.1l0.1,0.3l-10.9-20.3
						l-5.5-10.2L143.1,475.8z"/>
				</g>
				<g>
					<path class="st1" d="M139.5,481.9c5,4.7,9,10.4,12.6,16.1c3.6,5.8,6.8,11.8,9.7,18c1.4,3.1,2.8,6.2,4,9.5
						c1.2,3.2,2.2,6.5,3.1,9.8c1.8,6.6,3.1,13.3,3.6,20.2c-2.4-6.4-4.7-12.7-7.3-18.9c-1.2-3.1-2.5-6.2-3.8-9.3
						c-1.3-3-2.8-6.1-4.2-9.1c-2.9-6.1-5.7-12.2-8.6-18.2C145.8,493.9,142.8,487.9,139.5,481.9z"/>
				</g>
				<path class="st1" d="M148.6,582.2c0,0,11.9,18.5,19.2,8.2c0,0,26.6,13.7,40.7,0.4c0,0-1.7,33.1-12.3,37.2c0,0-25.9,1-34.7-7.1
					c0,0-12.9-1.7-19.8-14.5L148.6,582.2z"/>
			</g>
		</g>
		<g>
			<g>
				<g>
					<path class="st0" d="M873,391c-0.9,0-1.8-0.3-2.5-0.9l-20.1-16.1c-0.8-0.7-1.4-1.7-1.5-2.7c-0.1-1.1,0.2-2.1,0.9-3l46.8-56.2
						c0.7-0.8,1.7-1.4,2.8-1.4c0.1,0,0.2,0,0.3,0c1,0,2,0.4,2.7,1.1l15.8,14.5c1.5,1.4,1.7,3.7,0.5,5.3l-42.5,57.8
						c-0.6,0.9-1.6,1.5-2.7,1.6C873.3,391,873.1,391,873,391z"/>
					<path class="st1" d="M899.7,314.7l15.8,14.5L873,387L852.9,371L899.7,314.7 M899.7,306.7c-0.2,0-0.4,0-0.5,0
						c-2.2,0.1-4.2,1.2-5.6,2.9l-46.8,56.2c-1.4,1.7-2,3.8-1.8,5.9c0.2,2.1,1.3,4.1,3,5.4l20.1,16.1c1.4,1.1,3.2,1.8,5,1.8
						c0.3,0,0.7,0,1-0.1c2.2-0.3,4.1-1.4,5.4-3.2L922,334c2.4-3.3,2-7.9-1-10.6l-15.8-14.5C903.6,307.5,901.7,306.7,899.7,306.7
						L899.7,306.7z"/>
				</g>
				<g>
					
						<linearGradient id="SVGID_26_" gradientUnits="userSpaceOnUse" x1="11841.0215" y1="1981.2441" x2="11682.9482" y2="1635.8883" gradientTransform="matrix(-0.8235 -0.1782 -0.162 0.9837 10834.7852 712.0377)">
						<stop  offset="0" style="stop-color:#52FFCE"/>
						<stop  offset="0.9948" style="stop-color:#6700E4"/>
					</linearGradient>
					<path class="st31" d="M826.6,565.2c-1.1,0-2.2-0.6-2.7-1.6l-41.9-83c-0.4-0.8-0.4-1.8,0-2.7l49.5-100.9l-12-10.8l-10.9-8.6
						c-1.2-0.9-1.5-2.6-0.7-3.9l125.7-210c0.6-0.9,1.6-1.5,2.6-1.5c0.5,0,1,0.1,1.5,0.4l14.1,8.3c1.2,0.7,1.8,2.2,1.3,3.5l-72,217.9
						l35.5-43.9c0.6-0.7,1.5-1.1,2.3-1.1c0.5,0,1,0.1,1.5,0.4c1.3,0.7,1.8,2.3,1.3,3.7l-92.2,231.9c-0.4,1.1-1.5,1.8-2.7,1.9
						C826.7,565.2,826.6,565.2,826.6,565.2z"/>
					<path class="st1" d="M936,145.1l14.1,8.3L873,387l45.8-56.7l-92.2,231.9l-41.9-83l50.5-103l-13.8-12.3l-11-8.7L936,145.1
						 M918.8,330.3L918.8,330.3 M936.1,139.1c-2,0-4,1-5.2,2.9L805.2,352c-1.5,2.6-0.9,5.9,1.4,7.8l10.9,8.6l10.3,9.2l-48.5,98.9
						c-0.8,1.7-0.8,3.7,0,5.3l41.9,83c1,2,3.1,3.3,5.4,3.3c0.1,0,0.2,0,0.3,0c2.4-0.1,4.4-1.6,5.3-3.8l92.1-231.7
						c0.3-0.7,0.5-1.6,0.5-2.4c0-3.2-2.5-5.8-5.6-6c-0.1,0-0.3,0-0.4,0c-0.1,0-0.2,0-0.4,0c-1,0.1-1.9,0.4-2.8,0.9
						c-0.5,0.3-1,0.7-1.4,1.2c-0.1,0.1-0.1,0.2-0.2,0.2L889,357.6l66.8-202.3c0.9-2.7-0.2-5.6-2.6-7l-14.1-8.3
						C938.1,139.4,937.1,139.1,936.1,139.1L936.1,139.1z"/>
				</g>
				<g>
					<path class="st0" d="M765.3,513.7c-0.8,0-1.7-0.3-2.4-0.8c-1.5-1.1-2-3.1-1.3-4.8l60.2-140.5c0.6-1.3,1.8-2.3,3.3-2.4
						c0.1,0,0.3,0,0.4,0c1.3,0,2.6,0.7,3.3,1.8l8.2,12.2c0.8,1.1,0.9,2.5,0.4,3.8l-45.1,109.2c-0.3,0.6-0.7,1.2-1.2,1.6l-23.3,19.1
						C767.1,513.3,766.2,513.7,765.3,513.7z"/>
					<path class="st1" d="M825.5,369.2l8.2,12.2l-45.1,109.2l-23.3,19.1L825.5,369.2 M825.5,361.2c-0.3,0-0.5,0-0.8,0
						c-2.9,0.3-5.4,2.1-6.6,4.8L758,506.5c-1.5,3.4-0.4,7.3,2.5,9.5c1.4,1.1,3.1,1.6,4.8,1.6c1.8,0,3.6-0.6,5.1-1.8l23.3-19.1
						c1-0.8,1.8-1.9,2.3-3.1l45.1-109.2c1-2.5,0.7-5.3-0.8-7.5l-8.2-12.2C830.7,362.5,828.2,361.2,825.5,361.2L825.5,361.2z"/>
				</g>
				<g>
					<path class="st0" d="M822.9,376.6c-0.9,0-1.8-0.3-2.5-0.9l-15.6-12.4c-1.6-1.2-2-3.5-1-5.2l128.8-215.1
						c0.7-1.3,2.1-1.9,3.4-1.9c0.7,0,1.4,0.2,2,0.6l14.1,8.3c1.9,1.1,2.5,3.6,1.4,5.5L826.4,374.6c-0.6,1-1.6,1.7-2.7,1.9
						C823.4,376.6,823.2,376.6,822.9,376.6z"/>
					<path class="st1" d="M936,145.1l14.1,8.3L822.9,372.6l-15.6-12.4L936,145.1 M936.1,137.1c-2.7,0-5.4,1.4-6.9,3.9L800.4,356.1
						c-2.1,3.4-1.2,7.9,1.9,10.4l15.6,12.4c1.4,1.1,3.2,1.7,5,1.7c0.5,0,1,0,1.5-0.1c2.3-0.4,4.3-1.8,5.4-3.8l127.2-219.1
						c2.2-3.8,0.9-8.7-2.9-10.9l-14.1-8.3C938.8,137.5,937.4,137.1,936.1,137.1L936.1,137.1z"/>
				</g>
			</g>
			<g>
				<g>
					<path class="st0" d="M835.8,589.5c-27,51.8-63.2,69.8-90.9,67.1c-44.8-4.5-25.9-71.9,1.1-123.7s68.2-97.1,96.6-63.9
						C861.4,491.1,862.8,537.6,835.8,589.5z"/>
					<path class="st1" d="M835.8,589.5c-5.1,9.7-10.9,19-17.5,27.7c-6.6,8.7-14.2,16.8-22.9,23.5c-2.2,1.6-4.4,3.4-6.7,4.8l-3.5,2.2
						l-3.6,2c-2.4,1.4-5,2.4-7.5,3.5c-0.6,0.3-1.3,0.5-1.9,0.7l-2,0.7c-1.3,0.4-2.6,1-4,1.3l-4.1,1c-1.4,0.3-2.8,0.5-4.1,0.7
						l-2.1,0.3c-0.7,0.1-1.4,0.1-2.1,0.2c-1.4,0.1-2.8,0.2-4.2,0.2c-5.6,0-11.4-0.6-16.8-3c-5.3-2.4-10-6.8-12.7-12
						c-2.8-5.2-4.1-11-4.6-16.7c-0.5-5.7-0.3-11.4,0.3-17c0.6-5.6,1.5-11.1,2.8-16.6c5.2-21.7,13.6-42.3,23.8-62
						c2.6-4.9,5.3-9.7,8.1-14.5c2.8-4.8,5.8-9.4,8.9-14c6.3-9.2,13.2-18,21.1-26c3.9-4,8.2-7.7,12.8-11.1c4.6-3.3,9.6-6.3,15.1-8.3
						c5.5-2,11.7-2.7,17.6-1.5c5.9,1.4,11.1,4.6,15.1,8.7c1,1,1.9,2.1,2.9,3.2c0.9,1.1,1.8,2.2,2.5,3.4c1.6,2.3,3,4.8,4.2,7.4
						c1.2,2.5,2.1,5.2,3,7.8c0.8,2.7,1.5,5.4,2,8.1c2.1,10.9,2,22.1,0.7,33c-1.3,10.9-4,21.6-7.5,32
						C845.2,569.7,840.8,579.7,835.8,589.5z M835.8,589.5c10.1-19.4,17.3-40.5,19.3-62.2c1-10.8,0.6-21.9-1.9-32.4
						c-0.6-2.6-1.4-5.2-2.3-7.7c-1-2.5-2-5-3.2-7.3c-1.2-2.3-2.6-4.6-4.2-6.7c-0.8-1.1-1.6-2-2.5-3c-0.9-0.9-1.8-1.9-2.8-2.8
						c-3.8-3.5-8.4-6-13.3-6.9c-4.9-0.7-9.9,0.1-14.7,2c-4.7,1.9-9.2,4.8-13.3,8c-4.1,3.3-7.9,7-11.6,10.9
						c-7.3,7.8-13.7,16.5-19.6,25.5c-3,4.5-5.8,9.1-8.5,13.8c-2.7,4.7-5.3,9.4-7.8,14.2c-5,9.6-9.6,19.4-13.7,29.4
						c-2,5-4,10-5.8,15.1c-1.8,5.1-3.4,10.2-4.7,15.4c-1.3,5.2-2.5,10.4-3.3,15.7c-0.8,5.3-1.2,10.6-0.9,15.8
						c0.3,5.2,1.2,10.4,3.3,14.9c2.1,4.6,5.7,8.3,10.2,10.6c4.5,2.4,9.8,3.2,15.1,3.5c1.3,0.1,2.7,0,4,0c0.7,0,1.3,0,2,0l2-0.2
						c1.3-0.2,2.7-0.2,4-0.5l3.9-0.8c1.3-0.2,2.6-0.7,3.9-1.1l1.9-0.6c0.6-0.2,1.3-0.4,1.9-0.6c2.5-1,5.1-1.9,7.5-3.2l3.7-1.8
						l3.5-2.1c2.4-1.3,4.6-3,6.8-4.5c8.8-6.4,16.6-14.2,23.4-22.8C824.9,608.4,830.6,599.1,835.8,589.5z"/>
				</g>
				
					<ellipse transform="matrix(0.4492 -0.8935 0.8935 0.4492 -64.8162 1040.9768)" class="st2" cx="811.8" cy="573.1" rx="63.9" ry="21.9"/>
				<g>
					<path class="st1" d="M832.8,589.3c-3.7,7.2-7.7,14.2-12.2,20.9c-4.4,6.7-9.2,13.3-14.6,19.4c-5.4,6.1-11.2,11.8-18.1,16.3
						c-1.7,1.1-3.5,2.1-5.4,3c-1.9,0.8-3.9,1.6-6,2c-2.1,0.4-4.3,0.5-6.5,0.1c-2.2-0.4-4.3-1.3-6.1-2.7c-1.8-1.4-3.2-3.2-4.3-5.1
						c-0.6-0.9-1-1.9-1.4-2.9c-0.4-1-0.8-2-1-3c-1.2-4.1-1.6-8.3-1.7-12.5c-0.1-8.3,1-16.5,2.7-24.6c1.8-8,4.2-15.9,7.1-23.6
						c2.9-7.7,6.3-15.1,10-22.4c7.6-14.5,16.6-28.3,27.9-40.4c2.8-3,5.8-5.9,8.9-8.6c3.2-2.7,6.5-5.2,10.1-7.3
						c1.8-1.1,3.7-2,5.7-2.8c2-0.8,4.1-1.4,6.2-1.8c2.2-0.3,4.4-0.3,6.7,0.2c2.2,0.5,4.3,1.5,6.1,3c1.7,1.5,3,3.3,4,5.2
						c0.5,1,0.9,2,1.3,2.9c0.3,1,0.7,2,0.9,3c1,4.1,1.2,8.2,1.1,12.3c-0.2,8.2-1.7,16.2-3.7,24.1c-2,7.9-4.6,15.5-7.6,23.1
						C839.9,574.8,836.5,582.2,832.8,589.3z M832.8,589.3c3.7-7.2,7-14.6,9.8-22.1c2.9-7.6,5.2-15.3,6.9-23.2
						c1.7-7.9,2.8-15.9,2.7-23.9c-0.1-4-0.5-8-1.6-11.7c-0.2-0.9-0.6-1.8-0.9-2.7c-0.4-0.9-0.8-1.8-1.3-2.6
						c-0.9-1.6-2.1-3.1-3.5-4.2c-1.4-1.1-3.1-1.8-4.8-2.1c-1.7-0.3-3.6-0.2-5.4,0.1c-1.8,0.4-3.6,1-5.3,1.8c-1.7,0.8-3.4,1.7-5,2.8
						c-6.5,4.2-12.2,9.8-17.5,15.8c-5.2,5.9-9.9,12.4-14.3,19c-4.4,6.6-8.4,13.6-12,20.6c-3.7,7.1-7,14.3-9.9,21.8
						c-2.9,7.4-5.5,15-7.4,22.7c-1.9,7.7-3.4,15.5-3.6,23.4c-0.1,3.9,0.1,7.8,1,11.6c0.2,0.9,0.5,1.8,0.8,2.7
						c0.3,0.9,0.7,1.8,1.1,2.6c0.8,1.6,1.9,3.2,3.3,4.3c1.4,1.2,3,2,4.8,2.4c1.8,0.4,3.7,0.4,5.5,0.2c1.9-0.3,3.8-0.9,5.6-1.6
						c1.8-0.8,3.6-1.6,5.3-2.6c3.4-2,6.7-4.4,9.7-7c3.1-2.6,6-5.4,8.7-8.3c5.5-5.9,10.5-12.3,15-18.9
						C824.9,603.4,829,596.5,832.8,589.3z"/>
				</g>
				<path class="st1" d="M757.6,510c0,0,31.9,27.6,42.6,40.5c0,0-14.9,27.1-19.5,48.4c0,0-8.7-25.4-11.2-35.8
					c-2.5-10.4-40.3-8.7-40.3-8.7S741.2,516.6,757.6,510z"/>
				<g>
					<path class="st1" d="M791.1,487.3c-3.3,2.9-6.4,6-9.2,9.3c-2.8,3.3-5.5,6.7-8,10.2c-2.6,3.5-5,7.1-7.4,10.7
						c-1.2,1.8-2.4,3.6-3.5,5.5c-1.1,1.8-2.3,3.7-3.4,5.5l0.1-0.2c-2.1,4.5-4.2,9.1-6.3,13.6c-2.1,4.6-4.2,9.1-6.2,13.7
						c-2,4.6-4,9.2-5.9,13.9c-1.9,4.7-3.7,9.4-5.4,14.2c0.2-5.1,1.2-10.2,2.3-15.2c1.2-5,2.7-9.9,4.3-14.7c1.7-4.8,3.5-9.6,5.5-14.3
						c2-4.7,4.1-9.3,6.4-13.9l0-0.1c0,0,0-0.1,0.1-0.1c2.4-3.9,4.9-7.5,7.5-11.1c2.7-3.6,5.5-7,8.5-10.3c3-3.3,6.1-6.5,9.5-9.3
						C783.5,491.9,787.2,489.3,791.1,487.3z"/>
				</g>
				<g>
					<path class="st1" d="M793,495.2c-2.5,3.3-5,6.5-7.4,9.8l-7.2,9.9l-14.2,19.8l0.2-0.3c-1.8,3.6-3.6,7.4-5.3,11.1
						c-1.7,3.8-3.4,7.6-5,11.4c-1.6,3.8-3.2,7.7-4.7,11.6c-1.5,3.9-2.8,7.9-4.3,11.8c0.2-4.2,0.7-8.5,1.5-12.6
						c0.8-4.2,1.8-8.3,3-12.4c1.2-4.1,2.6-8.1,4.2-12c1.6-4,3.3-7.8,5.2-11.7c0.1-0.1,0.1-0.2,0.2-0.3l0,0c2.4-3.4,4.8-6.7,7.4-9.9
						c2.6-3.2,5.2-6.4,8-9.5c2.8-3.1,5.6-6,8.7-8.9C786.4,500.2,789.5,497.5,793,495.2z"/>
				</g>
				<g>
					<path class="st1" d="M798.8,501.3l-6.9,9.4l-6.8,9.3l-13.5,18.6l0.2-0.3c-1.7,3.1-3.3,6.3-5,9.5l-4.9,9.5L757,567
						c-1.6,3.2-3.2,6.4-4.7,9.7c0.5-3.6,1.3-7.2,2.3-10.7c1-3.5,2.1-7,3.4-10.4c1.2-3.4,2.6-6.8,4-10.1c1.4-3.3,3-6.6,4.6-9.9
						c0-0.1,0.1-0.2,0.1-0.2l0-0.1c2.2-3.3,4.5-6.4,6.9-9.5c2.4-3.1,4.9-6.1,7.5-9c2.6-2.9,5.4-5.7,8.3-8.3
						C792.4,506,795.4,503.5,798.8,501.3z"/>
				</g>
				<g>
					<path class="st1" d="M801.6,507.8c-4,5.5-7.8,11-11.5,16.7c-3.7,5.6-7.4,11.2-11,16.9c-1.8,2.8-3.7,5.7-5.4,8.4
						c-1.7,2.8-3.4,5.7-5,8.7c-3.3,5.8-6.4,11.8-9.7,17.8c1.4-6.7,3.6-13.2,6.3-19.5c1.4-3.1,2.8-6.2,4.4-9.3
						c1.7-3.1,3.4-5.9,5.3-8.8c3.7-5.7,7.7-11.3,12-16.6C791.3,516.9,796,511.9,801.6,507.8z"/>
				</g>
				<path class="st1" d="M779.1,606c0,0-14.3,16.7-20.2,5.5c0,0-28.2,10-40.4-5c0,0-2.7,33.1,7.2,38.5c0,0,25.5,4.4,35.3-2.4
					c0,0,13.1,0,21.5-11.7L779.1,606z"/>
			</g>
		</g>
		<path class="st2" d="M-49.1,537.2c0,0-4.2-60.3-42-62.6l5.5-25.9C-85.7,448.7-29.7,455.5-49.1,537.2z"/>
		<path class="st0" d="M662.6,1053.1c0,0-40.1,18.7-60.4,17.1c0,0,39.5,6.8,50,3.6C662.8,1070.6,662.6,1053.1,662.6,1053.1z"/>
		
			<ellipse transform="matrix(0.185 -0.9827 0.9827 0.185 -899.6832 958.2203)" class="st0" cx="127.9" cy="1021.5" rx="12.7" ry="19"/>
		
			<ellipse transform="matrix(0.185 -0.9827 0.9827 0.185 -683.5182 1442.3932)" class="st0" cx="527.9" cy="1133.3" rx="12.7" ry="19"/>
		<g>
			<path class="st1" d="M224.9,875.8l-10.2,53.9l-23.5,21.6l36.5,15.5l20.5-29.6l6.3-33.7c0,0,17.5-6.9-5.1,50.9
				c0,0,19.1-25.2,22.6-57.9L224.9,875.8z"/>
		</g>
		<path class="st1" d="M652.2,895.6c0,0,8.8,57.2,5.1,106.4l-44.2,10.7l-0.6-96.6l9.2-5.1c0,0-3.5,78.5,10.2,71.2l-0.8-75.4
			L652.2,895.6z"/>
		<path class="st0" d="M291.9,1118.5c0,0-55.9-33.2-74.8-43.3l58.5,54L291.9,1118.5z"/>
		<g>
			<g>
				<circle class="st0" cx="444.5" cy="889.6" r="40.4"/>
				<path class="st1" d="M441.2,929.9c5.3,0.4,10.6-0.2,15.6-1.9c5-1.7,9.6-4.4,13.5-7.9c3.9-3.5,6.9-7.8,9.1-12.5
					c2.1-4.7,3.3-9.7,3.4-14.8c0.3-10.1-3.5-19.9-10.1-27c-6.5-7.2-15.7-11.6-25.2-12.4c-9.5-0.8-19.3,2.1-26.9,8.1
					c-7.6,5.9-13,15-14.4,25c-0.7,5-0.4,10.2,0.9,15.1c1.4,4.9,3.7,9.7,6.9,13.8c3.2,4.1,7.3,7.5,12,10
					C430.7,927.9,435.9,929.4,441.2,929.9z M441.2,929.9c-10.6-0.8-20.7-5.8-27.9-13.8c-7.3-7.9-11.4-18.8-11-30
					c0.2-5.5,1.5-11.1,3.8-16.3c2.4-5.1,5.8-9.9,10.1-13.7c4.3-3.8,9.3-6.8,14.8-8.7c5.5-1.9,11.4-2.6,17.2-2.1
					c5.8,0.5,11.5,2.1,16.6,4.9c5.1,2.7,9.6,6.5,13.2,11c3.6,4.5,6.2,9.7,7.7,15.2c1.5,5.5,1.8,11.2,1.1,16.7
					c-1.4,11-7.3,21.1-15.8,27.8C462.5,927.6,451.7,930.8,441.2,929.9z"/>
			</g>
			
				<linearGradient id="SVGID_27_" gradientUnits="userSpaceOnUse" x1="10962.2256" y1="2218.5908" x2="11027.9521" y2="2218.5908" gradientTransform="matrix(-0.9827 -0.185 -0.185 0.9827 11656.9541 747.347)">
				<stop  offset="0" style="stop-color:#52FFCE"/>
				<stop  offset="0.9948" style="stop-color:#6700E4"/>
			</linearGradient>
			<path class="st32" d="M466.4,871.6c0,0,14.8,14.2,4.9,32c-3,5.4-11.7,12.7-17.7,14.4c0,0,2.3-12.3-7-10
				c-9.3,2.3-8.1,10.9-15.5,10.5c-7.4-0.5-20.7-9.9-22.2-31.5l10.5-15.6l16.4,22.9l20.8-12.5L466.4,871.6z"/>
			<path class="st1" d="M474,893.7c0,0,8-19.4-17.8-36.4c0,0,1.4,27.4-18.8,25.5c-20.2-1.9-5.5-25.3-5.5-25.3s-36,12.8-17.7,49.8
				c0,0-3.4-12,6.7-23.5c0,0,2,20.7,21.3,18.2c19.2-2.5,19.4-23,19.4-23S469.6,880.4,474,893.7z"/>
			<g>
				<path class="st1" d="M471.3,876.8c0.1,1.6,0.2,2.9,0.1,4.3c0,1.4-0.1,2.8-0.3,4.2c-0.3,2.8-0.9,5.6-1.8,8.2
					c-0.9,2.6-2.4,5.2-4.3,7.2c-1,1-2.1,1.9-3.3,2.6c-1.2,0.7-2.5,1.2-3.7,1.5c1.2-0.6,2.3-1.3,3.3-2.1c1-0.9,1.8-1.8,2.5-2.9
					c1.4-2.1,2.2-4.6,2.6-7c0.4-2.5,0.4-5,0.2-7.5c-0.1-1.3-0.3-2.5-0.5-3.8c-0.2-1.2-0.5-2.5-0.8-3.6c-0.5-1.6,0.4-3.3,2-3.7
					c1.6-0.5,3.3,0.4,3.7,2C471.2,876.4,471.3,876.6,471.3,876.8L471.3,876.8z"/>
			</g>
			<g>
				<path class="st1" d="M416.7,884.3c-0.1,1.1-0.2,2.4-0.2,3.7c0,1.3,0,2.5,0.1,3.8c0.2,2.5,0.6,5,1.4,7.4c0.8,2.4,1.9,4.7,3.6,6.6
					c0.9,0.9,1.8,1.8,2.9,2.5c1.1,0.7,2.3,1.2,3.6,1.6c-1.3-0.2-2.7-0.4-3.9-0.9c-1.3-0.5-2.5-1.2-3.6-2c-2.2-1.7-4-4-5.4-6.5
					c-1.4-2.5-2.3-5.1-3.1-7.8c-0.4-1.4-0.7-2.7-0.9-4.1c-0.2-1.4-0.4-2.7-0.5-4.3l0,0c-0.1-1.7,1.2-3.1,2.8-3.2
					c1.7-0.1,3.1,1.2,3.2,2.8C416.8,883.9,416.8,884.1,416.7,884.3z"/>
			</g>
		</g>
		
			<ellipse transform="matrix(0.185 -0.9827 0.9827 0.185 31.5578 498.6607)" class="st0" cx="316.4" cy="230.3" rx="17.3" ry="34.2"/>
		<polygon class="st1" points="463.4,347.1 459,388.2 449.3,344.4 		"/>
		<polygon class="st1" points="442.8,341.1 439.4,370.5 428.8,338.4 		"/>
		<polygon class="st1" points="191.4,341.8 163.1,300.8 186.8,355.5 		"/>
	</g>
</g>
</svg>
