<?xml version="1.0" encoding="utf-8"?>
<!-- Generator: Adobe Illustrator 22.0.1, SVG Export Plug-In . SVG Version: 6.00 Build 0)  -->
<svg version="1.1" id="Layer_1" xmlns="http://www.w3.org/2000/svg" xmlns:xlink="http://www.w3.org/1999/xlink" x="0px" y="0px"
	 viewBox="0 0 231 270.9" style="enable-background:new 0 0 231 270.9;" xml:space="preserve">
<style type="text/css">
	.st0{opacity:0.95;}
	.st1{fill:url(#SVGID_1_);}
	.st2{fill:url(#SVGID_2_);}
	.st3{fill:url(#SVGID_3_);}
	.st4{fill:url(#SVGID_4_);}
	.st5{fill:url(#SVGID_5_);}
	.st6{fill:#FEF5BD;}
	.st7{opacity:0.29;}
	.st8{fill:url(#SVGID_6_);}
	.st9{fill:url(#SVGID_7_);}
	.st10{opacity:0.46;fill:url(#SVGID_8_);}
	.st11{opacity:0.46;fill:url(#SVGID_9_);}
	.st12{fill:none;stroke:#242A4D;stroke-width:6.891;stroke-linecap:round;stroke-linejoin:round;stroke-miterlimit:10;}
</style>
<g>
	<g>
		
			<image style="overflow:visible;" width="259" height="272" xlink:href="42270D964B02B1F4.png"  transform="matrix(1 0 0 1 -14 10.9)">
		</image>
	</g>
	<g class="st0">
		<linearGradient id="SVGID_1_" gradientUnits="userSpaceOnUse" x1="115.4" y1="220.8256" x2="115.4" y2="21.809">
			<stop  offset="0" style="stop-color:#FCBC47"/>
			<stop  offset="0.5101" style="stop-color:#FCE347"/>
			<stop  offset="0.517" style="stop-color:#FCE44A"/>
			<stop  offset="0.6279" style="stop-color:#FBEB76"/>
			<stop  offset="0.7347" style="stop-color:#FBF199"/>
			<stop  offset="0.835" style="stop-color:#FAF5B3"/>
			<stop  offset="0.9262" style="stop-color:#FAF8C2"/>
			<stop  offset="1" style="stop-color:#FAF9C7"/>
		</linearGradient>
		<path class="st1" d="M121.9,26.3l79.2,42.5c4.4,2.4,7.2,7,7.2,12.1v83.2c0,5-2.8,9.7-7.2,12.1l-79.2,42.5c-4,2.2-8.9,2.2-12.9,0
			l-79.3-42.5c-4.4-2.4-7.2-7-7.2-12.1V80.8c0-5,2.8-9.7,7.2-12.1l79.3-42.5C113,24.1,117.8,24.1,121.9,26.3z"/>
	</g>
	<g>
		<linearGradient id="SVGID_2_" gradientUnits="userSpaceOnUse" x1="78.8314" y1="182.1291" x2="58.5343" y2="214.1772">
			<stop  offset="0" style="stop-color:#FC9532"/>
			<stop  offset="0.3188" style="stop-color:#FA9634"/>
			<stop  offset="0.4563" style="stop-color:#F3973A"/>
			<stop  offset="0.5589" style="stop-color:#E69B44"/>
			<stop  offset="0.6442" style="stop-color:#D4A052"/>
			<stop  offset="0.7188" style="stop-color:#BDA665"/>
			<stop  offset="0.7858" style="stop-color:#A1AD7C"/>
			<stop  offset="0.8472" style="stop-color:#7FB698"/>
			<stop  offset="0.9043" style="stop-color:#57C1B8"/>
			<stop  offset="0.9557" style="stop-color:#2CCCDB"/>
			<stop  offset="1" style="stop-color:#00D8FF"/>
		</linearGradient>
		<path class="st2" d="M115.4,219.3l-6.4,21l-80.3-43c-3.8-2.1-6.2-6-6.2-10.4v-21.6L115.4,219.3z"/>
	</g>
	<linearGradient id="SVGID_3_" gradientUnits="userSpaceOnUse" x1="137.4737" y1="162.3632" x2="178.0133" y2="221.7905">
		<stop  offset="0.1491" style="stop-color:#FC1E79"/>
		<stop  offset="0.3079" style="stop-color:#FC3969"/>
		<stop  offset="0.6502" style="stop-color:#FC7F41"/>
		<stop  offset="0.9993" style="stop-color:#FCCC14"/>
	</linearGradient>
	<path class="st3" d="M115.4,219.3l6.4,21l80.3-43c3.8-2.1,6.2-6,6.2-10.4v-21.6L115.4,219.3z"/>
	<g class="st0">
		<linearGradient id="SVGID_4_" gradientUnits="userSpaceOnUse" x1="115.4" y1="220.8256" x2="115.4" y2="21.809">
			<stop  offset="0" style="stop-color:#FCBC47"/>
			<stop  offset="0.5101" style="stop-color:#FCE347"/>
			<stop  offset="0.517" style="stop-color:#FCE44A"/>
			<stop  offset="0.6279" style="stop-color:#FBEB76"/>
			<stop  offset="0.7347" style="stop-color:#FBF199"/>
			<stop  offset="0.835" style="stop-color:#FAF5B3"/>
			<stop  offset="0.9262" style="stop-color:#FAF8C2"/>
			<stop  offset="1" style="stop-color:#FAF9C7"/>
		</linearGradient>
		<path class="st4" d="M121.9,26.3l79.2,42.5c4.4,2.4,7.2,7,7.2,12.1v83.2c0,5-2.8,9.7-7.2,12.1l-79.2,42.5c-4,2.2-8.9,2.2-12.9,0
			l-79.3-42.5c-4.4-2.4-7.2-7-7.2-12.1V80.8c0-5,2.8-9.7,7.2-12.1l79.3-42.5C113,24.1,117.8,24.1,121.9,26.3z"/>
	</g>
	<linearGradient id="SVGID_5_" gradientUnits="userSpaceOnUse" x1="115.4025" y1="246.5039" x2="115.4025" y2="185.739">
		<stop  offset="0" style="stop-color:#F9F7C5"/>
		<stop  offset="7.453275e-02" style="stop-color:#F9F6C0"/>
		<stop  offset="0.1666" style="stop-color:#F9F3B1"/>
		<stop  offset="0.2678" style="stop-color:#F9EF97"/>
		<stop  offset="0.3756" style="stop-color:#FAE974"/>
		<stop  offset="0.4875" style="stop-color:#FAE148"/>
		<stop  offset="0.4899" style="stop-color:#FAE147"/>
		<stop  offset="0.802" style="stop-color:#F9BA47"/>
	</linearGradient>
	<path class="st5" d="M109,240.3c0,0,6.3,3.5,12.9,0v-22.8l-5.9,1.4l-6.9-1.4L109,240.3z"/>
	<path class="st6" d="M205.6,161.3c0,5-1.4,9.7-5.8,12.1l-77.9,42.5c-4,2.2-8.9,2.2-12.9,0l-77.9-42.5c-4.4-2.4-5.8-7-5.8-12.1
		l-2.7-81.4c0,0.3-0.1,0.6-0.1,0.9v83.2c0,5,2.8,9.7,7.2,12.1l79.3,42.5c4,2.2,8.9,2.2,12.9,0l79.2-42.5c4.4-2.4,7.2-7,7.2-12.1
		V80.8c0-0.3,0-0.6-0.1-0.9L205.6,161.3z"/>
	<g class="st7">
		<linearGradient id="SVGID_6_" gradientUnits="userSpaceOnUse" x1="78.81" y1="85.0207" x2="42.815" y2="-2.9848">
			<stop  offset="0" style="stop-color:#00D8FF"/>
			<stop  offset="4.429144e-02" style="stop-color:#2CCCDB"/>
			<stop  offset="9.573418e-02" style="stop-color:#57C1B8"/>
			<stop  offset="0.1528" style="stop-color:#7FB698"/>
			<stop  offset="0.2142" style="stop-color:#A1AD7C"/>
			<stop  offset="0.2812" style="stop-color:#BDA665"/>
			<stop  offset="0.3558" style="stop-color:#D4A052"/>
			<stop  offset="0.4411" style="stop-color:#E69B44"/>
			<stop  offset="0.5437" style="stop-color:#F3973A"/>
			<stop  offset="0.6812" style="stop-color:#FA9634"/>
			<stop  offset="1" style="stop-color:#FC9532"/>
		</linearGradient>
		<path class="st8" d="M22.5,80.5v13.9l92.9-49.8V28.1c0-2.4-2.5-3.9-4.6-2.8L29.4,68.9C25.1,71.2,22.5,75.6,22.5,80.5z"/>
		<linearGradient id="SVGID_7_" gradientUnits="userSpaceOnUse" x1="184.8622" y1="3.1665" x2="153.7434" y2="81.309">
			<stop  offset="0" style="stop-color:#FC9532"/>
			<stop  offset="0.3188" style="stop-color:#FA9634"/>
			<stop  offset="0.4563" style="stop-color:#F3973A"/>
			<stop  offset="0.5589" style="stop-color:#E69B44"/>
			<stop  offset="0.6442" style="stop-color:#D4A052"/>
			<stop  offset="0.7188" style="stop-color:#BDA665"/>
			<stop  offset="0.7858" style="stop-color:#A1AD7C"/>
			<stop  offset="0.8472" style="stop-color:#7FB698"/>
			<stop  offset="0.9043" style="stop-color:#57C1B8"/>
			<stop  offset="0.9557" style="stop-color:#2CCCDB"/>
			<stop  offset="1" style="stop-color:#00D8FF"/>
		</linearGradient>
		<path class="st9" d="M201.8,69.1l-81.7-43.8c-2.1-1.1-4.6,0.4-4.6,2.8v16.4l92.9,49.8V80.1C208.3,75.5,205.8,71.3,201.8,69.1z"/>
		<linearGradient id="SVGID_8_" gradientUnits="userSpaceOnUse" x1="-15.9822" y1="59.6036" x2="232.1315" y2="59.6036">
			<stop  offset="0.1491" style="stop-color:#FC1E79"/>
			<stop  offset="0.2505" style="stop-color:#FC2A72"/>
			<stop  offset="0.4344" style="stop-color:#FC4A5F"/>
			<stop  offset="0.6798" style="stop-color:#FC7E41"/>
			<stop  offset="0.9747" style="stop-color:#FCC618"/>
			<stop  offset="0.9993" style="stop-color:#FCCC14"/>
		</linearGradient>
		<path class="st10" d="M201.4,68.9l-81.5-43.7c-2-1.1-4.4,0.4-4.4,2.7v16.7l92.9,49.8V80.5C208.3,75.7,205.7,71.2,201.4,68.9z"/>
	</g>
	<linearGradient id="SVGID_9_" gradientUnits="userSpaceOnUse" x1="104.512" y1="121.6594" x2="190.7614" y2="12.9468">
		<stop  offset="0" style="stop-color:#FEF5BD;stop-opacity:0"/>
		<stop  offset="0.9993" style="stop-color:#FEF5BD"/>
	</linearGradient>
	<path class="st11" d="M201,68.7l-80.8-43.3c-3-1.6-6.6-1.6-9.6,0L67.5,48.5c5.6,28.9,32.8,55.9,70.5,66.1c25.5,6.9,50.6,4.9,70.3-4
		V81C208.3,75.8,205.5,71.1,201,68.7z"/>
	<path class="st12" d="M66.6,119.3c12.2,0,22.1,9.9,22.1,22.1s-9.9,22.1-22.1,22.1"/>
	<path class="st12" d="M157.5,119.3c-12.2,0-22.1,9.9-22.1,22.1s9.9,22.1,22.1,22.1"/>
	<path class="st12" d="M88.6,141c0,0,23.3-14.2,45.8,1.9"/>
	<line class="st12" x1="65.2" y1="97.2" x2="91.7" y2="97.2"/>
	<line class="st12" x1="134.1" y1="97.2" x2="160.6" y2="97.2"/>
</g>
</svg>
