<?xml version="1.0" encoding="utf-8"?>
<!-- Generator: Adobe Illustrator 22.0.1, SVG Export Plug-In . SVG Version: 6.00 Build 0)  -->
<svg version="1.1" id="Capa_1" xmlns="http://www.w3.org/2000/svg" xmlns:xlink="http://www.w3.org/1999/xlink" x="0px" y="0px"
	 viewBox="0 0 1097.5 1215.7" style="enable-background:new 0 0 1097.5 1215.7;" xml:space="preserve">
<style type="text/css">
	.st0{fill:url(#SVGID_1_);}
	.st1{fill:#5E004D;}
	.st2{fill:url(#SVGID_2_);}
	.st3{fill:url(#SVGID_3_);}
	.st4{fill:#FFFFFF;}
	.st5{fill:#5E004D;stroke:#5E004D;stroke-width:4.7741;stroke-linecap:round;stroke-linejoin:round;stroke-miterlimit:10;}
	.st6{fill:url(#SVGID_4_);}
	.st7{fill:url(#SVGID_5_);}
	.st8{fill:url(#SVGID_6_);}
	.st9{fill:url(#SVGID_7_);}
	.st10{fill:url(#SVGID_8_);}
	.st11{fill:url(#SVGID_9_);}
	.st12{fill:#6700E4;}
	.st13{fill:url(#SVGID_10_);}
	.st14{fill:url(#SVGID_11_);}
	.st15{fill:url(#SVGID_12_);}
	.st16{fill:url(#SVGID_13_);}
	.st17{fill:url(#SVGID_14_);}
	.st18{fill:url(#SVGID_15_);}
	.st19{fill:none;stroke:#5E004D;stroke-width:7.6386;stroke-linecap:round;stroke-linejoin:round;stroke-miterlimit:10;}
	.st20{fill:#FFFFFF;stroke:#5E004D;stroke-width:7.6386;stroke-linecap:round;stroke-linejoin:round;stroke-miterlimit:10;}
	.st21{fill:url(#SVGID_16_);}
	.st22{fill:url(#SVGID_17_);}
	.st23{fill:url(#SVGID_18_);}
	.st24{fill:url(#SVGID_19_);}
	.st25{fill:url(#SVGID_20_);}
	.st26{fill:url(#SVGID_21_);}
</style>
<g>
	<g>
		<g>
			
				<linearGradient id="SVGID_1_" gradientUnits="userSpaceOnUse" x1="-215.8064" y1="1063.7573" x2="20.9615" y2="1063.7573" gradientTransform="matrix(0.9575 3.582354e-02 3.582354e-02 0.9698 288.9525 -243.6581)">
				<stop  offset="0" style="stop-color:#52FFCE"/>
				<stop  offset="0.9948" style="stop-color:#6700E4"/>
			</linearGradient>
			<path class="st0" d="M210.5,870.8c-21.6,0-42.7-7.3-59.4-20.6c-15.8-12.6-26.6-29.7-29.4-46.9c-3.7-21.8,6.8-42.6,30.3-59.9
				c16.9-12.5,34.5-18.9,36-19.4l65.6-25.9c0.5-0.2,0.9-0.3,1.4-0.3c1,0,2,0.4,2.8,1.2l88.6,92.4c0.8,0.8,1.1,1.9,1,3
				s-0.7,2.1-1.6,2.8l-61.9,45C261,861,235.7,870.8,210.5,870.8C210.6,870.8,210.6,870.8,210.5,870.8z"/>
			<path class="st1" d="M254.9,701.8l88.6,92.4l-62,45.1c-24.1,19.8-48.6,27.7-70.9,27.7c-44.2,0-79.5-31.3-85.1-64.3
				c-8.3-49.7,63.8-75,63.8-75L254.9,701.8 M254.9,694.1c-0.9,0-1.9,0.2-2.8,0.5l-65.5,25.8c-2,0.7-19.8,7.3-36.9,19.9
				C125,758.6,114,780.6,117.9,804c3,18.2,14.3,36.1,30.8,49.3c17.4,13.8,39.3,21.4,61.8,21.4c26,0,52.2-10.1,75.6-29.3l61.8-44.9
				c1.8-1.3,2.9-3.3,3.1-5.5c0.2-2.2-0.6-4.4-2.1-6l-88.6-92.4C259,695,257,694.1,254.9,694.1L254.9,694.1z"/>
		</g>
		<g>
			
				<linearGradient id="SVGID_2_" gradientUnits="userSpaceOnUse" x1="658.9742" y1="919.7567" x2="883.231" y2="919.7567" gradientTransform="matrix(1.0296 3.143975e-02 3.143975e-02 1.0333 -179.6306 -190.5334)">
				<stop  offset="0" style="stop-color:#52FFCE"/>
				<stop  offset="0.9948" style="stop-color:#6700E4"/>
			</linearGradient>
			<path class="st2" d="M692.8,884.3c-32.9,0-68.7-18.3-100.9-51.5l-63.2-58.9c-0.8-0.8-1.3-1.8-1.2-2.9c0-1.1,0.5-2.1,1.4-2.8
				L629.8,686c0.7-0.6,1.6-0.9,2.4-0.9c0.7,0,1.3,0.2,1.9,0.5l68.4,39.3c0.2,0.1,0.4,0.3,0.6,0.4c0.7,0.6,17,14.6,32.1,35.2
				c20.3,27.7,28.2,54,22.9,76.1C751.2,865.6,725.6,884.3,692.8,884.3z"/>
			<path class="st1" d="M632.2,688.9l68.4,39.3c0,0,66,56.3,53.8,107.5c-6.4,26.9-30.1,44.8-61.7,44.8c-28.6,0-63.6-14.6-98.2-50.4
				l-63.3-59L632.2,688.9 M632.2,681.3c-1.7,0-3.4,0.6-4.8,1.7l-100.9,82.2c-1.7,1.4-2.7,3.5-2.8,5.7c-0.1,2.2,0.8,4.3,2.4,5.8
				l63.1,58.8c32.8,33.9,69.6,52.6,103.5,52.6c34.6,0,61.7-19.9,69.1-50.6c13.2-55.2-53.4-112.7-56.2-115.1
				c-0.4-0.3-0.7-0.6-1.2-0.8L636,682.3C634.8,681.6,633.5,681.3,632.2,681.3L632.2,681.3z"/>
		</g>
		<g>
			<g>
				<linearGradient id="SVGID_3_" gradientUnits="userSpaceOnUse" x1="226.356" y1="919.252" x2="701.773" y2="919.252">
					<stop  offset="0" style="stop-color:#52FFCE"/>
					<stop  offset="0.9948" style="stop-color:#6700E4"/>
				</linearGradient>
				<path class="st3" d="M339.7,1166c-62.2,0-109.3-23.3-111.3-24.3c-1.3-0.7-2.1-2-2.1-3.5c3.3-144,28.6-443.3,28.8-446.4
					c0.2-1.9,1.7-3.4,3.6-3.5l354-15.8c0.1,0,0.1,0,0.2,0c1.5,0,2.9,0.9,3.5,2.2c31.1,68.7,54.7,161.4,70.1,275.3
					c5,36.9,9,74.9,11.8,113c2.7,36,3.3,58.8,3.3,59.1c0,1.1-0.4,2.1-1.2,2.9c-25.4,24.2-61.2,36.5-106.4,36.5
					c-36.3,0-64.8-8.1-66-8.4c-1.5-0.4-2.6-1.8-2.7-3.3c-0.1-0.9-9-94.7-57.5-94.7c-1,0-2,0-3,0.1c-20.4,1.5-34.4,27.7-42.5,49.3
					c-9.1,24.2-13.1,48.3-13.1,48.6c-0.2,1.4-1.2,2.6-2.6,3C385.6,1162.6,363.1,1166,339.7,1166z"/>
				<g>
					<path class="st1" d="M613,676.3c36.9,81.7,57.9,186.6,69.8,274.2c5.9,43.6,9.6,82.8,11.8,112.8c2.7,36.3,3.3,58.9,3.3,58.9
						c-29.5,28.1-69.9,35.4-103.8,35.4c-36.2,0-64.9-8.3-64.9-8.3s-8.7-98.2-61.3-98.2c-1.1,0-2.2,0-3.3,0.1
						c-43.4,3.3-59.1,101.1-59.1,101.1c-22.7,7.1-45.1,9.8-65.8,9.8c-62,0-109.6-23.9-109.6-23.9c3.3-145.6,28.8-446.1,28.8-446.1
						L613,676.3 M613,668.7c-0.1,0-0.2,0-0.3,0l-354,15.8c-3.8,0.2-6.9,3.2-7.3,7c-0.3,3-25.6,302.5-28.8,446.6
						c-0.1,2.9,1.6,5.7,4.2,7c2,1,49.9,24.7,113,24.7c23.7,0,46.6-3.4,68.1-10.2c2.8-0.9,4.8-3.2,5.3-6.1c0-0.2,4-24.2,13-48
						c14-37.2,29-45.9,39.2-46.6c0.9-0.1,1.8-0.1,2.7-0.1c9.8,0,18.3,4.2,26,12.7c6.6,7.4,12.3,17.8,17.1,31.1
						c8.4,23.4,10.6,47.2,10.6,47.4c0.3,3.1,2.5,5.8,5.5,6.7c1.2,0.4,30.2,8.6,67.1,8.6c20.2,0,39-2.5,55.7-7.5
						c21-6.2,39-16.3,53.4-30.1c1.6-1.5,2.4-3.6,2.4-5.7c0-0.2-0.7-23.2-3.3-59.3c-2.8-38.1-6.8-76.2-11.9-113.2
						c-6.9-50.4-15.5-97.6-25.7-140.1c-12.6-52.6-27.7-98.4-44.8-136.3C618.7,670.5,616,668.7,613,668.7L613,668.7z"/>
				</g>
			</g>
			<path class="st1" d="M315.2,899.3l-77.5,27.1l-4.3,123.1l36.2,11.8v-34.5c0-9.2,8.5-15.6,16.5-12.5c11.3,4.3,21.5,6,21.5,6
				c-38-67.9,39.2-113.7,39.2-113.7L335,893.4L315.2,899.3z"/>
			<g>
				<path class="st4" d="M694.6,1063.3l-7.7,6.4l-6.2-89.6c-22.3,26.5-40.7,22.9-40.7,22.9c27.1-9.3,37-50,41.5-67.7
					C687.4,979,692.4,1033.4,694.6,1063.3z"/>
			</g>
			<path class="st5" d="M582.3,1055.2c0,0,64.5-12,97-20.7l4.4,31.7c0,0-39.1,19.5-95.2,21.7C588.4,1088,580.4,1070.3,582.3,1055.2z
				"/>
			<path class="st5" d="M354.4,1058.7c0,0-70.1-12-105.3-20.7l-4.8,31.7c0,0,42.4,19.5,103.5,21.7
				C347.8,1091.5,356.5,1073.9,354.4,1058.7z"/>
			<g>
				<linearGradient id="SVGID_4_" gradientUnits="userSpaceOnUse" x1="229.2961" y1="1047.402" x2="696.7146" y2="1047.402">
					<stop  offset="0" style="stop-color:#52FFCE"/>
					<stop  offset="0.9948" style="stop-color:#6700E4"/>
				</linearGradient>
				<path class="st6" d="M370,1040.1c0,0,109.8,43.6,195.1-3.8"/>
				<path class="st1" d="M370,1040.1c8.1,2.2,16.2,4.1,24.4,5.8c8.1,1.7,16.3,3.2,24.5,4.4c8.2,1.2,16.4,2.3,24.7,3l6.2,0.5
					c2.1,0.2,4.1,0.2,6.2,0.4c2.1,0.1,4.1,0.2,6.2,0.3c2.1,0.1,4.1,0.2,6.2,0.1c8.2,0.2,16.5-0.1,24.7-0.7c2-0.2,4.1-0.3,6.2-0.5
					l6.1-0.7c2.1-0.2,4.1-0.6,6.1-0.9l3.1-0.4c1-0.2,2-0.4,3-0.6c2-0.4,4.1-0.7,6.1-1.1l6-1.4c2-0.4,4-1,6-1.5c2-0.6,4-1,6-1.7
					l5.9-1.9c2-0.6,3.9-1.4,5.9-2.1l2.9-1.1c1-0.4,1.9-0.8,2.9-1.2c1.9-0.8,3.9-1.6,5.8-2.4c-1.7,1.2-3.5,2.3-5.3,3.4
					c-0.9,0.6-1.8,1.1-2.7,1.7l-2.8,1.5c-1.9,1-3.7,2-5.6,2.9l-5.8,2.6c-7.8,3.2-15.8,6.2-24.1,8.1c-8.2,2.1-16.6,3.6-25.1,4.4
					l-3.2,0.3l-3.2,0.2c-2.1,0.1-4.2,0.3-6.4,0.4l-6.4,0.2c-2.1,0-4.2,0-6.4,0c-8.5-0.1-17-0.7-25.4-1.7c-8.4-1-16.8-2.5-25-4.3
					c-8.3-1.8-16.4-4.1-24.4-6.7C385.5,1046.8,377.6,1043.9,370,1040.1z"/>
			</g>
			<path class="st1" d="M370,1030.9c50,6.4,101.6,30.7,201.6-8.1c0,0,9.6,15.1-42.1,30.5c0,0,15.9,8.2,31.3,0.5
				c0,0,56.6,19.9,39.7,23.5l-96.4,9l-15.6-27.8l-42.8-1.3l-18.6,29.1l-101.4-15.7c0,0,66.3-1.7,57.4-5.8c-4.2-1.9-9.4-5.6-13.8-9
				c-2.4-1.8-0.8-5.8,2.1-5.3c10.3,1.9,24.1,4.1,25.1,2.6C396.5,1053.1,319.2,1024.4,370,1030.9z"/>
			<path class="st1" d="M240.1,935.5c0,0,69.7-19.9,94.9-42.1l13.6,38.6l34.5,15.3l6.8,33.7c0,0,94.4,27.5,149.5-2.4l7.7-37.7
				c0,0,22.7-9.5,30.7-18.6l2.9-10.2c0,0,67.2,31.3,105.2,20.7l-11.7-72.5l-429.9,2.3L240.1,935.5z"/>
			<g>
				<linearGradient id="SVGID_5_" gradientUnits="userSpaceOnUse" x1="347.5048" y1="877.3179" x2="568.9258" y2="877.3179">
					<stop  offset="0" style="stop-color:#52FFCE"/>
					<stop  offset="0.9948" style="stop-color:#6700E4"/>
				</linearGradient>
				<path class="st7" d="M470.9,975.3c-42.1,0-77.9-11.6-79.4-12.1c-1.3-0.4-2.2-1.5-2.5-2.8L347.6,784c-0.3-1.1,0-2.3,0.7-3.3
					c0.7-0.9,1.8-1.4,3-1.4c0,0,213.8,3.1,213.8,3.1c1.1,0,2.1,0.5,2.9,1.4c0.7,0.8,1,2,0.9,3l-26.5,171.4c-0.2,1.2-1,2.3-2.1,2.8
					C521.2,970.5,497.9,975.3,470.9,975.3C470.9,975.3,470.9,975.3,470.9,975.3z"/>
				<g>
					<path class="st1" d="M351.3,783.1l213.8,3.1l-26.5,171.4c-21.1,10.5-45.2,13.9-67.6,13.9c-42,0-78.2-11.9-78.2-11.9
						L351.3,783.1 M351.3,775.5c-2.3,0-4.5,1-6,2.9c-1.5,1.8-2,4.2-1.5,6.5l41.4,176.5c0.6,2.6,2.5,4.7,5.1,5.5
						c1.5,0.5,37.9,12.3,80.6,12.3c27.5,0,51.4-4.9,71-14.6c2.2-1.1,3.8-3.2,4.2-5.7l26.5-171.4c0.3-2.2-0.3-4.4-1.7-6.1
						c-1.4-1.7-3.5-2.7-5.7-2.7l-213.8-3.1C351.4,775.5,351.4,775.5,351.3,775.5L351.3,775.5z"/>
				</g>
			</g>
			<path class="st1" d="M385.3,959.1c0,0,92.4,19.6,160.6-12.4l1.1-20.4c0,0-75.1,28.2-163.9,9.1v11.8L385.3,959.1z"/>
			<g>
				<linearGradient id="SVGID_6_" gradientUnits="userSpaceOnUse" x1="240.1713" y1="766.478" x2="673.8567" y2="766.478">
					<stop  offset="0" style="stop-color:#52FFCE"/>
					<stop  offset="0.9948" style="stop-color:#6700E4"/>
				</linearGradient>
				<path class="st8" d="M453.7,882.9c-106.3,0-194.3-26.7-210.9-32.1c-1.7-0.5-2.8-2.2-2.6-3.9c7.3-95.5,14.9-178,15-178.8
					c0.2-1.9,1.7-3.4,3.6-3.5l354-14.6c0.1,0,0.1,0,0.2,0c1.5,0,2.8,0.8,3.4,2.1c23.3,47.5,42.6,108.3,57.4,180.6
					c0.3,1.7-0.5,3.4-2.1,4.2C608.8,867.4,535.5,882.9,453.7,882.9C453.7,882.9,453.7,882.9,453.7,882.9z"/>
				<g>
					<path class="st1" d="M613,653.9c26.2,53.5,44.4,117.9,57,179.6c-71.3,34.6-147.9,45.6-216.3,45.6
						c-104.9,0-190.7-25.8-209.7-31.9c7.4-96.5,15-178.8,15-178.8L613,653.9 M613,646.2c-0.1,0-0.2,0-0.3,0l-354,14.6
						c-3.8,0.2-6.9,3.1-7.3,6.9c-0.1,0.8-7.7,83.4-15,178.9c-0.3,3.5,1.9,6.8,5.3,7.9c9.7,3.1,36.2,11.2,73.5,18.5
						c46.9,9.2,93.5,13.8,138.5,13.8c82.4,0,156.3-15.6,219.7-46.4c3.1-1.5,4.8-5,4.2-8.4c-14.8-72.6-34.2-133.6-57.7-181.5
						C618.6,647.9,615.9,646.2,613,646.2L613,646.2z"/>
				</g>
			</g>
			<path class="st1" d="M609.9,783.9c0,0,40.3-15.4,50.2-20.1l-7.3-23.7l-46.6,15.6L609.9,783.9z"/>
			<path class="st1" d="M244,771.1c0,0,54,20.6,85.6,29.7l-6.6-32.3l-77.5-20.7L244,771.1z"/>
			<g>
				<path class="st4" d="M549.9,875.1c-1,0-1.9-0.4-2.6-1c-0.9-0.8-1.3-2-1.2-3.2l16.1-149c0.1-1.1,0.7-2,1.5-2.7
					c0.7-0.5,1.5-0.7,2.3-0.7c0.2,0,0.5,0,0.7,0.1l44.1,8.7c2,0.4,3.3,2.2,3.1,4.2l-11,97.9c0.9,0.1,1.7,0.1,2.7,0.1
					c16.6,0,42-9.6,58.6-18.5c0.6-0.3,1.2-0.5,1.8-0.5c0.5,0,1.1,0.1,1.6,0.3c1.1,0.5,1.9,1.5,2.1,2.6c1.5,6.6,2.2,10.2,3.3,15.5
					l0.8,3.9c0.3,1.7-0.5,3.4-2.1,4.2c-36.7,17.8-77.5,30.6-121.2,38.1C550.3,875.1,550.1,875.1,549.9,875.1z"/>
				<path class="st1" d="M566,722.3l44.1,8.7l-11.4,101.6c2.1,0.4,4.4,0.6,6.9,0.6c19,0,46-11.2,60.4-19c1.8,8,2.4,11.3,4.1,19.3
					c-39.2,19-80,30.9-120.2,37.8L566,722.3 M566,714.7c-1.6,0-3.2,0.5-4.5,1.5c-1.7,1.3-2.8,3.2-3.1,5.3l-16.1,149
					c-0.3,2.4,0.6,4.7,2.4,6.4c1.4,1.3,3.3,2.1,5.2,2.1c0.4,0,0.9,0,1.3-0.1c44-7.5,85.2-20.4,122.2-38.4c3.1-1.5,4.8-5,4.2-8.4
					l-0.8-3.9c-1.1-5.4-1.8-8.9-3.3-15.6c-0.5-2.3-2.1-4.3-4.3-5.3c-1-0.5-2.1-0.7-3.2-0.7c-1.2,0-2.5,0.3-3.6,0.9
					c-15.6,8.4-39.2,17.4-55.2,18l10.5-93.7c0.4-4-2.2-7.6-6.1-8.3l-44.1-8.7C567,714.7,566.5,714.7,566,714.7L566,714.7z"/>
			</g>
			<g>
				<path class="st4" d="M360.2,875.1c-0.2,0-0.4,0-0.6-0.1c-10.4-1.8-20.3-3.1-30-4.5c-28.4-3.9-55.2-7.6-90.8-20.4
					c-1.8-0.6-2.8-2.5-2.4-4.4c0.7-3.6,1-6,1.3-8.3c0.3-2.7,0.7-5.5,1.7-9.9c0.2-1,0.9-1.9,1.7-2.4c0.6-0.4,1.3-0.6,2-0.6
					c0.3,0,0.6,0,0.9,0.1c26.6,6.8,53.2,11.2,66.2,12.2l-17.3-105.3c-0.3-2.1,1-4,3.1-4.4l47.4-8.7c0.2,0,0.5-0.1,0.7-0.1
					c0.8,0,1.6,0.3,2.3,0.8c0.9,0.6,1.4,1.6,1.5,2.6l16.1,149c0.1,1.2-0.3,2.4-1.2,3.2C362.1,874.7,361.2,875.1,360.2,875.1z"/>
				<path class="st1" d="M344.1,722.3l16.1,149c-40.2-6.8-72.6-7.6-120.2-24.7c1.6-8,1.2-10.1,3-18.1c30,7.6,60.2,12.5,71.4,12.5
					c0.1,0,0.2,0,0.3,0l-18-109.9L344.1,722.3 M344.1,714.7c-0.5,0-0.9,0-1.4,0.1l-47.4,8.7c-4.1,0.7-6.8,4.6-6.2,8.8l16.5,100.4
					c-13.9-1.5-37.2-5.7-60.7-11.6c-0.6-0.2-1.3-0.2-1.9-0.2c-1.4,0-2.8,0.4-4,1.1c-1.8,1.1-3,2.8-3.5,4.8
					c-1.1,4.6-1.4,7.5-1.8,10.3c-0.3,2.3-0.6,4.5-1.3,8c-0.8,3.7,1.3,7.4,4.9,8.7c36,12.9,63,16.7,91.6,20.6
					c9.6,1.3,19.6,2.7,29.9,4.5c0.4,0.1,0.9,0.1,1.3,0.1c1.9,0,3.8-0.7,5.2-2.1c1.7-1.6,2.6-4,2.4-6.4l-16.1-149
					c-0.2-2.1-1.3-4-3-5.3C347.4,715.2,345.8,714.7,344.1,714.7L344.1,714.7z"/>
			</g>
			<g>
				<linearGradient id="SVGID_7_" gradientUnits="userSpaceOnUse" x1="304.3452" y1="822.5532" x2="597.6277" y2="822.5532">
					<stop  offset="0" style="stop-color:#52FFCE"/>
					<stop  offset="0.9948" style="stop-color:#6700E4"/>
				</linearGradient>
				<path class="st9" d="M458.3,939.3c-51.6,0-92.2-13.4-93.9-13.9c-1.2-0.4-2.1-1.4-2.5-2.6l-57.5-212.1c-0.3-1.2-0.1-2.4,0.7-3.3
					c0.7-0.9,1.8-1.5,3-1.5c0,0,285.7,3.5,285.7,3.5c1.1,0,2.2,0.5,2.9,1.4c0.7,0.9,1,2,0.8,3.1l-35.5,200.4c-0.2,1.2-1,2.2-2,2.7
					C531.2,931.8,496.9,939.3,458.3,939.3C458.3,939.3,458.3,939.3,458.3,939.3z"/>
				<g>
					<path class="st1" d="M308.2,709.6l285.6,3.5l-35.5,200.4c-32.6,16.7-68.3,21.9-100,21.9c-51.6,0-92.7-13.7-92.7-13.7
						L308.2,709.6 M308.2,702c-2.4,0-4.6,1.1-6,3c-1.5,1.9-2,4.4-1.3,6.7l57.5,212.1c0.7,2.5,2.5,4.4,4.9,5.2
						c1.7,0.6,42.8,14.1,95.1,14.1c39.2,0,74.1-7.7,103.5-22.8c2.1-1.1,3.6-3.1,4-5.5l35.5-200.4c0.4-2.2-0.2-4.5-1.6-6.2
						c-1.4-1.7-3.5-2.7-5.8-2.8L308.2,702C308.2,702,308.2,702,308.2,702L308.2,702z"/>
				</g>
			</g>
			<path class="st1" d="M346.7,906.5c0,0,196.9-4.3,218.4-25.6l0.8-12.7l-213.5,3.3L346.7,906.5z"/>
			<g>
				<linearGradient id="SVGID_8_" gradientUnits="userSpaceOnUse" x1="304.3453" y1="794.3579" x2="597.6279" y2="794.3579">
					<stop  offset="0" style="stop-color:#52FFCE"/>
					<stop  offset="0.9948" style="stop-color:#6700E4"/>
				</linearGradient>
				<path class="st10" d="M453.7,882.9c-33.1,0-67.4-2.6-101.9-7.6c-1.5-0.2-2.7-1.3-3.1-2.8l-44.1-161.9c-0.3-1.2-0.1-2.4,0.7-3.3
					c0.7-0.9,1.8-1.5,3-1.5c0,0,285.7,3.5,285.7,3.5c1.1,0,2.2,0.5,2.9,1.4s1,2,0.8,3.1l-27.9,155.1c-0.3,1.5-1.5,2.8-3,3.1
					C531.2,879.2,493.2,882.9,453.7,882.9C453.7,882.9,453.7,882.9,453.7,882.9z"/>
				<g>
					<path class="st1" d="M308.2,709.6l285.6,3.5l-27.9,155.1c-38.3,7.8-76.4,10.8-112.2,10.8c-36.8,0-71.3-3.2-101.4-7.6
						L308.2,709.6 M308.2,702c-2.4,0-4.6,1.1-6,3c-1.5,1.9-2,4.4-1.3,6.7l44.1,161.9c0.8,2.9,3.3,5.1,6.3,5.5
						c34.8,5.1,69.2,7.7,102.5,7.7c39.7,0,78-3.7,113.7-11c3.1-0.6,5.4-3.1,6-6.1l27.9-155.1c0.4-2.2-0.2-4.5-1.6-6.2
						s-3.6-2.7-5.8-2.8L308.2,702C308.2,702,308.2,702,308.2,702L308.2,702z"/>
				</g>
			</g>
			<path class="st1" d="M327.3,789.5c0,0,156.9,23,256.6,1.7l26-71.8l-301.8,5.2L327.3,789.5z"/>
			<g>
				<path class="st4" d="M453.7,882.9c-33.1,0-67.4-2.6-101.9-7.6c-1.5-0.2-2.8-1.4-3.2-2.9l-5.6-23.2c-0.3-1.2,0-2.5,0.9-3.5
					c0.7-0.8,1.8-1.3,2.8-1.3c0.2,0,0.4,0,0.5,0c37.9,5.3,73.3,7.9,108.4,7.9c39.6,0,78.4-3.5,115.3-10.4c0.2,0,0.5-0.1,0.7-0.1
					c1,0,2.1,0.4,2.8,1.2c0.9,1,1.2,2.3,0.9,3.6l-5.7,22.4c-0.4,1.4-1.5,2.5-2.9,2.8C531.2,879.2,493.2,882.9,453.7,882.9z"/>
				<path class="st1" d="M571.6,845.9L571.6,845.9 M571.6,845.9l-5.7,22.4c-38.3,7.8-76.4,10.8-112.2,10.8
					c-36.8,0-71.3-3.2-101.4-7.6l-5.6-23.2c33,4.7,69.7,8,108.9,8C492.4,856.3,531.4,853.4,571.6,845.9 M571.6,838.3
					c-0.1,0-0.2,0-0.3,0c-0.4,0-0.8,0.1-1.2,0.2c-36.6,6.8-75.1,10.3-114.4,10.3c-34.9,0-70.1-2.6-107.8-7.9
					c-0.4-0.1-0.7-0.1-1.1-0.1c-2.1,0-4.2,0.9-5.7,2.5c-1.7,1.9-2.4,4.5-1.8,6.9l5.6,23.2c0.7,3,3.2,5.3,6.3,5.8
					c34.8,5.1,69.2,7.7,102.5,7.7c39.7,0,78-3.7,113.7-11c2.9-0.6,5.1-2.8,5.9-5.6l5.7-22.1c0.2-0.7,0.3-1.4,0.3-2.1
					c0-4.2-3.3-7.5-7.5-7.6C571.7,838.3,571.6,838.3,571.6,838.3L571.6,838.3z M571.6,853.6L571.6,853.6L571.6,853.6L571.6,853.6z"
					/>
			</g>
			<g>
				<g>
					<polygon class="st1" points="400.6,799 466.6,786.2 525.4,801 512.6,898.5 465.4,918.6 407.9,896.9 					"/>
					<g>
						<path class="st4" d="M464.9,924.1c-0.5,0-1-0.1-1.5-0.3l-49.9-21c-1.3-0.6-2.3-1.9-2.3-3.3l-4.5-83.2c-0.1-1.9,1.2-3.6,3.1-4
							l56-11.1c0.2,0,0.5-0.1,0.7-0.1c0.3,0,0.6,0,0.8,0.1l48.3,10.8c1.9,0.4,3.1,2.2,3,4.1l-7.9,85.9c-0.1,1.4-1,2.6-2.3,3.1
							l-42,18.6C466,924,465.5,924.1,464.9,924.1z"/>
						<path class="st1" d="M466.6,804.9l48.3,10.8l-7.9,85.9l-42,18.6l-49.9-21l-4.5-83.2L466.6,804.9 M466.6,797.2
							c-0.5,0-1,0-1.5,0.1l-56,11.1c-3.7,0.7-6.3,4.1-6.1,7.9l4.5,83.2c0.2,2.9,2,5.5,4.7,6.6l49.9,21c0.9,0.4,2,0.6,3,0.6
							c1.1,0,2.1-0.2,3.1-0.7l42-18.6c2.5-1.1,4.3-3.5,4.5-6.3l7.9-85.9c0.4-3.8-2.2-7.3-5.9-8.2l-48.3-10.8
							C467.7,797.3,467.1,797.2,466.6,797.2L466.6,797.2z"/>
					</g>
					<g>
						<path class="st4" d="M464.9,917c-0.5,0-1-0.1-1.5-0.3l-49.9-21c-1.3-0.6-2.3-1.9-2.3-3.3l-4.5-83.2c-0.1-1.9,1.2-3.6,3.1-4
							l56-11.1c0.2,0,0.5-0.1,0.7-0.1c0.3,0,0.6,0,0.8,0.1l48.3,10.8c1.9,0.4,3.1,2.2,3,4.1l-7.9,85.9c-0.1,1.4-1,2.6-2.3,3.1
							l-42,18.6C466,916.9,465.5,917,464.9,917z"/>
						<path class="st1" d="M466.6,797.8l48.3,10.8l-7.9,85.9l-42,18.6l-49.9-21l-4.5-83.2L466.6,797.8 M466.6,790.1
							c-0.5,0-1,0-1.5,0.1l-56,11.1c-3.7,0.7-6.3,4.1-6.1,7.9l4.5,83.2c0.2,2.9,2,5.5,4.7,6.6l49.9,21c0.9,0.4,2,0.6,3,0.6
							c1.1,0,2.1-0.2,3.1-0.7l42-18.6c2.5-1.1,4.3-3.5,4.5-6.3l7.9-85.9c0.4-3.8-2.2-7.3-5.9-8.2l-48.3-10.8
							C467.7,790.2,467.1,790.1,466.6,790.1L466.6,790.1z"/>
					</g>
					<g>
						<path class="st1" d="M486.9,823.1l-13.3,3.2c0.2,0.8,0.4,1.6,0.4,2.4c0.1,0.8,0.1,1.7,0.1,2.6c0,1.9-0.2,3.7-0.6,5.5
							c-0.4,1.8-1,3.4-1.7,4.8c-0.7,1.4-1.7,2.6-2.8,3.5c-1.1,0.9-2.3,1.3-3.7,1.3c-0.2,0-0.3,0-0.5-0.1c-0.2,0-0.3,0.1-0.5,0.1
							c-1.4,0-2.6-0.4-3.7-1.3c-1.1-0.9-2-2-2.8-3.5c-0.8-1.4-1.3-3-1.7-4.8c-0.4-1.8-0.6-3.6-0.6-5.5c0-0.9,0-1.8,0.1-2.6
							c0.1-0.8,0.2-1.6,0.4-2.4l-13.3-3.2c-0.5,2.5-0.8,5.1-0.8,7.6c0,3.2,0.4,6.3,1.2,9.4c0.8,3.1,1.9,5.9,3.3,8.5
							c1.4,2.6,3.1,4.8,5.1,6.7c2,1.9,4.2,3.1,6.5,3.8c0.1,0.8,0.2,1.7,0.2,2.6c0,0.9,0,1.7,0,2.6c0,4.3-0.1,12.6-0.2,16.4
							c-0.1,3.7-0.3,8.3-0.6,12.3l7.6,6.4l7.3-6.4c-0.3-4-0.5-8.5-0.6-12.3c-0.1-3.7-0.2-12.1-0.2-16.4c0-0.9,0-1.8,0-2.6
							c0-0.9,0.1-1.7,0.2-2.6c2.4-0.7,4.5-1.9,6.5-3.8c2-1.9,3.7-4.1,5.1-6.7c1.4-2.6,2.5-5.4,3.3-8.5c0.8-3.1,1.2-6.2,1.2-9.4
							C487.7,828.1,487.5,825.6,486.9,823.1z"/>
						<path class="st1" d="M494.4,818.4l20.4-9.8l-1.5,16.6l-19.9,10.6C493.4,835.8,495.7,827.3,494.4,818.4z"/>
						<path class="st1" d="M493,840.6l16.6-10l-0.4,9.1l-25,14.5C484.2,854.2,490.5,850.3,493,840.6z"/>
						<polygon class="st1" points="477.6,862.5 506.3,846.1 500.7,857.6 483.4,867.3 477.6,879.9 						"/>
						<path class="st1" d="M435.5,818.4l-24.9-9.5l0.9,14.6l25.1,12.3C436.5,835.8,434.2,827.3,435.5,818.4z"/>
						<path class="st1" d="M436.9,840.6l-25.2-13l0.6,10.4l33.4,16.1C445.7,854.2,439.4,850.3,436.9,840.6z"/>
						<polygon class="st1" points="452.3,862.5 423.6,846.1 429.2,857.6 446.5,867.3 452.3,879.9 						"/>
					</g>
					<path class="st1" d="M466.6,790.7l-1.6,122.5l-14.3-0.1c0,0,3.9-115.1-2.2-98.6c-5.8,15.7-3.4,94.8-3.4,94.8l-9.7-3.4l-2.2-105
						L466.6,790.7z"/>
				</g>
			</g>
			<g>
				<g>
					<linearGradient id="SVGID_9_" gradientUnits="userSpaceOnUse" x1="500.3082" y1="1106.3086" x2="714.5998" y2="1106.3086">
						<stop  offset="0" style="stop-color:#52FFCE"/>
						<stop  offset="0.9948" style="stop-color:#6700E4"/>
					</linearGradient>
					<path class="st11" d="M585.8,1167c-19.9,0-40.5-2.4-61.3-7c-1.3-0.3-2.4-1.3-2.8-2.6l-17.8-58.6l-3.5-11.4
						c-0.3-1.1-0.1-2.4,0.6-3.3s1.8-1.6,3-1.6c1.2,0,122.6-4,192.3-36.5c0.5-0.2,1.1-0.4,1.6-0.4c0.6,0,1.3,0.2,1.8,0.5
						c1.1,0.6,1.8,1.7,1.9,2.9l12.8,99.9c0.2,1.9-1,3.8-2.9,4.2c-0.5,0.1-46.2,10.8-115,13.7C593.1,1166.9,589.4,1167,585.8,1167z"
						/>
					<path class="st1" d="M698,1049.4l12.8,99.9c0,0-45.1,10.7-114.3,13.6c-3.5,0.2-7.1,0.2-10.7,0.2c-18.3,0-38.4-2-60.4-6.9
						l-17.8-58.6l-3.5-11.4C504.1,1086.2,626.7,1082.6,698,1049.4 M698,1041.8c-1.1,0-2.2,0.2-3.2,0.7
						c-28.4,13.2-70.3,23.7-121.2,30.2c-38.8,5-69.3,5.9-69.6,5.9c-2.4,0.1-4.6,1.2-6,3.2c-1.4,1.9-1.8,4.4-1.1,6.7l3.5,11.4
						l17.8,58.6c0.8,2.6,3,4.6,5.6,5.2c21,4.7,41.9,7.1,62.1,7.1c3.7,0,7.4-0.1,11-0.2c69.1-3,113.8-13.4,115.7-13.8
						c3.8-0.9,6.3-4.5,5.8-8.4l-12.8-99.9c-0.3-2.4-1.8-4.5-3.9-5.7C700.5,1042.1,699.2,1041.8,698,1041.8L698,1041.8z"/>
				</g>
				<polygon class="st1" points="565.1,1075.1 582,1162.2 541.3,1157.8 525.4,1080.2 				"/>
				<polygon class="st1" points="520.4,1083.3 537.3,1160.9 525.9,1159 510,1081.4 				"/>
				<g>
					<path class="st12" d="M599,1093.9c-1,0-1.8-0.6-2.2-1.5c-0.2-0.6-5.9-14.1-6.1-28c0-2.1,0.1-4.1,0.3-6c0.1-1,0.9-1.9,1.9-2.1
						c0.6-0.1,59.9-12.1,89.4-20.6c0.2-0.1,0.4-0.1,0.7-0.1c0.5,0,0.9,0.1,1.3,0.4c0.6,0.4,1,1,1.1,1.7l4.1,31.7
						c0.1,1-0.4,1.9-1.2,2.4c-0.1,0-1.9,1-5.3,2.6c-11.6,5.2-42.8,17.6-83.7,19.4C599,1093.9,599,1093.9,599,1093.9z"/>
					<path class="st1" d="M682.9,1038.1l4.1,31.7c0,0-1.8,1-5.2,2.5c-11.7,5.3-42.5,17.5-82.8,19.2c0,0-5.7-13.5-5.9-27.1
						c0-1.9,0-3.8,0.3-5.7C593.3,1058.7,652.9,1046.7,682.9,1038.1 M682.9,1033.3c-0.4,0-0.9,0.1-1.3,0.2
						c-29.4,8.5-88.6,20.4-89.2,20.6c-2,0.4-3.6,2.1-3.8,4.1c-0.2,2-0.3,4.1-0.3,6.3c0.2,14.3,6.1,28.3,6.3,28.9
						c0.7,1.8,2.5,2.9,4.4,2.9c0.1,0,0.1,0,0.2,0c41.3-1.8,72.9-14.3,84.6-19.7c3.5-1.6,5.4-2.6,5.5-2.7c1.7-0.9,2.7-2.9,2.5-4.8
						l-4.1-31.7c-0.2-1.4-1-2.6-2.1-3.4C684.7,1033.6,683.8,1033.3,682.9,1033.3L682.9,1033.3z"/>
				</g>
				<g>
					<path class="st12" d="M585.8,1165.6c-19.8,0-40.3-2.4-60.9-7c-0.8-0.2-1.5-0.8-1.8-1.6l-17.8-58.6c-0.2-0.7-0.1-1.5,0.4-2.1
						c0.4-0.6,1.1-1,1.9-1c13-0.1,31.4-0.7,45.7-2.7c0.1,0,0.2,0,0.3,0c0.4,0,0.8,0.1,1.1,0.3l33.6,17.3c0.7,0.3,1.1,1,1.3,1.7
						l9.3,50.6c0.1,0.7-0.1,1.4-0.5,1.9c-0.4,0.5-1.1,0.9-1.8,0.9C593.1,1165.5,589.4,1165.6,585.8,1165.6z"/>
					<path class="st1" d="M553.6,1095l33.6,17.3l9.3,50.6c-3.5,0.2-7.1,0.2-10.7,0.2c-18.3,0-38.4-2-60.4-6.9l-17.8-58.6
						C520.6,1097.6,539.2,1097,553.6,1095 M553.6,1090.2c-0.2,0-0.4,0-0.6,0c-14.2,1.9-32.5,2.5-45.4,2.7c-1.5,0-2.9,0.7-3.8,2
						c-0.9,1.2-1.2,2.8-0.7,4.2l17.8,58.6c0.5,1.6,1.8,2.9,3.5,3.3c20.8,4.7,41.5,7.1,61.5,7.1c3.6,0,7.3-0.1,10.9-0.2
						c1.4-0.1,2.7-0.7,3.5-1.8c0.9-1.1,1.2-2.5,1-3.8l-9.3-50.6c-0.3-1.5-1.2-2.7-2.5-3.4l-33.6-17.3
						C555.1,1090.4,554.4,1090.2,553.6,1090.2L553.6,1090.2z"/>
				</g>
				<g>
					<path class="st4" d="M550.8,1099.6l33.6,17.3l8.5,46.1c1.2,0,2.5-0.1,3.7-0.1l-9.3-50.6l-33.6-17.3c-14.5,2-33.1,2.6-46,2.7
						l1.4,4.6C521.6,1102,537.8,1101.4,550.8,1099.6z"/>
				</g>
				<g>
					<path class="st12" d="M615.3,1150.1c-1.1,0-2.1-0.8-2.3-1.9l-3.7-18.3c-0.1-0.7,0-1.5,0.5-2c0.5-0.5,1.1-0.8,1.8-0.8
						c0,0,0.1,0,0.1,0c0,0,0.5,0,1.2,0c6,0,38-1,82.2-21.5c0.3-0.1,0.7-0.2,1-0.2c0.4,0,0.8,0.1,1.1,0.3c0.7,0.3,1.1,1,1.2,1.7
						l2.9,17.8c0.1,0.9-0.2,1.8-1,2.3C699.1,1128.3,668.2,1149.7,615.3,1150.1C615.3,1150.1,615.3,1150.1,615.3,1150.1z"/>
					<path class="st1" d="M696.1,1107.7l2.9,17.8c0,0-31,21.8-83.7,22.2l-3.7-18.3c0,0,0.5,0,1.3,0
						C619.7,1129.4,651.8,1128.2,696.1,1107.7 M696.1,1102.9c-0.7,0-1.4,0.1-2,0.4c-7.7,3.6-47.6,21.3-81.2,21.3c-0.7,0-1.1,0-1.1,0
						c-0.1,0-0.1,0-0.2,0c-1.4,0-2.7,0.6-3.6,1.7c-1,1.1-1.3,2.6-1,4l3.7,18.3c0.5,2.2,2.4,3.8,4.7,3.8c0,0,0,0,0,0
						c53.6-0.4,85.1-22.2,86.5-23.1c1.5-1.1,2.3-2.9,2-4.7l-2.9-17.8c-0.2-1.5-1.2-2.7-2.5-3.4
						C697.6,1103.1,696.9,1102.9,696.1,1102.9L696.1,1102.9z"/>
				</g>
				<g>
					<path class="st1" d="M589.8,1200.5c-28.6,0-48.9-6-60.4-17.8c-9.1-9.4-8.9-19.1-8.9-19.5c0-1.1,0.6-2.2,1.4-2.9
						c0.7-0.5,1.5-0.8,2.4-0.8c0.2,0,0.5,0,0.7,0.1c0.3,0.1,30,5.7,53.4,5.7c8.9,0,15.7-0.8,20.2-2.4c1.1-0.4,2.4-0.9,3.9-1.4
						c19.8-7.2,72.4-26.4,106.3-26.4c18.9,0,29.6,6,31.9,17.8c1.7,8.8,0.4,15.9-4.2,21.8c-14.2,18.3-59,21-133.2,25.4
						C598.7,1200.4,594.1,1200.5,589.8,1200.5z"/>
					<path class="st1" d="M708.8,1138.9c15,0,26.1,3.9,28.2,14.7c6.6,33.8-38.1,36.9-133.9,42.6c-4.7,0.3-9.2,0.4-13.4,0.4
						c-66.5,0-65.5-33.3-65.5-33.3s30.1,5.8,54.2,5.8c8.4,0,16.1-0.7,21.5-2.6C614.5,1161.3,673,1138.9,708.8,1138.9 M708.9,1131.3
						v7.6V1131.3c-34.5,0-87.6,19.3-107.6,26.6c-1.5,0.6-2.8,1-3.9,1.4c-2.8,1-8.3,2.2-18.9,2.2c-23,0-52.4-5.6-52.7-5.7
						c-0.5-0.1-1-0.1-1.4-0.1c-1.7,0-3.4,0.6-4.8,1.7c-1.7,1.4-2.8,3.5-2.9,5.7c0,1.2-0.1,11.9,10,22.3c12.2,12.6,33.4,19,63.1,19
						c4.4,0,9.1-0.1,13.9-0.4c34-2,66.1-3.9,88.8-7.4c25.6-3.9,39.7-9.7,47.2-19.4c5.2-6.7,6.8-15,4.9-24.8
						C742.7,1142.7,735,1131.3,708.9,1131.3L708.9,1131.3z"/>
				</g>
				<g>
					<path class="st4" d="M598.7,1174.5c20.7-7.4,129.9-49.4,137.1-12.8c0.4,2,0.6,3.8,0.6,5.6c1.4-3.9,1.6-8.4,0.6-13.6
						c-7.2-36.5-116.4,5.4-137.1,12.8c-20.7,7.4-75.6-3.2-75.6-3.2s-0.1,3.7,2.2,8.6C538.8,1174.1,581.1,1180.9,598.7,1174.5z"/>
				</g>
				<g>
					<path class="st12" d="M609.6,1125c-1.1,0-2.1-0.8-2.3-1.9l-3.7-18.3c-0.1-0.7,0-1.5,0.5-2c0.5-0.5,1.1-0.8,1.8-0.8
						c0,0,0.1,0,0.1,0c0,0,0.5,0,1.2,0c6,0,38-1,82.2-21.5c0.3-0.1,0.7-0.2,1-0.2c0.4,0,0.8,0.1,1.1,0.3c0.7,0.3,1.1,1,1.2,1.7
						l2.9,17.8c0.1,0.9-0.2,1.8-1,2.3C693.5,1103.2,662.5,1124.6,609.6,1125C609.6,1125,609.6,1125,609.6,1125z"/>
					<path class="st1" d="M690.5,1082.6l2.9,17.8c0,0-31,21.8-83.7,22.2l-3.7-18.3c0,0,0.5,0,1.3,0
						C614.1,1104.3,646.1,1103.1,690.5,1082.6 M690.5,1077.8c-0.7,0-1.4,0.1-2,0.4c-7.7,3.6-47.6,21.3-81.2,21.3c-0.7,0-1.1,0-1.1,0
						c-0.1,0-0.1,0-0.2,0c-1.4,0-2.7,0.6-3.6,1.7c-1,1.1-1.3,2.6-1,4l3.7,18.3c0.5,2.2,2.4,3.8,4.7,3.8c0,0,0,0,0,0
						c53.6-0.4,85.1-22.2,86.5-23.1c1.5-1.1,2.3-2.9,2-4.7l-2.9-17.8c-0.2-1.5-1.2-2.7-2.5-3.4C692,1078,691.2,1077.8,690.5,1077.8
						L690.5,1077.8z"/>
				</g>
				<g>
					<path class="st4" d="M693.3,1114.3l2.2,13.4c2.3-1.4,3.5-2.2,3.5-2.2l-2.9-17.8c-50.1,23.2-84.5,21.7-84.5,21.7l1.3,6.5
						C623.4,1135.6,653.4,1132.8,693.3,1114.3z"/>
				</g>
				<g>
					<path class="st4" d="M687.6,1089.2l2.2,13.4c2.3-1.4,3.5-2.2,3.5-2.2l-2.9-17.8c-50.1,23.2-84.5,21.7-84.5,21.7l1.3,6.5
						C617.8,1110.5,647.7,1107.7,687.6,1089.2z"/>
				</g>
				<g>
					<path class="st4" d="M687,1069.8c0,0-1.8,1-5.2,2.5l-6.7-23.9c-30.2,8.6-68.2,14.8-82.1,16c0-1.9,0-3.8,0.3-5.7
						c0,0,59.6-12,89.6-20.7L687,1069.8z"/>
				</g>
				<ellipse class="st4" cx="702.6" cy="1155.3" rx="23.5" ry="12.4"/>
			</g>
			<g>
				<g>
					
						<linearGradient id="SVGID_10_" gradientUnits="userSpaceOnUse" x1="12899.627" y1="839.3048" x2="13114.1484" y2="839.3048" gradientTransform="matrix(-0.999 4.465513e-02 4.465513e-02 0.999 13282.9082 -309.4319)">
						<stop  offset="0" style="stop-color:#52FFCE"/>
						<stop  offset="0.9948" style="stop-color:#6700E4"/>
					</linearGradient>
					<path class="st13" d="M335.5,1169.6c-66.4,0-110.7-8.1-111.2-8.2c-1.9-0.4-3.3-2.1-3.1-4.1l8.7-100.4c0.1-1.2,0.8-2.3,1.8-2.9
						c0.6-0.4,1.3-0.6,2-0.6c0.5,0,1,0.1,1.4,0.3c15.6,6.4,75.2,27.2,187.6,27.2c3.9,0,6,0,6,0c0,0,0,0,0.1,0c1.2,0,2.3,0.5,3,1.5
						c0.7,0.9,1,2.2,0.7,3.3l-3,11.6l-15.4,59.4c-0.3,1.3-1.4,2.4-2.7,2.7c-24.3,6.7-48.4,10.1-71.8,10.3
						C338.4,1169.6,337,1169.6,335.5,1169.6C335.5,1169.6,335.5,1169.6,335.5,1169.6z"/>
					<path class="st1" d="M233.7,1057.3c62.9,25.8,163.4,27.5,189.1,27.5c3.9,0,6.1,0,6.1,0l-3,11.6l-15.4,59.4
						c-26.1,7.2-49.8,10-70.8,10.1c-1.4,0-2.8,0-4.3,0c-66.8,0-110.5-8.2-110.5-8.2L233.7,1057.3 M233.7,1049.6
						c-1.4,0-2.8,0.4-4,1.1c-2.1,1.3-3.4,3.4-3.6,5.9l-8.7,100.4c-0.3,3.9,2.3,7.4,6.2,8.2c1.8,0.3,45.1,8.3,111.9,8.3
						c1.4,0,2.9,0,4.3,0c23.6-0.1,48.1-3.6,72.7-10.4c2.6-0.7,4.7-2.8,5.4-5.5l15.4-59.4l3-11.6c0.6-2.3,0.1-4.8-1.4-6.6
						c-1.5-1.8-3.7-2.9-6-2.9c0,0-0.1,0-0.1,0c0,0-2.2,0-6,0c-11.9,0-43.6-0.4-79.8-4c-44.5-4.5-80.3-12.2-106.4-22.9
						C235.7,1049.8,234.7,1049.6,233.7,1049.6L233.7,1049.6z"/>
				</g>
				<polygon class="st1" points="353.7,1080.2 339.8,1165.8 394.7,1158.1 407.4,1079.7 				"/>
				<polygon class="st1" points="412.5,1082.6 398.8,1160.9 410.1,1158.5 422.8,1080.2 				"/>
				<g>
					<path class="st12" d="M333.5,1097c-40.5,0-71.9-10.8-83.5-15.4c-3.5-1.4-5.3-2.3-5.4-2.3c-0.9-0.4-1.4-1.4-1.3-2.4l2.8-31.9
						c0.1-0.7,0.4-1.3,1-1.7c0.4-0.3,0.9-0.5,1.4-0.5c0.2,0,0.4,0,0.6,0.1c29.8,7.1,89.6,16.2,90.2,16.3c1,0.2,1.8,1,2,2
						c0.3,1.9,0.5,3.9,0.5,6c0.3,13.8-4.7,27.6-4.9,28.2c-0.3,0.9-1.2,1.5-2.2,1.6L333.5,1097z"/>
					<path class="st1" d="M248.3,1045.2c30.3,7.2,90.4,16.3,90.4,16.3c0.3,1.9,0.5,3.8,0.5,5.7c0.3,13.5-4.8,27.3-4.8,27.3
						c-0.3,0-0.6,0-0.9,0c-39.9,0-70.8-10.5-82.6-15.2c-3.4-1.4-5.3-2.3-5.3-2.3L248.3,1045.2 M248.3,1040.4c-1,0-2,0.3-2.8,0.9
						c-1.1,0.8-1.8,2.1-2,3.5l-2.8,31.9c-0.2,2,0.9,3.9,2.7,4.7c0.1,0,2,1,5.6,2.4c11.8,4.7,43.5,15.6,84.4,15.6l1,0
						c2,0,3.8-1.2,4.5-3.1c0.2-0.6,5.5-14.8,5.1-29.1c-0.1-2.2-0.2-4.3-0.6-6.3c-0.3-2.1-1.9-3.7-4-4c-0.6-0.1-60.2-9.2-90-16.3
						C249.1,1040.5,248.7,1040.4,248.3,1040.4L248.3,1040.4z"/>
				</g>
				<g>
					<path class="st4" d="M339.2,1067.2c0-1.9-0.2-3.8-0.5-5.7c0,0-60.1-9.2-90.4-16.3l-0.5,6.1c31.4,7,85.3,15.2,85.3,15.2
						c0.3,1.9,0.5,3.8,0.5,5.7c0.2,8.5-1.7,17.1-3.2,22.3c1.3,0,2.6,0,4,0C334.4,1094.6,339.5,1080.8,339.2,1067.2z"/>
				</g>
				<g>
					<path class="st12" d="M339.8,1168.2c-0.7,0-1.3-0.3-1.8-0.8c-0.5-0.5-0.7-1.2-0.6-1.9l7.2-51c0.1-0.7,0.5-1.4,1.2-1.7
						l32.8-18.9c0.4-0.2,0.8-0.3,1.2-0.3c0.1,0,0.1,0,0.2,0c6.7,0.6,15,0.9,24.6,0.9c6.6,0,13.7-0.1,21.2-0.4c0,0,0.1,0,0.1,0
						c0.7,0,1.4,0.3,1.9,0.9c0.5,0.6,0.6,1.4,0.5,2.1l-15.4,59.4c-0.2,0.8-0.9,1.5-1.7,1.7C387,1164.7,363,1168.1,339.8,1168.2
						C339.8,1168.2,339.8,1168.2,339.8,1168.2z"/>
					<path class="st1" d="M379.8,1095.9c7.6,0.7,16.4,0.9,24.8,0.9c7.7,0,15.1-0.2,21.3-0.4l-15.4,59.4c-26.1,7.2-49.8,10-70.8,10.1
						l7.2-51L379.8,1095.9 M379.8,1091.1c-0.8,0-1.7,0.2-2.4,0.6l-32.8,18.9c-1.3,0.7-2.1,2-2.3,3.5l-7.2,51
						c-0.2,1.4,0.2,2.8,1.1,3.8c0.9,1,2.2,1.6,3.6,1.6c0,0,0,0,0,0c23.4-0.1,47.6-3.6,72-10.3c1.6-0.5,2.9-1.8,3.4-3.4l15.4-59.4
						c0.4-1.5,0-3-0.9-4.2c-0.9-1.1-2.3-1.8-3.7-1.8c-0.1,0-0.1,0-0.2,0c-7.4,0.3-14.5,0.4-21.1,0.4c-9.5,0-17.7-0.3-24.4-0.9
						C380.1,1091.1,380,1091.1,379.8,1091.1L379.8,1091.1z"/>
				</g>
				<g>
					<path class="st4" d="M379.8,1095.9l-32.8,18.9l-0.4,2.6L375,1101c14.5,1.3,33.1,1,46.1,0.5l-14.3,55.2c1.2-0.3,2.5-0.6,3.7-1
						l15.4-59.4C412.9,1096.8,394.3,1097.1,379.8,1095.9z"/>
				</g>
				<g>
					<path class="st12" d="M312.7,1154c-48.2,0-77-18-78.2-18.7c-0.8-0.5-1.2-1.4-1.1-2.3l2.2-17.9c0.1-0.7,0.5-1.4,1.2-1.8
						c0.4-0.2,0.8-0.3,1.2-0.3c0.3,0,0.6,0.1,0.9,0.2c39,15.9,68.3,17.6,79.1,17.6c3.3,0,5.2-0.2,5.2-0.2c0.1,0,0.1,0,0.2,0
						c0.7,0,1.3,0.3,1.7,0.8c0.5,0.5,0.7,1.3,0.6,2l-2.9,18.5c-0.2,1.1-1.1,2-2.3,2C317.9,1154,315.3,1154,312.7,1154z"/>
					<path class="st1" d="M238,1115.4c39.1,15.9,68.4,17.8,80,17.8c3.5,0,5.4-0.2,5.4-0.2l-2.9,18.5c-2.6,0.1-5.2,0.2-7.7,0.2
						c-48.1,0-76.9-18.4-76.9-18.4L238,1115.4 M323.3,1133L323.3,1133 M238,1110.6c-0.8,0-1.7,0.2-2.4,0.7c-1.3,0.8-2.1,2.1-2.3,3.5
						l-2.2,17.9c-0.2,1.8,0.6,3.6,2.2,4.6c1.2,0.8,30.5,19.1,79.5,19.1c2.6,0,5.3-0.1,7.9-0.2c2.3-0.1,4.2-1.8,4.5-4l2.9-18.3
						c0.1-0.3,0.1-0.6,0.1-0.9c0-2.6-2.1-4.8-4.7-4.8c0,0,0,0,0,0c0,0-0.1,0-0.1,0c-0.1,0-0.2,0-0.4,0c-0.2,0-2,0.1-4.9,0.1
						c-10.6,0-39.5-1.7-78.2-17.4C239.2,1110.8,238.6,1110.6,238,1110.6L238,1110.6z"/>
				</g>
				<g>
					<path class="st4" d="M238,1115.4l-0.4,3.3c49.9,19.8,83.2,16.8,83.2,16.8l-2.6,16.1c0.7,0,1.4,0,2.1-0.1l2.9-18.5
						C323.3,1133,289,1136.2,238,1115.4z"/>
				</g>
				<g>
					<path class="st1" d="M337.3,1203.2c-0.9,0-1.9,0-2.9,0c-74.3-0.8-119.2-1.3-134.1-18.9c-4.8-5.6-6.4-12.7-5.1-21.6
						c2-12.9,14.1-19.4,36-19.4c33.9,0,83.7,15.5,102.5,21.4c1.5,0.5,2.9,0.9,4,1.2c3.5,1.1,8.3,1.6,14.4,1.6c24,0,58.7-8.4,59-8.5
						c0.3-0.1,0.6-0.1,0.9-0.1c0.8,0,1.6,0.3,2.2,0.7c0.9,0.7,1.5,1.7,1.6,2.8c0,0.4,0.6,10.5-8.7,20.5
						C394.6,1196.4,371.1,1203.2,337.3,1203.2C337.3,1203.2,337.3,1203.2,337.3,1203.2z"/>
					<path class="st1" d="M231.2,1147.1c36.1,0,91.1,18.1,105.3,22.4c4.1,1.3,9.5,1.8,15.5,1.8c24.7,0,59.9-8.6,59.9-8.6
						s2.7,36.7-74.6,36.7c-0.9,0-1.9,0-2.8,0c-95.9-1.1-140.7-2-135.5-36.1C200.8,1151.3,213.8,1147.1,231.2,1147.1 M231.2,1139.5
						c-10.5,0-18.7,1.4-25.1,4.3c-10.5,4.8-13.8,12.6-14.7,18.4c-1.5,9.9,0.5,18.2,5.9,24.6c7.9,9.3,22.3,14.4,48,17.1
						c22.9,2.4,55,2.8,89,3.1c1,0,1.9,0,2.9,0c34.9,0,59.3-7.2,72.5-21.5c10.3-11.1,9.8-22.2,9.7-23.4c-0.2-2.2-1.3-4.3-3.1-5.6
						c-1.3-1-2.9-1.5-4.5-1.5c-0.6,0-1.2,0.1-1.8,0.2c-0.3,0.1-34.6,8.4-58.1,8.4c-7.1,0-11.1-0.8-13.3-1.4
						c-1.1-0.3-2.4-0.7-3.9-1.2C315.9,1155.1,265.6,1139.5,231.2,1139.5L231.2,1139.5z"/>
				</g>
				<g>
					<path class="st4" d="M338.1,1177.5c-21-6.4-131.9-43.1-137.5-6.2c-0.3,2-0.4,3.8-0.4,5.6c-1.6-3.8-2-8.3-1.2-13.5
						c5.6-36.8,116.5-0.2,137.5,6.2s75.4-6.8,75.4-6.8s0.3,3.7-1.8,8.7C397.9,1174.2,355.9,1182.9,338.1,1177.5z"/>
				</g>
				<g>
					<path class="st12" d="M317.3,1128.7c-48.2,0-77-18-78.2-18.7c-0.8-0.5-1.2-1.4-1.1-2.3l2.2-17.9c0.1-0.7,0.5-1.4,1.2-1.8
						c0.4-0.2,0.8-0.3,1.2-0.3c0.3,0,0.6,0.1,0.9,0.2c39,15.9,68.3,17.6,79.1,17.6c3.3,0,5.2-0.2,5.2-0.2c0.1,0,0.1,0,0.2,0
						c0.7,0,1.3,0.3,1.7,0.8c0.5,0.5,0.7,1.3,0.6,2l-2.9,18.5c-0.2,1.1-1.1,2-2.3,2C322.5,1128.6,319.9,1128.7,317.3,1128.7z"/>
					<path class="st1" d="M242.6,1090.1c39.1,15.9,68.4,17.8,80,17.8c3.5,0,5.4-0.2,5.4-0.2l-2.9,18.5c-2.6,0.1-5.2,0.2-7.7,0.2
						c-48.1,0-76.9-18.4-76.9-18.4L242.6,1090.1 M328,1107.7L328,1107.7 M242.6,1085.3c-0.8,0-1.7,0.2-2.4,0.7
						c-1.3,0.8-2.1,2.1-2.3,3.5l-2.2,17.9c-0.2,1.8,0.6,3.6,2.2,4.6c1.2,0.8,30.5,19.1,79.5,19.1c2.6,0,5.3-0.1,7.9-0.2
						c2.3-0.1,4.2-1.8,4.5-4l2.9-18.3c0.1-0.3,0.1-0.6,0.1-0.9c0-2.6-2.1-4.8-4.7-4.8c0,0,0,0,0,0c0,0-0.1,0-0.1,0
						c-0.1,0-0.2,0-0.4,0c-0.2,0-2,0.1-4.9,0.1c-10.6,0-39.5-1.7-78.2-17.4C243.8,1085.4,243.2,1085.3,242.6,1085.3L242.6,1085.3z"
						/>
				</g>
				<g>
					<path class="st4" d="M242.6,1090.1l-0.6,5c48.8,19,81.4,16,81.4,16l-2.4,15.2c1.3,0,2.7-0.1,4.1-0.1l2.9-18.5
						C328,1107.7,293.6,1110.8,242.6,1090.1z"/>
				</g>
				
					<ellipse transform="matrix(0.9987 -5.050633e-02 5.050633e-02 0.9987 -59.2135 20.0743)" class="st4" cx="367.6" cy="1181.7" rx="15.2" ry="8"/>
			</g>
		</g>
		<g>
			<g>
				<path class="st4" d="M442.9,754.7c-52.1,0-100.8-6.8-144.6-20.3c-39.2-12.1-58.1-24.5-58.3-24.6c-31-20.5-47.3-45-47.3-70.7
					l0-0.3c0-19.6-2.2-43.3-8.4-51.3c-36.5-46.9-55.7-102-55.7-159.2c0-74.9,32.8-145.3,92.3-198.2c59.4-52.8,138.3-81.9,222.2-81.9
					c83.9,0,162.8,29.1,222.2,81.9c59.5,52.9,92.3,123.3,92.3,198.2c0,57.2-19.3,112.3-55.7,159.2c-5.2,6.7-8.4,26.4-8.4,51.3v0.3
					c0,33.9-29.2,65.2-82.1,88.1C597.7,733,529.9,754.7,442.9,754.7z"/>
				<path class="st1" d="M442.9,152c171.6,0,310.6,123.7,310.6,276.2c0,58.3-20.3,112.3-54.9,156.9c-9.5,12.2-9.2,50-9.2,54
					c0,33.9-30.8,63.3-79.8,84.6c-10.6,4.6-78.1,27.2-166.7,27.2c-122.9,0-192.9-39-200.9-44.3c-28.7-19-45.6-42.3-45.6-67.5
					c0-4,0.3-41.9-9.2-54c-34.6-44.6-54.9-98.6-54.9-156.9C132.3,275.6,271.4,152,442.9,152 M442.9,144.4
					c-42.9,0-84.4,7.5-123.6,22.2c-37.9,14.2-71.9,34.6-101.1,60.6c-29.3,26-52.3,56.4-68.4,90.2c-16.7,35.1-25.2,72.4-25.2,110.8
					c0,58.1,19.6,113.9,56.5,161.5c4.6,6,7.6,25.2,7.6,49l0,0.3c0,27.1,17,52.6,49.1,73.9c0.2,0.1,19.6,12.9,59.3,25.1
					c44.2,13.6,93.3,20.5,145.8,20.5c87.6,0,156.1-21.9,169.7-27.8c26-11.3,46.4-24.5,60.8-39.3c15.7-16.2,23.7-33.8,23.7-52.4
					l0-0.3c0-23.8,2.9-43,7.6-49c37-47.6,56.5-103.4,56.5-161.5c0-38.4-8.5-75.7-25.1-110.8c-16.1-33.8-39.1-64.2-68.4-90.2
					c-29.2-26-63.3-46.4-101.1-60.6C527.4,151.8,485.8,144.4,442.9,144.4L442.9,144.4z"/>
			</g>
			<g>
				<g>
					<path class="st4" d="M546.8,677.4c0,0,27,25.2,5.5,43.7s-54.9,9-66.2,4.3c-20.4-8.5-83.9-28-83.9-28"/>
					<path class="st1" d="M546.8,677.4c3.4,2.7,6.4,6,9,9.6c2.6,3.6,4.8,7.6,6,12.1c1.2,4.5,1.2,9.5-0.6,14.1
						c-0.9,2.3-2.1,4.4-3.6,6.3c-0.8,0.9-1.5,1.9-2.4,2.7c-0.4,0.4-0.8,0.9-1.3,1.2l-1.3,1.1c-3.6,3-7.7,5.4-12,7.1
						c-4.3,1.8-8.9,2.8-13.4,3.5c-9.1,1.2-18.3,0.4-27.1-1.5c-4.4-1-8.7-2.2-13-3.8l-1.6-0.6l-1.6-0.6l-2.9-1.2l-6-2.3
						c-8-3.1-16.2-6-24.3-9c-16.3-6-32.6-12-48.7-18.7c17.1,3.6,33.9,8.1,50.6,12.9c8.4,2.5,16.7,5.1,24.9,7.9
						c2.1,0.7,4.1,1.5,6.2,2.3l3.1,1.2l1.5,0.6l1.4,0.5c3.9,1.4,7.9,2.6,12,3.4c4.1,0.9,8.2,1.5,12.3,1.8c4.1,0.3,8.3,0.3,12.3-0.1
						c4.1-0.4,8.1-1.2,11.9-2.6c3.8-1.4,7.4-3.2,10.7-5.6l1.2-0.9c0.4-0.3,0.7-0.6,1.1-1c0.8-0.6,1.4-1.3,2.1-2
						c1.3-1.5,2.4-3,3.2-4.7c1.7-3.4,2.2-7.4,1.5-11.4c-0.6-4-2.2-8-4.2-11.7c-1-1.9-2.1-3.7-3.3-5.5
						C549.5,680.8,548.2,679.1,546.8,677.4z"/>
				</g>
				<g>
					<path class="st4" d="M330.2,634.5c0,0,16.1,15.9,35.3,15.9c24.4,0,107.1,2.4,133.2,2.4c14,0,47.6-12.3,52.7-18.4
						c0,0-15.1,47.6-73.5,41.6c-54.4-5.5-81.7-5.7-112.5-10.5S330.2,634.5,330.2,634.5z"/>
					<path class="st1" d="M330.1,634.2c0.1,0,0.4,0,0.6,0.2l0.2,0.2l0.3,0.3l0.7,0.5c0.5,0.4,1,0.7,1.4,1.1c1,0.7,2,1.3,2.9,2
						c2,1.3,4,2.5,6.1,3.6c4.1,2.2,8.5,3.9,12.9,5c1.1,0.3,2.2,0.4,3.4,0.7c1.1,0.2,2.2,0.2,3.4,0.4c1.1,0,2.2,0,3.4,0.1l3.6-0.1
						c4.8-0.1,9.6-0.2,14.4-0.2c9.6,0,19.1,0,28.7,0.1c9.6,0.1,19.1,0.3,28.7,0.7c4.8,0.2,9.5,0.4,14.3,0.7l14.3,0.8
						c9.5,0.6,19.1,1.1,28.6,1.4c4.6,0.2,9.3-0.7,13.9-1.7c4.6-1.1,9.2-2.4,13.7-4c2.2-0.8,4.5-1.6,6.7-2.5c2.2-0.9,4.4-1.8,6.5-2.8
						c2.1-1,4.3-2,6.3-3.2c1-0.6,2-1.2,2.9-1.8c0.9-0.6,1.8-1.4,2.3-2c0.6-0.7,1.6-0.8,2.4-0.3c0.6,0.4,0.8,1.2,0.6,1.8l0,0
						c-0.9,2.7-1.9,5.2-3.1,7.7c-1.2,2.5-2.6,4.8-4,7.1c-3,4.6-6.5,8.9-10.5,12.7c-4,3.8-8.6,7.1-13.5,9.7
						c-4.9,2.6-10.2,4.6-15.6,5.9c-5.4,1.3-10.9,2.1-16.5,2.2c-1.4,0.1-2.8,0.1-4.1,0c-1.4,0-2.8,0-4.1-0.1l-4.1-0.3l-4-0.3L442,677
						c-10.5-0.9-21.1-1.8-31.7-2.7c-10.6-1-21.2-2.1-31.7-3.7c-2.6-0.4-5.3-0.8-7.9-1.3c-2.6-0.5-5.2-0.9-8-1.5
						c-2.7-0.7-5.4-1.5-7.9-2.5c-2.6-1.1-5-2.4-7.4-3.9c-4.7-3-8.6-7.1-11.6-11.7c-1.5-2.3-2.7-4.7-3.7-7.2
						c-0.5-1.3-0.9-2.5-1.3-3.8c-0.2-0.7-0.3-1.3-0.5-2l-0.2-1l-0.1-0.5l0-0.3l0-0.1l0-0.1C329.9,634.4,330,634.2,330.1,634.2z
						 M330.4,634.8c0.1,0,0.2-0.2,0.2-0.3c0-0.1,0,0,0,0l0,0.1l0.1,0.2l0.1,0.5l0.3,0.9c0.2,0.6,0.5,1.2,0.7,1.8
						c0.5,1.2,1.1,2.4,1.7,3.5c1.2,2.3,2.7,4.5,4.3,6.5c3.2,4,7.2,7.3,11.6,9.7c4.4,2.4,9.3,4,14.3,4.8c2.4,0.4,5.1,0.6,7.7,1
						c2.6,0.3,5.2,0.6,7.9,0.8c10.5,1,21,1.7,31.6,2.3c10.6,0.6,21.2,1.3,31.7,2.1c10.6,0.8,21.2,1.9,31.7,3.1l4,0.4l3.8,0.3
						c1.3,0.1,2.5,0.2,3.8,0.2c1.3,0,2.5,0.1,3.8,0.1c5.1,0,10.1-0.5,15.1-1.6c9.8-2.1,19.2-6.5,27-13c3.9-3.2,7.5-7,10.5-11.1
						c1.5-2.1,3-4.2,4.2-6.4c1.3-2.2,2.5-4.6,3.3-6.9l2.9,1.6c-1,1.1-2.1,1.8-3.2,2.5c-1.1,0.7-2.2,1.3-3.2,1.8
						c-2.2,1.1-4.4,2.1-6.6,3.1c-4.5,1.9-9,3.5-13.5,5c-2.3,0.8-4.6,1.5-6.9,2.1c-2.3,0.7-4.6,1.3-7,1.9c-2.3,0.6-4.7,1.1-7.1,1.5
						c-2.4,0.4-4.9,0.7-7.3,0.7c-19.2,0.3-38.3,1-57.4,0.9c-9.6,0-19.1-0.3-28.7-0.6c-4.8-0.2-9.6-0.3-14.3-0.5l-14.3-0.6l-14.3-0.6
						l-3.6-0.1c-1.3-0.1-2.5-0.2-3.8-0.3c-1.2-0.2-2.5-0.4-3.7-0.7c-1.2-0.3-2.4-0.6-3.6-1c-4.8-1.5-9.1-3.9-13.2-6.6
						c-2-1.3-4-2.8-5.8-4.4c-0.9-0.8-1.8-1.6-2.7-2.4c-0.4-0.4-0.9-0.8-1.3-1.3l-0.6-0.7l-0.3-0.3c0,0-0.1-0.1-0.1-0.1
						C330.2,635,330.4,635,330.4,634.8z"/>
				</g>
				<path class="st1" d="M509.2,662.2l9.2-12.6l33.1-15.1c0,0-11.1,35-42.3,38.3V662.2z"/>
				<path class="st1" d="M367.3,658.1l-1.8-7.6c0,0-28.2-5.9-35.3-15.9c0,0,7.3,27.7,30.6,30.2L367.3,658.1z"/>
			</g>
			<polygon class="st1" points="247.9,498.9 207,485.6 207,463.6 271.9,480.5 			"/>
			<polygon class="st1" points="503.4,533.3 445.3,543.8 374.7,533.3 371.7,504.9 440.9,525.6 507.4,507.3 			"/>
			<path class="st1" d="M671.6,515.1c0,0-27.6-13.8-37.3-12.9c0,0-29.2-21-30.6-19.9c-1.4,1.1,64.9-11.2,64.9-11.2L671.6,515.1z"/>
			<linearGradient id="SVGID_11_" gradientUnits="userSpaceOnUse" x1="261.6586" y1="513.1176" x2="632.0678" y2="513.1176">
				<stop  offset="0" style="stop-color:#52FFCE"/>
				<stop  offset="0.9948" style="stop-color:#6700E4"/>
			</linearGradient>
			<path class="st14" d="M503,546.8c0,0,37.4-24.7,125.8-45.8c0,0-10.6-32.2-68.1-17.8C503.1,497.6,503,546.8,503,546.8z"/>
			<linearGradient id="SVGID_12_" gradientUnits="userSpaceOnUse" x1="253.632" y1="512.971" x2="611.5859" y2="512.971">
				<stop  offset="0" style="stop-color:#52FFCE"/>
				<stop  offset="1" style="stop-color:#6700E4"/>
			</linearGradient>
			<path class="st15" d="M376.6,546.8c0,0-41.2-28.9-122.2-49c0,0,7-29.1,64.5-14.6S376.6,546.8,376.6,546.8z"/>
			<g>
				<linearGradient id="SVGID_13_" gradientUnits="userSpaceOnUse" x1="93.6225" y1="385.2778" x2="769.8181" y2="385.2778">
					<stop  offset="0" style="stop-color:#52FFCE"/>
					<stop  offset="0.9948" style="stop-color:#6700E4"/>
				</linearGradient>
				<path class="st16" d="M442.9,522.2c-0.3,0-0.6,0-0.9-0.1l-274-70c-0.7-0.2-1.3-0.6-1.8-1.1l-71.5-76.5c-1.1-1.1-1.3-2.8-0.7-4.2
					l46.6-101.6c0.6-1.3,1.9-2.2,3.3-2.2c0,0,541.9-18,541.9-18c1,0,2,0.4,2.8,1.2l80.1,83.7c0.8,0.8,1.2,2,1,3.1l-12.4,106
					c-0.2,1.6-1.3,2.9-2.9,3.3l-310.6,76.4C443.6,522.1,443.2,522.2,442.9,522.2z"/>
				<path class="st1" d="M685.9,252.2l80.1,83.7l-12.4,106l-164,40.3l-52.9,13l-35.9,8.8l-44.4,10.9l-13.4,3.3l-274-70l-71.5-76.5
					l46.6-101.6L685.9,252.2 M685.9,244.6c-0.1,0-0.2,0-0.3,0l-541.8,18c-2.9,0.1-5.5,1.8-6.7,4.4L90.5,368.6
					c-1.3,2.8-0.8,6.1,1.4,8.4l71.5,76.5c1,1.1,2.3,1.8,3.7,2.2l274,70c0.6,0.2,1.3,0.2,1.9,0.2c0.6,0,1.2-0.1,1.8-0.2l13.4-3.3
					l44.4-10.9l35.9-8.8l52.9-13l164-40.3c3.1-0.8,5.4-3.4,5.8-6.5l12.4-106c0.3-2.3-0.5-4.5-2.1-6.2l-80.1-83.7
					C689.9,245.4,687.9,244.6,685.9,244.6L685.9,244.6z"/>
			</g>
			<path class="st1" d="M656.7,444c0,0-26.1-19-40.9-17.9c-14.8,1.1-141.9,66.8-141.9,66.8s-11.2-1.7-19.7-3.1
				c-5.6-0.9-9.5,5.4-6,9.9c8.5,10.9,24.7,22.6,55.4,22.3L656.7,444z"/>
			<path class="st1" d="M188.8,407.1l9.7-26.7c0,0,162.9,56.9,242.4,60.6c0,0,197-35.7,256.9-62.4l7.7,33l12.6-19.9l-13.3-35.1
				c0,0-185,51.6-259.5,56.9c0,0-191.2-25-263.6-61.6L160,378.7L188.8,407.1z"/>
			<g>
				<path class="st1" d="M576.8,481.3c31.6,0,60.3,21.6,67.9,53.8c8.9,37.5-20.6,48.6-58.1,57.5c-13.8,3.3-26.8,5.8-38.1,5.8
					c-19.5,0-34-7.4-39.7-31.1c-8.9-37.5,14.3-75.2,51.9-84C566,481.9,571.4,481.3,576.8,481.3 M576.8,473.6v7.6V473.6
					c-6,0-12,0.7-17.9,2.1c-20.1,4.8-37.2,17.1-48.1,34.7s-14.2,38.4-9.5,58.5c3.1,13.1,9,22.8,17.6,28.9c7.7,5.4,17.3,8.1,29.4,8.1
					c12.8,0,27.4-3,39.9-6c31-7.3,42.1-13.7,49.4-19.4c14.3-11.2,19.2-27.1,14.4-47.3c-4-17.1-13.9-32.4-27.7-43.2
					C610.8,479.5,593.9,473.6,576.8,473.6L576.8,473.6z"/>
			</g>
			<g>
				<path class="st1" d="M303,481.3c5.3,0,10.7,0.6,16.1,1.9c37.5,8.9,60.8,46.5,51.9,84c-5.6,23.7-20.2,31.1-39.7,31.1
					c-11.3,0-24.3-2.5-38.1-5.8c-37.5-8.9-67-20-58.1-57.5C242.8,502.9,271.4,481.3,303,481.3 M303,473.6
					c-17.1,0-34.1,5.8-47.7,16.5c-13.8,10.8-23.6,26.1-27.7,43.2c-4.8,20.2,0.1,36.1,14.4,47.3c7.4,5.8,18.4,12.1,49.4,19.4
					c12.5,3,27,6,39.9,6c12.2,0,21.8-2.6,29.4-8.1c8.6-6.1,14.6-15.9,17.6-28.9c9.8-41.6-16-83.4-57.5-93.2
					C315.1,474.3,309,473.6,303,473.6L303,473.6z"/>
			</g>
			<polygon class="st1" points="647.2,350.5 603.7,482.3 550.9,495.3 603.3,336.1 			"/>
			<polygon class="st4" points="633,350.5 589.5,482.3 536.7,495.3 589.1,336.1 			"/>
			<polygon class="st1" points="566.9,353.5 517.3,504.1 472.9,515.1 530.1,341.4 			"/>
			<polygon class="st4" points="550.4,353.5 500.7,504.1 456.4,515.1 513.6,341.4 			"/>
			<g>
				<linearGradient id="SVGID_14_" gradientUnits="userSpaceOnUse" x1="97.4102" y1="408.8796" x2="788.4814" y2="408.8796">
					<stop  offset="5.181347e-03" style="stop-color:#6700E4"/>
					<stop  offset="1" style="stop-color:#52FFCE"/>
				</linearGradient>
				<path class="st17" d="M310.8,767.5c-0.3,0-0.5,0-0.8-0.1l-17.6-3.6c-0.3-0.1-0.6-0.2-0.9-0.3c-59.2-28.4-108.4-75.2-142.5-135.3
					c-33.8-59.6-51.6-130.6-51.6-205.3c0-99.5,35.9-193,101.1-263.4c31.7-34.2,68.7-61.1,109.8-79.9c42.6-19.5,87.9-29.3,134.6-29.3
					s92,9.9,134.6,29.3c41.2,18.8,78.1,45.7,109.8,79.9c65.2,70.4,101.1,163.9,101.1,263.4c0,75-17.4,146-50.4,205.3
					c-33.5,60.2-82.4,107-141.3,135.3c-0.4,0.2-0.8,0.3-1.2,0.4l-23.1,2.5c-0.1,0-0.3,0-0.4,0c-0.8,0-1.7-0.3-2.3-0.8L518,726.1
					c-1.6-1.2-2-3.4-0.9-5.1l44.9-70c0.5-0.8,1.2-1.3,2.1-1.6c26.2-7.9,47.7-23.7,63.7-46.8c13-18.7,22.5-42.2,28.4-69.8
					c10.1-47.4,5.8-91,5.8-91.4c-0.2-1.5,0.6-3,1.9-3.7c32-18.2,50.7-41,55.1-46.8l-12.7-47.1c-133.5,59.7-261.8,73.4-263,73.5
					c-0.1,0-0.3,0-0.4,0c-0.1,0-0.3,0-0.4,0c-1.3-0.1-130.6-13.8-264.1-73.5l-12.7,47c3.4,4,15.8,16.6,46,33.7
					c1.4,0.8,2.2,2.4,1.9,4c-0.1,0.4-7.7,42,1,89.1c5.1,27.5,14.6,51.4,28.3,71.1c17.1,24.6,40.9,42.7,70.7,54c0.9,0.3,1.6,1,2,1.8
					l42.1,79.1c0.8,1.6,0.5,3.5-0.8,4.7l-43.5,38.3C312.7,767.1,311.8,767.5,310.8,767.5z"/>
				<path class="st1" d="M442.9,54.1c188.7,0,341.7,165.1,341.7,368.8c0,150.4-70,279.7-189.6,337.1l-23.1,2.5L520.3,723l44.9-70
					C683.8,617.2,665.9,441,665.9,441c38.1-21.6,57.4-49.3,57.4-49.3l-14.4-53.3c-136,61.7-266,75-266,75s-131.1-13.3-267-75
					l-14.4,53.3c0,0,10.2,14.5,48.3,36.1c0,0-31.7,168,102.4,218.5l42.1,79.1l-43.5,38.3l-17.6-3.6c-119.6-57.4-192-186.7-192-337.1
					C101.2,219.2,254.2,54.1,442.9,54.1 M442.9,46.5c-47.2,0-93.1,10-136.2,29.7c-41.6,19-79,46.2-111,80.8
					c-32,34.6-57.2,74.8-74.7,119.6c-18.2,46.4-27.4,95.6-27.4,146.3c0,75.4,18,147,52.1,207.2c34.4,60.8,84.3,108.1,144.2,136.8
					c0.6,0.3,1.2,0.5,1.8,0.6l17.6,3.6c0.5,0.1,1,0.2,1.5,0.2c1.8,0,3.6-0.7,5-1.9l43.5-38.3c2.7-2.3,3.4-6.2,1.7-9.3L319,642.7
					c-0.9-1.6-2.3-2.9-4-3.6c-29.1-11-52.3-28.7-69-52.7c-13.4-19.3-22.7-42.8-27.7-69.8c-8.5-46.4-1-87.1-0.9-87.5
					c0.6-3.2-0.9-6.4-3.7-8.1c-26.6-15.1-39-26.6-43.6-31.4l11-40.7c39.6,17.4,100.5,40.3,177.8,57.5c49.6,11,82.1,14.4,83.4,14.5
					c0.3,0,0.5,0,0.8,0c0.3,0,0.5,0,0.8,0c1.3-0.1,33.5-3.5,82.9-14.5c43.7-9.8,109.3-27.6,177.3-57.5l11.1,41
					c-5.8,7.3-23.7,27.8-52.8,44.3c-2.6,1.5-4.1,4.4-3.8,7.4c0,0.4,4.3,43.7-5.8,90.6c-5.8,27.1-15.2,50.1-27.9,68.3
					c-15.6,22.3-36.3,37.5-61.6,45.1c-1.7,0.5-3.2,1.7-4.2,3.2l-44.9,70c-2.1,3.3-1.4,7.8,1.8,10.2l51.6,39.5c1.3,1,3,1.6,4.6,1.6
					c0.3,0,0.5,0,0.8,0l23.1-2.5c0.9-0.1,1.7-0.3,2.5-0.7c59.7-28.6,109.1-76,143-136.9c33.3-59.9,50.9-131.5,50.9-207.1
					c0-50.7-9.2-100-27.4-146.3c-17.6-44.8-42.7-85.1-74.7-119.6c-32.1-34.6-69.4-61.8-111-80.8C536,56.4,490.2,46.5,442.9,46.5
					L442.9,46.5z"/>
			</g>
			<polygon class="st1" points="337.8,722.2 355.5,725.4 312,763.7 294.4,760 			"/>
			<polygon class="st1" points="517.9,723 538.6,721.8 592.7,760 569.5,762.5 			"/>
			<g>
				<path class="st4" d="M597.4,763.8c-0.8,0-1.6-0.2-2.2-0.7L541.1,725c-1.7-1.2-2.1-3.5-1-5.2l39.6-59.3c0.5-0.7,1.2-1.3,2.1-1.5
					c25.2-7.8,46.1-23.4,62.1-46.4c12.9-18.6,22.7-42.1,29-69.8c10.9-47.5,8-91.4,7.9-91.9c-0.1-1.5,0.7-2.9,2-3.7
					c35.3-18.6,56.4-49.2,60.9-56l-13.8-47.5c-144.2,59.9-282.8,73.5-284.2,73.7c-0.1,0-0.2,0-0.4,0c-0.1,0-0.2,0-0.4,0
					c-1.4-0.1-141.2-13.8-285.4-73.7l-13.7,47.1c4.4,4.6,19.5,19.8,48.9,39.7c1.2,0.8,1.8,2.2,1.7,3.6c0,0.5-4.8,46.6,6.6,96.7
					c6.7,29.3,17.4,54.2,32,74c18.1,24.6,42.3,41.6,71.8,50.3c1,0.3,1.8,1,2.3,1.9l33.2,63.5c0.8,1.6,0.5,3.5-0.9,4.6l-43.4,37.9
					c-0.7,0.6-1.6,0.9-2.5,0.9c-0.1,0-0.3,0-0.4,0c-36.9-3.6-96.3-25.5-122.6-50.9c-2.1-2-4-4.1-5.7-6.2
					c-28.9-36.2-51.8-78.4-68-125.5c-17.3-50.3-26.1-103.5-26.1-158.2c0-50.3,9.9-99.1,29.3-145c18.8-44.4,45.6-84.2,79.9-118.4
					c34.2-34.2,74.1-61.1,118.4-79.9c45.9-19.4,94.7-29.3,145-29.3s99.1,9.9,145,29.3c44.4,18.8,84.2,45.6,118.4,79.9
					c34.2,34.2,61.1,74.1,79.9,118.4c19.4,45.9,29.3,94.7,29.3,145c0,49.7-7.7,98.3-22.9,144.7c-13.8,42.2-33.9,82.6-59.6,119.8
					c-4.4,6.4-9.1,12.9-13.9,19.2c-12.5,16.4-36.7,28.9-54.7,36.6c-21,8.9-46,16.4-68.7,20.6C597.9,763.8,597.7,763.8,597.4,763.8z"
					/>
				<g>
					<path class="st1" d="M445.3,54.1c203.7,0,368.8,165.1,368.8,368.8c0,103.2-33.3,191.9-81.8,262.3c-4.5,6.5-9.1,12.9-13.8,19
						c-21,27.6-80.4,48.2-121.1,55.7l-54.1-38.2l39.6-59.3c114.4-35.2,101.7-212.1,101.7-212.1c41.1-21.6,63.2-58.8,63.2-58.8
						l-15.5-53.3c-146.8,61.7-287,75-287,75s-141.4-13.3-288.2-75l-15.5,53.3c0,0,14.7,17.2,51,41.9c0,0-20,185.8,113.2,225.1
						l33.2,63.5L295.6,760c-36.5-3.6-94.7-25-120.3-49.9c-2-1.9-3.8-3.9-5.4-5.9C114.5,635,76.5,535.7,76.5,422.9
						C76.5,219.2,241.6,54.1,445.3,54.1 M445.3,46.5c-50.8,0-100.1,10-146.5,29.6c-44.8,19-85.1,46.1-119.7,80.7
						c-34.6,34.6-61.7,74.8-80.7,119.7c-19.6,46.4-29.6,95.7-29.6,146.5c0,55.2,8.9,108.8,26.3,159.5
						c16.4,47.5,39.5,90.1,68.7,126.6c1.8,2.3,3.9,4.5,6.1,6.6c12.5,12.2,33.3,24.4,58.5,34.5c23.1,9.2,47.3,15.6,66.3,17.5
						c0.3,0,0.5,0,0.8,0c1.8,0,3.6-0.7,5-1.9l43.4-37.9c2.7-2.3,3.4-6.2,1.7-9.3l-33.2-63.5c-1-1.8-2.6-3.2-4.6-3.8
						c-28.7-8.5-52.2-25-69.9-49c-14.3-19.5-24.8-43.9-31.4-72.7c-11.2-49.5-6.6-94.8-6.5-95.3c0.3-2.8-1-5.6-3.3-7.1
						c-26.3-17.9-41.1-31.8-46.7-37.6l11.9-40.9c42.6,17.4,108.7,40.6,192.7,57.8c53.5,11,88.4,14.4,89.9,14.5c0.2,0,0.5,0,0.7,0
						c0.2,0,0.5,0,0.7,0c1.4-0.1,36.1-3.5,89.3-14.5c47.4-9.8,118.5-27.7,192.1-57.8l12.2,41.7c-5.8,8.7-26.1,36.2-58.5,53.2
						c-2.7,1.4-4.3,4.3-4.1,7.3c0,0.4,2.9,43.9-7.9,90.9c-6.3,27.2-15.8,50.2-28.5,68.4c-15.5,22.3-35.7,37.4-60,44.9
						c-1.7,0.5-3.1,1.6-4.1,3.1l-39.6,59.3c-2.3,3.4-1.4,8.1,1.9,10.5l54.1,38.2c1.3,0.9,2.8,1.4,4.4,1.4c0.5,0,0.9,0,1.4-0.1
						c23-4.3,48.3-11.9,69.5-20.9c26.9-11.4,45.8-24.1,56.3-37.8c4.9-6.4,9.6-12.9,14-19.3c25.9-37.6,46.1-78.2,60-120.8
						C814,522,821.8,473,821.8,422.9c0-50.8-10-100.1-29.6-146.5c-19-44.8-46.1-85.1-80.7-119.7C676.9,122.1,636.7,95,591.8,76
						C545.4,56.4,496.1,46.5,445.3,46.5L445.3,46.5z"/>
				</g>
			</g>
			<linearGradient id="SVGID_15_" gradientUnits="userSpaceOnUse" x1="74.1447" y1="411.5084" x2="798.1648" y2="411.5084">
				<stop  offset="0" style="stop-color:#52FFCE"/>
				<stop  offset="0.9948" style="stop-color:#6700E4"/>
			</linearGradient>
			<path class="st18" d="M798.2,427.1c0,100.9-32.3,187.6-79.5,256.6c-4.7,6.8-9.5,13.5-14.4,20c-19.7,25.8-73.4,45.3-113,53.6
				l-41.2-29l-9.1-6.4l39.6-59.3c114.4-35.2,101.7-212.1,101.7-212.1c41.1-21.6,63.2-58.8,63.2-58.8L730,338.4
				c-146.8,61.7-287,75-287,75s-141.4-13.3-288.2-75l-1.7,5.9c-0.2-0.1-0.5-0.2-0.7-0.3L137,396.4c0,0,9.7,10.7,46.6,40
				c0,0-20.8,187.4,110.1,226.1l30.3,58.9l-35.5,37.2c-13.1-1.3-29-4.9-45.1-10.2c-30.9-10.5-62-26.8-75.8-44.1
				C112.2,635,74.1,535.7,74.1,422.9c0-27.4,3-54.2,8.7-79.9C120.8,183.3,264.3,64.5,435.6,64.5C635.8,64.5,798.2,226.8,798.2,427.1
				z"/>
			<path class="st1" d="M235.8,151.6c0,0-51.8,155.7,45.9,238.1l44.1-272.4L235.8,151.6z"/>
			<g>
				<g>
					<path class="st1" d="M741.4,324.4c0.4,2.7,0.6,5.1,0.8,7.7c0.2,2.5,0.3,5,0.5,7.5c0.2,2.5,0.1,5,0.2,7.5c0,1.2,0.1,2.5,0.1,3.7
						l0,3.7c0,2.5,0,5-0.1,7.5l-0.3,7.5c-0.1,5-0.6,9.9-1,14.9c-1.6,19.8-4.7,39.4-8.6,58.7l-3.2,14.5l-0.8,3.6l-0.9,3.6l-1.9,7.2
						l-1.9,7.2l-0.9,3.6l-1.1,3.5l-4.3,14.2c-0.7,2.4-1.4,4.7-2.2,7.1l-2.4,7l-4.8,14c-0.8,2.3-1.7,4.6-2.6,6.9l-2.7,6.9l-5.4,13.7
						l4.8-13.9l2.4-7c0.8-2.3,1.7-4.6,2.3-7l4.3-14.1l2.1-7.1c0.7-2.3,1.3-4.7,1.9-7.1l3.7-14.3l0.9-3.6l0.8-3.6l1.6-7.2l1.6-7.2
						l0.8-3.6l0.7-3.6l2.6-14.5c3.1-19.3,5.3-38.8,6.2-58.3c0.1-4.9,0.4-9.7,0.4-14.6l0-7.3c0-2.4-0.1-4.9-0.2-7.3l-0.1-3.6
						c0-1.2-0.1-2.4-0.2-3.6c-0.2-2.4-0.3-4.8-0.5-7.2c-0.2-2.4-0.4-4.8-0.7-7.2c-0.2-1.2-0.3-2.4-0.5-3.6c-0.2-1.1-0.4-2.4-0.5-3.4
						l0-0.1c-0.5-2.6,1.2-5.1,3.8-5.6c2.6-0.5,5.1,1.2,5.6,3.8C741.4,324.2,741.4,324.3,741.4,324.4z"/>
				</g>
				<g>
					<path class="st1" d="M751.9,337.7c0.4,2.7,0.6,5.1,0.8,7.7c0.2,2.5,0.3,5,0.5,7.5c0.2,2.5,0.1,5,0.2,7.5c0,1.2,0.1,2.5,0.1,3.7
						l0,3.7c0,2.5,0,5-0.1,7.5l-0.3,7.5c-0.1,5-0.6,9.9-1,14.9c-1.6,19.8-4.7,39.4-8.6,58.7l-3.2,14.5l-0.8,3.6l-0.9,3.6l-1.9,7.2
						l-1.9,7.2l-0.9,3.6l-1.1,3.5l-4.3,14.2c-0.7,2.4-1.4,4.7-2.2,7.1l-2.4,7l-4.8,14c-0.8,2.3-1.7,4.6-2.6,6.9l-2.7,6.9l-5.4,13.7
						l4.8-13.9l2.4-7c0.8-2.3,1.7-4.6,2.3-7l4.3-14.1l2.1-7.1c0.7-2.3,1.3-4.7,1.9-7.1l3.7-14.3l0.9-3.6l0.8-3.6l1.6-7.2l1.6-7.2
						l0.8-3.6l0.7-3.6l2.6-14.5c3.1-19.3,5.3-38.8,6.2-58.3c0.1-4.9,0.4-9.7,0.4-14.6l0-7.3c0-2.4-0.1-4.9-0.2-7.3l-0.1-3.6
						c0-1.2-0.1-2.4-0.2-3.6c-0.2-2.4-0.3-4.8-0.5-7.2c-0.2-2.4-0.4-4.8-0.7-7.2c-0.2-1.2-0.3-2.4-0.5-3.6c-0.2-1.1-0.4-2.4-0.5-3.4
						l0-0.1c-0.5-2.6,1.2-5.1,3.8-5.6c2.6-0.5,5.1,1.2,5.6,3.8C751.8,337.5,751.9,337.6,751.9,337.7z"/>
				</g>
				<g>
					<path class="st1" d="M762.3,351c0.4,2.7,0.6,5.1,0.8,7.7c0.2,2.5,0.3,5,0.5,7.5c0.2,2.5,0.1,5,0.2,7.5c0,1.2,0.1,2.5,0.1,3.7
						l0,3.7c0,2.5,0,5-0.1,7.5l-0.3,7.5c-0.1,5-0.6,9.9-1,14.9c-1.6,19.8-4.7,39.4-8.6,58.7l-3.2,14.5l-0.8,3.6l-0.9,3.6l-1.9,7.2
						l-1.9,7.2l-0.9,3.6l-1.1,3.5l-4.3,14.2c-0.7,2.4-1.4,4.7-2.2,7.1l-2.4,7l-4.8,14c-0.8,2.3-1.7,4.6-2.6,6.9l-2.7,6.9l-5.4,13.7
						l4.8-13.9l2.4-7c0.8-2.3,1.7-4.6,2.3-7l4.3-14.1l2.1-7.1c0.7-2.3,1.3-4.7,1.9-7.1l3.7-14.3l0.9-3.6l0.8-3.6l1.6-7.2l1.6-7.2
						l0.8-3.6l0.7-3.6l2.6-14.5c3.1-19.3,5.3-38.8,6.2-58.3c0.1-4.9,0.4-9.7,0.4-14.6l0-7.3c0-2.4-0.1-4.9-0.2-7.3l-0.1-3.6
						c0-1.2-0.1-2.4-0.2-3.6c-0.2-2.4-0.3-4.8-0.5-7.2c-0.2-2.4-0.4-4.8-0.7-7.2c-0.2-1.2-0.3-2.4-0.5-3.6c-0.2-1.1-0.4-2.4-0.5-3.4
						l0-0.1c-0.5-2.6,1.2-5.1,3.8-5.6c2.6-0.5,5.1,1.2,5.6,3.8C762.3,350.9,762.3,351,762.3,351z"/>
				</g>
				<g>
					<path class="st1" d="M772.8,364.4c0.4,2.7,0.6,5.1,0.8,7.7c0.2,2.5,0.3,5,0.5,7.5c0.2,2.5,0.1,5,0.2,7.5c0,1.2,0.1,2.5,0.1,3.7
						l0,3.7c0,2.5,0,5-0.1,7.5l-0.3,7.5c-0.1,5-0.6,9.9-1,14.9c-1.6,19.8-4.7,39.4-8.6,58.7l-3.2,14.5l-0.8,3.6l-0.9,3.6l-1.9,7.2
						l-1.9,7.2l-0.9,3.6l-1.1,3.5l-4.3,14.2c-0.7,2.4-1.4,4.7-2.2,7.1l-2.4,7l-4.8,14c-0.8,2.3-1.7,4.6-2.6,6.9l-2.7,6.9l-5.4,13.7
						l4.8-13.9l2.4-7c0.8-2.3,1.7-4.6,2.3-7l4.3-14.1l2.1-7.1c0.7-2.3,1.3-4.7,1.9-7.1l3.7-14.3l0.9-3.6l0.8-3.6l1.6-7.2l1.6-7.2
						l0.8-3.6l0.7-3.6l2.6-14.5c3.1-19.3,5.3-38.8,6.2-58.3c0.1-4.9,0.4-9.7,0.4-14.6l0-7.3c0-2.4-0.1-4.9-0.2-7.3l-0.1-3.6
						c0-1.2-0.1-2.4-0.2-3.6c-0.2-2.4-0.3-4.8-0.5-7.2c-0.2-2.4-0.4-4.8-0.7-7.2c-0.2-1.2-0.3-2.4-0.5-3.6c-0.2-1.1-0.4-2.4-0.5-3.4
						l0-0.1c-0.5-2.6,1.2-5.1,3.8-5.6c2.6-0.5,5.1,1.2,5.6,3.8C772.8,364.2,772.8,364.3,772.8,364.4z"/>
				</g>
				<g>
					<path class="st1" d="M783.2,377.7c0.4,2.7,0.6,5.1,0.8,7.7c0.2,2.5,0.3,5,0.5,7.5c0.2,2.5,0.1,5,0.2,7.5c0,1.2,0.1,2.5,0.1,3.7
						l0,3.7c0,2.5,0,5-0.1,7.5l-0.3,7.5c-0.1,5-0.6,9.9-1,14.9c-1.6,19.8-4.7,39.4-8.6,58.7l-3.2,14.5l-0.8,3.6l-0.9,3.6l-1.9,7.2
						l-1.9,7.2l-0.9,3.6l-1.1,3.5l-4.3,14.2c-0.7,2.4-1.4,4.7-2.2,7.1l-2.4,7l-4.8,14c-0.8,2.3-1.7,4.6-2.6,6.9l-2.7,6.9l-5.4,13.7
						l4.8-13.9l2.4-7c0.8-2.3,1.7-4.6,2.3-7l4.3-14.1l2.1-7.1c0.7-2.3,1.3-4.7,1.9-7.1l3.7-14.3l0.9-3.6l0.8-3.6l1.6-7.2l1.6-7.2
						l0.8-3.6l0.7-3.6l2.6-14.5c3.1-19.3,5.3-38.8,6.2-58.3c0.1-4.9,0.4-9.7,0.4-14.6l0-7.3c0-2.4-0.1-4.9-0.2-7.3l-0.1-3.6
						c0-1.2-0.1-2.4-0.2-3.6c-0.2-2.4-0.3-4.8-0.5-7.2c-0.2-2.4-0.4-4.8-0.7-7.2c-0.2-1.2-0.3-2.4-0.5-3.6c-0.2-1.1-0.4-2.4-0.5-3.4
						l0-0.1c-0.5-2.6,1.2-5.1,3.8-5.6c2.6-0.5,5.1,1.2,5.6,3.8C783.2,377.5,783.2,377.6,783.2,377.7z"/>
				</g>
				<g>
					<path class="st1" d="M793.7,391.1c0.4,2.7,0.6,5.1,0.8,7.7c0.2,2.5,0.3,5,0.5,7.5c0.2,2.5,0.1,5,0.2,7.5c0,1.2,0.1,2.5,0.1,3.7
						l0,3.7c0,2.5,0,5-0.1,7.5l-0.3,7.5c-0.1,5-0.6,9.9-1,14.9c-1.6,19.8-4.7,39.4-8.6,58.7l-3.2,14.5l-0.8,3.6l-0.9,3.6l-1.9,7.2
						l-1.9,7.2l-0.9,3.6l-1.1,3.5l-4.3,14.2c-0.7,2.4-1.4,4.7-2.2,7.1l-2.4,7l-4.8,14c-0.8,2.3-1.7,4.6-2.6,6.9l-2.7,6.9l-5.4,13.7
						l4.8-13.9l2.4-7c0.8-2.3,1.7-4.6,2.3-7l4.3-14.1l2.1-7.1c0.7-2.3,1.3-4.7,1.9-7.1l3.7-14.3l0.9-3.6l0.8-3.6l1.6-7.2l1.6-7.2
						l0.8-3.6l0.7-3.6l2.6-14.5c3.1-19.3,5.3-38.8,6.2-58.3c0.1-4.9,0.4-9.7,0.4-14.6l0-7.3c0-2.4-0.1-4.9-0.2-7.3l-0.1-3.6
						c0-1.2-0.1-2.4-0.2-3.6c-0.2-2.4-0.3-4.8-0.5-7.2c-0.2-2.4-0.4-4.8-0.7-7.2c-0.2-1.2-0.3-2.4-0.5-3.6c-0.2-1.1-0.4-2.4-0.5-3.4
						l0-0.1c-0.5-2.6,1.2-5.1,3.8-5.6s5.1,1.2,5.6,3.8C793.7,390.9,793.7,391,793.7,391.1z"/>
				</g>
				<g>
					<path class="st1" d="M723.8,420.6c0.6,0.3,0.9,0.4,1.3,0.7c0.4,0.2,0.8,0.4,1.1,0.6c0.7,0.4,1.5,0.9,2.2,1.4
						c1.4,0.9,2.7,1.9,4,2.9c2.6,2.1,5,4.3,7.3,6.6c4.5,4.7,8.5,9.8,12,15.3c3.5,5.4,6.5,11.1,9,17c2.5,5.9,4.6,11.9,6.5,17.9
						c3.5,12.2,5.7,24.7,7,37.2c1.2,12.5,1.5,25.1,1.1,37.6c-0.3-12.5-1.2-25-3-37.4c-1.9-12.3-4.7-24.5-8.7-36.2
						c-2.1-5.8-4.4-11.6-7.2-17.1c-2.7-5.5-5.9-10.8-9.4-15.8c-3.5-5-7.5-9.6-11.9-13.7c-2.2-2-4.5-4-6.9-5.7
						c-1.2-0.9-2.4-1.7-3.7-2.4c-0.6-0.4-1.3-0.7-1.9-1.1c-0.3-0.2-0.6-0.3-0.9-0.5c-0.3-0.1-0.7-0.3-0.8-0.4c-2-0.7-3-2.9-2.2-4.9
						c0.7-2,2.9-3,4.9-2.2C723.6,420.5,723.7,420.6,723.8,420.6L723.8,420.6z"/>
				</g>
				<g>
					<path class="st1" d="M715.1,434.6c0.6,0.3,0.9,0.4,1.3,0.7c0.4,0.2,0.8,0.4,1.1,0.6c0.7,0.4,1.5,0.9,2.2,1.4
						c1.4,0.9,2.7,1.9,4,2.9c2.6,2.1,5,4.3,7.3,6.6c4.5,4.7,8.5,9.8,12,15.3c3.5,5.4,6.5,11.1,9,17c2.5,5.9,4.6,11.9,6.5,17.9
						c3.5,12.2,5.7,24.7,7,37.2c1.2,12.5,1.5,25.1,1.1,37.6c-0.3-12.5-1.2-25-3-37.4c-1.9-12.3-4.7-24.5-8.7-36.2
						c-2.1-5.8-4.4-11.6-7.2-17.1c-2.7-5.5-5.9-10.8-9.4-15.8c-3.5-5-7.5-9.6-11.9-13.7c-2.2-2-4.5-4-6.9-5.7
						c-1.2-0.9-2.4-1.7-3.7-2.4c-0.6-0.4-1.3-0.7-1.9-1.1c-0.3-0.2-0.6-0.3-0.9-0.5c-0.3-0.1-0.7-0.3-0.8-0.4c-2-0.7-3-2.9-2.2-4.9
						c0.7-2,2.9-3,4.9-2.2C714.9,434.5,715,434.5,715.1,434.6L715.1,434.6z"/>
				</g>
				<path class="st19" d="M737.7,409c0,0,40,22.6,39.4,133.7"/>
			</g>
			<g>
				<path class="st1" d="M682.3,450.4c0,0,0.5,6.4,0.4,17c57.3,23.7,62.8-75.8,62.8-75.8S723.3,428.8,682.3,450.4z"/>
			</g>
			<path class="st1" d="M798.2,427.1c0-200.2-162.3-362.6-362.6-362.6c-130.4,0-244.7,68.9-308.6,172.2
				c200.5-167.5,423.4-75.8,423.4-75.8c-31.1,26.4-9.9,134.1,48.3,222.2c40.4-10.9,85.5-25.4,131.3-44.7l15.5,53.3
				c39,43.2,31.1,144.6,24.6,192.8C787.8,537,798.2,484.3,798.2,427.1z"/>
			<path class="st1" d="M718.6,683.7c-4.7,6.8-9.5,13.5-14.4,20c-19.7,25.8-73.4,45.3-113,53.6l-41.2-29
				c4.6-7.3,35.6-55.7,47.9-60.1c17.9-6.4,59.7-32.6,72.1-66.2C670.1,601.9,666.8,685.6,718.6,683.7z"/>
			<g>
				<path class="st1" d="M716.9,679.5l-0.5-0.2l-0.4-0.2l-0.8-0.4c-0.5-0.3-1-0.5-1.5-0.8c-1-0.5-1.9-1.2-2.8-1.8
					c-0.9-0.6-1.7-1.3-2.6-1.9c-0.8-0.7-1.6-1.4-2.4-2.1l-1.2-1.1l-1.1-1.1l-2.2-2.3c-1.3-1.6-2.7-3.2-3.9-4.9
					c-1.2-1.7-2.4-3.4-3.5-5.1l-3.1-5.3l-2.7-5.5l-0.7-1.4c-0.2-0.5-0.4-0.9-0.6-1.4l-1.1-2.8c-1.6-3.7-2.7-7.7-3.9-11.5l-0.4-1.4
					l-0.4-1.5l-0.7-2.9l-1.4-5.9c-0.7-4-1.4-7.9-2-11.9l-1.3-11.9l2.2,11.8c0.9,3.9,1.9,7.7,2.9,11.6l1.8,5.7l0.9,2.8l0.5,1.4
					l0.5,1.4c1.5,3.7,2.8,7.4,4.7,10.9l1.3,2.6c0.2,0.4,0.4,0.9,0.7,1.3l0.7,1.3l3,5l3.3,4.8c1.1,1.6,2.4,3,3.6,4.5
					c1.3,1.4,2.6,2.8,3.9,4.2l2.1,1.9l1.1,0.9l1.1,0.8c0.8,0.5,1.5,1.2,2.2,1.7c0.8,0.5,1.5,1,2.3,1.5c0.8,0.4,1.6,0.9,2.4,1.3
					l1.2,0.5l0.6,0.2l0.3,0.1l0.2,0l0.1,0c2,0.6,3.2,2.7,2.6,4.7s-2.7,3.2-4.7,2.6C717.1,679.6,717,679.5,716.9,679.5z"/>
			</g>
			<g>
				<path class="st1" d="M709.7,687.2l-0.5-0.2l-0.4-0.2l-0.8-0.4c-0.5-0.3-1-0.5-1.5-0.8c-1-0.5-1.9-1.2-2.8-1.8
					c-0.9-0.6-1.7-1.3-2.6-1.9c-0.8-0.7-1.6-1.4-2.4-2.1l-1.2-1.1l-1.1-1.1l-2.2-2.3c-1.3-1.6-2.7-3.2-3.9-4.9
					c-1.2-1.7-2.4-3.4-3.5-5.1l-3.1-5.3l-2.7-5.5l-0.7-1.4c-0.2-0.5-0.4-0.9-0.6-1.4l-1.1-2.8c-1.6-3.7-2.7-7.7-3.9-11.5l-0.4-1.4
					l-0.4-1.5l-0.7-2.9l-1.4-5.9c-0.7-4-1.4-7.9-2-11.9l-1.3-11.9l2.2,11.8c0.9,3.9,1.9,7.7,2.9,11.6l1.8,5.7l0.9,2.8l0.5,1.4
					l0.5,1.4c1.5,3.7,2.8,7.4,4.7,10.9l1.3,2.6c0.2,0.4,0.4,0.9,0.7,1.3l0.7,1.3l3,5l3.3,4.8c1.1,1.6,2.4,3,3.6,4.5
					c1.3,1.4,2.6,2.8,3.9,4.2l2.1,1.9l1.1,0.9l1.1,0.8c0.8,0.5,1.5,1.2,2.2,1.7c0.8,0.5,1.5,1,2.3,1.5c0.8,0.4,1.6,0.9,2.4,1.3
					l1.2,0.5l0.6,0.2l0.3,0.1l0.2,0l0.1,0c2,0.6,3.2,2.7,2.6,4.7c-0.6,2-2.7,3.2-4.7,2.6C710,687.3,709.9,687.3,709.7,687.2z"/>
			</g>
			<path class="st1" d="M285.7,666.7c-113.5-24-108.5-224.3-108.5-224.3l-47.8-43.7l10.5-37.4c-20.5-11.8-34.7-57-34.7-57
				c-33.5,85.4-18.2,189.8-18.2,189.8c5.3,35.9,13.1,66.9,22.5,93.5c3.3-5.2,7.6-9.1,12.9-11.1c20.7-7.9,48.6,15.1,62.4,51.3
				c11.6,30.7,9.3,61.1-4.3,74.4c47.3,44.8,93.4,49.4,93.4,49.4l39.4-35.4L285.7,666.7z"/>
			<path class="st20" d="M703.5,460.7c12.1,179.7-100.7,212.7-100.7,212.7l-29.4,44c10.5,11.3,34.3,22.8,34.3,22.8
				c42.8-7.6,95.2-33.4,129.4-55c-4.5,6.5-12.6,15.2-17.3,21.4c-21,27.6-81.6,45.8-122.3,53.4l-54.1-38.2l39.6-59.3
				c114.4-35.2,101.7-212.1,101.7-212.1c41.1-21.6,63.2-58.8,63.2-58.8l-15.5-53.3c-146.8,61.7-287,75-287,75s-141.4-13.3-288.2-75
				l-15.5,53.3c0,0,14.7,17.2,51,41.9c0,0-20,185.8,113.2,225.1l33.2,63.5L295.6,760c-36.5-3.6-94.7-25-120.3-49.9
				c58,20.7,112.9,31.6,112.9,31.6l25.2-23.4L290.8,674C146.3,628.5,170,445.7,170,445.7c-10.7-3.6-53.5-42.5-53.5-42.5
				c-5.1-16.9,28.7-96.6,28.7-96.6c77.7,42.8,302.5,79.7,302.5,79.7c156.9-28.3,300.2-77.8,300.2-77.8l21,85.4
				C750,431.4,703.5,460.7,703.5,460.7z"/>
			<g>
				<path class="st1" d="M249.7,176.5c-2.2,0.8-4.7,1.8-7,2.7c-2.4,1-4.7,2-7,3c-4.7,2-9.4,4.1-14,6.2c-9.3,4.3-18.6,8.7-27.8,13.3
					c-9.2,4.5-18.4,9.3-27.5,14l-13.6,7.2l-13.6,7.3l13-8.4l13.1-8.2c8.7-5.4,17.5-10.9,26.4-16.1c8.9-5.3,17.8-10.5,26.8-15.5
					c4.5-2.5,9.1-5,13.7-7.4c2.3-1.2,4.6-2.4,6.9-3.6c2.4-1.2,4.6-2.3,7.2-3.4c2.4-1.1,5.2,0,6.3,2.4c1.1,2.4,0,5.2-2.4,6.3
					C249.9,176.4,249.8,176.5,249.7,176.5L249.7,176.5z"/>
			</g>
			<g>
				<path class="st1" d="M249.7,190.4c-2.2,0.8-4.7,1.8-7,2.7c-2.4,1-4.7,2-7,3c-4.7,2-9.4,4.1-14,6.2c-9.3,4.3-18.6,8.7-27.8,13.3
					c-9.2,4.5-18.4,9.3-27.5,14l-13.6,7.2l-13.6,7.3l13-8.4l13.1-8.2c8.7-5.4,17.5-10.9,26.4-16.1c8.9-5.3,17.8-10.5,26.8-15.5
					c4.5-2.5,9.1-5,13.7-7.4c2.3-1.2,4.6-2.4,6.9-3.6c2.4-1.2,4.6-2.3,7.2-3.4c2.4-1.1,5.2,0,6.3,2.4c1.1,2.4,0,5.2-2.4,6.3
					C249.9,190.3,249.8,190.3,249.7,190.4L249.7,190.4z"/>
			</g>
			<g>
				<path class="st1" d="M249.7,204.2c-2.2,0.8-4.7,1.8-7,2.7c-2.4,1-4.7,2-7,3c-4.7,2-9.4,4.1-14,6.2c-9.3,4.3-18.6,8.7-27.8,13.3
					c-9.2,4.5-18.4,9.3-27.5,14l-13.6,7.2l-13.6,7.3l13-8.4l13.1-8.2c8.7-5.4,17.5-10.9,26.4-16.1c8.9-5.3,17.8-10.5,26.8-15.5
					c4.5-2.5,9.1-5,13.7-7.4c2.3-1.2,4.6-2.4,6.9-3.6c2.4-1.2,4.6-2.3,7.2-3.4c2.4-1.1,5.2,0,6.3,2.4c1.1,2.4,0,5.2-2.4,6.3
					C249.9,204.1,249.8,204.2,249.7,204.2L249.7,204.2z"/>
			</g>
			<g>
				<path class="st1" d="M249.7,218.1c-2.2,0.8-4.7,1.8-7,2.7c-2.4,1-4.7,2-7,3c-4.7,2-9.4,4.1-14,6.2c-9.3,4.3-18.6,8.7-27.8,13.3
					c-9.2,4.5-18.4,9.3-27.5,14l-13.6,7.2l-13.6,7.3l13-8.4l13.1-8.2c8.7-5.4,17.5-10.9,26.4-16.1c8.9-5.3,17.8-10.5,26.8-15.5
					c4.5-2.5,9.1-5,13.7-7.4c2.3-1.2,4.6-2.4,6.9-3.6c2.4-1.2,4.6-2.3,7.2-3.4c2.4-1.1,5.2,0,6.3,2.4c1.1,2.4,0,5.2-2.4,6.3
					C249.9,218,249.8,218,249.7,218.1L249.7,218.1z"/>
			</g>
			<g>
				<path class="st1" d="M249.7,232c-2.2,0.8-4.7,1.8-7,2.7c-2.4,1-4.7,2-7,3c-4.7,2-9.4,4.1-14,6.2c-9.3,4.3-18.6,8.7-27.8,13.3
					c-9.2,4.5-18.4,9.3-27.5,14l-13.6,7.2l-13.6,7.3l13-8.4l13.1-8.2c8.7-5.4,17.5-10.9,26.4-16.1c8.9-5.3,17.8-10.5,26.8-15.5
					c4.5-2.5,9.1-5,13.7-7.4c2.3-1.2,4.6-2.4,6.9-3.6c2.4-1.2,4.6-2.3,7.2-3.4c2.4-1.1,5.2,0,6.3,2.4c1.1,2.4,0,5.2-2.4,6.3
					C249.9,231.9,249.8,231.9,249.7,232L249.7,232z"/>
			</g>
			<g>
				<path class="st1" d="M249.7,245.8c-2.2,0.8-4.7,1.8-7,2.7c-2.4,1-4.7,2-7,3c-4.7,2-9.4,4.1-14,6.2c-9.3,4.3-18.6,8.7-27.8,13.3
					c-9.2,4.5-18.4,9.3-27.5,14l-13.6,7.2l-13.6,7.3l13-8.4l13.1-8.2c8.7-5.4,17.5-10.9,26.4-16.1c8.9-5.3,17.8-10.5,26.8-15.5
					c4.5-2.5,9.1-5,13.7-7.4c2.3-1.2,4.6-2.4,6.9-3.6c2.4-1.2,4.6-2.3,7.2-3.4c2.4-1.1,5.2,0,6.3,2.4c1.1,2.4,0,5.2-2.4,6.3
					C249.9,245.7,249.8,245.8,249.7,245.8L249.7,245.8z"/>
			</g>
			<g>
				<ellipse transform="matrix(0.866 -0.5 0.5 0.866 -21.0333 382.0233)" class="st4" cx="702.3" cy="230.3" rx="37.8" ry="77.9"/>
			</g>
			<g>
				<linearGradient id="SVGID_16_" gradientUnits="userSpaceOnUse" x1="254.7373" y1="202.1846" x2="628.2912" y2="202.1846">
					<stop  offset="0" style="stop-color:#52FFCE"/>
					<stop  offset="0.9948" style="stop-color:#6700E4"/>
				</linearGradient>
				<path class="st21" d="M442.7,382.5c-0.2,0-0.5,0-0.7-0.1l-153.8-29c-1-0.2-2-0.8-2.5-1.7c-14.9-23.6-24.6-53.2-28.6-88.1
					c-3.2-27.7-3-58.9,0.7-92.5c6.3-57.2,20.7-102.5,20.9-103c0.3-0.9,1-1.7,1.8-2.2C335.7,36.7,392,21.8,447.9,21.8
					c49.7,0,89.8,12,114.7,22.1c27.1,11,42.2,21.8,42.8,22.3c0.4,0.3,0.8,0.7,1.1,1.2c21.2,36.7,27,95.3,17.2,174.4
					c-7.2,58.6-20.8,107.2-21,107.6c-0.4,1.4-1.5,2.4-3,2.7l-156.3,30.2C443.2,382.5,443,382.5,442.7,382.5z"/>
				<g>
					<path class="st1" d="M447.9,25.7c95.1,0,155.3,43.7,155.3,43.7c50.1,86.6-4.1,279.1-4.1,279.1l-156.3,30.2l-153.8-29
						c-64.1-101.2-6.6-280.4-6.6-280.4C344.1,36.6,400.3,25.7,447.9,25.7 M447.9,18c-56.5,0-113.4,15-169.2,44.6
						c-1.8,0.9-3.1,2.5-3.7,4.4c-0.6,1.9-14.7,46.2-21,103.7c-3.8,33.9-4,65.3-0.7,93.4c4.1,35.5,14,65.6,29.2,89.7
						c1.1,1.8,3,3,5,3.4l153.8,29c0.5,0.1,0.9,0.1,1.4,0.1c0.5,0,1,0,1.5-0.1L600.5,356c2.8-0.5,5.1-2.6,5.9-5.4
						c0.1-0.5,13.8-49.4,21.1-108.2c4.3-34.7,5.6-66.1,3.8-93.3c-2.2-34.6-9.5-62.7-21.5-83.5c-0.5-0.9-1.3-1.7-2.1-2.4
						c-0.6-0.5-16.1-11.6-43.6-22.7C538.8,30.2,498.2,18,447.9,18L447.9,18z"/>
				</g>
			</g>
			<g>
				
					<ellipse transform="matrix(0.9357 -0.3527 0.3527 0.9357 -6.0045 212.5948)" class="st4" cx="580.4" cy="122.8" rx="32.4" ry="61.8"/>
			</g>
			<g>
				<path class="st4" d="M603.2,69.3c0,0-135.5-98.3-320.9,0c0,0-0.8,2.5-2.1,7c181.5-91.6,313.3,4,313.3,4
					c43.4,75.1,8.4,229.8-1.6,269.6l7.3-1.4C599,348.5,653.3,156,603.2,69.3z"/>
			</g>
			<g>
				<linearGradient id="SVGID_17_" gradientUnits="userSpaceOnUse" x1="274.1713" y1="354.2703" x2="607.5804" y2="354.2703">
					<stop  offset="5.181347e-03" style="stop-color:#6700E4"/>
					<stop  offset="1" style="stop-color:#52FFCE"/>
				</linearGradient>
				<path class="st22" d="M442.7,382.5c-0.2,0-0.5,0-0.7-0.1l-153.8-29c-1.1-0.2-2.1-0.9-2.6-1.9l-10.9-19.9
					c-0.7-1.3-0.6-2.9,0.3-4.1c0.7-1,1.9-1.6,3.1-1.6c0.2,0,0.5,0,0.7,0.1l164,31.7l160.3-30.1c0.2,0,0.5-0.1,0.7-0.1
					c1.1,0,2.1,0.4,2.8,1.2c0.9,1,1.2,2.3,0.9,3.6l-4.7,17c-0.4,1.4-1.5,2.5-3,2.7l-156.3,30.2C443.2,382.5,443,382.5,442.7,382.5z"
					/>
				<g>
					<path class="st1" d="M278,329.8l164.7,31.8l161.1-30.2l-4.7,17l-156.3,30.2l-153.8-29L278,329.8 M603.8,331.4L603.8,331.4
						 M278,322.2c-2.4,0-4.7,1.1-6.2,3.1c-1.7,2.4-2,5.6-0.5,8.2l10.9,19.9c1.1,2,3,3.4,5.3,3.8l153.8,29c0.5,0.1,0.9,0.1,1.4,0.1
						c0.5,0,1,0,1.5-0.1L600.5,356c2.8-0.6,5.1-2.7,5.9-5.5l4.7-16.8c0.2-0.7,0.3-1.5,0.3-2.3c0-4.2-3.3-7.5-7.4-7.6
						c-0.1,0-0.1,0-0.2,0c-0.1,0-0.2,0-0.4,0c-0.4,0-0.8,0.1-1.2,0.2l-159.5,29.9l-163.3-31.6C279,322.2,278.5,322.2,278,322.2
						L278,322.2z"/>
				</g>
			</g>
			<path class="st1" d="M454.6,132.4l23.9,43.8c1.9,3.5,5.6,5.9,9.8,6.4l53.5,7c10.7,1.4,14.9,13.3,7.2,20.1l-38.7,34.1
				c-3.1,2.7-4.5,6.6-3.7,10.4l9.1,48.2c1.8,9.6-9.3,17-18.9,12.4L449,292.2c-3.8-1.8-8.3-1.8-12.1,0l-47.8,22.7
				c-9.6,4.5-20.7-2.8-18.9-12.4l9.1-48.2c0.7-3.8-0.7-7.7-3.7-10.4l-38.7-34.1c-7.7-6.8-3.5-18.7,7.2-20.1l53.5-7
				c4.2-0.6,7.9-3,9.8-6.4l23.9-43.8C436,123.6,449.8,123.6,454.6,132.4z"/>
			<path class="st20" d="M454.6,123.8l23.9,43.8c1.9,3.5,5.6,5.9,9.8,6.4l53.5,7c10.7,1.4,14.9,13.3,7.2,20.1l-38.7,34.1
				c-3.1,2.7-4.5,6.6-3.7,10.4l9.1,48.2c1.8,9.6-9.3,17-18.9,12.4L449,283.6c-3.8-1.8-8.3-1.8-12.1,0l-47.8,22.7
				c-9.6,4.5-20.7-2.8-18.9-12.4l9.1-48.2c0.7-3.8-0.7-7.7-3.7-10.4l-38.7-34.1c-7.7-6.8-3.5-18.7,7.2-20.1l53.5-7
				c4.2-0.6,7.9-3,9.8-6.4l23.9-43.8C436,115,449.8,115,454.6,123.8z"/>
			<circle class="st1" cx="567.8" cy="547.9" r="16.8"/>
			<circle class="st1" cx="317.3" cy="547.9" r="16.8"/>
			<polygon class="st1" points="142.8,391.7 161.5,391.7 177.2,358.9 157.1,343.1 			"/>
			<g>
				<path class="st1" d="M658.4,647.1c4.3-5.1,8.6-10.6,12.7-16.1c4.1-5.5,8.1-11.1,11.8-16.9c3.8-5.8,7.3-11.6,10.7-17.7
					c3.3-6.1,6.2-12.3,8.7-18.8c-1.7,6.7-4,13.3-6.6,19.8c-2.6,6.4-5.6,12.8-8.7,19c-3.2,6.2-6.5,12.4-10,18.4
					c-3.5,6.1-7.1,12-11.1,17.9c-1.5,2.2-4.4,2.8-6.6,1.3c-2.2-1.5-2.8-4.4-1.3-6.6C658.1,647.5,658.2,647.3,658.4,647.1
					L658.4,647.1z"/>
			</g>
			<g>
				<path class="st1" d="M663.1,657.6c4.3-5.1,8.6-10.6,12.7-16.1c4.1-5.5,8.1-11.1,11.8-16.9c3.8-5.8,7.3-11.6,10.7-17.7
					c3.3-6.1,6.2-12.3,8.7-18.8c-1.7,6.7-4,13.3-6.6,19.8c-2.6,6.4-5.6,12.8-8.7,19c-3.2,6.2-6.5,12.4-10,18.4
					c-3.5,6.1-7.1,12-11.1,17.9c-1.5,2.2-4.4,2.8-6.6,1.3s-2.8-4.4-1.3-6.6C662.8,657.9,663,657.7,663.1,657.6L663.1,657.6z"/>
			</g>
			<g>
				<path class="st1" d="M667.8,668c4.3-5.1,8.6-10.6,12.7-16.1c4.1-5.5,8.1-11.1,11.8-16.9c3.8-5.8,7.3-11.6,10.7-17.7
					c3.3-6.1,6.3-12.3,8.7-18.8c-1.7,6.7-4,13.3-6.6,19.8c-2.6,6.4-5.6,12.8-8.7,19c-3.2,6.2-6.5,12.4-10,18.4
					c-3.5,6.1-7.1,12-11.1,17.9c-1.5,2.2-4.4,2.8-6.6,1.3c-2.2-1.5-2.8-4.4-1.3-6.6C667.6,668.3,667.7,668.2,667.8,668L667.8,668z"
					/>
			</g>
			<g>
				<path class="st1" d="M672.6,678.4c4.3-5.1,8.6-10.6,12.7-16.1c4.1-5.5,8.1-11.1,11.8-16.9c3.8-5.8,7.3-11.6,10.7-17.7
					c3.3-6.1,6.2-12.3,8.7-18.8c-1.7,6.7-4,13.3-6.6,19.8c-2.6,6.4-5.6,12.8-8.7,19c-3.2,6.2-6.5,12.4-10,18.4
					c-3.5,6.1-7.1,12-11.1,17.9c-1.5,2.2-4.4,2.8-6.6,1.3c-2.2-1.5-2.8-4.4-1.3-6.6C672.3,678.7,672.4,678.6,672.6,678.4
					L672.6,678.4z"/>
			</g>
			<g>
				<path class="st1" d="M677.3,688.8c4.3-5.1,8.6-10.6,12.7-16.1c4.1-5.5,8.1-11.1,11.8-16.9c3.8-5.8,7.3-11.6,10.7-17.7
					c3.3-6.1,6.2-12.3,8.7-18.8c-1.7,6.7-4,13.3-6.6,19.8c-2.6,6.4-5.6,12.8-8.7,19c-3.2,6.2-6.5,12.4-10,18.4
					c-3.5,6.1-7.1,12-11.1,17.9c-1.5,2.2-4.4,2.8-6.6,1.3c-2.2-1.5-2.8-4.4-1.3-6.6C677,689.1,677.1,689,677.3,688.8L677.3,688.8z"
					/>
			</g>
			<g>
				<path class="st1" d="M682,699.2c4.3-5.1,8.6-10.6,12.7-16.1c4.1-5.5,8.1-11.1,11.8-16.9c3.8-5.8,7.3-11.6,10.7-17.7
					c3.3-6.1,6.3-12.3,8.7-18.8c-1.7,6.7-4,13.3-6.6,19.8c-2.6,6.4-5.6,12.8-8.7,19c-3.2,6.2-6.5,12.4-10,18.4
					c-3.5,6.1-7.1,12-11.1,17.9c-1.5,2.2-4.4,2.8-6.6,1.3c-2.2-1.5-2.8-4.4-1.3-6.6C681.8,699.5,681.9,699.4,682,699.2L682,699.2z"
					/>
			</g>
			<g>
				<path class="st1" d="M686.8,709.6c4.3-5.1,8.6-10.6,12.7-16.1c4.1-5.5,8.1-11.1,11.8-16.9c3.8-5.8,7.3-11.6,10.7-17.7
					c3.3-6.1,6.2-12.3,8.7-18.8c-1.7,6.7-4,13.3-6.6,19.8c-2.6,6.4-5.6,12.8-8.7,19c-3.2,6.2-6.5,12.4-10,18.4
					c-3.5,6.1-7.1,12-11.1,17.9c-1.5,2.2-4.4,2.8-6.6,1.3c-2.2-1.5-2.8-4.4-1.3-6.6C686.5,710,686.6,709.8,686.8,709.6L686.8,709.6z
					"/>
			</g>
			<path class="st1" d="M560.1,649.6l20.7,4.2l-15.7,20.1c0,0-15.9-6.5-14.8-3c1.1,3.5,9.1,9.7,9.1,9.7l-4.2,5.9l-10.6-9.3
				L560.1,649.6z"/>
			<path class="st1" d="M665.9,441l16.4,9.5c0,0-4.4,48.1-6.5,56.8L663.4,491L665.9,441z"/>
			<path class="st1" d="M718.1,391.7l19.9-6.1c0,0-4.5,19.8-22,30.2l-10.5-4.2L718.1,391.7z"/>
			<g>
				<line class="st4" x1="699.3" y1="413.9" x2="713.3" y2="421.5"/>
				<path class="st1" d="M701.1,410.5l12.2,11l-15.9-4.3c-2.1-0.6-3.3-2.7-2.8-4.8s2.7-3.3,4.8-2.8
					C700.1,409.8,700.6,410.1,701.1,410.5z"/>
			</g>
			<g>
				<line class="st4" x1="690.7" y1="420.3" x2="704.8" y2="427.9"/>
				<path class="st1" d="M692.6,417l12.2,11l-15.9-4.3c-2.1-0.6-3.3-2.7-2.8-4.8s2.7-3.3,4.8-2.8C691.6,416.3,692.1,416.6,692.6,417
					z"/>
			</g>
			<polygon class="st1" points="704.8,356.5 718.8,350.6 728.8,389.3 718.1,391.7 			"/>
			<path class="st1" d="M449,283.6l10.8,5.1l20.7-118.5c-0.8-0.8-1.4-1.6-1.9-2.6l-23.9-43.8c-2.7-5-8.5-7.2-13.7-6.4l-30.6,178.9
				l28.4-12.7c10.5-46.4,14.1-115.2,20.9-107.3c6.9,8-7,69.5-13.2,106.4C447.3,282.9,448.2,283.2,449,283.6z"/>
			<polygon class="st1" points="442.7,361.7 442.7,378.7 601.5,349.7 603.8,331.4 			"/>
			<path class="st1" d="M374.7,342.2l53.6,13.5l7.9,24.7l-11.2-1.3c0,0-10.1-22.2-19.5-17.8c-9.5,4.3,0,13.7,0,13.7l-26.8-3.8
				L374.7,342.2z"/>
			<g>
				<path class="st1" d="M158.2,559.7c0.4,3.2,1,6.5,1.6,9.7c0.6,3.3,1.3,6.5,2,9.8c1.5,6.5,3.1,13,5,19.4c1.9,6.4,4.1,12.8,6.5,19
					c2.4,6.3,5.2,12.4,8.3,18.4c-3.7-5.6-7.3-11.4-10.5-17.4c-3.2-6-6.1-12.1-8.8-18.4c-2.7-6.3-5.2-12.6-7.4-19.1
					c-1.1-3.2-2.2-6.5-3.2-9.7c-1-3.3-2-6.5-2.9-10c-0.7-2.6,0.9-5.2,3.4-5.8c2.6-0.7,5.2,0.9,5.8,3.4
					C158.2,559.3,158.2,559.4,158.2,559.7L158.2,559.7z"/>
			</g>
			<g>
				<path class="st1" d="M144.2,559.7c0.4,3.2,1,6.5,1.6,9.7c0.6,3.3,1.3,6.5,2,9.8c1.5,6.5,3.1,13,5,19.4c1.9,6.4,4.1,12.8,6.5,19
					c2.4,6.3,5.2,12.4,8.3,18.4c-3.7-5.6-7.3-11.4-10.5-17.4c-3.2-6-6.1-12.1-8.8-18.4c-2.7-6.3-5.2-12.6-7.4-19.1
					c-1.1-3.2-2.2-6.5-3.2-9.7c-1-3.3-2-6.5-2.9-10c-0.7-2.6,0.9-5.2,3.4-5.8c2.6-0.7,5.2,0.9,5.8,3.4
					C144.1,559.3,144.1,559.4,144.2,559.7L144.2,559.7z"/>
			</g>
			<g>
				<path class="st1" d="M130.1,559.7c0.4,3.2,1,6.5,1.6,9.7c0.6,3.3,1.3,6.5,2,9.8c1.5,6.5,3.1,13,5,19.4c1.9,6.4,4.1,12.8,6.5,19
					c2.4,6.3,5.2,12.4,8.3,18.4c-3.7-5.6-7.3-11.4-10.5-17.4c-3.2-6-6.1-12.1-8.8-18.4c-2.7-6.3-5.2-12.6-7.4-19.1
					c-1.1-3.2-2.2-6.5-3.2-9.7c-1-3.3-2-6.5-2.9-10c-0.7-2.6,0.9-5.2,3.4-5.8c2.6-0.7,5.2,0.9,5.8,3.4
					C130,559.3,130.1,559.4,130.1,559.7L130.1,559.7z"/>
			</g>
			<g>
				<path class="st1" d="M116.1,559.7c0.4,3.2,1,6.5,1.6,9.7c0.6,3.3,1.3,6.5,2,9.8c1.5,6.5,3.1,13,5,19.4c1.9,6.4,4.1,12.8,6.5,19
					c2.4,6.3,5.2,12.4,8.3,18.4c-3.7-5.6-7.3-11.4-10.5-17.4c-3.2-6-6.1-12.1-8.8-18.4c-2.7-6.3-5.2-12.6-7.4-19.1
					c-1.1-3.2-2.2-6.5-3.2-9.7c-1-3.3-2-6.5-2.9-10c-0.7-2.6,0.9-5.2,3.4-5.8c2.6-0.7,5.2,0.9,5.8,3.4
					C116,559.3,116,559.4,116.1,559.7L116.1,559.7z"/>
			</g>
			<path class="st1" d="M206.6,444c0,0,28-19,43.9-17.9s152.3,66.8,152.3,66.8s12-1.7,21.1-3.1c6-0.9,10.1,5.4,6.4,9.9
				c-9.1,10.9-26.5,22.6-59.4,22.3L206.6,444z"/>
			<polygon class="st1" points="280.2,397.2 247.9,480.5 287.5,488.5 313.4,407.1 			"/>
			<polygon class="st1" points="323,402.1 297.9,485.4 344.3,501.1 370.3,419.6 			"/>
		</g>
		<g>
			<g>
				<path class="st12" d="M681.2,909.5c-16.6,0-35.9-3.4-57.4-10.2c-66-20.8-92.8-52.4-103.7-75.2c-10.1-21.1-8.3-38-6-44.1
					c1.4-4,25.2-72.5,62.2-73.6c0.5,0,1,0,1.5,0c36.6,0,163.5,43.2,175.2,81.3c7,22.7,9.9,66.8-10.8,94.9
					C729,900.4,708.5,909.5,681.2,909.5z"/>
				<path class="st1" d="M577.9,710.2c36.9,0,160.7,43.3,171.5,78.6c9.3,30.1,14.7,116.9-68.2,116.9c-15.5,0-34-3-56.2-10
					c-109.8-34.6-112.7-100.4-107.2-114.4c0,0,23.7-70,58.8-71.1C576.9,710.2,577.4,710.2,577.9,710.2 M577.9,702.6v7.6V702.6
					c-0.5,0-1.1,0-1.6,0c-17.4,0.5-33.8,13.9-48.9,39.8c-10.1,17.4-16.1,34.4-16.8,36.4c-2.7,7.1-4.5,24.8,6.1,47
					c11.2,23.6,38.7,56.1,106,77.2c21.8,6.9,41.5,10.4,58.5,10.4c28.6,0,50.1-9.6,64.1-28.5c10-13.5,15.7-31.9,16.7-53.1
					c0.7-15.5-1.3-32.3-5.2-45.2c-3.1-10.1-12.7-20.4-29.3-31.3c-13.2-8.7-30.9-17.7-51.1-26.1C638.9,713.8,597.5,702.6,577.9,702.6
					L577.9,702.6z"/>
			</g>
			<path class="st1" d="M556,863.7c0,0,28.4,21.4,50.2,4.8c0,0,56.2,31.2,102,25.5c0,0,2.6,4.1-16.5,16.5c0,0,66.7,1.7,62.2-59.9
				l-143.6-41.7l-67.7,31.3C542.6,840.1,540.6,855.3,556,863.7z"/>
			<g>
				<linearGradient id="SVGID_18_" gradientUnits="userSpaceOnUse" x1="537.9097" y1="779.957" x2="761.219" y2="779.957">
					<stop  offset="0" style="stop-color:#52FFCE"/>
					<stop  offset="0.9948" style="stop-color:#6700E4"/>
				</linearGradient>
				<path class="st23" d="M716.4,863.1c-25.7,0-52-5.3-72.2-14.6c-26.7-12.3-42.4-31.2-45.3-54.7c-8.7-69.3-56.8-72.7-57.3-72.7
					c-1.2-0.1-2.3-0.7-3-1.7s-0.8-2.2-0.4-3.4c4.4-12.7,16.1-19.1,34.9-19.1c30.2,0,74.8,16.4,110.6,29.7c9.4,3.5,18.3,6.8,26.2,9.5
					c18.7,6.4,32.7,19.8,41.5,39.8c13.1,29.5,11,64.8,6.1,76.2c-1.6,3.8-6.5,6.6-14.7,8.6C735.6,862.2,726.5,863.1,716.4,863.1
					C716.4,863.1,716.4,863.1,716.4,863.1z"/>
				<path class="st1" d="M573,700.7c37.3,0,97.7,25.9,135.6,38.9c53.7,18.4,52.4,94.5,45.4,110.9c-2.2,5.2-17.5,8.8-37.6,8.8
					c-42.8,0-107.5-16.1-113.7-66c-9.2-73.3-60.9-76.1-60.9-76.1C545.8,705.2,557.4,700.7,573,700.7 M573,693
					c-9.5,0-17.1,1.5-23.3,4.6c-7.4,3.6-12.5,9.4-15.2,17.1c-0.8,2.3-0.5,4.8,0.9,6.8c1.4,2,3.5,3.2,5.9,3.3
					c0.1,0,11.5,0.9,23.7,9.7c16.4,11.9,26.5,32,30,59.7c3.1,24.9,19.6,44.8,47.5,57.7c20.7,9.5,47.6,15,73.8,15
					c10.4,0,19.8-0.9,27.2-2.6c9.6-2.2,15.2-5.8,17.4-10.8c2.9-6.9,4.5-19.6,4-33.1c-0.4-11.7-2.5-29.1-10.1-46.2
					c-9.2-20.7-24.4-35.2-43.8-41.8c-7.8-2.7-16.7-6-26.1-9.4C648.8,709.6,603.8,693,573,693L573,693z"/>
			</g>
			<g>
				<path class="st1" d="M747.5,831.9c-1.4-0.2-2.5-0.5-3.7-0.7c-1.2-0.2-2.4-0.5-3.6-0.8c-2.4-0.6-4.8-1.2-7.1-1.8
					c-2.3-0.7-4.7-1.3-7-2.1l-3.5-1.1l-3.4-1.2c-9.2-3.1-18.2-6.7-27-10.6c-2.2-1-4.4-2.1-6.6-3.1l-3.3-1.6
					c-1.1-0.5-2.1-1.1-3.2-1.6l-6.4-3.3l-6.3-3.5c-4.2-2.3-8.3-4.9-12.4-7.4c-2.1-1.2-4-2.6-6-3.9l-6-4l6.3,3.5
					c2.1,1.1,4.2,2.4,6.3,3.4c4.3,2.1,8.5,4.4,12.9,6.3l6.5,3l6.6,2.7c1.1,0.4,2.2,0.9,3.3,1.4l3.3,1.3c2.2,0.8,4.4,1.7,6.7,2.5
					c9,3.2,18.1,5.9,27.2,8.2l3.4,0.8l3.5,0.8c2.3,0.5,4.6,1,6.9,1.4c2.3,0.4,4.6,0.8,6.9,1.2c1.2,0.2,2.3,0.4,3.5,0.5
					c1.1,0.1,2.3,0.3,3.3,0.4l0.1,0c2.6,0.2,4.6,2.5,4.4,5.2c-0.2,2.6-2.5,4.6-5.2,4.4C747.8,831.9,747.7,831.9,747.5,831.9z"/>
			</g>
			<path class="st1" d="M629.4,786.9c0,0,72.9,48.4,125,48.2c0,0-15.1,9.1-63-2.5c-3.8-0.9-5.6,4.2-2,5.6c13.5,5,31.8,9.6,64.4,7.9
				l-3.8,8.3c0,0-78.4,12.2-129.4-41.6L629.4,786.9z"/>
			<g>
				<path class="st4" d="M708.5,739.6c-53.7-18.4-152.9-62.9-166.8-22.4c0,0,1.7,0.1,4.6,0.7c9.6-5.9,20.8-10.5,30.2-7.6
					c21.1,6.5,53.4,36.5,52.9,76.7c0,0,23.6-20.3-7.9-67.8c0,0,92.6,28,102.6,43.2c8.8,13.4,23.4,54.1,18.9,94.3
					c5.9-1.5,9.9-3.6,10.9-6.1C760.9,834,762.2,758,708.5,739.6z"/>
			</g>
			<g>
				
					<ellipse transform="matrix(0.6055 -0.7958 0.7958 0.6055 -331.1015 863.5336)" class="st4" cx="705.5" cy="765.7" rx="16.8" ry="31.7"/>
			</g>
		</g>
		<g>
			<g>
				<path class="st12" d="M196.2,899.5c-29.3,0-51-9.5-64.5-28.1c-19.4-26.9-16.2-67.4-9.3-88.1c7.2-21.6,53.5-42.1,80.4-52.3
					c38-14.5,79.9-25.1,99.6-25.1c0.5,0,1,0,1.5,0c37.9,1.1,62.4,66.1,63.8,70.1c3.2,7.5,3,23.1-4.9,39.8
					c-10.7,22.6-38,53.8-107.8,74.1C233,896.3,213.2,899.5,196.2,899.5C196.2,899.5,196.2,899.5,196.2,899.5z"/>
				<path class="st1" d="M302.4,709.7c0.5,0,0.9,0,1.4,0c36.1,1,60.4,67.6,60.4,67.6c5.7,13.2,2.7,75.9-110.2,108.8
					c-22.8,6.6-41.9,9.5-57.8,9.5c-85.2,0-79.7-82.5-70.1-111.2C137.2,750.9,264.5,709.7,302.4,709.7 M302.4,702.1
					c-20.1,0-62.5,10.6-100.9,25.3c-33.7,12.9-75.4,32.8-82.7,54.7c-3.9,11.8-6,27.5-5.5,41.8c0.7,19.6,6,36.8,15.3,49.8
					c14.2,19.7,36.9,29.7,67.6,29.7c17.4,0,37.5-3.3,59.9-9.8c71.1-20.7,99.2-52.8,110.2-76.1c8.4-17.8,8.6-34.2,5-42.8
					c-0.7-2-6.9-18.2-17.3-34.7c-15.5-24.6-32.3-37.3-50-37.8C303.5,702.1,303,702.1,302.4,702.1L302.4,702.1z"/>
			</g>
			<path class="st1" d="M325.8,859.8c0,0-40.4,18.4-49.3-3.8c0,0-47.5,30-133.8,22.1c0,0-31.6-17.8-29.2-44.7l180.8-36.8l43.2,38.7
				L325.8,859.8z"/>
			<g>
				
					<linearGradient id="SVGID_19_" gradientUnits="userSpaceOnUse" x1="12968.124" y1="776.0898" x2="13197.4219" y2="776.0898" gradientTransform="matrix(-1 0 0 1 13311.5059 0)">
					<stop  offset="0" style="stop-color:#52FFCE"/>
					<stop  offset="0.9948" style="stop-color:#6700E4"/>
				</linearGradient>
				<path class="st24" d="M160,855.3c-33.6,0-40.6-7.4-42.1-10.6c-4.8-10.3-7.1-42.6,5.1-70.2c8.9-20.2,24.1-34.2,43.9-40.5
					c8.1-2.6,17.2-5.7,26.9-9c36.8-12.6,82.6-28.2,113.6-28.2c19.2,0,31.2,6.1,35.7,18.2c0.4,1.1,0.3,2.4-0.4,3.4
					c-0.7,1-1.8,1.7-3,1.7c-0.1,0-12.7,0.8-26.2,9.6c-18,11.8-29.1,31.8-32.8,59.4c-3,22.4-19.2,40.5-46.7,52.2
					C213.3,850.3,186.4,855.3,160,855.3z"/>
				<path class="st1" d="M307.4,700.7c16.1,0,27.9,4.3,32.1,15.7c0,0-53.2,2.6-62.6,72.4c-6.4,47.5-72.9,62.8-116.9,62.8
					c-20.6,0-36.3-3.4-38.6-8.3c-7.2-15.6-8.5-88,46.6-105.5C206.9,725.3,269.1,700.7,307.4,700.7 M307.4,693v7.6V693
					c-31.6,0-77.7,15.7-114.8,28.4c-9.7,3.3-18.8,6.4-26.9,9c-20.9,6.6-36.9,21.4-46.2,42.6c-12.2,27.7-10.7,61-5,73.4
					c2.3,4.9,7.9,8.2,17.8,10.3c7.5,1.6,17.1,2.5,27.8,2.5c26.8,0,54.4-5.2,75.6-14.2c28.8-12.3,45.7-31.4,48.9-55.2
					c3.6-26.6,14.2-45.8,31.4-56.9c12.4-8,23.9-8.8,24-8.8c2.4-0.1,4.7-1.4,6-3.4c1.3-2,1.6-4.6,0.8-6.9
					C341.6,700,328.4,693,307.4,693L307.4,693z"/>
			</g>
			<path class="st1" d="M116,806.6c0,0,0,17.5,43.2,8.9c0,0-47.5,20.6-0.3,17.7s64.5-23,39.6-28.8c0,0,60.6-20.3,70.9-28.3
				c0,0-5,17.4-3.8,23.9c1.2,6.6,3.8,16.8,3.8,16.8s-106.2,44.1-155.9,16.6C113.6,833.5,111.9,815.8,116,806.6z"/>
			<g>
				<path class="st4" d="M168.1,737.7c-15.6,5-26.7,14.3-34.4,25.6c27.5-12.8,61.3-26.4,129.2-45.5c0,0-14.8,15.8-27.8,62.3
					c0,0,39-87.3,91.5-60.8c7.6-2.6,13-2.9,13-2.9C325.3,677.8,223.2,720.2,168.1,737.7z"/>
			</g>
			<g>
				<path class="st1" d="M133.1,819.4c8.2-1.3,16.4-2.6,24.6-4c8.2-1.4,16.4-2.7,24.5-4.3c-8,2.3-16,4.5-24,6.6
					c-8,2.1-16.1,4.2-24.1,6.3c-1.3,0.3-2.6-0.4-2.9-1.7c-0.3-1.3,0.4-2.6,1.7-2.9C133,819.5,133.1,819.4,133.1,819.4z"/>
			</g>
			<g>
				<path class="st1" d="M133.1,823.7c8.2-1.3,16.4-2.6,24.6-4c8.2-1.4,16.4-2.7,24.5-4.3c-8,2.3-16,4.5-24,6.6
					c-8,2.1-16.1,4.2-24.1,6.3c-1.3,0.3-2.6-0.4-2.9-1.7c-0.3-1.3,0.4-2.6,1.7-2.9C133,823.8,133.1,823.7,133.1,823.7z"/>
			</g>
			<g>
				<path class="st1" d="M133.1,828c8.2-1.3,16.4-2.6,24.6-4c8.2-1.4,16.4-2.7,24.5-4.3c-8,2.3-16,4.5-24,6.6
					c-8,2.1-16.1,4.2-24.1,6.3c-1.3,0.3-2.6-0.4-2.9-1.7c-0.3-1.3,0.4-2.6,1.7-2.9C133,828.1,133.1,828,133.1,828z"/>
			</g>
			<g>
				<path class="st1" d="M133.1,832.3c8.2-1.3,16.4-2.6,24.6-4c8.2-1.4,16.4-2.7,24.5-4.3c-8,2.3-16,4.5-24,6.6
					c-8,2.1-16.1,4.2-24.1,6.3c-1.3,0.3-2.6-0.4-2.9-1.7c-0.3-1.3,0.4-2.6,1.7-2.9C133,832.3,133.1,832.3,133.1,832.3z"/>
			</g>
			<g>
				<path class="st1" d="M280.6,767.5c-8.2,4-16.5,7.8-24.8,11.4c-8.3,3.6-16.7,7.1-25.1,10.4c-8.4,3.3-17,6.4-25.5,9.3
					c-8.6,2.9-17.3,5.5-26,7.7c8.5-3,16.9-6.4,25.1-10c8.2-3.6,16.4-7.4,24.4-11.5c8-4,16-8.2,23.9-12.5c7.9-4.3,15.7-8.8,23.3-13.3
					l0,0c2.3-1.4,5.2-0.6,6.6,1.6s0.6,5.2-1.6,6.6C280.9,767.4,280.8,767.5,280.6,767.5z"/>
			</g>
		</g>
		<g>
			<g>
				<path class="st12" d="M339.9,849.3c-19.3,0-33.1-6.7-41-19.9c-11.7-19.4-12.9-43.5-3.5-67.7c9.3-23.9,28.1-44.2,45.7-49.5
					c3.6-1.2,67.6-22.6,114.9-22.6c21.6,0,36.6,4.6,44.6,13.7c8.3,9.4,11.9,24.8,10.4,44.5c-1.3,16.7-6.2,35.6-13.7,52.1
					c-15.1,33.5-30.1,37.1-35.9,37.1c0,0,0,0,0,0c-2.2,0-4.3-0.4-6.3-1.3c-2.2,0.3-6.9,1-12.2,1c-15.5,0-21.6-5.3-23.8-10.6
					C406.7,832.4,370.6,849.3,339.9,849.3z"/>
				<path class="st1" d="M456,693.4c18.2,0,33.7,3.3,41.7,12.4c27.1,30.8-7.8,127.3-36.3,127.3c-2,0-3.9-0.5-5.8-1.4
					c0,0-5.8,1.1-12.7,1.1c-9.5,0-20.8-2.2-21.2-12.4c0,0-45.5,25.1-81.9,25.1c-15.7,0-29.8-4.7-37.8-18
					c-26.6-44.3,10-102.7,40.1-111.6C342.2,715.9,408.4,693.4,456,693.4 M456,685.8v7.6V685.8C456,685.8,456,685.8,456,685.8
					c-20.4,0-46.1,3.9-76.6,11.5c-21.7,5.4-37.7,10.8-39.5,11.4c-18.9,5.7-38.2,26.5-48.1,51.8c-9.9,25.3-8.5,50.6,3.7,71
					c8.6,14.4,23.5,21.7,44.3,21.7c29.1,0,62.8-14.7,77.8-22c3.6,4.9,10.9,9.4,25.3,9.4c4.8,0,9.2-0.5,11.7-0.9
					c2.2,0.8,4.4,1.2,6.7,1.2c7.6,0,15.3-4.2,22.7-12.5c6-6.6,11.7-15.9,16.7-26.8c7.6-16.8,12.7-36.2,14-53.3
					c1.6-20.7-2.3-37.1-11.3-47.3C494.6,690.7,479,685.8,456,685.8L456,685.8z"/>
			</g>
			<path class="st1" d="M455.7,831.7c29.2,14.9,71-93,42-125.9c-13.7-15.6-49.5-14.1-83.3-8.3c-40.1,18.5-24.2,75.4-18.8,92.4
				c11.5,35.9,42,3,62.5,9.7c20.5,6.6-2.6,18.9-15.8,9.3c-13.2-9.6,6.9-24.1,6.9-24.1c-17.4-10.2-38.2,13.9-38.2,13.9l-35.8-0.6
				c-20.7-13.5,15.1-78.8,16.8-96c-27.8,6.3-49.8,13.8-49.8,13.8c-30.1,8.9-66.7,67.3-40.1,111.6c26.6,44.3,119.7-7.1,119.7-7.1
				C422.4,838.1,455.7,831.7,455.7,831.7z"/>
			<g>
				
					<linearGradient id="SVGID_20_" gradientUnits="userSpaceOnUse" x1="430.1491" y1="1355.5184" x2="545.0025" y2="1355.5184" gradientTransform="matrix(0.9951 9.927121e-02 -9.927121e-02 0.9951 -20.0808 -640.9177)">
					<stop  offset="0" style="stop-color:#52FFCE"/>
					<stop  offset="0.9948" style="stop-color:#6700E4"/>
				</linearGradient>
				<path class="st25" d="M285.1,819.5c-5.1,0-10.2-0.5-14.9-1.4c-2-0.4-3.4-2.3-3.1-4.3c0.2-1,3.9-25.8,13.4-48.1
					c12.7-29.6,39.4-53.5,68.2-60.7l40.6-10.9c0.3-0.1,0.7-0.1,1-0.1c1.5,0,2.9,0.9,3.5,2.3c0.7,1.8,0.1,3.8-1.5,4.8
					c-0.2,0.1-16.6,10.1-31.2,27.5c-19.3,23-26.5,47.5-21.4,72.8c0.3,1.6-0.4,3.2-1.8,4.1C336.8,806.1,313.3,819.5,285.1,819.5z"/>
				<path class="st1" d="M390.2,697.9c0,0-67.2,40.4-54.3,104.3c0,0-23.3,13.5-50.8,13.5c-4.7,0-9.4-0.4-14.2-1.3
					c0,0,3.7-25.1,13.2-47.2c13.4-31.4,40.8-52.3,65.6-58.5L390.2,697.9 M390.2,690.3c-0.7,0-1.3,0.1-2,0.3l-40.6,10.9
					c-14,3.5-27.8,10.9-40.1,21.4c-13.2,11.3-23.8,25.7-30.6,41.5c-9.7,22.7-13.5,48-13.7,49c-0.6,4.1,2.1,7.9,6.1,8.6
					c5,0.9,10.3,1.4,15.6,1.4c29.2,0,53.6-13.9,54.6-14.5c2.8-1.6,4.3-4.9,3.7-8.1c-4.8-24,2-47.4,20.4-69.4
					c14.2-17,30.2-26.8,30.4-26.9c3.3-2,4.6-6,3.1-9.5C396,692,393.2,690.3,390.2,690.3L390.2,690.3z M390.2,705.5L390.2,705.5
					L390.2,705.5L390.2,705.5z"/>
			</g>
			<path class="st4" d="M390.2,697.9l-40.6,10.9c-11.9,3-24.5,9.4-35.7,18.7c21.3-8.4,27.7-9.2,37.4-11.4c0,0-47.2,59.7-16.3,86.7
				c0.6-0.3,0.9-0.5,0.9-0.5C323,738.3,390.2,697.9,390.2,697.9z"/>
		</g>
		<g>
			<g>
				<path class="st12" d="M561.7,856.2c-4.9,0-10-0.7-15-2.1c-31.7-8.9-56.8-46.3-75.2-73.7c-9.1-13.6-19.5-29-24.1-29.3
					c-0.7-0.1-1.4-0.1-2.2-0.1c-5.4,0-11.6,1.4-17.6,2.7c-6,1.3-11.6,2.6-16.6,2.6c-6.4,0-11-2.2-13.6-6.6c-4-6.6-4.9-14.1-2.7-21.3
					c1.9-6,6.8-14.2,19.5-21.1c-1.9-2.4-3.7-5.7-3.5-9.7c0.2-5.1,3.6-9.6,10.1-13.3c0.7-0.4,1.3-0.6,2-0.6c0.5,0,1,0.1,1.5,0.4
					c0.2,0.1,1,0.2,2.3,0.2c4.8,0,15.9-2.1,36.1-16.3c5.5-3.8,12.8-5.8,21.7-5.8c42.2,0,114.1,43.7,129.8,88.5
					c9.7,27.7,6,59.8-9.6,81.7C593.7,847.8,578.5,856.2,561.7,856.2C561.7,856.2,561.7,856.2,561.7,856.2z"/>
				<path class="st1" d="M484.3,666.1c40.5,0,111.1,42.8,126.2,85.9c16.3,46.3-7.8,100.4-48.9,100.4c-4.5,0-9.2-0.6-14-2
					c-49.4-13.9-83.2-101.8-100-103.2c-0.8-0.1-1.6-0.1-2.5-0.1c-11.2,0-24.6,5.3-34.2,5.3c-4.5,0-8.2-1.2-10.3-4.7
					c-6.9-11.5-4.3-28.5,20.1-39.4c0,0-15.3-10.8,1.9-20.7c0,0,1.2,0.5,3.8,0.5c5.5,0,17.4-2.4,38.3-17
					C469.8,667.7,476.5,666.1,484.3,666.1 M484.3,658.5c-9.7,0-17.8,2.2-23.9,6.5c-20.1,14.1-30.4,15.6-33.9,15.6
					c-0.7,0-1-0.1-1.2-0.1c-0.8-0.3-1.7-0.4-2.6-0.4c-1.3,0-2.6,0.3-3.8,1c-5.3,3-11.7,8.4-12,16.5c-0.1,3.2,0.7,6.1,2,8.6
					c-11.2,7.1-15.9,15.2-17.8,21.2c-2.6,8.2-1.5,16.8,3.1,24.4c3.4,5.6,9,8.4,16.9,8.4c5.4,0,11.3-1.3,17.5-2.7
					c5.8-1.3,11.8-2.6,16.7-2.6c0.5,0,1.1,0,1.6,0c0.6,0.3,2.8,1.6,7.6,7.8c4.1,5.2,8.6,12,13.9,19.9c18.7,27.8,44.3,66,77.3,75.2
					c5.4,1.5,10.8,2.3,16.1,2.3c18.1,0,34.4-9,46-25.3c16.3-23,20.2-56.4,10.1-85.2c-7.5-21.4-28.2-44.4-56.6-63
					C534.3,669,505.6,658.5,484.3,658.5L484.3,658.5z"/>
			</g>
			<g>
				<path class="st12" d="M447.4,761.5c0,0-63,7.7-57.9-38.2c0,0-2.3-1.3,31.4-15c34.7-14.1,54.9-26.1,66.7-17"/>
				<path class="st1" d="M447.4,761.5c-3.3,0.7-6.7,1.1-10.2,1.4c-3.4,0.3-6.9,0.3-10.3,0.2c-3.5-0.1-6.9-0.5-10.4-1.2
					c-3.4-0.7-6.9-1.6-10.2-3c-3.3-1.4-6.6-3.2-9.5-5.5c-2.9-2.3-5.4-5.3-7.3-8.7c-1.9-3.3-3-7.1-3.6-10.8
					c-0.6-3.7-0.5-7.4-0.2-11.1l1.9,3.7c-1-0.6-0.9-0.8-1.3-1.2c-0.2-0.3-0.4-0.7-0.5-1c-0.1-0.3-0.1-0.5-0.1-0.8c0-0.3,0-0.5,0-0.7
					c0-0.3,0.1-0.7,0.2-0.9c0.1-0.2,0.1-0.3,0.2-0.5c0.3-0.5,0.5-0.8,0.6-0.9c0.2-0.2,0.3-0.3,0.4-0.4c0.1-0.1,0.2-0.2,0.3-0.3
					c0.4-0.3,0.7-0.6,1-0.8c0.6-0.4,1.1-0.7,1.6-1c1.1-0.6,2.1-1.2,3.1-1.7c2-1,4.1-2,6.1-3c4.1-1.8,8.2-3.6,12.3-5.3l24.7-9.7
					c8.2-3.2,16.5-6.5,25.2-9c4.3-1.2,8.8-2.2,13.4-2.3c2.3,0,4.6,0.1,6.8,0.8c2.2,0.7,4.2,1.8,5.9,3.3c-3.8-2.4-8.3-2.7-12.5-1.9
					c-4.2,0.7-8.3,2.2-12.3,3.8c-4,1.6-8,3.5-12,5.3l-12,5.6c-4,1.9-8.1,3.7-12.1,5.5l-12.2,5.3c-4,1.8-8.1,3.5-12,5.3
					c-2,0.9-3.9,1.8-5.8,2.8c-0.9,0.5-1.9,1-2.7,1.5c-0.4,0.2-0.8,0.5-1.2,0.7c-0.2,0.1-0.3,0.2-0.3,0.2c0,0,0,0,0,0l0.1-0.1
					c0-0.1,0.2-0.2,0.4-0.6c0.1-0.1,0.1-0.3,0.2-0.4c0.1-0.2,0.1-0.5,0.2-0.8c0-0.1,0-0.3,0-0.6c0-0.3-0.1-0.5-0.1-0.8
					c-0.1-0.3-0.3-0.7-0.5-1c-0.4-0.4-0.3-0.6-1.3-1.2l1.9,3.7c-0.7,6.2-0.3,12.5,2.4,17.8c2.6,5.3,7.3,9.5,13,12.4
					c2.8,1.4,5.9,2.6,9,3.6c3.1,0.9,6.4,1.6,9.7,2.2C433.8,760.9,440.6,761.5,447.4,761.5z"/>
			</g>
			<g>
				<path class="st12" d="M499.3,807c0,0-33.9-20-60.7-7.5c-27.7,12.9-45.2-29.7-33.6-39.1c18.7-15.1,54.8-25.7,68.9-17.3"/>
				<path class="st1" d="M499.3,807c-3.9-1.7-7.9-3.1-12-4.3c-4-1.3-8.1-2.2-12.2-3c-8.2-1.5-16.5-1.9-24.3-0.4
					c-1.9,0.4-3.9,0.9-5.7,1.5c-0.9,0.3-1.8,0.7-2.7,1c-0.4,0.2-0.9,0.4-1.3,0.6l-1.4,0.7c-4.3,2-9.4,3.1-14.4,2.4
					c-5-0.6-9.7-2.9-13.4-5.9c-3.8-3-6.7-6.8-9-10.9c-2.3-4.1-3.9-8.5-4.7-13.2c-0.4-2.3-0.6-4.8-0.4-7.3c0.2-2.5,0.8-5.2,2.4-7.7
					c0.4-0.6,0.9-1.2,1.4-1.8c0.5-0.6,1.2-1.1,1.6-1.4c0.9-0.7,1.8-1.3,2.7-2c1.8-1.3,3.7-2.4,5.6-3.5c3.8-2.2,7.8-4.1,11.8-5.7
					c8.1-3.3,16.6-5.6,25.2-6.7c4.3-0.5,8.7-0.7,13-0.3c4.3,0.4,8.7,1.5,12.2,4c-1.9-0.9-4-1.4-6.1-1.7c-2.1-0.3-4.2-0.3-6.2-0.2
					c-4.2,0.2-8.3,0.8-12.4,1.8c-8.1,1.9-16,4.9-23.4,8.5c-3.7,1.8-7.3,3.8-10.8,6c-1.7,1.1-3.4,2.3-5,3.5c-0.8,0.6-1.6,1.2-2.4,1.9
					c-0.5,0.4-0.6,0.5-0.8,0.7c-0.2,0.2-0.4,0.5-0.5,0.7c-0.7,1.1-1.1,2.7-1.2,4.4c-0.1,1.7,0,3.6,0.4,5.4c0.7,3.7,2.1,7.4,4,10.7
					c1.9,3.3,4.3,6.4,7.2,8.7c2.8,2.3,6.1,3.9,9.6,4.4c3.4,0.5,7-0.1,10.5-1.6l1.5-0.6c0.5-0.2,1.1-0.4,1.6-0.6
					c1.1-0.4,2.2-0.8,3.3-1.1c2.2-0.6,4.5-1.1,6.7-1.3c9.1-1.1,18,0.2,26.3,2.8C484.4,798.3,492.3,802,499.3,807z"/>
			</g>
			<path class="st1" d="M505.9,671.9c0,0,48.9,78.3,33.9,113.1c0,0-5.9,14.6,17.7,30.6c23.5,16-28.1,6.5-41.2-25.2
				c-13.1-31.7-94.1-15.4-101.3-2.5c0,0,0,17.1,16.1,14.6c16.1-2.5,61.8-6.4,84.1,24.1c0,0,42.3,45.4,83.1,7.2l14.5-14.3
				C612.6,819.5,556.6,682.5,505.9,671.9z"/>
			<g>
				
					<linearGradient id="SVGID_21_" gradientUnits="userSpaceOnUse" x1="1123.3231" y1="1292.1914" x2="1245.5178" y2="1292.1914" gradientTransform="matrix(1.0836 0.1013 -9.310517e-02 0.9957 -602.6987 -665.5906)">
					<stop  offset="0" style="stop-color:#52FFCE"/>
					<stop  offset="0.9948" style="stop-color:#6700E4"/>
				</linearGradient>
				<path class="st26" d="M612.6,823.3c-0.8,0-1.5-0.2-2.2-0.7l-44.2-30.2c-1.1-0.8-1.8-2.1-1.7-3.5c2.7-32.8-6.8-63.6-28.3-91.4
					c-16.2-20.9-33.4-32.1-33.6-32.2c-1.6-1.1-2.2-3.2-1.4-4.9c0.7-1.3,2-2.1,3.4-2.1c0.4,0,0.9,0.1,1.3,0.2
					c55.9,19.9,92.2,48.5,107.9,85c17.6,40.8,2.7,76,2,77.5c-0.5,1-1.4,1.8-2.4,2.1C613.3,823.3,613,823.3,612.6,823.3z"/>
				<path class="st1" d="M504.9,662.2c152.7,54.5,107.8,157.3,107.8,157.3l-44.2-30.2C575.2,707.5,504.9,662.2,504.9,662.2
					 M504.9,654.5c-2.8,0-5.5,1.6-6.9,4.3c-1.7,3.5-0.5,7.7,2.7,9.8l0,0c0.2,0.1,17,11.2,32.8,31.6c9.1,11.9,16.1,24.5,20.8,37.6
					c5.8,16.3,8,33.4,6.6,50.9c-0.2,2.7,1,5.4,3.3,6.9l44.2,30.2c1.3,0.9,2.8,1.3,4.3,1.3c0.7,0,1.4-0.1,2.1-0.3
					c2.2-0.6,4-2.2,4.9-4.3c0.7-1.5,16.3-38.2-2-80.5c-16.2-37.5-53.3-66.8-110.2-87.1C506.6,654.7,505.7,654.5,504.9,654.5
					L504.9,654.5z"/>
			</g>
			<g>
				<path class="st4" d="M504.9,662.2c0,0,8.9,5.7,20,16.8c28.8,12.9,81.3,45.9,93.1,118.8C622.2,764.6,613.9,701.1,504.9,662.2z"/>
			</g>
			<path class="st1" d="M395.2,742.2c0,0,17.9-9.4,28-13.2c21.9-8.3,56.1-1.9,58.4,5.4c3,9.4-4.2,9.7-17.6,6c0,0-26-3.5-52.5,16.2
				C411.5,756.5,392.9,750.3,395.2,742.2z"/>
			<path class="st1" d="M416.7,708.1c0,0,50.2-23.3,64.7-19.6c0,0-10.3-11.4-27.8-2.2c-17.5,9.1-42.5,8.8-42.5,8.8
				S408.6,706.2,416.7,708.1z"/>
		</g>
	</g>
</g>
</svg>
