<?xml version="1.0" encoding="utf-8"?>
<!-- Generator: Adobe Illustrator 22.0.1, SVG Export Plug-In . SVG Version: 6.00 Build 0)  -->
<svg version="1.1" id="Capa_1" xmlns="http://www.w3.org/2000/svg" xmlns:xlink="http://www.w3.org/1999/xlink" x="0px" y="0px"
	 viewBox="0 0 1097.5 1215.7" style="enable-background:new 0 0 1097.5 1215.7;" xml:space="preserve">
<style type="text/css">
	.st0{fill:#FFFFFF;stroke:#5E004D;stroke-width:7.3281;stroke-linecap:round;stroke-linejoin:round;stroke-miterlimit:10;}
	.st1{fill:#5E004D;}
	.st2{fill:url(#SVGID_1_);stroke:#5E004D;stroke-width:7.3281;stroke-linecap:round;stroke-linejoin:round;stroke-miterlimit:10;}
	.st3{fill:#52FFCE;stroke:#5E004D;stroke-width:4.5801;stroke-linecap:round;stroke-linejoin:round;stroke-miterlimit:10;}
	.st4{fill:url(#SVGID_2_);}
	.st5{fill:url(#SVGID_3_);}
	.st6{fill:url(#SVGID_4_);}
	.st7{fill:#FFFFFF;}
	.st8{fill:#5E004D;stroke:#5E004D;stroke-width:0.916;stroke-linecap:round;stroke-linejoin:round;stroke-miterlimit:10;}
	.st9{fill:url(#SVGID_5_);}
	.st10{fill:url(#SVGID_6_);}
	.st11{fill:url(#SVGID_7_);}
	.st12{fill:url(#SVGID_8_);}
	.st13{fill:url(#SVGID_9_);}
	.st14{fill:url(#SVGID_10_);}
	.st15{fill:url(#SVGID_11_);}
	.st16{fill:url(#SVGID_12_);}
	.st17{fill:url(#SVGID_13_);}
	.st18{fill:url(#SVGID_14_);}
	.st19{fill:url(#SVGID_15_);}
	.st20{fill:url(#SVGID_16_);}
	.st21{fill:url(#SVGID_17_);}
	.st22{fill:url(#SVGID_18_);}
	.st23{fill:url(#SVGID_19_);}
	.st24{fill:url(#SVGID_20_);}
	.st25{fill:#5E004D;stroke:#5E004D;stroke-width:7.3281;stroke-linecap:round;stroke-linejoin:round;stroke-miterlimit:10;}
	.st26{fill:url(#SVGID_21_);stroke:#5E004D;stroke-width:7.3281;stroke-linecap:round;stroke-linejoin:round;stroke-miterlimit:10;}
	.st27{fill:url(#SVGID_22_);stroke:#5E004D;stroke-width:7.3281;stroke-linecap:round;stroke-linejoin:round;stroke-miterlimit:10;}
</style>
<g>
	<g>
		<path class="st0" d="M279.3,681c0,0-81.2-3.1-146.4,34.2c-82.2,47.1-33.2,109-6.8,115.8c26.4,6.7,141.8-4.4,141.8-4.4
			S330.5,710.5,279.3,681z"/>
		<path class="st1" d="M144.9,736.6c0,0,18.1-28.8-21.5-15.4c0,0,53.1-26.2,72.7-30.5l25.7,35.6L144.9,736.6z"/>
		<path class="st0" d="M563.5,677.8c0,0,81.3,0.2,144.9,40.1c80.2,50.3,28.8,110.3,2.1,115.9S569,823.8,569,823.8
			S511.2,705.2,563.5,677.8z"/>
		<path class="st1" d="M670.9,699.2c0,0-23.5,7.2-24.9,31.9l-39.8-16.5l26.5-28.1L670.9,699.2z"/>
		<linearGradient id="SVGID_1_" gradientUnits="userSpaceOnUse" x1="156.5405" y1="932.2953" x2="730.4658" y2="932.2953">
			<stop  offset="0" style="stop-color:#52FFCE"/>
			<stop  offset="0.9948" style="stop-color:#6700E4"/>
		</linearGradient>
		<path class="st2" d="M723.3,1039.7C711,998,650.1,931.9,650.1,931.9c-0.4-0.2-0.8-0.3-1.2-0.5c0-0.4-0.1-0.8-0.1-1.2
			C646.5,902,609,810.7,607.6,694l-380.4,17.6c0,0,33.8,144.4,1,232.6c-17.3,17.6-58,61.6-66.8,94.4c-17.3,64.3,15.3,106.3,43,119.1
			c14.7,6.8,137.8,26.8,160.2-4.8l-0.1-19.6c-6.7-23.5,1-49.1,19.3-63.8c2.6-2.1,5.4-3.9,8.2-5.4c8.4,0.4,17.1,0.6,26.2,0.6
			c30.1,0,56.3-1.7,79.2-4.7c5.2,4.2,10.3,8.2,15.1,11.8c18.7,14.2,27,39.5,20.8,63.3l-5.2,19.7c23.1,31.1,151.2,7.6,165.7,0.4
			C721.1,1141.7,742.1,1103.5,723.3,1039.7z"/>
		<path class="st1" d="M157.7,1064.7c0,0,109.4-24.7,180.8,11l-5.5,30.2l-175.7-35.7L157.7,1064.7z"/>
		<path class="st1" d="M662.2,945.7c0,0-17.5,33.9-32.6,42.1c0,0,8.2-15.1,13.7-35.7c0,0-167.5,107.2-396.8,31.7l-11,8.1l-19.9-34.5
			l11.7-12.2l422.9-15.1L662.2,945.7z"/>
		<path class="st1" d="M283.7,1026.7c47.9,12.4,171.6,36.8,293.3-1.7c2.5-0.8,4.1,2.4,2.1,4l-26.4,20.5c0,0,14.7-6.1,28-12.2
			c4.9-2.2,9.3,3.7,5.9,7.8c-8.3,9.9-19.2,20.8-28.4,23.6c0,0,67.3,8.2,6.8,78.2l-37,8.3c0,0,32.2-54.9-18.8-90.6l-127.2,0.1
			c0,0-24.4,19.7-18.9,59.9l-101.5-29.8c0,0,8-20.7,25.3-17.9c17.3,2.8,22.7-10.9,22.7-10.9s0.1,0.1-10-6.7
			c-2.6-1.7-1.3-5.8,1.8-5.8c7.3,0.1,11.4-3.3-19.8-22.1C279.1,1030,280.8,1026,283.7,1026.7z"/>
		<path class="st3" d="M732.3,1070.2c0,0-75.1-5.5-205.5,25.2l-5.5,69.5l164.8-6.9C686.1,1158.1,744.2,1123.8,732.3,1070.2z"/>
		<path class="st1" d="M624.7,1077c0,0-50,19.8-48.5,24.3c1.4,4.6,24.8-10.5,78.3-10.5c0,0-71.4,22-78.3,28.8c0,0,53.5-11,78.3-11
			c0,0-70.8,25.6-73.2,36.1l-57.3,20.2l1.4-70L624.7,1077z"/>
		<polygon class="st1" points="323.2,729.9 539.6,726.3 465.5,891.1 388.6,885.6 		"/>
		<g>
			<linearGradient id="SVGID_2_" gradientUnits="userSpaceOnUse" x1="358.5012" y1="825.1526" x2="486.5594" y2="825.1526">
				<stop  offset="0" style="stop-color:#52FFCE"/>
				<stop  offset="0.9948" style="stop-color:#6700E4"/>
			</linearGradient>
			<path class="st4" d="M364.6,876.2c-0.6,0-1.2-0.1-1.7-0.4c-1-0.5-1.7-1.5-1.9-2.6l-2.4-13.1c-0.3-1.4,0.4-2.9,1.6-3.7
				c0.9-0.6,89.9-59.5,104.4-80.7c0.7-1,1.8-1.6,3-1.6c0.5,0,1,0.1,1.5,0.3l15.3,7.1c1,0.5,1.8,1.4,2,2.6s-0.1,2.3-0.8,3.2
				c-0.5,0.6-51,58.4-119.6,88.6C365.6,876.1,365.1,876.2,364.6,876.2z"/>
			<path class="st1" d="M467.6,777.8l15.3,7.1c0,0-49.7,57.5-118.3,87.7l-2.4-13.1C362.2,859.4,452.5,799.8,467.6,777.8
				 M467.6,770.5c-2.4,0-4.6,1.1-6,3.2c-11.7,17.1-78.6,63.3-103.4,79.7c-2.5,1.6-3.7,4.6-3.2,7.5l2.4,13.1c0.4,2.2,1.8,4.1,3.8,5.1
				c1.1,0.6,2.2,0.8,3.4,0.8c1,0,2-0.2,3-0.6c20-8.8,51.3-25.7,86.7-56.3c21.2-18.3,33.6-32.7,34.2-33.3c1.5-1.7,2.1-4.1,1.6-6.3
				c-0.5-2.3-2-4.1-4.1-5.1l-15.3-7.1C469.6,770.7,468.6,770.5,467.6,770.5L467.6,770.5z"/>
		</g>
		<g>
			
				<linearGradient id="SVGID_3_" gradientUnits="userSpaceOnUse" x1="6956.5806" y1="829.2718" x2="7084.6387" y2="829.2718" gradientTransform="matrix(-1 0 0 1 7440.3945 0)">
				<stop  offset="0" style="stop-color:#52FFCE"/>
				<stop  offset="0.9948" style="stop-color:#6700E4"/>
			</linearGradient>
			<path class="st5" d="M477.7,872.1c-0.4,0-0.8-0.1-1.3-0.2c-68.6-24.9-119.1-72.7-119.6-73.2c-0.9-0.9-1.3-2.1-1.1-3.4
				s1.1-2.2,2.3-2.7l15.3-5.8c0.4-0.2,0.9-0.2,1.3-0.2c1.1,0,2.1,0.5,2.8,1.3c14.5,17.4,103.4,66.1,104.3,66.6
				c1.4,0.8,2.2,2.4,1.8,4l-2.4,10.8c-0.2,1-0.9,1.9-1.8,2.4C478.9,871.9,478.3,872.1,477.7,872.1z"/>
			<path class="st1" d="M374.7,790.1c15.1,18.1,105.4,67.4,105.4,67.4l-2.4,10.8c-68.6-25-118.3-72.4-118.3-72.4L374.7,790.1
				 M374.7,782.8c-0.9,0-1.8,0.2-2.6,0.5l-15.3,5.8c-2.3,0.9-4.1,2.9-4.6,5.4c-0.5,2.5,0.3,5,2.1,6.7c0.5,0.5,13,12.4,34.2,27.5
				c19.5,13.9,50.4,33.3,86.6,46.5c0.8,0.3,1.7,0.4,2.5,0.4c1.2,0,2.4-0.3,3.5-0.9c1.8-1,3.2-2.8,3.6-4.8l2.4-10.8
				c0.7-3.2-0.8-6.5-3.6-8c-24.8-13.5-91.6-51.7-103.3-65.7C379,783.7,376.9,782.8,374.7,782.8L374.7,782.8z"/>
		</g>
		<path class="st3" d="M500.5,718.7c0,0-37.9,148.3-63.2,170.2l-48.1-2.7c0,0-50-145.5-48.8-170.2l-55.1,0.3
			c0,0,33.7,163.1,79.1,202.9h102.2c0,0,58.5-74.1,92.8-203.2L500.5,718.7z"/>
		<path class="st1" d="M463.4,846.4c0,0,26.2,9,41.2,11.4c0,0,56.3,6.5,63.1,14.7l38.4-37.1l-128.4-32L463.4,846.4z"/>
		<path class="st1" d="M286.9,868.7c0,0,34.5-20.4,41-9.6c0,0,38.3-5.3,47.1-9.6l-14.5-51.8l-112.6,35.1l-5.5,30.2L286.9,868.7z"/>
		<g>
			<path class="st1" d="M429.3,994.7c-67.8,0-136.1-16.4-203-48.8c-0.9-0.4-1.4-1.4-1.3-2.3c0-0.3,4.3-35,15-81.4
				c0.2-1.1,1.2-1.8,2.2-1.8c0.1,0,0.3,0,0.4,0c0.8,0.1,76.8,12.9,172.1,12.9c80.1,0,150.3-8.8,208.5-26.1c0.2-0.1,0.4-0.1,0.7-0.1
				c0.6,0,1.1,0.2,1.6,0.6c1.3,1.2,31.1,29.8,27,79.8c-0.1,0.6-0.4,1.2-0.9,1.6c-0.2,0.2-22.2,16.6-60.4,32.8
				C555.9,977,499.2,994.7,429.3,994.7z"/>
			<path class="st1" d="M623.9,849.5c0,0,30.4,28.5,26.2,77.9c0,0-86.2,65-220.9,65c-59.1,0-127.5-12.5-202-48.5
				c0,0,4.1-34.3,14.9-81.2c0,0,75.8,13,172.5,13C480.6,875.7,556,869.7,623.9,849.5 M623.9,845c-0.4,0-0.9,0.1-1.3,0.2
				c-58,17.2-128,26-207.9,26c-95.2,0-171-12.8-171.8-12.9c-0.3,0-0.5-0.1-0.8-0.1c-2.1,0-4,1.4-4.5,3.5c-10.8,46.5-15,81.3-15,81.7
				c-0.2,1.9,0.8,3.8,2.6,4.7c67.3,32.5,135.9,49,204,49c31,0,62.1-3.5,92.3-10.3c24.2-5.5,47.9-13.1,70.4-22.6
				c38.5-16.3,60-32.4,60.9-33.1c1-0.8,1.7-2,1.8-3.3c2.2-26.6-5.4-47.3-12.1-60c-7.3-13.8-15.2-21.3-15.6-21.6
				C626.2,845.4,625.1,845,623.9,845L623.9,845z"/>
		</g>
		<linearGradient id="SVGID_4_" gradientUnits="userSpaceOnUse" x1="511.7498" y1="919.2513" x2="650.1729" y2="919.2513">
			<stop  offset="0" style="stop-color:#52FFCE"/>
			<stop  offset="0.9948" style="stop-color:#6700E4"/>
		</linearGradient>
		<path class="st6" d="M617.2,857.5c0,0-40.7,12.3-105.5,15c0,0,40.1,5.8,67.8,9c4.6,0.5,5.4,6.9,1.1,8.6
			c-13.3,5.2-26.8,12.2-15.6,15.4c19.2,5.5,54.9-1.4,43.9,9.6c-11,11-74.1,15.6-64.5,20.1c9.6,4.6,57.7,3.2,64.5,0.5
			c0,0-48.9,27.5-82.8,45.3c0,0,95.2-28.8,124-52.2C650.2,928.8,641.9,872.7,617.2,857.5z"/>
		<g>
			<circle class="st7" cx="684.5" cy="559.5" r="67.3"/>
			<path class="st1" d="M752.1,559.5c0,8.9-1.6,17.7-4.6,26.1c-3.1,8.4-7.7,16.3-13.8,23.1c-6.1,6.8-13.7,12.3-22.2,15.9
				c-8.5,3.7-17.8,5.4-27,5.2c-9.2-0.2-18.3-2.5-26.5-6.3c-4.1-1.9-8-4.2-11.7-6.8c-3.7-2.6-7.1-5.6-10.2-8.8
				c-6.2-6.4-11.3-13.9-14.9-22.2c-3.5-8.2-5.6-17.2-6-26.2c-0.3-9.1,1.1-18.3,4.4-26.9c3.3-8.6,8.4-16.5,14.9-23.1
				c6.4-6.7,14.2-12,22.8-15.7c8.6-3.7,17.9-5.5,27.2-5.5c9.3,0.1,18.6,2,27.1,5.7c1.1,0.5,2.1,1,3.1,1.5c1,0.5,2,1.1,3.1,1.7
				c1,0.6,2,1.2,2.9,1.8c1,0.6,1.9,1.3,2.8,2c3.7,2.7,7.1,5.8,10.2,9.2c6.1,6.8,10.7,14.8,13.8,23.2
				C750.6,541.8,752.2,550.6,752.1,559.5z M751.4,559.5c0-8.8-2-17.5-5.7-25.4c-3.7-7.9-9-14.8-15.4-20.5c-3.2-2.8-6.6-5.3-10.2-7.5
				c-0.9-0.5-1.8-1.1-2.7-1.6c-0.9-0.5-1.9-1-2.8-1.4c-1-0.4-1.9-0.9-2.8-1.3c-1-0.4-1.9-0.8-2.9-1.2c-7.8-3-16.1-4.5-24.4-4.5
				c-8.3,0-16.6,1.7-24.3,4.7c-7.7,3.1-14.8,7.7-20.8,13.5c-12,11.6-19.5,28-20.1,45.1c-0.3,8.5,1,17.2,4.3,25.3
				c3.2,8,8.1,15.4,14.3,21.5c3.1,3,6.5,5.7,10.2,8c3.7,2.3,7.5,4.2,11.6,5.6c8,2.9,16.6,4.2,25,3.9c16.8-0.5,33.2-6.9,45.9-18.3
				c6.3-5.7,11.7-12.6,15.4-20.5C749.5,577,751.4,568.2,751.4,559.5z"/>
		</g>
		<g>
			<path class="st1" d="M701.9,598.5c-18.7,5.5-38.3-5.2-43.8-23.9c-5.5-18.7,5.2-38.3,23.9-43.8c18.7-5.5,38.3,5.2,43.8,23.9
				c0,0-15.2-6.3-17.3-0.1c-2.1,6.2-3.4,30.9-16.5,30.2C679,584.2,701.9,598.5,701.9,598.5z"/>
			<path class="st1" d="M702.3,598.6c-0.4,0.2-0.8,0.5-1.3,0.7c-0.2,0.1-0.6,0.2-0.8,0.3l-0.6,0.2c-0.8,0.3-1.7,0.5-2.6,0.8
				c-1.7,0.4-3.5,0.7-5.3,0.9c-3.6,0.3-7.3-0.1-10.9-0.9c-7.2-1.8-13.8-5.9-18.7-11.7c-4.9-5.8-7.9-13.1-8.3-20.7
				c-0.4-7.6,1.9-15,5.7-21.1c3.9-6.1,9.3-11.1,15.6-14.5c6.3-3.4,13.5-5.1,20.8-4.8c7.3,0.3,14.7,2.9,20.6,7.5
				c6,4.6,10.5,11.2,12.8,18.5c0.6,1.9-0.5,4-2.4,4.6c-0.8,0.3-1.6,0.2-2.3,0l-0.2-0.1c-2.8-1-5.9-1.9-8.7-2.2
				c-1.4-0.2-2.7-0.2-3.4,0.1c-0.3,0.1-0.3,0.2-0.2,0c0.1-0.1,0.1-0.1,0.1-0.2l0,0l0,0.1l-0.1,0.2l-0.1,0.5c-0.3,1.4-0.7,3-1,4.6
				c-0.3,1.6-0.7,3.3-1.1,4.9c-0.8,3.3-1.8,6.7-3.2,10c-0.7,1.7-1.6,3.3-2.7,4.9c-1.1,1.6-2.5,3.2-4.2,4.4c-1.8,1.2-4,2-6.2,2.1
				c-0.5,0-1.1,0-1.6,0l-1.1-0.1c-0.3,0-0.6,0-0.8,0c-0.2,0-0.3,0.1-0.1-0.1c0.1-0.1,0.3-0.3,0.4-0.6c0.1-0.3,0.1-0.5,0.1-0.6
				c-0.1-0.2-0.1,0,0,0.2c0.2,0.5,0.6,1.1,1.1,1.6c0.9,1.2,2.1,2.3,3.2,3.5c1.2,1.1,2.4,2.2,3.6,3.4l1.9,1.7l0.9,0.8l0.5,0.4
				l0.2,0.2l0.1,0.1l0.1,0.1C702.2,598.2,702.3,598.4,702.3,598.6z M701.6,598.5c-0.1,0.1,0,0.3,0.1,0.3l-0.1,0l-0.1-0.1l-0.3-0.1
				l-0.6-0.3l-1.1-0.5l-2.2-1.1c-1.5-0.8-2.9-1.6-4.4-2.5c-1.4-0.9-2.8-1.9-4.2-3.1c-0.7-0.6-1.4-1.2-2-2.2
				c-0.3-0.5-0.7-1.1-0.9-2.1c-0.1-0.5-0.1-1.2,0.2-1.9c0.3-0.7,0.7-1.2,1.2-1.5c0.9-0.6,1.6-0.8,2.2-1c0.6-0.1,1.1-0.2,1.6-0.3
				c0.5,0,1-0.1,1.4-0.1c0.3,0,0.6,0,0.9-0.1c1.1-0.2,2.1-0.6,3-1.4c1.7-1.5,3.1-4.1,4.1-6.9c1-2.8,1.7-5.9,2.3-9l0.9-4.8
				c0.3-1.6,0.6-3.3,1-5.1l0.2-0.7l0.1-0.4l0.1-0.2l0.1-0.3c0.3-0.8,0.8-1.6,1.4-2.3c1.2-1.4,2.8-2.1,4-2.4c2.6-0.6,4.6-0.4,6.5-0.2
				c1.9,0.3,3.7,0.7,5.4,1.3c1.7,0.5,3.3,1.1,5.1,1.8l-4.9,4.5c-1.6-6-5-11.5-9.7-15.8c-4.7-4.2-10.6-7.4-17.1-8.5
				c-1.6-0.3-3.3-0.4-4.9-0.5c-1.7,0-3.3,0.1-5,0.3c-1.6,0.3-3.3,0.6-4.9,1.1c-1.6,0.5-3.1,1.1-4.6,1.9c-3,1.5-5.7,3.6-8,6
				c-1.1,1.2-2.2,2.5-3.1,3.9c-0.9,1.4-1.7,2.8-2.4,4.3c-2.8,6-3.5,12.7-2.6,18.9c0.9,6.2,3.2,12.3,7.1,17.3c3.8,5,9.1,9,15.2,11.3
				c1.5,0.6,3.1,1.1,4.7,1.5c1.6,0.4,3.2,0.6,4.9,0.8c1.7,0.2,3.3,0.2,5,0.2c0.8,0,1.7-0.1,2.5-0.2l0.6-0.1c0.2,0,0.3,0,0.5,0
				C700.7,598.4,701.1,598.5,701.6,598.5z"/>
		</g>
		<g>
			<circle class="st7" cx="138.1" cy="559.5" r="67.3"/>
			<path class="st1" d="M71.1,559.5c0,8.8,1.9,17.5,5.6,25.4c3.7,7.9,9,14.9,15.4,20.5c12.7,11.4,29.1,17.8,45.9,18.3
				c8.4,0.2,16.9-1,25-3.9c4-1.4,7.9-3.3,11.6-5.6c3.6-2.3,7.1-5,10.2-8c6.2-6,11.1-13.4,14.3-21.5c3.2-8,4.6-16.7,4.3-25.3
				c-0.7-17.1-8.1-33.5-20.1-45.1c-6-5.8-13.1-10.4-20.8-13.5c-7.7-3.1-16-4.7-24.3-4.7c-8.3-0.1-16.6,1.5-24.4,4.5
				c-1,0.4-1.9,0.8-2.9,1.2c-1,0.4-1.9,0.9-2.8,1.3c-0.9,0.5-1.9,1-2.8,1.4c-0.9,0.5-1.8,1-2.7,1.6c-3.6,2.2-7,4.7-10.2,7.5
				c-6.3,5.7-11.7,12.6-15.4,20.5C73.1,542,71.2,550.7,71.1,559.5z M70.4,559.5c0-8.9,1.5-17.7,4.6-26.1c3.1-8.4,7.7-16.4,13.8-23.2
				c3.1-3.4,6.5-6.5,10.2-9.2c0.9-0.7,1.9-1.3,2.8-2c1-0.6,1.9-1.2,2.9-1.8c1-0.5,2-1.1,3.1-1.7c1-0.5,2.1-1,3.1-1.5
				c8.5-3.7,17.8-5.7,27.1-5.7c9.3,0,18.7,1.8,27.2,5.5c8.6,3.7,16.4,9,22.8,15.7c6.4,6.6,11.6,14.5,14.9,23.1
				c3.3,8.6,4.7,17.8,4.4,26.9c-0.3,9.1-2.4,18-6,26.2c-3.6,8.2-8.7,15.8-14.9,22.2c-3.1,3.2-6.5,6.2-10.2,8.8
				c-3.6,2.6-7.6,4.9-11.7,6.8c-8.2,3.8-17.3,6.1-26.5,6.3c-9.2,0.2-18.5-1.5-27-5.2c-8.5-3.6-16.1-9.2-22.2-15.9
				c-6.1-6.8-10.7-14.7-13.8-23.1C72,577.2,70.4,568.3,70.4,559.5z"/>
		</g>
		<path class="st8" d="M87.4,515.2c0,0,0.6,12.6,8.8,28.5l46.7,54.9c0,0,1.4,18.4-4.1,27.5c0,0,38-6.9,42.3-18.5
			s-65.7-117.4-65.7-117.4L87.4,515.2z"/>
		<g>
			<path class="st1" d="M120.6,598.5c18.7,5.5,38.3-5.2,43.8-23.9c5.5-18.7-5.2-38.3-23.9-43.8c-18.7-5.5-38.3,5.2-43.8,23.9
				c0,0,11.8-12.4,18-3.5l12.4,15.1c0,0-16.5,20.6,7.6,22.7L120.6,598.5z"/>
			<path class="st1" d="M121,598.5c0.5,0,0.9-0.1,1.2-0.1c0.2,0,0.3,0,0.5,0l0.6,0.1c0.9,0.1,1.7,0.1,2.5,0.2c1.7,0,3.4,0,5-0.2
				c1.7-0.2,3.3-0.5,4.9-0.8c1.6-0.4,3.2-0.9,4.7-1.5c6.1-2.3,11.3-6.3,15.2-11.3c3.8-5,6.2-11,7-17.3c0.9-6.2,0.1-12.9-2.6-18.9
				c-2.7-6-7.5-11.2-13.5-14.2c-5.9-3.1-12.9-4.1-19.4-3c-6.5,1.1-12.4,4.2-17.1,8.5c-4.7,4.3-8.1,9.8-9.7,15.8l-6.1-3.5
				c0.8-0.8,1.4-1.4,2.2-2.1c0.7-0.6,1.5-1.3,2.3-1.9c1.6-1.2,3.3-2.3,5.4-3.1c1-0.4,2.2-0.8,3.4-0.9c1.2-0.2,2.6-0.2,4,0.1
				c1.4,0.3,2.7,1,3.8,1.8c1.1,0.8,2,1.8,2.7,2.8l-0.2-0.3l3.1,3.8l3,3.8c2,2.6,4,5.2,5.9,7.8l0.1,0.2c0.9,1.3,0.9,3-0.1,4.2
				c-0.3,0.4-0.7,0.9-1,1.4c-0.3,0.5-0.7,1-1,1.5c-0.6,1-1.2,2.1-1.7,3.2c-0.9,2.1-1.5,4.3-1.2,6c0.1,0.8,0.4,1.5,1,2.2
				c0.5,0.6,1.3,1.2,2.2,1.7c1.9,1,4.4,1.5,6.8,1.8l0.4,0.1c1.4,0.2,2.4,1.5,2.2,2.9c-0.1,0.9-0.7,1.6-1.4,2
				c-1.1,0.6-2.2,1.1-3.3,1.6c-1.1,0.5-2.4,1-3.6,1.6c-1.3,0.6-2.6,1.1-4,1.8C123.9,596.9,122.4,597.7,121,598.5z M120.3,598.6
				c0.9-0.8,1.8-1.6,2.7-2.6l3-3c1.1-1,2.2-2.1,3.4-3.2c1.2-1.1,2.4-2.1,3.7-3.1l1.3,4.9c-2.9-0.2-5.8-0.6-8.9-1.9
				c-1.5-0.7-3-1.6-4.3-3c-1.3-1.4-2.2-3.2-2.6-5c-0.4-1.8-0.3-3.6-0.1-5.2c0.3-1.6,0.8-3.1,1.3-4.6c0.6-1.4,1.2-2.8,2-4.1
				c0.4-0.6,0.8-1.3,1.2-1.9c0.4-0.6,0.8-1.2,1.3-1.9l0,4.4c-2.2-2.4-4.3-4.9-6.5-7.3l-3.2-3.7l-3.1-3.8c-0.1-0.1-0.1-0.1-0.2-0.2
				l0,0c-0.6-0.9-1.2-1.3-1.8-1.5c-0.6-0.2-1.7-0.1-2.9,0.3c-1.2,0.4-2.5,1.2-3.8,2c-0.6,0.4-1.3,0.9-1.9,1.4
				c-0.6,0.5-1.2,1.1-1.7,1.5l-0.2,0.2c-1.4,1.4-3.7,1.3-5.1-0.1c-0.9-1-1.2-2.4-0.8-3.6c2.3-7.3,6.8-13.8,12.8-18.4
				c6-4.6,13.3-7.1,20.6-7.5c7.3-0.4,14.5,1.3,20.8,4.6c6.3,3.4,11.8,8.3,15.7,14.5c1,1.5,1.8,3.2,2.6,4.8c0.8,1.7,1.4,3.4,1.9,5.2
				c1,3.6,1.4,7.4,1.2,11.1c-0.4,7.6-3.5,14.9-8.3,20.7c-2.4,2.9-5.3,5.4-8.5,7.4c-3.2,2-6.7,3.4-10.2,4.4
				c-3.6,0.9-7.3,1.2-10.9,0.9c-1.8-0.1-3.6-0.4-5.3-0.9c-0.9-0.2-1.7-0.4-2.6-0.8l-0.6-0.2c-0.2-0.1-0.5-0.2-0.8-0.3
				C121.1,599.1,120.6,598.8,120.3,598.6z"/>
		</g>
		<path class="st0" d="M733.9,413.2c0-165.7-141.5-300-316-300s-316,134.3-316,300c0,63.3,20.6,122,55.9,170.4
			c9.6,13.2,13.8,29.8,10.6,45.8c-0.8,4.2-1.3,8.5-1.3,12.9c0,69.8,112.3,126.5,250.7,126.5s250.7-56.6,250.7-126.5
			c0-4.3-0.4-8.6-1.3-12.9c-3.2-16,1-32.6,10.6-45.8C713.3,535.2,733.9,476.5,733.9,413.2z"/>
		<linearGradient id="SVGID_5_" gradientUnits="userSpaceOnUse" x1="466.1949" y1="553.9912" x2="650.4606" y2="553.9912">
			<stop  offset="0" style="stop-color:#52FFCE"/>
			<stop  offset="0.9948" style="stop-color:#6700E4"/>
		</linearGradient>
		<path class="st9" d="M466.2,607.5c0,0,75.1-40.2,157-35.2v-21.5c0,0,35.2-18.9,25.6-50.4C648.8,500.4,482.7,510.1,466.2,607.5z"/>
		
			<linearGradient id="SVGID_6_" gradientUnits="userSpaceOnUse" x1="6745.7441" y1="553.9912" x2="6930.0098" y2="553.9912" gradientTransform="matrix(-1 0 0 1 7113.543 0)">
			<stop  offset="5.181347e-03" style="stop-color:#6700E4"/>
			<stop  offset="1" style="stop-color:#52FFCE"/>
		</linearGradient>
		<path class="st10" d="M367.8,607.5c0,0-75.1-40.2-157-35.2v-21.5c0,0-35.2-18.9-25.6-50.4C185.2,500.4,351.3,510.1,367.8,607.5z"
			/>
		<linearGradient id="SVGID_7_" gradientUnits="userSpaceOnUse" x1="165.7102" y1="449.6903" x2="680.3782" y2="449.6903">
			<stop  offset="0" style="stop-color:#52FFCE"/>
			<stop  offset="0.9948" style="stop-color:#6700E4"/>
		</linearGradient>
		<path class="st11" d="M170.8,441.9l46.9,10.5c0,0,6.9,19.2,24.7,30.2s141.5,43.2,193.6,41.2c35.7-1.4,181.2-57.7,181.2-72.8
			l63.2-17.8l-27.5-57.7l-487.2,21.1L170.8,441.9z"/>
		<g>
			<linearGradient id="SVGID_8_" gradientUnits="userSpaceOnUse" x1="165.7102" y1="683.393" x2="668.6885" y2="683.393">
				<stop  offset="0" style="stop-color:#52FFCE"/>
				<stop  offset="0.9948" style="stop-color:#6700E4"/>
			</linearGradient>
			<path class="st12" d="M668.7,642.2c0-4.3-1.8-8.6-2.7-12.9c-0.6-3.2-3.7-6.4-3.8-9.6c-48.6,29.6-131.1,77.8-186.4,41.3
				c-64.5-42.6-141,8.7-141,8.7c-104.6-11.5-165.2-68-169.1-71.7c3.8,9.9,4.9,20.7,2.8,31.2c-0.8,4.2-1.3,8.5-1.3,12.9
				c0,69.8,112.3,126.5,250.7,126.5C556.4,768.7,668.7,712.1,668.7,642.2z"/>
			<g>
				<path class="st1" d="M668.3,642.2c0-3.9-1.4-7.6-2.4-11.4l-0.3-1.4c-0.1-0.5-0.2-0.9-0.4-1.3c-0.4-0.9-0.8-1.7-1.3-2.6
					c-0.9-1.7-2-3.5-2.1-5.7l0.7,0.4l-9.3,5.7l-9.4,5.7c-6.3,3.7-12.6,7.4-19,10.9c-12.8,7.1-25.9,13.7-39.4,19.4
					c-13.5,5.7-27.6,10.3-42.2,13c-7.3,1.3-14.7,2.1-22.2,2.1c-7.5,0-15-0.8-22.4-2.6c-7.4-1.8-14.5-4.6-21.1-8.4
					c-0.8-0.5-1.6-1-2.4-1.5l-2.3-1.5c-1.5-1-3-1.8-4.5-2.7c-3.1-1.7-6.3-3.3-9.5-4.7c-6.5-2.8-13.3-4.9-20.2-6.2
					c-6.9-1.3-14-2-21.1-2c-14.2,0-28.5,2.5-42.2,6.6c-6.9,2.1-13.6,4.6-20.2,7.5c-6.6,2.9-13.1,6.2-19.1,9.9l-0.1,0.1
					c-0.4,0.2-0.8,0.3-1.2,0.3c-15.5-1.9-30.9-5-45.9-9c-7.5-2.1-15-4.2-22.4-6.8c-7.4-2.5-14.7-5.2-21.9-8.3
					c-7.2-3-14.3-6.3-21.2-9.8c-7-3.5-13.8-7.3-20.5-11.3c-6.7-4-13.2-8.2-19.6-12.8c-3.2-2.3-6.3-4.6-9.4-7c-3.1-2.4-6.1-4.9-9-7.6
					l2.5-1.7c2.5,6.5,4,13.5,4.1,20.5c0.1,3.5-0.2,7-0.8,10.5l-0.4,2.5c-0.1,0.8-0.3,1.6-0.4,2.5c-0.2,1.6-0.4,3.3-0.4,4.9
					c-0.1,1.6-0.1,3.3,0,4.9c0,1.6,0.2,3.3,0.3,4.9c0.4,3.3,1,6.5,1.8,9.7c1.7,6.4,4.4,12.4,7.8,18.1c6.7,11.4,16.1,21.1,26.4,29.6
					c10.4,8.4,21.8,15.5,33.8,21.6c23.9,12.2,49.8,20.7,76.1,26.6c13.2,2.9,26.5,5.2,39.9,6.9c13.4,1.7,26.9,2.9,40.3,3.5
					c13.5,0.6,27,0.7,40.5,0.3c13.5-0.5,27-1.4,40.4-3c13.4-1.5,26.8-3.7,40-6.3c13.2-2.7,26.3-6,39.2-10.1
					c12.9-4.1,25.5-8.9,37.8-14.7c12.2-5.8,24-12.6,34.8-20.8c5.4-4.1,10.5-8.5,15.2-13.4c4.7-4.9,9-10.1,12.7-15.8
					C663.7,669.1,668.3,655.8,668.3,642.2z M669.1,642.2c0,3.4-0.3,6.8-0.8,10.2c-0.5,3.4-1.3,6.7-2.3,10c-2,6.5-5,12.8-8.6,18.6
					c-7.2,11.7-17,21.6-27.5,30.3c-10.7,8.6-22.3,16-34.5,22.3c-12.2,6.4-24.8,11.8-37.7,16.4c-25.8,9.3-52.8,15.2-80,18.8
					c-13.6,1.7-27.3,2.8-41,3.4c-13.7,0.5-27.4,0.6-41.1-0.1c-13.7-0.6-27.4-1.8-41-3.6c-13.6-1.9-27.1-4.3-40.5-7.4
					c-26.7-6.3-53-15.1-77.5-27.9c-12.2-6.4-23.9-13.9-34.6-22.9c-10.6-9-20.2-19.4-27-31.6c-3.4-6.1-6.1-12.7-7.8-19.5
					c-0.8-3.4-1.4-6.9-1.7-10.4c-0.1-1.8-0.2-3.5-0.2-5.3c0-1.8,0-3.5,0.2-5.3c0.1-1.8,0.3-3.5,0.6-5.2c0.1-0.9,0.3-1.7,0.4-2.6
					l0.5-2.5c0.6-3.2,0.9-6.5,0.9-9.8c0-6.6-1.2-13.2-3.5-19.4l0,0c-0.3-0.8,0.1-1.7,0.9-2c0.6-0.2,1.2-0.1,1.6,0.3
					c2.7,2.6,5.7,5.2,8.6,7.6c3,2.5,6,4.8,9.2,7.1c6.2,4.6,12.7,8.9,19.3,12.9c13.2,8,27.1,15.1,41.4,21c7.1,3,14.4,5.6,21.8,8.1
					c7.3,2.4,14.8,4.5,22.3,6.4c15,3.7,30.3,6.2,45.7,7.7l-1.3,0.3c3.2-2.1,6.3-4,9.5-5.8c3.2-1.8,6.5-3.5,9.9-5.1
					c6.7-3.2,13.5-6,20.6-8.3c14-4.7,28.8-7.7,43.8-7.9c7.5-0.1,15,0.5,22.4,1.9c7.4,1.4,14.6,3.6,21.6,6.6
					c3.5,1.5,6.8,3.2,10.1,5.1c1.6,1,3.2,1.9,4.8,2.9l2.3,1.5c0.7,0.5,1.5,1,2.2,1.4c6,3.6,12.5,6.2,19.3,8.1
					c6.8,1.8,13.8,2.7,20.9,2.9c7.1,0.2,14.3-0.3,21.4-1.3c14.2-2.1,28.2-6.1,41.8-11.2c13.6-5.1,26.8-11.2,39.8-17.9
					c6.5-3.4,12.8-6.9,19.2-10.5c3.2-1.8,6.3-3.6,9.5-5.5l9.4-5.6c0.2-0.1,0.5-0.1,0.6,0.1c0,0.1,0.1,0.1,0.1,0.2
					c0.1,1.8,1.1,3.6,2,5.3c0.5,0.9,0.9,1.7,1.3,2.7c0.2,0.5,0.3,1,0.5,1.5l0.3,1.4c0.4,1.9,1,3.8,1.5,5.7
					C668.7,638.2,669.1,640.2,669.1,642.2z"/>
			</g>
		</g>
		<path class="st1" d="M300.9,664.3C300.9,664.3,300.9,664.3,300.9,664.3l-31.1-7.2c16.6,38.4-5.4,43.9-27.4,45.2
			c-9.2,0.6-49.6-11-53.5-41.2c-4.1-31.6,23.9-29.9,23.9-29.9v0c-28.9-16.1-45.1-31.2-47-33c3.8,9.9,4.9,20.7,2.8,31.2
			c-0.8,4.2-1.3,8.5-1.3,12.9c0,45.4,47.5,85.3,118.9,107.6l27.7-5.4L300.9,664.3z"/>
		<path class="st1" d="M398.2,660.4c0,0-13.5,35-13.6,48.4c0,0-19.4,7.9-37.2,10.7c-17.8,2.7-6.2-38.5-6.2-38.5
			S377.6,661.8,398.2,660.4z"/>
		<g>
			<linearGradient id="SVGID_9_" gradientUnits="userSpaceOnUse" x1="108.909" y1="178.9313" x2="713.822" y2="178.9313">
				<stop  offset="0" style="stop-color:#52FFCE"/>
				<stop  offset="0.9948" style="stop-color:#6700E4"/>
			</linearGradient>
			<path class="st13" d="M111.2,287.8c0,0,21.7-48.5-2.3-89.5l46.6-1.3c0,0-29.3-74.2-43.9-89.6c0,0,77.2-14.1,121.1,14.1
				c0,0-5.3-35.8-20-52.5c0,0,81.2-6.4,113.1,23c0,0-13.3-48.6-29.3-57.6c0,0,123.8-17.9,171.7,30.7c0,0,4-32-9.3-55
				c0,0,105.1,21.8,125.1,111.3c0,0-4-78-20-90.8c0,0,184.9,77,143.7,263.7C707.8,294.5,322.4,418.2,111.2,287.8z"/>
			<g>
				<path class="st1" d="M110.8,287.9c0-0.1,0-0.3,0-0.3l0,0l0-0.1l0.1-0.2l0.1-0.3l0.3-0.7l0.5-1.3c0.3-0.9,0.6-1.8,0.9-2.7
					c0.6-1.8,1.2-3.7,1.7-5.5c1-3.7,1.9-7.4,2.6-11.2c1.4-7.5,2.1-15.2,2-22.8c-0.1-7.6-1-15.3-2.9-22.6c-1.9-7.4-4.8-14.4-8.7-20.9
					c-0.5-0.8-0.2-1.7,0.6-2.2c0.2-0.1,0.5-0.2,0.8-0.2l0,0l46.6-1.7l-1.9,2.8c-3.1-7.7-6.4-15.4-9.7-23
					c-3.3-7.6-6.7-15.2-10.2-22.8c-3.5-7.5-7.2-15-11-22.3c-1.9-3.6-4-7.2-6.1-10.7c-2.1-3.5-4.4-6.9-6.9-9.6l0,0
					c-1-1.1-1-2.9,0.2-3.9c0.4-0.4,0.9-0.6,1.4-0.7c5.3-0.9,10.4-1.6,15.6-2.1c5.2-0.6,10.4-1,15.6-1.2c10.4-0.5,20.9-0.5,31.4,0.2
					c10.5,0.7,21,2.3,31.2,4.9c10.2,2.7,20.3,6.6,29.5,12.4l-4.9,3.2c-0.7-4.5-1.7-9.1-2.8-13.6c-1.1-4.5-2.4-9-3.9-13.3
					c-1.5-4.4-3.2-8.6-5.3-12.7c-2-4.1-4.4-7.9-7.2-11.2l0-0.1c-1.2-1.4-1-3.4,0.3-4.6c0.6-0.5,1.2-0.7,1.9-0.8
					c10-0.7,19.9-0.7,29.8-0.4c9.9,0.3,19.9,1.2,29.7,2.6c9.9,1.5,19.7,3.6,29.2,6.9c9.5,3.3,18.8,7.9,26.5,15l-4.6,2.8
					c-1.4-5.2-3-10.4-4.8-15.5c-1.8-5.1-3.7-10.2-5.8-15.1c-2.1-5-4.4-9.8-7.2-14.4c-1.4-2.3-2.8-4.5-4.5-6.4
					c-1.6-2-3.5-3.8-5.5-4.9l-0.1,0c-1.1-0.6-1.4-2-0.8-3.1c0.4-0.6,1-1,1.7-1.1c15-1.8,30-2.7,45-2.8c15-0.1,30.1,0.5,45,2.3
					c14.9,1.8,29.8,4.7,44.1,9.7c7.1,2.5,14.1,5.5,20.6,9.3c6.6,3.8,12.7,8.3,18.1,13.7l-1.9,0.7c0.5-4.6,0.6-9.3,0.5-14
					c-0.1-4.7-0.4-9.3-1.1-14c-0.7-4.6-1.7-9.2-3.1-13.6c-1.4-4.4-3.2-8.7-5.5-12.7l0,0c-0.3-0.5-0.1-1.2,0.4-1.5
					c0.3-0.1,0.5-0.2,0.8-0.1c7.3,1.6,14.3,3.9,21.3,6.3c6.9,2.5,13.8,5.3,20.5,8.5c13.3,6.4,26.1,14.1,37.6,23.4
					c11.6,9.3,21.9,20.2,30.1,32.7c8.2,12.5,14.1,26.4,17.5,41l-4,0.6c-0.5-7.8-1.2-15.6-2.1-23.4c-0.9-7.8-1.9-15.5-3.2-23.2
					c-1.3-7.7-2.8-15.3-4.9-22.8c-1.1-3.7-2.3-7.3-3.8-10.8c-0.8-1.7-1.6-3.4-2.5-4.9c-0.9-1.5-2-2.8-3.2-3.8l0,0
					c-1.2-1-1.4-2.7-0.4-3.9c0.8-1,2.1-1.3,3.2-0.8c3.3,1.4,6.3,2.9,9.4,4.4c3.1,1.5,6.1,3.1,9.1,4.8c6,3.3,11.9,6.8,17.7,10.5
					c11.6,7.4,22.7,15.6,33.1,24.5C645.1,81.3,655,91,664,101.5c9,10.4,17.2,21.6,24.2,33.5c7.1,11.9,13,24.5,17.6,37.5
					c2.3,6.5,4.3,13.2,5.9,19.9c1.6,6.7,2.9,13.5,3.8,20.4c0.9,6.9,1.6,13.8,1.8,20.7c0.2,3.5,0.2,6.9,0.2,10.4
					c0,1.7-0.1,3.5-0.1,5.2c-0.1,1.7-0.1,3.5-0.2,5.2c-0.8,13.8-2.7,27.5-5.6,41l0,0c-0.3,1.4-1.3,2.4-2.6,2.8
					c-12.3,3.9-24.6,7.3-37,10.6c-12.4,3.3-24.8,6.4-37.2,9.3c-24.9,5.8-50,10.9-75.2,15.3c-12.6,2.2-25.2,4.2-37.9,6
					c-12.7,1.8-25.4,3.4-38.1,4.8c-25.4,2.8-50.9,4.8-76.5,5.7c-25.6,0.9-51.2,0.9-76.7-0.6c-25.6-1.5-51-4.2-76.3-8.7
					c-25.2-4.5-50.1-10.7-74.2-19.3c-12-4.3-23.9-9.1-35.4-14.7c-5.8-2.7-11.5-5.6-17.1-8.8c-1.4-0.8-2.8-1.6-4.2-2.4
					c-1.4-0.8-2.8-1.6-4.1-2.4c-1.4-0.8-2.7-1.6-4.1-2.5C113.6,289.8,112.2,288.8,110.8,287.9z M111.5,287.7c1.4,0.8,2.7,1.5,4,2.2
					c1.3,0.8,2.7,1.5,4.1,2.3c1.4,0.8,2.8,1.5,4.2,2.3c1.4,0.7,2.8,1.5,4.2,2.2c5.6,2.9,11.4,5.7,17.2,8.3
					c11.6,5.2,23.5,9.8,35.6,13.8c24.2,7.9,49,13.7,74.1,17.7c25.1,4,50.4,6.3,75.8,7.4c25.4,1,50.8,0.8,76.2-0.4
					c25.4-1.2,50.7-3.4,76-6.4c12.6-1.5,25.2-3.2,37.8-5.1c12.6-1.9,25.1-3.9,37.6-6.2c25-4.5,49.9-9.7,74.7-15.5
					c12.4-2.9,24.7-6,37-9.2c12.3-3.3,24.6-6.7,36.6-10.4l-2.6,2.9c2.9-13.1,4.8-26.4,5.6-39.8c0.1-1.7,0.1-3.3,0.2-5
					c0-1.7,0.2-3.3,0.1-5c0-3.3,0.1-6.7-0.1-10c-0.2-6.7-0.8-13.4-1.6-20c-0.8-6.6-2.1-13.2-3.6-19.7c-1.5-6.5-3.4-12.9-5.6-19.2
					c-4.4-12.6-10-24.8-16.8-36.4c-6.8-11.6-14.6-22.5-23.4-32.7c-8.7-10.2-18.3-19.7-28.4-28.6c-10.2-8.8-21-16.9-32.3-24.3
					c-5.6-3.7-11.4-7.2-17.3-10.5c-2.9-1.7-5.9-3.3-8.9-4.8c-3-1.5-6-3-9-4.3l2.8-4.7c1.9,1.6,3.2,3.4,4.4,5.2
					c1.1,1.8,2,3.7,2.8,5.6c1.6,3.8,2.8,7.7,3.8,11.5c2.1,7.7,3.5,15.6,4.7,23.4c1.2,7.8,2.1,15.7,2.9,23.5
					c0.7,7.9,1.3,15.7,1.7,23.6l0,0c0.1,1.1-0.8,2.1-1.9,2.1c-1,0-1.9-0.7-2.1-1.6c-3.1-14.1-8.6-27.7-16.4-40
					c-7.8-12.2-17.7-23.1-29-32.4c-11.2-9.3-23.7-17-36.9-23.4c-6.6-3.2-13.3-6.1-20.2-8.6c-6.9-2.5-13.9-4.7-20.9-6.3l1.2-1.7
					c2.4,4.2,4.3,8.6,5.7,13.2c1.4,4.6,2.4,9.3,3.1,14c0.7,4.7,1.1,9.5,1.2,14.2c0.1,4.8,0,9.5-0.5,14.3c-0.1,0.6-0.6,1.1-1.2,1
					c-0.3,0-0.5-0.1-0.7-0.3l0,0c-5.2-5.2-11.2-9.6-17.6-13.3c-6.4-3.6-13.3-6.6-20.3-8.9c-14.1-4.7-28.8-7.5-43.6-9
					c-14.8-1.5-29.7-1.9-44.6-1.6c-14.9,0.4-29.8,1.5-44.5,3.5l0.8-4.2c2.8,1.6,4.9,3.7,6.8,5.9c1.9,2.2,3.5,4.5,5,6.9
					c3,4.8,5.5,9.8,7.7,14.8c2.3,5.1,4.3,10.2,6.2,15.4c1.9,5.2,3.6,10.4,5.2,15.8c0.4,1.5-0.4,3-1.9,3.5c-1,0.3-2,0-2.6-0.6
					l-0.1-0.1c-6.9-6.2-15.7-10.4-24.7-13.4c-9.1-3.1-18.6-5-28.2-6.4c-9.6-1.4-19.3-2.1-29-2.4c-9.7-0.3-19.5-0.2-29.1,0.4l2.2-5.4
					c3.4,3.9,6,8.2,8.2,12.6c2.2,4.4,4,8.9,5.6,13.5c1.6,4.6,2.9,9.2,4,13.9c1.1,4.7,2.1,9.3,2.9,14.2c0.3,1.7-0.9,3.4-2.7,3.7
					c-0.8,0.1-1.6-0.1-2.2-0.5l0,0c-8.4-5.4-17.8-9.1-27.6-11.7c-9.8-2.6-19.9-4.1-30.1-4.9c-10.2-0.8-20.4-0.9-30.7-0.5
					c-5.1,0.2-10.2,0.6-15.3,1.1c-5.1,0.5-10.2,1.1-15.2,1.9l1.5-4.7c3.1,3.4,5.4,7,7.6,10.7c2.2,3.7,4.2,7.4,6.1,11.1
					c3.8,7.5,7.4,15.1,10.8,22.7c6.9,15.3,13.3,30.7,19.3,46.3l0,0c0.4,1.1-0.1,2.2-1.2,2.7c-0.2,0.1-0.5,0.1-0.7,0.1L109,200
					l1.4-2.4c3.9,6.8,6.8,14.3,8.5,21.9c1.8,7.6,2.5,15.5,2.4,23.3c-0.1,7.8-1.1,15.5-2.7,23.1c-0.8,3.8-1.8,7.5-3,11.2
					c-0.6,1.8-1.2,3.7-1.9,5.5c-0.3,0.9-0.7,1.8-1,2.7l-0.6,1.3l-0.3,0.7l-0.1,0.3L111.5,287.7l0,0.2l0,0
					C111.5,288,111.6,287.8,111.5,287.7z"/>
			</g>
		</g>
		<path class="st7" d="M399.3,36.7c0,0,16.7,9.9,18.1,16.8c0,0-15.1-5.5-23.3-2.7c0,0,33,17.8,37.1,34.3c0,0,0-17.8-6.9-24.7
			c0,0,37.1,24.7,13.7-4.1l11.1-0.8C449.2,55.5,419.7,41.9,399.3,36.7z"/>
		<path class="st8" d="M129.1,280.7c0,0,11-28.1,5.5-51.4c0,0,19.8,19.4,21.6,27.6C156.2,256.8,144.2,280,129.1,280.7z"/>
		<path class="st1" d="M247.9,85.8c0,0,23.3-2.7,50.8,15.1l-28.8-5.5c0,0,34.3,12.4,51.3,38c0,0,7.7,15.6,5,45.8l-1.4,16.5
			c0,0-6.9-5.5-16.5-16.5c-9.6-11-34.3-35.7-46.7-53.5c0,0,22.2,6.5,32.4,11.5c0,0-29.6-18.4-39.2-32.1l26.1,8.2L247.9,85.8z"/>
		<g>
			<path class="st1" d="M324.3,195.6c-0.4-7.9-1-15.8-1.9-23.5c-0.9-7.7-2.2-15.4-4.1-22.9c-0.9-3.7-2-7.4-3.2-11
				c-1.2-3.6-2.5-7.2-4.1-10.7c-1.7-3.4-3.5-6.8-5.9-9.8c-2.4-3-5.2-5.7-8.4-7.9l0,0c-0.5-0.4-0.6-1-0.3-1.5
				c0.2-0.3,0.5-0.4,0.7-0.5c3.2-0.5,6.2-0.8,9.4-1c3.1-0.3,6.2-0.4,9.4-0.5c6.3-0.2,12.6-0.1,18.9,0.6c6.3,0.7,12.6,2,18.7,3.9
				c6.1,1.9,12.1,4.3,17.8,7.3c5.7,3,11,6.7,15.9,10.9l3.6,3.2c1.1,1.1,2.2,2.3,3.3,3.5c0.5,0.6,1.1,1.2,1.6,1.8l1.5,1.8
				c1,1.2,2.1,2.4,3,3.7c7.7,10.2,13.3,21.8,16.6,33.8c0.1,0.2-0.1,0.4-0.3,0.5c-0.2,0-0.3,0-0.4-0.2c-6-10.9-12.8-21.1-20.9-30
				c-8.1-8.9-17.5-16.3-27.8-22.3c-5.2-3-10.6-5.5-16.2-7.6c-5.6-2.1-11.4-3.8-17.3-5.1c-5.9-1.4-12-2.4-18.1-2.8
				c-3.1-0.2-6.1-0.3-9.2-0.2c-3,0.1-6.2,0.3-9.1,0.9l0.4-2c3.4,2.3,6.5,4.8,9.4,7.7c2.9,2.9,5.5,6.1,7.8,9.5
				c4.6,6.8,7.8,14.6,9.6,22.5c1.8,7.9,2.7,16,2.7,24.1c0,8-0.6,16.1-2.4,23.9c0,0.2-0.2,0.3-0.4,0.3
				C324.5,195.9,324.4,195.8,324.3,195.6L324.3,195.6z"/>
		</g>
		<path class="st7" d="M706.5,275.3c0,0,27.5-162-133.6-235.6c0,0,16.9,25.5,15.3,81.9c0,0,5.7-41.3-2.5-64.6
			C585.6,57,699.6,98.2,706.5,275.3z"/>
		<path class="st1" d="M321.3,221c-43.3-72.1-109.8-72.8-109.8-72.8c33,19.2,47.4,70.7,47.4,70.7c-19.2-24.7-52.2-39.8-52.2-39.8
			c13.7,31.6,4.8,73.5,4.8,73.5c-21.3-41.9-76.2-36.4-76.2-36.4c35.7,27.5,39.8,97.1,39.8,97.1l458.6,5.5
			c64.5-36.7,42.6-128.7,42.6-128.7c-13.7,49.4-21.3,62.5-21.3,62.5c14.4-35,3.4-74.8,3.4-74.8c-4.1,31.6-15.8,62.5-15.8,62.5
			c19.2-41.2-6.9-107.1-6.9-107.1c14.4,7.6,27.5,27.5,27.5,27.5c-22-60.4-65.9-86.5-65.9-86.5s15.8,54.2,0.7,81.7
			c0,0-37.1-98.9-103-116.7c0,0,15.1,17.9,5.5,37.8s0,0,0,0s83.7,29.5,61.8,102.2c0,0-13.7-34.3-49.4-63.2c0,0,8.2,30.2,4.1,53.5
			c0,0,1.4-48.1-34.3-74.1c0,0,15.1,39.8,12.4,74.1c0,0-5.5-61.8-38.4-86.5c0,0,29.3,49.1,9.2,105.6c-20.1,56.4,0,0,0,0l-21.1-11.1
			c0,0,19-27.6-4.5-94c-23.4-66.4,0,0,0,0s-1.4,25.6-4.2,40.7c0,0-9.6-42.6-79.6-63.2c0,0,16.5-4.1,46.7,4.1
			c0,0-13.7-23.3-72.8-13.7c0,0,31.6,19.2,48.1,43.9c0,0-16.5-15.1-34.3-17.8c0,0,19.9,17.1,27.8,38.8c0,0-32.4-12.7-57.5-8.6
			s0,0,0,0s66.8,0,75,93.4c0,0-8.2-37.1-49.4-70c0,0,20.6,31.6,23.3,74.1c0,0-6.9-30.2-23.3-54.9c0,0,9.6,35.7-5.5,67.3
			C334.4,217.6,327.5,231.3,321.3,221z"/>
		<g>
			<linearGradient id="SVGID_10_" gradientUnits="userSpaceOnUse" x1="643.2866" y1="491.5335" x2="732.551" y2="491.5335">
				<stop  offset="0" style="stop-color:#52FFCE"/>
				<stop  offset="0.9948" style="stop-color:#6700E4"/>
			</linearGradient>
			<path class="st14" d="M643.3,396.1c0,0-1.4,70,17.8,109.8c18.9,39.1,5.5,92,5.5,92s54.9-38.4,65.9-205.9
				C732.6,392,672.1,374.1,643.3,396.1z"/>
			<path class="st1" d="M643.6,396.3l0.9,12.7c0.3,4.3,0.7,8.5,1.1,12.8c0.8,8.5,1.8,17,3.1,25.4c1.3,8.4,2.7,16.8,4.7,25
				c1,4.1,2,8.2,3.2,12.3c1.2,4,2.5,8,4,11.9c0.4,1,0.8,1.9,1.2,2.9c0.4,1,0.8,1.9,1.2,2.9l1.3,2.9l1.4,3.1
				c1.7,4.1,3.1,8.3,4.2,12.6c1.1,4.3,1.9,8.6,2.4,13c0.6,4.3,0.9,8.7,1,13.1c0.2,8.7-0.2,17.4-1.2,26c-0.5,4.3-1,8.6-1.8,12.8
				c-0.7,4.3-1.5,8.5-2.5,12.7L666,597c1.7-1.3,3.4-2.9,5-4.5c1.6-1.6,3.1-3.3,4.5-5.1c2.9-3.5,5.5-7.3,8-11.1
				c4.9-7.7,9-15.9,12.6-24.3c3.6-8.4,6.6-17,9.4-25.7c1.4-4.3,2.6-8.7,3.9-13.1c1.2-4.4,2.4-8.8,3.5-13.2
				c4.4-17.7,7.6-35.7,10.2-53.8c2.5-18.1,4.5-36.3,6.1-54.5l2.5,3.6c-3.5-1.1-7.2-2-10.9-2.9c-3.7-0.9-7.4-1.6-11.1-2.3
				c-7.4-1.3-14.9-2.3-22.5-2.6c-7.5-0.3-15.1-0.2-22.5,1.1c-3.7,0.6-7.4,1.5-10.9,2.8c-1.8,0.6-3.5,1.4-5.2,2.2
				C646.8,394.4,645.1,395.4,643.6,396.3z M643,395.9c1.6-1.5,3.1-2.5,4.8-3.6c1.6-1.1,3.4-2,5.1-2.8c3.5-1.7,7.3-2.9,11.1-3.9
				c3.8-1,7.7-1.6,11.5-2.1c3.9-0.5,7.8-0.7,11.7-0.7c7.8-0.1,15.6,0.4,23.3,1.4c3.9,0.5,7.7,1.1,11.5,1.8c3.8,0.7,7.6,1.6,11.5,2.6
				c1.6,0.4,2.6,1.9,2.5,3.4l0,0.2c-0.9,18.5-2.5,36.9-5.3,55.2c-2.7,18.3-6.5,36.5-11.4,54.4c-4.9,17.9-11.4,35.4-19.7,52
				c-4.2,8.3-8.8,16.3-14,24c-2.6,3.8-5.4,7.5-8.4,11.1c-3,3.6-6.1,6.9-9.9,10c-0.5,0.4-1.2,0.3-1.5-0.2c-0.2-0.3-0.3-0.6-0.2-0.9
				l0-0.1c1.9-8.2,3-16.8,3.5-25.3c0.2-4.3,0.3-8.5,0.3-12.7c-0.1-4.2-0.3-8.5-0.7-12.7c-0.8-8.4-2.4-16.7-4.7-24.7
				c-1.2-4-2.6-7.9-4.2-11.7l-2.7-5.8c-0.5-1-0.9-2-1.3-3c-0.4-1-0.9-2-1.2-3.1c-6.1-16.5-9-33.8-10.8-50.9
				c-0.9-8.6-1.3-17.2-1.5-25.8c0-4.3-0.1-8.6,0-12.9c0.1-2.2,0.1-4.3,0.2-6.5l0.2-3.2l0.1-1.6l0.1-0.8l0-0.4l0-0.2
				C642.9,396.2,643,396,643,395.9z"/>
		</g>
		<path class="st1" d="M653.3,395.7c0,0,1.7,69.8,22.3,95.9l1.4-43.9c0,0,8.9,28.1,12.4,63.2c0,0,8.9-39.1,16.5-71.4
			c0,0,6.2,55.6-11.7,96.8l-13.7-31.6c0,0,13.9,55.7-2.3,79c0,0,49.7-48.1,59.3-185.4L653.3,395.7z"/>
		<g>
			<linearGradient id="SVGID_11_" gradientUnits="userSpaceOnUse" x1="88.4762" y1="491.0495" x2="175.1252" y2="491.0495">
				<stop  offset="0" style="stop-color:#52FFCE"/>
				<stop  offset="0.9948" style="stop-color:#6700E4"/>
			</linearGradient>
			<path class="st15" d="M175.1,396.1c0,0-9.6,48.1-20.6,109.8c-9.1,51.4,11,92,11,92s-81-57.7-76.9-208.7
				C88.6,389.2,146.3,374.1,175.1,396.1z"/>
			<path class="st1" d="M175.5,396c0,0.3-0.1,0.8-0.1,1l-0.1,0.8l-0.2,1.6l-0.4,3.2l-0.9,6.4l-1.9,12.7c-1.3,8.5-2.6,17-4,25.4
				c-2.7,16.9-5.6,33.8-8.5,50.7c-0.7,4.2-1.5,8.5-2.2,12.6c-0.6,4.1-1.2,8.3-1.5,12.5c-0.7,8.4-0.9,16.8-0.4,25.3
				c0.5,8.4,1.6,16.9,3.4,25.2c0.9,4.2,2,8.3,3.3,12.3c1.3,4,2.8,8.1,4.5,11.9l0,0.1c0.3,0.6,0,1.2-0.6,1.5
				c-0.4,0.2-0.8,0.1-1.2-0.1c-7.7-6-14.4-12.9-20.8-20.2c-6.3-7.3-12.2-15-17.5-23c-5.4-8.1-10.2-16.5-14.5-25.1
				c-4.3-8.7-8-17.7-11.2-26.8c-6.4-18.3-10.8-37.3-13.3-56.5c-2.6-19.2-3.2-38.7-2.3-58l0-0.2c0.1-1.5,1.1-2.7,2.6-3.1
				c3.8-0.9,7.5-1.5,11.2-2.1c3.7-0.6,7.5-1,11.3-1.4c7.5-0.7,15.1-0.9,22.7-0.5c7.6,0.4,15.1,1.5,22.4,3.6
				c3.6,1.1,7.2,2.4,10.6,4.1c1.7,0.9,3.3,1.8,4.9,2.8C172.4,393.5,173.9,394.5,175.5,396z M174.8,396.2c-1.4-0.8-3-1.8-4.6-2.6
				c-1.6-0.8-3.3-1.6-5-2.2c-3.4-1.3-6.9-2.3-10.5-3c-7.2-1.4-14.5-1.9-21.8-1.8c-7.3,0.1-14.6,0.7-21.9,1.8
				c-3.6,0.5-7.2,1.1-10.8,1.9c-3.6,0.7-7.2,1.5-10.6,2.4l2.6-3.2c-0.2,19,0.9,38,3.2,56.8c1.2,9.4,2.7,18.7,4.7,28
				c2,9.2,4.3,18.4,7.2,27.4c5.8,18,13.2,35.6,22.7,52c4.8,8.2,10.1,16.1,16.2,23.5c3,3.7,6.2,7.2,9.5,10.6
				c3.3,3.4,6.9,6.6,10.6,9.4l-1.7,1.4c-1.9-4-3.4-8-4.9-12.1c-1.5-4.1-2.7-8.2-3.9-12.4c-2.3-8.3-4.1-16.8-5.2-25.5
				c-0.6-4.3-1-8.7-1.1-13c-0.1-2.2-0.1-4.4-0.2-6.5c0-2.2,0.1-4.4,0.2-6.6c0.2-4.4,0.6-8.7,1.2-13.1c0.7-4.4,1.4-8.5,2.2-12.8
				c3.1-16.9,6.4-33.7,10.1-50.5c1.8-8.4,3.7-16.8,5.6-25.1c1-4.2,2-8.4,3-12.5l1.6-6.2l0.8-3.1l0.4-1.6l0.2-0.8
				C174.6,396.5,174.7,396.4,174.8,396.2z"/>
		</g>
		<path class="st1" d="M170.8,418.3c0,0-8,79.4-16.2,89c0,0-2.7-39.8,0-56.3c0,0-22,28.8-16.5,85.1c0,0-17.8-42.6-15.1-86.5
			c0,0-9.6,23.4-8.2,39.8c0,0-18.5-51.7-5.8-93.8L170.8,418.3z"/>
		<g>
			<path class="st1" d="M105.1,276.5c0,0,271.8,55.9,606.9-1.2c0,0,26.1,75.5,24.7,123.3c0,0-365.2,106.1-653.5-8
				C83.1,390.6,90,327.6,105.1,276.5z"/>
			<path class="st1" d="M105,276.3c1,0.1,1.7,0.3,2.5,0.4l2.3,0.4l4.7,0.8l9.4,1.5c6.3,1,12.6,1.9,18.8,2.8
				c12.6,1.8,25.2,3.3,37.8,4.7c25.2,2.9,50.5,5.2,75.8,7c25.3,1.7,50.7,3.1,76,3.9c25.4,0.9,50.7,1.2,76.1,1.1
				c25.4,0,50.7-0.6,76.1-1.6l19-0.8l19-1l9.5-0.5l9.5-0.7l19-1.3l19-1.6l9.5-0.8l9.5-0.9l18.9-1.9c6.3-0.7,12.6-1.5,18.9-2.2
				c12.6-1.4,25.2-3.2,37.8-5c6.3-0.8,12.6-1.9,18.8-2.9l18.8-3l0,0c0.3-0.1,0.7,0.1,0.8,0.5c3.4,10,6.4,20.1,9.3,30.2
				c2.8,10.1,5.5,20.3,7.8,30.6c0.6,2.6,1.1,5.2,1.7,7.7c0.5,2.6,1.1,5.2,1.5,7.8l1.4,7.8l1.2,7.8c1.4,10.5,2.5,21,2.3,31.6
				c0,0.5-0.3,0.9-0.8,1l0,0c-13.3,3.8-26.8,7.2-40.2,10.4c-13.5,3.2-27,6.1-40.6,8.9c-27.1,5.5-54.5,10.1-81.9,14
				c-54.9,7.6-110.2,12.2-165.6,12.9c-55.4,0.7-110.9-2.5-165.8-11c-54.8-8.5-108.9-22.2-160.3-43l0,0c-0.6-0.2-0.9-0.8-0.8-1.4
				c1.2-9.7,2.6-19.3,4.1-28.8c1.5-9.6,3.3-19.1,5.1-28.7c1.9-9.5,4-19,6.2-28.4c1.2-4.7,2.3-9.4,3.6-14.1
				C102.1,285.7,103.6,280.9,105,276.3z M105.2,276.7c-1.2,4.7-2.4,9.2-3.6,13.9c-1.2,4.7-2.2,9.4-3.3,14.1c-2,9.5-4,19-5.6,28.5
				c-1.7,9.5-3.2,19.1-4.6,28.7c-1.4,9.6-2.6,19.2-3.7,28.8l-0.8-1.4c51.5,19.8,105.4,33.1,160,41.1c54.6,8,109.9,11.1,165,10.5
				c55.2-0.5,110.4-4.8,165.1-12.1c27.4-3.6,54.7-8,81.8-13.2c13.6-2.6,27.1-5.3,40.6-8.3c13.5-3,26.9-6.2,40.2-9.8l-0.8,1.1
				c0.3-10.4-0.6-20.9-1.9-31.3c-1.3-10.4-3.3-20.7-5.5-31c-2.2-10.3-4.8-20.5-7.6-30.6c-2.8-10.1-5.8-20.2-9.2-30.2l0.8,0.5
				l-18.8,3c-6.3,1-12.5,2.1-18.8,2.9l-18.9,2.7c-6.3,1-12.6,1.7-18.9,2.5l-18.9,2.4l-18.9,2.2l-9.5,1.1l-9.5,0.9l-19,1.9
				c-50.6,4.5-101.5,7.2-152.3,7.2c-50.9,0.2-101.7-1.8-152.4-6c-25.3-2.1-50.6-4.7-75.8-8c-12.6-1.7-25.2-3.5-37.7-5.5
				c-6.3-1-12.5-2.1-18.8-3.2l-9.4-1.8l-4.7-0.9l-2.3-0.5C106.6,277,105.8,276.9,105.2,276.7z"/>
		</g>
		<g>
			
				<linearGradient id="SVGID_12_" gradientUnits="userSpaceOnUse" x1="-41.2552" y1="-550.5578" x2="122.3979" y2="-550.5578" gradientTransform="matrix(0.9697 -0.2445 0.2445 0.9697 317.7144 848.0347)">
				<stop  offset="0" style="stop-color:#52FFCE"/>
				<stop  offset="0.9948" style="stop-color:#6700E4"/>
			</linearGradient>
			<path class="st16" d="M299.4,274.7c0,0-103.9,54-84.3,108.9c0,0-188.6-119.5,13.3-157.5"/>
			<path class="st1" d="M299.5,275c-10.3,6.8-20.4,13.8-30.1,21.3c-2.4,1.9-4.8,3.8-7.2,5.7c-2.4,1.9-4.7,3.9-7,5.9
				c-4.6,4-9.1,8.1-13.3,12.4c-8.4,8.7-16.2,17.9-21.8,28.4c-2.7,5.3-4.8,10.9-5.6,16.8c-0.4,2.9-0.5,5.9-0.2,8.9
				c0.3,3,0.9,5.9,1.8,8.8l0,0.1c0.2,0.6-0.1,1.3-0.8,1.5c-0.4,0.1-0.7,0-1-0.1c-8.7-5.9-17.1-12-25.4-18.3
				c-8.3-6.3-16.4-12.9-24.1-20.1c-7.7-7.2-14.8-15.1-20.9-23.9c-3-4.4-5.7-9.1-7.9-14.1c-2.2-5-3.9-10.3-4.6-16
				c-0.7-5.6-0.3-11.5,1.3-17c1.7-5.5,4.6-10.6,8.2-14.9c1.8-2.2,3.8-4.1,5.8-6c1.1-0.9,2.1-1.8,3.2-2.6l3.3-2.4
				c4.5-3,9.2-5.7,14-7.9c9.7-4.5,19.8-7.7,30-10.2c10.2-2.5,20.5-4.2,30.9-5.4c0.2,0,0.4,0.1,0.4,0.3c0,0.2-0.1,0.3-0.3,0.4
				c-10,2.7-20,5.5-29.8,8.9c-1.2,0.4-2.5,0.8-3.7,1.2l-3.6,1.3c-2.4,0.8-4.8,1.9-7.2,2.8l-1.8,0.7l-1.7,0.8l-3.5,1.6
				c-1.2,0.5-2.3,1.1-3.4,1.7c-1.1,0.6-2.3,1.1-3.4,1.7c-8.9,4.7-17.3,10.5-23.3,18c-3,3.7-5.3,7.9-6.7,12.3
				c-1.3,4.4-1.7,9.1-1.2,13.8c0.4,4.7,1.8,9.4,3.6,14c1.8,4.6,4.2,9,6.9,13.3c2.7,4.3,5.7,8.4,8.8,12.4c3.1,4,6.5,7.9,9.9,11.7
				c13.9,15.2,29.8,28.8,47.3,39.9l-1.8,1.4c-2.2-5.9-3.2-12.4-2.9-18.8c0.3-6.4,2-12.7,4.4-18.6c2.5-5.9,5.8-11.4,9.5-16.6
				c3.7-5.1,8-9.9,12.5-14.2c4.5-4.4,9.2-8.6,14.1-12.4c2.4-1.9,4.9-3.8,7.4-5.7c2.5-1.8,5.1-3.6,7.7-5.3c10.4-6.9,21.2-13,32.6-18
				c0.2-0.1,0.4,0,0.5,0.2C299.8,274.7,299.7,274.9,299.5,275L299.5,275z"/>
		</g>
		<path class="st1" d="M247.2,237.5c0,0-50.8,12.4-64.5,41.2c0,0,26.1-12.4,31.6-12.4c0,0-28.8,24.2-30.9,47.1
			c0,0-4.8-10.1,0.7-23.8c0,0-35.7,30.2,16.5,74.1c0,0,8.9-29.5,41.9-69.3c0,0-30.2,11-44.6,34.3c0,0,13-35.7,54.9-58.4
			c0,0-15.8,13-25.5,27.1c0,0,44.1-20.9,72.2-28.5L247.2,237.5z"/>
		<path class="st0" d="M593.3,442.5C557.3,455.6,470,486,427.1,489.2c-12.6,0.9-30-0.8-49.4-4c-7.3-1.2-14.9-2.6-22.6-4.2
			c-5.8-1.2-11.6-2.4-17.5-3.7c-15.8-3.5-31.6-7.5-46.1-11.3c-18.6-4.9-35.2-9.7-47.2-13.2c-11.1-3.3-18.2-13.2-17-23.8l15.3-132.8
			l0.6-4.9c0,0,15-2.3,39.4-5.1c4.9-0.6,10.2-1.2,15.9-1.8c6.5-0.7,13.5-1.4,20.8-2.1c75.5-7.2,191.1-13.2,270.2,5.7
			c0,0,15.6,87.9,19.3,131.9C609.7,429.7,603.4,438.9,593.3,442.5z"/>
		<g>
			<path class="st1" d="M508.1,466.4c-2.6-27.2-5.2-54.4-7.7-81.6c-1.2-13.6-2.4-27.2-3.6-40.8l-1.6-20.4
				c-0.5-6.8-1.1-13.6-1.2-20.5c0.4,6.8,1.3,13.6,2.1,20.4l2.6,20.3c1.8,13.5,3.6,27.1,5.4,40.6c3.7,27.1,7.5,54.1,11.3,81.2
				c0.3,2-1.1,3.9-3.1,4.1s-3.9-1.1-4.1-3.1C508.1,466.5,508.1,466.5,508.1,466.4z"/>
		</g>
		<path class="st1" d="M337.6,477.3c-15.8-3.5-31.6-7.5-46.1-11.3l-48.8-169.9l0.6-4.9c0,0,15-2.3,39.4-5.1L337.6,477.3z"/>
		<path class="st1" d="M377.7,485.2c-7.3-1.2-14.9-2.6-22.6-4.2l-56.5-196.7c6.5-0.7,13.5-1.4,20.8-2.1L377.7,485.2z"/>
		<g>
			<path class="st7" d="M694.8,739.3c0,0-41.6-31.6-71.9-27.5c-30.3,4.1-125.6,10.4-125.6,10.4s-9.3,106.3,9.6,113.2
				c18.9,6.9,178.6,40.1,211-9.5"/>
			<path class="st1" d="M694.6,739.6c-7.2-4.6-14.6-8.8-22.2-12.5c-7.6-3.8-15.4-7-23.3-9.4c-4-1.2-8-2.1-12.1-2.7
				c-4-0.6-8.1-0.8-12-0.3l-1.5,0.2l-1.6,0.2l-3.2,0.5c-2.1,0.3-4.3,0.5-6.4,0.8c-4.3,0.5-8.5,0.9-12.8,1.4c-17,1.8-34,2.8-51.1,3.5
				c-17.1,0.7-34.1,1.3-51.1,2.3l1.1-1.1c-0.3,3.5-0.6,7-0.8,10.4c-0.2,3.5-0.4,7-0.6,10.5c-0.4,7-0.5,14-0.5,21
				c0,7,0.1,14,0.5,20.9c0.4,7,0.9,13.9,1.8,20.8c0.5,3.4,1,6.8,1.7,10.2c0.7,3.3,1.5,6.6,2.7,9.6c0.6,1.5,1.2,2.9,2,4.1
				c0.8,1.2,1.7,2.1,2.5,2.4c0.1,0,0.2,0.1,0.3,0.1l0.5,0.2c0.4,0.1,0.8,0.2,1.2,0.4l2.4,0.7c1.6,0.4,3.3,0.9,5,1.3
				c6.7,1.6,13.6,2.9,20.4,4.2c6.8,1.2,13.7,2.4,20.6,3.4c6.9,1,13.8,2,20.7,2.8c3.5,0.4,6.9,0.8,10.4,1.1c3.5,0.4,6.9,0.7,10.4,1
				c13.8,1.2,27.7,2,41.6,1.9c6.9,0,13.8-0.3,20.7-1c6.9-0.6,13.7-1.6,20.4-3.1c3.4-0.7,6.7-1.6,9.9-2.7c3.2-1.1,6.5-2.3,9.5-3.9
				c6.1-3.1,11.8-7.2,15.9-12.8c0.1-0.2,0.3-0.2,0.5-0.1c0.2,0.1,0.2,0.3,0.1,0.5c-3.6,6.2-9.1,11.1-15.2,14.8
				c-3,1.9-6.3,3.5-9.6,4.8c-3.3,1.4-6.7,2.6-10.1,3.6c-6.8,2-13.8,3.4-20.9,4.4c-7,1-14.1,1.6-21.2,2c-28.3,1.3-56.6-1.3-84.4-5.8
				c-13.9-2.3-27.7-5.1-41.4-8.6c-1.7-0.5-3.4-0.9-5.2-1.4c-0.9-0.2-1.7-0.5-2.6-0.8c-0.4-0.1-0.9-0.3-1.3-0.5
				c-0.2-0.1-0.4-0.1-0.7-0.3l-0.9-0.4c-0.6-0.3-1.1-0.7-1.6-1c-0.4-0.4-1-0.8-1.3-1.2c-0.4-0.4-0.8-0.8-1.1-1.3
				c-0.3-0.4-0.6-0.9-0.9-1.3c-1.1-1.8-1.8-3.6-2.5-5.4c-1.2-3.6-1.9-7.2-2.5-10.7c-0.6-3.6-0.9-7.1-1.2-10.6
				c-1-14.2-0.6-28.2,0-42.3c0.5-14,1.4-28,2.4-42c0-0.6,0.5-1,1.1-1.1l0,0c17-1.3,34-3.1,50.9-5c17-1.8,33.9-3.5,50.9-4.9
				c4.2-0.4,8.5-0.7,12.7-1.2c2.1-0.2,4.2-0.4,6.3-0.7l3.1-0.3l1.6-0.2l1.7-0.1c9.2-0.7,18,1.4,26.2,4.3c8.2,2.9,16,6.8,23.4,11.2
				c7.4,4.4,14.5,9.3,21,14.8c0.2,0.1,0.2,0.4,0,0.5C695,739.7,694.8,739.7,694.6,739.6L694.6,739.6z"/>
		</g>
		<path class="st0" d="M518.4,722.9c0,0,82-11.7,87.9-8.2c0,0,32.8,90-1.1,137.3l-80.6-13.1L518.4,722.9z"/>
		<g>
			<g>
				<path class="st7" d="M442.2,706.5c0,0-50.5-12.4-62.4-20.6c-11.9-8.2-36.3,41.8,40.7,40.4L442.2,706.5z"/>
				<path class="st1" d="M442.2,706.5c-12.9-1.9-25.6-4.7-38.1-8l-4.7-1.3c-1.6-0.4-3.1-1-4.7-1.4c-3.1-1-6.2-2.1-9.3-3.3
					c-0.8-0.3-1.6-0.7-2.3-1c-0.8-0.4-1.6-0.7-2.3-1.1l-2.4-1.4c-0.5-0.3-0.5-0.3-0.7-0.4c-0.1-0.1-0.2-0.1-0.4-0.1
					c-0.4-0.1-1.2,0.1-2,0.7c-0.9,0.5-1.7,1.4-2.4,2.5c-1.4,2.1-2.3,4.7-2.6,7.3c-0.2,2.6,0.2,5.2,1.3,7.6c2.2,4.8,6.9,8.5,12.3,11
					c5.4,2.5,11.5,4,17.7,5c6.2,1,12.6,1.5,19,1.7l-1.4,0.6c1.8-1.4,3.6-2.9,5.4-4.3l5.7-4.3c1.9-1.5,3.9-3,5.9-4.6
					C438.1,709.9,440.1,708.3,442.2,706.5z M442.2,706.5c-1.6,1.6-3.1,3.2-4.8,4.9l-4.9,5.3l-5.2,5.5c-1.8,1.9-3.6,3.7-5.4,5.6
					c-0.3,0.3-0.7,0.5-1.2,0.5l-0.2,0c-6.5,0.4-13.1,0.5-19.8-0.1c-6.6-0.6-13.3-1.9-19.8-4.6c-3.2-1.3-6.3-3.1-9.2-5.4
					c-2.8-2.3-5.3-5.3-6.9-8.8c-1.7-3.5-2.3-7.5-1.9-11.3c0.4-3.8,1.7-7.5,4-10.7c1.2-1.6,2.6-3.1,4.5-4.3c0.9-0.6,2-1.1,3.2-1.4
					c1.2-0.3,2.6-0.3,4,0c0.7,0.2,1.3,0.4,1.9,0.7c0.6,0.3,1.2,0.8,1.4,0.9l1.8,1.1c0.6,0.4,1.3,0.7,2,1.1c0.7,0.3,1.3,0.7,2.1,1
					c5.7,2.6,11.7,4.9,17.7,7.1C417.7,698.1,430,702.1,442.2,706.5z"/>
			</g>
			<g>
				<path class="st7" d="M439.7,717.3c0,0-50.5-12.4-62.4-20.6c-11.9-8.2-36.3,41.8,40.7,40.4L439.7,717.3z"/>
				<path class="st1" d="M439.7,717.3c-12.9-1.9-25.6-4.7-38.1-8l-4.7-1.3c-1.6-0.4-3.1-1-4.7-1.4c-3.1-1-6.2-2.1-9.3-3.3
					c-0.8-0.3-1.6-0.7-2.3-1c-0.8-0.4-1.6-0.7-2.3-1.1l-2.4-1.4c-0.5-0.3-0.5-0.3-0.7-0.4c-0.1-0.1-0.2-0.1-0.4-0.1
					c-0.4-0.1-1.2,0.1-2,0.7c-0.9,0.5-1.7,1.4-2.4,2.5c-1.4,2.1-2.3,4.7-2.6,7.3c-0.2,2.6,0.2,5.2,1.3,7.6c2.2,4.8,6.9,8.5,12.3,11
					c5.4,2.5,11.5,4,17.7,5c6.2,1,12.6,1.5,19,1.7l-1.4,0.6c1.8-1.4,3.6-2.9,5.4-4.3l5.7-4.3c1.9-1.5,3.9-3,5.9-4.6
					C435.6,720.7,437.7,719,439.7,717.3z M439.7,717.3c-1.6,1.6-3.1,3.2-4.8,4.9l-4.9,5.3l-5.2,5.5c-1.8,1.9-3.6,3.7-5.4,5.6
					c-0.3,0.3-0.7,0.5-1.2,0.5l-0.2,0c-6.5,0.4-13.1,0.5-19.8-0.1c-6.6-0.6-13.3-1.9-19.8-4.6c-3.2-1.3-6.3-3.1-9.2-5.4
					c-2.8-2.3-5.3-5.3-6.9-8.8c-1.7-3.5-2.3-7.5-1.9-11.3c0.4-3.8,1.7-7.5,4-10.7c1.2-1.6,2.6-3.1,4.5-4.3c0.9-0.6,2-1.1,3.2-1.4
					c1.2-0.3,2.6-0.3,4,0c0.7,0.2,1.3,0.4,1.9,0.7c0.6,0.3,1.2,0.8,1.4,0.9l1.8,1.1c0.6,0.4,1.3,0.7,2,1.1c0.7,0.3,1.3,0.7,2.1,1
					c5.7,2.6,11.7,4.9,17.7,7.1C415.2,708.8,427.5,712.9,439.7,717.3z"/>
			</g>
			<polygon class="st1" points="409.3,709 386.1,733.6 409.9,738.7 429.9,714.8 			"/>
			<g>
				<path class="st7" d="M531.4,833.4c-22.7,24-81.7-29.5-81.7-29.5s0,16.5-17.8,15.1c-16.9-1.3-32.3-44.6-36.3-52.2
					c-4-7.6,24.6-54.2,35.8-61.3c11.2-7.1,86.9,17.4,86.9,17.4S558.7,804.4,531.4,833.4z"/>
				<path class="st1" d="M531.7,833.6c-2.7,2.9-6.3,5-10.2,5.9c-3.9,0.9-7.9,0.9-11.9,0.3c-3.9-0.6-7.8-1.6-11.5-2.9
					c-3.7-1.3-7.4-2.8-11-4.5c-7.2-3.3-14.1-7.3-20.7-11.6c-3.3-2.2-6.5-4.5-9.7-6.8c-3.2-2.4-6.2-4.8-9.3-7.5l6-2.7
					c0,0.6,0,0.9-0.1,1.3c0,0.4-0.1,0.8-0.1,1.2c-0.1,0.8-0.3,1.6-0.4,2.3c-0.4,1.5-0.9,3-1.7,4.5c-1.5,2.9-3.9,5.6-6.9,7.3
					c-3,1.7-6.3,2.3-9.3,2.4c-0.8,0-1.5,0-2.3,0c-0.4,0-0.7,0-1.2-0.1c-0.5,0-0.9-0.1-1.3-0.2c-1.8-0.3-3.4-0.9-4.8-1.7
					c-2.9-1.6-5.2-3.6-7.2-5.6c-2-2.1-3.8-4.3-5.4-6.6c-3.2-4.5-5.9-9.3-8.3-14.1c-2.4-4.8-4.7-9.7-6.7-14.6l-3.1-7.3
					c-0.5-1.2-1-2.4-1.5-3.5l-0.5-1c-0.1-0.2-0.1-0.4-0.2-0.5c-0.1-0.2-0.1-0.3-0.1-0.5c-0.1-0.3-0.1-0.6-0.2-0.9
					c-0.1-1.1-0.1-2,0-2.9c0.5-3.2,1.5-5.8,2.5-8.4c1.1-2.6,2.2-5,3.5-7.4c2.5-4.8,5.2-9.4,8.1-13.9c2.9-4.5,6-8.9,9.2-13.2
					c3.3-4.3,6.6-8.4,10.5-12.3c1-1,2-1.9,3.1-2.8c0.6-0.4,1.1-0.8,1.8-1.2c0.8-0.4,1.5-0.6,2.3-0.8c2.9-0.6,5.6-0.4,8.3-0.3
					c5.4,0.5,10.6,1.3,15.9,2.4c10.5,2,20.8,4.4,31.2,6.7c10.4,2.4,20.7,4.8,30.9,7.8c0.8,0.2,1.4,0.8,1.8,1.4l0.1,0.1
					c4.5,8.8,8.2,17.9,11.4,27.1c3.2,9.3,5.7,18.8,7.4,28.5c1.6,9.7,2.5,19.6,1.8,29.4c-0.4,4.9-1.2,9.8-2.8,14.4
					C537.4,825.6,535.1,830.1,531.7,833.6z M531.1,833.1c1.6-1.7,3-3.7,4.2-5.8c1.1-2.1,2-4.3,2.7-6.6c1.3-4.6,1.9-9.4,1.9-14.2
					c0-2.4-0.1-4.8-0.3-7.2c-0.2-2.4-0.6-4.8-1-7.1c-0.8-4.7-1.9-9.4-3.1-14c-2.5-9.3-5.6-18.3-9-27.3c-3.4-9-7-17.9-10.9-26.6
					l1.8,1.6c-19.9-6.9-39.9-14.3-60.6-18.2c-5.2-0.9-10.4-1.8-15.6-2c-2.6-0.1-5.2-0.1-7.5,0.6c-0.5,0.2-1.1,0.4-1.4,0.6
					c-0.4,0.3-0.9,0.7-1.4,1.1c-0.9,0.8-1.8,1.7-2.7,2.7c-3.4,3.8-6.5,8.1-9.4,12.5c-2.9,4.4-5.6,8.9-8.1,13.4
					c-2.6,4.5-5,9.2-7.2,13.9c-1.1,2.3-2.1,4.7-3,7.1c-0.9,2.3-1.7,4.8-1.9,6.8c0,0.5,0,0.9,0,1.1c0,0.1,0,0.1,0,0.1c0,0,0,0,0,0
					c0,0,0,0,0-0.1l0,0c0,0,0,0.1,0.1,0.1l0.1,0.3l0.3,0.5c0.6,1.3,1.2,2.5,1.7,3.7l3.3,7.2c2.2,4.8,4.4,9.5,6.9,14.1
					c2.4,4.6,5.1,9,8,13.1c1.5,2,3,4,4.7,5.7c1.7,1.7,3.4,3.2,5.2,4.1c0.9,0.5,1.8,0.8,2.6,1c0.2,0.1,0.4,0.1,0.6,0.1
					c0.2,0,0.5,0,0.8,0.1c0.6,0,1.1,0,1.7,0c2.2,0,4.2-0.5,5.9-1.4c1.7-0.9,3-2.2,4-4c0.5-0.9,0.9-1.9,1.2-2.9
					c0.1-0.5,0.3-1,0.4-1.6c0-0.3,0.1-0.5,0.1-0.8l0.1-0.6l0-0.4c0.2-2,1.9-3.4,3.9-3.2c0.8,0.1,1.5,0.4,2.1,0.9
					c2.7,2.6,5.7,5.1,8.6,7.6c2.9,2.5,5.9,4.9,9,7.3c6.1,4.8,12.3,9.3,19,13.2c6.6,3.9,13.6,7.4,21.2,8.9c3.7,0.7,7.6,1.1,11.4,0.3
					C525,837.8,528.5,835.9,531.1,833.1z"/>
			</g>
			<g>
				<path class="st1" d="M468.4,806c-3.4-0.6-6.6-1.2-9.9-1.6c-3.2-0.5-6.4-0.8-9.6-1c-1.6-0.1-3.2-0.1-4.8-0.2
					c-1.6,0.1-3.2,0-4.8,0.1c-3.3,0.1-6.4,0.6-9.9,0.8c2.8-2,6-3.6,9.4-4.4l1.3-0.3c0.4-0.1,0.9-0.1,1.3-0.2
					c0.9-0.1,1.7-0.3,2.6-0.4c1.7-0.1,3.5-0.2,5.2-0.1c3.5,0.2,6.9,0.9,10.2,2.1C462.7,802,465.8,803.6,468.4,806z"/>
			</g>
			<g>
				<path class="st1" d="M449,729.9c2-1.9,4.5-3,7.1-3.7c2.6-0.7,5.3-0.9,8.1-0.7c2.7,0.2,5.4,1.1,7.8,2.4c0.6,0.4,1.2,0.7,1.7,1.1
					c0.5,0.4,1.1,0.9,1.6,1.4c0.2,0.2,0.5,0.5,0.7,0.7c0.2,0.3,0.4,0.5,0.6,0.8c0.4,0.6,0.8,1.1,1.1,1.7c-1.4-0.2-2.6-0.7-3.8-0.9
					c-0.6-0.1-1.2-0.3-1.8-0.4c-0.6-0.1-1.2-0.2-1.8-0.3c-2.3-0.4-4.5-0.8-6.8-1c-2.3-0.2-4.6-0.4-7-0.5
					C454.2,730.3,451.8,730.2,449,729.9z"/>
			</g>
			<g>
				<path class="st1" d="M401.4,783.6l35.3-45l-30.1,48.6c-0.9,1.5-2.9,2-4.4,1c-1.5-0.9-2-2.9-1-4.4
					C401.2,783.8,401.3,783.7,401.4,783.6z"/>
			</g>
			<path class="st1" d="M417.5,799.1c0,0,20.6-38.4,28.8-38.4s72.8,61,87.9,56.6c0,0-4.8,42.9-54.9,1.1c0,0-12.4-30.2-41.2-22
				C438,796.3,432.6,823.8,417.5,799.1z"/>
		</g>
		<g>
			<path class="st1" d="M537.2,770.7l71.1,9.1l-71.7-1.8c-2-0.1-3.6-1.7-3.6-3.8c0.1-2,1.7-3.6,3.8-3.6
				C536.9,770.7,537.1,770.7,537.2,770.7z"/>
		</g>
		<path class="st1" d="M620.5,790.1l-82.4-7.2l-3.3,33.2l44.6,5.4c3.5,0.4,4.6-4.6,1.2-5.7c-12.8-4.1-23.5-8.3-21.1-10.3
			c5.5-4.6,61,0.5,61,0.5V790.1z"/>
		<g>
			<path class="st7" d="M144.3,736.6c0,0,45.3-31.6,78.3-27.5c33,4.1,136.8,10.4,136.8,10.4s10.1,106.3-10.5,113.2
				c-20.6,6.9-194.4,40.1-229.7-9.5"/>
			<path class="st1" d="M144.1,736.3c7.4-5.7,15.3-10.6,23.4-15.1c8.2-4.4,16.7-8.3,25.7-11.2c9-2.9,18.5-4.7,28.3-4
				c1.3,0.1,2.4,0.2,3.5,0.3l3.4,0.3c2.3,0.2,4.6,0.4,6.9,0.7c4.6,0.4,9.2,0.8,13.8,1.2c18.4,1.5,36.8,3.1,55.1,5
				c18.4,1.9,36.8,3.7,55.2,4.9l0,0c0.6,0,1,0.5,1.1,1c1.2,14.8,2.1,29.5,2.7,44.3c0.5,14.8,0.9,29.7-0.8,44.6
				c-0.4,3.7-1,7.5-2,11.3c-0.5,1.9-1,3.8-1.7,5.6c-0.7,1.9-1.6,3.8-2.9,5.6c-0.6,0.9-1.4,1.8-2.3,2.6c-0.9,0.8-2,1.6-3.3,2
				l-0.5,0.2l-0.4,0.1l-0.7,0.2l-1.4,0.4l-2.7,0.8c-3.6,1-7.3,1.8-10.9,2.7c-14.5,3.2-29.2,5.8-43.9,8c-14.7,2.1-29.5,3.8-44.3,4.6
				c-14.8,0.9-29.8,1.2-44.7,0.5c-7.5-0.4-14.9-1-22.3-2c-7.4-1.1-14.8-2.4-22-4.4c-3.6-1-7.2-2.1-10.7-3.5c-3.5-1.3-7-2.9-10.2-4.8
				c-6.5-3.7-12.7-8.5-16.7-14.9c-0.1-0.2-0.1-0.4,0.1-0.5c0.2-0.1,0.4-0.1,0.5,0.1c4.6,5.7,10.8,9.8,17.3,12.9
				c3.3,1.5,6.7,2.7,10.2,3.8c3.5,1.1,7,2,10.6,2.7c7.1,1.5,14.4,2.5,21.6,3.1c7.3,0.7,14.6,1,21.9,1c29.3,0.3,58.6-2.4,87.8-6.2
				c7.3-0.9,14.6-2,21.8-3.2c7.3-1.1,14.5-2.4,21.7-3.9c3.6-0.7,7.2-1.5,10.7-2.3l2.6-0.7l1.3-0.4l0.6-0.2l0.3-0.1l0.2-0.1
				c0.5-0.1,0.9-0.5,1.4-0.8c0.5-0.4,1-0.9,1.4-1.5c1.8-2.4,3.1-5.7,4.1-9.1c1-3.4,1.7-6.9,2.3-10.5c1.2-7.2,1.9-14.5,2.4-21.8
				c0.5-7.3,0.7-14.7,0.7-22.1c0-14.7-0.7-29.5-2.1-44.2l1.1,1c-18.4-1-36.9-1.6-55.4-2.3s-36.9-1.7-55.4-3.4
				c-4.6-0.4-9.2-0.9-13.8-1.4c-2.3-0.3-4.6-0.5-6.9-0.8l-3.5-0.4c-1.2-0.2-2.3-0.3-3.4-0.4c-4.3-0.5-8.7-0.4-13.1,0.2
				c-4.4,0.6-8.8,1.4-13.2,2.6c-8.7,2.4-17.3,5.6-25.6,9.4c-8.3,3.8-16.5,8-24.5,12.7l0,0c-0.2,0.1-0.4,0-0.5-0.1
				C143.9,736.6,144,736.4,144.1,736.3z"/>
		</g>
		<path class="st1" d="M227.2,711.6c0,0-74.6,71.9-30,139.4l39.1-1.2C236.2,849.9,214,731.3,227.2,711.6z"/>
		<path class="st0" d="M338.1,719.9c0,0-79.5-7.7-97.5-8.9s-67.9,99.5-6.6,138.4c0,0,97.6-9.7,99.4-12.8L338.1,719.9z"/>
		<path class="st1" d="M315.2,790.1H204.3c0,0-1.7,33,16.9,48.7l89.2-6.9l-7.6-15.8c0,0-83.5,6.2-69.9-1.7s78.1-9.3,78.1-9.3
			L315.2,790.1z"/>
		<g>
			<path class="st1" d="M456.2,170.9c-0.3-9.5-0.9-19-1.9-28.3c-1.1-9.3-2.5-18.6-4.8-27.6c-0.5-2.3-1.2-4.5-1.8-6.7
				c-0.7-2.2-1.3-4.4-2.1-6.6c-1.5-4.4-3.1-8.7-5.2-12.8c-2.1-4.1-4.4-8.2-7.3-11.8c-2.9-3.6-6.4-6.8-10.2-9.5l0,0
				c-0.5-0.3-0.6-1-0.3-1.5c0.2-0.3,0.5-0.4,0.7-0.5c3.8-0.6,7.5-1,11.2-1.2c3.7-0.3,7.5-0.4,11.3-0.5c7.5-0.2,15.1,0.1,22.6,0.9
				c7.5,0.9,15,2.5,22.3,4.8c7.3,2.3,14.4,5.3,21.2,8.8c6.8,3.6,13.1,8.1,19,13l4.3,3.9c1.4,1.3,2.7,2.7,4,4.1
				c0.7,0.7,1.3,1.4,2,2.1l1.9,2.2c1.2,1.5,2.5,2.9,3.7,4.4c9.2,12.2,16.1,25.9,20.4,40.3c0.1,0.2-0.1,0.4-0.2,0.5
				c-0.2,0.1-0.4,0-0.4-0.2c-7-13.2-15-25.6-24.7-36.5c-1.2-1.4-2.5-2.6-3.7-4l-1.9-2c-0.6-0.6-1.3-1.2-2-1.9l-4-3.7l-4.2-3.4
				c-5.6-4.5-11.6-8.6-17.8-12.2c-6.3-3.6-12.8-6.6-19.7-9.1c-6.8-2.5-13.8-4.5-21-6c-7.1-1.6-14.4-2.7-21.8-3.2
				c-7.3-0.5-14.8-0.2-22.1,0.9l0.4-2c4,2.7,7.8,5.8,11.2,9.3l2.5,2.7c0.8,0.9,1.6,1.9,2.4,2.8c0.8,0.9,1.5,1.9,2.2,2.9
				c0.7,1,1.5,2,2.1,3c5.4,8.2,9.1,17.5,11.3,27c2.2,9.5,3.3,19.2,3.4,28.8c0.1,4.8-0.1,9.6-0.4,14.4c-0.4,4.8-1,9.6-2,14.3
				c0,0.2-0.2,0.3-0.4,0.3C456.3,171.2,456.2,171.1,456.2,170.9L456.2,170.9z"/>
		</g>
		<g>
			<linearGradient id="SVGID_13_" gradientUnits="userSpaceOnUse" x1="397.5464" y1="217.6136" x2="516.6613" y2="217.6136">
				<stop  offset="0" style="stop-color:#52FFCE"/>
				<stop  offset="0.9948" style="stop-color:#6700E4"/>
			</linearGradient>
			<path class="st17" d="M424.9,261.5c0,0,6.8-63.9-27.4-86.7c0,0,85.3-15.5,119.1,68.1"/>
			<path class="st1" d="M424.6,261.5c-0.4-7.9-1-15.8-1.9-23.5c-0.9-7.7-2.2-15.4-4.1-22.9c-0.9-3.7-2-7.4-3.2-11
				c-1.2-3.6-2.5-7.2-4.1-10.7c-1.7-3.4-3.5-6.8-5.9-9.8c-2.4-3-5.2-5.7-8.4-7.9l0,0c-0.5-0.4-0.6-1-0.3-1.5
				c0.2-0.3,0.5-0.4,0.7-0.5c3.2-0.5,6.2-0.8,9.4-1c3.1-0.3,6.2-0.4,9.4-0.5c6.3-0.2,12.6-0.1,18.9,0.6c6.3,0.7,12.6,2,18.7,3.9
				c6.1,1.9,12.1,4.3,17.8,7.3c5.7,3,11,6.7,15.9,10.9l3.6,3.2c1.1,1.1,2.2,2.3,3.3,3.5c0.5,0.6,1.1,1.2,1.6,1.8l1.5,1.8
				c1,1.2,2.1,2.4,3,3.7c7.7,10.2,13.3,21.8,16.6,33.8c0.1,0.2-0.1,0.4-0.3,0.5c-0.2,0-0.3,0-0.4-0.2c-6-10.9-12.8-21.1-20.9-30
				c-8.1-8.9-17.5-16.3-27.8-22.3c-5.2-3-10.6-5.5-16.2-7.6c-5.6-2.1-11.4-3.8-17.3-5.1c-5.9-1.4-12-2.4-18.1-2.8
				c-3.1-0.2-6.1-0.3-9.2-0.2c-3,0.1-6.2,0.3-9.1,0.9l0.4-2c3.4,2.3,6.5,4.8,9.4,7.7c2.9,2.9,5.5,6.1,7.8,9.5
				c4.6,6.8,7.8,14.6,9.6,22.5c1.8,7.9,2.7,16,2.7,24.1c0,8-0.6,16.1-2.4,23.9c0,0.2-0.2,0.3-0.4,0.3
				C424.7,261.8,424.6,261.7,424.6,261.5L424.6,261.5z"/>
		</g>
		<g>
			<g>
				<path class="st7" d="M333,694.5c0,0-10.2-47-6.5-62.3c3.2-13.3,54.7-26.5,41.2,58.7L333,694.5z"/>
				<path class="st1" d="M332.8,694.8c-0.1-0.1-0.2-0.3-0.2-0.4l-0.1-0.2l-0.1-0.3l-0.2-0.6l-0.5-1.2l-0.9-2.5
					c-0.5-1.7-1.1-3.3-1.6-5c-1-3.3-1.9-6.7-2.7-10.1c-1.5-6.8-2.8-13.7-3.4-20.7c-0.3-3.5-0.3-7-0.1-10.6c0.3-3.6,0.7-7.1,1.7-10.7
					l0.2-0.7c0.1-0.2,0.2-0.5,0.3-0.7c0.2-0.5,0.4-1,0.7-1.4c0.5-0.9,1.2-1.6,1.9-2.3c1.4-1.3,2.9-2.4,4.5-3.2
					c3.2-1.7,6.8-2.7,10.4-3c1.8-0.1,3.7-0.1,5.5,0.1c1.8,0.2,3.7,0.7,5.4,1.3c3.5,1.3,6.8,3.6,9.4,6.3c2.6,2.8,4.6,6.1,6.1,9.5
					c1.5,3.4,2.5,7,3.2,10.5c1.5,7.1,1.9,14.4,1.5,21.5c-0.3,7.1-1.5,14.1-2.9,21l-0.1,0.3c-0.3,1.4-1.5,2.3-2.8,2.4l-9.2,0.4
					c-3,0.1-6.1,0.2-9,0.2c-3,0-5.9,0.1-8.7,0.1C338.2,694.9,335.4,694.8,332.8,694.8z M333.2,694.2l17.7-3.6l8.3-1.6l8.2-1.4
					l-2.8,2.7c0.7-6.8,1.2-13.6,1.4-20.3c0.2-6.7,0.2-13.4-0.7-19.9c-0.9-6.5-2.8-12.8-6.3-17.9c-1.8-2.6-4-4.8-6.8-6.3
					c-2.8-1.6-6-2.4-9.3-2.3c-3.3,0.1-6.6,0.9-9.4,2.6c-2.8,1.6-5.3,4.1-5.4,7c-0.2,1.6-0.2,3.3-0.1,4.9c0.1,1.7,0.3,3.3,0.5,5
					c0.4,3.4,0.9,6.7,1.3,10.1l2.2,20.4c0.4,3.4,0.6,6.9,0.9,10.3c0.1,1.7,0.2,3.5,0.4,5.2l0.1,2.6l0,1.3l0,0.7l0,0.3l0,0.2
					C333.3,694.3,333.3,694.2,333.2,694.2z"/>
			</g>
			<path class="st1" d="M331.8,691.5c0,0-6.9-39.4-3.9-52.4c2.7-11.3,42-23.2,30.3,48.8L331.8,691.5z"/>
			<g>
				<path class="st7" d="M314.2,704.8c0,0-10.2-47-6.5-62.3c3.2-13.3,54.7-26.5,41.2,58.7L314.2,704.8z"/>
				<path class="st1" d="M313.9,705.1c-0.1-0.1-0.2-0.3-0.2-0.4l-0.1-0.2l-0.1-0.3l-0.2-0.6l-0.5-1.2l-0.9-2.5
					c-0.5-1.7-1.1-3.3-1.6-5c-1-3.3-1.9-6.7-2.7-10.1c-1.5-6.8-2.8-13.7-3.4-20.7c-0.3-3.5-0.3-7-0.1-10.6c0.3-3.6,0.7-7.1,1.7-10.7
					l0.2-0.7c0.1-0.2,0.2-0.5,0.3-0.7c0.2-0.5,0.4-1,0.7-1.4c0.5-0.9,1.2-1.6,1.9-2.3c1.4-1.3,2.9-2.4,4.5-3.2
					c3.2-1.7,6.8-2.7,10.4-3c1.8-0.1,3.7-0.1,5.5,0.1c1.8,0.2,3.7,0.7,5.4,1.3c3.5,1.3,6.8,3.6,9.4,6.3c2.6,2.8,4.6,6.1,6.1,9.5
					c1.5,3.4,2.5,7,3.2,10.5c1.5,7.1,1.9,14.4,1.5,21.5c-0.3,7.1-1.5,14.1-2.9,21L352,702c-0.3,1.4-1.5,2.3-2.8,2.4l-9.2,0.4
					c-3,0.1-6.1,0.2-9,0.2c-3,0-5.9,0.1-8.7,0.1C319.4,705.2,316.6,705.1,313.9,705.1z M314.4,704.5l17.7-3.6l8.3-1.6l8.2-1.4
					l-2.8,2.7c0.7-6.8,1.2-13.6,1.4-20.3c0.2-6.7,0.2-13.4-0.7-19.9c-0.9-6.5-2.8-12.8-6.3-17.9c-1.8-2.6-4-4.8-6.8-6.3
					c-2.8-1.6-6-2.4-9.3-2.3c-3.3,0.1-6.6,0.9-9.4,2.6c-2.8,1.6-5.3,4.1-5.4,7c-0.2,1.6-0.2,3.3-0.1,4.9c0.1,1.7,0.3,3.3,0.5,5
					c0.4,3.4,0.9,6.7,1.3,10.1L313,684c0.4,3.4,0.6,6.9,0.9,10.3c0.1,1.7,0.2,3.5,0.4,5.2l0.1,2.6l0,1.3l0,0.7l0,0.3l0,0.2
					C314.5,704.6,314.4,704.5,314.4,704.5z"/>
			</g>
			<g>
				<path class="st7" d="M307.6,831.2c41.8,23.1,71.5-21.5,71.5-21.5c7.8-4.1,11.4-43.9,12-61.2c0.6-17.2-21.2-20.4-14-42.8
					c7.2-22.4-45-13-59-13c-14,0.1-47.8,36.8-45.1,44.3c2.7,7.5,14,64.3,14,64.3S291.1,822,307.6,831.2z"/>
				<path class="st1" d="M307.8,830.9c3,1.6,6.1,3,9.4,4.1c3.2,1,6.6,1.7,10,1.9c1.7,0.1,3.4,0.1,5.1,0c1.7-0.1,3.3-0.3,5-0.6
					c3.3-0.6,6.5-1.6,9.5-2.9c6.1-2.6,11.6-6.5,16.5-10.9c2.5-2.2,4.8-4.5,7-7c1.1-1.2,2.2-2.5,3.2-3.8c1-1.3,2.1-2.6,2.9-3.8
					l1.2-1.1c0,0,0.1-0.1,0.3-0.2c0.2-0.2,0.3-0.4,0.5-0.6c0.4-0.5,0.7-1.2,1.1-1.9c0.7-1.4,1.3-3,1.8-4.6c1-3.3,1.9-6.7,2.6-10.2
					c1.4-7,2.6-14.1,3.6-21.2c0.5-3.6,0.9-7.2,1.3-10.7c0.2-1.8,0.4-3.6,0.5-5.4c0.1-1.8,0.3-3.6,0.3-5.2c-0.1-3.3-1.3-6.6-3.2-9.5
					c-1.9-3-4.3-5.7-6.5-8.6c-2.2-3-4.1-6.4-4.9-10.2c-0.8-3.8-0.4-7.7,0.5-11.3l0.7-2.6c0.2-0.8,0.3-1.6,0.3-2.4
					c0-1.6-0.5-3-1.4-4.2c-1-1.1-2.3-2-3.8-2.7c-1.5-0.7-3.2-1.1-4.9-1.4c-3.4-0.6-6.9-0.8-10.5-0.8c-3.5,0-7.1,0.2-10.7,0.5
					c-3.6,0.3-7.1,0.7-10.7,1c-3.6,0.4-7.2,0.8-10.8,1.1l-2.8,0.2l-1.4,0.1L318,696c-1.1,0.1-2.6,0.5-4,1.2
					c-2.9,1.3-5.8,3.2-8.5,5.3c-5.5,4.2-10.6,9.2-15.4,14.4c-2.4,2.6-4.6,5.3-6.7,8.1c-2.1,2.7-4.1,5.6-5.5,8.4
					c-0.3,0.7-0.6,1.4-0.8,1.9c-0.1,0.3-0.1,0.5-0.2,0.7c0,0.2,0,0.2,0,0c0,0,0-0.1,0-0.1c0,0,0-0.1,0,0l0.1,0.4l0.2,0.7
					c0.1,0.5,0.3,1,0.4,1.5l0.7,2.7c0.8,3.6,1.6,7.2,2.4,10.7c1.5,7.1,2.9,14.3,4.2,21.4c0.7,3.6,1.2,7.2,1.8,10.7
					c0.6,3.6,1.2,7.2,1.7,10.8l0.8,5.4c0.2,1.7,0.5,3.4,0.9,5.1c0.8,3.4,2,6.8,3.6,10C296.7,821.6,301.5,827.4,307.8,830.9z
					 M307.4,831.5c-6.5-3.5-11.7-9-15.8-15.2c-2-3.1-3.8-6.4-5.3-9.9c-0.7-1.7-1.4-3.5-1.9-5.4l-1.3-5.3c-0.9-3.5-1.8-7-2.6-10.6
					c-0.9-3.5-1.7-7-2.6-10.6l-4.9-21.1c-0.8-3.5-1.6-7-2.5-10.5l-0.7-2.5c-0.1-0.4-0.2-0.8-0.3-1.2l-0.2-0.6l-0.1-0.3l-0.1-0.3
					l-0.1-0.4c-0.2-1.1-0.2-2-0.1-2.7c0.1-0.7,0.3-1.4,0.4-2c0.4-1.2,0.8-2.2,1.2-3.1c1.9-3.7,4.1-6.7,6.4-9.7
					c2.3-3,4.8-5.8,7.4-8.4c5.1-5.4,10.6-10.4,16.8-14.8c3.1-2.2,6.3-4.3,10.1-5.8c1.9-0.8,3.9-1.4,6.5-1.5l1.3,0l1.3,0l2.7-0.1
					c7.2-0.4,14.5-0.9,21.8-1c3.7,0,7.4,0,11.1,0.3c3.7,0.3,7.4,0.7,11.1,1.6c1.8,0.5,3.7,1.1,5.5,1.9c1.8,0.9,3.5,2.1,4.8,3.8
					c1.3,1.7,1.9,4,1.8,6c0,1-0.2,2-0.5,3l-0.8,2.6c-1,3.3-1.3,6.9-0.7,10.2c0.6,3.4,2.3,6.5,4.5,9.3c2.1,2.8,4.6,5.5,6.8,8.6
					c1.1,1.5,2.1,3.2,2.8,5c0.7,1.8,1.2,3.7,1.4,5.7c0.2,2,0.1,3.8,0.1,5.6l-0.1,5.5c-0.1,3.6-0.2,7.3-0.5,10.9
					c-0.4,7.3-1.1,14.6-2.3,21.9c-0.6,3.6-1.3,7.3-2.4,11c-0.5,1.8-1.2,3.7-2.1,5.5c-0.4,0.9-1,1.9-1.6,2.9c-0.7,1-1.6,2-3.1,2.9
					l1.2-1.1c-1.1,1.6-2.2,2.9-3.4,4.3c-1.2,1.4-2.4,2.7-3.6,3.9c-2.5,2.5-5.2,4.9-8,7c-2.9,2.1-5.9,4.1-9,5.7c-3.2,1.6-6.5,3-9.9,4
					c-6.8,2.1-14,2.7-20.9,1.6C320.1,837.3,313.5,834.8,307.4,831.5z"/>
			</g>
			<path class="st1" d="M349,754.9c0,0,25,38.4,12.1,68.2c0,0,27.7-26.9,23.3-86.1C384.4,737,367.3,709.6,349,754.9z"/>
			<g>
				<path class="st7" d="M307.4,715.3l50-8.4c0,0,15.3,39,8.1,46.3s-48.2,14.5-48.2,14.5s-20.5-21,15-31.5"/>
				<path class="st1" d="M307.4,714.9c4.1-1.4,8.1-2.5,12.2-3.6c2-0.6,4.1-1.1,6.2-1.6c2.1-0.5,4.1-1,6.2-1.5
					c4.1-1,8.3-1.9,12.4-2.8c4.1-0.9,8.3-1.7,12.4-2.4c1.9-0.3,3.6,0.7,4.3,2.4l0,0c1.6,4,2.9,7.9,4,11.9c1.2,4,2.2,8.1,3.1,12.2
					c0.9,4.1,1.6,8.3,1.7,12.7c0,2.2,0,4.4-0.5,6.7c-0.1,0.6-0.3,1.2-0.4,1.7c-0.1,0.3-0.2,0.6-0.3,0.9c-0.1,0.3-0.2,0.6-0.4,0.9
					l-0.5,0.9c-0.2,0.3-0.5,0.6-0.7,0.8c-0.2,0.3-0.5,0.5-0.7,0.7c-0.2,0.2-0.5,0.4-0.7,0.5c-2,1.2-4,2-6,2.8c-2,0.7-4,1.4-6,2
					c-4,1.2-7.9,2.4-11.9,3.6c-7.9,2.5-15.7,5.4-23.9,7.1c-1,0.2-2.1-0.1-2.8-0.8l-0.1-0.1c-0.5-0.5-0.8-0.8-1.1-1.2
					c-0.3-0.4-0.7-0.8-1-1.2c-0.6-0.8-1.2-1.7-1.7-2.6c-1-1.8-1.9-3.8-2.4-6c-0.5-2.1-0.6-4.5-0.2-6.8c0.4-2.3,1.4-4.4,2.7-6.2
					c1.3-1.8,2.9-3.3,4.6-4.4c0.8-0.6,1.7-1.1,2.6-1.6c0.9-0.4,1.8-0.9,2.7-1.3c3.6-1.5,7.3-2.4,11.1-2.8c0.2,0,0.4,0.1,0.4,0.3
					c0,0.2-0.1,0.3-0.2,0.4l0,0c-3.3,1.7-6.6,3.4-9.6,5.4c-0.8,0.5-1.4,1-2.1,1.5c-0.3,0.3-0.6,0.6-1,0.8c-0.3,0.3-0.7,0.5-0.9,0.8
					c-1.2,1.1-2.2,2.4-3,3.7c-1.5,2.6-1.7,5.5-0.9,8.4c0.4,1.4,1.1,2.9,1.9,4.3c0.4,0.7,0.8,1.4,1.3,2c0.2,0.3,0.5,0.7,0.7,1
					c0.2,0.3,0.5,0.7,0.7,0.9l-2.9-0.9c8-1.2,16.3-1.8,24.4-3.3c4-0.8,8-1.8,11.8-3.2c1.9-0.7,3.8-1.4,5.6-2.3
					c1.8-0.9,3.6-1.9,4.9-3.1c0.2-0.1,0.3-0.3,0.4-0.4c0.1-0.1,0.3-0.3,0.3-0.4c0.1-0.1,0.2-0.3,0.2-0.4l0.2-0.5
					c0.1-0.1,0.1-0.4,0.1-0.6c0-0.2,0.1-0.4,0.1-0.6c0-0.4,0.1-0.8,0.1-1.3c0.1-1.8-0.2-3.7-0.5-5.6c-0.7-3.8-1.7-7.7-2.8-11.6
					c-2.2-7.7-5.2-15.4-8-22.9l4.3,2.4c-4.2,0.7-8.4,1.3-12.5,1.8c-4.2,0.5-8.4,1-12.6,1.4c-2.1,0.2-4.2,0.4-6.3,0.6
					c-2.1,0.2-4.2,0.4-6.3,0.5c-4.2,0.3-8.5,0.5-12.8,0.6c-0.2,0-0.4-0.2-0.4-0.4C307.1,715.1,307.2,715,307.4,714.9z"/>
			</g>
			<g>
				<path class="st7" d="M361.4,726.3c0,0,4.1-31,20.6-32.7c16.5-1.7,37.2,12.2,31,23.2C399.9,740.4,360.9,747.3,361.4,726.3z"/>
				<path class="st1" d="M361,726.3l1.5-9.6c0.5-3.2,1-6.5,1.9-9.7c0.9-3.2,2.4-6.4,4.6-9.3c2.2-2.8,5.4-5.3,9.2-6.3
					c0.9-0.2,1.9-0.4,2.9-0.4c1-0.1,1.8,0,2.7,0.1c1.7,0.1,3.4,0.4,5.1,0.8c3.3,0.8,6.4,1.9,9.4,3.1c3,1.2,6,2.7,8.8,4.5
					c2.8,1.8,5.6,3.9,7.7,6.9c1,1.5,1.9,3.4,2.2,5.5c0.3,2.1-0.1,4.4-1.1,6.3c-1.6,3.2-3.6,6-5.8,8.6c-2.3,2.6-4.9,4.9-7.6,7
					c-2.8,2-5.8,3.7-9,5c-3.2,1.3-6.5,2.3-10,2.7c-3.4,0.4-7,0.3-10.5-0.6c-1.7-0.4-3.4-1.1-4.9-1.9c-1.5-0.9-3-2-4.1-3.3
					c-1.1-1.3-1.9-2.9-2.4-4.5c-0.2-0.8-0.4-1.6-0.5-2.4C361,727.9,361,727.1,361,726.3z M361.8,726.3c0,1.5,0.2,3.1,0.8,4.5
					c0.6,1.4,1.5,2.6,2.7,3.5c2.4,1.8,5.4,2.2,8.3,2c2.9-0.1,5.8-0.8,8.6-1.6c2.8-0.8,5.6-1.8,8.2-3.1c2.7-1.3,5.2-2.7,7.7-4.3
					c2.5-1.6,4.8-3.4,6.8-5.5c2.1-2,3.9-4.4,5.5-6.7c0.6-0.9,0.9-1.8,1-2.9c0.1-1.1-0.1-2.3-0.6-3.6c-1-2.5-2.9-5-5.3-6.9
					c-2.3-2-5.1-3.5-8-4.6c-2.9-1.1-6-1.6-9.1-1.6c-1.5,0-3,0.2-4.5,0.4c-0.7,0.1-1.5,0.3-2.1,0.5c-0.6,0.2-1.2,0.4-1.8,0.7
					c-4.5,2.1-7.9,6.8-11.3,11.9c-1.7,2.6-3.2,5.4-4.5,8.3C363.1,720.1,362.2,723.2,361.8,726.3z"/>
			</g>
			<polygon class="st1" points="313.7,687.8 348.7,667.1 349.9,690.8 316.8,692.5 			"/>
		</g>
		<g>
			<g>
				<path class="st1" d="M434.5,401.2c-0.4-2.7-1.6-10.8-2.6-18.9c-0.3-2.5,0.5-5.1,2.3-7c23.5-24.7,37.6-38.6,41.8-41.9
					c4.2-3.2,9.8-5.5,13.1-6.4c6.4-1.7,9.2-6-1.8-12.7c-5.7-3.4-36.4-19.6-42.8-19.5c-1.7,0-3.4,0.4-4.9,1.1
					c-3,1.3-6.4,2.9-23.6,33.3c0,0-0.1,0.1-0.1,0.1c-3.2,5.6-11.1,5.8-14.6,0.4c0,0-0.1-0.1-0.1-0.1c-18.9-29.5-22.4-30.8-25.4-32
					c-1.5-0.6-3.2-0.8-4.9-0.8c-6.4,0.2-16.5,5.2-35.4,15.9c-2,1.1-7.9,4.5-8.4,4.9c-6,5-9.5,11.5,0.7,12.9c0.6,0.1,1.1,0.2,1.7,0.4
					c2.2,0.8,8.3,3.2,12.1,6.1c4.3,3,19.3,16.1,44,39.5c1.9,1.8,2.9,4.3,2.7,6.9c-0.6,8.1-1.3,16.3-1.6,19.1
					c-0.5,5.6-2.5,14.4-4.2,22.1c-2.8,12.6-3.6,17-3.2,20.6c1.7,13.5,24.7,12.9,32.2,12.6l0,0l0.6,0c5.5-0.2,11.6-0.9,16.7-2.1
					c4.7-1,14.6-3.2,15.3-12.3c0.3-3.7-0.8-8-4.3-20.5C437.7,415.4,435.3,406.7,434.5,401.2z"/>
			</g>
			<g>
				<linearGradient id="SVGID_14_" gradientUnits="userSpaceOnUse" x1="333.7893" y1="376.3702" x2="482.8955" y2="376.3702">
					<stop  offset="0" style="stop-color:#52FFCE"/>
					<stop  offset="0.9948" style="stop-color:#6700E4"/>
				</linearGradient>
				<path class="st18" d="M471.9,323.6c5.1-1.3,11-2.2,11-2.2c-1.9-0.3-34.5-17.9-39.1-15.9c-4.6,2-34.1,55.2-34.3,59.7c0,0,0,0,0,0
					c0,0,0,0,0,0c0,0,0,0,0,0c0,0,0,0,0,0c-0.4-4.4-32.9-55.9-37.5-57.7c-4.7-1.8-36.3,17.6-38.2,18c0,0,6,0.6,11.1,1.6
					c3.9,0.8,36.6,31.4,51.4,45.4c1.8,1.7,2.8,4.2,2.6,6.7c-0.5,7.9-1.3,17.5-2,24.4c-1.2,12.4-7.9,36.1-7.3,40.4
					c0.2,1.9,10.8,3.9,22.1,3.5c10.4-0.4,21.8-3,21.9-4.7c0.3-4.4-7.7-27.6-9.6-39.9c-1-6.8-2.4-16.3-3.3-24.2
					c-0.3-2.5,0.5-5,2.3-6.8C437,356.9,468,324.6,471.9,323.6z"/>
			</g>
		</g>
		<path class="st1" d="M512.9,275.3l16.5,192.2l24.7-13.7c0,0-11.5-129.3-6.9-140c8.2-19.2,15.6,113.9,15.6,113.9
			s14.4-116.1-6.1-145.9L512.9,275.3z"/>
		<path class="st7" d="M679.9,144.9c0,0,10.1,37.1-3.6,26.1c-13.7-11-27.5-17.8-27.5-17.8s20.9,26.1,17.3,49.4l6-24.7
			c0,0,22,29,19.2-6.9L679.9,144.9z"/>
		<linearGradient id="SVGID_15_" gradientUnits="userSpaceOnUse" x1="640.5621" y1="348.5809" x2="727.0591" y2="348.5809">
			<stop  offset="0" style="stop-color:#52FFCE"/>
			<stop  offset="0.9948" style="stop-color:#6700E4"/>
		</linearGradient>
		<path class="st19" d="M649.8,297.4c0,0,44.5-6.8,56.8-7.9c0,0,19.3,56,20.4,102.8c0,0-36.9,10.1-77.3,15.4
			c0,0,40.7-16.8,48.6-25.9c0,0-52.3-1.2-22.1-22.8c28.8-20.6-21.9-1.9-35.7-5.8c0,0,43.9-23.1,50.7-32.5c6.9-9.6-56.5,10.4-47.3,0
			C653.2,310.4,692.5,303.9,649.8,297.4z"/>
		<path class="st7" d="M462.1,13c0,0,94.7,17.8,119.2,108.6c0,0-17.6-66-93.2-90.7c0,0,5.5,5.5,6.9,19.2
			C495,50.1,477.2,25.4,462.1,13z"/>
		<path class="st7" d="M304.2,36.4c0,0,106.2-17.4,160.2,27c0,0-46.2-32.5-145.1-24.3c0,0,8.2,26.1,9.6,46.7
			C328.9,85.8,317.9,48.7,304.2,36.4z"/>
		<path class="st7" d="M427.8,68c0,0,75.3-15.7,135.8,75.9c0,0-37-47.1-68.6-55.3c0,0,23.3,12.4,31.6,24.7c0,0-19.2-15.1-33-19.2
			c0,0,13.7,11,19.2,22c0,0-22-23.3-42.6-31.6l17.8,1.4C488.2,85.8,467.6,69.3,427.8,68z"/>
		<g>
			<path class="st1" d="M469.2,616.2c0,0,34.9-74.1,158.2-80.3c0,0,26.3,75.9-86.8,89.3c0,0,72.3-21.5,67.2-69.3
				C607.7,555.9,546.3,550,469.2,616.2z"/>
		</g>
		<circle class="st1" cx="544.5" cy="581.5" r="19.2"/>
		<g>
			
				<linearGradient id="SVGID_16_" gradientUnits="userSpaceOnUse" x1="362.8676" y1="608.9599" x2="775.0401" y2="608.9599" gradientTransform="matrix(0.9952 9.782915e-02 -0.118 1.2007 -61.4666 -248.172)">
				<stop  offset="0" style="stop-color:#52FFCE"/>
				<stop  offset="0.9948" style="stop-color:#6700E4"/>
			</linearGradient>
			<path class="st20" d="M454.6,617.4c0,0,66.6-88.3,197.8-117c0,0-20.1-24-46.8-20c-26.6,4-131.3,62.8-151.7,102.4L454.6,617.4z"/>
			<path class="st1" d="M454.7,617c-0.1,0-0.2-0.1-0.3,0c-0.1,0.1-0.1,0.1-0.1,0l0.1-0.1l0.1-0.2l0.3-0.4l0.5-0.8l1.1-1.5
				c0.7-1,1.4-2,2.2-2.9c1.5-1.9,3-3.9,4.6-5.7c3.2-3.7,6.4-7.4,9.8-11c6.7-7.1,13.9-13.9,21.3-20.3c7.5-6.4,15.2-12.5,23.2-18.2
				c4-2.8,8.1-5.6,12.2-8.3c4.1-2.7,8.3-5.2,12.6-7.7c17.1-9.8,35.2-17.5,53.6-24.1c18.4-6.6,37.1-12.3,56.1-17l-0.8,2.3
				c-3.3-3.5-7.1-6.6-11.1-9.3c-4-2.7-8.3-4.9-12.8-6.5c-4.5-1.6-9.1-2.5-13.8-2.6c-2.3,0-4.6,0.1-6.9,0.5c-2.2,0.3-4.5,1-6.7,1.7
				c-4.5,1.5-9.1,3.4-13.6,5.3c-4.5,2-8.9,4.1-13.3,6.4c-8.8,4.4-17.4,9.2-26,14.2c-8.6,4.9-16.9,10.2-25.3,15.5
				c-8.3,5.3-16.5,10.9-24.4,16.7c-4,2.9-7.9,5.9-11.7,9c-3.8,3.1-7.6,6.2-11.2,9.6c-7.2,6.6-14.1,13.7-18.9,22l0.2-0.9
				c-0.1,5.5-0.3,10.9-0.6,16.6C455,605,454.7,611,454.7,617z M454.5,617.7c-0.3-5.5-0.7-11.1-1.2-16.9c-0.5-5.9-1-11.9-1.3-18
				c0-0.3,0-0.6,0.2-0.8l0.1-0.1c2.2-4.7,5.1-9,8.3-13c3.1-4,6.5-7.8,10.1-11.4c7.1-7.2,14.7-13.8,22.6-20
				c15.8-12.4,32.6-23.4,50-33.4c8.7-4.9,17.6-9.6,26.7-13.9c4.5-2.2,9.1-4.2,13.8-6.2c4.7-1.9,9.4-3.7,14.4-5.2
				c2.5-0.7,5.1-1.4,7.8-1.7c2.7-0.3,5.3-0.3,8-0.1c5.3,0.4,10.5,1.8,15.2,3.9c4.8,2.1,9.2,4.8,13.2,7.9c2,1.6,4,3.2,5.8,5
				c1.9,1.8,3.6,3.5,5.3,5.6l0,0c0.5,0.6,0.4,1.5-0.2,2c-0.2,0.2-0.4,0.3-0.6,0.3c-19.1,3.8-37.8,9.3-55.7,16.9
				c-17.9,7.6-34.9,17-51.4,26.9c-8.2,5-16.5,10.1-24.4,15.6c-7.9,5.5-15.8,11.2-23.4,17.2c-7.6,6-15,12.2-22.2,18.7
				c-3.6,3.3-7.1,6.6-10.6,10c-1.7,1.7-3.5,3.4-5.1,5.2l-2.5,2.6l-1.2,1.3l-0.6,0.7l-0.3,0.3l-0.2,0.2l-0.1,0.1c0,0,0,0-0.1,0.1
				C454.7,617.7,454.6,617.7,454.5,617.7z"/>
		</g>
		<g>
			<path class="st1" d="M368.5,613.2c0,0-37.6-72.8-161.1-74.5c0,0-23.5,76.8,90.1,86.1c0,0-73-18.8-69.7-66.8
				C227.8,558.1,288.9,549.9,368.5,613.2z"/>
		</g>
		<circle class="st1" cx="292" cy="581.5" r="19.2"/>
		<g>
			
				<linearGradient id="SVGID_17_" gradientUnits="userSpaceOnUse" x1="6614.896" y1="95.7921" x2="7088.0649" y2="95.7921" gradientTransform="matrix(-0.9952 9.782915e-02 0.118 1.2007 7246.6016 -248.172)">
				<stop  offset="5.181347e-03" style="stop-color:#6700E4"/>
				<stop  offset="1" style="stop-color:#52FFCE"/>
			</linearGradient>
			<path class="st21" d="M381.9,617.4c0,0-66.6-88.3-197.8-117c0,0,20.1-19.9,46.8-15.8S363.4,546,383.8,585.6L381.9,617.4z"/>
			<path class="st1" d="M382,617.7c-0.1,0-0.2,0-0.3-0.1c-0.1-0.1-0.1-0.1-0.1-0.1l-0.1-0.1l-0.2-0.2l-0.3-0.3l-0.6-0.7l-1.2-1.3
				l-2.5-2.6c-1.7-1.8-3.4-3.5-5.1-5.2c-3.4-3.4-7-6.7-10.6-10c-7.2-6.5-14.6-12.8-22.2-18.7c-7.6-6-15.4-11.7-23.4-17.2
				c-8-5.5-16.2-10.6-24.4-15.6c-16.5-10-33.6-19.3-51.4-26.9c-17.9-7.6-36.6-13.2-55.7-16.9c-0.8-0.2-1.3-0.9-1.1-1.7
				c0.1-0.3,0.2-0.5,0.4-0.7l0,0c1.9-1.9,3.8-3.4,5.8-5c2-1.5,4.1-3,6.3-4.3c4.3-2.6,9-4.9,13.9-6.4c2.5-0.8,5-1.4,7.5-1.9
				c2.6-0.5,5.2-0.6,7.8-0.7c2.6-0.1,5.2,0.1,7.9,0.5c2.7,0.4,5.1,1.1,7.6,1.9c4.9,1.5,9.6,3.3,14.2,5.2c4.6,1.9,9.2,3.9,13.7,6
				c9,4.2,17.9,8.8,26.6,13.6c17.4,9.7,34.2,20.5,50,32.7c7.9,6.1,15.6,12.6,22.7,19.7c3.6,3.5,7,7.3,10.1,11.2
				c3.1,4,6,8.2,8.2,12.9l0.1,0.1c0.1,0.3,0.2,0.6,0.2,0.9c-0.5,5.6-1.2,11.2-1.9,16.5C383.1,607.6,382.5,612.7,382,617.7z
				 M381.8,617c0.2-5.6,0.2-11.1,0.1-16.3c-0.1-5.2-0.1-10.2,0-15.3l0.2,1c-2.4-4.1-5.3-7.9-8.6-11.5c-3.2-3.6-6.7-7-10.3-10.2
				c-3.6-3.3-7.4-6.4-11.2-9.4c-3.8-3-7.7-6-11.7-8.8c-8-5.7-16.1-11.1-24.4-16.3c-8.3-5.2-16.7-10.3-25.3-15.1
				c-8.5-4.8-17.2-9.5-25.9-13.9c-8.8-4.3-17.7-8.5-26.8-11.6c-2.3-0.8-4.5-1.5-6.7-1.9c-2.2-0.4-4.6-0.7-6.9-0.8
				c-4.6-0.2-9.3,0.3-13.9,1.4c-4.6,1.1-9.1,2.8-13.4,5c-4.2,2.2-8.4,4.9-11.9,8l-0.7-2.4c19,4.6,37.7,10.3,56.1,17
				c18.4,6.6,36.6,14.3,53.6,24.1c4.3,2.4,8.5,5,12.6,7.7c4.1,2.7,8.2,5.5,12.2,8.3c8,5.7,15.7,11.8,23.2,18.2
				c7.4,6.4,14.6,13.2,21.3,20.3c3.4,3.6,6.6,7.2,9.8,11c1.6,1.9,3.1,3.8,4.6,5.7c0.8,1,1.5,2,2.2,2.9l1.1,1.5l0.5,0.8l0.3,0.4
				l0.1,0.2l0.1,0.1c0,0,0,0-0.1,0C382,617,381.8,617,381.8,617z"/>
		</g>
		<path class="st1" d="M431.2,186.7c0,0,24.7,6.9,39.8,26.1l-21.9-3.7c0,0,15,25.7,21.9,39.4v-23.3c0,0,16.5,12.4,19.2,23.3
			c0,0-38.4,20.6-54.9,12.4C435.3,260.9,450.4,236.1,431.2,186.7z"/>
		<path class="st7" d="M232.8,127c0,0-43.9-17.8-96.1-8.2c0,0,13.7,30.2,15.1,60.4c0,0-26.1-59-34-68.7
			C117.8,110.4,186.1,95.4,232.8,127z"/>
		<path class="st7" d="M168.3,109.1c0,0,13.7,8.2,15.1,11c1.4,2.7-23.3,0-23.3,0s28.8,16.5,33,16.5s-1.4,8.2-19.2,0
			c0,0,13.7,13.7,23.3,17.8l-6.9-8.2c0,0,37.1,0-1.4-19.2C188.9,127,216.3,118.8,168.3,109.1z"/>
		<path class="st7" d="M320.7,94c0,0-19.2-27.5-99.3-21.5c0,0,16.9,33.9,15.6,49c0,0,1.4-24.7-6.9-38.4l15.1,11l-12.4-16.5
			C232.8,77.6,267.1,72.1,320.7,94z"/>
		<g>
			<linearGradient id="SVGID_18_" gradientUnits="userSpaceOnUse" x1="524.8053" y1="288.8532" x2="688.4584" y2="288.8532">
				<stop  offset="0" style="stop-color:#52FFCE"/>
				<stop  offset="0.9948" style="stop-color:#6700E4"/>
			</linearGradient>
			<path class="st22" d="M524.8,279c0,0,113.9,27,108.4,85c0,0,153.7-162-51.4-149.5"/>
			<path class="st1" d="M524.9,278.6c12.3,2,24.2,5.3,36,9.4c2.9,1,5.9,2.1,8.8,3.3c2.9,1.2,5.8,2.4,8.6,3.7
				c5.7,2.5,11.3,5.5,16.7,8.6c5.4,3.2,10.7,6.7,15.6,10.8c4.9,4.1,9.4,8.6,13.2,13.7c3.8,5.1,7,10.9,8.8,17
				c1.9,6.1,2.5,12.6,1.8,18.9l-2.1-0.9c14.2-15,26.4-32.1,36.1-50.2c2.4-4.5,4.7-9.1,6.8-13.8c2.1-4.7,4-9.4,5.5-14.2
				c1.6-4.8,2.8-9.7,3.4-14.5c0.7-4.9,0.8-9.8,0.1-14.5c-0.7-4.7-2.2-9.2-4.6-13.1c-2.4-4-5.7-7.4-9.5-10.3
				c-7.6-5.8-17.2-9.3-27-11.8c-1.2-0.3-2.5-0.6-3.7-0.9c-1.2-0.3-2.5-0.6-3.7-0.8l-3.8-0.7l-1.9-0.3l-1.9-0.3
				c-2.5-0.3-5.1-0.8-7.6-1l-3.8-0.4c-1.3-0.1-2.6-0.2-3.9-0.3c-10.3-0.9-20.6-1.1-31.1-1.3c-0.2,0-0.4-0.2-0.4-0.4
				c0-0.2,0.1-0.3,0.3-0.4c10.3-1.4,20.8-2.2,31.3-2.3c10.5,0,21.1,0.5,31.6,2.5c5.2,1,10.4,2.4,15.6,4.3l3.8,1.5
				c1.2,0.6,2.5,1.2,3.7,1.8c2.4,1.3,4.9,2.7,7.1,4.4c4.5,3.3,8.6,7.5,11.6,12.4c3,5,4.7,10.6,5.4,16.2c0.7,5.6,0.4,11.2-0.5,16.6
				c-0.9,5.4-2.4,10.6-4.2,15.6c-3.7,10.1-8.7,19.5-14.4,28.3c-5.7,8.9-12,17.2-18.5,25.4c-6.5,8.2-13.1,16.2-20.1,24
				c-0.4,0.5-1.2,0.5-1.7,0.1c-0.3-0.3-0.4-0.6-0.4-1l0-0.1c0.2-3,0.1-6-0.4-8.9c-0.5-2.9-1.3-5.8-2.4-8.6
				c-2.2-5.5-5.6-10.4-9.6-14.9c-8-8.8-17.8-15.9-28.1-22.3c-5.1-3.2-10.5-6-15.9-8.8c-2.7-1.4-5.5-2.7-8.2-4
				c-2.8-1.3-5.5-2.6-8.4-3.8c-11.2-4.9-22.7-9.3-34.4-13.3l0,0c-0.2-0.1-0.3-0.3-0.2-0.5C524.5,278.7,524.7,278.6,524.9,278.6z"/>
		</g>
		<path class="st1" d="M522.5,273.9c0,0,97.5,2.7,115.3,45.3c0,0,2.7-34.3-34.3-46.7c0,0,59,11,39.8,61.8c0,0,52.2-59-15.1-81
			c-21.9-7.1-48.7-9.4-46.7-6.9l27.5,15.1l-45.3-13.7c0,0,0-13.7,54.9-8.2c0,0-20.6-23.3-43.9-22S522.5,273.9,522.5,273.9z"/>
		<path class="st7" d="M580.1,215.5c0,0,82.4-4.7,101.2,32.8c20.5,41.1-44,108.3-44,108.3s51.3-66.2,34.8-101.9c0,0,3.2,16-3.2,26.5
			c0,0,1.8-27.9-25.6-41.6c0,0,11-2.7,24.7,2.7C668,242.3,644.7,220.4,580.1,215.5z"/>
		<linearGradient id="SVGID_19_" gradientUnits="userSpaceOnUse" x1="92.4497" y1="350.1052" x2="183.3631" y2="350.1052">
			<stop  offset="0" style="stop-color:#52FFCE"/>
			<stop  offset="0.9948" style="stop-color:#6700E4"/>
		</linearGradient>
		<path class="st23" d="M109.2,289c0,0,17.8,3.4,19.9,5.8c0,0-15.1,15.1-10,20.4c5.1,5.3,39.5,27.3,32.6,36.9
			c-6.9,9.6-52.2-9.6-33,8.2c19.2,17.8,53.5,23.3,53.5,23.3s-38.4,6.9-48.1,1.4c0,0,41.2,23.3,59,26.1c0,0-57.7-4.1-90.9-26.7
			L109.2,289z"/>
		<g>
			<path class="st1" d="M160.7,142.8c0,0,30.2,23.3,34.3,34.3s5.5,43.9,4.1,48.1c-1.4,4.1-14.4-15.8-21.3-28.1
				C177.9,197,188.9,177.8,160.7,142.8z"/>
			<g>
				<path class="st1" d="M161.4,153.1c2.9,2.4,5.6,5,8.2,7.7c2.7,2.7,5.2,5.4,7.8,8.2c2.5,2.8,5,5.6,7.5,8.5
					c2.4,2.9,4.8,5.8,7.2,8.7l-3.7,2.7c-2-3.1-4.1-6.2-6.2-9.3c-2.1-3.1-4.3-6.1-6.5-9.1c-2.2-3-4.5-6-6.9-8.9
					C166.4,158.6,164,155.8,161.4,153.1z"/>
			</g>
			<g>
				<path class="st1" d="M161.4,159.9c2.9,2.4,5.6,5,8.2,7.7c2.7,2.7,5.2,5.4,7.8,8.2c2.5,2.8,5,5.6,7.5,8.5
					c2.4,2.9,4.8,5.8,7.2,8.7l-3.7,2.7c-2-3.1-4.1-6.2-6.2-9.3c-2.1-3.1-4.3-6.1-6.5-9.1c-2.2-3-4.5-6-6.9-8.9
					C166.4,165.5,164,162.6,161.4,159.9z"/>
			</g>
			<g>
				<path class="st1" d="M161.4,166.8c2.9,2.4,5.6,5,8.2,7.7c2.7,2.7,5.2,5.4,7.8,8.2c2.5,2.8,5,5.6,7.5,8.5
					c2.4,2.9,4.8,5.8,7.2,8.7l-3.7,2.7c-2-3.1-4.1-6.2-6.2-9.3c-2.1-3.1-4.3-6.1-6.5-9.1c-2.2-3-4.5-6-6.9-8.9
					C166.4,172.4,164,169.5,161.4,166.8z"/>
			</g>
			<g>
				<path class="st1" d="M163.1,176.2c2.8,2.5,5.5,5.1,8.1,7.8c2.6,2.7,5.1,5.5,7.6,8.3c2.5,2.8,4.9,5.7,7.3,8.6
					c2.4,2.9,4.7,5.9,7.1,8.8l-3.8,2.6c-2-3.2-4-6.3-6.1-9.4c-2.1-3.1-4.2-6.2-6.3-9.2c-2.2-3-4.4-6-6.7-9
					C168,181.8,165.7,178.9,163.1,176.2z"/>
			</g>
		</g>
		<path class="st7" d="M158.6,199.8c0,0-41.4,1.4-46.1,1.4c0,0,12.6,16.7,8.1,55.7c0,0,10.6-29.6,2.3-48.8
			C123,208,146.3,202.5,158.6,199.8z"/>
		<path class="st7" d="M221.3,229.7c0,0-69.6,11.3-79.2,48.3c0,0-13.7,34.3,46.7,83.2c0,0-54.9-50.2-34.3-85.9
			c0,0-4.1,27.5,4.1,36.6c0,0-2.7-33.9,19.2-54.5c0,0-6.9,0-27.5,12.4C150.4,269.8,160,250.6,221.3,229.7z"/>
		<g>
			<path class="st1" d="M190.7,626.9c3.9,3.1,8,6.2,12.2,9.1c4.2,3,8.4,5.8,12.7,8.6c4.3,2.8,8.7,5.4,13.1,7.9
				c4.4,2.6,9,4.9,13.6,7.1c-4.8-1.8-9.6-3.6-14.3-5.7c-4.7-2.1-9.4-4.3-14-6.6c-4.6-2.3-9.2-4.8-13.7-7.3c-4.5-2.6-8.9-5.2-13.4-8
				c-1.5-1-1.9-2.9-1-4.4c1-1.5,2.9-1.9,4.4-1C190.5,626.7,190.6,626.8,190.7,626.9L190.7,626.9z"/>
		</g>
		<g>
			<path class="st1" d="M183.9,633.8c3.9,3.1,8,6.2,12.2,9.1c4.2,3,8.4,5.8,12.7,8.6c4.3,2.8,8.7,5.4,13.1,7.9
				c4.4,2.6,9,4.9,13.6,7.1c-4.8-1.8-9.6-3.6-14.3-5.7c-4.7-2.1-9.4-4.3-14-6.6c-4.6-2.3-9.2-4.8-13.7-7.3c-4.5-2.6-8.9-5.2-13.4-8
				c-1.5-1-1.9-2.9-1-4.4c1-1.5,2.9-1.9,4.4-1C183.7,633.6,183.8,633.7,183.9,633.8L183.9,633.8z"/>
		</g>
		<g>
			<path class="st1" d="M177,640.7c3.9,3.2,8,6.3,12.1,9.2c4.1,3,8.4,5.9,12.6,8.7c4.3,2.8,8.7,5.4,13.1,7.9
				c4.5,2.5,9.1,4.8,13.7,6.9c-4.9-1.6-9.7-3.5-14.4-5.5c-4.7-2.1-9.4-4.2-14-6.6c-4.6-2.3-9.2-4.8-13.7-7.4
				c-4.5-2.6-8.9-5.2-13.3-8.1c-1.5-1-1.9-3-0.9-4.4c1-1.5,3-1.9,4.4-0.9C176.8,640.5,176.9,640.6,177,640.7L177,640.7z"/>
		</g>
		<g>
			<path class="st1" d="M170.3,647.6c3.7,3.3,7.7,6.5,11.8,9.6c4.1,3.1,8.3,6,12.6,8.7c4.3,2.8,8.7,5.4,13.2,7.8
				c4.5,2.5,9.2,4.6,13.9,6.6c-4.9-1.5-9.8-3.1-14.6-5.1c-4.8-1.9-9.5-4.1-14.2-6.4c-4.6-2.3-9.2-4.8-13.7-7.5
				c-4.5-2.7-8.8-5.5-13.2-8.6c-1.4-1-1.8-3.1-0.7-4.5c1-1.4,3.1-1.8,4.5-0.7C170.1,647.4,170.2,647.5,170.3,647.6L170.3,647.6z"/>
		</g>
		<g>
			<path class="st1" d="M179.5,667.7c-0.2-0.2,0,0,0.1,0.1c0.1,0.1,0.3,0.2,0.4,0.3c0.3,0.2,0.6,0.5,0.9,0.7c0.7,0.5,1.4,0.9,2,1.4
				c1.4,0.9,2.9,1.8,4.4,2.6c3,1.7,6,3.4,9.1,5c6.1,3.2,12.3,6.3,18.6,9.3c-6.6-2-13.3-4.1-19.9-6.4c-3.3-1.1-6.6-2.3-9.9-3.6
				c-1.6-0.6-3.3-1.3-4.9-2c-0.8-0.4-1.6-0.7-2.5-1.2c-0.4-0.2-0.8-0.4-1.3-0.7c-0.2-0.1-0.4-0.2-0.7-0.4c-0.3-0.2-0.4-0.2-0.9-0.7
				c-1.3-1.3-1.3-3.3,0-4.5C176.2,666.5,178.2,666.5,179.5,667.7z"/>
		</g>
		<g>
			<path class="st1" d="M504.8,275.1c2.5,27.2,5,54.4,7.4,81.6c1.2,13.6,2.4,27.2,3.5,40.8l1.6,20.4c0.4,6.8,1,13.6,1.1,20.5
				c-0.4-6.8-1.3-13.6-2-20.4l-2.5-20.3c-1.7-13.5-3.5-27.1-5.3-40.6c-3.6-27.1-7.3-54.1-11-81.2c-0.3-2,1.1-3.9,3.1-4.1
				c2-0.3,3.9,1.1,4.1,3.1C504.8,275,504.8,275.1,504.8,275.1z"/>
		</g>
		<g>
			<path class="st1" d="M428.8,583.4c4,10.3,9.7,22.1,17,28.7c2.1,2,2,6.1-0.3,6.3c-6.9,0.4-17.2-4.3-21.3-34
				C423.7,580.5,427.4,579.7,428.8,583.4z"/>
		</g>
		<path class="st3" d="M157.7,1070.2c0,0,75.1-5.5,205.5,25.2l5.5,69.5l-164.8-6.9C204,1158.1,145.8,1123.8,157.7,1070.2z"/>
		<path class="st1" d="M265.3,1077c0,0,50,19.8,48.5,24.3c-1.4,4.6-24.8-10.5-78.3-10.5c0,0,71.4,22,78.3,28.8c0,0-53.5-11-78.3-11
			c0,0,70.8,25.6,73.2,36.1L366,1165l-1.4-70L265.3,1077z"/>
		<linearGradient id="SVGID_20_" gradientUnits="userSpaceOnUse" x1="227.2981" y1="919.8877" x2="350.3228" y2="919.8877">
			<stop  offset="0" style="stop-color:#52FFCE"/>
			<stop  offset="0.9948" style="stop-color:#6700E4"/>
		</linearGradient>
		<path class="st24" d="M242.4,862.9c0,0,67.6,9.6,107.9,11c0,0-50.3,12.4-69.5,11c-19.2-1.4-6.9,19.2,9.6,20.6
			c16.5,1.4,4.1,16.5-15.1,17.8c-19.2,1.4,8.2,17.8,33,20.6c24.7,2.7,4.1,20.6,35.7,33c0,0-90.6-19.2-116.7-33L242.4,862.9z"/>
		<polygon class="st1" points="235.5,886.9 344,912.3 228.7,901.4 		"/>
		<polygon class="st1" points="228.7,921.8 327.5,938.4 224.6,930.2 		"/>
		<polygon class="st1" points="642,881.4 507.4,928.8 648.6,898.1 		"/>
		<path class="st1" d="M184.1,1070c0,0-6.2,21.8-0.8,20.8c15.1-2.7,33,0,33,0s-34.3,15.1-27.5,15.1c16.7,0,27.5,0,27.5,0
			s-33,11-31.6,15.1s8.7,13.8,8.7,13.8l-16.2,0.8c0,0-30.9-17.3-19.9-65.4L184.1,1070z"/>
		<g>
			<path class="st25" d="M366,1167.2l-1.4-23.3c-49-16.7-185.2-33.6-205.9,23.3C142.2,1212.5,356.4,1223.5,366,1167.2z"/>
			<linearGradient id="SVGID_21_" gradientUnits="userSpaceOnUse" x1="157.7461" y1="1157.7836" x2="365.968" y2="1157.7836">
				<stop  offset="0" style="stop-color:#52FFCE"/>
				<stop  offset="0.9948" style="stop-color:#6700E4"/>
			</linearGradient>
			<path class="st26" d="M366,1154.8c0,0-180.9-72.7-207.3,0C142.2,1200.1,356.4,1211.1,366,1154.8z"/>
			<path class="st1" d="M207.9,1188.5c0,0,67.3-69.3,135.3-41.9l22.7,9.6c0,0-75.5-15.1-138.7,32.3H207.9z"/>
			<path class="st1" d="M173.6,1135c0,0,25.9,15.5,24,51.3h18c0,0,4.8-52-21.3-58.9L173.6,1135z"/>
		</g>
		<g>
			<path class="st25" d="M523,1167.2l1.4-23.3c49-16.7,185.2-33.6,205.9,23.3C746.8,1212.5,532.6,1223.5,523,1167.2z"/>
			
				<linearGradient id="SVGID_22_" gradientUnits="userSpaceOnUse" x1="7035.1641" y1="1157.7836" x2="7243.3857" y2="1157.7836" gradientTransform="matrix(-1 0 0 1 7766.3418 0)">
				<stop  offset="0" style="stop-color:#52FFCE"/>
				<stop  offset="0.9948" style="stop-color:#6700E4"/>
			</linearGradient>
			<path class="st27" d="M523,1154.8c0,0,180.9-72.7,207.3,0C746.8,1200.1,532.6,1211.1,523,1154.8z"/>
			<path class="st1" d="M681,1188.5c0,0-67.3-69.3-135.3-41.9l-22.7,9.6c0,0,75.5-15.1,138.7,32.3H681z"/>
			<path class="st1" d="M715.3,1135c0,0-25.9,15.5-24,51.3h-18c0,0-4.8-52,21.3-58.9L715.3,1135z"/>
		</g>
		<path class="st1" d="M180.4,1001.1c0,0,29.2-36.8,55.4-20.6l-20-21.3C215.8,959.3,195,974.2,180.4,1001.1z"/>
	</g>
</g>
</svg>
