<?xml version="1.0" encoding="utf-8"?>
<!-- Generator: Adobe Illustrator 22.0.1, SVG Export Plug-In . SVG Version: 6.00 Build 0)  -->
<svg version="1.1" id="Capa_1" xmlns="http://www.w3.org/2000/svg" xmlns:xlink="http://www.w3.org/1999/xlink" x="0px" y="0px"
	 viewBox="0 0 384 1080" style="enable-background:new 0 0 384 1080;" xml:space="preserve">
<style type="text/css">
	.st0{clip-path:url(#SVGID_2_);}
	.st1{fill:#7D7D7D;}
	.st2{fill:#B0B0B0;}
	.st3{fill:#969696;}
</style>
<g>
	<defs>
		<rect id="SVGID_1_" x="3.5" width="376.9" height="1080"/>
	</defs>
	<clipPath id="SVGID_2_">
		<use xlink:href="#SVGID_1_"  style="overflow:visible;"/>
	</clipPath>
	<g class="st0">
		<g>
			<polygon class="st1" points="25.7,41.7 13.8,62.4 1.9,83 -45.9,83 -57.8,62.4 -69.7,41.7 -57.8,21.1 -45.9,0.4 1.9,0.4 
				13.8,21.1 			"/>
			<polygon class="st2" points="53,43.7 53,83 6.5,83 17.2,64.4 29.1,43.7 			"/>
			<polygon class="st3" points="53,-42.9 53,39.7 29.1,39.7 17.2,19.1 5.3,-1.6 17.2,-22.2 29.1,-42.9 			"/>
			<polygon class="st3" points="100.7,-1.6 88.8,19.1 76.9,39.7 53,39.7 53,-42.9 76.9,-42.9 88.8,-22.2 			"/>
			<polygon class="st3" points="175.7,41.7 163.8,62.4 151.9,83 104.1,83 92.2,62.4 80.3,41.7 92.2,21.1 104.1,0.4 151.9,0.4 
				163.8,21.1 			"/>
			<polygon class="st2" points="99.5,83 53,83 53,43.7 76.9,43.7 88.8,64.4 			"/>
			<polygon class="st2" points="53,83 53,122.3 29.1,122.3 17.2,101.7 6.5,83 			"/>
			<polygon class="st3" points="25.7,124.3 13.8,145 1.9,165.6 -45.9,165.6 -57.8,145 -69.7,124.3 -57.8,103.7 -45.9,83 1.9,83 
				13.8,103.7 			"/>
			<polygon class="st1" points="53,126.3 53,208.9 29.1,208.9 17.2,188.3 5.3,167.6 17.2,147 29.1,126.3 			"/>
			<polygon class="st1" points="100.7,167.6 88.8,188.3 76.9,208.9 53,208.9 53,126.3 76.9,126.3 88.8,147 			"/>
			<polygon class="st2" points="99.5,83 88.8,101.7 76.9,122.3 53,122.3 53,83 			"/>
			<polygon class="st1" points="175.7,124.3 163.8,145 151.9,165.6 104.1,165.6 92.2,145 80.3,124.3 92.2,103.7 104.1,83 151.9,83 
				163.8,103.7 			"/>
		</g>
		<g>
			<polygon class="st1" points="251.7,0.7 239.8,21.4 227.9,42 180.1,42 168.2,21.4 156.3,0.7 168.2,-19.9 180.1,-40.6 227.9,-40.6 
				239.8,-19.9 			"/>
			<polygon class="st2" points="279,2.7 279,42 232.5,42 243.2,23.4 255.1,2.7 			"/>
			<polygon class="st3" points="279,-83.9 279,-1.3 255.1,-1.3 243.2,-21.9 231.3,-42.6 243.2,-63.2 255.1,-83.9 			"/>
			<polygon class="st3" points="326.7,-42.6 314.8,-21.9 302.9,-1.3 279,-1.3 279,-83.9 302.9,-83.9 314.8,-63.2 			"/>
			<polygon class="st3" points="401.7,0.7 389.8,21.4 377.9,42 330.1,42 318.2,21.4 306.3,0.7 318.2,-19.9 330.1,-40.6 377.9,-40.6 
				389.8,-19.9 			"/>
			<polygon class="st2" points="325.5,42 279,42 279,2.7 302.9,2.7 314.8,23.4 			"/>
			<polygon class="st2" points="279,42 279,81.3 255.1,81.3 243.2,60.7 232.5,42 			"/>
			<polygon class="st3" points="251.7,83.3 239.8,104 227.9,124.6 180.1,124.6 168.2,104 156.3,83.3 168.2,62.7 180.1,42 227.9,42 
				239.8,62.7 			"/>
			<polygon class="st1" points="279,85.3 279,167.9 255.1,167.9 243.2,147.3 231.3,126.6 243.2,106 255.1,85.3 			"/>
			<polygon class="st1" points="326.7,126.6 314.8,147.3 302.9,167.9 279,167.9 279,85.3 302.9,85.3 314.8,106 			"/>
			<polygon class="st2" points="325.5,42 314.8,60.7 302.9,81.3 279,81.3 279,42 			"/>
			<polygon class="st1" points="401.7,83.3 389.8,104 377.9,124.6 330.1,124.6 318.2,104 306.3,83.3 318.2,62.7 330.1,42 377.9,42 
				389.8,62.7 			"/>
		</g>
		<g>
			<polygon class="st1" points="403.7,170.7 391.8,191.4 379.9,212 332.1,212 320.2,191.4 308.3,170.7 320.2,150.1 332.1,129.4 
				379.9,129.4 391.8,150.1 			"/>
			<polygon class="st2" points="431,172.7 431,212 384.5,212 395.2,193.4 407.1,172.7 			"/>
			<polygon class="st3" points="431,86.1 431,168.7 407.1,168.7 395.2,148.1 383.3,127.4 395.2,106.8 407.1,86.1 			"/>
			<polygon class="st3" points="478.7,127.4 466.8,148.1 454.9,168.7 431,168.7 431,86.1 454.9,86.1 466.8,106.8 			"/>
			<polygon class="st3" points="553.7,170.7 541.8,191.4 529.9,212 482.1,212 470.2,191.4 458.3,170.7 470.2,150.1 482.1,129.4 
				529.9,129.4 541.8,150.1 			"/>
			<polygon class="st2" points="477.5,212 431,212 431,172.7 454.9,172.7 466.8,193.4 			"/>
			<polygon class="st2" points="431,212 431,251.3 407.1,251.3 395.2,230.7 384.5,212 			"/>
			<polygon class="st3" points="403.7,253.3 391.8,274 379.9,294.6 332.1,294.6 320.2,274 308.3,253.3 320.2,232.7 332.1,212 
				379.9,212 391.8,232.7 			"/>
			<polygon class="st1" points="431,255.3 431,337.9 407.1,337.9 395.2,317.3 383.3,296.6 395.2,276 407.1,255.3 			"/>
			<polygon class="st1" points="478.7,296.6 466.8,317.3 454.9,337.9 431,337.9 431,255.3 454.9,255.3 466.8,276 			"/>
			<polygon class="st2" points="477.5,212 466.8,230.7 454.9,251.3 431,251.3 431,212 			"/>
			<polygon class="st1" points="553.7,253.3 541.8,274 529.9,294.6 482.1,294.6 470.2,274 458.3,253.3 470.2,232.7 482.1,212 
				529.9,212 541.8,232.7 			"/>
		</g>
		<g>
			<polygon class="st1" points="176.7,211.7 164.8,232.4 152.9,253 105.1,253 93.2,232.4 81.3,211.7 93.2,191.1 105.1,170.4 
				152.9,170.4 164.8,191.1 			"/>
			<polygon class="st2" points="204,213.7 204,253 157.5,253 168.2,234.4 180.1,213.7 			"/>
			<polygon class="st3" points="204,127.1 204,209.7 180.1,209.7 168.2,189.1 156.3,168.4 168.2,147.8 180.1,127.1 			"/>
			<polygon class="st3" points="251.7,168.4 239.8,189.1 227.9,209.7 204,209.7 204,127.1 227.9,127.1 239.8,147.8 			"/>
			<polygon class="st3" points="326.7,211.7 314.8,232.4 302.9,253 255.1,253 243.2,232.4 231.3,211.7 243.2,191.1 255.1,170.4 
				302.9,170.4 314.8,191.1 			"/>
			<polygon class="st2" points="250.5,253 204,253 204,213.7 227.9,213.7 239.8,234.4 			"/>
			<polygon class="st2" points="204,253 204,292.3 180.1,292.3 168.2,271.7 157.5,253 			"/>
			<polygon class="st3" points="176.7,294.3 164.8,315 152.9,335.6 105.1,335.6 93.2,315 81.3,294.3 93.2,273.7 105.1,253 
				152.9,253 164.8,273.7 			"/>
			<polygon class="st1" points="204,296.3 204,378.9 180.1,378.9 168.2,358.3 156.3,337.6 168.2,317 180.1,296.3 			"/>
			<polygon class="st1" points="251.7,337.6 239.8,358.3 227.9,378.9 204,378.9 204,296.3 227.9,296.3 239.8,317 			"/>
			<polygon class="st2" points="250.5,253 239.8,271.7 227.9,292.3 204,292.3 204,253 			"/>
			<polygon class="st1" points="326.7,294.3 314.8,315 302.9,335.6 255.1,335.6 243.2,315 231.3,294.3 243.2,273.7 255.1,253 
				302.9,253 314.8,273.7 			"/>
		</g>
		<g>
			<polygon class="st1" points="-49.3,254.7 -61.2,275.4 -73.1,296 -120.9,296 -132.8,275.4 -144.7,254.7 -132.8,234.1 
				-120.9,213.4 -73.1,213.4 -61.2,234.1 			"/>
			<polygon class="st2" points="-22,256.7 -22,296 -68.5,296 -57.8,277.4 -45.9,256.7 			"/>
			<polygon class="st3" points="-22,170.1 -22,252.7 -45.9,252.7 -57.8,232.1 -69.7,211.4 -57.8,190.8 -45.9,170.1 			"/>
			<polygon class="st3" points="25.7,211.4 13.8,232.1 1.9,252.7 -22,252.7 -22,170.1 1.9,170.1 13.8,190.8 			"/>
			<polygon class="st3" points="100.7,254.7 88.8,275.4 76.9,296 29.1,296 17.2,275.4 5.3,254.7 17.2,234.1 29.1,213.4 76.9,213.4 
				88.8,234.1 			"/>
			<polygon class="st2" points="24.5,296 -22,296 -22,256.7 1.9,256.7 13.8,277.4 			"/>
			<polygon class="st2" points="-22,296 -22,335.3 -45.9,335.3 -57.8,314.7 -68.5,296 			"/>
			<polygon class="st3" points="-49.3,337.3 -61.2,358 -73.1,378.6 -120.9,378.6 -132.8,358 -144.7,337.3 -132.8,316.7 -120.9,296 
				-73.1,296 -61.2,316.7 			"/>
			<polygon class="st1" points="-22,339.3 -22,421.9 -45.9,421.9 -57.8,401.3 -69.7,380.6 -57.8,360 -45.9,339.3 			"/>
			<polygon class="st1" points="25.7,380.6 13.8,401.3 1.9,421.9 -22,421.9 -22,339.3 1.9,339.3 13.8,360 			"/>
			<polygon class="st2" points="24.5,296 13.8,314.7 1.9,335.3 -22,335.3 -22,296 			"/>
			<polygon class="st1" points="100.7,337.3 88.8,358 76.9,378.6 29.1,378.6 17.2,358 5.3,337.3 17.2,316.7 29.1,296 76.9,296 
				88.8,316.7 			"/>
		</g>
	</g>
	<g class="st0">
		<g>
			<polygon class="st1" points="100.7,424.7 88.8,445.4 76.9,466 29.1,466 17.2,445.4 5.3,424.7 17.2,404.1 29.1,383.4 76.9,383.4 
				88.8,404.1 			"/>
			<polygon class="st2" points="128,426.7 128,466 81.5,466 92.2,447.4 104.1,426.7 			"/>
			<polygon class="st3" points="128,340.1 128,422.7 104.1,422.7 92.2,402.1 80.3,381.4 92.2,360.8 104.1,340.1 			"/>
			<polygon class="st3" points="175.7,381.4 163.8,402.1 151.9,422.7 128,422.7 128,340.1 151.9,340.1 163.8,360.8 			"/>
			<polygon class="st3" points="250.7,424.7 238.8,445.4 226.9,466 179.1,466 167.2,445.4 155.3,424.7 167.2,404.1 179.1,383.4 
				226.9,383.4 238.8,404.1 			"/>
			<polygon class="st2" points="174.5,466 128,466 128,426.7 151.9,426.7 163.8,447.4 			"/>
			<polygon class="st2" points="128,466 128,505.3 104.1,505.3 92.2,484.7 81.5,466 			"/>
			<polygon class="st3" points="100.7,507.3 88.8,528 76.9,548.6 29.1,548.6 17.2,528 5.3,507.3 17.2,486.7 29.1,466 76.9,466 
				88.8,486.7 			"/>
			<polygon class="st1" points="128,509.3 128,591.9 104.1,591.9 92.2,571.3 80.3,550.6 92.2,530 104.1,509.3 			"/>
			<polygon class="st1" points="175.7,550.6 163.8,571.3 151.9,591.9 128,591.9 128,509.3 151.9,509.3 163.8,530 			"/>
			<polygon class="st2" points="174.5,466 163.8,484.7 151.9,505.3 128,505.3 128,466 			"/>
			<polygon class="st1" points="250.7,507.3 238.8,528 226.9,548.6 179.1,548.6 167.2,528 155.3,507.3 167.2,486.7 179.1,466 
				226.9,466 238.8,486.7 			"/>
		</g>
		<g>
			<polygon class="st1" points="326.7,383.7 314.8,404.4 302.9,425 255.1,425 243.2,404.4 231.3,383.7 243.2,363.1 255.1,342.4 
				302.9,342.4 314.8,363.1 			"/>
			<polygon class="st2" points="354,385.7 354,425 307.5,425 318.2,406.4 330.1,385.7 			"/>
			<polygon class="st3" points="354,299.1 354,381.7 330.1,381.7 318.2,361.1 306.3,340.4 318.2,319.8 330.1,299.1 			"/>
			<polygon class="st3" points="401.7,340.4 389.8,361.1 377.9,381.7 354,381.7 354,299.1 377.9,299.1 389.8,319.8 			"/>
			<polygon class="st3" points="476.7,383.7 464.8,404.4 452.9,425 405.1,425 393.2,404.4 381.3,383.7 393.2,363.1 405.1,342.4 
				452.9,342.4 464.8,363.1 			"/>
			<polygon class="st2" points="400.5,425 354,425 354,385.7 377.9,385.7 389.8,406.4 			"/>
			<polygon class="st2" points="354,425 354,464.3 330.1,464.3 318.2,443.7 307.5,425 			"/>
			<polygon class="st3" points="326.7,466.3 314.8,487 302.9,507.6 255.1,507.6 243.2,487 231.3,466.3 243.2,445.7 255.1,425 
				302.9,425 314.8,445.7 			"/>
			<polygon class="st1" points="354,468.3 354,550.9 330.1,550.9 318.2,530.3 306.3,509.6 318.2,489 330.1,468.3 			"/>
			<polygon class="st1" points="401.7,509.6 389.8,530.3 377.9,550.9 354,550.9 354,468.3 377.9,468.3 389.8,489 			"/>
			<polygon class="st2" points="400.5,425 389.8,443.7 377.9,464.3 354,464.3 354,425 			"/>
			<polygon class="st1" points="476.7,466.3 464.8,487 452.9,507.6 405.1,507.6 393.2,487 381.3,466.3 393.2,445.7 405.1,425 
				452.9,425 464.8,445.7 			"/>
		</g>
		<g>
			<polygon class="st1" points="478.7,553.7 466.8,574.4 454.9,595 407.1,595 395.2,574.4 383.3,553.7 395.2,533.1 407.1,512.4 
				454.9,512.4 466.8,533.1 			"/>
			<polygon class="st2" points="506,555.7 506,595 459.5,595 470.2,576.4 482.1,555.7 			"/>
			<polygon class="st3" points="506,469.1 506,551.7 482.1,551.7 470.2,531.1 458.3,510.4 470.2,489.8 482.1,469.1 			"/>
			<polygon class="st3" points="553.7,510.4 541.8,531.1 529.9,551.7 506,551.7 506,469.1 529.9,469.1 541.8,489.8 			"/>
			<polygon class="st3" points="628.7,553.7 616.8,574.4 604.9,595 557.1,595 545.2,574.4 533.3,553.7 545.2,533.1 557.1,512.4 
				604.9,512.4 616.8,533.1 			"/>
			<polygon class="st2" points="552.5,595 506,595 506,555.7 529.9,555.7 541.8,576.4 			"/>
			<polygon class="st2" points="506,595 506,634.3 482.1,634.3 470.2,613.7 459.5,595 			"/>
			<polygon class="st3" points="478.7,636.3 466.8,657 454.9,677.6 407.1,677.6 395.2,657 383.3,636.3 395.2,615.7 407.1,595 
				454.9,595 466.8,615.7 			"/>
			<polygon class="st1" points="506,638.3 506,720.9 482.1,720.9 470.2,700.3 458.3,679.6 470.2,659 482.1,638.3 			"/>
			<polygon class="st1" points="553.7,679.6 541.8,700.3 529.9,720.9 506,720.9 506,638.3 529.9,638.3 541.8,659 			"/>
			<polygon class="st2" points="552.5,595 541.8,613.7 529.9,634.3 506,634.3 506,595 			"/>
			<polygon class="st1" points="628.7,636.3 616.8,657 604.9,677.6 557.1,677.6 545.2,657 533.3,636.3 545.2,615.7 557.1,595 
				604.9,595 616.8,615.7 			"/>
		</g>
		<g>
			<polygon class="st1" points="251.7,594.7 239.8,615.4 227.9,636 180.1,636 168.2,615.4 156.3,594.7 168.2,574.1 180.1,553.4 
				227.9,553.4 239.8,574.1 			"/>
			<polygon class="st2" points="279,596.7 279,636 232.5,636 243.2,617.4 255.1,596.7 			"/>
			<polygon class="st3" points="279,510.1 279,592.7 255.1,592.7 243.2,572.1 231.3,551.4 243.2,530.8 255.1,510.1 			"/>
			<polygon class="st3" points="326.7,551.4 314.8,572.1 302.9,592.7 279,592.7 279,510.1 302.9,510.1 314.8,530.8 			"/>
			<polygon class="st3" points="401.7,594.7 389.8,615.4 377.9,636 330.1,636 318.2,615.4 306.3,594.7 318.2,574.1 330.1,553.4 
				377.9,553.4 389.8,574.1 			"/>
			<polygon class="st2" points="325.5,636 279,636 279,596.7 302.9,596.7 314.8,617.4 			"/>
			<polygon class="st2" points="279,636 279,675.3 255.1,675.3 243.2,654.7 232.5,636 			"/>
			<polygon class="st3" points="251.7,677.3 239.8,698 227.9,718.6 180.1,718.6 168.2,698 156.3,677.3 168.2,656.7 180.1,636 
				227.9,636 239.8,656.7 			"/>
			<polygon class="st1" points="279,679.3 279,761.9 255.1,761.9 243.2,741.3 231.3,720.6 243.2,700 255.1,679.3 			"/>
			<polygon class="st1" points="326.7,720.6 314.8,741.3 302.9,761.9 279,761.9 279,679.3 302.9,679.3 314.8,700 			"/>
			<polygon class="st2" points="325.5,636 314.8,654.7 302.9,675.3 279,675.3 279,636 			"/>
			<polygon class="st1" points="401.7,677.3 389.8,698 377.9,718.6 330.1,718.6 318.2,698 306.3,677.3 318.2,656.7 330.1,636 
				377.9,636 389.8,656.7 			"/>
		</g>
		<g>
			<polygon class="st1" points="25.7,637.7 13.8,658.4 1.9,679 -45.9,679 -57.8,658.4 -69.7,637.7 -57.8,617.1 -45.9,596.4 
				1.9,596.4 13.8,617.1 			"/>
			<polygon class="st2" points="53,639.7 53,679 6.5,679 17.2,660.4 29.1,639.7 			"/>
			<polygon class="st3" points="53,553.1 53,635.7 29.1,635.7 17.2,615.1 5.3,594.4 17.2,573.8 29.1,553.1 			"/>
			<polygon class="st3" points="100.7,594.4 88.8,615.1 76.9,635.7 53,635.7 53,553.1 76.9,553.1 88.8,573.8 			"/>
			<polygon class="st3" points="175.7,637.7 163.8,658.4 151.9,679 104.1,679 92.2,658.4 80.3,637.7 92.2,617.1 104.1,596.4 
				151.9,596.4 163.8,617.1 			"/>
			<polygon class="st2" points="99.5,679 53,679 53,639.7 76.9,639.7 88.8,660.4 			"/>
			<polygon class="st2" points="53,679 53,718.3 29.1,718.3 17.2,697.7 6.5,679 			"/>
			<polygon class="st3" points="25.7,720.3 13.8,741 1.9,761.6 -45.9,761.6 -57.8,741 -69.7,720.3 -57.8,699.7 -45.9,679 1.9,679 
				13.8,699.7 			"/>
			<polygon class="st1" points="53,722.3 53,804.9 29.1,804.9 17.2,784.3 5.3,763.6 17.2,743 29.1,722.3 			"/>
			<polygon class="st1" points="100.7,763.6 88.8,784.3 76.9,804.9 53,804.9 53,722.3 76.9,722.3 88.8,743 			"/>
			<polygon class="st2" points="99.5,679 88.8,697.7 76.9,718.3 53,718.3 53,679 			"/>
			<polygon class="st1" points="175.7,720.3 163.8,741 151.9,761.6 104.1,761.6 92.2,741 80.3,720.3 92.2,699.7 104.1,679 
				151.9,679 163.8,699.7 			"/>
		</g>
	</g>
	<g class="st0">
		<g>
			<polygon class="st1" points="-50.3,849.7 -62.2,870.4 -74.1,891 -121.9,891 -133.8,870.4 -145.7,849.7 -133.8,829.1 
				-121.9,808.4 -74.1,808.4 -62.2,829.1 			"/>
			<polygon class="st2" points="-23,851.7 -23,891 -69.5,891 -58.8,872.4 -46.9,851.7 			"/>
			<polygon class="st3" points="-23,765.1 -23,847.7 -46.9,847.7 -58.8,827.1 -70.7,806.4 -58.8,785.8 -46.9,765.1 			"/>
			<polygon class="st3" points="24.7,806.4 12.8,827.1 0.9,847.7 -23,847.7 -23,765.1 0.9,765.1 12.8,785.8 			"/>
			<polygon class="st3" points="99.7,849.7 87.8,870.4 75.9,891 28.1,891 16.2,870.4 4.3,849.7 16.2,829.1 28.1,808.4 75.9,808.4 
				87.8,829.1 			"/>
			<polygon class="st2" points="23.5,891 -23,891 -23,851.7 0.9,851.7 12.8,872.4 			"/>
			<polygon class="st2" points="-23,891 -23,930.3 -46.9,930.3 -58.8,909.7 -69.5,891 			"/>
			<polygon class="st3" points="-50.3,932.3 -62.2,953 -74.1,973.6 -121.9,973.6 -133.8,953 -145.7,932.3 -133.8,911.7 -121.9,891 
				-74.1,891 -62.2,911.7 			"/>
			<polygon class="st1" points="-23,934.3 -23,1016.9 -46.9,1016.9 -58.8,996.3 -70.7,975.6 -58.8,955 -46.9,934.3 			"/>
			<polygon class="st1" points="24.7,975.6 12.8,996.3 0.9,1016.9 -23,1016.9 -23,934.3 0.9,934.3 12.8,955 			"/>
			<polygon class="st2" points="23.5,891 12.8,909.7 0.9,930.3 -23,930.3 -23,891 			"/>
			<polygon class="st1" points="99.7,932.3 87.8,953 75.9,973.6 28.1,973.6 16.2,953 4.3,932.3 16.2,911.7 28.1,891 75.9,891 
				87.8,911.7 			"/>
		</g>
		<g>
			<polygon class="st1" points="175.7,808.7 163.8,829.4 151.9,850 104.1,850 92.2,829.4 80.3,808.7 92.2,788.1 104.1,767.4 
				151.9,767.4 163.8,788.1 			"/>
			<polygon class="st2" points="203,810.7 203,850 156.5,850 167.2,831.4 179.1,810.7 			"/>
			<polygon class="st3" points="203,724.1 203,806.7 179.1,806.7 167.2,786.1 155.3,765.4 167.2,744.8 179.1,724.1 			"/>
			<polygon class="st3" points="250.7,765.4 238.8,786.1 226.9,806.7 203,806.7 203,724.1 226.9,724.1 238.8,744.8 			"/>
			<polygon class="st3" points="325.7,808.7 313.8,829.4 301.9,850 254.1,850 242.2,829.4 230.3,808.7 242.2,788.1 254.1,767.4 
				301.9,767.4 313.8,788.1 			"/>
			<polygon class="st2" points="249.5,850 203,850 203,810.7 226.9,810.7 238.8,831.4 			"/>
			<polygon class="st2" points="203,850 203,889.3 179.1,889.3 167.2,868.7 156.5,850 			"/>
			<polygon class="st3" points="175.7,891.3 163.8,912 151.9,932.6 104.1,932.6 92.2,912 80.3,891.3 92.2,870.7 104.1,850 
				151.9,850 163.8,870.7 			"/>
			<polygon class="st1" points="203,893.3 203,975.9 179.1,975.9 167.2,955.3 155.3,934.6 167.2,914 179.1,893.3 			"/>
			<polygon class="st1" points="250.7,934.6 238.8,955.3 226.9,975.9 203,975.9 203,893.3 226.9,893.3 238.8,914 			"/>
			<polygon class="st2" points="249.5,850 238.8,868.7 226.9,889.3 203,889.3 203,850 			"/>
			<polygon class="st1" points="325.7,891.3 313.8,912 301.9,932.6 254.1,932.6 242.2,912 230.3,891.3 242.2,870.7 254.1,850 
				301.9,850 313.8,870.7 			"/>
		</g>
		<g>
			<polygon class="st1" points="327.7,978.7 315.8,999.4 303.9,1020 256.1,1020 244.2,999.4 232.3,978.7 244.2,958.1 256.1,937.4 
				303.9,937.4 315.8,958.1 			"/>
			<polygon class="st2" points="355,980.7 355,1020 308.5,1020 319.2,1001.4 331.1,980.7 			"/>
			<polygon class="st3" points="355,894.1 355,976.7 331.1,976.7 319.2,956.1 307.3,935.4 319.2,914.8 331.1,894.1 			"/>
			<polygon class="st3" points="402.7,935.4 390.8,956.1 378.9,976.7 355,976.7 355,894.1 378.9,894.1 390.8,914.8 			"/>
			<polygon class="st3" points="477.7,978.7 465.8,999.4 453.9,1020 406.1,1020 394.2,999.4 382.3,978.7 394.2,958.1 406.1,937.4 
				453.9,937.4 465.8,958.1 			"/>
			<polygon class="st2" points="401.5,1020 355,1020 355,980.7 378.9,980.7 390.8,1001.4 			"/>
			<polygon class="st2" points="355,1020 355,1059.3 331.1,1059.3 319.2,1038.7 308.5,1020 			"/>
			<polygon class="st3" points="327.7,1061.3 315.8,1082 303.9,1102.6 256.1,1102.6 244.2,1082 232.3,1061.3 244.2,1040.7 
				256.1,1020 303.9,1020 315.8,1040.7 			"/>
			<polygon class="st1" points="355,1063.3 355,1145.9 331.1,1145.9 319.2,1125.3 307.3,1104.6 319.2,1084 331.1,1063.3 			"/>
			<polygon class="st1" points="402.7,1104.6 390.8,1125.3 378.9,1145.9 355,1145.9 355,1063.3 378.9,1063.3 390.8,1084 			"/>
			<polygon class="st2" points="401.5,1020 390.8,1038.7 378.9,1059.3 355,1059.3 355,1020 			"/>
			<polygon class="st1" points="477.7,1061.3 465.8,1082 453.9,1102.6 406.1,1102.6 394.2,1082 382.3,1061.3 394.2,1040.7 
				406.1,1020 453.9,1020 465.8,1040.7 			"/>
		</g>
		<g>
			<polygon class="st1" points="100.7,1019.7 88.8,1040.4 76.9,1061 29.1,1061 17.2,1040.4 5.3,1019.7 17.2,999.1 29.1,978.4 
				76.9,978.4 88.8,999.1 			"/>
			<polygon class="st2" points="128,1021.7 128,1061 81.5,1061 92.2,1042.4 104.1,1021.7 			"/>
			<polygon class="st3" points="128,935.1 128,1017.7 104.1,1017.7 92.2,997.1 80.3,976.4 92.2,955.8 104.1,935.1 			"/>
			<polygon class="st3" points="175.7,976.4 163.8,997.1 151.9,1017.7 128,1017.7 128,935.1 151.9,935.1 163.8,955.8 			"/>
			<polygon class="st3" points="250.7,1019.7 238.8,1040.4 226.9,1061 179.1,1061 167.2,1040.4 155.3,1019.7 167.2,999.1 
				179.1,978.4 226.9,978.4 238.8,999.1 			"/>
			<polygon class="st2" points="174.5,1061 128,1061 128,1021.7 151.9,1021.7 163.8,1042.4 			"/>
			<polygon class="st2" points="128,1061 128,1100.3 104.1,1100.3 92.2,1079.7 81.5,1061 			"/>
			<polygon class="st3" points="100.7,1102.3 88.8,1123 76.9,1143.6 29.1,1143.6 17.2,1123 5.3,1102.3 17.2,1081.7 29.1,1061 
				76.9,1061 88.8,1081.7 			"/>
			<polygon class="st1" points="128,1104.3 128,1186.9 104.1,1186.9 92.2,1166.3 80.3,1145.6 92.2,1125 104.1,1104.3 			"/>
			<polygon class="st1" points="175.7,1145.6 163.8,1166.3 151.9,1186.9 128,1186.9 128,1104.3 151.9,1104.3 163.8,1125 			"/>
			<polygon class="st2" points="174.5,1061 163.8,1079.7 151.9,1100.3 128,1100.3 128,1061 			"/>
			<polygon class="st1" points="250.7,1102.3 238.8,1123 226.9,1143.6 179.1,1143.6 167.2,1123 155.3,1102.3 167.2,1081.7 
				179.1,1061 226.9,1061 238.8,1081.7 			"/>
		</g>
		<g>
			<polygon class="st1" points="-125.3,1062.7 -137.2,1083.4 -149.1,1104 -196.9,1104 -208.8,1083.4 -220.7,1062.7 -208.8,1042.1 
				-196.9,1021.4 -149.1,1021.4 -137.2,1042.1 			"/>
			<polygon class="st2" points="-98,1064.7 -98,1104 -144.5,1104 -133.8,1085.4 -121.9,1064.7 			"/>
			<polygon class="st3" points="-98,978.1 -98,1060.7 -121.9,1060.7 -133.8,1040.1 -145.7,1019.4 -133.8,998.8 -121.9,978.1 			"/>
			<polygon class="st3" points="-50.3,1019.4 -62.2,1040.1 -74.1,1060.7 -98,1060.7 -98,978.1 -74.1,978.1 -62.2,998.8 			"/>
			<polygon class="st3" points="24.7,1062.7 12.8,1083.4 0.9,1104 -46.9,1104 -58.8,1083.4 -70.7,1062.7 -58.8,1042.1 -46.9,1021.4 
				0.9,1021.4 12.8,1042.1 			"/>
			<polygon class="st2" points="-51.5,1104 -98,1104 -98,1064.7 -74.1,1064.7 -62.2,1085.4 			"/>
			<polygon class="st2" points="-98,1104 -98,1143.3 -121.9,1143.3 -133.8,1122.7 -144.5,1104 			"/>
			<polygon class="st3" points="-125.3,1145.3 -137.2,1166 -149.1,1186.6 -196.9,1186.6 -208.8,1166 -220.7,1145.3 -208.8,1124.7 
				-196.9,1104 -149.1,1104 -137.2,1124.7 			"/>
			<polygon class="st1" points="-98,1147.3 -98,1229.9 -121.9,1229.9 -133.8,1209.3 -145.7,1188.6 -133.8,1168 -121.9,1147.3 			"/>
			<polygon class="st1" points="-50.3,1188.6 -62.2,1209.3 -74.1,1229.9 -98,1229.9 -98,1147.3 -74.1,1147.3 -62.2,1168 			"/>
			<polygon class="st2" points="-51.5,1104 -62.2,1122.7 -74.1,1143.3 -98,1143.3 -98,1104 			"/>
			<polygon class="st1" points="24.7,1145.3 12.8,1166 0.9,1186.6 -46.9,1186.6 -58.8,1166 -70.7,1145.3 -58.8,1124.7 -46.9,1104 
				0.9,1104 12.8,1124.7 			"/>
		</g>
	</g>
	<g class="st0">
		<polygon class="st1" points="-125.3,467.7 -137.2,488.4 -149.1,509 -196.9,509 -208.8,488.4 -220.7,467.7 -208.8,447.1 
			-196.9,426.4 -149.1,426.4 -137.2,447.1 		"/>
		<polygon class="st2" points="-98,469.7 -98,509 -144.5,509 -133.8,490.4 -121.9,469.7 		"/>
		<polygon class="st3" points="-98,383.1 -98,465.7 -121.9,465.7 -133.8,445.1 -145.7,424.4 -133.8,403.8 -121.9,383.1 		"/>
		<polygon class="st3" points="-50.3,424.4 -62.2,445.1 -74.1,465.7 -98,465.7 -98,383.1 -74.1,383.1 -62.2,403.8 		"/>
		<polygon class="st3" points="24.7,467.7 12.8,488.4 0.9,509 -46.9,509 -58.8,488.4 -70.7,467.7 -58.8,447.1 -46.9,426.4 
			0.9,426.4 12.8,447.1 		"/>
		<polygon class="st2" points="-51.5,509 -98,509 -98,469.7 -74.1,469.7 -62.2,490.4 		"/>
		<polygon class="st2" points="-98,509 -98,548.3 -121.9,548.3 -133.8,527.7 -144.5,509 		"/>
		<polygon class="st3" points="-125.3,550.3 -137.2,571 -149.1,591.6 -196.9,591.6 -208.8,571 -220.7,550.3 -208.8,529.7 
			-196.9,509 -149.1,509 -137.2,529.7 		"/>
		<polygon class="st1" points="-98,552.3 -98,634.9 -121.9,634.9 -133.8,614.3 -145.7,593.6 -133.8,573 -121.9,552.3 		"/>
		<polygon class="st1" points="-50.3,593.6 -62.2,614.3 -74.1,634.9 -98,634.9 -98,552.3 -74.1,552.3 -62.2,573 		"/>
		<polygon class="st2" points="-51.5,509 -62.2,527.7 -74.1,548.3 -98,548.3 -98,509 		"/>
		<polygon class="st1" points="24.7,550.3 12.8,571 0.9,591.6 -46.9,591.6 -58.8,571 -70.7,550.3 -58.8,529.7 -46.9,509 0.9,509 
			12.8,529.7 		"/>
	</g>
	<g class="st0">
		<polygon class="st1" points="401.7,764.7 389.8,785.4 377.9,806 330.1,806 318.2,785.4 306.3,764.7 318.2,744.1 330.1,723.4 
			377.9,723.4 389.8,744.1 		"/>
		<polygon class="st2" points="429,766.7 429,806 382.5,806 393.2,787.4 405.1,766.7 		"/>
		<polygon class="st3" points="429,680.1 429,762.7 405.1,762.7 393.2,742.1 381.3,721.4 393.2,700.8 405.1,680.1 		"/>
		<polygon class="st3" points="476.7,721.4 464.8,742.1 452.9,762.7 429,762.7 429,680.1 452.9,680.1 464.8,700.8 		"/>
		<polygon class="st3" points="551.7,764.7 539.8,785.4 527.9,806 480.1,806 468.2,785.4 456.3,764.7 468.2,744.1 480.1,723.4 
			527.9,723.4 539.8,744.1 		"/>
		<polygon class="st2" points="475.5,806 429,806 429,766.7 452.9,766.7 464.8,787.4 		"/>
		<polygon class="st2" points="429,806 429,845.3 405.1,845.3 393.2,824.7 382.5,806 		"/>
		<polygon class="st3" points="401.7,847.3 389.8,868 377.9,888.6 330.1,888.6 318.2,868 306.3,847.3 318.2,826.7 330.1,806 
			377.9,806 389.8,826.7 		"/>
		<polygon class="st1" points="429,849.3 429,931.9 405.1,931.9 393.2,911.3 381.3,890.6 393.2,870 405.1,849.3 		"/>
		<polygon class="st1" points="476.7,890.6 464.8,911.3 452.9,931.9 429,931.9 429,849.3 452.9,849.3 464.8,870 		"/>
		<polygon class="st2" points="475.5,806 464.8,824.7 452.9,845.3 429,845.3 429,806 		"/>
		<polygon class="st1" points="551.7,847.3 539.8,868 527.9,888.6 480.1,888.6 468.2,868 456.3,847.3 468.2,826.7 480.1,806 
			527.9,806 539.8,826.7 		"/>
	</g>
</g>
</svg>
