<?xml version="1.0" encoding="utf-8"?>
<!-- Generator: Adobe Illustrator 22.0.1, SVG Export Plug-In . SVG Version: 6.00 Build 0)  -->
<svg version="1.1" id="Layer_1" xmlns="http://www.w3.org/2000/svg" xmlns:xlink="http://www.w3.org/1999/xlink" x="0px" y="0px"
	 viewBox="0 0 231 270.9" style="enable-background:new 0 0 231 270.9;" xml:space="preserve">
<style type="text/css">
	.st0{opacity:0.95;}
	.st1{fill:url(#SVGID_1_);}
	.st2{fill:url(#SVGID_2_);}
	.st3{fill:url(#SVGID_3_);}
	.st4{fill:url(#SVGID_4_);}
	.st5{fill:url(#SVGID_5_);}
	.st6{fill:#FE728A;}
	.st7{opacity:0.29;}
	.st8{fill:url(#SVGID_6_);}
	.st9{fill:url(#SVGID_7_);}
	.st10{opacity:0.46;fill:url(#SVGID_8_);enable-background:new    ;}
	.st11{opacity:0.46;fill:url(#SVGID_9_);enable-background:new    ;}
	.st12{fill:none;stroke:#242A4D;stroke-width:6.9374;stroke-linecap:round;stroke-linejoin:round;stroke-miterlimit:10;}
	.st13{fill:#2B304D;}
</style>
<g>
	<g>
	</g>
	<g class="st0">
		
			<linearGradient id="SVGID_1_" gradientUnits="userSpaceOnUse" x1="115.5" y1="49.8866" x2="115.5" y2="250.2449" gradientTransform="matrix(1 0 0 -1 0 272)">
			<stop  offset="0" style="stop-color:#FC183E"/>
			<stop  offset="0.5101" style="stop-color:#FC183E"/>
			<stop  offset="1" style="stop-color:#FA183E"/>
		</linearGradient>
		<path class="st1" d="M122,26.3L201.8,69c4.5,2.4,7.3,7.1,7.3,12.1V165c0,5.1-2.8,9.7-7.3,12.1L122,219.9c-4.1,2.2-8.9,2.2-13,0
			l-79.8-42.8c-4.5-2.4-7.3-7.1-7.3-12.1V81.2c0-5.1,2.8-9.7,7.3-12.1L109,26.3C113.1,24.1,117.9,24.1,122,26.3z"/>
	</g>
	<g>
		
			<linearGradient id="SVGID_2_" gradientUnits="userSpaceOnUse" x1="78.6793" y1="88.8385" x2="58.2454" y2="56.5743" gradientTransform="matrix(1 0 0 -1 0 272)">
			<stop  offset="0" style="stop-color:#FC4A68"/>
			<stop  offset="0.3265" style="stop-color:#FA4B69"/>
			<stop  offset="0.4673" style="stop-color:#F3506E"/>
			<stop  offset="0.5723" style="stop-color:#E65876"/>
			<stop  offset="0.6597" style="stop-color:#D46382"/>
			<stop  offset="0.736" style="stop-color:#BD7292"/>
			<stop  offset="0.8047" style="stop-color:#A185A5"/>
			<stop  offset="0.8676" style="stop-color:#7F9ABB"/>
			<stop  offset="0.926" style="stop-color:#57B4D5"/>
			<stop  offset="0.9787" style="stop-color:#2CCFF2"/>
			<stop  offset="1" style="stop-color:#18DCFF"/>
		</linearGradient>
		<path class="st2" d="M115.5,220.6l-6.5,21.2l-80.8-43.3c-3.9-2.1-6.3-6.1-6.3-10.5v-21.7L115.5,220.6z"/>
	</g>
	
		<linearGradient id="SVGID_3_" gradientUnits="userSpaceOnUse" x1="137.7178" y1="108.7495" x2="178.5306" y2="48.9216" gradientTransform="matrix(1 0 0 -1 0 272)">
		<stop  offset="0.1491" style="stop-color:#FC3687"/>
		<stop  offset="0.589" style="stop-color:#FC316C"/>
		<stop  offset="0.9993" style="stop-color:#FC2C4F"/>
	</linearGradient>
	<path class="st3" d="M115.5,220.6l6.5,21.2l80.8-43.3c3.9-2.1,6.3-6.1,6.3-10.5v-21.7L115.5,220.6z"/>
	<g class="st0">
		
			<linearGradient id="SVGID_4_" gradientUnits="userSpaceOnUse" x1="115.5" y1="49.8866" x2="115.5" y2="250.2449" gradientTransform="matrix(1 0 0 -1 0 272)">
			<stop  offset="0" style="stop-color:#FC183E"/>
			<stop  offset="0.5101" style="stop-color:#FC183E"/>
			<stop  offset="0.5723" style="stop-color:#FC2448"/>
			<stop  offset="0.7335" style="stop-color:#FB3D5D"/>
			<stop  offset="0.8807" style="stop-color:#FA4C6A"/>
			<stop  offset="1" style="stop-color:#FA516E"/>
		</linearGradient>
		<path class="st4" d="M122,26.3L201.8,69c4.5,2.4,7.3,7.1,7.3,12.1V165c0,5.1-2.8,9.7-7.3,12.1L122,219.9c-4.1,2.2-8.9,2.2-13,0
			l-79.8-42.8c-4.5-2.4-7.3-7.1-7.3-12.1V81.2c0-5.1,2.8-9.7,7.3-12.1L109,26.3C113.1,24.1,117.9,24.1,122,26.3z"/>
	</g>
	
		<linearGradient id="SVGID_5_" gradientUnits="userSpaceOnUse" x1="115.5" y1="24.0352" x2="115.5" y2="85.2098" gradientTransform="matrix(1 0 0 -1 0 272)">
		<stop  offset="0" style="stop-color:#F9DDE2"/>
		<stop  offset="5.720508e-02" style="stop-color:#F9D8DE"/>
		<stop  offset="0.1278" style="stop-color:#F9C9D1"/>
		<stop  offset="0.2055" style="stop-color:#F9AFBC"/>
		<stop  offset="0.2883" style="stop-color:#F98C9F"/>
		<stop  offset="0.3752" style="stop-color:#FA5F79"/>
		<stop  offset="0.4642" style="stop-color:#FA294C"/>
		<stop  offset="0.4899" style="stop-color:#FA183E"/>
		<stop  offset="0.802" style="stop-color:#F9183E"/>
	</linearGradient>
	<path class="st5" d="M109,241.7c0,0,6.4,3.5,13,0v-22.9l-5.9,1.4l-6.9-1.4L109,241.7z"/>
	<path class="st6" d="M206.3,162.2c0,5.1-1.4,9.7-5.9,12.1L122,217.1c-4.1,2.2-8.9,2.2-13,0l-78.4-42.8c-4.5-2.4-5.9-7.1-5.9-12.1
		L22,80.3c0,0.3-0.1,0.6-0.1,0.9V165c0,5.1,2.8,9.7,7.3,12.1l79.8,42.8c4.1,2.2,8.9,2.2,13,0l79.8-42.8c4.5-2.4,7.3-7.1,7.3-12.1
		V81.2c0-0.3,0-0.6-0.1-0.9L206.3,162.2z"/>
	<g class="st7">
		
			<linearGradient id="SVGID_6_" gradientUnits="userSpaceOnUse" x1="78.6285" y1="186.5986" x2="42.3908" y2="275.1974" gradientTransform="matrix(1 0 0 -1 0 272)">
			<stop  offset="0" style="stop-color:#18DCFF"/>
			<stop  offset="2.125007e-02" style="stop-color:#2CCFF2"/>
			<stop  offset="7.398981e-02" style="stop-color:#57B4D5"/>
			<stop  offset="0.1324" style="stop-color:#7F9ABB"/>
			<stop  offset="0.1953" style="stop-color:#A185A5"/>
			<stop  offset="0.264" style="stop-color:#BD7292"/>
			<stop  offset="0.3403" style="stop-color:#D46382"/>
			<stop  offset="0.4277" style="stop-color:#E65876"/>
			<stop  offset="0.5327" style="stop-color:#F3506E"/>
			<stop  offset="0.6735" style="stop-color:#FA4B69"/>
			<stop  offset="1" style="stop-color:#FC4A68"/>
		</linearGradient>
		<path class="st8" d="M21.9,80.8v14l93.6-50.1V28.1c0-2.4-2.5-3.9-4.6-2.8l-82,43.9C24.6,71.5,21.9,76,21.9,80.8z"/>
		
			<linearGradient id="SVGID_7_" gradientUnits="userSpaceOnUse" x1="185.368" y1="269.0323" x2="154.0395" y2="190.3631" gradientTransform="matrix(1 0 0 -1 0 272)">
			<stop  offset="0" style="stop-color:#FC4A68"/>
			<stop  offset="0.3265" style="stop-color:#FA4B69"/>
			<stop  offset="0.4673" style="stop-color:#F3506E"/>
			<stop  offset="0.5723" style="stop-color:#E65876"/>
			<stop  offset="0.6597" style="stop-color:#D46382"/>
			<stop  offset="0.736" style="stop-color:#BD7292"/>
			<stop  offset="0.8047" style="stop-color:#A185A5"/>
			<stop  offset="0.8676" style="stop-color:#7F9ABB"/>
			<stop  offset="0.926" style="stop-color:#57B4D5"/>
			<stop  offset="0.9787" style="stop-color:#2CCFF2"/>
			<stop  offset="1" style="stop-color:#18DCFF"/>
		</linearGradient>
		<path class="st9" d="M202.4,69.4l-82.3-44.1c-2.1-1.1-4.7,0.4-4.7,2.8v16.6L209,94.8V80.4C209,75.8,206.5,71.6,202.4,69.4z"/>
		
			<linearGradient id="SVGID_8_" gradientUnits="userSpaceOnUse" x1="-16.7821" y1="212.1841" x2="233.0043" y2="212.1841" gradientTransform="matrix(1 0 0 -1 0 272)">
			<stop  offset="0.1491" style="stop-color:#FC3687"/>
			<stop  offset="0.3991" style="stop-color:#FC347B"/>
			<stop  offset="0.8505" style="stop-color:#FC2E5B"/>
			<stop  offset="0.9993" style="stop-color:#FC2C4F"/>
		</linearGradient>
		<path class="st10" d="M202,69.2l-82.1-44c-2-1.1-4.5,0.4-4.5,2.7v16.8L209,94.8v-14C209,76,206.3,71.5,202,69.2z"/>
	</g>
	
		<linearGradient id="SVGID_9_" gradientUnits="userSpaceOnUse" x1="104.4959" y1="149.744" x2="191.3268" y2="259.1894" gradientTransform="matrix(1 0 0 -1 0 272)">
		<stop  offset="0" style="stop-color:#FEF8D5;stop-opacity:0"/>
		<stop  offset="0.9993" style="stop-color:#FEF8D5"/>
	</linearGradient>
	<path class="st11" d="M201.6,69l-81.3-43.6c-3-1.6-6.7-1.6-9.7,0L67.2,48.6c5.6,29.1,33,56.2,71,66.6c25.6,7,51,4.9,70.8-4V81.3
		C209,76.1,206.2,71.4,201.6,69z"/>
	<g>
		<path class="st12" d="M170.9,117.2c-17.2,0-31.2-7.5-31.2-16.8"/>
		<path class="st12" d="M59.7,117.2c17.2,0,31.2-7.5,31.2-16.8"/>
		<g>
			<path class="st13" d="M154.2,157.3c0,8.8-5.8,7.5-14.9,4.8c-6.7-2-15.3-4.8-24.5-4.8S97,160,90.2,162c-9.1,2.7-14.9,4-14.9-4.8
				c0-8.3,5.1-15.7,13.3-20.7c7-4.3,16.1-7,26.2-7s19.2,2.6,26.1,7C149.1,141.6,154.2,149,154.2,157.3z"/>
		</g>
	</g>
</g>
</svg>
