<?xml version="1.0" encoding="utf-8"?>
<!-- Generator: Adobe Illustrator 22.0.1, SVG Export Plug-In . SVG Version: 6.00 Build 0)  -->
<svg version="1.1" id="Capa_1" xmlns="http://www.w3.org/2000/svg" xmlns:xlink="http://www.w3.org/1999/xlink" x="0px" y="0px"
	 viewBox="0 0 1097.5 1215.7" style="enable-background:new 0 0 1097.5 1215.7;" xml:space="preserve">
<style type="text/css">
	.st0{fill:#FFFFFF;}
	.st1{fill:#5E004D;}
	.st2{fill:url(#SVGID_1_);stroke:#5E004D;stroke-width:8;stroke-linecap:round;stroke-linejoin:round;stroke-miterlimit:10;}
	.st3{fill:#FFFFFF;stroke:#5E004D;stroke-width:5;stroke-linecap:round;stroke-linejoin:round;stroke-miterlimit:10;}
	.st4{fill:url(#SVGID_2_);stroke:#5E004D;stroke-width:8;stroke-linecap:round;stroke-linejoin:round;stroke-miterlimit:10;}
	.st5{fill:url(#SVGID_3_);}
	.st6{fill:#5E004D;stroke:#5E004D;stroke-width:5;stroke-linecap:round;stroke-linejoin:round;stroke-miterlimit:10;}
	.st7{fill:url(#SVGID_4_);}
	.st8{fill:url(#SVGID_5_);stroke:#5E004D;stroke-width:8;stroke-linecap:round;stroke-linejoin:round;stroke-miterlimit:10;}
	.st9{fill:url(#SVGID_6_);}
	.st10{fill:#FFFFFF;stroke:#5E004D;stroke-linecap:round;stroke-linejoin:round;stroke-miterlimit:10;}
	.st11{fill:url(#SVGID_7_);}
	.st12{fill:url(#SVGID_8_);}
	.st13{fill:url(#SVGID_9_);}
	.st14{fill:url(#SVGID_10_);}
	.st15{fill:url(#SVGID_11_);}
</style>
<g>
	<g>
		<path class="st0" d="M288.7,422.8c0,0,168.3-90.2,241.7,20.3c68.3,102.8-86.4,179.7-130.6,143.1c0,0-120.2,82.1-178.7,140.4
			C221.2,726.7,143.2,525.9,288.7,422.8z"/>
		<path class="st1" d="M288.5,422.5c9.7-5.1,19.7-9.4,29.8-13.5c10.1-4.1,20.4-7.7,30.9-10.9c20.9-6.4,42.4-11.1,64.5-12.3
			c11-0.6,22.1-0.3,33.1,1.3c11,1.5,21.9,4.3,32.3,8.6c20.8,8.4,38.9,23.4,51.5,41.8c6.4,9.1,11.7,19.1,15.2,29.8
			c3.5,10.7,5,22.1,3.9,33.3c-1,11.2-4.6,22.1-10,31.8c-2.7,4.9-5.8,9.5-9.2,13.8c-3.4,4.3-7.2,8.4-11.1,12.2
			c-16,15.1-35.5,26.3-56.4,33.1c-10.5,3.3-21.4,5.5-32.5,5.5c-5.5,0-11.1-0.5-16.6-1.9c-5.4-1.4-10.8-3.7-15.3-7.4l2.2,0.1
			c-15.4,10.9-30.7,22.2-45.8,33.6l-22.6,17.2c-7.5,5.8-15,11.6-22.4,17.4c-14.9,11.7-29.7,23.5-44.1,35.7
			c-7.2,6.1-14.3,12.3-21.3,18.6c-7,6.3-13.8,12.8-20.5,19.4c-1.6,1.6-4.3,1.6-5.9,0c-0.4-0.4-0.8-0.9-1-1.5
			c-1.3-3.4-2.4-6.7-3.5-10.1c-1.1-3.4-2.1-6.8-3.1-10.1c-1.9-6.8-3.7-13.6-5.2-20.5c-3.2-13.8-5.5-27.7-7-41.7
			c-1.5-14-2.3-28.2-2-42.3c0.2-7.1,0.5-14.1,1.2-21.2c0.7-7,1.7-14,2.9-21c5-27.8,14.9-54.8,30.1-78.6c3.8-5.9,7.8-11.7,12.2-17.2
			c4.4-5.4,8.9-10.8,13.8-15.8C266.4,439.6,277.1,430.6,288.5,422.5z M288.9,423.1c-5.6,4.1-11.1,8.3-16.3,13
			c-2.7,2.2-5.2,4.7-7.7,7c-1.3,1.2-2.4,2.5-3.7,3.7c-1.2,1.2-2.4,2.5-3.6,3.8l-3.5,3.9l-3.4,4c-0.6,0.7-1.1,1.3-1.7,2l-1.6,2.1
			c-1.1,1.4-2.1,2.7-3.1,4.1c-4.1,5.6-7.9,11.4-11.4,17.4c-3.4,6-6.5,12.2-9.3,18.5c-2.8,6.3-5.2,12.8-7.4,19.4
			c-4.3,13.1-7.2,26.6-9.2,40.3c-1.9,13.6-2.8,27.4-2.8,41.2c0,13.8,0.8,27.6,2.4,41.3c0.8,6.9,1.8,13.7,3,20.5
			c1.2,6.8,2.5,13.6,4,20.3c1.5,6.7,3.2,13.4,5.1,20.1c0.9,3.3,1.9,6.6,3,9.9c1,3.3,2.1,6.6,3.3,9.7l-6.9-1.5
			c6.8-6.7,13.9-13.2,21-19.5c7.1-6.3,14.4-12.5,21.7-18.5c7.3-6.1,14.7-12,22.2-17.9c7.5-5.9,15-11.7,22.6-17.4
			c7.6-5.7,15.2-11.4,22.9-16.9c7.7-5.6,15.4-11.1,23.2-16.5c15.5-10.9,31.2-21.6,47-32.2l0,0c0.7-0.5,1.6-0.4,2.2,0.1
			c3.9,3.3,8.7,5.6,13.8,7.1c5.1,1.5,10.4,2.1,15.7,2.2c10.7,0.1,21.4-1.8,31.7-5c10.3-3.2,20.2-7.6,29.5-13.1
			c9.3-5.5,18-12,25.6-19.6c3.8-3.8,7.4-7.8,10.6-12.1c3.2-4.3,6.1-8.9,8.5-13.6c4.8-9.5,7.8-19.9,8.4-30.4
			c0.6-10.5-1.1-21.1-4.7-31c-3.6-9.9-8.9-19.2-15.1-27.8c-3.1-4.3-6.5-8.4-10.1-12.2c-3.6-3.9-7.5-7.5-11.6-10.8
			c-4.1-3.3-8.4-6.3-13-9.1c-4.5-2.7-9.2-5.2-14.1-7.2c-9.7-4.1-20-7.1-30.5-8.9c-10.5-1.8-21.2-2.6-32-2.5
			c-10.8,0.1-21.5,1-32.3,2.6c-5.4,0.8-10.7,1.8-16,2.9c-5.3,1.1-10.6,2.4-15.8,3.8C328.8,405.6,308.3,413.3,288.9,423.1z"/>
	</g>
	<path class="st1" d="M449.5,390.9c0,0-9.4,22.9,18.8,60.5l-77.9-8.1l15-59.4L449.5,390.9z"/>
	<path class="st1" d="M384.5,535.1c0,0-15.6,63.9-46.5,66.6l0,19.7l59.1-30.5L384.5,535.1z"/>
	
		<linearGradient id="SVGID_1_" gradientUnits="userSpaceOnUse" x1="4185.5415" y1="504.3029" x2="4567.6416" y2="504.3029" gradientTransform="matrix(-1 0 0 1 4385.4565 0)">
		<stop  offset="0" style="stop-color:#2AD8FF"/>
		<stop  offset="0.9948" style="stop-color:#FC1E79"/>
	</linearGradient>
	<path class="st2" d="M507.2,418.1c0,0-151.7,27.9-117.7,156.4l66,16.1L560,510.1C560,510.1,541.4,438.1,507.2,418.1z"/>
	<g>
		<g>
			<path class="st0" d="M424.2,480.3c0,0,119.3-47.9,180.7,10.7c38.8,37-29.3,105.6-70.5,82.5c0,0-28.5,33-69.8,21.5
				s-44.6,28.1-72.6,16.5s-9.9-51.2,26.4-59.4C418.4,552.1,382.9,496.8,424.2,480.3z"/>
			<path class="st1" d="M424.1,479.9c3.3-1.3,6.6-2.4,9.9-3.6c3.3-1.1,6.6-2.2,10-3.2c6.7-2.1,13.4-3.9,20.2-5.7
				c13.6-3.4,27.4-6.2,41.4-7.6c7-0.7,14.1-1.1,21.2-1c7.1,0.1,14.2,0.6,21.3,1.7c3.5,0.6,7,1.2,10.5,2.1c3.5,0.9,6.9,1.8,10.3,3
				c6.8,2.2,13.4,5.3,19.6,9c6.2,3.7,12,8.1,17.1,13.1c5.3,5,9.7,11.5,11.5,18.7c2,7.2,1.5,14.7-0.4,21.7
				c-1.9,6.9-5.2,13.4-9.3,19.2c-4.1,5.8-8.8,11.1-14.3,15.7c-5.4,4.6-11.3,8.6-17.8,11.7c-3.2,1.5-6.6,2.8-10,3.8
				c-3.5,1-7,1.7-10.7,1.9c-3.6,0.2-7.4,0.1-11-0.6c-3.6-0.7-7.2-2-10.6-3.7l3.4-0.6c-0.9,1.1-1.8,2-2.7,3c-0.9,0.9-1.9,1.8-2.8,2.7
				c-1.9,1.8-3.9,3.4-6,5c-4.2,3.1-8.6,5.9-13.4,8.2c-9.4,4.6-20,7.2-30.7,7.1c-5.3,0-10.7-0.7-15.8-2l-3.6-0.9
				c-1.1-0.3-2.3-0.5-3.4-0.7c-2.3-0.4-4.6-0.6-6.9-0.6c-4.5-0.1-8.9,0.7-13.1,2.4c-4.2,1.6-8,4.2-12,7.1c-4,2.9-8,6.3-13.2,8.8
				c-2.6,1.2-5.6,2.1-8.6,2.4c-3,0.3-6.1,0-8.9-0.8c-2.8-0.7-5.4-1.8-7.9-3.1c-2.5-1.4-5-3.2-7-5.4c-2.1-2.2-3.7-4.9-4.6-7.8
				c-1-2.9-1.3-5.9-1.2-8.8c0.1-2.9,0.7-5.7,1.6-8.4c0.9-2.7,2.1-5.2,3.5-7.5c2.8-4.7,6.3-8.8,10.4-12.2
				c8.1-6.9,17.9-11.4,28.1-13.3l-1.1,2.7c-1.8-3.1-3.4-6.2-4.8-9.4c-1.5-3.2-2.8-6.4-4-9.8c-2.3-6.6-4-13.5-4.5-20.5
				c-0.2-3.5-0.1-7.1,0.6-10.5c0.7-3.5,1.9-6.9,3.7-9.9c1.8-3,4.2-5.7,7-7.8C417.7,482.9,420.8,481.2,424.1,479.9z M424.4,480.7
				c-3.2,1.3-6.2,2.9-8.9,5.1c-2.7,2.1-5,4.7-6.7,7.7c-1.7,3-2.8,6.2-3.3,9.6c-0.5,3.4-0.6,6.8-0.2,10.2c0.6,6.8,2.7,13.5,5.2,19.8
				c2.6,6.3,5.8,12.5,9.5,18.1c0.5,0.8,0.3,1.9-0.5,2.4c-0.2,0.1-0.3,0.2-0.5,0.2l-0.1,0c-9.4,2.5-18.1,7.5-24.8,14.2
				c-3.3,3.4-6.2,7.1-8.4,11.2c-1.1,2-1.9,4.2-2.5,6.3c-0.6,2.1-1,4.3-1,6.4c0,2.1,0.3,4.2,1,6c0.7,1.8,1.8,3.5,3.1,5
				c1.4,1.5,3.1,2.7,4.9,3.7c1.9,1,4,1.8,6.1,2.3c4.2,1,8,0.6,11.9-1.3c3.9-1.8,7.7-4.9,11.8-7.9c4.1-3,8.7-6.1,13.9-8.2
				c5.2-2.1,10.9-3,16.4-2.8c2.8,0.1,5.5,0.4,8.1,0.9c1.3,0.2,2.6,0.5,3.9,0.9c1.3,0.3,2.6,0.7,3.7,1c4.6,1.2,9.3,2,14,2.1
				c18.9,0.7,37.8-8.5,51.3-21.9l0.2-0.2c0.9-0.9,2.2-1,3.2-0.4c2.8,1.7,5.8,2.9,8.9,3.7c3.2,0.8,6.5,1.2,9.8,1.2
				c6.7,0,13.3-1.7,19.6-4.3c12.5-5.4,23.6-14.5,31.3-25.9c1.9-2.8,3.6-5.8,5.1-8.9c1.4-3.1,2.5-6.3,3.3-9.6c0.8-3.3,1.1-6.7,1-10
				c-0.1-3.3-0.7-6.6-1.7-9.7c-1-3.1-2.6-6-4.5-8.6l-0.7-1l-0.8-0.9c-0.5-0.6-1.1-1.2-1.6-1.8c-1.1-1.2-2.3-2.3-3.6-3.4
				c-2.5-2.2-5.2-4.3-8-6.2c-2.8-1.9-5.7-3.7-8.6-5.3c-3-1.6-6-3.1-9.1-4.4c-1.5-0.7-3.1-1.3-4.7-1.9c-1.6-0.6-3.2-1.2-4.8-1.7
				c-6.4-2.1-13-3.7-19.7-4.9c-3.4-0.6-6.7-1.1-10.1-1.4c-3.4-0.4-6.8-0.7-10.2-0.9c-6.8-0.4-13.7-0.5-20.6-0.3
				c-6.9,0.2-13.8,0.7-20.7,1.4c-3.4,0.4-6.9,0.8-10.3,1.3c-3.4,0.5-6.9,1.1-10.3,1.8C450.9,472.1,437.4,475.7,424.4,480.7z"/>
		</g>
		<path class="st1" d="M523.1,549.4c0,0,47-7.1,60.4-31.1c0.1-0.2,13.4,12.6,13.4,12.6S581.8,580.7,523.1,549.4z"/>
		<g>
			<path class="st0" d="M430.7,505.3c17-7.1,19.2-70.3,19.2-70.3l63.6-13.4c0,0,9.6,51.1,16.7,65.3"/>
			<path class="st1" d="M430.7,505.3c2.8-1.5,4.5-4.2,5.9-6.9c1.4-2.7,2.4-5.6,3.2-8.6c0.9-2.9,1.5-6,2.1-9c0.6-3,1.1-6.1,1.5-9.1
				c0.8-6.1,1.4-12.3,1.9-18.4c0.4-6.2,0.8-12.4,0.9-18.5c0-1.7,1.2-3.1,2.8-3.5l0.1,0c5.3-1.2,10.6-2.4,15.8-3.6
				c5.3-1.1,10.6-2.3,15.9-3.4c5.3-1.1,10.6-2.2,15.9-3.2c5.3-1,10.6-2.1,16-3l0.2,0c1.9-0.3,3.6,0.9,4,2.8l0,0l2.8,16.6
				c1,5.5,1.9,11.1,2.9,16.6c1.1,5.5,2,11,3.2,16.5c0.6,2.7,1.2,5.5,1.9,8.2c0.7,2.7,1.4,5.4,2.4,8.1c-2.9-4.9-4.9-10.2-6.8-15.6
				c-1.8-5.4-3.6-10.7-5.1-16.2c-1.6-5.4-3-10.9-4.4-16.4c-1.4-5.5-2.7-11-3.8-16.5l4.2,2.8c-5.3,1.3-10.5,2.5-15.8,3.7
				c-5.3,1.2-10.6,2.4-15.9,3.5c-5.3,1.2-10.6,2.2-15.9,3.3c-5.3,1.1-10.6,2.1-15.9,3.1l2.9-3.5c-0.2,3.2-0.4,6.3-0.8,9.5
				c-0.3,3.1-0.7,6.3-1.1,9.4c-0.9,6.3-1.9,12.5-3.4,18.7c-1.4,6.2-3.2,12.3-5.7,18.2c-1.2,2.9-2.7,5.8-4.6,8.4
				c-0.9,1.3-2,2.5-3.2,3.6C433.6,504,432.2,504.9,430.7,505.3z"/>
		</g>
		<path class="st1" d="M396.6,590.6c0,0,18.5-2,29.8-15.9c11.4-13.9,32.7-8.2,29.8-18.2c-2.8-9.9-39.8-56.8-38.4-62.5
			c0.8-3.1,12.4-1.5,22.7,0.6c8.4,1.7,16.5-3.8,18-12.3c2.1-11.9,5.6-26.8,10.5-30.9c8.5-7.1,29.8-7.1,29.8-7.1s15.9,34.1,18.6,42.6
			l69.5,11.4c0,0-6.9,25.7-38.4,35.5c-41.2,12.8-75.3,0-75.3,0s24.2,15.6,34.1,12.8s-11.4,42.6-42.6,36.9
			C433.6,577.8,399.5,621.8,396.6,590.6z"/>
		<g>
			<path class="st0" d="M390.8,478.6c0,0,18.1-25.6,43.6-18.1c25.6,7.5,3,67.7-10.5,67.7S390.8,531.3,390.8,478.6z"/>
			<path class="st1" d="M390.4,478.5l0.4-0.8l0.4-0.7c0.3-0.5,0.5-0.9,0.8-1.4c0.6-0.9,1.2-1.8,1.8-2.7c1.3-1.7,2.7-3.4,4.2-5
				c3-3.1,6.6-5.9,10.5-8c2-1.1,4.1-2,6.2-2.7c2.2-0.7,4.4-1.2,6.7-1.4c4.6-0.6,9.4,0,13.7,1.5c2.3,0.8,4.6,2.2,6.4,4
				c1.8,1.8,3.1,3.9,3.9,6.1c1.7,4.4,1.9,8.9,1.8,13.1c-0.1,4.3-0.6,8.5-1.2,12.7c-0.7,4.2-1.5,8.4-2.7,12.5
				c-1.2,4.1-2.5,8.3-4.4,12.2c-1,2-2.1,3.9-3.3,5.8c-1.3,1.9-2.8,3.7-4.8,5.4c-1,0.8-2.2,1.7-3.6,2.3c-0.4,0.1-0.8,0.3-1.2,0.4
				c-0.4,0.1-0.9,0.2-1.3,0.3l-0.7,0.1l-0.5,0l-0.8,0c-2,0.1-4.2,0.2-6.5,0.1c-2.3,0-4.7-0.3-7.1-0.9c-2.4-0.6-4.8-1.6-7-3
				c-2.1-1.4-4.1-3.2-5.5-5.2c-1.5-2-2.7-4.1-3.6-6.2c-1.8-4.3-2.8-8.7-3.4-13c-0.3-2.2-0.5-4.3-0.5-6.5c-0.1-2.1-0.1-4.3,0-6.4
				c0-1.1,0.1-2.1,0.1-3.2l0.3-3.2l0.2-1.6l0.2-1.7C390.1,480.5,390.3,479.5,390.4,478.5z M391.2,478.7l1.1,6.1l0.5,3.1
				c0.2,1,0.4,2,0.5,3.1c0.2,1,0.4,2,0.6,3c0.2,1,0.4,2,0.6,3c0.4,2,0.9,4,1.5,5.9c1.1,3.9,2.5,7.6,4.2,10.8c0.9,1.6,1.9,3.1,3,4.4
				c1.1,1.3,2.4,2.3,3.7,3.2c2.7,1.7,6,2.4,9.8,2.7c1.9,0.2,3.9,0.2,6,0.2l0.8,0l0.2,0c0.1,0,0.1,0,0.1,0c0,0,0,0,0.1,0
				c0,0,0.1,0,0.2,0l0.3-0.1c0.5-0.1,1.1-0.5,1.7-0.9c1.3-0.9,2.6-2.3,3.8-3.7c1.2-1.5,2.3-3.1,3.4-4.7c2.2-3.3,4.2-6.9,5.9-10.6
				c3.4-7.4,5.8-15.6,5.4-23.7c-0.2-4-1.2-8.1-3.2-11.2c-1-1.6-2.2-2.9-3.6-3.8c-1.4-0.9-2.9-1.5-4.6-1.9c-3.7-0.8-7.4-1.1-11.1-0.8
				c-1.9,0.1-3.7,0.4-5.5,0.9c-1.8,0.4-3.7,1-5.5,1.8c-3.6,1.4-7.1,3.4-10.4,5.7c-1.7,1.1-3.3,2.3-4.9,3.6c-0.8,0.6-1.6,1.3-2.4,2
				l-1.2,1l-0.6,0.5l-0.3,0.3L391.2,478.7L391.2,478.7C391.2,478.8,391.2,478.7,391.2,478.7z"/>
		</g>
		<g>
			<path class="st0" d="M449.5,429.4c0,0,20.9-23.4,50.5-16.5c29.6,6.9,3.5,61.9-12.2,61.9S449.5,477.6,449.5,429.4z"/>
			<path class="st1" d="M449.1,429.2l0.3-0.5l0.2-0.3l0.5-0.7c0.3-0.4,0.6-0.9,1-1.3c0.7-0.8,1.4-1.7,2.2-2.5
				c1.5-1.6,3.1-3.1,4.8-4.5c3.4-2.8,7.2-5.2,11.3-7.1c4.1-1.9,8.5-3.2,13-3.9c2.3-0.4,4.6-0.5,6.8-0.5c2.3,0.1,4.6,0.3,6.8,0.8
				l1.7,0.3l1.6,0.4c1.1,0.3,2.2,0.6,3.4,1.1c2.2,0.9,4.4,2.3,6.1,4c1.7,1.7,3.1,3.8,4,6c0.9,2.2,1.4,4.4,1.6,6.6
				c0.5,4.5,0.1,8.8-0.6,13.2c-0.7,4.3-1.8,8.6-3.2,12.7c-1.5,4.2-3.2,8.3-5.6,12.1c-1.2,1.9-2.5,3.8-4,5.6
				c-1.5,1.8-3.2,3.5-5.3,4.9c-1,0.7-2.2,1.4-3.5,2l-1,0.4l-1.1,0.3c-0.4,0.1-0.8,0.2-1.2,0.2c-0.4,0-0.9,0.1-1.2,0.1
				c-2.1,0.1-4.2,0.2-6.4,0.2c-4.4,0.1-9.2-0.2-13.9-1.8c-4.7-1.6-9.1-4.7-12-8.7c-3-3.9-4.7-8.5-5.7-12.9c-0.3-1.1-0.5-2.2-0.7-3.3
				l-0.4-3.3l-0.3-3.3l-0.1-3.3c0-2.2,0.1-4.4,0.2-6.5c0.1-1.1,0.2-2.1,0.3-3.3C448.8,431.4,449,430.3,449.1,429.2z M449.9,429.5
				l1.1,6.2c0.3,2.1,0.8,4.2,1.2,6.2l0.7,3l0.8,3l0.9,2.9c0.4,0.9,0.6,1.9,1,2.8c0.4,0.9,0.7,1.9,1.2,2.7l0.6,1.3l0.7,1.3
				c0.9,1.7,2,3.2,3.2,4.5c2.4,2.7,5.3,4.5,8.7,5.5c3.4,1.1,7.2,1.4,11.3,1.6c2,0.1,4.1,0.1,6.3,0.2c0.2,0,0.3,0,0.4,0l0.4,0
				c0.1,0,0.3-0.1,0.4-0.1l0.5-0.1c0.7-0.2,1.4-0.6,2.1-1c1.5-0.9,2.9-2.1,4.3-3.5c1.4-1.4,2.7-2.9,4-4.4c2.5-3.1,4.9-6.5,6.8-10.2
				c2-3.6,3.6-7.5,4.6-11.5c1-4,1.4-8.2,0.7-12.2c-0.7-4-2.8-7.6-5.9-9.6c-1.5-1-3.2-1.7-5-2c-0.9-0.2-1.8-0.3-2.8-0.4l-1.5-0.2
				c-0.5,0-1-0.1-1.5-0.1c-4-0.3-7.9-0.3-11.8,0.2c-3.9,0.4-7.8,1.3-11.6,2.6c-3.8,1.3-7.6,2.9-11.2,4.9c-1.8,1-3.7,2-5.4,3.1
				c-0.9,0.6-1.8,1.1-2.7,1.7l-1.3,0.9l-0.7,0.5l-0.3,0.2L449.9,429.5L449.9,429.5C449.9,429.6,449.9,429.5,449.9,429.5z"/>
		</g>
		<g>
			<path class="st0" d="M521.3,447.7c0,0,25.6-22,50.4-7.4c24.8,14.6-14.7,71.6-28.9,68C528.6,504.8,507.4,502.8,521.3,447.7z"/>
			<path class="st1" d="M520.9,447.5l0.7-0.8l0.6-0.6c0.4-0.4,0.8-0.8,1.2-1.2c0.8-0.8,1.7-1.6,2.6-2.3c1.8-1.4,3.7-2.8,5.7-4
				c4-2.4,8.4-4.3,13.1-5.5c2.3-0.6,4.8-1,7.2-1.1c1.2-0.1,2.5-0.1,3.7-0.1c1.2,0.1,2.5,0.1,3.7,0.3c4.9,0.6,9.7,2.5,13.8,5.1
				c2.2,1.4,4.2,3.4,5.6,5.7c1.4,2.3,2.2,4.9,2.5,7.3c0.6,5-0.3,9.7-1.5,14.2c-1.2,4.5-2.8,8.8-4.6,13c-1.8,4.2-3.8,8.3-6.1,12.4
				c-2.3,4-4.8,7.9-7.9,11.5c-1.5,1.8-3.2,3.5-5,5.2c-1.9,1.6-3.9,3.1-6.3,4.3c-1.3,0.6-2.6,1.1-4.3,1.4c-0.4,0-0.9,0.1-1.3,0.1
				c-0.5,0-0.9,0-1.4-0.1l-0.7-0.1l-0.5-0.1l-0.8-0.2c-2.2-0.5-4.5-0.9-6.8-1.6c-2.4-0.6-4.8-1.5-7.1-2.7c-2.3-1.2-4.6-2.9-6.4-4.9
				c-1.8-2-3.4-4.3-4.4-6.8c-1-2.4-1.7-4.9-2.1-7.4c-0.8-4.9-0.7-9.7-0.2-14.4c0.2-2.3,0.6-4.6,1.1-6.9c0.4-2.3,1-4.5,1.6-6.7
				c0.3-1.1,0.6-2.2,1-3.3l1.1-3.3l0.6-1.6l0.6-1.7C520.1,449.6,520.5,448.5,520.9,447.5z M521.6,447.9l-0.6,6.7l-0.3,3.4
				c-0.1,1.1-0.2,2.2-0.3,3.3c-0.1,1.1-0.1,2.2-0.2,3.3c-0.1,1.1-0.1,2.2-0.2,3.3c-0.1,2.2-0.1,4.4-0.1,6.6
				c0.1,4.3,0.5,8.6,1.5,12.5c0.5,1.9,1.2,3.8,2,5.5c0.9,1.7,1.9,3.1,3.1,4.4c2.4,2.6,5.8,4.2,9.7,5.5c2,0.7,4.1,1.2,6.3,1.8
				l1.3,0.4c0.1,0,0.2,0,0.3,0.1l0.4,0c0.6,0,1.3-0.2,2.1-0.5c1.6-0.7,3.3-1.7,5-3c1.6-1.2,3.3-2.6,4.8-4.1c3.1-2.9,6.2-6.1,8.9-9.6
				c5.5-6.9,10.1-14.8,11.9-23.5c0.9-4.3,0.9-8.8-0.3-12.6c-0.6-1.9-1.6-3.6-2.8-5c-0.6-0.7-1.3-1.3-2-1.8c-0.7-0.6-1.5-1-2.3-1.4
				c-3.7-1.8-7.5-3.2-11.5-3.9c-2-0.3-4-0.5-6.1-0.5c-2.1,0-4.1,0.1-6.2,0.4c-4.2,0.6-8.3,1.7-12.4,3.2c-2,0.8-4.1,1.6-6.1,2.5
				c-1,0.5-2,0.9-3,1.5l-1.5,0.8l-0.7,0.4l-0.4,0.2l-0.2,0.1L521.6,447.9C521.6,448,521.6,447.9,521.6,447.9z"/>
		</g>
		<g>
			<path class="st0" d="M575.1,473c0,0,25.6-22,50.4-7.4c24.8,14.6-14.7,71.6-28.9,68C582.5,530.1,561.2,528.1,575.1,473z"/>
			<path class="st1" d="M574.8,472.8l0.7-0.8l0.6-0.6c0.4-0.4,0.8-0.8,1.2-1.2c0.8-0.8,1.7-1.6,2.6-2.3c1.8-1.4,3.7-2.8,5.7-4
				c4-2.4,8.4-4.3,13.1-5.5c2.3-0.6,4.8-1,7.2-1.1c1.2-0.1,2.5-0.1,3.7-0.1c1.2,0.1,2.5,0.1,3.7,0.3c4.9,0.6,9.7,2.5,13.8,5.1
				c2.2,1.4,4.2,3.4,5.6,5.7c1.4,2.3,2.2,4.9,2.5,7.3c0.6,5-0.3,9.7-1.5,14.2c-1.2,4.5-2.8,8.8-4.6,13c-1.8,4.2-3.8,8.3-6.1,12.4
				c-2.3,4-4.8,7.9-7.9,11.5c-1.5,1.8-3.2,3.5-5,5.2c-1.9,1.6-3.9,3.1-6.3,4.3c-1.3,0.6-2.6,1.1-4.3,1.4c-0.4,0-0.9,0.1-1.3,0.1
				c-0.5,0-0.9,0-1.4-0.1l-0.7-0.1l-0.5-0.1l-0.8-0.2c-2.2-0.5-4.5-0.9-6.8-1.6c-2.4-0.6-4.8-1.5-7.1-2.7c-2.3-1.2-4.6-2.9-6.4-4.9
				c-1.8-2-3.4-4.3-4.4-6.8c-1-2.4-1.7-4.9-2.1-7.4c-0.8-4.9-0.7-9.7-0.2-14.4c0.2-2.3,0.6-4.6,1.1-6.9c0.4-2.3,1-4.5,1.6-6.7
				c0.3-1.1,0.6-2.2,1-3.3l1.1-3.3l0.6-1.6l0.6-1.7C573.9,474.9,574.4,473.8,574.8,472.8z M575.5,473.2l-0.6,6.7l-0.3,3.4
				c-0.1,1.1-0.2,2.2-0.3,3.3c-0.1,1.1-0.1,2.2-0.2,3.3c-0.1,1.1-0.1,2.2-0.2,3.3c-0.1,2.2-0.1,4.4-0.1,6.6
				c0.1,4.3,0.5,8.6,1.5,12.5c0.5,1.9,1.2,3.8,2,5.5c0.9,1.7,1.9,3.1,3.1,4.4c2.4,2.6,5.8,4.2,9.7,5.5c2,0.7,4.1,1.2,6.3,1.8
				l1.3,0.4c0.1,0,0.2,0,0.3,0.1l0.4,0c0.6,0,1.3-0.2,2.1-0.5c1.6-0.7,3.3-1.7,5-3c1.6-1.2,3.3-2.6,4.8-4.1c3.1-2.9,6.2-6.1,8.9-9.6
				c5.5-6.9,10.1-14.8,11.9-23.5c0.9-4.3,0.9-8.8-0.3-12.6c-0.6-1.9-1.6-3.6-2.8-5c-0.6-0.7-1.3-1.3-2-1.8c-0.7-0.6-1.5-1-2.3-1.4
				c-3.7-1.8-7.5-3.2-11.5-3.9c-2-0.3-4-0.5-6.1-0.5c-2.1,0-4.1,0.1-6.2,0.4c-4.2,0.6-8.3,1.7-12.4,3.2c-2,0.8-4.1,1.6-6.1,2.5
				c-1,0.5-2,0.9-3,1.5l-1.5,0.8l-0.7,0.4l-0.4,0.2l-0.2,0.1L575.5,473.2C575.5,473.3,575.5,473.2,575.5,473.2z"/>
		</g>
		<path class="st3" d="M403.7,499.2c0,0,17.8-14,25.8-4.6C437.5,503.9,403.7,531.4,403.7,499.2z"/>
		<path class="st3" d="M464.8,438.6c0,0,21.3-9.9,34.1-2.8c0,0-4.3,18.5-17,17C469.1,451.4,459.1,448.5,464.8,438.6z"/>
		<path class="st3" d="M530.2,468.7c0,0,17-4.6,29.8,3.2c13.4,8.1-14,23.8-21.9,19.4C530.2,486.9,527.3,490.4,530.2,468.7z"/>
		<path class="st1" d="M592.2,475.1c0,0-4.6,41.8,17.1,39.6c0,0-13.8,19.1-22.3,3.5c-8.5-15.6-4.3-34.1-4.3-34.1
			S583.2,477.4,592.2,475.1z"/>
		<path class="st3" d="M587,498.2c0,0,19.5-5,26.8,5.3c7.3,10.3-22.5,28.8-26.8,11.7C582.7,498.2,587,498.2,587,498.2z"/>
	</g>
	<g>
		<path class="st0" d="M308.5,660.9c0,0-95.3,231.3-38.9,247.1c76.6,21.5,135.6,81.9,99.4,162.5c0,0-26.9,49.7-34.9,60.4
			c-8.1,10.7-208.2,2.7-217.6-12.1l17.5-48.4c0,0-102.1-17.5-141-12.1c0,0-110.1,52.4-151.8,76.6l-212.2-1.3
			c0,0,74.7-131.9,110.1-188c55.1-87.3,80.6-181.3,133-318.3L308.5,660.9z"/>
		<path class="st1" d="M308.8,660.6c0,0.2-0.1,0.7-0.1,0.8l-0.2,0.4l-0.3,0.9l-0.7,1.8l-1.3,3.5l-2.7,7.1c-1.8,4.7-3.5,9.4-5.2,14.2
			c-3.4,9.5-6.7,19-10,28.5c-6.4,19.1-12.4,38.3-17.7,57.6c-5.3,19.4-10,38.9-13.2,58.6c-1.6,9.9-2.7,19.8-3,29.7
			c-0.1,4.9-0.1,9.9,0.4,14.7c0.5,4.8,1.4,9.6,3.1,14c1.6,4.4,4.2,8.2,7.8,10.6c0.9,0.6,1.8,1.1,2.8,1.5c0.5,0.2,1,0.4,1.5,0.5
			c0.2,0.1,0.5,0.2,0.9,0.3l0.9,0.3c2.5,0.7,4.9,1.4,7.3,2.2c9.7,3.1,19.2,6.9,28.4,11.4c9.2,4.5,18.1,9.7,26.4,15.7
			c8.3,6,16.1,12.9,23,20.6c6.9,7.7,12.8,16.4,17.3,25.8c4.5,9.4,7.5,19.6,8.8,30c1.3,10.4,0.9,21-1,31.2
			c-1.9,10.3-5.1,20.2-9.3,29.6c0,0.1-0.1,0.2-0.1,0.2l0,0c-5.8,10.7-11.6,21.3-17.5,31.8c-3,5.3-6,10.5-9.1,15.8
			c-1.5,2.6-3.1,5.2-4.8,7.8l-1.3,2l-0.6,1l-0.7,1l-0.7,1l-0.3,0.5l-0.1,0.1l-0.3,0.3c-0.2,0.2-0.4,0.5-0.6,0.6
			c-0.2,0.1-0.3,0.3-0.5,0.4l-0.5,0.3c-0.3,0.2-0.6,0.3-0.9,0.5c-0.5,0.3-1,0.5-1.5,0.6c-1.8,0.7-3.4,1-5,1.3
			c-1.6,0.3-3.2,0.5-4.7,0.7c-3.1,0.4-6.2,0.7-9.3,0.9c-6.1,0.4-12.2,0.7-18.3,0.8c-12.2,0.3-24.3,0.2-36.4,0
			c-24.3-0.5-48.5-1.7-72.7-3.7c-12.1-1-24.2-2.2-36.3-3.9c-6-0.9-12.1-1.8-18.2-3.1c-3-0.6-6.1-1.4-9.2-2.3c-1.5-0.5-3.1-1-4.7-1.8
			c-0.8-0.4-1.6-0.8-2.5-1.4c-0.9-0.6-1.9-1.3-2.9-2.8c-0.7-1.1-0.8-2.3-0.4-3.5l0-0.1l17.6-48.3l3,5.2c-11.6-2-23.3-3.8-34.9-5.4
			c-11.7-1.6-23.4-3.2-35.1-4.4c-11.7-1.3-23.4-2.4-35.1-3c-5.9-0.3-11.7-0.5-17.5-0.5c-5.8,0-11.6,0.2-17.2,0.9l1-0.3
			c-12.8,6-25.6,12.1-38.3,18.3c-12.8,6.1-25.5,12.3-38.2,18.5c-12.7,6.2-25.4,12.5-38,18.9c-12.6,6.4-25.2,12.9-37.5,19.8l0,0
			c-0.4,0.2-0.8,0.3-1.2,0.3L-265,1136l-53-0.6l-53-0.5h0c-0.7,0-1.3-0.6-1.2-1.3c0-0.2,0.1-0.4,0.2-0.6
			c23.3-40.8,46.7-81.5,70.3-122.1c5.9-10.2,11.8-20.3,17.8-30.4c6-10.1,12-20.2,18.1-30.2c3.1-5,6.1-10,9.1-15l4.4-7.6l4.3-7.6
			c5.7-10.2,11-20.6,16.1-31.2c20.4-42.2,36.4-86.3,52.4-130.4l11.8-33.2l11.9-33.1c4-11,8-22.1,12.1-33.1c4.1-11,8.3-22,12.5-33
			l0,0c0.6-1.5,2-2.4,3.6-2.3c36.6,2.9,73.2,5.8,109.8,8.8l54.8,4.5l54.7,4.7L308.8,660.6z M308.1,661.1L88.9,646.3l-54.4-3.7
			l-54.3-3.8c-36.2-2.5-72.3-5.3-108.4-8l3.6-2.3c-4.2,11-8.3,21.9-12.3,33c-4.1,11-8.1,22-12.2,33l-12,33.1l-12.1,33.1
			c-16.3,44.1-33.2,88.1-54.4,130.2c-5.3,10.5-10.8,20.9-16.7,31.1l-4.5,7.6l-4.6,7.6c-3.1,5-6.3,10-9.4,14.9
			c-12.6,19.8-24.6,39.9-36.6,60.1c-23.9,40.4-47.4,81.1-70.5,122l-1.1-1.9l53.1,0.2l53.1,0.1l106.1,0l-1.2,0.3
			c12.3-7.2,24.8-13.9,37.4-20.5c12.6-6.6,25.2-13.1,37.8-19.5c12.7-6.4,25.3-12.7,38-19c12.7-6.3,25.5-12.5,38.2-18.6
			c0.3-0.2,0.7-0.3,1-0.3l0,0c6.1-0.8,12.2-1.1,18.2-1.1c6-0.1,12,0.2,17.9,0.4c11.9,0.6,23.7,1.6,35.6,2.9
			c11.8,1.2,23.6,2.7,35.3,4.3c11.8,1.6,23.5,3.3,35.2,5.3c2.1,0.3,3.5,2.3,3.2,4.5c0,0.2-0.1,0.4-0.2,0.7l0,0.1l-17.3,48.4
			l-0.4-3.6c-0.2-0.2,0.1,0.1,0.4,0.3c0.4,0.2,0.9,0.5,1.5,0.8c1.1,0.5,2.4,1,3.8,1.4c2.7,0.8,5.5,1.5,8.4,2.1
			c5.8,1.2,11.7,2.1,17.6,2.9c11.9,1.6,23.8,2.7,35.8,3.7c24,1.9,48.1,3.1,72.2,3.6c12,0.2,24.1,0.3,36.1,0.1c6-0.1,12-0.3,17.9-0.7
			c3-0.2,5.9-0.5,8.8-0.8c1.4-0.2,2.9-0.4,4.2-0.6c1.4-0.2,2.7-0.6,3.7-0.9c0.2-0.1,0.5-0.2,0.6-0.2c0,0,0.1-0.1,0.1-0.1
			c0,0,0,0,0,0c0,0-0.1,0-0.1,0.1c0,0-0.1,0.1-0.2,0.2c0,0-0.1,0.1-0.1,0.1l0.1-0.1l0.3-0.4l0.6-0.9l0.6-0.9l0.6-0.9l1.2-1.8
			c1.6-2.5,3.1-5,4.7-7.6c3.1-5.1,6.1-10.4,9.1-15.6c6-10.5,11.8-21,17.6-31.6l-0.1,0.3c4-8.9,7.2-18.2,9-27.8
			c1.8-9.5,2.3-19.3,1.2-28.9c-1.1-9.6-3.8-19-7.9-27.8c-2.1-4.4-4.4-8.6-7.1-12.7c-2.7-4.1-5.7-7.9-8.9-11.6
			c-6.4-7.4-13.7-14-21.6-19.9c-7.9-5.9-16.4-11-25.2-15.5c-8.8-4.4-18-8.2-27.5-11.3c-2.4-0.8-4.7-1.5-7.1-2.2l-0.9-0.3l-1-0.3
			c-0.7-0.2-1.4-0.5-2-0.7c-1.3-0.6-2.6-1.2-3.8-2.1c-2.4-1.6-4.4-3.8-6-6.1c-1.6-2.3-2.8-4.8-3.7-7.3c-1.9-5.1-2.7-10.3-3.2-15.4
			c-0.4-5.2-0.5-10.3-0.2-15.4c0.5-10.2,1.8-20.3,3.6-30.3c3.6-19.9,8.7-39.5,14.3-58.9c5.8-19.3,12.2-38.4,19-57.4
			c3.4-9.5,7-18.9,10.6-28.3c1.8-4.7,3.7-9.4,5.6-14l2.9-7l1.4-3.5l0.7-1.7l0.4-0.9l0.2-0.4C308,661,308,661.1,308.1,661.1z"/>
	</g>
	<path class="st1" d="M-111,770.9c5.6,2.6,26,24.2-10.3,5.4c0,0-49.7,63.1-78.5,47.6l28.1-74.4l58.8,20.6
		C-112.2,770.4-111.6,770.6-111,770.9z"/>
	<path class="st1" d="M-154.7,667.3c0,0,53.6,82.2,163.7,102.3c0,0,12.9,48.1,68.9,43.3c26.2-2.3,49.2,1.8,66.7-17.8
		c0,0,128.9,0,144.1-89.2L-154.7,667.3z"/>
	
		<linearGradient id="SVGID_2_" gradientUnits="userSpaceOnUse" x1="4185.5415" y1="1000.4646" x2="4567.6416" y2="1000.4646" gradientTransform="matrix(-1 0 0 1 4385.4565 0)">
		<stop  offset="0" style="stop-color:#2AD8FF"/>
		<stop  offset="0.9948" style="stop-color:#FC1E79"/>
	</linearGradient>
	<path class="st4" d="M368.9,1070.5c0,0-26.9,49.7-34.9,60.4c-8.1,10.7-208.2,2.7-217.6-12.1l17.5-48.4c0,0-102.1-17.5-141-12.1
		c0,0-110.1,52.4-151.8,76.6l-212.2-1.3c0,0,80.1-131.9,115.5-188c10.1-16,19.2-32.3,27.7-49c159.5,52.5,359.4,5.9,479.7-31.5
		c-0.6,22.7,4.1,39.1,17.8,42.9C346.1,929.5,405.2,989.9,368.9,1070.5z"/>
	<path class="st1" d="M-159.1,987.8c0,0,98.2,53.1,84.8,71.9s-161.2-38.9-185.3-20.5l167.9,60.4l81.9-39.9
		C-9.8,1059.7-112.2,969.6-159.1,987.8z"/>
	<path class="st1" d="M252,1008c0,0-52.3-7.3-104,24.2c-14.4,8.8-40.3,0-40.3,0l65.9-62.6L29,1057.9l104.9,12.6L252,1008z"/>
	<g>
		<path class="st0" d="M200.5,1115.4l-82-0.1c-0.8,0-1.6-0.4-2.1-1.1s-0.6-1.5-0.3-2.3l16.1-43c0.2-0.5,0.5-0.9,1-1.2
			c3.3-2.1,6.7-4.3,10.2-6.5c20.8-13,45.4-26.3,73-39.6c72.1-34.7,142.5-58.2,143.2-58.4c0.3-0.1,0.5-0.1,0.8-0.1c0.8,0,1.5,0.4,2,1
			c29.2,39.3,23.4,78.3,13.4,104c-10.8,27.7-28.2,45.9-28.9,46.7c-0.5,0.5-1.1,0.8-1.8,0.8C345.2,1115.5,200.5,1115.4,200.5,1115.4z
			"/>
		<path class="st1" d="M360.4,965.6c55.3,74.4-15.3,147.5-15.3,147.5l-144.7-0.1l-58.9-0.1l-23.1,0l16.1-43
			c3.3-2.2,6.7-4.4,10.2-6.5c22.8-14.2,47.9-27.5,72.8-39.4C290.3,988.9,360.4,965.6,360.4,965.6 M360.4,960.6
			c-0.5,0-1.1,0.1-1.6,0.3c-0.7,0.2-71.2,23.8-143.5,58.6c-27.7,13.3-52.3,26.7-73.2,39.7c-3.5,2.2-7,4.4-10.3,6.6
			c-0.9,0.6-1.6,1.4-1.9,2.4l-16.1,43c-0.6,1.5-0.4,3.3,0.6,4.6c0.9,1.3,2.5,2.2,4.1,2.2l23.1,0l58.9,0.1l144.7,0.1c0,0,0,0,0,0
			c1.4,0,2.7-0.6,3.6-1.5c0.7-0.8,18.5-19.3,29.4-47.5c6.5-16.7,9.2-33.3,8.2-49.4c-1.3-20.1-8.7-39.3-21.9-57.1
			C363.5,961.3,362,960.6,360.4,960.6L360.4,960.6z"/>
	</g>
	
		<linearGradient id="SVGID_3_" gradientUnits="userSpaceOnUse" x1="4185.5415" y1="1075.3848" x2="4567.6416" y2="1075.3848" gradientTransform="matrix(-1 0 0 1 4385.4565 0)">
		<stop  offset="0" style="stop-color:#2AD8FF"/>
		<stop  offset="0.9948" style="stop-color:#FC1E79"/>
	</linearGradient>
	<path class="st5" d="M140.6,1126.9l59.7-13.3l0.1-0.8l17-89c-24.8,11.9-50,25.2-72.8,39.4l-3.2,49.5L140.6,1126.9z"/>
	<g>
		<path class="st1" d="M223.6,1018.7c-3.3,11-6.6,22.1-9.7,33.1c-1.6,5.5-3.1,11.1-4.6,16.6c-1.5,5.6-2.9,11.1-4.2,16.7
			c0.8-5.7,1.9-11.4,3-17c1.1-5.7,2.2-11.3,3.4-17c2.3-11.3,4.8-22.5,7.3-33.8c0.3-1.3,1.6-2.2,3-1.9c1.3,0.3,2.2,1.6,1.9,3
			C223.6,1018.6,223.6,1018.7,223.6,1018.7L223.6,1018.7z"/>
	</g>
	<polygon class="st1" points="167.5,1046.3 140.6,1063.8 128.4,1108.3 161.3,1101.2 	"/>
	<path class="st1" d="M163.4,1051.7l-5.2,56.6h9.2c0,0-2.7-37.8,6.4-49c9.1-11.2,7,42.1,7,42.1h20.5c-7.7-13.4,10.4-77.9,10.4-77.9
		S172.8,1039.6,163.4,1051.7z"/>
	<path class="st6" d="M371.6,986.8c0,0-107.8,31.2-239.6,97.4l-1.7,4.2c0,0,91.6-33.4,207.1-76.3c0,0,18.1,50.4-26.2,95.1l16.8,19
		c0,0,52.4-61.8,36.3-122.2l11.7-4.7L371.6,986.8z"/>
	<path class="st3" d="M370.3,982.7c0,0-107.8,31.2-239.6,97.4l-1.7,4.2c0,0,91.6-33.4,207.1-76.3c0,0,18.1,50.4-26.2,95.1l16.8,19
		c0,0,52.4-61.8,36.3-122.2l13.1-4.7L370.3,982.7z"/>
	<g>
		<path class="st0" d="M-160.4,1149.5l-210.9-10.7c-0.9,0-1.7-0.5-2.1-1.3c-0.4-0.8-0.4-1.7,0.1-2.5l61.1-102.7
			c0.5-0.8,1.3-1.2,2.1-1.2c0.1,0,0.1,0,0.2,0c30.5,2.4,63.5,7.8,97.9,16c25.2,6,51.2,13.5,77.1,22.3c34.4,11.7,56.6,21.5,56.8,21.6
			c0.8,0.4,1.4,1.2,1.5,2.1c0.1,0.9-0.4,1.8-1.1,2.3l-81.2,53.7c-0.4,0.3-0.9,0.4-1.4,0.4C-160.3,1149.5-160.3,1149.5-160.4,1149.5z
			"/>
		<path class="st1" d="M-310,1033.6c33.8,2.7,67.2,8.7,97.6,16c29,6.9,55.4,15,76.8,22.3c34.7,11.8,56.6,21.6,56.6,21.6l-81.2,53.7
			l-210.9-10.7L-310,1033.6 M-310,1028.6c-1.8,0-3.4,0.9-4.3,2.4l-61.1,102.7c-0.9,1.5-0.9,3.4-0.1,4.9c0.8,1.5,2.4,2.5,4.2,2.6
			l210.9,10.7c0.1,0,0.2,0,0.3,0c1,0,1.9-0.3,2.8-0.8l81.2-53.7c1.5-1,2.4-2.8,2.2-4.6c-0.1-1.8-1.3-3.4-2.9-4.2
			c-0.2-0.1-22.5-10-57-21.7c-26-8.8-52-16.3-77.3-22.4c-34.6-8.2-67.7-13.7-98.3-16.1C-309.7,1028.6-309.9,1028.6-310,1028.6
			L-310,1028.6z"/>
	</g>
	
		<linearGradient id="SVGID_4_" gradientUnits="userSpaceOnUse" x1="4185.5415" y1="1091.797" x2="4567.6416" y2="1091.797" gradientTransform="matrix(-1 0 0 1 4385.4565 0)">
		<stop  offset="0" style="stop-color:#2AD8FF"/>
		<stop  offset="0.9948" style="stop-color:#FC1E79"/>
	</linearGradient>
	<path class="st7" d="M-277.1,1129.7l61.8,4.3l79.7-62.3c-21.5-7.3-47.8-15.3-76.8-22.3L-277.1,1129.7z"/>
	<polygon class="st1" points="-259.6,1039.3 -312,1126.9 -258.9,1129.4 -201.2,1048.1 	"/>
	<g>
		<path class="st1" d="M-150.5,1068.3l-58.1,51.9l54.6-55.5c1-1,2.6-1,3.5,0c1,1,1,2.6,0,3.5
			C-150.4,1068.2-150.5,1068.3-150.5,1068.3z"/>
	</g>
	<path class="st1" d="M-142.5,1067.8l-72.8,66.3l15.5,1.8c0,0,58.4-56,58-40.4l-47.9,43.6l20.1,4.5l79.2-56.9L-142.5,1067.8z"/>
	<path class="st6" d="M-109.9,1112c0,0-90-47.6-209.9-53.3l-12.9,14.6l23.4-0.1l-33,55l30.3,4.1c0,0,17.5-41.6,32.2-52.4
		s162,37.2,162,37.2L-109.9,1112z"/>
	<path class="st3" d="M-104.5,1110.7c0,0-95.3-51.6-215.3-57.4l-12.9,14.6l23.4-0.1l-33,55l30.3,4.1c0,0,17.5-41.6,32.2-52.4
		s166,41.2,166,41.2L-104.5,1110.7z"/>
	<g>
		<path class="st0" d="M-131.5,540.2c0,0-73.6,7.9-150.8,76.4s-77.6,145.4-31,147.3s128.7,9.6,128.7,9.6s84.8-9.1,87.5,11"/>
		<path class="st1" d="M-131.5,540.2c-5,0.8-9.9,2-14.8,3.3c-4.9,1.3-9.7,2.8-14.5,4.4c-4.8,1.6-9.5,3.3-14.2,5.2
			c-4.7,1.8-9.3,3.8-13.9,5.8c-9.2,4.2-18.1,8.7-26.9,13.6c-8.7,4.9-17.3,10.3-25.5,15.9c-8.3,5.7-16.3,11.6-24.1,18
			c-3.9,3.2-7.7,6.4-11.4,9.8c-3.8,3.3-7.4,6.7-11,10.1c-14.3,13.9-27,29.5-36.8,46.6c-4.9,8.6-9.1,17.6-12,26.9
			c-2.9,9.3-4.7,19-4.3,28.4c0.2,4.7,1,9.4,2.6,13.6c1.6,4.3,3.9,8.1,7.1,11.1c3.2,3,7.2,5,11.5,6.1c2.2,0.5,4.4,0.8,6.7,0.9
			l7.6,0.4c40.5,2.3,80.7,6.2,121,10.4l-0.5,0c7.7-0.6,15.4-1,23.1-1.2c7.7-0.2,15.4-0.1,23.1,0.3c7.7,0.4,15.4,1.1,23,2.7
			c3.8,0.8,7.6,1.8,11.1,3.6c1.7,0.9,3.4,1.9,4.8,3.3c1.4,1.4,2.4,3.2,2.6,5.1c-0.3-1.9-1.5-3.5-2.9-4.7c-1.5-1.2-3.2-2.1-4.9-2.7
			c-3.5-1.3-7.3-2.1-11-2.7c-3.8-0.5-7.6-0.8-11.4-1c-3.8-0.2-7.6-0.3-11.4-0.2c-7.6,0-15.2,0.4-22.9,0.9
			c-7.6,0.5-15.2,1.2-22.8,2.2c-0.2,0-0.3,0-0.5,0l-0.1,0c-20.1-1.6-40.3-3-60.4-4.4c-20.1-1.4-40.3-2.7-60.4-3.6l-7.5-0.3
			c-2.7-0.1-5.5-0.4-8.3-1.1c-5.5-1.3-10.8-4-15-7.9c-4.2-3.9-7.3-8.9-9.2-14.1c-1.9-5.2-2.9-10.7-3.1-16
			c-0.4-10.8,1.6-21.3,4.8-31.2c3.2-9.9,7.6-19.4,12.8-28.3c10.4-17.9,23.9-33.7,38.7-47.7c15-14,31.2-26.4,48.3-37.5
			c17.2-11,35.3-20.5,54.2-28c9.4-3.8,19.1-7.1,28.9-9.7c4.9-1.3,9.8-2.6,14.8-3.6C-141.5,541.5-136.5,540.6-131.5,540.2z"/>
	</g>
	<path class="st1" d="M-92.5,787.4c-16.2-20.1-40.9-48.9-52.9-54v16.1c0,0-49.7-6.7-59.1,2.7l-4,17.5c0,0,51.3-16.4,111.6,22.7
		C-93.8,794.4-90.1,790.4-92.5,787.4z"/>
	
		<linearGradient id="SVGID_5_" gradientUnits="userSpaceOnUse" x1="4185.5415" y1="719.4934" x2="4567.6416" y2="719.4934" gradientTransform="matrix(-1 0 0 1 4385.4565 0)">
		<stop  offset="0" style="stop-color:#2AD8FF"/>
		<stop  offset="0.9948" style="stop-color:#FC1E79"/>
	</linearGradient>
	<path class="st8" d="M-186.4,770.3c0,0-12.8-143-132.6-124.1c0,0-62.1,35.5-46,104C-365.1,750.2-276.4,834.8-186.4,770.3z"/>
	<g>
		<path class="st0" d="M86,746.2c-51.9,0-102.3-7.4-145.8-21.4c-13.4-4.3-26.2-9.3-38-14.7c-27.7-12.8-49.6-28.1-65-45.5
			c-16.3-18.3-24.5-37.9-24.5-58.2c0-4.9,0.5-9.8,1.5-14.6c3.1-15.6-0.8-32.4-10.7-46.1c-39.8-54.6-60.8-118.7-60.8-185.4
			c0-87.2,35.7-169.1,100.7-230.8C-91.9,68-5.7,34.1,86,34.1c91.7,0,177.9,33.9,242.8,95.5c64.9,61.6,100.7,143.6,100.7,230.8
			c0,66.6-21,130.7-60.8,185.4c-9.9,13.7-13.9,30.5-10.7,46.1c1,4.8,1.4,9.7,1.4,14.6c0,29.8-17.8,58.2-51.6,82
			c-8.8,6.2-18.8,12.2-29.5,17.6C226.8,731.9,158.5,746.2,86,746.2z"/>
		<path class="st1" d="M86,38.1c187.5,0,339.4,144.3,339.4,322.3c0,68-22.2,131-60,183c-10.3,14.2-14.9,32-11.4,49.2
			c0.9,4.5,1.4,9.1,1.4,13.8c0,29.4-18.5,56.5-49.9,78.8c-8.7,6.2-18.4,12-29,17.3C227.7,727,160.4,742.2,86,742.2
			c-53.2,0-102.8-7.8-144.6-21.2c-13.4-4.3-25.9-9.2-37.5-14.5c-53.6-24.8-87.2-60.5-87.2-100.1c0-4.7,0.5-9.3,1.4-13.8
			c3.5-17.2-1.1-35-11.4-49.2c-37.8-52-60-115-60-183C-253.4,182.3-101.5,38.1,86,38.1 M86,30.1C39.2,30.1-6.3,38.8-49.1,56
			c-41.4,16.6-78.5,40.4-110.4,70.7c-31.9,30.3-57,65.6-74.5,105c-18.2,40.8-27.4,84.1-27.4,128.7c0,67.5,21.3,132.4,61.6,187.7
			c9.3,12.8,13,28.4,10.1,42.9c-1,5.1-1.5,10.3-1.5,15.4c0,21.4,8.6,41.9,25.5,60.9c15.8,17.7,38.1,33.4,66.3,46.4
			c11.9,5.5,24.9,10.5,38.5,14.9c43.9,14.1,94.8,21.6,147,21.6c73.1,0,142-14.4,194-40.6c11-5.5,21.1-11.6,30.1-17.9
			c34.8-24.6,53.2-54.1,53.2-85.3c0-5.2-0.5-10.3-1.5-15.4c-2.9-14.5,0.7-30.2,10-42.9c40.3-55.3,61.6-120.2,61.6-187.7
			c0-44.6-9.2-87.9-27.4-128.7c-17.5-39.3-42.6-74.7-74.5-105C299.6,96.3,262.5,72.6,221.1,56C178.3,38.8,132.9,30.1,86,30.1
			L86,30.1z"/>
	</g>
	
		<linearGradient id="SVGID_6_" gradientUnits="userSpaceOnUse" x1="4185.5415" y1="399.0332" x2="4567.6416" y2="399.0332" gradientTransform="matrix(-1 0 0 1 4385.4565 0)">
		<stop  offset="5.181347e-03" style="stop-color:#FC1E79"/>
		<stop  offset="1" style="stop-color:#2AD8FF"/>
	</linearGradient>
	<path class="st9" d="M-182.5,548.6c10,13.8,14.5,31.2,11.1,48c-0.9,4.4-1.3,8.9-1.3,13.5c0,38.7,32.6,73.5,84.7,97.7
		c11.3,5.2,23.5,10,36.5,14.2c40.6,13.1,88.8,20.7,140.5,20.7c72.2,0,137.6-14.8,185-38.8c10.3-5.2,19.7-10.9,28.2-16.9
		c30.5-21.7,48.4-48.2,48.4-76.9c0-4.6-0.4-9-1.3-13.5c-3.4-16.8,1.1-34.2,11.1-48c36.8-50.8,58.3-112.3,58.3-178.7
		C418.6,196.2,271,55.3,88.9,55.3c-182.1,0-329.7,140.9-329.7,314.6C-240.8,436.3-219.3,497.9-182.5,548.6z"/>
	<g>
		<path class="st1" d="M226.3,561c0.3,0.2,0.7,0.5,1.1,0.8c0.4,0.3,0.8,0.6,1.2,0.8c0.8,0.6,1.7,1.1,2.5,1.6c0.8,0.6,1.7,1,2.6,1.6
			c0.9,0.5,1.8,1,2.7,1.5l2.7,1.4l2.8,1.3c1.9,0.9,3.8,1.7,5.7,2.5c7.7,3.1,15.7,5.4,23.9,7.2c4.1,0.8,8.2,1.6,12.4,2.1l3.1,0.4
			c1,0.1,2.1,0.3,3.1,0.3l6.3,0.5c1.1,0.1,2.1,0.2,3.2,0.2l3.2,0.1l6.3,0.1c4.2,0,8.5-0.3,12.7-0.4c-4.2,0.5-8.4,1-12.7,1.4
			l-6.4,0.4l-3.2,0.2c-1.1,0.1-2.1,0-3.2,0l-6.4,0c-1.1,0-2.1,0-3.2-0.1l-3.2-0.2c-4.3-0.1-8.5-0.7-12.8-1.1
			c-8.5-1.2-17-2.9-25.3-5.5c-2.1-0.7-4.1-1.3-6.2-2.1l-3.1-1.1l-3-1.3c-1-0.4-2-0.9-3-1.4c-1-0.5-2-0.9-3-1.5c-1-0.5-2-1-2.9-1.6
			c-0.5-0.3-1-0.5-1.5-0.9c-0.5-0.3-1-0.6-1.5-1l-0.1,0c-1.8-1.3-2.2-3.8-1-5.6c1.3-1.8,3.8-2.2,5.6-1
			C226.1,560.8,226.2,560.9,226.3,561z"/>
	</g>
	<g>
		<path class="st1" d="M211.5,582.5c0.3,0.2,0.7,0.5,1.1,0.8c0.4,0.3,0.8,0.6,1.2,0.8c0.8,0.6,1.7,1.1,2.5,1.6
			c0.8,0.6,1.7,1,2.6,1.6c0.9,0.5,1.8,1,2.7,1.5l2.7,1.4l2.8,1.3c1.9,0.9,3.8,1.7,5.7,2.5c7.7,3.1,15.7,5.4,23.9,7.2
			c4.1,0.8,8.2,1.6,12.4,2.1l3.1,0.4c1,0.1,2.1,0.3,3.1,0.3l6.3,0.5c1.1,0.1,2.1,0.2,3.2,0.2l3.2,0.1l6.3,0.1
			c4.2,0,8.5-0.3,12.7-0.4c-4.2,0.5-8.4,1-12.7,1.4l-6.4,0.4l-3.2,0.2c-1.1,0.1-2.1,0-3.2,0l-6.4,0c-1.1,0-2.1,0-3.2-0.1l-3.2-0.2
			c-4.3-0.1-8.5-0.7-12.8-1.1c-8.5-1.2-17-2.9-25.3-5.5c-2.1-0.7-4.1-1.3-6.2-2.1l-3.1-1.1l-3-1.3c-1-0.4-2-0.9-3-1.4
			c-1-0.5-2-0.9-3-1.5c-1-0.5-2-1-2.9-1.6c-0.5-0.3-1-0.5-1.5-0.9c-0.5-0.3-1-0.6-1.5-1l-0.1,0c-1.8-1.3-2.2-3.8-1-5.6
			c1.3-1.8,3.8-2.2,5.6-1C211.3,582.3,211.4,582.4,211.5,582.5z"/>
	</g>
	<g>
		<path class="st1" d="M219.6,571.7c0.3,0.2,0.7,0.5,1.1,0.8c0.4,0.3,0.8,0.6,1.2,0.8c0.8,0.6,1.7,1.1,2.5,1.6
			c0.8,0.6,1.7,1,2.6,1.6c0.9,0.5,1.8,1,2.7,1.5l2.7,1.4l2.8,1.3c1.9,0.9,3.8,1.7,5.7,2.5c7.7,3.1,15.7,5.4,23.9,7.2
			c4.1,0.8,8.2,1.6,12.4,2.1l3.1,0.4c1,0.1,2.1,0.3,3.1,0.3l6.3,0.5c1.1,0.1,2.1,0.2,3.2,0.2l3.2,0.1l6.3,0.1
			c4.2,0,8.5-0.3,12.7-0.4c-4.2,0.5-8.4,1-12.7,1.4l-6.4,0.4l-3.2,0.2c-1.1,0.1-2.1,0-3.2,0l-6.4,0c-1.1,0-2.1,0-3.2-0.1l-3.2-0.2
			c-4.3-0.1-8.5-0.7-12.8-1.1c-8.5-1.2-17-2.9-25.3-5.5c-2.1-0.7-4.1-1.3-6.2-2.1l-3.1-1.1l-3-1.3c-1-0.4-2-0.9-3-1.4
			c-1-0.5-2-0.9-3-1.5c-1-0.5-2-1-2.9-1.6c-0.5-0.3-1-0.5-1.5-0.9c-0.5-0.3-1-0.6-1.5-1l-0.1,0c-1.8-1.3-2.2-3.8-1-5.6
			s3.8-2.2,5.6-1C219.4,571.6,219.5,571.6,219.6,571.7z"/>
	</g>
	<path class="st1" d="M161.1,547.2c0,0,105.8,15.1,109.8,26.1c0,0-57.8-6.4-34.9,44.6"/>
	<path class="st1" d="M145.5,443.9c0,0-74.8,38.3-137.9-47.7l-21.5-53.7c0,0,90,98,171.9,80.6L145.5,443.9z"/>
	<g>
		<path class="st1" d="M292,318.9c0-2.6-0.2-5.4-0.5-8.2c-0.2-2.8-0.5-5.5-0.8-8.3c-0.7-5.5-1.6-11-2.6-16.4
			c-1.1-5.5-2.4-10.9-3.9-16.2c-1.5-5.4-3.2-10.6-5.2-15.9c-3.9-10.4-8.8-20.5-15-29.9c-3-4.7-6.5-9.1-10.1-13.4
			c-3.7-4.3-7.7-8.1-12-11.8c4.5,3.4,8.8,7.1,12.7,11.1c3.9,4.1,7.7,8.3,11,12.9c6.8,9.1,12.4,19.1,17,29.5
			c2.3,5.2,4.4,10.5,6.3,15.9c1.8,5.4,3.5,10.9,4.9,16.4c1.4,5.5,2.7,11.1,3.7,16.7c0.5,2.8,1,5.6,1.4,8.5c0.4,2.9,0.8,5.6,1,8.7
			c0.2,2.2-1.5,4.1-3.7,4.3c-2.2,0.2-4.1-1.5-4.3-3.7C292,319.1,292,319,292,318.9L292,318.9z"/>
	</g>
	<g>
		<path class="st1" d="M276.5,331.6c0.2-2.6,0.3-5.4,0.4-8.1c0.1-2.7,0.1-5.5,0-8.2c-0.1-5.5-0.4-11-0.9-16.4
			c-0.5-5.5-1.2-10.9-2.1-16.3c-0.9-5.4-2.1-10.8-3.5-16.1c-2.8-10.6-6.6-21.1-11.6-30.9c-2.5-4.9-5.4-9.6-8.6-14.2
			c-3.2-4.6-6.8-8.8-10.6-12.9c4,3.8,7.9,7.9,11.4,12.3c3.4,4.4,6.7,9,9.5,13.8c5.7,9.7,10.2,20,13.7,30.7
			c1.7,5.4,3.3,10.8,4.5,16.3c1.3,5.5,2.3,11,3.2,16.6s1.5,11.2,1.9,16.8c0.2,2.8,0.4,5.6,0.5,8.5c0.1,2.9,0.2,5.6,0.1,8.6
			c-0.1,2.2-1.9,4-4.1,3.9c-2.2-0.1-4-1.9-3.9-4.1C276.5,331.8,276.5,331.7,276.5,331.6L276.5,331.6z"/>
	</g>
	<g>
		<path class="st1" d="M264.3,348.4c0.4-2.6,0.6-5.4,0.8-8.1c0.2-2.8,0.3-5.5,0.4-8.3c0.2-5.6,0.1-11.1-0.1-16.7s-0.7-11.1-1.3-16.7
			c-0.7-5.5-1.6-11-2.7-16.5c-2.3-10.9-5.6-21.7-10.2-31.9c-2.3-5.1-5-10-8-14.8c-3-4.8-6.4-9.2-10.1-13.6c3.9,4.1,7.6,8.4,10.9,13
			c3.2,4.6,6.3,9.4,8.9,14.5c5.3,10.1,9.3,20.8,12.3,31.8c1.5,5.5,2.7,11.1,3.8,16.7c1,5.6,1.8,11.3,2.4,17
			c0.6,5.7,0.9,11.4,1.1,17.1c0.1,2.9,0.1,5.7,0.1,8.6c0,2.9-0.1,5.7-0.3,8.7c-0.2,2.2-2.1,3.9-4.3,3.7c-2.2-0.2-3.9-2.1-3.7-4.3
			C264.3,348.6,264.3,348.5,264.3,348.4L264.3,348.4z"/>
	</g>
	<g>
		<path class="st1" d="M-59.4,315.7c1.4,0.1,3,0.1,4.5,0.1c1.6,0,3.1-0.1,4.7-0.1c3.1-0.2,6.3-0.4,9.4-0.7
			c6.3-0.7,12.5-1.7,18.7-3.1c6.2-1.3,12.3-3,18.4-4.9c6.1-2,12-4.3,17.8-6.8c11.7-5.1,22.8-11.6,33.2-19.1
			c10.3-7.6,20-16.2,28.6-25.7c-8.2,10-17.4,19.1-27.4,27.3c-10.1,8.1-21.1,15.2-32.7,21.1c-5.8,2.9-11.8,5.6-17.9,7.9
			c-6.1,2.3-12.3,4.4-18.7,6.1c-6.3,1.7-12.7,3.1-19.2,4.2c-3.2,0.5-6.5,0.9-9.8,1.3c-1.6,0.2-3.3,0.3-5,0.4
			c-1.7,0.1-3.3,0.2-5.1,0.2c-2.2,0-4-1.8-4-4s1.8-4,4-4c0.1,0,0.1,0,0.2,0L-59.4,315.7z"/>
	</g>
	<g>
		<path class="st1" d="M-51.3,329.2c1.4,0.1,3,0.1,4.5,0.1c1.6,0,3.1-0.1,4.7-0.1c3.1-0.2,6.3-0.4,9.4-0.7
			c6.3-0.7,12.5-1.7,18.7-3.1c6.2-1.3,12.3-3,18.4-4.9c6.1-2,12-4.3,17.8-6.8c11.7-5.1,22.8-11.6,33.2-19.1
			c10.3-7.6,20-16.2,28.6-25.7c-8.2,10-17.4,19.1-27.4,27.3c-10.1,8.1-21.1,15.2-32.7,21.1c-5.8,2.9-11.8,5.6-17.9,7.9
			c-6.1,2.3-12.3,4.4-18.7,6.1c-6.3,1.7-12.7,3.1-19.2,4.2c-3.2,0.5-6.5,1-9.8,1.3c-1.6,0.2-3.3,0.3-5,0.4c-1.7,0.1-3.3,0.2-5.1,0.2
			c-2.2,0-4-1.8-4-4s1.8-4,4-4c0.1,0,0.1,0,0.2,0L-51.3,329.2z"/>
	</g>
	<g>
		<path class="st1" d="M-44.6,342.6c1.4,0.1,3,0.1,4.5,0.1c1.6,0,3.1-0.1,4.7-0.1c3.1-0.2,6.3-0.4,9.4-0.7
			c6.3-0.7,12.5-1.7,18.7-3.1c6.2-1.3,12.3-3,18.4-4.9c6.1-2,12-4.3,17.8-6.8c11.7-5.1,22.8-11.6,33.2-19.1
			c10.3-7.6,20-16.2,28.6-25.7c-8.2,10-17.4,19.1-27.4,27.3c-10.1,8.1-21.1,15.2-32.7,21.1c-5.8,2.9-11.8,5.6-17.9,7.9
			c-6.1,2.3-12.3,4.4-18.7,6.1c-6.3,1.7-12.7,3.1-19.2,4.2c-3.2,0.5-6.5,0.9-9.8,1.3c-1.6,0.2-3.3,0.3-5,0.4
			c-1.7,0.1-3.3,0.2-5.1,0.2c-2.2,0-4-1.8-4-4s1.8-4,4-4c0.1,0,0.1,0,0.2,0L-44.6,342.6z"/>
	</g>
	<g>
		<path class="st1" d="M-67.4,302.3c1.4,0.1,3,0.1,4.5,0.1c1.6,0,3.1-0.1,4.7-0.1c3.1-0.2,6.3-0.4,9.4-0.7
			c6.3-0.7,12.5-1.7,18.7-3.1c6.2-1.3,12.3-3,18.4-4.9c6.1-2,12-4.3,17.8-6.8c11.7-5.1,22.8-11.6,33.2-19.1
			c10.3-7.6,20-16.2,28.6-25.7c-8.2,10-17.4,19.1-27.4,27.3c-10.1,8.1-21.1,15.2-32.7,21.1c-5.8,2.9-11.8,5.6-17.9,7.9
			c-6.1,2.3-12.3,4.4-18.7,6.1c-6.3,1.7-12.7,3.1-19.2,4.2c-3.2,0.5-6.5,0.9-9.8,1.3c-1.6,0.2-3.3,0.3-5,0.4
			c-1.7,0.1-3.3,0.2-5.1,0.2c-2.2,0-4-1.8-4-4s1.8-4,4-4c0.1,0,0.1,0,0.2,0L-67.4,302.3z"/>
	</g>
	<g>
		<path class="st1" d="M303.1,165.5c-2.5-3.3-5.4-6.7-8.2-10c-1.5-1.6-2.9-3.3-4.4-4.9c-1.5-1.6-3-3.2-4.5-4.8
			c-6.1-6.3-12.5-12.3-19.2-18c-3.3-2.9-6.8-5.6-10.2-8.4l-5.3-4c-0.9-0.7-1.8-1.3-2.7-2l-2.7-1.9c-7.2-5.1-14.8-9.6-22.5-13.9
			c8,3.7,16,7.6,23.6,12.2l2.9,1.7c1,0.6,1.9,1.2,2.8,1.8l5.6,3.6c3.7,2.5,7.4,5,10.9,7.7c7.2,5.3,14.1,10.9,20.8,16.8
			c1.7,1.5,3.3,3,5,4.5c1.6,1.5,3.3,3.1,4.9,4.6c3.2,3.2,6.3,6.3,9.4,9.8c1.5,1.7,1.3,4.2-0.3,5.7c-1.7,1.5-4.2,1.3-5.7-0.3
			C303.3,165.7,303.3,165.6,303.1,165.5L303.1,165.5z"/>
	</g>
	<g>
		<path class="st1" d="M303.1,181.6c-2.5-3.3-5.4-6.7-8.2-10c-1.5-1.6-2.9-3.3-4.4-4.9c-1.5-1.6-3-3.2-4.5-4.8
			c-6.1-6.3-12.5-12.3-19.2-18c-3.3-2.9-6.8-5.6-10.2-8.4l-5.3-4c-0.9-0.7-1.8-1.3-2.7-2l-2.7-1.9c-7.2-5.1-14.8-9.6-22.5-13.9
			c8,3.7,16,7.6,23.6,12.2l2.9,1.7c1,0.6,1.9,1.2,2.8,1.8l5.6,3.6c3.7,2.5,7.4,5,10.9,7.7c7.2,5.3,14.1,10.9,20.8,16.8
			c1.7,1.5,3.3,3,5,4.5c1.6,1.5,3.3,3.1,4.9,4.6c3.2,3.2,6.3,6.3,9.4,9.8c1.5,1.7,1.3,4.2-0.3,5.7c-1.7,1.5-4.2,1.3-5.7-0.3
			C303.3,181.8,303.3,181.7,303.1,181.6L303.1,181.6z"/>
	</g>
	<g>
		<path class="st1" d="M300.3,204.5c-2.3-3.5-4.9-7.1-7.5-10.6c-1.3-1.7-2.7-3.5-4-5.2c-1.4-1.7-2.7-3.4-4.1-5.1
			c-5.6-6.8-11.5-13.2-17.7-19.4c-3.1-3.2-6.3-6.1-9.5-9.1l-5-4.3c-0.8-0.7-1.7-1.5-2.5-2.2l-2.6-2.1c-6.8-5.7-14-10.7-21.4-15.6
			c7.7,4.3,15.4,8.8,22.6,14l2.7,1.9c0.9,0.6,1.8,1.3,2.7,2l5.3,4c3.4,2.8,7,5.5,10.3,8.5c6.8,5.8,13.3,11.9,19.5,18.4
			c1.6,1.6,3.1,3.3,4.6,4.9c1.5,1.7,3,3.3,4.5,5c3,3.4,5.8,6.8,8.6,10.5c1.3,1.8,1,4.3-0.8,5.6c-1.8,1.3-4.3,1-5.6-0.8
			C300.5,204.8,300.5,204.7,300.3,204.5L300.3,204.5z"/>
	</g>
	<g>
		<path class="st1" d="M301.7,225.9c-2.1-3.6-4.6-7.3-7.1-10.9c-1.3-1.8-2.5-3.6-3.8-5.3c-1.3-1.7-2.6-3.5-3.9-5.2
			c-5.3-6.9-11-13.6-17-20.1c-2.9-3.3-6.1-6.3-9.2-9.5l-4.8-4.5c-0.8-0.7-1.6-1.5-2.4-2.3l-2.5-2.2c-6.6-5.9-13.6-11.2-20.9-16.3
			c7.6,4.6,15.1,9.3,22.1,14.8l2.7,2c0.9,0.7,1.7,1.4,2.6,2.1l5.2,4.2c3.3,2.9,6.8,5.8,10,8.9c6.6,6,12.8,12.4,18.8,19.1
			c1.5,1.7,3,3.4,4.4,5c1.5,1.7,2.9,3.4,4.3,5.2c2.8,3.5,5.6,7,8.3,10.8c1.3,1.8,0.8,4.3-1,5.6c-1.8,1.3-4.3,0.8-5.6-1
			C301.8,226.2,301.8,226.1,301.7,225.9L301.7,225.9z"/>
	</g>
	<g>
		<path class="st1" d="M295.6,236.1c-2.2-3.6-4.7-7.2-7.2-10.7c-1.3-1.8-2.6-3.5-3.9-5.3c-1.3-1.7-2.7-3.5-4-5.2
			c-5.4-6.9-11.2-13.5-17.3-19.8c-3-3.2-6.2-6.2-9.3-9.3l-4.9-4.4c-0.8-0.7-1.6-1.5-2.5-2.2l-2.5-2.1c-6.7-5.8-13.8-11-21.1-16
			c7.6,4.5,15.2,9.1,22.3,14.4l2.7,1.9c0.9,0.7,1.8,1.4,2.6,2l5.3,4.1c3.4,2.9,6.9,5.7,10.1,8.7c6.7,5.9,13,12.2,19.1,18.8
			c1.5,1.6,3,3.3,4.5,5c1.5,1.7,2.9,3.4,4.4,5.1c2.9,3.5,5.7,6.9,8.4,10.7c1.3,1.8,0.9,4.3-0.9,5.6s-4.3,0.9-5.6-0.9
			C295.7,236.4,295.7,236.3,295.6,236.1L295.6,236.1z"/>
	</g>
	<g>
		<path class="st1" d="M296.4,258.9c-1.9-3.7-4.1-7.6-6.4-11.3c-1.1-1.9-2.3-3.7-3.5-5.6c-1.2-1.8-2.4-3.7-3.6-5.5
			c-4.9-7.3-10.1-14.3-15.7-21.1c-2.7-3.4-5.7-6.7-8.6-10l-4.5-4.8c-0.8-0.8-1.5-1.6-2.3-2.4l-2.4-2.3c-6.2-6.3-12.9-12-19.8-17.6
			c7.3,5.1,14.5,10.3,21.1,16.2l2.5,2.2c0.8,0.7,1.6,1.5,2.5,2.2l4.9,4.5c3.2,3.1,6.4,6.2,9.4,9.5c6.2,6.4,12,13.2,17.6,20.2
			c1.4,1.7,2.7,3.5,4.1,5.3c1.3,1.8,2.7,3.6,4,5.4c2.6,3.7,5.1,7.3,7.5,11.3c1.2,1.9,0.6,4.4-1.3,5.5s-4.4,0.6-5.5-1.3
			C296.5,259.2,296.5,259.1,296.4,258.9L296.4,258.9z"/>
	</g>
	<path class="st1" d="M301.1,148.5c0,0-42.2-50.2-86.2-69.4c0,0,57.6,20.4,99.4,62.3L301.1,148.5z"/>
	<path class="st1" d="M424.9,369.9c0,66.4-25.3,127.9-61.5,178.7c-5.2,7.3-12.9,15.7-14.7,24.4c-95.1,16.8-220.2-41.1-220.2-41.1
		s103.4-150.4,153.1-200.1s-24.2-127.6-24.2-127.6c6.2-26.8,23.5-69.4,34.9-81.9C364.9,176,424.9,276.5,424.9,369.9z"/>
	<g>
		<path class="st1" d="M79,134.6c0.3,0.6,0.5,1.1,0.7,1.6c0.2,0.5,0.4,1,0.6,1.5c0.4,1,0.7,2,1,3c0.3,1,0.6,2,0.9,3
			c0.3,1,0.6,2,0.8,3c0.5,2,1,4,1.3,6c0.4,2,0.8,4,1,6c0.3,2,0.6,4,0.7,6c0.1,2,0.4,4,0.4,6.1c0,2,0.1,4,0.1,6.1l-0.2,6
			c0,1-0.1,2-0.2,3l-0.3,3l-0.3,3c-0.1,1-0.3,2-0.5,3l-1,5.9l-1.3,5.8l-0.7,2.9c-0.2,1-0.6,1.9-0.8,2.9l-1.7,5.7l-0.4,1.4l-0.5,1.4
			l-1.1,2.8l-2.1,5.5l1.7-5.7l0.8-2.8l0.4-1.4l0.3-1.4l1.2-5.8c0.2-1,0.4-1.9,0.6-2.9l0.4-2.9l0.8-5.8l0.4-5.9
			c0.1-1,0.2-1.9,0.2-2.9l0-2.9l0-2.9c0-1,0-1.9,0-2.9l-0.3-5.8c-0.1-1.9-0.4-3.9-0.6-5.8c-0.2-1.9-0.6-3.8-0.9-5.7
			c-0.3-1.9-0.7-3.8-1.1-5.7c-0.4-1.9-0.9-3.7-1.4-5.6c-0.5-1.9-1.1-3.7-1.7-5.5c-0.3-0.9-0.7-1.8-1-2.7c-0.3-0.9-0.7-1.8-1.1-2.6
			c-0.4-0.9-0.7-1.7-1.1-2.6c-0.2-0.4-0.4-0.9-0.6-1.2c-0.2-0.4-0.4-0.8-0.6-1.1c-1.1-1.9-0.5-4.4,1.4-5.5c1.9-1.1,4.4-0.5,5.5,1.4
			C78.9,134.3,78.9,134.4,79,134.6L79,134.6z"/>
	</g>
	<g>
		<path class="st1" d="M94.4,134.6c0.3,0.6,0.4,1.1,0.6,1.6c0.2,0.5,0.3,1,0.5,1.5c0.3,1,0.6,2,0.9,3c0.3,1,0.6,2,0.8,3
			c0.2,1,0.5,2,0.7,3c0.4,2,0.8,4,1.1,6c0.3,2,0.6,4,0.8,6.1c0.2,2,0.4,4,0.5,6.1c0.1,2,0.2,4,0.2,6.1c0,2,0,4-0.1,6.1l-0.4,6
			c0,1-0.2,2-0.3,3l-0.4,3l-0.4,3c-0.1,1-0.4,2-0.6,3l-1.2,5.9l-1.6,5.8l-0.8,2.9c-0.3,1-0.6,1.9-0.9,2.8l-2,5.6l-0.5,1.4l-0.6,1.4
			l-1.2,2.7l-2.3,5.5l1.9-5.6l0.9-2.8l0.5-1.4l0.4-1.4l1.5-5.7c0.2-1,0.5-1.9,0.7-2.9l0.5-2.9l1.1-5.8l0.7-5.8
			c0.1-1,0.2-1.9,0.3-2.9l0.1-2.9l0.1-2.9c0-1,0.1-1.9,0.1-2.9l-0.1-5.8c-0.1-1.9-0.3-3.9-0.4-5.8c-0.1-1.9-0.4-3.9-0.6-5.8
			c-0.2-1.9-0.6-3.8-0.9-5.7c-0.3-1.9-0.8-3.8-1.2-5.6c-0.4-1.9-1-3.7-1.5-5.6c-0.3-0.9-0.6-1.8-0.9-2.7c-0.3-0.9-0.6-1.8-1-2.7
			c-0.3-0.9-0.7-1.8-1-2.6c-0.2-0.4-0.4-0.9-0.6-1.3c-0.2-0.4-0.4-0.8-0.5-1.1c-1-2-0.3-4.4,1.6-5.4c1.9-1,4.4-0.3,5.4,1.6
			C94.2,134.3,94.3,134.4,94.4,134.6L94.4,134.6z"/>
	</g>
	<path class="st1" d="M-173.8,610.2c0-4.6,0.4-9,1.3-13.5c3.3-16.8-1-34.2-10.9-48c-36.2-50.8-57.4-112.3-57.4-178.7
		C-240.8,196.2-95.4,55.3,84,55.3c36.8,0,72.2,4.6,105.2,15.5c-0.3,20.6-5.6,59.5-64.7,75.6c0,0-44.3-13.4-52.4,18.8
		c0,0,20.1,107.4-112.8,127.6c0,0,90,188,182.7,165.2c76.3-18.8,10.7,108.8,10.7,108.8l-191.2,160c-5.4-1.5-10.7-3.1-15.9-4.8
		c-12.8-4.2-24.8-13-35.9-18.2C-141.6,679.6-173.8,648.8-173.8,610.2z"/>
	<path class="st0" d="M-114.7,144.6c12.1,30.4,58,40.7,102.4,23s70.6-56.7,58.5-87.2s-46.5-25.6-90.9-7.8S-126.9,114.2-114.7,144.6z
		"/>
	<path class="st10" d="M83.5,550.1c76.9-18.4,171.6,97.8,205.2,145.7c-3.9,2.3-8,4.5-12.3,6.6C227.7,727,160.4,742.2,86,742.2
		c-53.2,0-102.8-7.8-144.6-21.2c-8.3-2.7-16.3-5.6-24-8.7C-52.8,673.2,6,568.7,83.5,550.1z"/>
	<g>
		<path class="st0" d="M144,707.2c0,0,1.5,69.8-47.4,73.9s-81-6.7-79.5-71.2"/>
		<path class="st1" d="M144,707.2c0.9,9.4,0.3,18.9-1.4,28.3c-1.8,9.4-4.7,18.7-9.9,27.1c-2.6,4.2-5.8,8.1-9.6,11.4
			c-3.8,3.3-8.3,6-13,7.9l-3.6,1.2c-1.2,0.3-2.5,0.6-3.7,0.9c-1.2,0.3-2.5,0.4-3.7,0.6l-1.9,0.3c-0.6,0.1-1.2,0.1-1.8,0.2
			c-4.7,0.4-9.5,0.6-14.3,0.7c-4.8,0-9.6-0.2-14.5-0.7c-4.8-0.6-9.7-1.5-14.4-3c-4.7-1.5-9.4-3.5-13.6-6.3c-4.2-2.8-8-6.3-11-10.4
			c-3-4-5.3-8.5-6.9-13.1c-1.7-4.6-2.8-9.3-3.4-14.1c-0.6-4.8-1-9.5-0.9-14.2c0-2.4,0.1-4.7,0.2-7.1c0.1-2.4,0.4-4.7,0.6-7
			c0.4,4.7,0.7,9.4,1.4,14c0.6,4.6,1.4,9.2,2.5,13.6c1.1,4.5,2.5,8.8,4.4,12.9c1.9,4.1,4.2,7.9,7,11.2c2.8,3.3,6.1,6.1,9.8,8.3
			c3.7,2.2,7.8,3.9,12,5c8.5,2.4,17.6,3,26.7,2.9c4.6,0,9.2-0.2,13.8-0.5c0.6,0,1.2-0.1,1.7-0.1l1.6-0.2c1.1-0.2,2.2-0.2,3.2-0.5
			c1-0.2,2.1-0.4,3.1-0.7l3.1-0.9c4-1.4,7.8-3.5,11.1-6.2c3.4-2.7,6.3-5.9,8.9-9.5c5.1-7.2,8.8-15.7,11.3-24.6
			C141.4,725.7,143.1,716.5,144,707.2z"/>
	</g>
	<path class="st3" d="M-253.4,360.3c0,15.9,1.2,31.5,3.6,46.8c22.5,12.4,44.1,18,50.7,34.9c6.2,16,5.4,88.8,78.8,111.2
		c7.2,2.2,15.1,3.9,23.9,5c9.3,1.2,19.5,1.7,30.7,1.5c14-0.3,29.5-1.9,46.7-4.9c23.8-4.2,50.9-11.1,81.8-21.5
		c0,0,13.9-154.9-102.6-208.8c-13.3-6.2-28.2-11-45.1-14.1c-1.2-0.2-2.3-0.4-3.4-0.7c-12.6-2.5-23-5.5-31.4-8.7
		c-11.8-4.6-19.9-9.8-24.8-15.1c-8.2-8.9-7.9-18.3-2.4-26c4.5-6.3,12.5-11.5,22.1-14.5c9.2-2.8,19.9-3.6,30.5-1.2
		c11.2,2.5,22.1,8.5,30.9,19.2c0,0-3.2-40.8-34.5-59c-8.3-4.8-18.6-8.1-31.4-8.5c-7-0.2-14.7,0.4-23.2,2c-1.6,0.3-3.3,0.7-5,1
		c0,0-1-5.2,4-11.9c3.5-4.7,10-10.2,22-15.2c7.6-3.1,17.3-6.1,29.8-8.5c3.5-0.7,7.3-1.3,11.3-1.9c0,0-4.5-2.8-12.1-6.2
		c-7.7-3.4-18.6-7.2-31.4-9.1c-7.3-1.1-15.2-1.5-23.5-0.9c-3.5,0.3-7,0.7-10.6,1.4C-221.1,203.4-253.4,278.3-253.4,360.3z"/>
	
		<linearGradient id="SVGID_7_" gradientUnits="userSpaceOnUse" x1="4185.5415" y1="444.8705" x2="4567.6416" y2="444.8705" gradientTransform="matrix(-1 0 0 1 4385.4565 0)">
		<stop  offset="0" style="stop-color:#2AD8FF"/>
		<stop  offset="0.9948" style="stop-color:#FC1E79"/>
	</linearGradient>
	<path class="st11" d="M13.7,512.4c0,0,8.1-21.5-6.7-48.4c0,0-67.2-128.9-189.4-72.5c0,0,1.7,47.9,36.4,37.4
		C-146,429-35.3,404.3,13.7,512.4z"/>
	<g>
		<path class="st0" d="M117.8,1112.1c0,0,241.8-63.1,274,17.5C413.2,1183.3,60,1177.9,117.8,1112.1z"/>
		<path class="st1" d="M117.6,1111.8c0.4-0.1,0.5-0.2,0.7-0.2l0.6-0.2l1.1-0.4l2.3-0.7c1.5-0.5,3.1-0.9,4.6-1.4
			c3.1-0.9,6.2-1.8,9.3-2.6c6.2-1.7,12.4-3.3,18.7-4.7c6.2-1.5,12.5-2.9,18.8-4.2c6.3-1.3,12.6-2.5,18.9-3.6
			c6.3-1.1,12.7-2.2,19-3.1c6.4-0.9,12.7-1.7,19.1-2.5c12.8-1.5,25.6-2.4,38.5-2.6c12.9-0.2,25.8,0.3,38.7,1.5
			c6.4,0.7,12.8,1.5,19.2,2.6c6.4,1.1,12.7,2.5,18.9,4.2c6.2,1.7,12.3,4,18.2,6.7c5.9,2.8,11.4,6.3,16.4,10.6
			c4.9,4.3,9.1,9.7,11.9,15.6c0.4,0.8,0.7,1.5,1.1,2.3c0.3,0.8,0.6,1.7,0.8,2.6c0.4,1.8,0.4,3.7-0.1,5.6c-0.9,3.7-3.3,6.6-5.9,8.9
			c-2.6,2.3-5.5,4.1-8.4,5.6c-3,1.5-6,2.9-9.1,4c-6.1,2.3-12.4,4.1-18.7,5.6c-12.7,3-25.5,4.8-38.3,6.1c-25.7,2.6-51.5,3.2-77.3,2
			c-6.4-0.3-12.9-0.8-19.3-1.3c-6.4-0.5-12.8-1.2-19.2-2.1c-6.4-0.8-12.8-1.8-19.1-3c-6.4-1.2-12.7-2.5-19-4.1
			c-6.3-1.6-12.5-3.4-18.6-5.7c-6.1-2.3-12.1-4.9-17.7-8.5c-2.8-1.8-5.5-3.8-7.8-6.3c-1.1-1.3-2.2-2.6-3.1-4.1
			c-0.9-1.5-1.6-3.1-2-4.8c-0.8-3.4-0.2-7.1,1.2-10.1c0.7-1.5,1.6-2.9,2.5-4.3c0.5-0.7,1-1.3,1.5-1.9
			C116.4,1113,117,1112.4,117.6,1111.8z M118,1112.5c-0.4,0.6-0.9,1.2-1.3,1.8c-0.4,0.7-0.9,1.3-1.3,2c-0.8,1.3-1.5,2.8-2,4.2
			c-1.1,2.9-1.2,6-0.3,8.7c0.9,2.8,2.7,5.2,4.9,7.2c2.2,2,4.8,3.7,7.5,5.2c2.7,1.5,5.5,2.8,8.5,3.9c2.9,1.1,5.9,2.2,8.9,3.1
			c6,1.8,12.2,3.3,18.4,4.6c6.2,1.3,12.4,2.3,18.7,3.2c6.3,0.9,12.6,1.7,18.9,2.3c12.6,1.2,25.3,2.1,38,2.6
			c6.4,0.2,12.7,0.5,19.1,0.5c6.4,0.1,12.7,0.1,19.1,0c12.7-0.1,25.4-0.6,38.1-1.6c12.6-1,25.3-2.5,37.7-4.9
			c6.2-1.2,12.3-2.6,18.3-4.5c3-0.9,5.9-2,8.7-3.3c2.8-1.3,5.5-2.7,7.8-4.6c2.3-1.8,4.2-4,5-6.5c0.4-1.3,0.5-2.6,0.3-3.9
			c-0.1-0.7-0.3-1.3-0.5-2c-0.2-0.7-0.6-1.4-0.9-2.1c-0.3-0.7-0.6-1.4-0.9-2.1l-1.1-2l-0.5-1l-0.6-1l-1.3-1.9
			c-0.4-0.6-1-1.2-1.4-1.8c-0.5-0.6-0.9-1.2-1.5-1.8l-1.6-1.7c-0.3-0.3-0.5-0.6-0.8-0.8l-0.9-0.8c-4.6-4.3-9.9-7.7-15.6-10.4
			c-5.7-2.8-11.7-4.8-17.8-6.4c-6.1-1.6-12.4-2.7-18.7-3.5c-6.3-0.8-12.6-1.3-19-1.5c-6.3-0.2-12.7-0.2-19.1-0.1
			c-3.2,0.1-6.4,0.2-9.5,0.3l-9.5,0.5c-12.7,0.7-25.4,1.8-38,3c-6.3,0.6-12.7,1.4-19,2.2c-6.3,0.8-12.6,1.6-19,2.5
			c-6.3,0.9-12.6,1.8-18.9,2.8c-6.3,1-12.6,2-18.9,3.1c-6.3,1.1-12.6,2.1-18.9,3.3L118,1112.5z"/>
	</g>
	
		<linearGradient id="SVGID_8_" gradientUnits="userSpaceOnUse" x1="4185.5415" y1="1123.9327" x2="4567.6416" y2="1123.9327" gradientTransform="matrix(-1 0 0 1 4385.4565 0)">
		<stop  offset="0" style="stop-color:#2AD8FF"/>
		<stop  offset="0.9948" style="stop-color:#FC1E79"/>
	</linearGradient>
	<path class="st12" d="M355.5,1152.4c0,0-67.2,12.1-116.8-1.3c0,0-29.5-10.7-17.5-21.5c0,0-45.7-2.7-40.3-28.2l100.4-10.9
		c0,0-17.4,40.5,32.4,41.8S355.5,1152.4,355.5,1152.4z"/>
	<g>
		<path class="st0" d="M-154.9,1143c0,0-254.4-69-261.9,17.5C-420.8,1206.1-167,1234.3-154.9,1143z"/>
		<path class="st1" d="M-155.3,1143.2l-0.1,0.1c0,0,0,0,0,0l-0.1,0l-0.6-0.1l-1.1-0.2l-2.2-0.4l-4.5-0.9l-9-1.7
			c-6-1.2-12-2.2-18-3.4c-12-2.2-24-4.3-36-6.2c-6-1-12-1.9-18-2.7c-6-0.9-12-1.7-18-2.5c-12-1.5-24.1-2.7-36.2-3.8
			c-12.1-1-24.2-1.9-36.3-1.9c-6,0-12.1,0.1-18.1,0.6c-6,0.4-12,1.2-17.9,2.4c-5.9,1.2-11.7,2.9-17.3,5.2
			c-5.5,2.3-10.7,5.4-15.1,9.4c-2.2,2-4.1,4.3-5.7,6.7c-1.6,2.5-2.9,5.1-3.8,7.9c-0.9,2.8-1.4,5.7-1.6,8.6c-0.3,2.7,0.5,5.2,2,7.5
			c1.5,2.3,3.6,4.3,5.8,6c2.3,1.8,4.8,3.3,7.4,4.7c5.2,2.8,10.8,4.9,16.4,6.8c11.4,3.8,23.1,6.4,35,8.5c23.8,4,48,5.6,72,5.1
			c12-0.2,24.1-1,36-2.6c11.9-1.6,23.7-3.9,35.1-7.5c5.7-1.8,11.2-4,16.6-6.6c5.3-2.6,10.4-5.7,15-9.4c4.6-3.7,8.7-8,11.9-13.1
			c1.6-2.5,3-5.2,4-8c0.5-1.4,1-2.8,1.5-4.3c0.2-0.7,0.4-1.5,0.6-2.2C-155.7,1144.5-155.5,1143.9-155.3,1143.2z M-154.6,1142.8
			c0,0.8-0.1,1.7-0.2,2.6c-0.1,0.8-0.2,1.5-0.3,2.3c-0.3,1.5-0.6,3-1,4.5c-0.8,3-2,5.9-3.4,8.7c-2.9,5.6-6.9,10.6-11.5,14.9
			c-4.6,4.3-9.8,7.9-15.2,11c-5.4,3.1-11.2,5.7-17,7.9c-5.8,2.2-11.8,4-17.8,5.5c-6,1.5-12.1,2.7-18.2,3.7c-12.2,2-24.6,3-36.9,3.4
			c-12.3,0.3-24.7-0.1-37-1.2c-12.3-1.1-24.5-2.8-36.6-5.2c-6.1-1.2-12.1-2.6-18-4.3c-6-1.6-11.9-3.6-17.7-5.8
			c-5.8-2.3-11.5-4.9-16.9-8.2c-2.7-1.6-5.3-3.5-7.7-5.6c-2.4-2.1-4.7-4.5-6.4-7.5c-0.8-1.5-1.5-3.1-1.9-4.8
			c-0.4-1.7-0.4-3.5-0.2-5.1c0.4-3.1,1.1-6.3,2.2-9.3c1.1-3,2.6-5.8,4.4-8.4c1.8-2.6,4-4.9,6.3-7c4.7-4.2,10.2-7.3,15.9-9.7
			c5.7-2.5,11.6-4.2,17.6-5.7c12-2.8,24.3-4.3,36.5-5c12.3-0.7,24.6-0.8,36.9-0.1c12.3,0.6,24.5,1.9,36.6,3.6
			c6.1,0.9,12.1,1.8,18.2,2.8c6,1.1,12.1,2.2,18.1,3.3c6,1.1,12,2.5,18,3.8c6,1.3,11.9,2.8,17.8,4.3c5.9,1.5,11.8,3.1,17.7,4.8
			c2.9,0.8,5.9,1.7,8.8,2.6c1.5,0.4,2.9,0.9,4.4,1.4l2.2,0.7l1.1,0.4l0.5,0.2l0.1,0c0.1,0,0.2,0.1,0.2,0.1
			C-154.9,1142.6-154.7,1142.7-154.6,1142.8z"/>
	</g>
	
		<linearGradient id="SVGID_9_" gradientUnits="userSpaceOnUse" x1="4185.5415" y1="1159.3977" x2="4567.6416" y2="1159.3977" gradientTransform="matrix(-1 0 0 1 4385.4565 0)">
		<stop  offset="0" style="stop-color:#2AD8FF"/>
		<stop  offset="0.9948" style="stop-color:#FC1E79"/>
	</linearGradient>
	<path class="st13" d="M-180.4,1157.4c0,0-19.1,50.1-151.4,27.2c0,0-42.6-14.8-32.4-22.8c0,0-62-25.6,6.5-33.6l80.2,7.7
		c0,0-27.9,27.3,8.8,30S-180.4,1157.4-180.4,1157.4z"/>
	<path class="st1" d="M269.5,908c0,0-95.4,57.8-220.4,151.3c0,0-33.4,9.9-59,0.5c0,0-165.2-100.6-263.2-94.6l39.8-68.6l485-31.5
		L269.5,908z"/>
	<path class="st1" d="M252.1,835.5c0,0-303.5,87.3-464.7,14.8c0,0-16.3,42.8-25.5,57.8c0,0,175.9,124.9,502.3-8.1
		C264.2,899.9,256.1,873.1,252.1,835.5z"/>
	<g>
		<path class="st0" d="M252.1,847.5c0,0-303.5,77.9-464.7,5.4c0,0-21.7,49.5-30.9,64.5c0,0,186.7,123.6,513-9.4
			C269.5,908,264.2,886.5,252.1,847.5z"/>
		<path class="st1" d="M251.9,847.9c0,0.1,0.1,0.1,0.1,0.1l-0.2,0.1l-0.4,0.1l-0.9,0.2l-1.8,0.5l-3.6,1l-7.1,1.9
			c-4.8,1.2-9.5,2.4-14.3,3.6c-9.6,2.3-19.2,4.5-28.8,6.5c-19.2,4.1-38.6,7.8-58,10.9c-19.4,3.2-38.9,5.9-58.5,8.1
			c-9.8,1.1-19.6,2.1-29.4,2.9c-9.8,0.8-19.6,1.6-29.5,2.1c-39.4,2.2-79,1.6-118.2-3c-9.8-1.2-19.6-2.5-29.3-4.2
			c-9.7-1.7-19.4-3.8-29-6c-9.6-2.3-19.1-5.1-28.5-8.1c-9.4-3.1-18.6-6.6-27.6-10.6l1.6-0.6c-2.4,5.5-4.8,10.9-7.3,16.4l-7.4,16.3
			c-2.5,5.4-5,10.8-7.6,16.2c-2.6,5.4-5.2,10.7-8.3,16l-0.5-2.2c4.6,2.8,9.5,5.4,14.4,7.8c4.9,2.4,9.9,4.7,15,6.8
			c10.1,4.3,20.4,8,30.9,11.4c20.9,6.7,42.3,11.7,63.9,15.5c21.6,3.7,43.4,6.2,65.3,7.3c10.9,0.6,21.9,0.8,32.9,0.8
			c11-0.1,21.9-0.4,32.9-1c43.8-2.4,87.4-9.1,130.2-19.1c42.8-10.1,84.9-23.4,126-39.2l-1.2,2.3c-1.2-5.1-2.5-10.2-3.7-15.2
			c-1.3-5.1-2.6-10.1-3.9-15.2l-4.1-15.2l-2.1-7.6C253.1,852.8,252.5,850.4,251.9,847.9z M252.3,847.2c0.9,2.5,1.9,5.1,2.7,7.7
			l2.5,7.5l4.8,15c1.6,5,3.1,10,4.7,15c1.5,5,3,10,4.4,15.1c0.3,0.9-0.2,1.9-1.1,2.2l-0.1,0c-40.6,17.5-82.6,32.1-125.7,43
			c-43,10.9-87.1,18-131.5,20.2c-44.4,2.1-89.1-0.4-132.8-8.7c-10.9-2.1-21.8-4.6-32.5-7.5c-10.7-2.9-21.4-6.2-31.8-9.9
			c-10.5-3.7-20.8-7.9-30.9-12.4c-5.1-2.3-10.1-4.7-15-7.3c-4.9-2.6-9.8-5.3-14.5-8.4c-0.7-0.5-1-1.5-0.5-2.2l0,0
			c3.1-5,5.8-10.3,8.5-15.6c2.7-5.3,5.3-10.7,7.8-16c2.6-5.4,5-10.8,7.5-16.2c2.5-5.4,4.9-10.9,7.3-16.3c0.3-0.6,1-0.9,1.6-0.6l0,0
			c17.9,7.9,36.7,13.8,55.8,18c9.6,2.1,19.2,3.7,28.9,5.2c9.7,1.4,19.4,2.4,29.2,3.3c9.7,0.8,19.5,1.3,29.3,1.7
			c9.8,0.4,19.6,0.5,29.3,0.5c9.8,0.1,19.6-0.1,29.3-0.4c9.8-0.2,19.6-0.6,29.3-1.2c19.6-1,39.1-2.5,58.6-4.5c9.8-1,19.5-2,29.2-3.2
			c9.7-1.2,19.5-2.5,29.2-3.8c19.4-2.7,38.8-5.7,58.1-9.1c9.7-1.6,19.3-3.4,29-5.3c4.8-0.9,9.6-1.9,14.5-2.8l7.2-1.5l3.6-0.8
			l1.8-0.4l0.9-0.2l0.4-0.1l0.2,0C251.9,847.2,252.1,847.2,252.3,847.2z"/>
	</g>
	<g>
		<path class="st0" d="M-218.3,865.6c3.4-7.5,5.7-12.7,5.7-12.7c161.2,72.5,464.7-5.4,464.7-5.4c1.6,5.2,3.1,10,4.5,14.5
			C186.6,879.5-55,931.3-218.3,865.6z"/>
		<path class="st1" d="M-218.7,865.8c1.7-4.3,3.4-8.7,5.2-13.2c0.2-0.4,0.7-0.7,1.1-0.5l0.1,0c18.1,7.4,37,12.9,56.1,16.9
			c9.6,2,19.2,3.7,28.8,5.1c9.7,1.3,19.4,2.5,29.1,3.4c38.9,3.5,78.1,3.3,117.3,1.7c4.9-0.2,9.8-0.4,14.7-0.6l14.7-0.8
			c9.8-0.6,19.6-1.3,29.3-2.2c9.8-0.9,19.5-1.8,29.3-2.9c9.7-1.1,19.5-2.4,29.2-3.8c38.8-5.6,77.5-13.3,115.3-23.3
			c1.1-0.3,2.2,0.3,2.5,1.4l0,0l4.7,14.5c0.4,1.2-0.3,2.5-1.5,2.9l-0.1,0l-0.1,0c-19.4,5.2-39,9.8-58.7,14c-4.9,1-9.9,2-14.8,3
			l-7.4,1.4l-7.4,1.4c-4.9,0.9-9.9,1.7-14.9,2.6c-5,0.9-9.9,1.6-14.9,2.4c-19.9,3.1-39.8,5.8-59.9,7.9l-7.5,0.8l-7.5,0.7
			c-5,0.4-10,0.9-15.1,1.2c-10,0.7-20.1,1.3-30.2,1.7l-15.1,0.4l-15.1,0.2c-2.5,0-5,0-7.6,0l-7.6-0.1c-5,0-10.1-0.2-15.1-0.4
			l-7.6-0.3c-2.5-0.1-5-0.3-7.6-0.4l-7.5-0.5l-3.8-0.2l-3.8-0.3c-5-0.5-10-0.8-15.1-1.4l-15-1.7c-20-2.6-39.9-6.3-59.4-11.3
			c-4.9-1.3-9.8-2.4-14.6-4l-7.2-2.2l-3.6-1.1c-1.2-0.4-2.4-0.8-3.6-1.2l-7.1-2.5l-3.6-1.3c-1.2-0.4-2.4-0.8-3.6-1.3
			C-209.4,869.7-214.1,867.7-218.7,865.8z M-217.9,865.5c4.8,1.6,9.5,3.1,14.1,4.6c1.1,0.4,2.3,0.8,3.5,1.1l3.6,1.1l7.2,2.1
			c1.2,0.3,2.4,0.7,3.6,1l3.6,0.9l7.3,1.8c4.8,1.3,9.7,2.2,14.6,3.3c19.6,4.1,39.3,7,59.2,9c39.8,3.8,79.8,4.3,119.7,2.4l15-0.8
			c5-0.2,10-0.7,15-1c5-0.3,10-0.8,14.9-1.2l7.5-0.6l7.5-0.7c19.9-1.8,39.8-4.2,59.6-7c4.9-0.7,9.9-1.4,14.8-2.2
			c4.9-0.8,9.9-1.5,14.8-2.4l7.4-1.2l7.4-1.3c4.9-0.8,9.9-1.8,14.8-2.7c4.9-0.9,9.8-1.8,14.8-2.8l14.7-2.9c9.8-2,19.6-4.1,29.4-6.3
			l-1.7,3l-4.2-14.6l2.5,1.4c-19.2,4.5-38.5,8.2-57.9,11.8c-9.7,1.8-19.3,3.6-29,5.2c-9.7,1.7-19.4,3.3-29.1,4.8
			c-9.7,1.6-19.4,3-29.2,4.4c-9.7,1.4-19.5,2.8-29.2,4c-19.5,2.4-39.1,4.5-58.8,5.9c-19.7,1.3-39.4,1.9-59.1,1.6
			c-19.7-0.3-39.5-1.3-59.1-3.5c-9.8-1.1-19.6-2.4-29.4-4.1c-9.7-1.7-19.4-3.7-29-6.1l-7.2-1.9l-7.1-2c-4.7-1.4-9.5-2.9-14.1-4.6
			l-3.5-1.2c-1.2-0.4-2.3-0.9-3.5-1.3c-2.3-0.9-4.6-1.7-6.9-2.7c-2.3-1-4.6-1.9-6.8-2.9l-6.7-3.1l1.2-0.5
			C-213.7,857.2-215.8,861.3-217.9,865.5z"/>
	</g>
	<g>
		<g>
			<path class="st1" d="M13.3,512.7c-0.4-4.5-1.1-9-2-13.5c-0.9-4.5-1.9-8.9-3.2-13.2c-1.3-4.3-2.7-8.6-4.3-12.8
				c-1.6-4.2-3.5-8.2-5.5-12.2c-4.1-7.9-9.1-15.2-15.2-21.5c-6-6.3-13-11.5-20.7-15.3c-3.8-1.9-7.8-3.5-11.9-4.7
				c-4.1-1.2-8.3-2.2-12.6-2.8c-8.5-1.2-17.3-1.3-26-0.5c-2.2,0.2-4.4,0.5-6.5,0.7c-2.2,0.3-4.4,0.6-6.5,1l-3.3,0.6
				c-1,0.2-1.9,0.5-2.9,0.7l-1.4,0.4l-1.4,0.5c-0.9,0.4-1.9,0.6-2.7,1.1c-3.6,1.6-6.9,3.8-9.8,6.4l-2.1,2c-0.7,0.7-1.3,1.5-1.9,2.2
				c-0.7,0.7-1.2,1.6-1.7,2.4c-0.5,0.8-1.1,1.6-1.6,2.5c-2,3.4-3.3,7.1-4.1,10.9c-0.2,1-0.4,1.9-0.5,2.9l-0.2,2.9c-0.1,1,0,2,0,2.9
				l0,1.5l0.2,1.5c0.1,1,0.2,2,0.4,2.9l0.7,2.9l0.2,0.7l0.2,0.8l0.5,1.6c0.3,1,0.7,2.1,1,3.1c1.4,4.1,3.1,8.1,5,11.9
				c1.9,3.8,4.1,7.5,6.5,11.1c2.5,3.5,5.2,6.8,8.1,9.8c2.9,3,6.3,5.7,9.7,8.1c3.5,2.4,7.2,4.4,11.1,6.2c7.8,3.4,16.3,5.5,25.1,6.4
				c8.7,0.9,17.7,0.8,26.6-0.2c8.9-0.9,17.8-2.6,26.6-4.6l6.6-1.6c2.2-0.6,4.4-1.2,6.6-1.8l3.3-0.9l3.2-1L13.3,512.7z M13.3,512.7
				l-6.1,2.9L4,517.1l-3.2,1.3c-2.1,0.9-4.2,1.8-6.4,2.6l-6.5,2.4c-8.7,3-17.6,5.5-26.7,7.3c-9.1,1.7-18.5,2.6-28,2.2
				c-9.4-0.4-19-2.1-28.1-5.5c-4.5-1.8-8.9-3.9-13-6.5c-4.1-2.6-8-5.6-11.6-9c-3.5-3.4-6.8-7-9.7-10.9c-2.9-3.9-5.4-8.1-7.7-12.3
				c-2.3-4.3-4.1-8.7-5.8-13.2c-0.4-1.1-0.8-2.2-1.2-3.4l-0.6-1.7l-0.3-0.8l-0.2-0.9l-1-3.8c-0.3-1.3-0.4-2.6-0.6-3.8l-0.3-1.9
				l-0.1-1.9c0-1.3-0.1-2.6,0-3.9l0.3-3.9c0.1-1.3,0.4-2.6,0.6-3.8c0.1-0.6,0.2-1.3,0.4-1.9l0.5-1.9l0.6-1.9l0.3-0.9l0.4-0.9
				l1.5-3.6c0.6-1.2,1.2-2.3,1.8-3.4c0.6-1.2,1.4-2.2,2.1-3.3c0.7-1.1,1.4-2.2,2.3-3.1c0.8-1,1.6-2,2.5-2.9l2.8-2.7
				c3.9-3.4,8.3-6.3,13.1-8.4c1.2-0.5,2.4-0.9,3.6-1.4l1.8-0.6l1.9-0.4c1.2-0.3,2.5-0.6,3.7-0.8l3.5-0.6c2.3-0.4,4.7-0.6,7-1
				c1.2-0.1,2.4-0.2,3.5-0.3c1.2-0.1,2.4-0.2,3.5-0.3c4.7-0.3,9.5-0.3,14.3-0.2c4.8,0.2,9.5,0.8,14.3,1.6c9.5,1.6,18.8,4.8,27.2,9.5
				c8.5,4.7,16,11,22.1,18.3c6.2,7.3,10.9,15.6,14.6,24.2c3.6,8.7,6.2,17.6,7.7,26.7C12.9,494.4,13.7,503.6,13.3,512.7z"/>
		</g>
	</g>
	<path class="st3" d="M277,310.3c137-25.5,25.5-104.8-21.5-47c0,0,6.7-84.6,94-64.5c0,0,5.4-26.9-67.2-37.6c0,0,24.2-15.5,56-16.4
		c54.1,57.1,87.1,132.6,87.1,215.5c0,20.2-2,40-5.7,59.2c-13.4,8.1-24.2,16.7-28.6,27.8c-9.4,24.2-2.7,173.3-261.9,86
		C129.2,533.3,112,341,277,310.3z"/>
	
		<linearGradient id="SVGID_10_" gradientUnits="userSpaceOnUse" x1="4185.5415" y1="440.1087" x2="4567.6416" y2="440.1087" gradientTransform="matrix(-1 0 0 1 4385.4565 0)">
		<stop  offset="0" style="stop-color:#2AD8FF"/>
		<stop  offset="0.9948" style="stop-color:#FC1E79"/>
	</linearGradient>
	<path class="st14" d="M376.3,391.6c0,0-48.4-41.6-99.4-14.8c-51,26.9-93.8,88.3-93.8,88.3s-25.7,31.3-9.6,47.4
		c0,0,55.7-98.7,165.9-81.3C339.4,431.2,391.1,422.5,376.3,391.6z"/>
	<g>
		<path class="st1" d="M173.3,515.5c0-0.1-0.1-0.2-0.1-0.3l0-0.1l0-0.2l0-0.5l0-0.9l0-1.8c0-1.2,0-2.4,0-3.7
			c0.1-2.4,0.2-4.9,0.4-7.3c0.2-2.4,0.5-4.9,0.8-7.3c0.3-2.4,0.7-4.9,1.2-7.3c1.8-9.7,4.7-19.2,8.7-28.3c4-9.1,9.2-17.8,15.7-25.4
			c6.5-7.7,14.3-14.4,23.1-19.3c4.4-2.5,9-4.6,13.7-6.3c4.7-1.7,9.6-3,14.4-3.9c9.8-1.8,19.7-2.4,29.5-2.1
			c9.8,0.3,19.5,1.3,29.2,2.9c4.8,0.8,9.6,1.7,14.4,2.7l7.1,1.6l7.1,1.7c0.7,0.2,1.2,0.8,1.2,1.5l0,0.1c0.4,5.2,0.4,10.4,0.3,15.6
			c-0.1,5.2-0.5,10.4-1.1,15.5c-0.6,5.2-1.4,10.3-2.5,15.4c-1.1,5.1-2.5,10.2-4.2,15.1c-3.4,9.9-8.1,19.6-14.3,28.2
			c-3.1,4.3-6.7,8.4-10.6,12.1c-3.9,3.7-8.3,7-12.9,9.7c-9.3,5.6-19.7,9-30.2,10.6c-10.5,1.5-21.2,1.4-31.5,0.1
			c-5.2-0.6-10.3-1.5-15.4-2.7c-5.1-1.1-10.1-2.5-15-4.1c-4.9-1.5-9.8-3.3-14.6-5.2c-2.4-0.9-4.8-1.9-7.1-2.9
			c-1.2-0.5-2.3-1-3.6-1.6C175.7,516.6,174.5,516,173.3,515.5z M174,515l3.5,1l3.6,1.1c2.4,0.7,4.9,1.4,7.4,2.1
			c4.9,1.3,9.8,2.6,14.8,3.7c5,1.1,9.9,2,14.9,2.8c5,0.7,10,1.3,15,1.6c10,0.6,20,0.3,29.6-1.5c9.6-1.8,18.9-5.1,27.1-10.1
			c8.2-5,15.5-11.6,21.4-19.4c5.9-7.8,10.6-16.6,14.1-25.9c1.8-4.6,3.3-9.4,4.6-14.2c1.3-4.8,2.4-9.7,3.4-14.7
			c0.9-4.9,1.6-9.9,2.2-15c0.5-5,0.8-10.1,0.8-15.1l1.3,1.6l-6.9-2.1c-2.3-0.7-4.7-1.2-7-1.9c-2.3-0.6-4.7-1.1-7-1.7
			c-2.4-0.5-4.7-0.9-7.1-1.4c-9.5-1.7-19.2-2.5-28.8-2.3c-9.6,0.1-19.2,1.5-28.3,4c-9.1,2.6-17.9,6.2-25.8,11.2
			c-7.9,4.9-15.1,10.9-21.3,17.9c-6.1,7-11.3,15-15.5,23.4c-4.3,8.5-7.6,17.4-10.2,26.7c-1.3,4.6-2.4,9.3-3.3,14
			c-0.5,2.4-0.9,4.7-1.3,7.1l-0.5,3.6l-0.2,1.8l-0.1,0.9l0,0.4L174,515l0.1,0.1C174,515.1,174,515,174,515z"/>
	</g>
	<path class="st6" d="M100.5,427.2c0,0,10-76.1-86-116.3c-55.5-23.3-74-78-27.2-120.7c0,0-14.7,36.9,56.8,84.5
		c54.3,36.2,53.9,64.2,53.9,64.2s18.4-138.6,4.8-185.2c0,0-45.5-46.3-8.6-86.6c0,0,65.2,24.2,36.4,85.3c0,0,6.3,112.8-4.8,189
		c0,0,13.6-50,53.1-73.2c54-31.8,36-74,36-74s51.9,74.4-29.7,130.8C150,349.5,121.5,366.4,100.5,427.2z"/>
	<path class="st3" d="M99.2,421.8c0,0,4.6-76.1-91.3-116.3c-55.5-23.3-74-78-27.2-120.7c0,0-14.7,36.9,56.8,84.5
		c54.3,36.2,53.9,64.2,53.9,64.2s18.4-138.6,4.8-185.2c0,0-45.5-46.3-8.6-86.6c0,0,65.2,24.2,36.4,85.3c0,0,6.3,112.8-4.8,189
		c0,0,13.6-50,53.1-73.2c54-31.8,40-75.3,40-75.3s47.9,75.7-33.8,132.2C143.2,344.1,120.2,361.1,99.2,421.8z"/>
	<circle class="st1" cx="-43.7" cy="469.5" r="22.5"/>
	<circle class="st1" cx="238.3" cy="469.5" r="22.5"/>
	<path class="st1" d="M-96.1,710.7c11.6,4.8,24.2,9.1,37.5,12.9C-37.4,679,6.3,579.4,105,579.3c52.2,0,79.9,32.5,163.4,129.1
		c10.6-4.8,28.4-11.2,37.1-16.7c-26.2-35.7-98.4-131.7-195.1-135.5C6.3,552-69.8,655.7-96.1,710.7z"/>
	<path class="st3" d="M-96.1,709.1c11.6,5.4,24.2,10.2,37.5,14.5C-37.4,673.5,6.3,568.9,105,568.9c52.2,0,86.6,27.5,170.1,136.2
		c10.6-5.3,21.7-11.1,30.4-17.3c-26.2-40.1-98.4-148.1-195.1-152.5C6.3,530.6-69.8,647.3-96.1,709.1z"/>
	
		<ellipse transform="matrix(0.9993 -3.656972e-02 3.656972e-02 0.9993 -33.7179 3.7871)" class="st1" cx="86.7" cy="923.6" rx="77.7" ry="51.4"/>
	<g>
		
			<ellipse transform="matrix(0.9993 -3.656972e-02 3.656972e-02 0.9993 -33.5822 3.1459)" class="st0" cx="69.2" cy="919.6" rx="77.7" ry="51.4"/>
		<path class="st1" d="M146.9,916.7c-0.2-4.3-1.2-8.5-2.8-12.4c-1.7-3.9-4.1-7.5-6.8-10.7c-5.6-6.5-12.8-11.4-20.4-15
			c-7.7-3.6-15.9-5.9-24.2-7.3c-8.3-1.4-16.8-1.6-25.2-1.1c-8.4,0.6-16.7,2-24.6,4.5c-8,2.4-15.6,5.7-22.6,10
			C13.3,889,7,894.4,2.5,900.8c-2.3,3.2-4.1,6.7-5.3,10.3c-1.2,3.6-1.8,7.4-1.6,11.2c0.2,3.8,1,7.5,2.4,11c1.5,3.5,3.5,6.8,6,9.9
			c5,6.1,11.6,11,18.9,14.8c7.3,3.8,15.1,6.5,23.3,8.3c8.1,1.8,16.5,2.6,24.9,2.6c8.4-0.1,16.8-0.9,25-2.9c8.2-2,16.3-4.9,23.6-9.1
			c7.3-4.2,14.2-9.6,19.3-16.4c2.5-3.4,4.7-7.2,6-11.2C146.3,925.3,147,921,146.9,916.7z M146.9,916.7c0.1,4.3-0.5,8.6-1.8,12.6
			c-1.3,4.1-3.4,7.9-5.9,11.4c-5,7-11.6,12.7-18.9,17.2c-7.3,4.5-15.3,8-23.6,10.4c-8.3,2.5-16.9,4-25.5,4.6
			c-17.3,1.1-35.2-1.2-51.4-8.8c-8-3.8-15.6-9-21.7-16c-3-3.5-5.6-7.4-7.5-11.8c-1.8-4.3-2.9-9.1-3.1-13.8c-0.1-4.8,0.6-9.5,2.1-14
			c1.5-4.5,3.9-8.6,6.6-12.3c5.5-7.4,12.7-13.1,20.5-17.5c15.6-8.7,33.3-12.4,50.6-12.5c8.7,0,17.4,0.8,25.8,2.7
			c8.4,1.8,16.7,4.7,24.3,8.7c7.6,4,14.7,9.1,20.1,15.8c2.7,3.3,5,6.9,6.7,10.9C145.8,908.2,146.7,912.5,146.9,916.7z"/>
	</g>
	
		<linearGradient id="SVGID_11_" gradientUnits="userSpaceOnUse" x1="4185.5415" y1="922.4841" x2="4567.6416" y2="922.4841" gradientTransform="matrix(-1 0 0 1 4385.4565 0)">
		<stop  offset="0" style="stop-color:#2AD8FF"/>
		<stop  offset="0.9948" style="stop-color:#FC1E79"/>
	</linearGradient>
	<path class="st15" d="M135.9,903.1c0,0-19.2-18.1-37.8-15.5s-9.2-0.3-9.2-0.3S97,923,63.4,926s-40.3-9.5-40.3-9.5
		s-22.8,39.6,44.3,41.1c0,0-19.5-17.5,30.2-13.4c19.4,1.6,24.2-11.9,20.1-26.9S135.9,903.1,135.9,903.1z"/>
	<path class="st1" d="M135.2,902.6c0,0-27.8-30-78.3-21c0,0,40.7,18.4,12.5,38.5C41.2,940.2,23.1,900,23.1,900s-31.6,18.7,0.7,42.9
		c0,0-2.7-10.7,5.4-17.5c0,0,9.4,24.2,43,13.4c33.6-10.7,33-32.4,23.9-42.4C96,896.5,108.4,894.5,135.2,902.6z"/>
	<path class="st1" d="M-179.3,386.4c37.9-17.5,128.7-47.8,184.1,72.2c7.8,15.3,12.4,13.7,14.7,9.7c0.9-1.5,3.2-1,3.5,0.7
		c10.6,76.9-27.7,6.5-31.8-0.1c-27-42.6-82.1-80.8-168.7-75.5C-181.6,393.7-183,388.1-179.3,386.4z"/>
	<path class="st1" d="M372.5,384.7c-38.2-16.9-129.4-45.7-182.9,75.2c-7.6,15.4-12.1,13.9-14.6,9.9c-0.9-1.5-3.3-1-3.5,0.8
		c-9.3,77,27.8,6,31.8-0.6c26.3-43,80.7-82.2,167.5-78.3C374.9,392,376.2,386.4,372.5,384.7z"/>
	<path class="st1" d="M71.9,297.9c2.2,2.4,4.1,4.6,5.8,6.8c2.1,36.3,7,79,17.9,50.6C112.2,311.9,111,114.8,90.9,64
		c0.2-0.3-3.6-1.9-3.4-2.1c0,0,8,3,17.2,9.5c4.7,40.5,17.3,172.3,2.9,328.8c-2.8,6.6-5.6,13.7-8.4,21.7c0,0,2.4-40.1-32.9-77.4
		L71.9,297.9z"/>
	<path class="st1" d="M-19.2,556.1c0,0,12.5-28.3,8.9-35c0,0-51.9,15.8-64,9.9l-8.3,25c0,0,29.8-26.9,31.1-16.1
		c1.3,10.7-0.3,19-0.3,19L-19.2,556.1z"/>
	<path class="st1" d="M-23.2,405.7c0,0-22.8-59.1-28.5-85.6l-30.6-9.8c0,0,12.1,47,16.1,64.5c3.3,14.5-38.9-69-38.9-69l-12.2-4.8
		c0,0,12.1,45.7,25.8,79.5L-23.2,405.7z"/>
	<path class="st1" d="M-212.1,206.1c0,0-23.4,105.6,14.2,175.4c33.8,62.7,29.2,119.1,46.8,156.9l-18.5-17.3c0,0-12.2-94-39.1-132.9
		s-26.1-116.8-21.1-146.4L-212.1,206.1z"/>
	<path class="st1" d="M-247.5,283.4c0,0,1.3,57.8,43,147.8l-15.2-9c0,0-27.4-67.5-33.7-114.5L-247.5,283.4z"/>
	<path class="st1" d="M193.9,349c0,0,15.7,40,6.4,74.9c0,0,48.4-47,76.6-47c0,0,9.3-50.8-21.1-63c-0.4-0.2-32.2,14.7-32.2,14.7
		s10.5,14,12.4,52l-15.3,15.7c0,0-1.8-49.3-15.1-56.5L193.9,349z"/>
	<path class="st1" d="M266.3,560.4c0,0,3.3-16-6.1-30.3c0,0-31.4,0.1-45.3-2.4c0,0-0.4,22.8-5.8,26.9l17.1,2.8c0,0-1-26.9,11.1-17.5
		c12.1,9.4,10.5,19.8,10.5,19.8L266.3,560.4z"/>
	<path class="st1" d="M299.3,197.2c0,0,112.9,54.5,91.4,245.4l9.9-3.9c0,0,36.8-171.3-93.1-246.7L299.3,197.2z"/>
	<g>
		<g>
			<path class="st0" d="M-63.1,125.6c-10.1,0-18.4-8.2-18.4-18.4s8.2-18.4,18.4-18.4c10.1,0,18.4,8.2,18.4,18.4
				S-53,125.6-63.1,125.6z"/>
			<path class="st1" d="M-63.1,91.4c8.8,0,15.9,7.1,15.9,15.9s-7.1,15.9-15.9,15.9S-79,116-79,107.3S-71.9,91.4-63.1,91.4
				 M-63.1,86.4c-11.5,0-20.9,9.4-20.9,20.9s9.4,20.9,20.9,20.9c11.5,0,20.9-9.4,20.9-20.9S-51.6,86.4-63.1,86.4L-63.1,86.4z"/>
		</g>
		<g>
			<path class="st1" d="M-52.8,115.6c0,0,5.4-8.1-2.7-17.5c0,0-1.3,10.7-9.4,10.7s-5.4-8.1-5.4-8.1s-12.1,8.1,0,17.5
				c0,0,0-4,5.4-2.7C-59.5,116.9-52.8,107.5-52.8,115.6z"/>
			<g>
				<path class="st1" d="M-54.5,108.7c0.1,0.8,0,1.5-0.2,2.2c-0.1,0.7-0.4,1.3-0.7,1.9c-0.6,1.2-1.6,2.1-2.6,2.9
					c-1,0.8-2.2,1.3-3.3,1.7c-0.6,0.2-1.2,0.4-1.8,0.5l-1.8,0.4l1.7-0.6c0.6-0.2,1.1-0.5,1.6-0.8c1-0.6,2.1-1.2,2.9-2
					c0.8-0.8,1.5-1.7,1.9-2.8c0.2-0.5,0.3-1,0.4-1.6c0.1-0.5,0-1.1-0.1-1.5l0,0c-0.1-0.5,0.2-1.1,0.7-1.2c0.5-0.1,1.1,0.2,1.2,0.7
					C-54.5,108.6-54.5,108.6-54.5,108.7z"/>
			</g>
			<g>
				<path class="st1" d="M-51.8,110c0.1,0.8,0,1.5-0.2,2.2c-0.1,0.7-0.4,1.3-0.7,1.9c-0.6,1.2-1.6,2.1-2.6,2.9
					c-1,0.8-2.2,1.3-3.3,1.7c-0.6,0.2-1.2,0.4-1.8,0.5l-1.8,0.4l1.7-0.6c0.6-0.2,1.1-0.5,1.6-0.8c1-0.6,2.1-1.2,2.9-2
					c0.8-0.8,1.5-1.7,1.9-2.8c0.2-0.5,0.3-1,0.4-1.6c0.1-0.5,0-1.1-0.1-1.5l0,0c-0.1-0.5,0.2-1.1,0.7-1.2c0.5-0.1,1.1,0.2,1.2,0.7
					C-51.8,109.9-51.8,110-51.8,110z"/>
			</g>
		</g>
	</g>
	<g>
		<g>
			<path class="st0" d="M-36.4,175.8c-8.8,0-16-7.2-16-16s7.2-16,16-16s16,7.2,16,16S-27.6,175.8-36.4,175.8z"/>
			<path class="st1" d="M-36.4,146.2c7.5,0,13.5,6.1,13.5,13.5c0,7.5-6.1,13.5-13.5,13.5c-7.5,0-13.5-6.1-13.5-13.5
				C-49.9,152.3-43.9,146.2-36.4,146.2 M-36.4,141.2c-10.2,0-18.5,8.3-18.5,18.5s8.3,18.5,18.5,18.5s18.5-8.3,18.5-18.5
				S-26.2,141.2-36.4,141.2L-36.4,141.2z"/>
		</g>
		<g>
			<path class="st1" d="M-27.1,166c0,0,4.8-7.2-2.4-15.6c0,0-1.2,9.6-8.4,9.6s-4.8-7.2-4.8-7.2s-10.8,7.2,0,15.6c0,0,0-3.6,4.8-2.4
				C-33.1,167.2-27.1,158.9-27.1,166z"/>
			<g>
				<path class="st1" d="M-28.5,159.9c0.1,0.8,0,1.3-0.2,2c-0.1,0.6-0.4,1.2-0.7,1.7c-0.6,1.1-1.4,1.9-2.4,2.6c-0.9,0.7-2,1.1-3,1.5
					c-0.5,0.2-1,0.3-1.6,0.5l-1.6,0.3l1.5-0.6c0.5-0.2,1-0.5,1.5-0.7c0.9-0.5,1.8-1.1,2.5-1.8c0.7-0.7,1.3-1.5,1.6-2.4
					c0.2-0.5,0.3-0.9,0.3-1.4c0-0.4,0-1-0.1-1.3l0,0c-0.2-0.5,0.2-1.1,0.7-1.2c0.5-0.2,1.1,0.2,1.2,0.7
					C-28.5,159.7-28.5,159.8-28.5,159.9z"/>
			</g>
			<g>
				<path class="st1" d="M-26.1,161.1c0.1,0.8,0,1.3-0.2,2c-0.1,0.6-0.4,1.2-0.7,1.7c-0.6,1.1-1.4,1.9-2.4,2.6c-0.9,0.7-2,1.1-3,1.5
					c-0.5,0.2-1,0.3-1.6,0.5l-1.6,0.3l1.5-0.6c0.5-0.2,1-0.5,1.5-0.7c0.9-0.5,1.8-1.1,2.5-1.8c0.7-0.7,1.3-1.5,1.6-2.4
					c0.2-0.5,0.3-0.9,0.3-1.4c0-0.4,0-1-0.1-1.3l0,0c-0.2-0.5,0.2-1.1,0.7-1.2c0.5-0.2,1.1,0.2,1.2,0.7
					C-26.1,160.9-26.1,161-26.1,161.1z"/>
			</g>
		</g>
	</g>
	<g>
		<g>
			<path class="st0" d="M214.9,175.8c-6.4,0-12.2-3.8-14.7-9.6c-1.7-3.9-1.8-8.3-0.2-12.3c1.6-4,4.6-7.1,8.5-8.8
				c2-0.9,4.2-1.3,6.4-1.3c6.4,0,12.2,3.8,14.7,9.6c1.7,3.9,1.8,8.3,0.2,12.3c-1.6,4-4.6,7.1-8.5,8.8
				C219.2,175.3,217.1,175.8,214.9,175.8C214.9,175.8,214.9,175.8,214.9,175.8z"/>
			<path class="st1" d="M214.9,146.2c5.2,0,10.2,3,12.4,8.1c3,6.8-0.2,14.8-7,17.8c-1.8,0.8-3.6,1.1-5.4,1.1c-5.2,0-10.2-3-12.4-8.1
				c-3-6.8,0.2-14.8,7-17.8C211.2,146.6,213.1,146.2,214.9,146.2 M214.9,141.2c-2.5,0-5,0.5-7.4,1.5c-4.5,2-8,5.6-9.8,10.2
				s-1.7,9.6,0.2,14.2c2.9,6.8,9.6,11.1,17,11.1c2.5,0,5-0.5,7.4-1.5c4.5-2,8-5.6,9.8-10.2c1.8-4.6,1.7-9.6-0.2-14.2
				C228.9,145.6,222.3,141.2,214.9,141.2L214.9,141.2z"/>
		</g>
		<g>
			<path class="st1" d="M225.6,161.7c0,0,1.5-8.3-8.2-13.1c0,0,2.7,9.1-3.8,11.9c-6.5,2.8-7.1-4.6-7.1-4.6s-6.9,10.7,6.1,14
				c0,0-1.4-3.2,3.4-4C220.6,165.1,222.7,155.2,225.6,161.7z"/>
			<g>
				<path class="st1" d="M221.9,156.7c0.4,0.7,0.5,1.2,0.6,1.8c0.1,0.6,0.1,1.2,0.1,1.8c-0.1,1.2-0.5,2.3-1.1,3.2
					c-0.6,1-1.3,1.8-2.1,2.5c-0.4,0.3-0.8,0.7-1.2,1l-1.3,0.9l1.1-1.1c0.4-0.4,0.7-0.8,1-1.2c0.6-0.8,1.2-1.7,1.6-2.6
					c0.4-0.9,0.6-1.9,0.5-2.8c0-0.5-0.1-0.9-0.3-1.4c-0.1-0.4-0.4-0.9-0.6-1.1l0,0c-0.4-0.4-0.3-1.1,0.1-1.4s1.1-0.3,1.4,0.1
					C221.8,156.5,221.9,156.6,221.9,156.7z"/>
			</g>
			<g>
				<path class="st1" d="M224.5,156.8c0.4,0.7,0.5,1.2,0.6,1.8c0.1,0.6,0.1,1.2,0.1,1.8c-0.1,1.2-0.6,2.3-1.1,3.2
					c-0.6,1-1.3,1.8-2.1,2.5c-0.4,0.3-0.8,0.7-1.2,1l-1.3,0.9l1.1-1.1c0.4-0.4,0.7-0.8,1-1.2c0.6-0.8,1.2-1.7,1.6-2.6
					c0.4-0.9,0.6-1.9,0.5-2.8c0-0.5-0.1-0.9-0.3-1.4c-0.1-0.4-0.4-0.9-0.6-1.1l0,0c-0.4-0.4-0.3-1.1,0.1-1.4s1.1-0.3,1.4,0.1
					C224.4,156.7,224.5,156.7,224.5,156.8z"/>
			</g>
		</g>
	</g>
	<g>
		<g>
			<path class="st0" d="M244.3,132.4c-7.6,0-14.3-4.6-17.1-11.7c-1.8-4.6-1.7-9.6,0.3-14.1c2-4.5,5.6-8,10.1-9.7
				c2.1-0.8,4.4-1.3,6.7-1.3c7.6,0,14.3,4.6,17.1,11.7c3.7,9.4-1,20.1-10.4,23.8C248.8,131.9,246.6,132.4,244.3,132.4
				C244.3,132.4,244.3,132.4,244.3,132.4z"/>
			<path class="st1" d="M244.3,98.1c6.3,0,12.3,3.8,14.8,10.1c3.2,8.2-0.8,17.4-9,20.6c-1.9,0.7-3.8,1.1-5.8,1.1
				c-6.3,0-12.3-3.8-14.8-10.1c-3.2-8.2,0.8-17.4,9-20.6C240.4,98.5,242.4,98.1,244.3,98.1 M244.3,93.1c-2.6,0-5.2,0.5-7.6,1.4
				c-5.2,2-9.3,6-11.5,11.1c-2.2,5.1-2.4,10.8-0.3,16c3.2,8.1,10.8,13.3,19.4,13.3c2.6,0,5.2-0.5,7.6-1.4c10.7-4.2,16-16.3,11.9-27
				C260.6,98.3,252.9,93.1,244.3,93.1L244.3,93.1z"/>
		</g>
		<g>
			<path class="st1" d="M256.6,116.7c0,0,2.1-9.5-8.9-15.3c0,0,2.7,10.5-4.8,13.4c-7.5,2.9-7.9-5.6-7.9-5.6s-8.3,11.9,6.4,16.3
				c0,0-1.5-3.8,4-4.5C250.8,120.3,253.7,109.1,256.6,116.7z"/>
			<g>
				<path class="st1" d="M252.5,110.8c0.4,0.8,0.5,1.4,0.6,2.1c0.1,0.7,0.1,1.4,0,2c-0.2,1.3-0.7,2.6-1.4,3.6
					c-0.7,1.1-1.6,2-2.5,2.8c-0.5,0.4-1,0.8-1.4,1.1l-1.5,1l1.4-1.2c0.4-0.4,0.8-0.9,1.3-1.3c0.8-0.9,1.5-1.9,1.9-2.9
					c0.5-1,0.8-2.2,0.8-3.3c0-0.5-0.1-1.1-0.2-1.6c-0.1-0.5-0.4-1-0.6-1.3l0,0c-0.3-0.4-0.2-1.1,0.2-1.4c0.4-0.3,1.1-0.2,1.4,0.2
					C252.4,110.7,252.5,110.8,252.5,110.8z"/>
			</g>
			<g>
				<path class="st1" d="M255.5,111.1c0.4,0.8,0.5,1.4,0.6,2.1c0.1,0.7,0.1,1.4,0,2c-0.2,1.3-0.7,2.6-1.4,3.6
					c-0.7,1.1-1.6,2-2.5,2.8c-0.5,0.4-1,0.8-1.4,1.1l-1.5,1l1.4-1.2c0.4-0.4,0.8-0.9,1.3-1.3c0.8-0.9,1.5-1.9,1.9-2.9
					c0.5-1,0.8-2.2,0.8-3.3c0-0.5-0.1-1.1-0.2-1.6c-0.1-0.5-0.4-1-0.6-1.3l0,0c-0.3-0.4-0.2-1.1,0.2-1.4c0.4-0.3,1.1-0.2,1.4,0.2
					C255.4,111,255.4,111.1,255.5,111.1z"/>
			</g>
		</g>
	</g>
	<path class="st1" d="M16.4,566.9c0,0,0.7,23.6,6.7,31.3c0,0-25.7,22.4-37.4,40.5l-8.6-40.6l13.2-12.9c0,0,2.2,27.7,9.8,13.4
		s4.3-22.5,4.3-22.5L16.4,566.9z"/>
	<polygon class="st1" points="-55.5,718.6 -91.7,702.5 -86.2,690.7 	"/>
	<g>
		<g>
			<path class="st1" d="M44.1,723.7c5.6,20.7,16.2,35.1,33,33.5c13-1.3,22.5-8.7,29.5-19.3c23.8-36.4,17.3-111.1,17.3-111.1
				s29.3-6.6,33-20.2c0,0-16.1,11.7-38.7,12.1c-11.5,0.2-24.6-2.6-38.2-11.3c-16.5-10.7-29,6.2-35.5,32
				C38.1,664.8,37.4,698.8,44.1,723.7z"/>
			<path class="st1" d="M44.4,723.7c1.1,4,2.5,8,4.2,11.9c1.7,3.8,3.8,7.5,6.4,10.7c2.6,3.2,5.8,6,9.5,7.7c3.7,1.7,7.7,2.4,11.7,2
				c4-0.4,8-1.5,11.6-3.2c3.6-1.8,6.9-4.1,9.7-6.9c2.9-2.8,5.4-6,7.5-9.4c2.2-3.4,4-7.1,5.7-10.8c0.8-1.9,1.6-3.8,2.3-5.7
				c0.8-1.9,1.4-3.9,2-5.9c1.2-4,2.3-8,3.2-12c1.9-8.1,3.2-16.4,4.2-24.7c1-8.3,1.5-16.7,1.6-25.1c0.1-8.4-0.1-16.8-0.8-25.1
				c0-0.4,0.2-0.8,0.6-0.9l0,0c3.2-0.8,6.4-1.8,9.5-2.9c3.1-1.2,6.1-2.5,9-4c2.9-1.5,5.7-3.3,8.1-5.4c2.4-2.1,4.4-4.6,5.1-7.4
				l2.5,1.7c-2,1.5-4,2.7-6.1,3.8c-2.1,1.1-4.2,2.2-6.4,3.1c-4.4,1.9-8.9,3.4-13.6,4.4c-4.7,1-9.5,1.6-14.3,1.7
				c-2.4,0-4.8-0.1-7.2-0.3c-2.4-0.2-4.8-0.6-7.2-1.1c-4.7-1-9.3-2.5-13.8-4.4c-2.2-1-4.4-2-6.5-3.2c-2.1-1.1-4.2-2.6-6-3.5
				c-1.8-0.9-3.7-1.6-5.6-1.7c-1.9-0.2-3.7,0.2-5.5,1c-3.5,1.6-6.5,4.8-9,8.4c-2.4,3.6-4.4,7.7-6,11.9c-1.6,4.2-3,8.6-4.1,13
				c-2.3,8.9-3.9,18-5,27.1c-1,9.2-1.5,18.5-1.1,27.8c0.1,4.6,0.6,9.3,1.2,13.9C42.3,714.6,43.2,719.2,44.4,723.7z M43.9,723.8
				c-1.2-4.5-2.2-9.1-2.9-13.7c-0.4-2.3-0.7-4.6-1-6.9c-0.2-2.3-0.6-4.6-0.7-7c-0.8-9.3-1.2-18.7-0.7-28.1c0.2-4.7,0.6-9.4,1.1-14.1
				c0.3-2.3,0.6-4.7,1-7c0.2-1.2,0.4-2.3,0.6-3.5l0.8-3.5c1-4.6,2.3-9.2,4-13.7c1.7-4.5,3.7-8.9,6.4-13c1.3-2.1,2.9-4.1,4.7-5.9
				c1.8-1.8,4-3.4,6.5-4.5c2.5-1.1,5.3-1.7,8.1-1.4c2.8,0.2,5.4,1.1,7.7,2.3c2.4,1.3,4.1,2.6,6.1,3.7c1.9,1.1,4,2.1,6,3.1
				c4.1,1.8,8.3,3.3,12.7,4.3c2.2,0.5,4.4,0.9,6.6,1.1c2.2,0.3,4.5,0.4,6.7,0.4c4.5,0,9-0.4,13.4-1.3c4.4-0.9,8.8-2.1,13-3.8
				c4.2-1.6,8.4-3.6,12.1-6l0.1-0.1c0.7-0.5,1.7-0.3,2.2,0.5c0.3,0.4,0.3,0.9,0.2,1.3c-1.1,3.7-3.7,6.5-6.4,8.7
				c-2.7,2.2-5.7,3.9-8.8,5.4c-3.1,1.5-6.2,2.7-9.4,3.7c-3.2,1.1-6.4,2-9.7,2.8l0.6-0.9c0.6,8.4,0.8,16.9,0.8,25.3
				c0,8.4-0.2,16.9-0.7,25.3c-0.6,8.4-1.4,16.9-3,25.2c-1.5,8.4-3.7,16.7-7.1,24.6c-1.7,3.9-3.6,7.8-6,11.5c-2.4,3.6-5.1,7.1-8.5,10
				c-1.6,1.5-3.4,2.8-5.3,4c-1.9,1.2-3.9,2.2-5.9,3c-4.1,1.6-8.4,2.6-12.8,2.7c-4.4,0.2-8.9-0.9-12.7-3c-3.8-2.1-7-5.2-9.5-8.7
				c-2.5-3.4-4.5-7.2-6.1-11.1C46.3,731.9,45,727.9,43.9,723.8z"/>
		</g>
		<path class="st3" d="M44.5,639.4c21.5,4.1,48.2,8.7,53.4,6.9c5.6-1.9,14.4-16.6,20.3-27.6c-11.5,0.2-24.6-2.6-38.2-11.3
			C63.5,596.7,51.1,613.6,44.5,639.4z"/>
		<g>
			<path class="st0" d="M106.6,737.9c-6.9,10.6-16.5,18-29.5,19.3c-15.4,1.5-23.8-10.6-29.7-28.5c26.1,11.7,53.7-1.6,52.1-10.4
				c-3.1-16.3-41.8-15.8-2-27c0,0,12.8,8.1,20.6,18.8C115.5,720.4,111.7,730,106.6,737.9z"/>
			<path class="st1" d="M106.8,738.1c-1.9,2.8-3.9,5.6-6.2,8.1c-2.3,2.5-4.9,4.9-7.7,6.9c-2.9,2-6.1,3.6-9.4,4.7
				c-0.8,0.3-1.7,0.5-2.6,0.7c-0.9,0.2-1.7,0.4-2.6,0.6c-1.7,0.3-3.6,0.5-5.5,0.4c-3.7-0.1-7.5-1.3-10.6-3.4c-1.6-1-3-2.3-4.2-3.6
				c-1.3-1.3-2.4-2.8-3.3-4.3c-3.9-6-5.9-12.7-7.9-19.2l0,0c-0.1-0.5,0.1-0.9,0.6-1.1c0.2-0.1,0.4,0,0.6,0c8,3.8,17,5.2,25.8,4.3
				c4.4-0.4,8.7-1.5,12.7-3.1c2-0.8,4-1.8,5.8-2.9c1.8-1.2,3.4-2.5,4.6-4.1c0.6-0.8,1-1.6,1.1-2.3c0.1-0.4,0.1-0.7,0-1
				c-0.1-0.3-0.2-0.9-0.4-1.3c-0.7-1.7-1.9-3.3-3.4-4.6c-1.5-1.4-3.2-2.5-5.1-3.6c-1.9-1.1-3.8-2.1-5.8-3.2c-1-0.6-2-1.1-3.1-1.9
				c-0.5-0.4-1.1-0.8-1.7-1.5c-0.3-0.4-0.6-0.8-0.8-1.3c-0.2-0.5-0.4-1.3-0.3-2c0.1-0.7,0.3-1.3,0.6-1.8c0.3-0.5,0.6-0.8,0.9-1.1
				c0.6-0.6,1.2-1,1.7-1.4c1.1-0.7,2.2-1.3,3.3-1.8c4.3-1.9,8.7-3.2,13-4.5c0.8-0.2,1.5-0.1,2.2,0.3l0,0c2.1,1.3,4,2.7,5.9,4.2
				c1.9,1.5,3.7,3,5.5,4.7c1.8,1.6,3.5,3.3,5.1,5.1c1.6,1.8,3.1,3.7,4.4,5.8l0.1,0.2c0.3,0.5,0.4,1.1,0.2,1.6
				c-0.8,2.4-1.7,4.8-2.7,7.2c-1,2.4-2.1,4.7-3.2,7c-1.1,2.3-2.3,4.5-3.6,6.8C109.5,733.8,108.2,735.9,106.8,738.1z M106.4,737.8
				c1.4-2.1,2.6-4.3,3.6-6.6c1-2.3,1.9-4.7,2.7-7c0.7-2.4,1.4-4.8,1.9-7.3c0.6-2.4,1-4.9,1.5-7.3l0.3,1.8c-1.5-1.7-3-3.3-4.6-4.9
				c-1.6-1.6-3.2-3.1-5-4.6c-1.7-1.5-3.5-2.9-5.3-4.3c-1.8-1.4-3.7-2.7-5.5-3.9l2.2,0.3c-4.2,1.2-8.5,2.4-12.4,4
				c-1,0.4-1.9,0.8-2.7,1.3c-0.4,0.2-0.7,0.5-0.9,0.7c-0.2,0.2-0.2,0.3-0.1,0c0-0.1,0-0.3,0-0.3c0,0,0,0,0.1,0.1
				c0.1,0.2,0.4,0.5,0.8,0.7c0.7,0.6,1.6,1.1,2.5,1.7c3.7,2.2,8,4.4,11.4,7.9c1.7,1.8,3.2,3.9,4,6.4c0.2,0.7,0.3,1.2,0.4,2
				c0.1,0.8,0,1.6-0.2,2.3c-0.4,1.4-1.1,2.6-2,3.5c-1.7,1.9-3.6,3.3-5.7,4.4c-2,1.1-4.2,2-6.4,2.8c-4.4,1.5-8.9,2.3-13.4,2.6
				c-9.1,0.6-18.2-0.9-26.6-4.5l1.2-1.1c2.3,6.3,5.4,12.4,9.4,17.5c1,1.3,2.1,2.4,3.2,3.5c1.1,1.1,2.4,2,3.6,2.8
				c2.6,1.6,5.4,2.6,8.5,2.9c1.5,0.2,3.1,0.2,4.7,0.1c0.8-0.1,1.6-0.1,2.4-0.2c0.8-0.1,1.6-0.2,2.4-0.4c3.2-0.6,6.3-1.7,9.3-3.2
				c2.9-1.5,5.7-3.5,8.1-5.8C102.4,743.3,104.5,740.6,106.4,737.8z"/>
		</g>
	</g>
	<path class="st1" d="M-73.6,881.6l-14.6,84l-37.3-5.9c0,0,14.9-86.1-5.2-60.6c-13.4,17-14.6,57.6-14.6,57.6l-13.8-7.6
		c0,0,5.5-50.5,16-77.2C-143,871.9-122,882.7-73.6,881.6z"/>
	<g>
		<g>
			<path class="st0" d="M66.6,957.9c-2,0-3.7-1.5-4-3.5l-3.4-27.5l-24.7-27c-1-1.1-1.3-2.6-0.9-3.9c0.4-1.4,1.6-2.4,3-2.7l29.8-6.2
				c0.3-0.1,0.5-0.1,0.8-0.1c1.6,0,3,0.9,3.7,2.4l2.4,5.6l1.8-4.9c0.6-1.6,2.1-2.6,3.7-2.6c0.1,0,0.2,0,0.3,0l28.5,1.8
				c1.4,0.1,2.7,0.9,3.3,2.2c0.6,1.3,0.5,2.8-0.3,4l-21,30.7l-0.2,26.2c0,2.1-1.6,3.8-3.7,4l-18.9,1.4
				C66.8,957.9,66.7,957.9,66.6,957.9z"/>
			<path class="st1" d="M67.3,890.9l6.4,14.8l5.3-14.2l28.5,1.8l-21.7,31.7l-0.2,27.4l-18.9,1.4L63,925.1l-25.6-28L67.3,890.9
				 M67.3,882.9c-0.5,0-1.1,0.1-1.6,0.2l-29.8,6.2c-2.8,0.6-5.1,2.6-6,5.4s-0.2,5.7,1.7,7.9l23.8,26.1l3.2,26.3c0.5,4,3.9,7,7.9,7
				c0.2,0,0.4,0,0.6,0l18.9-1.4c4.2-0.3,7.4-3.7,7.4-7.9l0.2-25l20.3-29.7c1.6-2.4,1.8-5.4,0.6-8c-1.3-2.6-3.8-4.3-6.7-4.5
				l-28.5-1.8c-0.2,0-0.3,0-0.5,0c-2.1,0-4.1,0.8-5.5,2.2C71.9,883.9,69.6,882.9,67.3,882.9L67.3,882.9z"/>
		</g>
	</g>
	<path class="st1" d="M235.8,1091.3c0,0,43.1-18.1,99.5,10.1c0,0-43.6-3.6-29.9,15.7s47.3,11.2,42,0.5c0,0,23.8,14.5,22,36.1
		l-22.4,6.5c0,0-0.9-13-9-17c0,0-25.5,13.4-56.4,4c-30.9-9.4-25.5-36.3-1.3-47C280.3,1100,263.8,1094.6,235.8,1091.3z"/>
	<g>
		<path class="st1" d="M282.5,1109.8c-3.5-1.5-7.3-2.9-11.1-4.1c-3.8-1.2-7.7-2.2-11.6-3c-3.9-0.8-7.9-1.4-11.9-1.7
			c-4-0.4-8-0.3-12-0.2c4-0.6,8-1,12.1-1.1c4.1-0.1,8.1,0.1,12.2,0.5c4.1,0.4,8.1,1,12.1,1.8c4,0.8,8,1.8,12,3.1
			c1.3,0.4,2,1.8,1.6,3.2c-0.4,1.3-1.8,2-3.2,1.6C282.7,1109.9,282.6,1109.8,282.5,1109.8L282.5,1109.8z"/>
	</g>
	<g>
		<path class="st1" d="M238.1,1106.6c4.3-0.6,8.6-0.7,13-0.4c2.2,0.1,4.3,0.3,6.5,0.6c2.2,0.3,4.3,0.6,6.4,1
			c4.3,0.8,8.5,1.9,12.6,3.2c4.2,1.3,8.2,2.8,12.3,4.8l-0.2-0.1c5.1,2.1,9.8,4.5,14.4,7.2c4.6,2.7,9.1,5.6,13.4,8.9
			c4.2,3.3,8.3,6.8,12,10.7c1.9,1.9,3.6,4,5.2,6.1c1.6,2.1,3.1,4.3,4.4,6.6c-3.6-3.9-7.4-7.5-11.4-10.8c-2-1.7-4.1-3.3-6.2-4.8
			c-2.1-1.5-4.2-3-6.4-4.4c-4.3-2.9-8.8-5.5-13.3-8c-4.5-2.5-9.2-4.8-13.9-6.8l-0.1,0c0,0-0.1,0-0.1-0.1c-1.8-0.9-3.7-1.8-5.7-2.6
			c-1.9-0.8-3.9-1.6-5.9-2.3c-2-0.7-4-1.4-6-2.1c-2-0.7-4-1.3-6-1.9c-2-0.6-4.1-1.1-6.1-1.6c-2.1-0.5-4.1-0.9-6.2-1.3
			C246.6,1107.5,242.4,1107,238.1,1106.6z"/>
	</g>
	<g>
		<path class="st1" d="M235.8,1114.6c8.6-1.2,17.4-0.6,25.9,1.1c4.3,0.8,8.5,1.9,12.7,3.2c4.1,1.3,8.3,2.9,12.2,4.8
			c7.9,3.7,15.4,8.1,22.4,13.3c1.7,1.3,3.4,2.7,5.1,4.1c1.6,1.4,3.2,2.9,4.8,4.5c3,3.1,5.8,6.5,7.9,10.3c-5.9-6.3-12.8-11.2-20-15.7
			c-7.2-4.4-14.7-8.5-22.3-12c-7.6-3.6-15.5-6.4-23.7-8.8C252.7,1117.2,244.4,1115.5,235.8,1114.6z"/>
	</g>
	<path class="st1" d="M128.5,1108.1c0,0,60.9,5.7,65.4,53.9l-26.4-5.7c0,0-2.8-22-26.9-29.7s7.4,23.7,7.4,23.7l-23.3-6.8
		C124.6,1143.5,107,1121.5,128.5,1108.1z"/>
	<path class="st1" d="M193.9,859.6L216,928l-15.7,5.2c0,0-15.6-64.1-22.5-59.1s11.4,62.6,11.4,62.6l-9.1,2.7l-18.5-73.3L193.9,859.6
		z"/>
	<path class="st1" d="M-381.8,1132.3c0,0,32.2-18.8,150.4,5.4c0,0-31.6,0.7-23.5,18.1c8.1,17.5,59.8,0.7,58.4-8.7
		c0,0,36.3,0,15.4,19.5c0,0-0.7,0.7-20.1,6.7c1.1-0.4-42.6,21.3-75.2,5.4c-32.4-15.8-20.1-28.6-12.8-31.1
		C-289.2,1147.5-312,1132.3-381.8,1132.3z"/>
	<g>
		<path class="st1" d="M-279.8,1159.6c-3.3-1.8-7-3.4-10.6-4.9c-3.6-1.5-7.3-2.9-11-4.2c-7.4-2.6-15-4.8-22.7-6.8
			c-3.8-0.9-7.7-1.9-11.6-2.7c-3.9-0.9-7.8-1.6-11.7-2.3c-1.9-0.4-3.9-0.7-5.9-1l-5.9-0.9c-3.9-0.6-7.9-1-11.8-1.5
			c4,0.3,7.9,0.6,11.9,0.9l5.9,0.6c2,0.2,4,0.4,5.9,0.7c3.9,0.5,7.9,1,11.8,1.7c3.9,0.6,7.9,1.4,11.8,2.1c7.8,1.6,15.6,3.4,23.3,5.6
			c3.8,1.1,7.7,2.3,11.5,3.7c3.8,1.4,7.5,2.7,11.3,4.5c1.3,0.6,1.8,2.1,1.2,3.3s-2.1,1.8-3.3,1.2
			C-279.6,1159.7-279.7,1159.7-279.8,1159.6L-279.8,1159.6z"/>
	</g>
	<g>
		<path class="st1" d="M-280.1,1168.8c-0.6-0.4-1.5-1-2.3-1.4c-0.8-0.5-1.7-0.9-2.6-1.4c-0.9-0.5-1.7-0.9-2.6-1.3
			c-0.9-0.4-1.8-0.9-2.7-1.2c-1.8-0.8-3.6-1.6-5.5-2.3c-1.8-0.8-3.7-1.5-5.6-2.2c-7.5-2.8-15.1-5.2-22.8-7.4
			c-3.9-1.1-7.7-2.1-11.6-3.2c-3.9-1-7.8-2-11.7-2.9c-3.9-0.9-7.8-1.8-11.8-2.7l-11.8-2.5l11.9,1.9c4,0.7,7.9,1.4,11.9,2.1
			c4,0.7,7.9,1.5,11.9,2.3c3.9,0.9,7.9,1.7,11.8,2.6c7.9,1.8,15.7,3.9,23.4,6.3c1.9,0.6,3.9,1.2,5.8,1.9c1.9,0.6,3.8,1.4,5.7,2.1
			c1,0.3,1.9,0.8,2.9,1.1c1,0.4,1.9,0.8,2.8,1.2c0.9,0.4,1.9,0.9,2.8,1.3c1,0.5,1.8,0.9,2.9,1.6c1.2,0.7,1.5,2.3,0.8,3.5
			c-0.7,1.2-2.3,1.5-3.5,0.8c0,0-0.1,0-0.1-0.1L-280.1,1168.8z"/>
	</g>
	<g>
		<path class="st1" d="M-266.4,1178.3c-8.6-3-17.3-5.8-26-8.6c-8.7-2.8-17.4-5.6-26.1-8.3c-8.7-2.7-17.5-5.4-26.2-8
			c-8.8-2.6-17.5-5.2-26.3-7.7c8.9,2.1,17.8,4.3,26.6,6.5c8.9,2.2,17.7,4.5,26.6,6.8c8.8,2.3,17.7,4.7,26.5,7.1
			c8.8,2.4,17.6,4.9,26.4,7.5c1.3,0.4,2.1,1.8,1.7,3.1c-0.4,1.3-1.8,2.1-3.1,1.7C-266.3,1178.3-266.4,1178.3-266.4,1178.3
			L-266.4,1178.3z"/>
	</g>
	<g>
		<g>
			<path class="st0" d="M-238.6,707.5c0,0-122.9-49.4-186.2,11.1c-40,38.2,30.2,108.8,72.7,85c0,0,29.4,34,71.9,22.1
				c42.5-11.9,45.9,28.9,74.8,17c28.9-11.9,10.2-52.7-27.2-61.2C-232.6,781.4-196.1,724.5-238.6,707.5z"/>
			<path class="st1" d="M-238.7,707.8c-13.4-5.1-27.3-8.8-41.4-11.6c-3.5-0.7-7-1.3-10.6-1.8c-3.5-0.5-7.1-1-10.6-1.4
				c-7.1-0.8-14.2-1.3-21.3-1.5c-7.1-0.2-14.2-0.1-21.3,0.3c-3.5,0.2-7,0.5-10.5,0.9c-3.5,0.4-7,0.9-10.4,1.5
				c-6.9,1.2-13.7,2.8-20.3,5c-1.7,0.5-3.3,1.2-4.9,1.7c-1.6,0.7-3.2,1.2-4.8,2c-3.2,1.3-6.3,2.9-9.4,4.6c-3,1.7-6,3.5-8.9,5.5
				c-2.8,2-5.6,4.1-8.2,6.4c-1.3,1.1-2.6,2.3-3.7,3.5c-0.6,0.6-1.2,1.2-1.7,1.9l-0.8,1l-0.7,1c-2,2.7-3.6,5.7-4.7,8.9
				c-1.1,3.2-1.7,6.6-1.8,10c-0.1,3.4,0.2,6.9,1.1,10.3c0.8,3.4,1.9,6.7,3.4,9.9c1.5,3.2,3.3,6.2,5.2,9.2
				c7.9,11.7,19.3,21.1,32.2,26.7c6.5,2.7,13.4,4.4,20.2,4.5c3.4,0,6.8-0.3,10.1-1.2c3.3-0.8,6.4-2.1,9.2-3.8
				c1.1-0.6,2.4-0.4,3.2,0.4l0.2,0.2c13.9,13.9,33.4,23.3,52.9,22.6c4.9-0.2,9.7-0.9,14.4-2.2c1.1-0.3,2.5-0.7,3.8-1
				c1.3-0.3,2.7-0.6,4-0.9c2.7-0.5,5.5-0.8,8.3-0.9c5.6-0.2,11.5,0.7,16.8,2.9c5.4,2.1,10,5.3,14.3,8.4c4.2,3.1,8.2,6.3,12.2,8.2
				c4,2,8,2.4,12.3,1.3c2.1-0.5,4.3-1.4,6.3-2.4c2-1,3.7-2.3,5.1-3.8c1.4-1.5,2.5-3.3,3.2-5.2c0.7-1.9,1.1-4,1.1-6.2
				c0-2.2-0.4-4.4-1-6.6c-0.6-2.2-1.5-4.4-2.6-6.5c-2.2-4.2-5.2-8.1-8.7-11.6c-6.9-6.9-15.9-12-25.6-14.6l-0.1,0
				c-0.9-0.3-1.5-1.2-1.2-2.2c0-0.2,0.1-0.4,0.2-0.5c3.8-5.8,7.1-12.2,9.8-18.7c2.6-6.5,4.7-13.4,5.4-20.4c0.3-3.5,0.3-7-0.3-10.5
				c-0.6-3.5-1.7-6.8-3.4-9.9c-1.8-3-4.1-5.7-6.9-7.9C-232.3,710.9-235.4,709.2-238.7,707.8z M-238.4,707.1c3.3,1.4,6.6,3,9.4,5.3
				c2.9,2.2,5.4,4.9,7.2,8.1c1.9,3.1,3.1,6.6,3.8,10.2c0.7,3.6,0.8,7.2,0.6,10.9c-0.5,7.2-2.3,14.3-4.7,21.2
				c-1.2,3.4-2.6,6.8-4.1,10c-1.5,3.3-3.1,6.5-5,9.7l-1.1-2.7c10.5,2,20.6,6.6,28.9,13.7c4.2,3.5,7.8,7.7,10.7,12.6
				c1.4,2.4,2.7,5,3.6,7.7c0.9,2.7,1.5,5.6,1.6,8.6c0.1,3-0.2,6.1-1.2,9c-1,3-2.6,5.7-4.7,8c-2.1,2.3-4.6,4.1-7.2,5.6
				c-2.6,1.4-5.3,2.5-8.2,3.2c-2.9,0.8-6,1.1-9.1,0.8c-3.1-0.3-6.1-1.2-8.8-2.4c-2.7-1.2-5.1-2.8-7.3-4.4c-2.2-1.6-4.3-3.2-6.3-4.7
				c-4.1-3-8.1-5.7-12.4-7.4c-4.3-1.7-8.8-2.6-13.5-2.5c-2.3,0-4.7,0.3-7.1,0.7c-1.2,0.2-2.4,0.4-3.6,0.7l-3.7,0.9
				c-5.3,1.3-10.8,2-16.3,2.1c-11,0.1-21.9-2.5-31.6-7.3c-4.9-2.3-9.5-5.2-13.8-8.4c-2.1-1.6-4.2-3.3-6.2-5.1c-1-0.9-2-1.8-2.9-2.8
				c-1-1-1.8-1.9-2.8-3l3.4,0.6c-3.4,1.8-7.1,3.1-10.8,3.8c-3.8,0.8-7.6,0.9-11.3,0.7c-3.8-0.2-7.4-0.9-11-2c-3.6-1-7-2.3-10.3-3.9
				c-6.6-3.2-12.8-7.3-18.3-12c-5.6-4.7-10.5-10.2-14.7-16.2c-4.1-6-7.6-12.6-9.5-19.8c-2-7.1-2.4-14.9-0.4-22.3
				c1.9-7.4,6.4-14.1,11.9-19.2c5.3-5.1,11.3-9.7,17.6-13.5c6.4-3.7,13.2-6.9,20.2-9.2c3.5-1.2,7.1-2.2,10.6-3.1
				c3.6-0.9,7.2-1.6,10.8-2.1c7.3-1.1,14.6-1.7,21.9-1.7c7.3-0.1,14.6,0.3,21.8,1c14.5,1.5,28.7,4.3,42.7,7.8
				c7,1.8,13.9,3.7,20.8,5.9c3.4,1.1,6.9,2.2,10.3,3.3C-245.2,704.6-241.8,705.8-238.4,707.1z"/>
		</g>
		<path class="st1" d="M-340.4,778.6c0,0-48.4-7.3-62.3-32c-0.1-0.2-13.8,13-13.8,13S-400.9,810.9-340.4,778.6z"/>
		<g>
			<path class="st0" d="M-245.3,733.3c-17.6-7.3-19.8-72.4-19.8-72.4l-65.5-13.8c0,0-9.9,52.6-17.2,67.2"/>
			<path class="st1" d="M-245.3,733.3c-1.5-0.5-3-1.4-4.2-2.5c-1.2-1.1-2.3-2.4-3.3-3.7c-1.9-2.7-3.5-5.6-4.7-8.7
				c-2.6-6.1-4.4-12.4-5.9-18.7c-1.5-6.4-2.6-12.8-3.5-19.2c-0.4-3.2-0.8-6.5-1.1-9.7c-0.3-3.2-0.6-6.5-0.8-9.8l2.9,3.5
				c-5.5-1-11-2.1-16.4-3.2c-5.5-1.1-10.9-2.2-16.4-3.4c-5.5-1.2-10.9-2.4-16.3-3.6c-5.4-1.2-10.9-2.5-16.3-3.8l4.2-2.8
				c-1.2,5.7-2.5,11.4-3.9,17c-1.4,5.6-2.9,11.3-4.5,16.9c-1.6,5.6-3.3,11.2-5.2,16.7c-2,5.5-4,11-7,16c1-2.7,1.8-5.5,2.5-8.3
				c0.7-2.8,1.3-5.6,1.9-8.4c1.2-5.6,2.3-11.3,3.4-17c1.1-5.7,2-11.4,3-17.1l2.9-17.1c0.3-1.9,2.1-3.1,4-2.8l0,0l0.2,0
				c5.5,1,11,2.1,16.4,3.1c5.5,1.1,10.9,2.2,16.4,3.3c5.5,1.1,10.9,2.3,16.4,3.5c5.4,1.2,10.9,2.4,16.3,3.7l0.1,0
				c1.7,0.4,2.8,1.9,2.8,3.5c0.2,6.3,0.5,12.7,1,19c0.5,6.4,1.1,12.7,1.9,19c0.4,3.2,0.9,6.3,1.5,9.4c0.6,3.1,1.3,6.2,2.2,9.2
				c0.9,3,1.9,6,3.3,8.8C-249.9,729-248.1,731.7-245.3,733.3z"/>
		</g>
		<path class="st1" d="M-210.1,821.1c0,0-19-2.1-30.7-16.4c-11.7-14.3-33.7-8.5-30.7-18.7c2.9-10.2,41-58.5,39.5-64.4
			c-0.8-3.2-12.8-1.6-23.3,0.6c-8.6,1.8-17-4-18.5-12.6c-2.1-12.3-5.7-27.6-10.8-31.9c-8.8-7.3-30.7-7.3-30.7-7.3
			s-16.3,35.1-19.1,43.9l-71.6,11.7c0,0,7.1,26.5,39.5,36.6c42.4,13.2,77.6,0,77.6,0s-24.9,16.1-35.1,13.2
			c-10.2-2.9,11.7,43.9,43.9,38C-248.2,807.9-213.1,853.3-210.1,821.1z"/>
		<g>
			<path class="st0" d="M-204.2,705.7c0,0-18.6-26.4-45-18.6s-3.1,69.8,10.9,69.8C-224.3,756.9-204.2,760-204.2,705.7z"/>
			<path class="st1" d="M-204.5,705.8C-204.6,705.8-204.6,705.9-204.5,705.8L-204.5,705.8l-0.2-0.2l-0.3-0.3l-0.6-0.5l-1.2-1.1
				c-0.8-0.7-1.6-1.4-2.5-2c-1.6-1.3-3.4-2.6-5.1-3.7c-3.4-2.3-7-4.4-10.7-5.9c-1.9-0.8-3.7-1.4-5.6-1.8c-1.9-0.5-3.8-0.8-5.7-0.9
				c-3.8-0.3-7.7,0.1-11.5,0.9c-1.7,0.4-3.3,1-4.8,1.9c-1.5,1-2.7,2.3-3.7,3.9c-2.1,3.3-3.1,7.4-3.3,11.6c-0.4,8.4,2,16.9,5.6,24.5
				c1.8,3.8,3.9,7.5,6.1,10.9c1.1,1.7,2.3,3.3,3.5,4.9c1.2,1.5,2.6,2.9,3.9,3.9c0.7,0.5,1.3,0.8,1.8,1l0.3,0.1c0.1,0,0.2,0,0.2,0
				c0,0,0.1,0,0.1,0c0,0,0.1,0,0.1,0l0.2,0l0.8,0c2.2,0,4.3-0.1,6.2-0.2c3.9-0.3,7.4-1,10.2-2.8c1.4-0.9,2.7-2,3.9-3.3
				c1.2-1.3,2.2-2.9,3.1-4.6c1.8-3.4,3.2-7.2,4.3-11.2c0.5-2,1.1-4,1.5-6.1c0.2-1,0.4-2.1,0.6-3.1c0.2-1,0.4-2.1,0.6-3.1
				c0.2-1.1,0.3-2.1,0.6-3.2l0.5-3.2L-204.5,705.8z M-203.8,705.6c0.2,1,0.3,2.1,0.5,3.3l0.2,1.7l0.2,1.6l0.3,3.3
				c0.1,1.1,0.1,2.2,0.1,3.3c0,2.2,0.1,4.4-0.1,6.6c-0.1,2.2-0.3,4.4-0.6,6.7c-0.6,4.4-1.6,9-3.5,13.3c-1,2.2-2.2,4.3-3.7,6.4
				c-1.5,2-3.5,3.8-5.7,5.3c-2.2,1.4-4.7,2.5-7.2,3.1c-2.5,0.6-4.9,0.8-7.2,0.9c-2.3,0.1-4.6-0.1-6.7-0.1l-0.8,0l-0.5,0l-0.7-0.1
				c-0.5,0-0.9-0.2-1.4-0.3c-0.4-0.1-0.8-0.3-1.2-0.4c-1.5-0.6-2.7-1.5-3.7-2.3c-2-1.7-3.5-3.6-4.9-5.5c-1.3-1.9-2.5-3.9-3.4-6
				c-2-4.1-3.4-8.3-4.6-12.6c-1.2-4.3-2.1-8.6-2.8-12.9c-0.7-4.3-1.2-8.7-1.3-13.1c0-4.4,0.2-9,1.9-13.5c0.9-2.2,2.2-4.4,4-6.3
				c1.8-1.8,4.2-3.2,6.6-4c4.4-1.5,9.3-2.2,14-1.6c1.2,0.1,2.4,0.3,3.5,0.6c1.1,0.3,2.3,0.6,3.4,0.9c2.2,0.7,4.4,1.6,6.4,2.7
				c4.1,2.2,7.7,5,10.8,8.2c1.6,1.6,3,3.3,4.3,5.1c0.7,0.9,1.3,1.8,1.9,2.7c0.3,0.5,0.6,0.9,0.8,1.4l0.4,0.7L-203.8,705.6z"/>
		</g>
		<g>
			<path class="st0" d="M-264.6,655c0,0-21.5-24.1-52-17c-30.5,7.1-3.6,63.8,12.6,63.8S-264.6,704.6-264.6,655z"/>
			<path class="st1" d="M-265,655.1C-265,655.2-265,655.2-265,655.1L-265,655.1l-0.3-0.1l-0.3-0.2l-0.7-0.5l-1.4-0.9
				c-0.9-0.6-1.8-1.2-2.7-1.8c-1.8-1.2-3.7-2.2-5.6-3.2c-3.8-2-7.6-3.7-11.6-5c-3.9-1.3-8-2.3-12-2.7c-4.1-0.4-8.1-0.5-12.2-0.2
				c-0.5,0-1,0.1-1.5,0.1l-1.5,0.2c-1.1,0.1-2,0.2-2.9,0.4c-1.9,0.4-3.6,1.1-5.2,2.1c-3.2,2.1-5.4,5.8-6,9.9
				c-0.7,4.1-0.3,8.5,0.7,12.6c1,4.2,2.7,8.1,4.7,11.9c2,3.8,4.4,7.3,7,10.5c1.3,1.6,2.7,3.2,4.1,4.6c1.4,1.4,2.9,2.7,4.4,3.6
				c0.8,0.5,1.5,0.8,2.2,1.1l0.5,0.1c0.2,0,0.3,0.1,0.5,0.1l0.4,0c0.2,0,0.2,0,0.4,0c2.3-0.1,4.4-0.1,6.5-0.2
				c4.2-0.2,8.2-0.5,11.7-1.6c3.5-1.1,6.5-3,9-5.8c1.3-1.4,2.3-3,3.3-4.7l0.7-1.3l0.7-1.4c0.5-0.9,0.8-1.9,1.2-2.8
				c0.4-1,0.7-2,1-2.9l0.9-3l0.8-3.1l0.7-3.1c0.4-2.1,0.9-4.2,1.2-6.4L-265,655.1z M-264.3,654.9c0.2,1.1,0.3,2.2,0.5,3.4
				c0.1,1.2,0.2,2.3,0.3,3.4c0.2,2.2,0.2,4.5,0.2,6.7l-0.1,3.4l-0.3,3.4l-0.5,3.4c-0.2,1.1-0.4,2.3-0.7,3.4
				c-1.1,4.5-2.8,9.1-5.9,13.2c-1.5,2-3.4,3.9-5.5,5.4c-2.1,1.5-4.5,2.7-6.9,3.5c-4.8,1.6-9.7,2-14.3,1.9c-2.3,0-4.5-0.1-6.6-0.2
				c-0.3,0-0.8,0-1.2-0.1c-0.4-0.1-0.8-0.1-1.2-0.2l-1.1-0.3l-1.1-0.4c-1.4-0.6-2.5-1.3-3.6-2c-2.1-1.5-3.9-3.3-5.4-5.1
				c-1.6-1.8-2.9-3.7-4.1-5.7c-2.4-3.9-4.2-8.2-5.8-12.4c-1.5-4.3-2.6-8.7-3.4-13.1c-0.8-4.4-1.1-9-0.6-13.5
				c0.3-2.3,0.8-4.6,1.7-6.8c0.9-2.2,2.3-4.4,4.1-6.1c1.8-1.8,4-3.2,6.3-4.1c1.1-0.5,2.4-0.9,3.4-1.2l1.7-0.5l1.7-0.4
				c2.3-0.5,4.6-0.7,7-0.8c2.4,0,4.7,0.1,7,0.5c4.7,0.6,9.2,2.1,13.4,4c4.2,1.9,8.1,4.4,11.7,7.3c1.8,1.4,3.4,3,5,4.6
				c0.8,0.8,1.5,1.7,2.2,2.6c0.4,0.4,0.7,0.9,1,1.3l0.5,0.7l0.2,0.4L-264.3,654.9z"/>
		</g>
		<g>
			<path class="st0" d="M-338.5,673.9c0,0-26.4-22.7-51.9-7.6c-25.5,15.1,15.2,73.8,29.7,70.1C-346.1,732.7-324.2,730.6-338.5,673.9
				z"/>
			<path class="st1" d="M-338.9,674.1C-338.9,674.1-338.9,674.2-338.9,674.1l-0.1,0l-0.2-0.1l-0.4-0.2l-0.8-0.4l-1.5-0.8
				c-1-0.5-2.1-1-3.1-1.5c-2.1-1-4.2-1.8-6.3-2.6c-4.2-1.6-8.5-2.8-12.8-3.4c-2.1-0.3-4.3-0.5-6.4-0.5c-2.1,0-4.2,0.2-6.3,0.5
				c-4.1,0.7-8.1,2.1-11.9,4c-0.9,0.5-1.7,0.9-2.4,1.5c-0.8,0.5-1.4,1.2-2.1,1.9c-1.3,1.4-2.2,3.2-2.9,5.2c-1.3,4-1.2,8.6-0.3,13
				c1.9,8.9,6.6,17.1,12.2,24.2c2.8,3.6,6,6.8,9.2,9.9c1.6,1.5,3.3,2.9,5,4.2c1.7,1.3,3.5,2.4,5.2,3.1c0.8,0.3,1.6,0.5,2.2,0.6
				l0.4,0c0.1,0,0.2,0,0.3-0.1l1.3-0.4c2.3-0.6,4.4-1.2,6.5-1.9c4.1-1.4,7.6-3.1,10.1-5.7c1.3-1.3,2.3-2.8,3.2-4.6
				c0.9-1.7,1.5-3.7,2.1-5.7c1-4.1,1.4-8.5,1.5-12.9c0-2.2,0-4.5-0.1-6.8c0-1.1-0.1-2.3-0.2-3.4c-0.1-1.1-0.1-2.3-0.2-3.4
				c-0.1-1.1-0.2-2.3-0.3-3.4l-0.3-3.5L-338.9,674.1z M-338.2,673.7c0.4,1.1,0.9,2.2,1.3,3.3l0.6,1.7l0.6,1.7l1.1,3.4
				c0.3,1.1,0.6,2.3,1,3.4c0.6,2.3,1.2,4.6,1.6,6.9c0.5,2.3,0.9,4.7,1.1,7.1c0.5,4.8,0.6,9.7-0.2,14.8c-0.5,2.5-1.1,5.1-2.2,7.6
				c-1.1,2.5-2.6,4.9-4.5,6.9c-1.9,2.1-4.2,3.8-6.6,5c-2.4,1.3-4.9,2.2-7.3,2.8c-2.4,0.7-4.8,1.2-7,1.6l-0.8,0.2l-0.5,0.1l-0.7,0.1
				c-0.5,0.1-1,0.1-1.4,0.1c-0.5,0-0.9-0.1-1.3-0.1c-1.7-0.3-3.1-0.8-4.4-1.4c-2.5-1.3-4.6-2.8-6.5-4.5c-1.9-1.7-3.6-3.4-5.2-5.3
				c-3.2-3.7-5.8-7.7-8.2-11.9c-2.4-4.1-4.4-8.4-6.3-12.7c-1.9-4.3-3.5-8.7-4.8-13.3c-1.2-4.6-2.1-9.4-1.5-14.6
				c0.3-2.6,1.1-5.2,2.6-7.5c1.4-2.4,3.5-4.4,5.8-5.9c4.2-2.7,9.1-4.7,14.2-5.3c1.3-0.2,2.5-0.3,3.8-0.3c1.3,0,2.5,0,3.8,0.1
				c2.5,0.2,5,0.5,7.4,1.1c4.8,1.2,9.3,3.1,13.5,5.6c2.1,1.2,4,2.6,5.9,4.1c0.9,0.8,1.8,1.5,2.7,2.3c0.4,0.4,0.9,0.8,1.3,1.3
				l0.6,0.6l0.3,0.3L-338.2,673.7z"/>
		</g>
		<g>
			<path class="st0" d="M-394,700c0,0-26.4-22.7-51.9-7.6c-25.5,15.1,15.2,73.8,29.7,70.1C-401.6,758.8-379.7,756.7-394,700z"/>
			<path class="st1" d="M-394.4,700.2C-394.4,700.2-394.4,700.2-394.4,700.2l-0.1,0l-0.2-0.1l-0.4-0.2l-0.8-0.4l-1.5-0.8
				c-1-0.5-2.1-1-3.1-1.5c-2.1-1-4.2-1.8-6.3-2.6c-4.2-1.6-8.5-2.8-12.8-3.4c-2.1-0.3-4.3-0.5-6.4-0.5c-2.1,0-4.2,0.2-6.3,0.5
				c-4.1,0.7-8.1,2.1-11.9,4c-0.9,0.5-1.7,0.9-2.4,1.5c-0.8,0.5-1.4,1.2-2.1,1.9c-1.3,1.4-2.2,3.2-2.9,5.2c-1.3,4-1.2,8.6-0.3,13
				c1.9,8.9,6.6,17.1,12.2,24.2c2.8,3.6,6,6.8,9.2,9.9c1.6,1.5,3.3,2.9,5,4.2c1.7,1.3,3.5,2.4,5.2,3.1c0.8,0.3,1.6,0.5,2.2,0.6
				l0.4,0c0.1,0,0.2,0,0.3-0.1l1.3-0.4c2.3-0.6,4.4-1.2,6.5-1.9c4.1-1.4,7.6-3.1,10.1-5.7c1.3-1.3,2.3-2.8,3.2-4.6
				c0.9-1.7,1.5-3.7,2.1-5.7c1-4.1,1.4-8.5,1.5-12.9c0-2.2,0-4.5-0.1-6.8c0-1.1-0.1-2.3-0.2-3.4c-0.1-1.1-0.1-2.3-0.2-3.4
				c-0.1-1.1-0.2-2.3-0.3-3.4l-0.3-3.5L-394.4,700.2z M-393.7,699.8c0.4,1.1,0.9,2.2,1.3,3.3l0.6,1.7l0.6,1.7l1.1,3.4
				c0.3,1.1,0.6,2.3,1,3.4c0.6,2.3,1.2,4.6,1.6,6.9c0.5,2.3,0.9,4.7,1.1,7.1c0.5,4.8,0.6,9.7-0.2,14.8c-0.5,2.5-1.1,5.1-2.2,7.6
				c-1.1,2.5-2.6,4.9-4.5,6.9c-1.9,2.1-4.2,3.8-6.6,5c-2.4,1.3-4.9,2.2-7.3,2.8c-2.4,0.7-4.8,1.2-7,1.6l-0.8,0.2l-0.5,0.1l-0.7,0.1
				c-0.5,0.1-1,0.1-1.4,0.1c-0.5,0-0.9-0.1-1.3-0.1c-1.7-0.3-3.1-0.8-4.4-1.4c-2.5-1.3-4.6-2.8-6.5-4.5c-1.9-1.7-3.6-3.4-5.2-5.3
				c-3.2-3.7-5.8-7.7-8.2-11.9c-2.4-4.1-4.4-8.4-6.3-12.7c-1.9-4.3-3.5-8.7-4.8-13.3c-1.2-4.6-2.1-9.4-1.5-14.6
				c0.3-2.6,1.1-5.2,2.6-7.5c1.4-2.4,3.5-4.4,5.8-5.9c4.2-2.7,9.1-4.7,14.2-5.3c1.3-0.2,2.5-0.3,3.8-0.3c1.3,0,2.5,0,3.8,0.1
				c2.5,0.2,5,0.5,7.4,1.1c4.8,1.2,9.3,3.1,13.5,5.6c2.1,1.2,4,2.6,5.9,4.1c0.9,0.8,1.8,1.5,2.7,2.3c0.4,0.4,0.9,0.8,1.3,1.3
				l0.6,0.6l0.3,0.3L-393.7,699.8z"/>
		</g>
		<path class="st1" d="M-411.6,702.1c0,0,4.7,43.1-17.7,40.8c0,0,14.2,19.7,23,3.6c8.8-16.1,4.4-35.1,4.4-35.1
			S-402.3,704.5-411.6,702.1z"/>
		<path class="st3" d="M-217.5,726.9c0,0-18.3-14.4-26.5-4.8C-252.2,731.8-217.5,760.1-217.5,726.9z"/>
		<path class="st3" d="M-280.4,664.5c0,0-22-10.2-35.1-2.9c0,0,4.4,19,17.6,17.6S-274.5,674.7-280.4,664.5z"/>
		<path class="st3" d="M-347.7,695.6c0,0-17.6-4.7-30.7,3.3c-13.8,8.4,14.4,24.6,22.6,20C-347.7,714.2-344.8,717.9-347.7,695.6z"/>
		<path class="st3" d="M-406.2,726c0,0-20.1-5.1-27.6,5.5c-7.5,10.6,23.2,29.6,27.6,12.1C-401.8,726-406.2,726-406.2,726z"/>
	</g>
</g>
</svg>
