<?xml version="1.0" encoding="utf-8"?>
<!-- Generator: Adobe Illustrator 22.0.1, SVG Export Plug-In . SVG Version: 6.00 Build 0)  -->
<svg version="1.1" id="Capa_1" xmlns="http://www.w3.org/2000/svg" xmlns:xlink="http://www.w3.org/1999/xlink" x="0px" y="0px"
	 viewBox="0 0 1097.5 1215.7" style="enable-background:new 0 0 1097.5 1215.7;" xml:space="preserve">
<style type="text/css">
	.st0{fill:url(#SVGID_1_);}
	.st1{fill:#5E004D;}
	.st2{fill:#2AD8FF;}
	.st3{fill:#FFFFFF;}
	.st4{fill:url(#SVGID_2_);stroke:#5E004D;stroke-width:7.3547;stroke-linecap:round;stroke-linejoin:round;stroke-miterlimit:10;}
	.st5{fill:url(#SVGID_3_);stroke:#5E004D;stroke-width:7.3547;stroke-linecap:round;stroke-linejoin:round;stroke-miterlimit:10;}
	.st6{fill:#FFFFFF;stroke:#5E004D;stroke-width:7.3547;stroke-linecap:round;stroke-linejoin:round;stroke-miterlimit:10;}
	.st7{fill:url(#SVGID_4_);}
	.st8{fill:url(#SVGID_5_);}
	.st9{fill:url(#SVGID_6_);}
	.st10{fill:url(#SVGID_7_);}
	.st11{fill:url(#SVGID_8_);}
	.st12{fill:url(#SVGID_9_);stroke:#5E004D;stroke-width:7.3547;stroke-linecap:round;stroke-linejoin:round;stroke-miterlimit:10;}
	.st13{fill:url(#SVGID_10_);}
	.st14{fill:#FFFFFF;stroke:#5E004D;stroke-width:4.5967;stroke-linecap:round;stroke-linejoin:round;stroke-miterlimit:10;}
	.st15{fill:url(#SVGID_11_);}
	.st16{fill:url(#SVGID_12_);}
	.st17{fill:#5E004D;stroke:#5E004D;stroke-width:4.5967;stroke-linecap:round;stroke-linejoin:round;stroke-miterlimit:10;}
</style>
<g>
	<g>
		<g>
			
				<linearGradient id="SVGID_1_" gradientUnits="userSpaceOnUse" x1="12518.8574" y1="459.8717" x2="11930.5225" y2="489.787" gradientTransform="matrix(1 0 0 1 -12012.5391 0)">
				<stop  offset="5.181347e-03" style="stop-color:#FC1E79"/>
				<stop  offset="1" style="stop-color:#2AD8FF"/>
			</linearGradient>
			<path class="st0" d="M275.7,869.5c-3.8-1.9-7.6-3.9-11.4-6C106.2,776.3-95.5,225-95.5,225s4.5-71.2,71.4-124.8
				C-7.6,87,12.7,74.8,37.6,65.1c26.4-10.3,58-18,95.8-21.3c15.7-1.4,30.9-1.5,45.6-0.6c24.4,1.6,47.5,6.4,69.1,13.7
				C401,108.4,483.3,287,465.9,395.3c-21.4,133-180.3,450.2-33,414.7c74.5-18,21.7-76.9-5.1-52.5c0,0,9.8-14.2,23.9-22.7
				c18.6-11.3,44.6-12.8,65.9,40.3C553.9,866.3,428.6,946.8,275.7,869.5z"/>
			<path class="st1" d="M275.5,869.9l-10.4-5.5c-1.7-0.9-3.4-2-5.1-3c-1.7-1-3.4-2-5-3.1L250,855c-1.6-1.1-3.2-2.3-4.7-3.5
				c-1.6-1.2-3.2-2.3-4.7-3.6l-4.5-3.8c-12-10.2-23-21.5-33.5-33.2c-10.4-11.8-20.3-24.1-29.7-36.7c-9.4-12.6-18.4-25.5-27.2-38.6
				c-8.7-13.1-17.2-26.4-25.4-39.8c-8.2-13.4-16.2-27-24-40.6c-15.6-27.3-30.4-55.1-44.8-83.1c-28.6-56.1-55-113.2-79.8-171
				c-6.2-14.5-12.3-28.9-18.3-43.5c-6-14.5-11.9-29.1-17.7-43.7c-5.8-14.6-11.5-29.3-17.2-43.9c-5.6-14.7-11.1-29.4-16.5-44.2l0-0.1
				c-0.1-0.3-0.2-0.7-0.1-1c0.4-4,1-7.7,1.7-11.5c0.7-3.8,1.6-7.5,2.6-11.2c2-7.4,4.4-14.7,7.3-21.8c5.7-14.2,13.2-27.7,22-40.2
				c17.7-25,41.3-45.4,67.8-60.4C16.7,72.3,30.6,66,45,61c14.3-5.1,29-9,43.9-12c14.9-3,29.9-5,45-6.4c15.1-1.3,30.4-1.5,45.5-0.5
				c30.3,2.1,60.4,9,88.3,20.9l5.2,2.2c1.7,0.8,3.5,1.4,5.2,2.3l10.2,5c1.7,0.8,3.4,1.8,5,2.7l5,2.8c1.7,0.9,3.3,1.8,5,2.8l4.8,3
				l4.8,3c0.8,0.5,1.6,1,2.4,1.5l2.3,1.6l9.4,6.5c6,4.6,12.2,9.1,17.9,14.1l4.4,3.7c1.5,1.2,2.8,2.6,4.2,3.8l4.2,3.9
				c1.4,1.3,2.8,2.5,4.2,3.9l8.1,8.1c1.4,1.3,2.6,2.8,3.9,4.2l3.9,4.2c1.3,1.4,2.6,2.8,3.8,4.2l3.7,4.4c2.5,2.9,5,5.8,7.3,8.8
				c2.3,3,4.7,6,7,9l6.7,9.3c8.7,12.5,16.7,25.5,24,38.9c7.2,13.4,13.5,27.3,19.1,41.5c11.1,28.4,18.7,58.3,21.1,88.9
				c1.2,15.3,1,30.7-1.1,46c-0.4,3.8-1.2,7.6-1.9,11.3c-0.7,3.8-1.5,7.5-2.3,11.2c-1.6,7.4-3.5,14.8-5.4,22.2
				c-7.8,29.4-17.1,58.3-26.4,87.1c-9.3,28.8-18.8,57.5-27.7,86.4c-8.8,28.9-17.3,57.9-23.6,87.3c-3.1,14.7-5.6,29.5-6.8,44.3
				c-0.6,7.4-0.8,14.8-0.4,22.1c0.4,7.3,1.5,14.5,3.9,21.2c1.2,3.3,2.7,6.4,4.6,9.3c1,1.4,2,2.7,3.2,3.9c1.1,1.2,2.4,2.3,3.7,3.3
				c1.3,1,2.8,1.8,4.3,2.6c1.5,0.7,3.1,1.4,4.7,1.8c3.3,1,6.7,1.5,10.2,1.7c7.1,0.3,14.3-0.7,21.5-2.3c7.1-1.7,14.2-3.9,20.4-7.2
				c3.1-1.7,6.1-3.6,8.6-5.9c2.5-2.3,4.6-4.9,5.8-7.8c1.3-2.9,1.8-6,1.4-9.2c-0.4-3.1-1.6-6.2-3.4-9c-3.6-5.6-9.5-9.9-15.9-11.6
				c-3.2-0.8-6.5-1-9.6-0.2c-3.1,0.7-6,2.3-8.4,4.4l-0.1,0.1c-1.4,1.2-3.5,1.1-4.7-0.3c-1.1-1.2-1.1-3-0.2-4.2c1.5-2.1,3-4,4.7-5.9
				c1.6-1.9,3.3-3.7,5-5.4c3.5-3.5,7.2-6.7,11.3-9.6c4.1-2.8,8.5-5.4,13.4-7.1c4.8-1.7,10.1-2.6,15.3-2.1c2.6,0.2,5.2,0.8,7.7,1.6
				c2.5,0.9,4.8,2,7,3.3c4.4,2.7,8.1,6.2,11.4,9.9c6.5,7.5,11.2,16.2,15.3,25c2,4.4,3.8,8.9,5.4,13.5c1.5,4.6,2.7,9.4,3.5,14.2
				c1.6,9.7,1.4,19.6-0.7,29.2c-1,4.8-2.5,9.5-4.4,14c-1.9,4.5-4.2,8.8-6.9,12.9c-5.3,8.2-12,15.4-19.5,21.5
				c-15,12.3-33,20.4-51.5,25.1c-9.3,2.4-18.8,3.9-28.3,4.7c-9.5,0.9-19.1,0.9-28.7,0.4c-19.1-1-38-4.6-56.3-9.9
				C310.3,885.7,292.5,878.5,275.5,869.9z M275.8,869.2c17,8.5,34.8,15.7,53.1,20.9c18.3,5.3,37.2,8.6,56.2,9.4
				c9.5,0.4,19,0.2,28.5-0.7c9.4-1,18.8-2.6,28-5.1c18.3-4.9,35.8-13.1,50.1-25.4c7.2-6.1,13.5-13.2,18.4-21.1
				c2.5-4,4.6-8.1,6.4-12.4c1.7-4.3,3-8.8,3.9-13.3c1.8-9.1,1.8-18.5,0.2-27.7c-0.8-4.6-2-9.1-3.5-13.5c-1.6-4.3-3.4-8.7-5.4-12.9
				c-4-8.4-8.7-16.6-14.8-23.4c-3.1-3.4-6.5-6.3-10.3-8.6c-1.9-1.1-3.9-2-5.9-2.7c-2.1-0.7-4.2-1.1-6.3-1.2
				c-4.3-0.4-8.6,0.4-12.8,1.9c-4.1,1.5-8.1,3.8-11.8,6.4c-3.7,2.7-7.1,5.7-10.3,9c-1.6,1.6-3.2,3.4-4.6,5.1
				c-1.5,1.7-2.9,3.6-4.2,5.4l-5-4.4c3.2-2.9,7.1-5.1,11.4-6.1c4.3-1,8.7-0.9,12.9,0.2c4.1,1,8,2.9,11.4,5.4c3.4,2.4,6.4,5.5,8.7,9
				c2.3,3.5,4,7.6,4.6,12c0.6,4.4-0.1,9-1.8,13c-1.7,4.1-4.5,7.5-7.5,10.3c-3.1,2.8-6.5,5.1-10.1,7c-7.1,3.8-14.6,6.2-22.2,8
				c-7.6,1.8-15.4,2.9-23.5,2.6c-4-0.2-8.1-0.7-12.1-1.9c-2-0.6-3.9-1.4-5.9-2.2c-1.9-1-3.7-2-5.4-3.3c-3.5-2.5-6.4-5.6-8.8-9.1
				c-2.3-3.5-4.2-7.2-5.5-11c-2.7-7.6-3.9-15.5-4.4-23.3c-0.5-7.8-0.2-15.5,0.4-23.2c1.2-15.4,3.9-30.4,7-45.3
				c3.2-14.9,6.9-29.6,11-44.3c4-14.6,8.4-29.2,12.9-43.6c9-28.9,18.7-57.6,28.1-86.4c9.4-28.7,18.8-57.5,26.6-86.6
				c1.9-7.3,3.8-14.6,5.4-21.9c0.8-3.7,1.6-7.3,2.3-11c0.7-3.7,1.4-7.4,1.9-11c2.1-14.7,2.4-29.7,1.3-44.6
				c-2.2-29.8-9.4-59.3-20-87.3l-2-5.3l-2.2-5.2c-1.5-3.5-2.8-7-4.4-10.3c-1.6-3.4-3.1-6.9-4.7-10.2l-5.1-10.1
				c-7-13.3-14.7-26.2-23.2-38.6l-6.5-9.2c-2.2-3-4.6-6-6.8-9c-2.2-3-4.7-5.9-7.1-8.8l-3.6-4.3c-1.2-1.5-2.5-2.8-3.7-4.2
				c-9.9-11.3-20.7-21.9-32.1-31.7c-5.6-5-11.6-9.5-17.6-14.2l-9.2-6.5l-2.3-1.6c-0.8-0.5-1.6-1-2.4-1.5l-4.8-3l-4.8-3
				c-1.6-1-3.3-1.9-4.9-2.8l-4.9-2.8c-1.6-0.9-3.2-1.9-4.9-2.7L277,70.1c-1.7-0.9-3.4-1.6-5.1-2.4l-5.2-2.3l-5.2-2.2l-5.3-2l-5.3-2
				c-1.8-0.7-3.5-1.3-5.3-1.9c-7.1-2.4-14.4-4.4-21.7-6.2c-7.3-1.8-14.7-3.2-22.2-4.4c-7.4-1.1-14.9-1.9-22.5-2.5
				c-30.1-2.2-60.4,1-90,6.9c-29.5,6-58.4,15.9-84.5,31c-26.1,15-48.9,35.6-66,60.2c-8.5,12.3-15.6,25.6-21,39.6
				c-2.7,7-5,14.1-6.9,21.3c-0.9,3.6-1.7,7.3-2.4,10.9c-0.7,3.6-1.2,7.4-1.5,10.9l-0.1-1c11.1,29.3,22.8,58.5,34.6,87.6
				c5.9,14.5,11.9,29,18,43.5c6.1,14.5,12.2,28.9,18.4,43.4c12.5,28.8,25.1,57.6,38.2,86.1c6.6,14.3,13.1,28.5,19.8,42.7
				c6.7,14.2,13.6,28.3,20.5,42.4c13.8,28.2,28.2,56.1,43.3,83.6c7.5,13.8,15.3,27.4,23.2,40.9c8,13.5,16.1,26.9,24.7,40.1
				c17.1,26.3,35.2,52,55.8,75.7c10.3,11.8,21.2,23.1,33.2,33.3l4.5,3.8c1.5,1.3,3.1,2.4,4.6,3.6c1.6,1.2,3.1,2.4,4.7,3.5l4.9,3.3
				c1.6,1.1,3.3,2.1,5,3.1c1.7,1,3.3,2.1,5.1,3L275.8,869.2z"/>
		</g>
		<g>
			<path class="st1" d="M310.4,327c1.7,0.4,3.3,0.9,4.9,1.4c1.6,0.5,3.2,1,4.7,1.6c3.1,1.1,6.2,2.3,9.2,3.6c6.1,2.6,12,5.5,17.7,8.7
				c5.7,3.2,11.2,6.8,16.5,10.8c5.2,4,10.1,8.4,14.7,13.1c2.3,2.3,4.4,4.9,6.5,7.4l3,3.9c0.5,0.6,1,1.3,1.4,2l1.4,2
				c3.5,5.5,6.7,11.3,9,17.4l0.9,2.3l0.8,2.3c0.5,1.6,1,3.1,1.5,4.7c0.8,3.2,1.7,6.3,2.1,9.5c1.2,6.4,1.5,12.9,1.6,19.3
				c-0.4-6.4-1-12.9-2.5-19.1c-0.6-3.2-1.6-6.2-2.5-9.3c-0.5-1.5-1.1-3-1.7-4.5l-0.8-2.2l-1-2.2c-2.5-5.9-5.9-11.4-9.6-16.5
				l-1.4-1.9c-0.5-0.6-0.9-1.3-1.5-1.9l-3.1-3.7c-2.2-2.3-4.3-4.7-6.6-6.8c-4.6-4.4-9.6-8.4-14.8-12c-5.2-3.6-10.7-6.8-16.4-9.7
				c-5.7-2.9-11.5-5.4-17.4-7.6c-3-1.1-6-2.1-9-3c-1.5-0.4-3-0.9-4.5-1.3c-1.5-0.4-3.1-0.8-4.5-1.1l0,0c-2-0.4-3.3-2.3-2.9-4.3
				c0.4-2,2.3-3.3,4.3-2.9C310.3,327,310.4,327,310.4,327z"/>
		</g>
		<g>
			<path class="st1" d="M310.5,347.6c1.7,0.5,3.2,1,4.8,1.6c1.6,0.6,3.1,1.1,4.7,1.7c3.1,1.2,6.1,2.5,9.1,3.9
				c6,2.8,11.8,5.9,17.4,9.3c5.6,3.4,11,7.2,16.1,11.4c5.1,4.2,9.8,8.7,14.2,13.6c2.2,2.4,4.2,5,6.2,7.6l2.8,4
				c0.5,0.7,0.9,1.4,1.3,2.1l1.3,2.1c3.4,5.6,6.3,11.5,8.4,17.7l0.8,2.3l0.7,2.3c0.4,1.6,0.9,3.1,1.3,4.7c0.6,3.2,1.4,6.3,1.8,9.6
				c1,6.4,1,12.9,0.9,19.4c-0.2-6.5-0.5-12.9-1.8-19.2c-0.5-3.2-1.4-6.3-2.2-9.4c-0.4-1.5-1-3-1.5-4.6l-0.8-2.3l-0.9-2.2
				c-2.3-6-5.5-11.6-9-16.9l-1.3-2c-0.4-0.7-0.9-1.3-1.4-1.9l-2.9-3.8c-2.1-2.4-4.1-4.8-6.4-7.1c-4.4-4.5-9.2-8.7-14.3-12.5
				c-5.1-3.8-10.5-7.2-16-10.3c-5.6-3.1-11.3-5.8-17.1-8.2c-2.9-1.2-5.9-2.3-8.9-3.3c-1.5-0.5-3-1-4.5-1.4c-1.5-0.4-3.1-0.9-4.4-1.2
				l0,0c-2-0.5-3.2-2.5-2.7-4.4s2.5-3.2,4.4-2.7C310.4,347.5,310.4,347.5,310.5,347.6z"/>
		</g>
		<g>
			<path class="st1" d="M-4.6,174.3c-0.7-0.3-1.2-0.5-1.7-0.8c-0.5-0.3-1-0.5-1.6-0.8c-1-0.6-2-1.2-3-1.8c-1.9-1.3-3.8-2.6-5.5-4.1
				c-3.5-3-6.5-6.5-8.7-10.5c-1.1-2-2-4.1-2.8-6.2c-0.7-2.1-1.2-4.3-1.5-6.5c-0.5-4.4-0.2-8.8,0.7-13c-0.3,4.3,0,8.6,1.1,12.7
				c0.6,2,1.3,4,2.2,5.8c0.9,1.8,2,3.6,3.3,5.2c2.5,3.2,5.6,5.9,9,8.1c1.7,1.1,3.5,2.1,5.3,2.9c0.9,0.4,1.8,0.8,2.8,1.2
				c0.5,0.2,0.9,0.3,1.4,0.5c0.4,0.1,1,0.3,1.3,0.4c2,0.4,3.3,2.4,2.8,4.4c-0.4,2-2.4,3.3-4.4,2.8c-0.2,0-0.4-0.1-0.6-0.2
				L-4.6,174.3z"/>
		</g>
		<g>
			<path class="st1" d="M-13.5,184.5c-0.7-0.3-1.2-0.5-1.7-0.8c-0.5-0.3-1-0.5-1.6-0.8c-1-0.6-2-1.2-3-1.8c-1.9-1.3-3.8-2.6-5.5-4.1
				c-3.5-3-6.5-6.5-8.7-10.5c-1.1-2-2-4.1-2.8-6.2c-0.7-2.1-1.2-4.3-1.5-6.5c-0.5-4.4-0.2-8.8,0.7-13c-0.3,4.3,0,8.6,1.1,12.7
				c0.6,2,1.3,4,2.2,5.8c0.9,1.8,2,3.6,3.3,5.2c2.5,3.2,5.6,5.9,9,8.1c1.7,1.1,3.5,2.1,5.3,2.9c0.9,0.4,1.8,0.8,2.8,1.2
				c0.5,0.2,0.9,0.3,1.4,0.5c0.4,0.1,1,0.3,1.3,0.4c2,0.4,3.3,2.4,2.8,4.4s-2.4,3.3-4.4,2.8c-0.2,0-0.4-0.1-0.6-0.2L-13.5,184.5z"/>
		</g>
		<g>
			<path class="st1" d="M-19.9,196.1c-0.7-0.3-1.2-0.5-1.7-0.8c-0.5-0.3-1-0.5-1.6-0.8c-1-0.6-2-1.2-3-1.8c-1.9-1.3-3.8-2.6-5.5-4.1
				c-3.5-3-6.5-6.5-8.7-10.5c-1.1-2-2-4.1-2.8-6.2c-0.7-2.1-1.2-4.3-1.5-6.5c-0.5-4.4-0.2-8.8,0.7-13c-0.3,4.3,0,8.6,1.1,12.7
				c0.6,2,1.3,4,2.2,5.8c0.9,1.8,2,3.6,3.3,5.2c2.5,3.2,5.6,5.9,9,8.1c1.7,1.1,3.5,2.1,5.3,2.9c0.9,0.4,1.8,0.8,2.8,1.2
				c0.5,0.2,0.9,0.3,1.4,0.5c0.4,0.1,1,0.3,1.3,0.4c2,0.4,3.3,2.4,2.8,4.4s-2.4,3.3-4.4,2.8c-0.2,0-0.4-0.1-0.6-0.2L-19.9,196.1z"/>
		</g>
		<g>
			<path class="st1" d="M82.3,115.4c3.2-4.7,6.5-9.2,9.9-13.6c3.5-4.4,7-8.7,10.8-12.8c3.8-4.1,7.7-8.1,11.9-11.7
				c4.2-3.6,8.7-7,13.5-9.7c-4.5,3.2-8.5,7-12.2,11c-3.7,4-7.1,8.3-10.3,12.7c-3.2,4.4-6.2,9-9.1,13.6c-2.9,4.6-5.6,9.4-8.1,14.1
				l0,0c-0.9,1.8-3.2,2.5-5,1.6c-1.8-0.9-2.5-3.2-1.6-5C82.1,115.6,82.2,115.5,82.3,115.4z"/>
		</g>
		<g>
			<path class="st1" d="M95.1,121.8c3.2-4.7,6.5-9.2,9.9-13.6c3.5-4.4,7-8.7,10.8-12.8c3.8-4.1,7.7-8.1,11.9-11.7
				c4.2-3.6,8.7-7,13.5-9.7c-4.5,3.2-8.5,7-12.2,11c-3.7,4-7.1,8.3-10.3,12.7c-3.2,4.4-6.2,9-9.1,13.6c-2.9,4.6-5.6,9.4-8.1,14.1
				l0,0c-0.9,1.8-3.2,2.5-5,1.6c-1.8-0.9-2.5-3.2-1.6-5C95,122,95,121.9,95.1,121.8z"/>
		</g>
		<g>
			<path class="st1" d="M186.3,130.4c0.4-0.3,0.7-0.5,1-0.7c0.3-0.2,0.6-0.4,1-0.6c0.6-0.4,1.3-0.8,1.9-1.2c1.3-0.8,2.6-1.4,3.9-2.1
				c2.6-1.3,5.2-2.6,7.9-3.6c5.4-2.1,10.9-3.9,16.5-5.1c1.4-0.4,2.8-0.5,4.2-0.8c1.4-0.3,2.8-0.5,4.2-0.7l4.2-0.5
				c1.4-0.1,2.8-0.2,4.3-0.3c2.8-0.3,5.7-0.2,8.5-0.2c1.4,0,2.8,0.1,4.2,0.2l4.2,0.3l-4.2,0.2c-1.4,0.1-2.8,0.1-4.2,0.3
				c-2.8,0.3-5.6,0.5-8.3,1.1c-1.4,0.3-2.8,0.5-4.1,0.7l-4.1,1c-1.4,0.3-2.7,0.7-4,1.1c-1.3,0.4-2.7,0.7-4,1.2
				c-5.3,1.7-10.3,4-15.2,6.6c-2.4,1.3-4.8,2.7-7,4.2c-1.1,0.8-2.2,1.5-3.3,2.3c-0.5,0.4-1.1,0.8-1.6,1.2c-0.3,0.2-0.5,0.4-0.8,0.6
				c-0.2,0.2-0.5,0.4-0.7,0.6c-1.5,1.4-3.8,1.4-5.2-0.1s-1.4-3.8,0.1-5.2c0.1-0.1,0.2-0.2,0.3-0.3L186.3,130.4z"/>
		</g>
		<g>
			<path class="st1" d="M166.9,124.9c0.4-0.3,0.7-0.5,1-0.7c0.3-0.2,0.6-0.4,1-0.6c0.6-0.4,1.3-0.8,1.9-1.2c1.3-0.8,2.6-1.4,3.9-2.1
				c2.6-1.3,5.2-2.6,7.9-3.6c5.4-2.1,10.9-3.9,16.5-5.1c1.4-0.4,2.8-0.5,4.2-0.8c1.4-0.3,2.8-0.5,4.2-0.7l4.2-0.5
				c1.4-0.1,2.8-0.2,4.3-0.3c2.8-0.3,5.7-0.2,8.5-0.2c1.4,0,2.8,0.1,4.2,0.2l4.2,0.3l-4.2,0.2c-1.4,0.1-2.8,0.1-4.2,0.3
				c-2.8,0.3-5.6,0.5-8.3,1.1c-1.4,0.3-2.8,0.5-4.1,0.7l-4.1,1c-1.4,0.3-2.7,0.7-4,1.1c-1.3,0.4-2.7,0.7-4,1.2
				c-5.3,1.7-10.3,4-15.2,6.6c-2.4,1.3-4.8,2.7-7,4.2c-1.1,0.8-2.2,1.5-3.3,2.3c-0.5,0.4-1.1,0.8-1.6,1.2c-0.3,0.2-0.5,0.4-0.8,0.6
				c-0.2,0.2-0.5,0.4-0.7,0.6c-1.5,1.4-3.8,1.4-5.2-0.1s-1.4-3.8,0.1-5.2c0.1-0.1,0.2-0.2,0.3-0.3L166.9,124.9z"/>
		</g>
		<g>
			<path class="st1" d="M152.8,117c0.4-0.3,0.7-0.5,1-0.7c0.3-0.2,0.6-0.4,1-0.6c0.6-0.4,1.3-0.8,1.9-1.2c1.3-0.8,2.6-1.4,3.9-2.1
				c2.6-1.3,5.2-2.6,7.9-3.6c5.4-2.1,10.9-3.9,16.5-5.1c1.4-0.4,2.8-0.5,4.2-0.8c1.4-0.3,2.8-0.5,4.2-0.7l4.2-0.5
				c1.4-0.1,2.8-0.2,4.3-0.3c2.8-0.3,5.7-0.2,8.5-0.2c1.4,0,2.8,0.1,4.2,0.2l4.2,0.3l-4.2,0.2c-1.4,0.1-2.8,0.1-4.2,0.3
				c-2.8,0.3-5.6,0.5-8.3,1.1c-1.4,0.3-2.8,0.5-4.1,0.7l-4.1,1c-1.4,0.3-2.7,0.7-4,1.1c-1.3,0.4-2.7,0.7-4,1.2
				c-5.3,1.7-10.3,4-15.2,6.6c-2.4,1.3-4.8,2.7-7,4.2c-1.1,0.8-2.2,1.5-3.3,2.3c-0.5,0.4-1.1,0.8-1.6,1.2c-0.3,0.2-0.5,0.4-0.8,0.6
				c-0.2,0.2-0.5,0.4-0.7,0.6c-1.5,1.4-3.8,1.4-5.2-0.1s-1.4-3.8,0.1-5.2c0.1-0.1,0.2-0.2,0.3-0.3L152.8,117z"/>
		</g>
		<path class="st1" d="M-49.8,198.7c0,0,19.1-29.3,47.1-35.8c0,0-28-20.4-7.5-57.1c0,0-2.4,31.4,16.5,41c0,0-0.3-45.3,34.3-65.8
			c0,0-8.9,37.8-3,48.8c0,0,3.9-49.4,72.6-66.8c0,0-27.4,29.1-28.2,47c0,0,9.9,22.8,24.9,8.4s49.1-48.9,70.8-46
			c0,0-36.9,26.2-44.9,46c0,0,52.2-9.7,75,12c0,0,40.9-11,65.7-8.5c0,0-77.2,44.5-80,71.4l-60.7,36.7L-49.8,198.7z"/>
		<g>
			<path class="st1" d="M382.8,285.3c1,1.5,2,3,3,4.6C385.8,289.9,384.8,288.2,382.8,285.3z"/>
			<path class="st1" d="M409.8,411.9c0,0.1,0,0.2,0,0.3C409.8,412.2,409.8,412.1,409.8,411.9z"/>
			<path class="st1" d="M489.8,871.8c-37.7,12.2-71,13.4-71,13.4c12.8-2.6,19.4-14.4,19.4-14.4c-70.4,8.7-142.8-20.8-79.4-213.6
				s0-339.9,0-339.9c49.1,41.5,50.9,90,51,94.5c1-139.5-136.3-188.1-136.3-188.1c67.9,11.5,99.9,48.5,109.3,61.5
				C276.2,127,154.9,212.9,154.9,212.9l-77.7,36.6l31.7,423.9c51,88.4,105.4,162.5,155.4,190.1c3.8,2.1,7.6,4.1,11.4,6
				C365.8,915.1,446.3,905.8,489.8,871.8z"/>
		</g>
		<path class="st2" d="M274.4,867c-12-28.8-7-74.7,26.9-159.8c88.3-221.1,108.5-664.7-129.7-495l-16.8,0.7c0,0,67-87.9,157.7-59.7
			c113.7,35.5,109.2,333.9,11.6,557.4c-97.6,223.5,124.1,173.6,147.2,137.5c0,0-23.1,7.5-47.4,2.4c0,0,73.1-9.9,73.1-53
			c0-34.8-17.6-53.4-46.6-56.4c18.6-11.3,42.1-20.5,63.3,32.6C550.1,865,427.3,944.2,274.4,867z"/>
		<path class="st2" d="M41.6,184l-18.1,9.5c0,0-53.1-46-42.5-93.3C-2.5,87,13.9,77.4,38.9,67.6C-1.7,108.4,20.2,154.6,41.6,184z"/>
		<path class="st2" d="M236.6,55.6c-41.7,16.8-96.6,57-134.4,135.7H82c0,0,24-97.7,97-145.6C203.4,47.4,214.9,48.3,236.6,55.6z"/>
		<g>
			
				<ellipse transform="matrix(0.7071 -0.7071 0.7071 0.7071 -126.9783 130.3186)" class="st3" cx="93.8" cy="218.4" rx="79.9" ry="79.9"/>
			<path class="st1" d="M93.8,142.2c42.1,0,76.3,34.1,76.3,76.3c0,42.1-34.1,76.3-76.3,76.3s-76.3-34.1-76.3-76.3
				C17.6,176.3,51.7,142.2,93.8,142.2 M93.8,134.8c-46.1,0-83.6,37.5-83.6,83.6c0,46.1,37.5,83.6,83.6,83.6s83.6-37.5,83.6-83.6
				C177.4,172.3,139.9,134.8,93.8,134.8L93.8,134.8z"/>
		</g>
		<circle class="st1" cx="85.6" cy="218.9" r="66.8"/>
		<path class="st1" d="M381.2,798.9c0,0,5.9,20.3,18.2,26.1c0,0-26.7-2.2-36.7-26.1c0,0,11.8,64.4,93.9,32.8c0,0-23.7,1.6-29.5-3.8
			c0,0,46.3,1.4,62.7-34.3c0,0-14,15.6-21,16.5c0,0,25.5-29.4-1.3-48.2c0,0,17.8,39.5-34.6,48.2
			C380.5,818.7,381.2,798.9,381.2,798.9z"/>
		<g>
			<path class="st3" d="M31.6,75c26-11.1,54.1-18,91.9-21.3c15.7-1.4,30.9-1.5,45.6-0.6c24.4,1.6,47.5,6.4,69.1,13.7
				c152.9,51.5,235.2,230.1,217.8,338.4c-21.4,133-179,446.4-31.7,410.9c19.4-4.7,28.9-5.7,33.7-13.8c-5.9,4-19.2,8.7-30.2,11.4
				c-147.3,35.5,12.9-285.4,34.2-418.4C479.5,287,400.4,107.6,246.8,58.2C172,34.1,115.3,40.5,37.6,66.3
				C1.1,78.5-36,113.9-42.5,120.9C-38.6,117.3-14.4,94.6,31.6,75z"/>
		</g>
	</g>
	<g>
		<g>
			<path class="st3" d="M-17.1,736c0,0-52.5-75.7-101.5-41c-49,34.6-75.3,148.7-67.5,164.4s91.4,79.3,147.8,87.2l31.4-90.2
				l-39.8-18.6c0,0,11.9-29.3,30.7-22.3"/>
			<path class="st1" d="M-17.4,736.2c-6.3-7.7-13.1-15-20.5-21.6c-3.7-3.3-7.5-6.5-11.4-9.4c-4-2.9-8.1-5.6-12.3-7.9
				c-4.3-2.3-8.7-4.3-13.3-5.8c-4.5-1.5-9.2-2.4-13.9-2.6c-9.4-0.4-18.6,2.4-26.4,7.7c-3.9,2.6-7.6,5.8-11,9.2
				c-3.5,3.4-6.7,7-9.7,10.9c-6.1,7.6-11.4,15.9-16.3,24.5c-4.8,8.6-9.3,17.5-13.2,26.6c-3.9,9.1-7.5,18.4-10.5,27.9
				c-3,9.5-5.5,19.1-7.4,28.9c-0.9,4.9-1.7,9.8-2.3,14.7c-0.5,4.9-0.8,9.9-0.4,14.7c0.1,1.2,0.3,2.4,0.6,3.4
				c0.1,0.3,0.2,0.5,0.3,0.8c0.1,0.2,0.2,0.5,0.3,0.7c0.3,0.5,0.6,1,0.9,1.4c1.4,1.9,3,3.7,4.8,5.4c3.5,3.5,7.2,6.7,11,9.9
				c7.7,6.3,15.7,12.1,23.9,17.7c16.4,11.1,33.5,21.4,51.1,30.3c8.8,4.4,17.9,8.4,27.1,11.7c4.6,1.7,9.3,3.1,14,4.4
				c4.7,1.2,9.4,2.3,14.2,2.9l-4.2,2.6c2.6-7.5,5.2-15.1,7.9-22.6l8-22.5c2.7-7.5,5.4-15,8.1-22.5c2.7-7.5,5.4-15,8.2-22.4l1.6,3.8
				c-6.6-3.2-13.1-6.5-19.7-9.8c-6.5-3.3-13.1-6.6-19.6-9.9l-0.1-0.1c-0.9-0.4-1.2-1.5-0.8-2.4c1.6-3.4,3.3-6.4,5.4-9.4
				c2.1-2.9,4.4-5.7,7.1-8.1c2.7-2.4,5.9-4.4,9.4-5.3c3.5-1,7.4-0.6,10.6,0.8c0.2,0.1,0.3,0.3,0.2,0.5c-0.1,0.2-0.3,0.3-0.4,0.2
				c-1.6-0.5-3.3-0.8-5-0.8c-1.7,0-3.3,0.3-4.9,0.9c-3.2,1.1-5.9,3.1-8.3,5.5c-2.4,2.4-4.4,5.2-6.1,8.1c-1.7,2.9-3.3,6-4.5,9.1
				l-1-2.4c6.7,2.9,13.5,5.8,20.2,8.7c6.7,2.9,13.4,5.9,20.1,8.8c1.4,0.6,2.1,2.2,1.6,3.7l0,0.1c-2.5,7.6-5,15.1-7.5,22.7
				c-2.5,7.6-5,15.1-7.6,22.7l-7.7,22.6c-2.6,7.5-5.2,15-7.8,22.6c-0.6,1.8-2.4,2.8-4.2,2.6c-10.3-1.5-20.2-4.5-29.7-8.1
				c-9.5-3.6-18.7-7.9-27.7-12.5c-17.9-9.3-34.9-20.2-51-32.2c-8-6-15.9-12.4-23.4-19.1c-3.7-3.4-7.4-6.8-10.8-10.6
				c-1.7-1.9-3.4-3.8-4.8-6c-0.4-0.6-0.7-1.1-1-1.8c-0.2-0.3-0.3-0.7-0.4-1c-0.1-0.3-0.2-0.7-0.3-1c-0.3-1.3-0.5-2.6-0.6-3.9
				c-0.3-5.2,0.2-10.2,0.7-15.2c0.6-5,1.4-10,2.4-14.9c1-4.9,2-9.8,3.2-14.7c1.2-4.9,2.5-9.7,3.8-14.5c5.5-19.3,12.2-38.3,21.3-56.4
				c4.6-9,9.8-17.8,16-25.9c6.3-8.1,13.5-15.6,22.3-21.4c2.2-1.4,4.5-2.8,6.9-3.9c1.2-0.6,2.4-1,3.7-1.5c1.3-0.4,2.5-0.9,3.8-1.2
				c5.1-1.5,10.6-1.9,15.8-1.6c5.3,0.4,10.5,1.5,15.4,3.3c4.9,1.8,9.5,4.1,13.9,6.8c4.4,2.6,8.5,5.7,12.4,8.9
				c3.9,3.2,7.6,6.7,11.1,10.3c3.5,3.6,6.9,7.4,10,11.3c3.2,3.9,6.1,8,8.9,12.2c0.1,0.2,0.1,0.4-0.1,0.5
				C-17,736.4-17.2,736.4-17.4,736.2L-17.4,736.2z"/>
		</g>
		<path class="st1" d="M-146.9,729.9c0,0,21.2,36.5,27,43.9l-31.9,57.8l66.1,37.2L-57.1,755L-146.9,729.9z"/>
		
			<linearGradient id="SVGID_2_" gradientUnits="userSpaceOnUse" x1="389.9879" y1="871.0479" x2="55.3725" y2="888.0623" gradientTransform="matrix(-1 0 0 1 395.284 0)">
			<stop  offset="0" style="stop-color:#2AD8FF"/>
			<stop  offset="0.9948" style="stop-color:#FC1E79"/>
		</linearGradient>
		<path class="st4" d="M-174.4,781.1c-39-11.8-73.6,92.6-44.9,113.8c28.6,21.2,104.9,60,122.8,50.3S-81,889.2-81,889.2
			S-135.4,792.9-174.4,781.1z"/>
	</g>
	<g>
		
			<linearGradient id="SVGID_3_" gradientUnits="userSpaceOnUse" x1="390.2552" y1="876.3045" x2="55.6398" y2="893.3188" gradientTransform="matrix(-1 0 0 1 395.284 0)">
			<stop  offset="0" style="stop-color:#2AD8FF"/>
			<stop  offset="0.9948" style="stop-color:#FC1E79"/>
		</linearGradient>
		<path class="st5" d="M-211,1210.4c61.9,22.5,191.5-8.2,191.5-8.2C52.4,1058,60.8,1074.3,72.2,1076c11.5,1.7,1.8,124.9,1.8,124.9
			c83.1,25.9,170.8,0,170.8,0c15.6-98.9,31.6-193.3,46.6-277.6c16.8-94.8,32.4-177,44.3-238.6c14.6-75.1,23.8-119.7,23.8-119.7
			c-91.3-76-305.1,38.6-403.7,98.9c-31.7,19.4-65.6,36.7-65.6,36.7c22.8,77.2,4,156-14,234.2C-157.9,1083.6-211,1210.4-211,1210.4z"
			/>
		<g>
			<path class="st1" d="M158.7,1051.1l-3,54.5l-4.4-54.4l0-0.1c-0.2-2,1.4-3.8,3.4-4c2-0.2,3.8,1.4,4,3.4
				C158.7,1050.7,158.7,1050.9,158.7,1051.1z"/>
		</g>
		<path class="st1" d="M255.1,1012c0,0-8.2,60.1-17.1,97.9l-74.6,16.6c0,0,4.6-57.4,4.6-99.5L255.1,1012z"/>
		<g>
			<path class="st1" d="M203.1,790.8c0,0.4,0.1,0.6,0.1,0.9c0,0.3,0,0.5,0,0.7c0,0.5,0,1,0,1.4c0,0.9,0,1.9,0,2.8
				c-0.1,1.8-0.2,3.6-0.3,5.4c-0.3,3.6-0.7,7.1-1.1,10.6c-0.9,7-2.1,14-3.4,20.9c-0.7,3.5-1.4,6.9-2.1,10.4
				c-0.8,3.4-1.5,6.9-2.3,10.3l-2.4,10.3l-2.5,10.2l1.6-10.4l1.5-10.4c0.5-3.5,0.9-7,1.3-10.4c0.4-3.5,0.8-7,1.2-10.4
				c0.7-7,1.3-13.9,1.6-20.9c0.1-3.5,0.3-6.9,0.2-10.4c0-1.7-0.1-3.4-0.2-5.1c0-0.8-0.1-1.7-0.2-2.5c0-0.4-0.1-0.8-0.1-1.2
				c0-0.2,0-0.4-0.1-0.6c0-0.2-0.1-0.4-0.1-0.4c-0.7-1.9,0.4-4.1,2.3-4.7c1.9-0.7,4.1,0.4,4.7,2.3c0.1,0.2,0.1,0.5,0.2,0.7
				L203.1,790.8z"/>
		</g>
		<g>
			<path class="st1" d="M168.1,901.6c1.8-6.4,3.6-13,5.2-19.5c1.7-6.5,3.3-13.1,4.8-19.6c1.5-6.6,3-13.1,4.4-19.7
				c1.4-6.6,2.6-13.2,3.8-19.8c-0.9,6.7-1.8,13.4-2.9,20c-1.1,6.7-2.2,13.3-3.5,19.9c-1.2,6.6-2.5,13.3-3.9,19.9
				c-1.4,6.6-2.8,13.2-4.4,19.8c-0.2,1-1.2,1.6-2.2,1.4S167.9,902.7,168.1,901.6C168.1,901.7,168.1,901.6,168.1,901.6L168.1,901.6z"
				/>
		</g>
		<path class="st1" d="M288.7,820.2c0,0-23.6,80.5-22.5,112l-91.7,0.3c0,0,50.4-62.3,23.6-141.2L268,756L288.7,820.2z"/>
		<path class="st1" d="M-123.5,1026.4c0,0,137.3,44.1,121.4,71.5c-16.1,27.7-113.7-9-144.5,0l163.2,35.9l31.6-60.4l-150.4-54.2
			C-102.2,1019.3-139.8,1014.2-123.5,1026.4z"/>
		<path class="st1" d="M150,1051.3c0,0-42.5,24.8-34.5,38.1c8,13.2,39.7,15.5,42.2,25.9l-80,14.6c0,0,0.5-35.9-5.5-53.8
			C66.2,1058.2,150,1051.3,150,1051.3z"/>
		<path class="st6" d="M231.6,926.5L78,849c0,0-132.6,55.8-142.9,92.9c-10.3,37.1,287.8,4.6,287.8,4.6L231.6,926.5z"/>
		<path class="st1" d="M-31.1,930.4c0,0,67.3-33.7,112.2-46.5c0,0,85.2,43.7,103.5,75.5s47-32.9,47-32.9L78,849l-142.9,92.9
			L-31.1,930.4z"/>
		<g>
			<path class="st3" d="M225.3,950.5c-1.2,0-2.3-0.1-3.3-0.4c-0.3-0.1-0.7-0.2-1-0.4c-31.9-19.8-118.7-71-140.1-72
				c-9.5,3.5-118.5,44.3-143.3,67c-0.7,0.6-1.6,1-2.5,1c-0.4,0-0.8-0.1-1.2-0.2c-0.2-0.1-18.6-6.1-36.9-9.7
				c-1.3-0.3-2.4-1.2-2.8-2.5c-0.4-1.3-0.1-2.7,0.8-3.6c22.5-24,60.9-47.5,114.2-69.7c39.5-16.5,72.9-26.2,73.2-26.3
				c0.3-0.1,0.7-0.1,1-0.1c0.2,0,0.5,0,0.7,0.1c29.6,5.9,68.6,23.8,115.8,53.3c35,21.9,61.8,42.3,62,42.5c1,0.7,1.5,1.9,1.4,3.1
				s-0.7,2.3-1.7,2.9C259.3,936.9,237,950.5,225.3,950.5z"/>
			<path class="st1" d="M83.5,837.1c70.4,14,176.3,95.1,176.3,95.1s-23.6,14.6-34.6,14.6c-0.9,0-1.6-0.1-2.3-0.3
				c0,0-116.9-72.6-142.6-72.6c0,0-118.5,43.6-145.1,68c0,0-18.6-6.2-37.4-9.8C-48.7,875.2,83.5,837.1,83.5,837.1 M83.5,829.8
				c-0.7,0-1.4,0.1-2,0.3c-0.3,0.1-33.9,9.8-73.6,26.4c-53.7,22.5-92.6,46.2-115.4,70.6c-1.8,2-2.5,4.7-1.6,7.3c0.8,2.5,3,4.4,5.6,5
				c18.1,3.5,36.3,9.5,36.5,9.6c0.8,0.3,1.5,0.4,2.3,0.4c1.8,0,3.6-0.7,5-1.9c7.2-6.6,26.9-19.1,80.4-41.8
				c28.4-12,54.7-21.9,60.9-24.2c5.7,0.6,23.4,5.7,76.2,35.3c31.9,17.9,61.1,36,61.4,36.2c0.6,0.4,1.3,0.7,2,0.8
				c1.3,0.4,2.7,0.5,4.2,0.5c12.5,0,34.3-13.1,38.5-15.7c2.1-1.3,3.4-3.5,3.5-5.9c0.1-2.4-1-4.7-2.9-6.2
				c-0.3-0.2-27.2-20.7-62.3-42.7c-47.6-29.7-87-47.8-117-53.8C84.5,829.8,84,829.8,83.5,829.8L83.5,829.8z"/>
		</g>
		<path class="st1" d="M177.6,868.8l-10.4,44.4l11.6,8.5c0,0,17.3-33.6,18.5-13.6c1.3,20,1.3,20,1.3,20l10.2,1.2l10-26.9
			L177.6,868.8z"/>
		<path class="st6" d="M307.9,832.4c0,0-41.7,44.9-76.3-104.9l96.2-6.7L307.9,832.4z"/>
		<path class="st6" d="M258.2,1104.5c0,0-112.4,8.2-180.5,25.3l-3.7,71.1l170.9,0L258.2,1104.5z"/>
		
			<linearGradient id="SVGID_4_" gradientUnits="userSpaceOnUse" x1="403.9472" y1="1145.5809" x2="69.3318" y2="1162.5952" gradientTransform="matrix(-1 0 0 1 395.284 0)">
			<stop  offset="0" style="stop-color:#2AD8FF"/>
			<stop  offset="0.9948" style="stop-color:#FC1E79"/>
		</linearGradient>
		<polygon class="st7" points="201.8,1114.4 129.4,1124.3 145.8,1195.3 199.7,1185.8 		"/>
		<polygon class="st1" points="141,1119.8 145.8,1191.5 134.1,1196.4 129.4,1120.4 		"/>
		<path class="st1" d="M238,1109.9l-3.8,72.1l-41.8,4.8c0,0-3.6-69.7-9.8-60.3c-6.2,9.4-5.5,55.5-5.5,55.5l-11.5,4.8l0.6-71.5
			L238,1109.9z"/>
		<path class="st6" d="M80.2,1147c0,0,98.5-22.4,177-26.6l-2.6,16c0,0-15,2.2-33,3.9l0.1,41.7l-29.4,4.8l1.3-44.4
			c0,0-87.6,12-114.9,21.2L80.2,1147z"/>
		<path class="st6" d="M16.6,1133.8c0,0-124.3-30.2-187.2-35.9l-40.4,112.5l191.4-7.6L16.6,1133.8z"/>
		<polygon class="st1" points="-112.5,1105.4 -130.2,1170 -157,1182 -146.6,1097.9 		"/>
		
			<linearGradient id="SVGID_5_" gradientUnits="userSpaceOnUse" x1="404.6895" y1="1160.1804" x2="70.0741" y2="1177.1948" gradientTransform="matrix(-1 0 0 1 395.284 0)">
			<stop  offset="0" style="stop-color:#2AD8FF"/>
			<stop  offset="0.9948" style="stop-color:#FC1E79"/>
		</linearGradient>
		<polygon class="st8" points="-35.2,1127.8 -115,1110.5 -146.6,1185.8 -67.4,1201.5 		"/>
		<path class="st1" d="M-8.3,1128.3l-31.9,72.6l-24.6-4.5c0,0,28-65.5,12.2-60s-25.7,53.4-25.7,53.4l-15-2.1l22.3-76.6L-8.3,1128.3z
			"/>
		<path class="st6" d="M7.7,1150.8c0,0-104.9-31.4-183.4-35.5l-6.4,16c0,0,21.4,2.2,39.4,3.9L-157,1182l26.8,4.8l14.1-47
			c0,0,86.3,15.8,113.7,25L7.7,1150.8z"/>
		<path class="st6" d="M72.2,1076l-24,1.3c0,0-105-62.8-192.3-54.4l19.1-88.6l407.8,36.2l-9.2,55.2
			C273.6,1025.8,182.6,1029.7,72.2,1076z"/>
		<path class="st1" d="M125.6,1002c0,0,202.2-2.5,63.7,20.1c-8.3,1.3-115.8,32-115.8,32l-50.7,7.7l30.3,11.6l15.3-1.3
			c0,0,120.5-48.8,203.9-50.2l7.6-40.4L125.6,1002z"/>
		<g>
			<path class="st3" d="M303.1,816.3c0,0,144-424.2,157.5-618.3l-132.3-48.5c0,0-67.9,218.4-80.3,257.5c0,0-69.9,227.1-71,285.9"/>
			<path class="st1" d="M302.7,816.2c15.7-50.9,31.2-101.8,46.4-152.9c7.6-25.5,15-51.1,22.4-76.7l10.9-38.4l10.8-38.4
				c7.1-25.6,14.3-51.3,21.1-77c3.4-12.9,6.7-25.8,10-38.7c3.2-12.9,6.4-25.8,9.4-38.8c5.9-25.9,11.3-52,15.8-78.3
				c2.2-13.1,4.3-26.3,5.9-39.5l1.2-9.9l1-9.9l0.9-9.9l0.7-9.9l1,1.6l-66.4-23.5l-33.2-11.7l-33.2-11.8l4-2l-41.4,135
				c-6.9,22.5-13.9,45-20.9,67.4c-6.9,22.5-14.2,44.9-21.1,67.3c-6.8,22.5-13.7,45-20.3,67.6c-6.7,22.6-13.1,45.2-19.4,67.8
				c-6.3,22.6-12.4,45.4-17.9,68.2c-2.8,11.4-5.5,22.9-7.8,34.4c-1.2,5.8-2.2,11.5-3.1,17.3c-0.9,5.8-1.7,11.6-1.9,17.5l0,0
				c0,0.2-0.2,0.4-0.4,0.3c-0.2,0-0.4-0.2-0.4-0.4c0.1-11.8,1.8-23.5,3.7-35.2c1.9-11.6,4.2-23.2,6.6-34.7c4.9-23,10.4-46,16.2-68.8
				c11.6-45.7,24.3-91,37.7-136.2l2.5-8.5l2.6-8.5l5.2-16.9c3.4-11.2,6.9-22.5,10.4-33.7c7-22.5,14-44.9,21.1-67.3l42.7-134.6l0,0
				c0.5-1.6,2.2-2.5,3.8-2c0,0,0.1,0,0.2,0.1l33,12.4l32.9,12.5l65.9,25l0,0c0.7,0.2,1,0.9,1,1.6c-2.2,26.6-6.1,53-10.6,79.3
				c-2.3,13.1-4.7,26.2-7.2,39.3c-2.6,13.1-5.2,26.1-8,39.2c-5.5,26.1-11.3,52.1-17.5,78c-6.2,25.9-12.6,51.8-19.5,77.5
				c-6.9,25.7-14.2,51.4-21.7,76.9c-7.5,25.6-15.3,51.1-23.3,76.5c-8,25.4-16.2,50.8-24.7,76c-8.5,25.3-17.1,50.5-26.3,75.5
				c-0.1,0.2-0.3,0.3-0.5,0.2C302.8,816.5,302.7,816.3,302.7,816.2z"/>
		</g>
		<path class="st1" d="M-105.1,740.4c0,0,49.9,70.8,107.2,66.3c0,0,14.4,27.5,73.4,24.9c53.4-2.3,58.6-23,58.6-23
			s193.7-11.6,170.6-98.6L-105.1,740.4z"/>
		<g>
			<g>
				<path class="st3" d="M69.2,1201.8c0,0,209.6-54.7,237.5,15.1C325.3,1263.5,19.2,1258.8,69.2,1201.8z"/>
				<path class="st1" d="M69,1201.4c0.3-0.1,0.4-0.1,0.6-0.2l0.5-0.2l1-0.3l2-0.6c1.3-0.4,2.7-0.8,4-1.2c2.7-0.8,5.3-1.6,8-2.3
					c5.4-1.4,10.8-2.9,16.2-4.1c5.4-1.3,10.8-2.5,16.3-3.6c5.5-1.1,10.9-2.2,16.4-3.2c5.5-1,11-1.9,16.5-2.7
					c5.5-0.8,11-1.5,16.6-2.1c11.1-1.3,22.2-2.1,33.4-2.3c11.2-0.2,22.4,0.3,33.5,1.4c5.6,0.6,11.1,1.3,16.6,2.3
					c5.5,1,11,2.2,16.4,3.7c5.4,1.5,10.7,3.4,15.8,5.8c5.1,2.4,9.9,5.5,14.2,9.2c4.3,3.7,7.9,8.4,10.4,13.6c0.3,0.7,0.6,1.3,0.9,2
					c0.3,0.7,0.5,1.5,0.7,2.3c0.3,1.6,0.3,3.3-0.1,4.9c-0.8,3.2-2.9,5.8-5.1,7.8c-2.3,2-4.8,3.5-7.3,4.9c-2.6,1.3-5.2,2.5-7.9,3.5
					c-5.3,2-10.8,3.6-16.3,4.9c-11,2.6-22.1,4.2-33.2,5.3c-22.3,2.3-44.7,2.8-67,1.8c-11.2-0.6-22.3-1.5-33.4-3
					c-5.5-0.7-11.1-1.6-16.6-2.6c-5.5-1-11-2.2-16.5-3.6c-5.5-1.4-10.9-3-16.2-5c-5.3-2-10.5-4.3-15.4-7.4c-2.4-1.6-4.8-3.3-6.8-5.5
					c-1-1.1-1.9-2.3-2.7-3.6c-0.8-1.3-1.4-2.7-1.7-4.2c-0.7-3-0.2-6.1,1.1-8.8c0.6-1.3,1.4-2.6,2.2-3.7c0.4-0.6,0.9-1.1,1.3-1.7
					C68,1202.5,68.5,1202,69,1201.4z M69.4,1202.1c-0.4,0.6-0.8,1-1.1,1.6c-0.4,0.6-0.8,1.1-1.1,1.7c-0.7,1.2-1.3,2.4-1.7,3.6
					c-0.9,2.5-1,5.2-0.2,7.5c0.7,2.4,2.4,4.5,4.3,6.2c1.9,1.7,4.1,3.2,6.5,4.5c2.3,1.3,4.8,2.4,7.3,3.4c2.5,1,5.1,1.9,7.7,2.7
					c5.2,1.6,10.5,2.8,15.9,3.9c21.5,4.2,43.5,6,65.5,6.9c5.5,0.2,11,0.4,16.5,0.5c5.5,0.1,11,0.1,16.5,0c11-0.1,22-0.5,33-1.4
					c11-0.9,21.9-2.2,32.6-4.2c5.4-1,10.7-2.2,15.8-3.8c5.1-1.6,10.2-3.6,14.3-6.8c2-1.5,3.6-3.4,4.3-5.6c0.3-1.1,0.4-2.2,0.2-3.4
					c-0.1-0.6-0.2-1.2-0.4-1.7c-0.2-0.6-0.5-1.2-0.7-1.8c-1-2.5-2.4-4.8-3.9-7c-0.8-1.1-1.6-2.1-2.5-3.1c-0.9-1-1.8-2-2.8-2.9
					c-3.9-3.7-8.6-6.6-13.5-9c-4.9-2.4-10.1-4.1-15.4-5.6c-10.7-2.7-21.7-3.9-32.7-4.3c-5.5-0.2-11-0.2-16.5,0
					c-2.8,0.1-5.5,0.2-8.3,0.3l-8.2,0.4c-11,0.6-22,1.6-33,2.6c-5.5,0.5-11,1.2-16.5,1.9c-5.5,0.7-11,1.4-16.4,2.1
					c-5.5,0.8-10.9,1.6-16.4,2.4l-16.4,2.6c-5.5,0.9-10.9,1.8-16.4,2.8L69.4,1202.1z"/>
			</g>
			
				<linearGradient id="SVGID_6_" gradientUnits="userSpaceOnUse" x1="406.7425" y1="1200.5552" x2="72.1271" y2="1217.5696" gradientTransform="matrix(-1 0 0 1 395.284 0)">
				<stop  offset="0" style="stop-color:#2AD8FF"/>
				<stop  offset="0.9948" style="stop-color:#FC1E79"/>
			</linearGradient>
			<path class="st9" d="M275.3,1236.7c0,0-58.2,10.5-101.3-1.2c0,0-25.6-9.3-15.1-18.6c0,0-39.6-2.3-34.9-24.5l87-9.5
				c0,0-15.1,35.1,28.1,36.2C282.3,1220.4,275.3,1236.7,275.3,1236.7z"/>
			<path class="st1" d="M171.5,1183.7c0,0,37.4-15.7,86.3,8.7c0,0-37.8-3.1-25.9,13.6c11.9,16.7,41,9.7,36.4,0.4
				c0,0,20.6,12.5,19,31.3l-19.4,5.6c0,0-0.8-11.3-7.8-14.8c0,0-22.1,11.6-48.9,3.5c-26.8-8.1-22.1-31.4-1.2-40.7
				C210.1,1191.3,195.8,1186.6,171.5,1183.7z"/>
			<g>
				<path class="st1" d="M211.9,1199.8c-3-1.3-6.3-2.5-9.6-3.6c-3.3-1-6.6-1.9-10-2.6c-3.4-0.7-6.8-1.2-10.3-1.5
					c-3.5-0.4-6.9-0.3-10.4-0.2c3.5-0.5,7-0.9,10.5-1c3.5-0.1,7.1,0,10.6,0.4c3.5,0.3,7,0.8,10.5,1.5c3.5,0.7,6.9,1.5,10.4,2.6
					c1.2,0.4,1.9,1.7,1.5,2.9s-1.7,1.9-2.9,1.5C212.1,1199.9,212.1,1199.9,211.9,1199.8L211.9,1199.8z"/>
			</g>
			<g>
				<path class="st1" d="M173.5,1197c3.7-0.5,7.5-0.6,11.2-0.4c1.9,0.1,3.8,0.3,5.6,0.5c1.9,0.2,3.7,0.5,5.6,0.9
					c1.9,0.4,3.7,0.8,5.5,1.2c1.8,0.5,3.6,1,5.4,1.6c3.6,1.1,7.1,2.4,10.7,4.1l-0.2-0.1c4.4,1.8,8.5,3.9,12.5,6.2
					c4,2.3,7.9,4.9,11.6,7.7c3.7,2.8,7.2,5.9,10.3,9.3c3.2,3.4,6,7.1,8.3,11.1c-3.1-3.4-6.4-6.5-9.9-9.3c-1.7-1.4-3.5-2.8-5.3-4.1
					c-1.8-1.3-3.7-2.6-5.5-3.8c-3.7-2.5-7.6-4.7-11.6-6.9c-3.9-2.1-8-4.2-12-5.9l-0.1,0c0,0-0.1,0-0.1-0.1c-1.5-0.8-3.2-1.5-4.9-2.2
					c-1.7-0.7-3.4-1.4-5.1-2c-1.7-0.6-3.4-1.2-5.2-1.8c-1.7-0.6-3.5-1.1-5.2-1.6c-1.8-0.5-3.5-1-5.3-1.4c-1.8-0.4-3.6-0.8-5.4-1.2
					C180.9,1197.8,177.3,1197.3,173.5,1197z"/>
			</g>
			<g>
				<path class="st1" d="M171.5,1203.9c7.4-1.1,15.1-0.6,22.5,0.8c7.4,1.4,14.7,3.7,21.6,6.9c6.9,3.2,13.4,7,19.4,11.6
					c1.5,1.2,3,2.3,4.4,3.6c1.4,1.3,2.8,2.5,4.1,3.9c2.6,2.7,5,5.7,6.8,9c-5.2-5.4-11.2-9.6-17.4-13.5c-6.2-3.8-12.7-7.3-19.3-10.4
					c-6.6-3.1-13.5-5.5-20.5-7.6C186.2,1206.2,179,1204.7,171.5,1203.9z"/>
			</g>
			<path class="st1" d="M78.5,1198.3c0,0,52.8,4.9,56.7,46.7l-22.9-4.9c0,0-2.4-19-23.3-25.7s6.4,20.5,6.4,20.5l-20.2-5.9
				C75.2,1228.9,59.9,1209.9,78.5,1198.3z"/>
		</g>
		<g>
			<g>
				<path class="st3" d="M-15.3,1202.2c0,0-221.2-60-227.8,15.2C-246.5,1257.1-25.8,1281.6-15.3,1202.2z"/>
				<path class="st1" d="M-15.6,1202.4c-0.1,0-0.1,0.1-0.1,0.1c0,0,0,0,0,0l-0.1,0l-0.5-0.1l-1-0.2l-2-0.4l-3.9-0.7l-7.8-1.5
					l-15.6-2.9c-10.4-1.9-20.8-3.7-31.3-5.3c-5.2-0.8-10.4-1.6-15.7-2.4c-5.2-0.8-10.5-1.5-15.7-2.1c-10.5-1.3-21-2.4-31.4-3.4
					c-10.5-0.9-21-1.6-31.5-1.7c-5.3,0-10.5,0.1-15.8,0.5c-5.2,0.4-10.5,1-15.6,2.1c-5.1,1-10.2,2.5-15,4.5c-4.8,2-9.3,4.7-13.1,8.1
					c-1.9,1.7-3.6,3.7-5,5.8c-1.4,2.1-2.5,4.4-3.3,6.8c-0.8,2.4-1.2,4.9-1.4,7.5c-0.2,2.4,0.4,4.5,1.7,6.5c1.3,2,3.1,3.7,5.1,5.2
					c2,1.5,4.2,2.8,6.4,4c4.5,2.4,9.4,4.2,14.3,5.9c9.9,3.2,20.1,5.6,30.4,7.4c20.6,3.5,41.7,4.8,62.6,4.4
					c10.5-0.2,20.9-0.9,31.3-2.2c10.3-1.3,20.6-3.4,30.5-6.5c4.9-1.6,9.8-3.5,14.4-5.7c4.6-2.3,9-4.9,13-8.2c4-3.2,7.6-7,10.3-11.3
					c1.4-2.2,2.6-4.5,3.5-6.9c0.5-1.2,0.9-2.4,1.3-3.7c0.2-0.6,0.3-1.3,0.5-1.9C-16,1203.5-15.8,1203-15.6,1202.4z M-15,1202
					c0,0.7,0,1.5-0.1,2.3c-0.1,0.7-0.2,1.3-0.3,2c-0.2,1.3-0.5,2.7-0.9,4c-0.7,2.6-1.7,5.2-3,7.6c-2.5,4.9-6,9.2-10,13
					c-4,3.8-8.5,6.9-13.2,9.6c-4.7,2.7-9.7,5-14.8,6.9c-10.2,3.8-20.7,6.4-31.4,8.1c-10.6,1.7-21.4,2.7-32.1,3
					c-21.5,0.5-43-1.4-64-5.6c-5.3-1-10.5-2.3-15.7-3.7c-5.2-1.4-10.3-3.1-15.4-5.1c-5-2-10-4.3-14.7-7.2c-2.3-1.4-4.6-3-6.7-4.9
					c-2.1-1.9-4.1-4-5.6-6.5c-0.7-1.3-1.3-2.7-1.6-4.2c-0.3-1.5-0.4-3.1-0.2-4.5c0.3-2.7,1-5.5,1.9-8.1c1-2.6,2.3-5.1,3.8-7.3
					c1.6-2.3,3.5-4.3,5.5-6.1c4.1-3.7,8.9-6.3,13.8-8.5c4.9-2.2,10.1-3.6,15.3-4.9c10.4-2.5,21.1-3.7,31.8-4.4
					c10.7-0.7,21.4-0.7,32.1-0.1c10.7,0.5,21.3,1.7,31.9,3.2c5.3,0.7,10.5,1.5,15.8,2.4c5.2,0.9,10.5,1.9,15.7,2.9
					c10.4,2.1,20.8,4.4,31.1,7.1c5.2,1.3,10.3,2.7,15.4,4.2c2.6,0.7,5.1,1.5,7.6,2.3c1.3,0.4,2.5,0.8,3.8,1.2l1.9,0.6l0.9,0.3
					l0.5,0.2l0.1,0c0.1,0,0.1,0,0.2,0.1C-15.2,1201.8-15.1,1201.9-15,1202z"/>
			</g>
			
				<linearGradient id="SVGID_7_" gradientUnits="userSpaceOnUse" x1="407.9202" y1="1223.717" x2="73.3048" y2="1240.7313" gradientTransform="matrix(-1 0 0 1 395.284 0)">
				<stop  offset="0" style="stop-color:#2AD8FF"/>
				<stop  offset="0.9948" style="stop-color:#FC1E79"/>
			</linearGradient>
			<path class="st10" d="M-37.5,1214.7c0,0-16.6,43.5-131.7,23.7c0,0-37.1-12.8-28.1-19.9c0,0-53.9-22.3,5.7-29.3l69.8,6.7
				c0,0-24.3,23.7,7.7,26.1S-37.5,1214.7-37.5,1214.7z"/>
			<path class="st1" d="M-212.6,1192.8c0,0,28-16.4,130.8,4.7c0,0-27.4,0.6-20.4,15.8c7,15.2,52,0.6,50.8-7.6c0,0,31.5,0,13.4,16.9
				c0,0-0.6,0.6-17.5,5.8c1-0.4-37,18.6-65.4,4.7c-28.2-13.8-17.5-24.9-11.1-27C-132,1206.1-151.9,1192.8-212.6,1192.8z"/>
			<g>
				<path class="st1" d="M-124,1216.7c-2.9-1.5-6-2.9-9.2-4.2c-3.1-1.3-6.4-2.5-9.6-3.6c-6.5-2.3-13.1-4.2-19.7-5.9
					c-3.3-0.8-6.7-1.7-10.1-2.4c-3.4-0.8-6.7-1.4-10.1-2c-3.4-0.7-6.8-1.1-10.2-1.7c-3.4-0.5-6.8-0.9-10.3-1.4
					c3.4,0.3,6.9,0.5,10.3,0.8c3.4,0.4,6.9,0.6,10.3,1.1c3.4,0.4,6.9,0.9,10.3,1.5c3.4,0.5,6.8,1.2,10.2,1.8
					c6.8,1.4,13.6,2.9,20.3,4.9c3.3,1,6.7,2,10,3.2c3.3,1.2,6.5,2.4,9.9,3.9c1.2,0.5,1.6,1.9,1.1,3.1c-0.5,1.2-1.9,1.6-3.1,1.1
					C-123.8,1216.8-123.8,1216.8-124,1216.7L-124,1216.7z"/>
			</g>
			<g>
				<path class="st1" d="M-124.2,1224.7c-0.5-0.4-1.3-0.8-2-1.2c-0.7-0.4-1.5-0.8-2.2-1.2c-0.7-0.4-1.5-0.8-2.3-1.1
					c-0.8-0.4-1.5-0.8-2.3-1.1c-1.6-0.7-3.2-1.4-4.8-2c-1.6-0.7-3.2-1.3-4.8-1.9c-6.5-2.4-13.1-4.6-19.9-6.5
					c-3.3-1-6.7-1.9-10.1-2.8c-3.4-0.8-6.8-1.7-10.2-2.5c-3.4-0.8-6.8-1.6-10.2-2.3l-10.3-2.2l10.4,1.6c3.5,0.6,6.9,1.2,10.4,1.8
					c3.4,0.6,6.9,1.3,10.3,2c3.4,0.7,6.9,1.4,10.3,2.2c6.8,1.6,13.6,3.4,20.4,5.4c1.7,0.5,3.4,1.1,5,1.6c1.7,0.6,3.3,1.2,5,1.8
					c0.8,0.3,1.7,0.7,2.5,1c0.8,0.3,1.7,0.7,2.5,1.1c0.8,0.4,1.6,0.8,2.5,1.2c0.8,0.4,1.6,0.8,2.5,1.4c1.1,0.7,1.4,2.1,0.7,3.2
					c-0.7,1.1-2.1,1.4-3.2,0.7c0,0-0.1,0-0.1-0.1L-124.2,1224.7z"/>
			</g>
			<g>
				<path class="st1" d="M-112.3,1233c-7.5-2.6-15-5.1-22.6-7.5c-7.6-2.5-15.1-4.9-22.7-7.2c-15.2-4.7-30.4-9.3-45.7-13.7
					c15.5,3.7,30.9,7.5,46.3,11.5c7.7,2,15.4,4,23.1,6.1c7.7,2.1,15.3,4.2,23,6.5c1.2,0.4,1.9,1.6,1.6,2.9c-0.4,1.2-1.6,1.9-2.9,1.6
					C-112.2,1233-112.3,1233-112.3,1233L-112.3,1233z"/>
			</g>
		</g>
		<path class="st1" d="M294.5,931.4c0,0-227.4,11.2-416.5,5.7l-17,60.4c0,0,224.5,19,420.2,2.1L294.5,931.4z"/>
		<g>
			<path class="st3" d="M294.5,917.3c0,0-227.4,11.2-416.5,5.7l-17,69.4c0,0,227.1,10,422.8-6.9L294.5,917.3z"/>
			<path class="st1" d="M294.3,917.6l-1.5,0.2c-0.5,0.1-0.9,0.1-1.5,0.1l-3.2,0.3l-6.5,0.5l-13,0.9c-8.7,0.6-17.3,1.1-26,1.6
				l-26,1.4l-26,1.2c-17.4,0.7-34.7,1.4-52.1,1.9c-8.7,0.3-17.4,0.5-26,0.7c-8.7,0.2-17.4,0.4-26,0.5c-34.7,0.6-69.5,0-104.2-0.6
				l-104.2-2.3l1.2-0.9l-4.1,17.4c-1.4,5.8-2.7,11.6-4.1,17.4l-8,34.8l-1.8-2.5c17.6,0.4,35.2,0.7,52.8,0.8l52.9,0.4
				c17.6,0.1,35.2,0.1,52.8,0c8.8,0,17.6-0.1,26.4-0.2l26.4-0.3l26.4-0.4c8.8-0.2,17.6-0.4,26.4-0.5c8.8-0.1,17.6-0.4,26.4-0.7
				c8.8-0.3,17.6-0.4,26.4-0.8l26.4-1c4.4-0.1,8.8-0.4,13.2-0.6l13.2-0.6c17.6-0.7,35.2-1.9,52.8-2.9l-1.8,1.7l3-16.6l3.1-16.8
				L294.3,917.6z M294.8,917.1l-4.4,33.9l-2.2,17.3l-2.4,17.4c-0.1,0.9-0.9,1.6-1.7,1.7l-0.1,0c-35.1,3.5-70.3,6.4-105.6,8.1
				l-6.6,0.4l-6.6,0.3l-13.2,0.6c-8.8,0.4-17.6,0.7-26.5,1c-8.8,0.2-17.6,0.6-26.5,0.7l-26.5,0.4c-8.8,0.2-17.6,0.2-26.5,0.2
				c-8.8,0-17.6,0-26.5-0.1c-17.6-0.1-35.3-0.3-52.9-0.6c-35.3-0.6-70.5-2-105.8-4l-0.1,0c-1.1-0.1-1.9-1-1.9-2.1
				c0-0.1,0-0.3,0.1-0.4l9-34.6c1.5-5.8,3-11.5,4.4-17.3l4.4-17.3l0,0c0.1-0.5,0.6-0.9,1.2-0.9c34.7,1.1,69.4,1.4,104.1,0.8
				c34.7-0.5,69.4-1.5,104.1-2.1l104.1-1.8l52.1-0.9l26-0.4l13-0.2l6.5-0.1l3.3,0c0.5,0,1.1,0,1.8,0
				C293.6,917,294.2,917.1,294.8,917.1z"/>
		</g>
		<g>
			<path class="st3" d="M-122.9,935.6l-14,56.9c-1.4-0.1-2.2-0.1-2.2-0.1l17-69.4c189.2,5.6,416.5-5.7,416.5-5.7l-2,12.6
				C275.4,930.8,58.7,940.9-122.9,935.6z"/>
			<path class="st1" d="M-122.7,935.8l-6.2,28.8l-3.1,14.2c-1,4.7-2.1,9.4-3.1,14.1c-0.2,0.8-0.9,1.4-1.8,1.4l-0.1,0l-2.2-0.1
				c-1,0-1.8-0.9-1.8-1.9c0-0.1,0-0.2,0-0.3l0-0.1l7.9-34.8l4-17.4l4-17.4c0.3-1.4,1.6-2.3,2.9-2.3l0.1,0
				c34.7,0.5,69.4,0.7,104.1,0.7c17.3-0.1,34.7,0,52-0.2l26-0.1l26-0.2c34.7-0.3,69.4-1,104.1-1.6c17.4-0.3,34.7-0.5,52.1-1l26-0.7
				c8.7-0.2,17.4-0.5,26-0.9l0,0c0.7,0,1.3,0.5,1.3,1.2c0,0.1,0,0.2,0,0.3l-2.1,12.6l0,0c-0.1,0.6-0.6,0.9-1.1,1
				c-34.6,1.4-69.2,2.9-103.8,4.7c-34.6,1.6-69.2,3.2-103.9,3.8l-13,0.2l-13,0.1c-8.7,0.1-17.3,0.1-26,0.1c-8.7,0-17.3,0-26-0.1
				c-8.7-0.1-17.3-0.1-26-0.2l-26-0.5c-8.7-0.2-17.3-0.5-26-0.8c-8.6-0.3-17.4-0.6-25.8-1.1L-122.7,935.8z M-123.1,935.3l104.1-0.8
				L84.8,933c34.6-0.6,69.2-0.6,103.9-1.1c34.6-0.3,69.2-1.4,103.8-3.2l-1.1,1l1.9-12.6l1.3,1.4c-34.7,1.9-69.4,3.8-104.1,5.4
				c-34.7,1.6-69.4,2.5-104.2,3.3l-26.1,0.5l-26.1,0.4c-8.7,0.1-17.4,0.1-26.1,0.2c-8.7,0-17.4,0.1-26.1,0
				c-34.7-0.2-69.5-1-104.2-2.4l3-2.3l-4.5,17.3l-4.6,17.3l-9.1,34.5l-1.7-2.3l2.1,0.1l-1.8,1.4c1.3-4.8,2.5-9.6,3.9-14.4l3.9-14.3
				L-123.1,935.3z"/>
		</g>
		<g>
			
				<ellipse transform="matrix(5.622258e-02 -0.9984 0.9984 5.622258e-02 -883.3953 1002.1308)" class="st1" cx="88.4" cy="968.3" rx="49" ry="74.2"/>
			<g>
				
					<ellipse transform="matrix(5.622258e-02 -0.9984 0.9984 5.622258e-02 -886.5345 980.8628)" class="st3" cx="75.6" cy="959.4" rx="49" ry="74.2"/>
				<path class="st1" d="M149.6,963.5c0.2-4.1-0.4-8.2-1.6-12c-1.2-3.9-3.2-7.5-5.5-10.8c-4.7-6.6-11.1-11.9-18.1-16
					c-14-8.2-30.2-11.9-46.2-12.4c-8-0.2-16,0.4-23.8,2c-7.8,1.5-15.4,4-22.4,7.5c-7,3.4-13.4,8-18.3,13.8c-2.4,2.8-4.5,6-6,9.3
					c-1.5,3.4-2.3,6.9-2.6,10.5c-0.2,3.6,0.3,7.3,1.4,10.8c1.1,3.5,2.8,6.8,4.9,10c4.2,6.2,10.1,11.5,16.6,15.7
					c6.6,4.2,13.8,7.6,21.4,9.9c7.6,2.5,15.5,4,23.4,4.7c15.9,1.4,32.5-0.5,47.3-7.1c7.3-3.3,14.3-7.8,19.7-13.9
					c2.7-3,5-6.4,6.7-10.1C148.3,971.6,149.3,967.6,149.6,963.5z M149.6,963.5c-0.2,4.1-1.2,8.1-2.9,11.8c-1.6,3.7-3.9,7.2-6.6,10.3
					c-5.3,6.2-12.2,11-19.5,14.7c-7.4,3.6-15.2,6.2-23.3,7.8c-8.1,1.6-16.4,2.3-24.6,2.1c-16.5-0.5-33.3-4.3-47.9-12.9
					c-7.3-4.4-14-9.9-19.1-17.1c-2.5-3.6-4.7-7.5-6-11.8c-1.3-4.3-2-8.8-1.8-13.4c0.3-4.5,1.4-9,3.2-13.1c1.8-4.1,4.4-7.8,7.3-11.1
					c5.9-6.6,13.2-11.3,20.9-14.8c15.5-6.9,32.6-8.9,49.1-7.5c8.2,0.8,16.4,2.3,24.3,4.8c7.9,2.5,15.4,5.9,22.3,10.4
					c6.9,4.4,13.1,10,17.7,16.8c2.3,3.4,4.2,7,5.4,10.9C149.3,955.4,149.8,959.5,149.6,963.5z"/>
			</g>
			
				<linearGradient id="SVGID_8_" gradientUnits="userSpaceOnUse" x1="-8.0996" y1="455.7629" x2="-342.7151" y2="472.7773" gradientTransform="matrix(-0.9957 -9.259684e-02 -9.259684e-02 0.9957 337.0776 539.7647)">
				<stop  offset="0" style="stop-color:#2AD8FF"/>
				<stop  offset="0.9948" style="stop-color:#FC1E79"/>
			</linearGradient>
			<path class="st11" d="M140.4,949.6c0,0-16.6-18.9-34.5-18.1c-17.9,0.8-8.7-1.1-8.7-1.1s4.5,34.6-27.7,34.5
				C37.3,964.8,32,952.4,32,952.4s-25.2,35.7,38.5,43c0,0-17-18.3,29.9-10.1c18.3,3.2,24-9.2,21.5-23.7
				C119.4,947,140.4,949.6,140.4,949.6z"/>
			<path class="st1" d="M139.8,949.1c0,0-23.7-31-72.5-26.9c0,0,37.1,21,8.5,37.7c-28.6,16.7-42.2-23.2-42.2-23.2s-31.6,15-3.2,40.8
				c0,0-1.6-10.4,6.6-16.1c0,0,6.8,23.8,39.6,16.6c32.8-7.2,34.2-27.9,26.4-38.2C103,939.8,115,939,139.8,949.1z"/>
			<g>
				<g>
					<path class="st3" d="M70,995.4c-2,0-3.5-1.6-3.6-3.6l-0.8-26.5l-21.1-27.9c-0.8-1.1-1-2.5-0.4-3.7s1.7-2.1,3-2.2l28.8-3.3
						c0.1,0,0.3,0,0.4,0c1.6,0,3,1,3.5,2.5l1.9,5.9l2.3-4.8c0.6-1.3,1.9-2.1,3.3-2.1c0.2,0,0.4,0,0.6,0l26.9,4.3
						c1.3,0.2,2.4,1.1,2.9,2.3s0.2,2.6-0.6,3.6l-22.7,27.4l-2.5,24.9c-0.2,1.9-1.8,3.3-3.7,3.3C88.1,995.8,70,995.4,70,995.4z"/>
					<path class="st1" d="M76.3,931.9l4.7,14.7l6.3-13.1l26.9,4.3L90.7,966l-2.6,26.1L70,991.7L69.2,964l-21.8-28.8L76.3,931.9
						 M76.3,924.6c-0.3,0-0.6,0-0.8,0l-28.8,3.3c-2.6,0.3-4.9,2-5.9,4.4c-1,2.4-0.7,5.2,0.9,7.3l20.4,27l0.7,25.4
						c0.1,3.9,3.3,7.1,7.2,7.1l18.1,0.4c0,0,0.1,0,0.1,0c3.8,0,6.9-2.9,7.3-6.6l2.4-23.8l22-26.5c1.7-2,2.1-4.8,1.2-7.3
						c-0.9-2.5-3.1-4.3-5.7-4.7l-26.9-4.3c-0.4-0.1-0.8-0.1-1.2-0.1c-1.8,0-3.5,0.7-4.8,1.8C81.1,925.9,78.8,924.6,76.3,924.6
						L76.3,924.6z"/>
				</g>
			</g>
		</g>
		<g>
			<path class="st1" d="M299.3,771c-1.3,4.4-2.8,8.5-4.4,12.6c-1.6,4.1-3.3,8.1-5,12.2c-1.7,4-3.5,8-5.4,12c-1.9,4-3.8,7.9-6.2,11.8
				c0.2-4.6,1-9,2.2-13.3c1.1-4.3,2.6-8.6,4.4-12.7c1.8-4.1,3.8-8.1,6.2-11.9C293.4,777.8,296,774.2,299.3,771z"/>
		</g>
		<path class="st1" d="M-38.4,993.8l11.4-72l-38.1,2.4l-13.2,70h13.2c0,0,5.9-61.4,13-53.4s-0.6,54.6-0.6,54.6L-38.4,993.8z"/>
		<polygon class="st1" points="222.3,921.8 216.4,990.2 199.3,990.2 205.7,920.8 		"/>
		<polygon class="st1" points="199.3,921.8 193.4,990.2 182.6,990.2 189,920.8 		"/>
		<path class="st1" d="M24.2,857.8l2.9,37.1l-27.9,13.7v-40.4l8.5-3.7c0,0,10.1,64.3,7.4-3.1L24.2,857.8z"/>
	</g>
	<g>
		
			<linearGradient id="SVGID_9_" gradientUnits="userSpaceOnUse" x1="361.5318" y1="311.4117" x2="26.9164" y2="328.426" gradientTransform="matrix(-1 0 0 1 395.284 0)">
			<stop  offset="0" style="stop-color:#2AD8FF"/>
			<stop  offset="0.9948" style="stop-color:#FC1E79"/>
		</linearGradient>
		<path class="st12" d="M460.6,297.3c0,0-25.9,138.6-45.4,149.1c0,0-148.3-8.2-176.9-54.4L292,209L460.6,297.3z"/>
		<g>
			<path class="st3" d="M448.7,323.9c0,0-32.4,13.7-68.5-19.6c0,0-101.9,4.3-109-36c-7.1-40.4,14.6-97.9,38-98.1
				S336.5,46,379.4,62.4c29.3,11.2,27.7,45.2,5.5,90.4c0,0,110.1,28.5,103.1,73.6C488.1,226.4,497.5,298,448.7,323.9z"/>
			<path class="st1" d="M448.9,324.2c-3,1.2-6.1,1.8-9.2,2.3c-3.1,0.4-6.3,0.6-9.4,0.6c-6.3-0.1-12.5-1.1-18.6-2.9
				c-3-0.9-6-2.1-8.9-3.3c-2.9-1.3-5.7-2.7-8.4-4.3c-5.4-3.2-10.6-6.9-15.4-11.1l1.2,0.4c-10,0.6-20,0.7-30.1,0.3
				c-10-0.4-20.1-1.3-30-3c-5-0.9-9.9-2-14.9-3.4c-4.9-1.4-9.8-3.1-14.5-5.4c-4.7-2.3-9.2-5-13.2-8.7c-4-3.7-7.3-8.5-8.8-13.9
				c-0.2-0.7-0.4-1.4-0.5-2c-0.1-0.3-0.1-0.7-0.2-1l-0.1-1c-0.2-1.3-0.4-2.6-0.5-3.8c-0.3-2.6-0.4-5.1-0.5-7.7
				c-0.1-5.1,0.1-10.2,0.7-15.3c1.1-10.1,3.3-20,6.5-29.6c3.2-9.6,7.5-18.8,13.2-27.2c2.9-4.1,6.3-8,10.6-11.1
				c2.1-1.5,4.5-2.7,7.1-3.4c0.7-0.1,1.3-0.3,2-0.4l2-0.2c1.1,0,2.1-0.3,3-0.8c1.9-1.1,3.5-2.9,4.8-4.9c1.3-2,2.4-4.2,3.5-6.4
				c2-4.5,3.7-9.1,5.2-13.8c3-9.4,5.7-19,8.4-28.6c2.8-9.6,5.8-19.2,9.7-28.5c2-4.7,4.2-9.3,7-13.6c1.4-2.2,3-4.3,4.8-6.2
				c1.8-1.9,3.9-3.8,6.4-5.2c2.4-1.4,5.2-2.4,8.1-2.7c2.9-0.3,5.8,0.1,8.5,0.8l2,0.6l1.9,0.7c1.2,0.5,2.4,1.1,3.6,1.7
				c2.4,1.3,4.6,2.8,6.7,4.6c2,1.8,3.9,3.8,5.5,6.1c1.5,2.3,2.9,4.7,3.8,7.3c1.9,5.1,2.8,10.5,2.8,15.8c0.2,10.6-2.1,20.7-5.1,30.5
				c-3,9.7-7,19.1-11.3,28.2l-2.5-5.4c5.6,1.4,11,3.1,16.4,4.9c5.4,1.8,10.8,3.7,16.1,5.7c10.7,4,21.1,8.7,31.2,14.2
				c10.1,5.5,19.9,11.8,28.2,20.2c2.1,2.1,4.1,4.3,5.8,6.8c1.8,2.4,3.3,5.1,4.6,7.9c1.3,2.8,2.2,5.8,2.6,8.9
				c0.5,3.1,0.4,6.3-0.2,9.3l0-0.8c0.4,4.9,0.5,9.5,0.3,14.3c-0.1,4.7-0.5,9.4-1,14.1c-1.1,9.3-3.2,18.6-6.3,27.4
				c-3.2,8.8-7.6,17.3-13.4,24.6l-2.2,2.7l-2.4,2.6c-0.8,0.9-1.7,1.7-2.5,2.4c-0.9,0.8-1.7,1.6-2.6,2.3l-2.7,2.2
				c-0.9,0.7-1.9,1.3-2.9,2l-1.4,1c-0.5,0.3-1,0.6-1.5,0.9L448.9,324.2z M448.6,323.6l3-1.8c0.5-0.3,1-0.6,1.5-0.9l1.4-1
				c0.9-0.7,1.9-1.3,2.8-2l2.7-2.2c3.5-3,6.7-6.3,9.4-10.1c2.7-3.7,5.2-7.6,7.2-11.7c2-4.1,3.6-8.4,5-12.8
				c2.7-8.8,4.1-17.9,4.7-27.1c0.3-4.6,0.3-9.2,0.2-13.7c-0.2-4.5-0.5-9.2-1.1-13.5c0-0.2,0-0.4,0-0.6l0-0.1
				c0.6-5-0.4-10.1-2.7-14.7c-2.3-4.6-5.7-8.7-9.6-12.4c-3.9-3.7-8.2-7-12.7-10.1c-4.5-3.1-9.3-5.8-14.2-8.4
				c-9.8-5.2-20-9.5-30.4-13.5c-10.4-4-21.1-7.5-31.7-10.4l-0.1,0c-2-0.6-3.2-2.7-2.7-4.7c0.1-0.2,0.2-0.5,0.3-0.7
				c4.4-8.8,8.3-17.8,11.4-27c3-9.2,5.2-18.7,5.2-28.1c0-4.7-0.7-9.3-2.2-13.5c-0.8-2.1-1.8-4.1-3-6c-1.2-1.9-2.7-3.5-4.3-5
				c-1.6-1.5-3.5-2.8-5.5-4c-1-0.5-2-1.1-3.1-1.5l-1.6-0.7l-1.6-0.6c-4.2-1.4-8.5-1.2-12.3,0.9c-3.8,2-7.1,5.5-9.9,9.4
				c-2.8,3.9-5.1,8.2-7.2,12.6c-4.1,8.9-7.4,18.3-10.5,27.7c-3.1,9.4-5.9,19-9.2,28.5c-1.6,4.7-3.3,9.5-5.4,14
				c-1.1,2.3-2.2,4.6-3.7,6.7c-1.4,2.1-3.1,4.3-5.5,5.7c-0.3,0.2-0.6,0.3-1,0.5l-0.5,0.2l-0.5,0.1c-0.7,0.2-1.5,0.2-2.1,0.3
				l-1.7,0.2c-0.6,0.1-1.1,0.3-1.7,0.4c-2.2,0.6-4.3,1.7-6.3,3.1c-3.8,2.9-7,6.7-9.7,10.7c-2.7,4.1-4.9,8.4-6.9,13
				c-1.9,4.5-3.5,9.2-4.9,13.9c-2.7,9.4-4.4,19.2-5,28.9c-0.3,4.9-0.4,9.7-0.1,14.6c0.2,2.4,0.4,4.8,0.7,7.2
				c0.1,1.2,0.4,2.4,0.5,3.6l0.1,0.9c0.1,0.3,0.1,0.5,0.2,0.8c0.1,0.5,0.2,1.1,0.4,1.6c1.2,4.2,3.9,7.8,7.2,10.9
				c3.3,3.1,7.4,5.5,11.7,7.6c8.6,4.1,18.1,6.7,27.6,8.7c4.8,1,9.6,1.8,14.5,2.5c4.9,0.7,9.8,1.3,14.7,1.7
				c9.8,0.9,19.8,1.4,29.6,1.4l0.1,0c0.4,0,0.8,0.2,1,0.4c4.4,4.3,9.2,8.2,14.3,11.6c2.6,1.7,5.3,3.2,8,4.6c2.8,1.4,5.6,2.6,8.5,3.6
				c5.9,1.9,12,3.2,18.2,3.4c3.1,0.1,6.2-0.1,9.3-0.5C442.7,325.3,445.8,324.6,448.6,323.6z"/>
		</g>
		<path class="st1" d="M394.1,119.8c0,0-29.3,43.1-65.8,29.7l-8.9,15.5l61.6,11.4L394.1,119.8z"/>
		<path class="st1" d="M479.4,241.3c0,0-8.9,22.8-31.5,8.7c0,0-21.3,15.6-33.4,2c0,0,12.2,20.1,11.8,36.7
			c-0.3,10.9,8,20.2,18.9,20.4c8.1,0.1,17.1-0.9,25.8-4.4c0,0-26.2,59.6-121.3-12.4v-98.6l69.8-11L479.4,241.3z"/>
		<g>
			<path class="st3" d="M507.3,217.7c0,0-11.5-24-29-25.8s-31.8,41.6-25.2,47.3C459.6,244.9,473.5,269.6,507.3,217.7z"/>
			<path class="st1" d="M506.9,217.7c0,0,0,0.1,0,0.1L506.9,217.7l-0.2-0.1l-0.2-0.3l-0.4-0.5l-0.8-1c-0.6-0.7-1.1-1.4-1.7-2.1
				c-1.1-1.4-2.3-2.7-3.5-4c-2.4-2.6-4.8-5-7.4-7.2c-2.6-2.2-5.3-4-8.1-5.4c-1.4-0.6-2.9-1.2-4.3-1.5c-0.7-0.2-1.5-0.3-2.2-0.5
				c-0.6-0.1-1.2-0.1-1.9-0.1c-2.6,0.1-5.5,1.6-8.1,3.7c-2.6,2.1-4.9,4.8-6.8,7.7c-3.7,5.9-6,12.8-6.8,19.7
				c-0.2,1.7-0.3,3.4-0.3,5.1c0,1.6,0.2,3.3,0.5,4.5c0.2,0.6,0.5,1.1,0.5,1.1c0,0,0,0,0,0c0,0,0,0,0.1,0.1l0.6,0.5l1.1,1
				c1.4,1.3,2.6,2.5,3.8,3.5c2.5,2.1,5.1,3.6,7.7,4c2.6,0.4,5.3,0,8.1-1.2c2.8-1.1,5.5-2.9,8.2-5c0.7-0.5,1.3-1,2-1.6
				c0.6-0.6,1.3-1.1,1.9-1.7l1.9-1.7l1.9-1.8c1.3-1.2,2.5-2.5,3.7-3.7c1.2-1.3,2.4-2.6,3.6-3.9c1.2-1.3,2.4-2.6,3.6-3.9L506.9,217.7
				z M507.6,217.7c-0.7,1.6-1.4,3.3-2.3,5.1c-0.9,1.6-1.7,3.2-2.6,4.8c-1.8,3.1-3.8,6.2-6,9.2c-2.2,3-4.7,5.8-7.4,8.4
				c-2.8,2.6-5.9,5-9.7,6.8c-1.9,0.9-4,1.5-6.1,1.8c-2.2,0.3-4.5,0.2-6.7-0.3c-2.2-0.5-4.2-1.4-6-2.6c-1.8-1.1-3.3-2.5-4.7-3.8
				c-1.4-1.4-2.6-2.8-3.8-4.1l-0.8-0.9l-0.4-0.4l-0.4-0.4c-0.2-0.2-0.3-0.3-0.4-0.5c-1-1.4-1.3-2.7-1.5-3.8
				c-0.3-2.3-0.1-4.2,0.3-6.1c0.3-1.9,0.8-3.7,1.4-5.5c1.1-3.5,2.5-6.9,3.9-10.3c1.5-3.3,3-6.6,4.8-9.8c1.7-3.2,3.6-6.4,6-9.4
				c1.2-1.5,2.6-2.9,4.2-4.2c1.6-1.2,3.6-2.2,5.9-2.7c1.1-0.2,2.3-0.3,3.5-0.2c0.5,0.1,1,0.1,1.5,0.2c0.5,0.1,1,0.2,1.5,0.3
				c2,0.4,3.9,1.2,5.7,2.1c3.6,1.8,6.6,4.3,9.2,7.1c2.6,2.8,4.8,5.8,6.6,9c0.9,1.6,1.7,3.3,2.5,4.9c0.4,0.8,0.7,1.7,1,2.6
				c0.2,0.4,0.3,0.9,0.4,1.3l0.2,0.7l0.1,0.3l0,0.2l0,0.1C507.6,217.5,507.6,217.6,507.6,217.7z"/>
		</g>
		<g>
			<path class="st3" d="M474.5,186c0,0-18.8-23.5-38.5-21c-19.7,2.5-24.4,54-15.7,58.6S450.5,251.8,474.5,186z"/>
			<path class="st1" d="M474.1,186.1c0,0,0,0.1,0,0.1L474.1,186.1l-0.2-0.1l-0.3-0.2l-0.6-0.5l-1.2-1c-0.8-0.6-1.6-1.3-2.4-1.9
				c-1.6-1.2-3.2-2.4-4.8-3.6c-3.2-2.3-6.5-4.4-9.9-6.2c-3.4-1.8-6.9-3.1-10.4-3.9c-1.8-0.4-3.5-0.6-5.3-0.6c-0.9,0-1.7,0-2.6,0.1
				c-0.8,0.1-1.5,0.2-2.2,0.4c-2.9,0.9-5.8,3.3-8.1,6.3c-2.3,3-4.2,6.6-5.4,10.4c-2.6,7.5-3.3,15.7-2.6,23.5c0.2,2,0.5,3.9,0.9,5.7
				c0.4,1.8,1,3.6,1.7,5c0.4,0.7,0.8,1.2,1,1.2c0,0,0,0,0,0c0,0,0,0,0.2,0.1l0.8,0.4c0.5,0.3,1,0.5,1.4,0.8c1.8,1.1,3.4,2.1,5.1,2.9
				c3.3,1.7,6.6,2.8,9.7,2.6c3.1-0.2,6.1-1.4,8.9-3.5c2.8-2,5.4-4.7,7.8-7.7c0.6-0.7,1.2-1.5,1.8-2.3c0.6-0.8,1.2-1.5,1.7-2.4
				l1.7-2.4l1.6-2.5c1.1-1.7,2-3.4,3.1-5.1l3-5.2c0.9-1.8,1.9-3.6,2.9-5.3L474.1,186.1z M474.8,186c-0.4,1.9-0.8,4-1.4,6.2
				c-0.6,2-1.1,4-1.7,5.9c-1.3,3.9-2.7,7.8-4.4,11.6c-1.7,3.8-3.7,7.5-6.1,11c-2.4,3.6-5.2,7-8.9,9.8c-1.8,1.4-3.9,2.6-6.2,3.5
				c-2.3,0.9-4.8,1.4-7.3,1.3c-2.5,0-4.9-0.5-7.1-1.2c-2.2-0.8-4.3-1.8-6.1-3c-1.9-1.1-3.6-2.4-5.2-3.5l-1.1-0.8l-0.5-0.3l-0.5-0.3
				c-0.2-0.1-0.4-0.3-0.6-0.4c-1.4-1.2-2-2.5-2.5-3.7c-0.9-2.4-1.2-4.6-1.3-6.7c-0.1-2.2-0.1-4.3,0.1-6.4c0.3-4.2,0.9-8.3,1.6-12.3
				c0.7-4,1.6-8,2.7-12c1.1-4,2.3-7.9,4.3-11.8c1-1.9,2.1-3.8,3.6-5.6c0.7-0.9,1.6-1.7,2.5-2.4c1-0.7,2-1.4,3.2-1.9
				c1.1-0.5,2.4-0.9,3.7-1.1c0.6-0.1,1.1-0.1,1.7-0.2c0.6-0.1,1.1,0,1.7-0.1c2.3,0,4.6,0.3,6.7,0.8c4.3,1.1,8.3,3,11.9,5.4
				c3.6,2.4,6.8,5.1,9.6,8.1c1.4,1.5,2.8,3.1,4,4.7c0.6,0.8,1.2,1.7,1.8,2.5c0.3,0.4,0.6,0.9,0.8,1.3l0.4,0.7l0.2,0.3l0.1,0.2l0,0.1
				C474.8,185.8,474.8,185.9,474.8,186z"/>
		</g>
		<g>
			<path class="st3" d="M432,161.2c0,0-21.2-21.4-40.5-16.9s-18.7,56.2-9.6,59.9S414.9,229.2,432,161.2z"/>
			<path class="st1" d="M431.6,161.3c0,0,0,0.1,0,0.1L431.6,161.3l-0.2,0l-0.3-0.2l-0.6-0.4l-1.3-0.8c-0.8-0.6-1.7-1.1-2.5-1.6
				c-1.7-1.1-3.4-2.1-5.1-3.1c-3.5-1.9-7-3.7-10.5-5.1c-3.6-1.4-7.2-2.4-10.8-2.8c-1.8-0.2-3.6-0.2-5.3-0.1
				c-0.9,0.1-1.7,0.2-2.6,0.3c-0.7,0.1-1.4,0.3-2.1,0.6c-2.8,1.2-5.4,3.9-7.4,7.1c-2,3.3-3.5,7-4.3,10.9c-1.8,7.7-1.7,16-0.2,23.7
				c0.4,1.9,0.9,3.8,1.5,5.6c0.6,1.8,1.3,3.5,2.2,4.8c0.4,0.6,0.9,1.1,1.1,1.1c0,0,0,0,0,0c0,0,0,0,0.2,0.1l0.8,0.3
				c0.5,0.2,1,0.4,1.5,0.7c1.9,0.9,3.6,1.7,5.4,2.4c3.5,1.4,6.8,2.1,9.9,1.6c3.1-0.5,5.9-2,8.5-4.4c2.6-2.3,4.9-5.3,7-8.5
				c0.5-0.8,1-1.6,1.5-2.4c0.5-0.8,1-1.6,1.4-2.5l1.4-2.6l1.3-2.6c0.9-1.8,1.7-3.6,2.5-5.4l2.4-5.5c0.7-1.9,1.6-3.7,2.3-5.6
				L431.6,161.3z M432.3,161.2c-0.2,1.9-0.4,4-0.7,6.3c-0.4,2.1-0.7,4.1-1.1,6.1c-0.9,4-1.9,8-3.2,12c-1.3,4-2.9,7.8-4.9,11.6
				c-2,3.8-4.5,7.5-7.8,10.6c-1.6,1.6-3.6,3-5.8,4.1c-2.2,1.1-4.6,1.8-7.1,2.1c-2.5,0.2-4.9,0-7.2-0.5c-2.3-0.5-4.4-1.4-6.4-2.3
				c-2-0.9-3.8-2-5.5-3l-1.2-0.7l-0.6-0.3l-0.5-0.3c-0.2-0.1-0.4-0.2-0.6-0.4c-1.6-1.1-2.3-2.3-2.9-3.4c-1.1-2.3-1.6-4.4-2-6.6
				c-0.3-2.1-0.5-4.2-0.6-6.3c-0.2-4.2,0.1-8.3,0.4-12.4c0.3-4.1,0.8-8.2,1.5-12.2c0.7-4.1,1.5-8.1,3-12.2c0.8-2,1.7-4,3-5.9
				c0.6-1,1.4-1.8,2.3-2.7c0.9-0.8,1.8-1.6,2.9-2.2c1.1-0.6,2.3-1.1,3.5-1.4c0.6-0.1,1.1-0.3,1.7-0.4c0.6-0.1,1.1-0.2,1.7-0.2
				c2.3-0.3,4.6-0.2,6.8,0.1c4.4,0.7,8.6,2.1,12.4,4.1c3.8,2,7.3,4.4,10.4,7.1c1.6,1.3,3.1,2.8,4.5,4.3c0.7,0.8,1.4,1.5,2.1,2.3
				c0.3,0.4,0.7,0.8,1,1.2l0.5,0.6l0.2,0.3l0.1,0.2l0.1,0.1C432.2,161,432.3,161.1,432.3,161.2z"/>
		</g>
		<g>
			<path class="st3" d="M403.9,179.2c0,0-34.8-3.2-48.8-8.4c-36.2-13.4-59.3-4.5-63,23s49.4,118.3,49.4,118.3s74.6-27.7,34.4-91.1
				C375.7,221,433.9,223.2,403.9,179.2z"/>
			<path class="st1" d="M403.7,179.5c-0.1,0-0.2,0.1-0.4,0l-0.5,0l-1,0l-2-0.1c-1.4,0-2.7-0.1-4.1-0.2c-2.7-0.1-5.4-0.3-8.1-0.5
				c-5.4-0.4-10.8-1-16.2-1.7c-2.7-0.4-5.4-0.8-8.1-1.4c-1.3-0.3-2.7-0.5-4-0.9l-2-0.5c-0.7-0.2-1.4-0.4-2-0.6
				c-1.4-0.4-2.6-0.8-3.9-1.2c-1.3-0.4-2.5-0.8-3.8-1.2c-2.5-0.7-5.1-1.4-7.6-1.9c-5.1-1-10.2-1.7-15.3-1.6c-2.5,0-5,0.3-7.4,0.8
				c-2.4,0.5-4.7,1.2-6.9,2.2c-2.2,1-4.2,2.3-6,3.8c-1.8,1.5-3.4,3.4-4.7,5.4c-2.7,4-4.3,8.9-5.3,14c-0.1,1.2-0.3,2.4-0.3,3.6
				c0,0.6,0,1.3,0,1.9l0.2,1.9c0.2,2.6,0.6,5.2,1.2,7.8c0.6,2.6,1.2,5.2,1.9,7.7c0.4,1.3,0.8,2.6,1.2,3.8c0.4,1.3,0.8,2.6,1.3,3.8
				c3.5,10.2,7.9,20,12.6,29.6c9.5,19.3,20.7,37.7,31.7,56.1l-3.8-1.4c2-0.8,4.1-1.9,6.2-2.9c2-1.1,4.1-2.2,6-3.4
				c3.9-2.4,7.7-5.1,11.2-8c3.5-3,6.7-6.2,9.5-9.7c2.8-3.5,5.1-7.3,6.9-11.3c1.7-4,2.9-8.3,3.4-12.6c0.5-4.3,0.2-8.8-0.5-13.1
				c-1.6-8.8-5.2-17.3-10-25.2l0-0.1c-0.9-1.6-0.4-3.6,1.1-4.5c0.6-0.4,1.2-0.5,1.8-0.5c2.6,0.1,5.6,0.1,8.3-0.1
				c2.8-0.2,5.6-0.5,8.3-1.1c2.7-0.6,5.4-1.3,7.8-2.3c2.5-1.1,4.7-2.4,6.5-4.3c1.8-1.8,3-4.1,3.5-6.6c0.5-2.5,0.4-5.3-0.2-8
				C409.1,189.7,406.4,184.4,403.7,179.5z M404.1,178.9l2.7,3.6c0.9,1.2,1.6,2.5,2.4,3.8c0.7,1.3,1.4,2.6,2.1,4
				c0.6,1.4,1.2,2.8,1.6,4.2c1,2.9,1.5,6.1,1.1,9.3c-0.3,3.2-1.7,6.5-3.9,9c-2.1,2.5-4.8,4.4-7.6,5.9c-2.8,1.4-5.7,2.5-8.7,3.3
				c-3,0.8-6,1.3-9,1.7c-1.5,0.2-3,0.3-4.5,0.4c-1.5,0.1-3,0.2-4.6,0.2l2.9-5.1c5.4,8.2,9.9,17.3,12,27.4c0.9,5,1.4,10.2,0.8,15.4
				c-0.6,5.2-1.9,10.2-4.1,15c-2.1,4.7-4.9,9.1-8.2,13c-3.3,3.9-6.9,7.4-10.8,10.5c-3.9,3.1-8,5.9-12.3,8.3
				c-2.1,1.2-4.3,2.4-6.6,3.5c-2.3,1.1-4.4,2-6.9,2.9l-0.1,0c-1.4,0.5-3-0.1-3.8-1.4c-2.7-4.7-5.1-9.5-7.6-14.3
				c-2.4-4.8-4.8-9.7-7.2-14.5c-4.7-9.7-9.2-19.5-13.7-29.4c-2.2-4.9-4.5-9.8-6.5-14.8c-2.1-5-4.2-10-6.2-15c-0.5-1.3-1-2.5-1.4-3.8
				c-0.5-1.3-0.9-2.5-1.4-3.8c-0.9-2.6-1.8-5.2-2.5-7.8c-0.7-2.6-1.4-5.3-1.9-8.1l-0.3-2.1c-0.1-0.7-0.1-1.4-0.2-2.1
				c-0.2-1.4,0-2.9,0-4.4c0.6-5.6,2-11.3,4.9-16.5c3-5.1,7.6-9.5,13-12c5.4-2.6,11.3-3.5,17-3.6c5.7,0,11.3,0.7,16.7,2.1
				c2.7,0.6,5.4,1.5,8,2.3c1.3,0.5,2.6,0.9,3.9,1.4l3.8,1.4c4.8,1.8,10,3,15.2,4.2c5.2,1.2,10.5,2.2,15.8,3.2L404.1,178.9z"/>
		</g>
		<path class="st1" d="M478.3,191.9c0,0,5.2,28.6-3.8,34.5c0,0-4.6,15.3,4.9,14.8c0,0-15,14.3-26.3-2.1l-3.9-11.3L478.3,191.9z"/>
		<path class="st1" d="M435.9,165c0,0,5,25.7,0,34c0,0,3.3,30.2,13.2,28.9c0,0-20.8,14.4-29-4.4S435.9,165,435.9,165z"/>
	</g>
	<path class="st1" d="M259.9,780.6c0,0,71.2-30.2,75.9-95.9c0,0,11.4-71.2,23.8-79.9c12.5-8.7,30.9-73.2,30.9-73.2l-47.4-3.3
		L259.9,780.6z"/>
	<g>
		<g>
			<path class="st3" d="M74.1,786.1c-48.3,0-95.2-6.9-135.8-19.9c-12.5-4-24.4-8.6-35.4-13.7c-17-7.9-31.9-16.9-44.1-26.8
				c-16-13-27.3-27.2-33.6-42.2c-3.7-9-5.6-18.2-5.6-27.5c0-4.5,0.5-9.1,1.4-13.6c2.9-14.6-0.7-30.2-10-42.9
				c-7.6-10.4-14.5-21.4-20.7-32.7c-7.9-14.5-14.7-29.8-20.1-45.3c-10.5-30.4-15.8-62.2-15.8-94.6c0-13.1,0.9-26.3,2.6-39.2
				c2-14.8,5.2-29.4,9.4-43.6c18.6-62.4,58.8-118.6,113.2-158.3c56.2-41,123.4-62.6,194.4-62.6c145.4,0,272.6,93.2,309.3,226.7
				c4.1,14.9,7.1,30.4,8.8,46c1.1,10.3,1.6,20.7,1.6,31.1c0,37.3-7,73.7-20.9,108.3c0,0.1,0,0.1-0.1,0.2
				c-7.9,19.5-17.9,38.4-29.9,56.1c0,0-0.1,0.1-0.1,0.1c-1.9,2.7-3.7,5.4-5.6,7.9c-9.3,12.7-12.9,28.4-10,42.9
				c0.9,4.4,1.3,9,1.3,13.6c0,19.5-8.1,38.3-24.2,55.7c-6.6,7.2-14.6,14.1-23.8,20.6c-2.9,2-5.9,4-8.9,5.9
				c-5.8,3.6-12.1,7.2-18.6,10.5C205.2,772.8,141.6,786.1,74.1,786.1z"/>
			<path class="st1" d="M74.1,126.8c146.8,0,270.3,95.1,305.8,224c4.1,14.7,7,29.9,8.6,45.4c1.1,10.1,1.6,20.3,1.6,30.7
				c0,37.7-7.3,73.8-20.7,107v0c-7.9,19.5-17.8,38.1-29.6,55.4c0,0,0,0,0,0c-1.8,2.7-3.7,5.3-5.6,7.9c-9.6,13.2-13.8,29.8-10.6,45.8
				c0.9,4.2,1.3,8.5,1.3,12.9c0,19-8.3,37.1-23.2,53.2c-6.5,7.1-14.3,13.8-23.2,20.1c-2.8,2-5.7,3.9-8.7,5.8
				c-5.7,3.6-11.9,7.1-18.3,10.3c-45.4,22.9-108.1,37-177.3,37c-49.5,0-95.7-7.2-134.6-19.7c-12.4-4-24.1-8.5-35-13.5
				c-16.7-7.7-31.3-16.6-43.4-26.3c-15.3-12.3-26.4-26.1-32.5-40.8c-3.5-8.4-5.3-17.1-5.3-26c0-4.3,0.4-8.6,1.3-12.9
				c3.2-16-1-32.6-10.6-45.8c-7.5-10.3-14.3-21.1-20.5-32.3c-7.8-14.3-14.5-29.2-19.8-44.8c-10.1-29.4-15.6-60.8-15.6-93.4
				c0-13.1,0.9-26,2.6-38.7c2-14.7,5.1-29.1,9.3-43.1C-192.6,219.1-70.6,126.8,74.1,126.8 M74.1,119.4c-36.2,0-71.7,5.6-105.6,16.8
				c-32.8,10.8-63.4,26.4-91,46.6c-27.4,19.9-51.1,43.7-70.5,70.8c-19.8,27.5-34.6,57.6-44.1,89.4c-4.3,14.4-7.5,29.2-9.5,44.2
				c-1.8,13.1-2.7,26.4-2.7,39.7c0,32.8,5.4,65,16,95.8c5.4,15.8,12.3,31.2,20.3,45.9c6.3,11.4,13.3,22.5,21,33.1
				c8.7,11.9,12.1,26.5,9.4,40c-0.9,4.7-1.4,9.5-1.4,14.3c0,9.7,2,19.5,5.9,28.9c6.5,15.6,18.2,30.3,34.7,43.7
				c12.5,10.1,27.6,19.3,44.9,27.3c11.1,5.1,23.2,9.8,35.8,13.9c40.9,13.1,88.2,20.1,136.9,20.1c68.1,0,132.2-13.4,180.6-37.8
				c6.7-3.4,13.1-7,18.9-10.7c3.1-1.9,6.1-3.9,9-6c9.3-6.6,17.5-13.7,24.4-21.1c16.7-18.2,25.2-37.7,25.2-58.2
				c0-4.8-0.5-9.6-1.4-14.3c-2.7-13.5,0.7-28.1,9.4-40c1.9-2.5,3.7-5.2,5.6-8c0-0.1,0.1-0.1,0.1-0.2l0,0
				c12.2-17.9,22.4-37,30.3-56.8c0-0.1,0.1-0.2,0.1-0.2c14-35,21.2-71.8,21.2-109.6c0-10.5-0.6-21.1-1.7-31.5
				c-1.7-15.8-4.7-31.5-8.9-46.6c-9-32.6-23.5-63.4-43.1-91.6c-19.3-27.7-43.1-52.1-70.7-72.6c-27.8-20.7-58.8-36.8-92-47.9
				C146.8,125.2,110.8,119.4,74.1,119.4L74.1,119.4z"/>
		</g>
		
			<linearGradient id="SVGID_10_" gradientUnits="userSpaceOnUse" x1="369.1093" y1="460.4352" x2="34.4939" y2="477.4495" gradientTransform="matrix(-1 0 0 1 395.284 0)">
			<stop  offset="0" style="stop-color:#2AD8FF"/>
			<stop  offset="0.9948" style="stop-color:#FC1E79"/>
		</linearGradient>
		<path class="st13" d="M-176,602.2c9.4,12.9,13.5,29.1,10.3,44.7c-0.8,4.1-1.3,8.3-1.3,12.6c0,36,30.4,68.4,78.9,91
			c10.5,4.9,21.9,9.3,34,13.2C-16.2,775.9,28.6,783,76.8,783c67.3,0,128.2-13.8,172.3-36.2c9.6-4.9,18.4-10.1,26.3-15.7
			c28.4-20.2,45.1-44.9,45.1-71.6c0-4.2-0.4-8.4-1.2-12.6c-3.1-15.7,1-31.8,10.3-44.7c34.2-47.3,54.3-104.6,54.3-166.4
			c0-161.8-137.5-293-307-293c-169.6,0-307,131.2-307,293C-230.2,497.6-210.2,554.9-176,602.2z"/>
		<g>
			<path class="st1" d="M204.7,613.7c0.6,0.5,1.4,1,2.1,1.5c0.7,0.5,1.6,1,2.4,1.5c0.8,0.5,1.6,1,2.4,1.4c0.8,0.5,1.6,1,2.5,1.4
				l2.5,1.3l2.6,1.2c1.7,0.8,3.5,1.6,5.3,2.3c7.2,2.9,14.7,5,22.3,6.7c3.8,0.7,7.7,1.5,11.6,1.9l2.9,0.4c1,0.1,1.9,0.3,2.9,0.3
				l5.9,0.4c1,0.1,2,0.2,2.9,0.2l2.9,0.1l5.9,0.1c3.9,0,7.9-0.3,11.8-0.4c-3.9,0.4-7.8,1-11.8,1.3l-5.9,0.4l-3,0.2c-1,0.1-2,0-3,0
				l-6,0c-1,0-2,0-3-0.1l-3-0.2c-4-0.1-7.9-0.6-11.9-1c-7.9-1.1-15.8-2.7-23.5-5.1c-1.9-0.6-3.9-1.2-5.7-2l-2.8-1.1l-2.8-1.2
				c-0.9-0.4-1.9-0.8-2.8-1.3c-0.9-0.4-1.9-0.9-2.8-1.4c-0.9-0.5-1.8-0.9-2.7-1.5c-0.9-0.5-1.8-1-2.8-1.7c-1.7-1.1-2.1-3.4-1-5.1
				c1.1-1.7,3.4-2.1,5.1-1C204.5,613.6,204.5,613.6,204.7,613.7L204.7,613.7z"/>
		</g>
		<g>
			<path class="st1" d="M190.9,633.7c0.6,0.5,1.4,1,2.1,1.5c0.7,0.5,1.6,1,2.4,1.5c0.8,0.5,1.6,1,2.4,1.4c0.8,0.5,1.6,1,2.5,1.4
				l2.5,1.3l2.6,1.2c1.7,0.8,3.5,1.6,5.3,2.3c7.2,2.9,14.7,5,22.3,6.7c3.8,0.7,7.7,1.5,11.6,1.9l2.9,0.4c1,0.1,1.9,0.3,2.9,0.3
				l5.9,0.4c1,0.1,2,0.2,2.9,0.2l2.9,0.1l5.9,0.1c3.9,0,7.9-0.3,11.8-0.4c-3.9,0.4-7.8,1-11.8,1.3l-5.9,0.4l-3,0.2c-1,0.1-2,0-3,0
				l-6,0c-1,0-2,0-3-0.1l-3-0.2c-4-0.1-7.9-0.6-11.9-1c-7.9-1.1-15.8-2.7-23.5-5.1c-1.9-0.6-3.9-1.2-5.7-2l-2.8-1.1l-2.8-1.2
				c-0.9-0.4-1.9-0.8-2.8-1.3c-0.9-0.4-1.9-0.9-2.8-1.4c-0.9-0.5-1.8-0.9-2.7-1.5c-0.9-0.5-1.8-1-2.8-1.7c-1.7-1.1-2.1-3.4-1-5.1
				c1.1-1.7,3.4-2.1,5.1-1C190.7,633.6,190.8,633.6,190.9,633.7L190.9,633.7z"/>
		</g>
		<g>
			<path class="st1" d="M198.4,623.7c0.6,0.5,1.4,1,2.1,1.5c0.7,0.5,1.6,1,2.4,1.5c0.8,0.5,1.6,1,2.4,1.4c0.8,0.5,1.6,1,2.5,1.4
				l2.5,1.3l2.6,1.2c1.7,0.8,3.5,1.6,5.3,2.3c7.2,2.9,14.7,5,22.3,6.7c3.8,0.7,7.7,1.5,11.6,1.9l2.9,0.4c1,0.1,1.9,0.3,2.9,0.3
				l5.9,0.4c1,0.1,2,0.2,2.9,0.2l2.9,0.1l5.9,0.1c3.9,0,7.9-0.3,11.8-0.4c-3.9,0.4-7.8,1-11.8,1.3l-5.9,0.4l-3,0.2c-1,0.1-2,0-3,0
				l-6,0c-1,0-2,0-3-0.1l-3-0.2c-4-0.1-7.9-0.6-11.9-1c-7.9-1.1-15.8-2.7-23.5-5.1c-1.9-0.6-3.9-1.2-5.7-2l-2.8-1.1l-2.8-1.2
				c-0.9-0.4-1.9-0.8-2.8-1.3c-0.9-0.4-1.9-0.9-2.8-1.4c-0.9-0.5-1.8-0.9-2.7-1.5c-0.9-0.5-1.8-1-2.8-1.7c-1.7-1.1-2.1-3.4-1-5.1
				c1.1-1.7,3.4-2.1,5.1-1C198.2,623.6,198.3,623.6,198.4,623.7L198.4,623.7z"/>
		</g>
		<path class="st1" d="M144,600.8c0,0,98.5,14.1,102.2,24.3c0,0-53.8-6-32.5,41.5"/>
		<path class="st1" d="M129.5,504.7c0,0-69.6,35.7-128.4-44.4l-20-50c0,0,83.8,91.3,160.1,75L129.5,504.7z"/>
		<g>
			<path class="st1" d="M265.9,388.3c0-2.4-0.2-5.1-0.4-7.6c-0.2-2.6-0.5-5.1-0.8-7.7c-0.6-5.1-1.5-10.2-2.5-15.3
				c-1-5.1-2.2-10.1-3.6-15.1c-1.4-5-3-9.9-4.8-14.8c-3.7-9.7-8.2-19.1-13.9-27.8c-2.8-4.4-6-8.5-9.4-12.5c-3.4-4-7.2-7.6-11.2-11
				c4.1,3.2,8.2,6.6,11.8,10.4c3.6,3.8,7.1,7.8,10.2,12c6.3,8.5,11.5,17.8,15.8,27.5c2.1,4.8,4.1,9.8,5.8,14.8
				c1.7,5,3.2,10.1,4.6,15.2c1.3,5.1,2.5,10.3,3.4,15.6c0.5,2.6,0.9,5.2,1.3,7.9c0.4,2.7,0.7,5.3,0.9,8.1c0.2,2-1.4,3.8-3.4,4
				s-3.8-1.4-4-3.4C265.9,388.5,265.9,388.4,265.9,388.3L265.9,388.3z"/>
		</g>
		<g>
			<path class="st1" d="M251.5,400.1c0.2-2.4,0.3-5,0.4-7.5c0.1-2.5,0.1-5.1,0-7.6c-0.1-5.1-0.4-10.2-0.8-15.3
				c-0.5-5.1-1.1-10.2-2-15.2c-0.9-5-2-10.1-3.2-15c-2.6-9.9-6.1-19.6-10.8-28.8c-2.3-4.6-5.1-9-8-13.2c-2.9-4.2-6.3-8.2-9.8-12
				c3.8,3.6,7.4,7.3,10.6,11.4c3.2,4.1,6.2,8.4,8.8,12.9c5.3,9,9.5,18.7,12.8,28.6c1.6,5,3,10,4.2,15.2c1.2,5.1,2.2,10.3,2.9,15.5
				c0.8,5.2,1.4,10.4,1.8,15.7c0.2,2.6,0.4,5.3,0.5,7.9c0.1,2.7,0.2,5.2,0.1,8c-0.1,2-1.7,3.6-3.8,3.6c-2-0.1-3.6-1.7-3.6-3.8
				C251.5,400.3,251.5,400.2,251.5,400.1L251.5,400.1z"/>
		</g>
		<g>
			<path class="st1" d="M240.1,415.7c0.3-2.4,0.6-5,0.7-7.6c0.2-2.6,0.3-5.2,0.4-7.7c0.2-5.2,0.1-10.4-0.1-15.5
				c-0.2-5.2-0.6-10.4-1.2-15.5c-0.6-5.2-1.5-10.3-2.5-15.4c-2.1-10.2-5.2-20.2-9.5-29.7c-2.1-4.8-4.7-9.3-7.4-13.8
				c-2.8-4.4-6-8.6-9.4-12.6c3.6,3.8,7.1,7.8,10.1,12.1c3,4.3,5.9,8.8,8.3,13.5c4.9,9.4,8.7,19.4,11.5,29.6
				c1.4,5.1,2.6,10.3,3.5,15.6c0.9,5.2,1.7,10.5,2.2,15.8c0.5,5.3,0.9,10.6,1,16c0.1,2.7,0.1,5.3,0.1,8c0,2.7-0.1,5.3-0.3,8.1
				c-0.2,2-1.9,3.5-3.9,3.4c-2-0.2-3.5-1.9-3.4-3.9C240.1,415.9,240.1,415.9,240.1,415.7L240.1,415.7z"/>
		</g>
		<g>
			<path class="st1" d="M-61.3,385.4c1.3,0.1,2.8,0.1,4.2,0.1c1.5,0,2.9-0.1,4.4-0.1c2.9-0.1,5.9-0.4,8.8-0.7
				c5.9-0.6,11.7-1.6,17.5-2.8c5.8-1.2,11.5-2.8,17.1-4.6c5.6-1.8,11.2-4,16.6-6.4C18.2,366,28.5,360,38.2,353
				c9.6-7.1,18.6-15.1,26.7-24c-7.6,9.3-16.2,17.8-25.6,25.4c-9.4,7.5-19.6,14.2-30.5,19.6c-5.4,2.7-11,5.2-16.7,7.4
				c-5.7,2.2-11.5,4-17.4,5.6C-31,388.7-37,390-43,391c-3,0.5-6.1,0.9-9.1,1.2c-1.5,0.2-3.1,0.3-4.6,0.4c-1.6,0.1-3.1,0.2-4.8,0.2
				c-2,0-3.7-1.6-3.7-3.7c0-2,1.6-3.7,3.7-3.7C-61.5,385.4-61.4,385.4-61.3,385.4L-61.3,385.4z"/>
		</g>
		<g>
			<path class="st1" d="M-53.8,397.9c1.3,0.1,2.8,0.1,4.2,0.1c1.5,0,2.9-0.1,4.4-0.1c2.9-0.1,5.9-0.4,8.8-0.7
				c5.9-0.6,11.7-1.6,17.5-2.8c5.8-1.2,11.5-2.8,17.1-4.6c5.6-1.8,11.2-4,16.6-6.4c10.9-4.8,21.2-10.8,30.9-17.8
				c9.6-7.1,18.6-15.1,26.7-24c-7.6,9.3-16.2,17.8-25.6,25.4c-9.4,7.5-19.6,14.2-30.5,19.6c-5.4,2.7-11,5.2-16.7,7.4
				c-5.7,2.2-11.5,4-17.4,5.6c-5.9,1.6-11.9,2.9-17.9,3.9c-3,0.5-6.1,0.9-9.1,1.2c-1.5,0.2-3.1,0.3-4.6,0.4
				c-1.6,0.1-3.1,0.2-4.8,0.2c-2,0-3.7-1.6-3.7-3.7c0-2,1.6-3.7,3.7-3.7C-54,397.9-53.9,397.9-53.8,397.9L-53.8,397.9z"/>
		</g>
		<g>
			<path class="st1" d="M-47.5,410.4c1.3,0.1,2.8,0.1,4.2,0.1c1.5,0,2.9-0.1,4.4-0.1c2.9-0.1,5.9-0.4,8.8-0.7
				c5.9-0.6,11.7-1.6,17.5-2.8c5.8-1.2,11.5-2.8,17.1-4.6c5.6-1.8,11.2-4,16.6-6.4C31.9,391,42.3,385,52,378
				c9.6-7.1,18.6-15.1,26.7-24c-7.6,9.3-16.2,17.8-25.6,25.4c-9.4,7.5-19.6,14.2-30.5,19.6c-5.4,2.7-11,5.2-16.7,7.4
				c-5.7,2.2-11.5,4-17.4,5.6c-5.9,1.6-11.9,2.9-17.9,3.9c-3,0.5-6.1,0.9-9.1,1.2c-1.5,0.2-3.1,0.3-4.6,0.4
				c-1.6,0.1-3.1,0.2-4.8,0.2c-2,0-3.7-1.6-3.7-3.7c0-2,1.6-3.7,3.7-3.7C-47.7,410.4-47.7,410.4-47.5,410.4L-47.5,410.4z"/>
		</g>
		<g>
			<path class="st1" d="M-68.8,372.9c1.3,0.1,2.8,0.1,4.2,0.1c1.5,0,2.9-0.1,4.4-0.1c2.9-0.1,5.9-0.4,8.8-0.7
				c5.9-0.6,11.7-1.6,17.5-2.8c5.8-1.2,11.5-2.8,17.1-4.6c5.6-1.8,11.2-4,16.6-6.4c10.9-4.8,21.2-10.8,30.9-17.8
				c9.6-7.1,18.6-15.1,26.7-24c-7.6,9.3-16.2,17.8-25.6,25.4c-9.4,7.5-19.6,14.2-30.5,19.6c-5.4,2.7-11,5.2-16.7,7.4
				c-5.7,2.2-11.5,4-17.4,5.6c-5.9,1.6-11.9,2.9-17.9,3.9c-3,0.5-6.1,0.9-9.1,1.2c-1.5,0.2-3.1,0.3-4.6,0.4
				c-1.6,0.1-3.1,0.2-4.8,0.2c-2,0-3.7-1.6-3.7-3.7c0-2,1.6-3.7,3.7-3.7C-69,372.9-69,372.9-68.8,372.9L-68.8,372.9z"/>
		</g>
		<g>
			<path class="st1" d="M276.3,245.4c-2.4-3.1-5-6.3-7.7-9.3c-1.4-1.5-2.7-3-4.1-4.5c-1.4-1.5-2.8-3-4.2-4.4
				c-5.7-5.9-11.6-11.5-17.9-16.8c-3.1-2.7-6.3-5.2-9.5-7.8l-4.9-3.7c-0.8-0.6-1.6-1.2-2.5-1.8l-2.5-1.7c-6.7-4.8-13.8-8.9-21-12.9
				c7.5,3.5,14.9,7.1,22,11.4l2.7,1.6c0.9,0.5,1.7,1.1,2.6,1.7l5.2,3.3c3.4,2.4,6.9,4.6,10.2,7.2c6.7,4.9,13.2,10.1,19.4,15.7
				c1.6,1.4,3.1,2.8,4.6,4.2c1.5,1.4,3,2.9,4.5,4.3c3,3,5.9,5.9,8.8,9.1c1.3,1.5,1.2,3.8-0.3,5.2c-1.5,1.3-3.8,1.2-5.2-0.3
				C276.5,245.6,276.4,245.5,276.3,245.4L276.3,245.4z"/>
		</g>
		<g>
			<path class="st1" d="M276.3,260.4c-2.4-3.1-5-6.3-7.7-9.3c-1.4-1.5-2.7-3-4.1-4.5c-1.4-1.5-2.8-3-4.2-4.4
				c-5.7-5.9-11.6-11.5-17.9-16.8c-3.1-2.7-6.3-5.2-9.5-7.8l-4.9-3.7c-0.8-0.6-1.6-1.2-2.5-1.8l-2.5-1.7c-6.7-4.8-13.8-8.9-21-12.9
				c7.5,3.5,14.9,7.1,22,11.4l2.7,1.6c0.9,0.5,1.7,1.1,2.6,1.7l5.2,3.3c3.4,2.4,6.9,4.6,10.2,7.2c6.7,4.9,13.2,10.1,19.4,15.7
				c1.6,1.4,3.1,2.8,4.6,4.2c1.5,1.4,3,2.9,4.5,4.3c3,3,5.9,5.9,8.8,9.1c1.3,1.5,1.2,3.8-0.3,5.2c-1.5,1.3-3.8,1.2-5.2-0.3
				C276.5,260.6,276.4,260.5,276.3,260.4L276.3,260.4z"/>
		</g>
		<g>
			<path class="st1" d="M273.7,281.8c-2.1-3.3-4.5-6.6-7-9.9c-1.2-1.6-2.5-3.2-3.7-4.8c-1.3-1.6-2.5-3.2-3.9-4.7
				c-5.2-6.3-10.7-12.3-16.5-18.1c-2.9-2.9-5.9-5.7-8.9-8.5l-4.6-4c-0.8-0.7-1.5-1.4-2.3-2l-2.4-1.9c-6.3-5.3-13.1-9.9-20-14.5
				c7.2,4,14.3,8.2,21.1,13l2.6,1.8c0.8,0.6,1.7,1.2,2.5,1.9l5,3.7c3.2,2.6,6.5,5.2,9.6,7.9c6.3,5.4,12.4,11.1,18.1,17.1
				c1.5,1.5,2.9,3,4.3,4.5c1.4,1.5,2.8,3.1,4.2,4.7c2.8,3.2,5.4,6.3,8,9.8c1.2,1.6,0.9,3.9-0.7,5.2c-1.6,1.2-3.9,0.9-5.2-0.7
				C273.8,282,273.8,281.9,273.7,281.8L273.7,281.8z"/>
		</g>
		<g>
			<path class="st1" d="M274.9,301.7c-2-3.3-4.3-6.8-6.6-10.1c-1.2-1.7-2.4-3.3-3.6-5c-1.2-1.6-2.4-3.3-3.7-4.9
				c-5-6.5-10.3-12.7-15.9-18.7c-2.7-3-5.7-5.9-8.6-8.8l-4.5-4.2c-0.8-0.7-1.5-1.4-2.3-2.1l-2.3-2c-6.1-5.5-12.7-10.4-19.4-15.2
				c7,4.3,14,8.7,20.6,13.8l2.5,1.9c0.8,0.6,1.6,1.3,2.4,1.9l4.8,3.9c3.1,2.7,6.3,5.4,9.3,8.2c6.1,5.6,12,11.5,17.5,17.7
				c1.4,1.5,2.7,3.1,4.1,4.7c1.4,1.6,2.7,3.2,4,4.8c2.6,3.3,5.2,6.5,7.7,10.1c1.2,1.7,0.8,4-0.9,5.1c-1.7,1.2-4,0.8-5.1-0.9
				C275.1,301.9,275,301.9,274.9,301.7L274.9,301.7z"/>
		</g>
		<g>
			<path class="st1" d="M269.2,311.2c-2.1-3.3-4.4-6.7-6.8-10c-1.2-1.6-2.4-3.3-3.6-4.9c-1.3-1.6-2.5-3.2-3.8-4.8
				c-5.1-6.4-10.5-12.5-16.2-18.4c-2.8-3-5.8-5.8-8.7-8.7l-4.5-4.1c-0.8-0.7-1.5-1.4-2.3-2.1l-2.4-2c-6.2-5.4-12.9-10.2-19.7-14.9
				c7.1,4.2,14.2,8.5,20.8,13.4l2.5,1.8c0.8,0.6,1.6,1.3,2.5,1.9l4.9,3.8c3.2,2.7,6.4,5.3,9.4,8.1c6.2,5.5,12.1,11.4,17.8,17.5
				c1.4,1.5,2.8,3.1,4.2,4.6c1.4,1.6,2.7,3.1,4.1,4.7c2.7,3.2,5.3,6.4,7.8,9.9c1.2,1.6,0.8,3.9-0.8,5.1c-1.6,1.2-3.9,0.8-5.1-0.8
				C269.4,311.4,269.3,311.3,269.2,311.2L269.2,311.2z"/>
		</g>
		<g>
			<path class="st1" d="M270,332.4c-1.8-3.5-3.9-7-5.9-10.5c-1.1-1.7-2.1-3.5-3.2-5.2c-1.1-1.7-2.2-3.4-3.4-5.1
				c-4.5-6.8-9.4-13.3-14.6-19.6c-2.5-3.2-5.3-6.2-8-9.3l-4.2-4.5c-0.7-0.7-1.4-1.5-2.1-2.2l-2.2-2.2c-5.7-5.9-12-11.2-18.4-16.4
				c6.8,4.7,13.5,9.6,19.7,15l2.4,2c0.8,0.7,1.5,1.4,2.3,2.1l4.6,4.2c2.9,2.9,6,5.8,8.8,8.8c5.7,6,11.2,12.3,16.3,18.8
				c1.3,1.6,2.5,3.3,3.8,4.9c1.2,1.7,2.5,3.4,3.7,5c2.4,3.4,4.8,6.8,7,10.5c1.1,1.7,0.5,4-1.2,5.1c-1.7,1.1-4,0.5-5.1-1.2
				C270.1,332.7,270.1,332.6,270,332.4L270,332.4z"/>
		</g>
		<path class="st1" d="M274.4,229.6c0,0-39.3-46.7-80.3-64.6c0,0,53.6,19,92.6,58L274.4,229.6z"/>
		<path class="st1" d="M389.7,435.8c0,61.8-23.5,119.1-57.2,166.4c-4.9,6.8-12,14.6-13.7,22.7c-88.5,15.7-205-38.3-205-38.3
			S210,446.6,256.2,400.3s-22.5-118.8-22.5-118.8c5.7-24.9,21.9-64.6,32.5-76.3C333.8,255.2,389.7,348.9,389.7,435.8z"/>
		<g>
			<path class="st1" d="M67.5,216.7c0.3,0.5,0.4,1,0.6,1.5c0.2,0.5,0.4,0.9,0.5,1.4c0.4,0.9,0.7,1.8,1,2.7c0.3,0.9,0.6,1.8,0.8,2.8
				c0.3,0.9,0.5,1.8,0.8,2.8c0.4,1.9,0.9,3.7,1.2,5.6c0.4,1.9,0.7,3.7,0.9,5.6c1,7.5,1.4,15,1,22.5c0,0.9-0.1,1.9-0.2,2.8l-0.3,2.8
				l-0.3,2.8c-0.1,0.9-0.3,1.8-0.4,2.8l-0.9,5.5l-1.2,5.4l-0.6,2.7c-0.2,0.9-0.5,1.8-0.8,2.7l-1.6,5.3l-0.4,1.3l-0.5,1.3l-1,2.6
				l-2,5.2l1.5-5.3l0.8-2.6l0.4-1.3l0.3-1.3l1.2-5.4c0.2-0.9,0.4-1.8,0.5-2.7l0.4-2.7l0.8-5.4l0.4-5.5c0.1-0.9,0.2-1.8,0.2-2.7
				l0-2.7l0-2.7c0-0.9,0-1.8,0-2.7c-0.2-7.3-1.2-14.5-2.7-21.5c-0.4-1.8-0.8-3.5-1.3-5.2c-0.4-1.7-1.1-3.4-1.6-5.1
				c-0.3-0.8-0.6-1.7-0.9-2.5c-0.3-0.8-0.6-1.7-1-2.5c-0.3-0.8-0.7-1.6-1.1-2.4c-0.2-0.4-0.4-0.8-0.6-1.2c-0.2-0.4-0.4-0.8-0.6-1
				c-1-1.8-0.4-4,1.3-5c1.8-1,4-0.4,5,1.3C67.4,216.4,67.5,216.5,67.5,216.7L67.5,216.7z"/>
		</g>
		<g>
			<path class="st1" d="M81.8,216.7c0.2,0.6,0.4,1,0.6,1.5c0.2,0.5,0.3,0.9,0.5,1.4c0.3,0.9,0.6,1.9,0.8,2.8
				c0.3,0.9,0.5,1.9,0.7,2.8c0.2,0.9,0.5,1.9,0.7,2.8c0.3,1.9,0.8,3.7,1,5.6c0.3,1.9,0.6,3.7,0.7,5.6c0.7,7.5,0.8,15.1,0.1,22.5
				c0,0.9-0.2,1.9-0.3,2.8l-0.4,2.8l-0.4,2.8c-0.1,0.9-0.4,1.8-0.5,2.7l-1.1,5.5l-1.5,5.4l-0.7,2.7c-0.2,0.9-0.6,1.8-0.9,2.6
				l-1.8,5.2l-0.5,1.3l-0.5,1.3l-1.1,2.5l-2.2,5.1l1.7-5.2l0.9-2.6l0.4-1.3l0.3-1.3l1.4-5.3c0.2-0.9,0.5-1.8,0.7-2.7l0.5-2.7l1-5.4
				l0.6-5.4c0.1-0.9,0.2-1.8,0.3-2.7l0.1-2.7l0.1-2.7c0-0.9,0.1-1.8,0.1-2.7c0.1-7.3-0.6-14.5-1.9-21.6c-0.3-1.8-0.7-3.5-1.1-5.3
				c-0.4-1.8-0.9-3.5-1.4-5.2c-0.2-0.9-0.5-1.7-0.8-2.5c-0.3-0.8-0.6-1.7-0.9-2.5c-0.3-0.8-0.6-1.6-1-2.4c-0.2-0.4-0.3-0.8-0.5-1.2
				c-0.2-0.4-0.4-0.8-0.5-1.1c-1-1.8-0.3-4,1.5-5c1.8-1,4-0.3,5,1.5C81.7,216.4,81.7,216.5,81.8,216.7L81.8,216.7z"/>
		</g>
		<path class="st1" d="M-167.8,659.5c0-4.2,0.4-8.4,1.2-12.6c3.1-15.7-1-31.8-10.2-44.7c-33.7-47.3-53.5-104.6-53.5-166.4
			c0-161.8,135.4-293,302.5-293c34.3,0,67.2,4.3,98,14.5c-0.2,19.2-5.2,55.4-60.3,70.4c0,0-41.3-12.5-48.8,17.5
			c0,0,18.8,100-105,118.8c0,0,83.8,175.1,170.1,153.8c71-17.5,10,101.3,10,101.3l-178,149c-5-1.4-10-2.9-14.8-4.5
			c-11.9-3.9-23.1-12.1-33.4-17C-137.9,724.1-167.8,695.5-167.8,659.5z"/>
		<path class="st3" d="M-112.9,226c11.3,28.3,54,37.9,95.4,21.4s65.8-52.8,54.5-81.2s-43.3-23.8-84.6-7.3S-124.1,197.6-112.9,226z"
			/>
		<path class="st14" d="M-226.3,520.2c5.4,15.5,12,30.5,19.8,44.8c48.3,41.8,130.2,74.8,258.9,22.9c0,0,26-185.1-167.6-216.4
			c-50.6-8.2-87.7-17.4-114.9-26.5c-4.2,14-7.3,28.4-9.3,43.1c12,6.4,26.2,11.2,42.9,13.4c0,0-47.8,22.5,5,101.3
			C-157.7,553.3-193.7,541.2-226.3,520.2z"/>
		<path class="st14" d="M115.6,587.9c101.9,41.1,174.4,29,224.2,1.4c0,0,0,0,0,0c11.8-17.3,21.7-35.9,29.6-55.4
			c-21.7,9.4-34.9,6.2-9.9-31.1c0,0,0,0,0,0c3.7-5.5,6.8-10.7,9.6-15.6c30-54.1,7.9-76.9-1.2-83.5c-2-1.5-3.4-2.1-3.4-2.1
			c1-0.1,2-0.3,3-0.4c7.5-1.2,14.5-2.9,21-5c-1.7-15.5-4.6-30.7-8.6-45.4c-7.6,2.2-15.8,4.4-24.7,6.5c-4,1-8.2,2-12.5,2.9
			c-17.4,3.9-37.1,7.7-59.5,11.3C89.6,402.8,115.6,587.9,115.6,587.9z"/>
		
			<linearGradient id="SVGID_11_" gradientUnits="userSpaceOnUse" x1="371.6625" y1="510.6487" x2="37.0471" y2="527.663" gradientTransform="matrix(-1 0 0 1 395.284 0)">
			<stop  offset="0" style="stop-color:#2AD8FF"/>
			<stop  offset="0.9948" style="stop-color:#FC1E79"/>
		</linearGradient>
		<path class="st15" d="M6.7,582.7c0,0,7.5-20-6.3-45c0,0-15.5-127.4-171.3-105.1c0,0-3.5,82.2,28.9,72.4
			C-141.9,504.9-27.7,464.7,6.7,582.7z"/>
		<g>
			<g>
				<path class="st1" d="M6.4,581.5c-0.4-4.5-0.9-8.9-1.7-13.3c-0.8-4.4-1.7-8.7-2.7-13c-2.2-8.6-5-17-8.7-25
					c-3.7-7.9-8.1-15.5-13.7-22.1c-5.5-6.6-12-12.2-19.4-16.4c-7.4-4.2-15.5-6.9-23.8-8.2c-4.2-0.6-8.4-1.1-12.7-1.1
					c-1.1,0-2.1,0-3.2,0c-1.1,0-2.1,0-3.2,0.1c-2.1,0.1-4.3,0.2-6.4,0.5c-8.6,0.9-17.1,2.6-25.4,5c-8.4,2.4-16.6,5.3-24.8,8.6
					l3.1-4.7c0,0.9,0.1,2,0.2,3c0.1,1,0.2,2.1,0.3,3.1c0.2,2.1,0.5,4.2,0.8,6.3c0.6,4.2,1.4,8.4,2.3,12.5c1.9,8.2,4.5,16.3,7.9,24
					c3.4,7.7,7.7,14.9,12.9,21.3c5.2,6.5,11.4,12,18.5,16.4c7.1,4.3,14.9,7.5,23.1,9.3c4.1,0.9,8.3,1.7,12.5,2
					c1.1,0.1,2.1,0.2,3.2,0.2c1.1,0.1,2.1,0.1,3.2,0.2c2.1,0,4.3,0.1,6.4,0C-27.7,590-10.5,586.2,6.4,581.5z M6.4,581.5
					c-16.1,7-33.2,12.2-51,13.9c-2.2,0.2-4.5,0.3-6.7,0.4c-1.1,0-2.2,0-3.4,0c-1.1,0-2.3,0-3.4,0c-4.5-0.1-9-0.6-13.5-1.3
					c-9-1.5-17.8-4.5-25.9-9c-8.1-4.5-15.3-10.6-21.4-17.5c-6-7-10.9-14.9-14.8-23.2c-3.9-8.3-6.7-16.9-8.8-25.8
					c-1-4.4-1.9-8.9-2.5-13.3c-0.3-2.2-0.6-4.5-0.8-6.8c-0.1-1.1-0.2-2.3-0.3-3.4c-0.1-1.2-0.1-2.2-0.2-3.5c-0.1-2.1,1.2-4,3.1-4.7
					l0,0c8.4-3.4,17.1-6.4,25.9-8.7c8.8-2.4,17.9-4.1,27.2-4.8c2.3-0.2,4.6-0.3,6.9-0.4c1.2,0,2.3,0,3.5,0c1.2,0,2.3,0,3.5,0.1
					c4.7,0.1,9.3,0.8,13.9,1.6c4.6,0.8,9.2,2.2,13.6,3.9c4.4,1.7,8.6,3.8,12.6,6.3c8,5,15,11.5,20.5,19c5.5,7.4,9.9,15.6,13.1,24.2
					c1.6,4.3,3,8.6,4.1,13c1.2,4.4,2.1,8.8,2.8,13.3C6,563.5,6.7,572.5,6.4,581.5z"/>
			</g>
		</g>
		
			<linearGradient id="SVGID_12_" gradientUnits="userSpaceOnUse" x1="370.6559" y1="490.852" x2="36.0405" y2="507.8663" gradientTransform="matrix(-1 0 0 1 395.284 0)">
			<stop  offset="0" style="stop-color:#2AD8FF"/>
			<stop  offset="0.9948" style="stop-color:#FC1E79"/>
		</linearGradient>
		<path class="st16" d="M348.2,429.6c0,0-39.4-13.8-96.3,10.6c-97.7,41.9-87.4,93.5-87.4,93.5l-8.9,44.1c0,0,27.7-109.6,145.5-89.5
			C301.1,488.2,361.9,458.3,348.2,429.6z"/>
		<g>
			<path class="st1" d="M155.7,579.1c-0.5-9.4,0.2-18.8,1.6-28.2c0.7-4.7,1.6-9.3,2.8-14c1.2-4.6,2.5-9.2,4.1-13.7
				c1.6-4.5,3.5-9,5.7-13.3c2.2-4.3,4.6-8.5,7.4-12.5c5.5-8.1,12.4-15.3,20.4-21.3c4-3,8.3-5.6,12.7-7.8c4.5-2.2,9.1-4,13.9-5.5
				c9.5-2.9,19.4-4.3,29.3-4.5c9.8-0.2,19.6,0.7,29.1,2.3l7.1,1.3l7.1,1.6l7,1.8l6.9,2c2.8,0.8,4.6,3.3,4.8,6l0,0.1
				c0.1,0.8,0.1,1.4,0.1,2l0,1.9c0,1.3,0,2.5,0,3.7c0,2.5-0.1,4.9-0.3,7.4c-0.3,4.9-0.9,9.8-1.6,14.7c-1.5,9.7-4,19.4-7.7,28.7
				c-3.6,9.3-8.5,18.2-14.8,26.2c-6.3,7.9-13.9,14.9-22.6,20.1c-4.3,2.6-8.9,4.9-13.6,6.6c-4.7,1.8-9.5,3.1-14.3,4.2
				c-4.9,1-9.7,1.6-14.6,2c-4.9,0.3-9.8,0.4-14.6,0.1C192.2,590.3,173.4,585.7,155.7,579.1z M155.7,579.1c2.5,0.5,4.8,0.9,7,1.3
				l7,1.1c2.3,0.4,4.7,0.7,7,1c2.3,0.3,4.7,0.5,7,0.8l7,0.6c2.3,0.2,4.7,0.3,7,0.4c4.7,0.1,9.3,0.1,13.9-0.1
				c4.6-0.2,9.2-0.7,13.7-1.3c4.5-0.7,8.9-1.6,13.3-2.9c8.6-2.5,16.9-6.1,24.1-11.1c7.2-5,13.6-11.1,18.7-18.2
				c5.2-7.1,9.2-15,12.3-23.4c3.1-8.4,5.2-17.2,6.6-26.1c0.7-4.5,1.2-9,1.4-13.5c0.1-2.3,0.2-4.5,0.3-6.8c0-1.1,0-2.2,0-3.4l0-1.7
				l-0.1-1.5l4.8,6.1l-6.5-2l-6.6-1.8l-6.6-1.6l-6.6-1.4c-8.9-1.6-17.8-2.6-26.7-2.7c-8.9,0-17.7,0.8-26.2,3.1
				c-4.2,1.1-8.4,2.5-12.4,4.2c-4,1.8-7.8,3.9-11.5,6.3c-7.3,4.8-13.8,10.9-19.4,17.9c-2.8,3.5-5.3,7.2-7.7,11.1
				c-2.3,3.9-4.4,7.9-6.4,12c-3.9,8.3-6.8,17-9.3,26c-1.2,4.5-2.2,9-3.1,13.6C156.8,569.8,156.1,574.4,155.7,579.1z"/>
		</g>
		<circle class="st1" cx="-46.7" cy="542.7" r="20.9"/>
		<circle class="st1" cx="215.9" cy="537.7" r="20.9"/>
		<path class="st1" d="M-23.9,609.8c0,0,11.6-17,8.3-21c0,0-48.3,9.5-59.6,6l-7.7,15.1c0,0,27.7-16.2,29-9.7
			c1.3,6.5-0.3,11.4-0.3,11.4L-23.9,609.8z"/>
		<path class="st1" d="M-27.7,471.7c0,0-21.3-53.5-26.6-80.6l-28.5-10c0,0,11.3,43.9,15,61.7c3.1,14.8-36.2-66.4-36.2-66.4
			l-11.3-4.9c0,0,11.3,26.1,24,60.7L-27.7,471.7z"/>
		<g>
			<path class="st1" d="M-222.4,347.6c4.3,1.4,8.9,2.7,13.7,4.1c0.3,15.5,1.7,32.2,5,48.8c-5.5-1-10.7-2.3-15.7-3.9
				C-221.9,379.6-222.7,362.4-222.4,347.6z"/>
			<path class="st1" d="M-202.5,405.8c3.2,14.2,8,28.1,14.8,40.8c31.2,57.9,24.8,118.9,40.7,154.3c-5.2-2-10.3-4.2-15.1-6.6
				c-1.3-10.1-14.4-107.1-38.1-141.5c-5.8-8.4-10.2-18.8-13.5-30.2C-211,414.5-206.3,409.1-202.5,405.8z"/>
		</g>
		<path class="st1" d="M-236.5,355.2c0,0,1.3,53.9,40,137.6l-14.1-8.4c0,0-25.6-62.8-31.3-106.6L-236.5,355.2z"/>
		<path class="st1" d="M174.5,416.3c0,0,14.6,37.2,6,69.7c0,0,45.1-50.1,71.3-50.1c0,0,8.7-41.1-19.6-52.4
			c-0.4-0.2-29.9,13.6-29.9,13.6s9.8,13,11.5,48.4l-14.3,14.6c0,0-1.7-45.9-14.1-52.6L174.5,416.3z"/>
		<path class="st1" d="M241.9,612.9c0,0,3.1-13.8-5.7-26.1c0,0-29.3,0.1-42.2-2c0,0-0.3,19.6-5.4,23.2l15.9,2.4
			c0,0-0.9-23.1,10.3-15c11.3,8.1,9.8,17,9.8,17L241.9,612.9z"/>
		<g>
			<g>
				<path class="st3" d="M-64.8,208.3c-9.4,0-17.1-7.7-17.1-17.1s7.7-17.1,17.1-17.1s17.1,7.7,17.1,17.1S-55.4,208.3-64.8,208.3z"/>
				<path class="st1" d="M-64.8,176.5c8.2,0,14.8,6.6,14.8,14.8S-56.6,206-64.8,206c-8.2,0-14.8-6.6-14.8-14.8S-73,176.5-64.8,176.5
					 M-64.8,171.9c-10.7,0-19.4,8.7-19.4,19.4c0,10.7,8.7,19.4,19.4,19.4s19.4-8.7,19.4-19.4C-45.4,180.5-54.1,171.9-64.8,171.9
					L-64.8,171.9z"/>
			</g>
			<g>
				<path class="st1" d="M-55.2,199c0,0,5-7.5-2.5-16.3c0,0-1.3,10-8.8,10s-5-7.5-5-7.5s-11.3,7.5,0,16.3c0,0,0-3.8,5-2.5
					C-61.4,200.2-55.2,191.5-55.2,199z"/>
				<g>
					<path class="st1" d="M-56.8,192.5c0.1,0.8,0,1.4-0.2,2c-0.1,0.6-0.4,1.2-0.7,1.8c-0.6,1.1-1.5,2-2.4,2.7
						c-0.9,0.7-2,1.2-3.1,1.6c-0.6,0.2-1.1,0.4-1.6,0.5l-1.7,0.4l1.6-0.6c0.5-0.2,1-0.5,1.5-0.7c1-0.6,1.9-1.1,2.7-1.9
						c0.8-0.7,1.4-1.6,1.8-2.6c0.2-0.5,0.3-1,0.3-1.5c0-0.5,0-1-0.1-1.4l0,0c-0.1-0.5,0.2-1,0.7-1.1c0.5-0.1,1,0.2,1.1,0.7
						C-56.8,192.4-56.8,192.5-56.8,192.5z"/>
				</g>
				<g>
					<path class="st1" d="M-54.3,193.8c0.1,0.8,0,1.4-0.2,2c-0.1,0.6-0.4,1.2-0.7,1.8c-0.6,1.1-1.5,2-2.4,2.7
						c-0.9,0.7-2,1.2-3.1,1.6c-0.6,0.2-1.1,0.4-1.6,0.5l-1.7,0.4l1.6-0.6c0.5-0.2,1-0.5,1.5-0.7c1-0.6,1.9-1.1,2.7-1.9
						c0.8-0.7,1.4-1.6,1.8-2.6c0.2-0.5,0.3-1,0.3-1.5c0-0.5,0-1-0.1-1.4l0,0c-0.1-0.5,0.2-1,0.7-1.1c0.5-0.1,1,0.2,1.1,0.7
						C-54.3,193.7-54.3,193.7-54.3,193.8z"/>
				</g>
			</g>
		</g>
		<g>
			<g>
				<circle class="st3" cx="-39.9" cy="240.1" r="14.9"/>
				<path class="st1" d="M-39.9,227.5c7,0,12.6,5.6,12.6,12.6s-5.6,12.6-12.6,12.6s-12.6-5.6-12.6-12.6S-46.9,227.5-39.9,227.5
					 M-39.9,222.9c-9.5,0-17.2,7.7-17.2,17.2s7.7,17.2,17.2,17.2s17.2-7.7,17.2-17.2S-30.4,222.9-39.9,222.9L-39.9,222.9z"/>
			</g>
			<g>
				<path class="st1" d="M-31.2,246c0,0,4.5-6.7-2.2-14.5c0,0-1.1,8.9-7.8,8.9s-4.5-6.7-4.5-6.7s-10,6.7,0,14.5c0,0,0-3.3,4.5-2.2
					S-31.2,239.3-31.2,246z"/>
				<g>
					<path class="st1" d="M-32.6,240.2c0.1,0.7,0,1.2-0.2,1.8c-0.1,0.6-0.4,1.1-0.6,1.6c-0.5,1-1.3,1.8-2.2,2.4
						c-0.9,0.6-1.8,1-2.8,1.4c-0.5,0.1-1,0.3-1.5,0.4l-1.5,0.3l1.4-0.5c0.5-0.2,0.9-0.4,1.4-0.6c0.9-0.5,1.7-1,2.4-1.7
						c0.7-0.7,1.2-1.4,1.5-2.3c0.1-0.4,0.3-0.8,0.3-1.3c0-0.4,0-0.9-0.1-1.2l0,0c-0.1-0.5,0.1-1,0.6-1.1c0.5-0.1,1,0.1,1.1,0.6
						C-32.6,240.1-32.6,240.2-32.6,240.2z"/>
				</g>
				<g>
					<path class="st1" d="M-30.3,241.3c0.1,0.7,0,1.2-0.2,1.8c-0.1,0.6-0.4,1.1-0.6,1.6c-0.5,1-1.3,1.8-2.2,2.4
						c-0.9,0.6-1.8,1-2.8,1.4c-0.5,0.1-1,0.3-1.5,0.4l-1.5,0.3l1.4-0.5c0.5-0.2,0.9-0.4,1.4-0.6c0.9-0.5,1.7-1,2.4-1.7
						c0.7-0.7,1.2-1.4,1.5-2.3c0.1-0.4,0.3-0.8,0.3-1.3c0-0.4,0-0.9-0.1-1.2l0,0c-0.1-0.5,0.1-1,0.6-1.1c0.5-0.1,1,0.1,1.1,0.6
						C-30.3,241.2-30.3,241.3-30.3,241.3z"/>
				</g>
			</g>
		</g>
		<g>
			<g>
				<path class="st3" d="M192.8,260c-5.9,0-11.3-3.5-13.7-9c-3.3-7.5,0.2-16.3,7.7-19.6c1.9-0.8,3.9-1.2,5.9-1.2
					c5.9,0,11.3,3.5,13.7,9c3.3,7.5-0.2,16.3-7.7,19.6C196.9,259.6,194.9,260,192.8,260C192.8,260,192.8,260,192.8,260z"/>
				<path class="st1" d="M192.8,232.5c4.9,0,9.5,2.8,11.6,7.6c2.8,6.4-0.2,13.8-6.5,16.6c-1.6,0.7-3.3,1-5,1
					c-4.9,0-9.5-2.8-11.6-7.6c-2.8-6.4,0.2-13.8,6.5-16.6C189.4,232.8,191.1,232.5,192.8,232.5 M192.8,227.9c-2.4,0-4.7,0.5-6.8,1.4
					c-4.2,1.8-7.5,5.2-9.1,9.5c-1.7,4.3-1.6,8.9,0.2,13.2c2.7,6.3,8.9,10.3,15.8,10.3c2.4,0,4.7-0.5,6.8-1.4
					c8.7-3.8,12.7-13.9,8.9-22.6C205.9,232,199.7,227.9,192.8,227.9L192.8,227.9z"/>
			</g>
			<g>
				<path class="st1" d="M202.8,246.9c0,0,1.4-7.8-7.7-12.2c0,0,2.5,8.5-3.5,11.1c-6,2.6-6.6-4.3-6.6-4.3s-6.4,9.9,5.7,13
					c0,0-1.3-3,3.1-3.8C198.2,250.1,200.2,240.9,202.8,246.9z"/>
				<g>
					<path class="st1" d="M199.3,242.2c0.3,0.6,0.5,1.1,0.6,1.7c0.1,0.6,0.1,1.1,0.1,1.7c-0.1,1.1-0.5,2.1-1,3
						c-0.5,0.9-1.2,1.7-1.9,2.4c-0.4,0.3-0.8,0.7-1.2,1l-1.2,0.9l1.1-1c0.3-0.4,0.6-0.7,1-1.1c0.6-0.8,1.1-1.6,1.5-2.5
						c0.4-0.9,0.5-1.8,0.5-2.7c0-0.4-0.1-0.9-0.2-1.3c-0.1-0.4-0.3-0.8-0.5-1l0,0c-0.3-0.4-0.3-1,0.1-1.3c0.4-0.3,1-0.3,1.3,0.1
						C199.3,242.1,199.3,242.2,199.3,242.2z"/>
				</g>
				<g>
					<path class="st1" d="M201.8,242.4c0.3,0.6,0.5,1.1,0.6,1.7c0.1,0.6,0.1,1.1,0.1,1.7c-0.1,1.1-0.5,2.1-1,3
						c-0.5,0.9-1.2,1.7-1.9,2.4c-0.4,0.3-0.8,0.7-1.2,1l-1.2,0.9l1.1-1c0.3-0.4,0.6-0.7,1-1.1c0.6-0.8,1.1-1.6,1.5-2.5
						c0.4-0.9,0.5-1.8,0.5-2.7c0-0.4-0.1-0.9-0.2-1.3c-0.1-0.4-0.3-0.8-0.5-1l0,0c-0.3-0.4-0.3-1,0.1-1.3c0.4-0.3,1-0.3,1.3,0.1
						C201.7,242.3,201.8,242.3,201.8,242.4z"/>
				</g>
			</g>
		</g>
		<g>
			<g>
				<circle class="st3" cx="-9.7" cy="287.5" r="14.6"/>
				<path class="st1" d="M-9.7,275.2c6.8,0,12.3,5.5,12.3,12.3s-5.5,12.3-12.3,12.3S-22,294.3-22,287.5S-16.5,275.2-9.7,275.2
					 M-9.7,270.6c-9.3,0-16.9,7.6-16.9,16.9s7.6,16.9,16.9,16.9s16.9-7.6,16.9-16.9S-0.3,270.6-9.7,270.6L-9.7,270.6z"/>
			</g>
			<g>
				<path class="st1" d="M-1.2,293.3c0,0,4.4-6.5-2.2-14.2c0,0-1.1,8.7-7.6,8.7s-4.4-6.5-4.4-6.5s-9.8,6.5,0,14.2c0,0,0-3.3,4.4-2.2
					C-6.6,294.4-1.2,286.7-1.2,293.3z"/>
				<g>
					<path class="st1" d="M-2.5,287.6c0.1,0.7,0,1.2-0.2,1.8c-0.1,0.6-0.4,1.1-0.6,1.6c-0.5,1-1.3,1.7-2.2,2.3
						c-0.8,0.6-1.8,1-2.7,1.4c-0.5,0.1-1,0.3-1.4,0.4l-1.5,0.3l1.4-0.5c0.5-0.2,0.9-0.4,1.3-0.6c0.8-0.5,1.7-1,2.3-1.7
						c0.7-0.7,1.2-1.4,1.5-2.2c0.1-0.4,0.3-0.8,0.3-1.2c0-0.4,0-0.9-0.1-1.2l0,0c-0.1-0.5,0.1-1,0.6-1.1c0.5-0.1,1,0.1,1.1,0.6
						C-2.5,287.5-2.5,287.6-2.5,287.6z"/>
				</g>
				<g>
					<path class="st1" d="M-0.3,288.7c0.1,0.7,0,1.2-0.2,1.8c-0.1,0.6-0.4,1.1-0.6,1.6c-0.5,1-1.3,1.7-2.2,2.3
						c-0.8,0.6-1.8,1-2.7,1.4c-0.5,0.1-1,0.3-1.4,0.4l-1.5,0.3l1.4-0.5c0.5-0.2,0.9-0.4,1.3-0.6c0.8-0.5,1.7-1,2.3-1.7
						c0.7-0.7,1.2-1.4,1.5-2.2c0.1-0.4,0.3-0.8,0.3-1.3c0-0.4,0-0.9-0.1-1.2l0,0c-0.1-0.5,0.1-1,0.6-1.1c0.5-0.1,1,0.1,1.1,0.6
						C-0.3,288.6-0.3,288.7-0.3,288.7z"/>
				</g>
			</g>
		</g>
		<g>
			<g>
				<path class="st3" d="M157.1,300.1c-5.8,0-11.1-3.5-13.4-8.8c-1.6-3.6-1.6-7.6-0.2-11.2c1.4-3.6,4.2-6.5,7.8-8.1
					c1.9-0.8,3.8-1.2,5.8-1.2c5.8,0,11.1,3.5,13.4,8.8c3.2,7.4-0.2,16-7.6,19.3C161,299.7,159.1,300.1,157.1,300.1L157.1,300.1z"/>
				<path class="st1" d="M157.1,273.1c4.8,0,9.3,2.8,11.3,7.4c2.7,6.2-0.1,13.5-6.4,16.2c-1.6,0.7-3.3,1-4.9,1
					c-4.8,0-9.3-2.8-11.3-7.4c-2.7-6.2,0.1-13.5,6.4-16.2C153.8,273.4,155.4,273.1,157.1,273.1 M157.1,268.5c-2.3,0-4.6,0.5-6.7,1.4
					c-4.1,1.8-7.3,5.1-9,9.3c-1.7,4.2-1.6,8.8,0.2,13c2.7,6.2,8.8,10.2,15.5,10.2c2.3,0,4.6-0.5,6.7-1.4c4.1-1.8,7.3-5.1,9-9.3
					c1.7-4.2,1.6-8.8-0.2-13C169.9,272.5,163.8,268.5,157.1,268.5L157.1,268.5z"/>
			</g>
			<g>
				<path class="st1" d="M166.8,287.2c0,0,1.4-7.6-7.5-11.9c0,0,2.4,8.3-3.5,10.9s-6.5-4.2-6.5-4.2s-6.3,9.7,5.6,12.8
					c0,0-1.3-2.9,3.1-3.7C162.3,290.3,164.2,281.3,166.8,287.2z"/>
				<g>
					<path class="st1" d="M163.5,282.6c0.3,0.6,0.5,1.1,0.6,1.7c0.1,0.6,0.1,1.1,0.1,1.6c-0.1,1.1-0.5,2.1-1,3
						c-0.5,0.9-1.2,1.6-1.9,2.3c-0.4,0.3-0.7,0.6-1.1,0.9l-1.2,0.8l1-1c0.3-0.4,0.6-0.7,0.9-1.1c0.6-0.8,1.1-1.6,1.4-2.4
						c0.3-0.8,0.5-1.7,0.5-2.6c0-0.4-0.1-0.8-0.2-1.2c-0.1-0.4-0.3-0.8-0.5-1l0,0c-0.3-0.4-0.3-1,0.1-1.3s1-0.3,1.3,0.1
						C163.4,282.5,163.4,282.6,163.5,282.6z"/>
				</g>
				<g>
					<path class="st1" d="M165.9,282.7c0.3,0.6,0.5,1.1,0.6,1.7c0.1,0.6,0.1,1.1,0.1,1.6c-0.1,1.1-0.5,2.1-1,3
						c-0.5,0.9-1.2,1.6-1.9,2.3c-0.4,0.3-0.7,0.6-1.1,0.9l-1.2,0.8l1-1c0.3-0.4,0.6-0.7,0.9-1.1c0.6-0.8,1.1-1.6,1.4-2.4
						c0.3-0.8,0.5-1.7,0.5-2.6c0-0.4-0.1-0.8-0.2-1.2c-0.1-0.4-0.3-0.8-0.5-1l0,0c-0.3-0.4-0.3-1,0.1-1.3s1-0.3,1.3,0.1
						C165.8,282.6,165.8,282.7,165.9,282.7z"/>
				</g>
			</g>
		</g>
		<g>
			<g>
				<path class="st3" d="M221.5,214.6c-7.1,0-13.3-4.3-15.9-10.9c-3.4-8.8,0.9-18.7,9.7-22.1c2-0.8,4.1-1.2,6.2-1.2
					c7.1,0,13.3,4.3,15.9,10.9c3.4,8.8-0.9,18.7-9.7,22.1C225.7,214.2,223.6,214.6,221.5,214.6C221.5,214.6,221.5,214.6,221.5,214.6
					z"/>
				<path class="st1" d="M221.5,182.7c5.9,0,11.5,3.6,13.8,9.4c3,7.6-0.8,16.2-8.4,19.1c-1.8,0.7-3.6,1-5.4,1
					c-5.9,0-11.5-3.6-13.8-9.4c-3-7.6,0.8-16.2,8.4-19.1C217.8,183,219.7,182.7,221.5,182.7 M221.5,178.1c-2.4,0-4.8,0.4-7,1.3
					c-10,3.9-14.9,15.1-11,25.1c2.9,7.5,10,12.3,18.1,12.3c2.4,0,4.8-0.4,7-1.3c10-3.9,14.9-15.1,11-25.1
					C236.6,182.9,229.5,178.1,221.5,178.1L221.5,178.1z"/>
			</g>
			<g>
				<path class="st1" d="M232.9,200c0,0,1.9-8.8-8.2-14.2c0,0,2.5,9.8-4.5,12.5c-7,2.7-7.4-5.2-7.4-5.2s-7.8,11.1,5.9,15.1
					c0,0-1.4-3.5,3.8-4.1C227.5,203.4,230.2,193,232.9,200z"/>
				<g>
					<path class="st1" d="M229.1,194.6c0.4,0.7,0.5,1.3,0.6,1.9c0.1,0.6,0.1,1.3,0,1.9c-0.2,1.2-0.6,2.4-1.3,3.4
						c-0.6,1-1.5,1.8-2.3,2.6c-0.5,0.4-0.9,0.7-1.3,1.1l-1.4,0.9l1.3-1.1c0.4-0.4,0.8-0.8,1.2-1.2c0.7-0.9,1.4-1.8,1.8-2.7
						c0.5-1,0.7-2,0.7-3c0-0.5-0.1-1-0.2-1.5c-0.1-0.5-0.4-1-0.6-1.2l0,0c-0.3-0.4-0.2-1,0.2-1.3c0.4-0.3,1-0.2,1.3,0.2
						C229,194.5,229.1,194.5,229.1,194.6z"/>
				</g>
				<g>
					<path class="st1" d="M231.9,194.8c0.4,0.7,0.5,1.3,0.6,1.9c0.1,0.6,0.1,1.3,0,1.9c-0.2,1.2-0.6,2.4-1.3,3.4
						c-0.6,1-1.5,1.8-2.3,2.6c-0.5,0.4-0.9,0.7-1.3,1.1l-1.4,0.9l1.3-1.1c0.4-0.4,0.8-0.8,1.2-1.2c0.7-0.9,1.4-1.8,1.8-2.7
						c0.5-1,0.7-2,0.7-3c0-0.5-0.1-1-0.2-1.5c-0.1-0.5-0.4-1-0.6-1.2l0,0c-0.3-0.4-0.2-1,0.2-1.3c0.4-0.3,1-0.2,1.3,0.2
						C231.8,194.7,231.8,194.8,231.9,194.8z"/>
				</g>
			</g>
		</g>
		<path class="st1" d="M-123,484.5c0,0-38.4,4.5-47.9-24.8c0,0-7.8,32.3,17.2,45.7c0,0-9.1,8.3-26,0c0,0,7.3,24.3,28.3,24.7
			c0,0-6.4,11.5-19.6,10.5c0,0,13.6,14.8,43.3,9.4l-14.3-55L-123,484.5z"/>
		<path class="st1" d="M293.3,467c0,0,38.4,4.5,47.9-24.8c0,0,7.8,32.3-17.2,45.7c0,0,9.1,8.3,26,0c0,0-7.3,24.3-28.3,24.7
			c0,0,6.4,11.5,19.6,10.5c0,0-13.6,14.8-43.3,9.4l14.3-55L293.3,467z"/>
		<path class="st17" d="M77.7,284.2l-18.5,37.6c-1.5,3-4.3,5-7.6,5.5l-41.5,6c-8.3,1.2-11.6,11.4-5.6,17.2l30,29.3
			c2.4,2.3,3.5,5.7,2.9,8.9l-7.1,41.3c-1.4,8.3,7.2,14.5,14.7,10.7l37.1-19.5c2.9-1.5,6.5-1.5,9.4,0l37.1,19.5
			c7.4,3.9,16.1-2.4,14.7-10.7l-7.1-41.3c-0.6-3.3,0.5-6.6,2.9-8.9l30-29.3c6-5.8,2.7-16-5.6-17.2l-41.5-6c-3.3-0.5-6.1-2.5-7.6-5.5
			l-18.5-37.6C92.2,276.7,81.4,276.7,77.7,284.2z"/>
		<path class="st14" d="M74,278l-18.5,37.6c-1.5,3-4.3,5-7.6,5.5l-41.5,6c-8.3,1.2-11.6,11.4-5.6,17.2l30,29.3
			c2.4,2.3,3.5,5.7,2.9,8.9l-7.1,41.3c-1.4,8.3,7.2,14.5,14.7,10.7L78.3,415c2.9-1.5,6.5-1.5,9.4,0l37.1,19.5
			c7.4,3.9,16.1-2.4,14.7-10.7l-7.1-41.3c-0.6-3.3,0.5-6.6,2.9-8.9l30-29.3c6-5.8,2.7-16-5.6-17.2l-41.5-6c-3.3-0.5-6.1-2.5-7.6-5.5
			L92.1,278C88.4,270.5,77.7,270.5,74,278z"/>
		<path class="st1" d="M5.5,494.1c0,0-81.1-93.4-181.4-59.7c0,0,96.4-15.9,172.6,77.6C-3.3,512,24.7,517.1,5.5,494.1z"/>
		<path class="st1" d="M166.7,489.2c0,0,81.1-93.4,181.4-59.7c0,0-96.4-15.9-172.6,77.6C175.5,507.1,147.5,512.2,166.7,489.2z"/>
		<path class="st1" d="M83.1,395.4c0-51.3-6.3-88.3-9.1-117.4c3.8-0.3,9.1-12.8,18.1,0l6.9,14c4.7,39.9,11,100.7,9.8,134.1L87.8,415
			c-2.9-1.5-6.5-1.5-9.4,0l-11.5,6.8l-9.8-105.8c0.9-0.8,6.6-10.2,7.2-11.3C64.3,304.6,83.1,451.1,83.1,395.4z"/>
		<path class="st14" d="M-171.4,682c6.1,14.7,17.3,28.5,32.5,40.8c12.1,9.8,26.7,18.6,43.4,26.3c10.8,5,22.5,9.5,35,13.5
			c38.9,12.5,85.1,19.7,134.6,19.7c69.2,0,131.9-14.2,177.3-37c6.5-3.3,12.6-6.7,18.3-10.3c3-1.9,5.9-3.8,8.7-5.8
			c8.9-6.3,16.7-13,23.2-20.1c2-30.6-10-70.2-85.7-68.8c-122.8,2.3-210.6,6.1-312.3-11C-148.3,620.7-169.6,648.9-171.4,682z"/>
		<g>
			<path class="st3" d="M163.3,761c0,0-18.5,26.1-46.2,29.7C82,795.3,3.5,799.6-16.4,764.4"/>
			<path class="st1" d="M163.3,761c-2.3,3.5-4.9,6.7-7.7,9.8c-2.8,3.1-5.9,5.9-9.2,8.5c-6.6,5.2-14.1,9.5-22.3,11.8l-1.5,0.4
				l-1.6,0.4c-1,0.3-2.1,0.4-3.2,0.6c-2.1,0.3-4.1,0.6-6.2,0.9c-4.1,0.5-8.3,1-12.4,1.4c-8.3,0.7-16.6,1.1-24.9,1.3
				c-16.6,0.1-33.4-0.9-49.8-5c-8.1-2-16.1-4.8-23.5-9.1c-3.6-2.1-7.1-4.6-10.1-7.6c-3-2.9-5.5-6.3-7.4-10
				c4.5,7,11.2,12.1,18.5,15.6c3.6,1.8,7.4,3.3,11.3,4.5c3.9,1.2,7.8,2.2,11.8,3c8,1.6,16.1,2.6,24.3,3.2c8.2,0.6,16.4,0.8,24.6,0.7
				c8.2-0.1,16.4-0.4,24.6-1c4.1-0.3,8.2-0.6,12.3-1c2-0.2,4.1-0.4,6.1-0.7c1-0.1,2-0.2,3-0.4l1.5-0.3l1.5-0.3
				c3.9-0.9,7.7-2.3,11.3-4.1c3.7-1.7,7.2-3.8,10.5-6.1c3.4-2.3,6.6-4.9,9.6-7.6c1.5-1.4,3-2.8,4.5-4.3
				C160.6,764.1,162,762.6,163.3,761z"/>
		</g>
		<path class="st1" d="M-75.8,651.8c88.8,14.9,165.4,11.6,272.7,9.6c78.1-1.5,78.5,47.1,72.9,73.7c-5.7,3.6-23.9,13.8-18.3,10.3
			c5.4-25.6,3.9-75.6-59.4-74.6c-103.4,1.7-177.2,2.6-262.7-11.8c-56.1-9.4-69.7,29.9-60.7,65.9c11.6,9.4,4.6,7.6-7.5-2.2
			C-148.2,685.4-134.1,642-75.8,651.8z"/>
		<g>
			<path class="st14" d="M0.7,751.2L0.7,751.2c2.8,2.7,6,5,9.7,6.7c27.5,13.3,103.2,16.7,132.3-12.8c9.7-9.8,14.3-17,10.1-35
				c0,0,23.4-25.8,0-25.4c-2,0-4.5,0.1-7.5,0.1c-32.8,0.6-121.7,1.9-141-5c-1.6-0.6-3.1-0.7-4.5-0.5C-16,681.8-22.7,729.2,0.7,751.2
				z"/>
			<path class="st1" d="M132.6,717.9c0,0,7.1,15.6,10.1,27.3c9.7-9.8,14.3-19.5,10.1-37.5c0,0,23.4-23.3,0-22.9
				c-2,0-4.5,0.1-7.5,0.1C142.6,695.3,137.5,712.5,132.6,717.9z"/>
			<path class="st1" d="M0.7,751.2L0.7,751.2c1-9.6,15.8-32.2,15.8-32.2c-6.6-5.9-12.1-39.1-12.1-39.1l-4.5-0.5
				C-16,681.8-22.7,729.2,0.7,751.2z"/>
			<path class="st1" d="M137.8,715c0,0-20.4,5-32.1,4.3c0,0,0-10.3-1-18.9c0,0-3.2,19-6.9,19s-20.5,2.5-20.5,2.5s20.6,5.3,35.2,2.9
				c0,0,5,17.1,5.2,21.1c0,0,2.3-16,1.9-21.1l18.2-1.6V715z"/>
			<path class="st1" d="M8.8,711.8c0,0,24.5,9.3,35.7,8c0,0-25.6,5.7-38.1,2.5L8.8,711.8z"/>
		</g>
	</g>
	<g>
		<path class="st6" d="M-222.2,783.2c0,0,45.9-19,54.9-22.4c6.9-2.6,34,40.3,48.6,48.7s-10.1,39.9-51.8,16.5
			S-222.2,783.2-222.2,783.2z"/>
		<path class="st1" d="M-212.2,788.9c0,0,37.4-15.5,44.7-18.2c5.6-2.1,27.7,32.9,39.6,39.6s-8.2,32.5-42.2,13.4
			S-212.2,788.9-212.2,788.9z"/>
		<path class="st6" d="M-127.8,853.9c0,0,3.3-34.3-13.7-51.8c-8-8.3-86.8-41.3-86.8-41.3s-50.9,26.3-50.2,85.7
			c0,0,96.5,110.7,141.5,67.7C-87.8,867.1-127.8,853.9-127.8,853.9z"/>
		<g>
			<path class="st3" d="M-249.8,818.3c0,0,36.5-52.9,42.4-49.5c5.9,3.5,25.4,12.2,25.4,12.2s-25.9,46.4-30.1,57.1"/>
			<path class="st1" d="M-249.8,818.3c3.7-7,7.8-13.7,12.1-20.3c4.3-6.6,8.8-13.1,13.8-19.3c2.5-3.1,5.1-6.2,8.1-9.1
				c0.8-0.7,1.6-1.5,2.5-2.2c0.5-0.4,1-0.7,1.5-1.1c0.6-0.3,1.2-0.7,2.2-1c0.3-0.1,0.5-0.1,0.9-0.2c0.3,0,0.6-0.1,1.1,0
				c0.4,0,0.8,0.1,1.3,0.3c0.2,0.1,0.5,0.2,0.7,0.3l0.1,0.1l1.2,0.6c0.8,0.4,1.7,0.9,2.5,1.3c6.9,3.4,14.1,6.7,21.1,10l0.1,0
				c1.8,0.8,2.5,2.9,1.7,4.7c0,0.1-0.1,0.2-0.1,0.3c-2.7,4.7-5.4,9.3-8.1,13.9c-2.7,4.6-5.5,9.2-8.3,13.9l-4.2,6.9
				c-1.4,2.3-2.8,4.6-4.2,6.9c-2.8,4.6-5.7,9.1-8.4,13.8c0.7-2.6,1.6-5.2,2.6-7.7c0.9-2.5,2-5,3-7.5l1.6-3.7l1.7-3.7
				c1.1-2.5,2.2-4.9,3.4-7.4c2.3-4.9,4.7-9.7,7.1-14.5c2.4-4.8,4.9-9.6,7.5-14.3l1.7,5c-7.3-3.1-14.4-6.4-21.5-10
				c-0.9-0.5-1.8-0.9-2.7-1.4l-1.4-0.8l-0.2-0.1c0.1,0.1,0.2,0.1,0.3,0.2c0.3,0.1,0.4,0.1,0.6,0.1c0.2,0,0.3,0,0.4,0
				c0.1,0,0.1,0,0.1,0c0.1,0-0.2,0.1-0.5,0.2c-0.3,0.1-0.6,0.3-0.9,0.6c-0.6,0.5-1.3,1-2,1.6c-1.4,1.2-2.7,2.5-4,3.9
				c-1.3,1.4-2.6,2.8-3.9,4.2c-5.2,5.7-10.3,11.7-15.3,17.7C-239.5,806.3-244.6,812.4-249.8,818.3z"/>
		</g>
		<g>
			<path class="st3" d="M-176.7,853.9c0,0,16.4-50.1,23.2-59.2c0,0,32,10.8,25.7,59.2c-6.4,48.4-14.4-11.7-14.4-11.7"/>
			<path class="st1" d="M-176.7,853.9c1.1-5.2,2.5-10.4,3.9-15.5l2.2-7.7l2.3-7.6c1.6-5.1,3.3-10.2,5.1-15.2c0.5-1.3,1-2.5,1.4-3.8
				c0.5-1.3,1-2.5,1.6-3.8l0.8-1.9l0.9-1.9c0.6-1.2,1.4-2.6,2.2-3.9c0.8-1.2,2.2-1.7,3.5-1.3l0.2,0.1c0.5,0.2,0.8,0.3,1.1,0.4
				c0.3,0.1,0.7,0.3,1,0.4c0.7,0.3,1.3,0.6,1.9,0.9c1.2,0.7,2.4,1.4,3.6,2.1c2.3,1.5,4.4,3.3,6.4,5.3c3.9,3.9,7.1,8.5,9.4,13.5
				c2.3,5,3.8,10.3,4.6,15.6c0.8,5.3,0.9,10.7,0.6,16l-0.4,3.9l-0.5,3.9c-0.4,2.6-0.9,5.1-1.4,7.7c-0.5,2.6-1.2,5.1-2,7.7
				c-0.2,0.7-0.5,1.3-0.8,2c-0.3,0.7-0.6,1.3-1.2,2.1l-0.2,0.3l-0.3,0.3l-0.3,0.3c-0.1,0.1-0.2,0.2-0.4,0.3c-0.2,0.2-0.6,0.4-1,0.6
				c-0.4,0.2-0.9,0.3-1.4,0.3c-0.5,0-0.9-0.1-1.4-0.3c-0.3-0.2-0.7-0.4-0.9-0.6c-0.5-0.4-0.8-0.8-1-1.1c-0.5-0.7-0.8-1.4-1.1-2.1
				c-0.3-0.7-0.5-1.3-0.7-2c-0.4-1.3-0.8-2.6-1-3.8c-0.6-2.6-1-5.1-1.3-7.7c-0.7-5.1-1.1-10.2-1.3-15.3c1.2,5,2.5,9.9,3.8,14.8
				c0.7,2.4,1.4,4.9,2.2,7.2c0.4,1.2,0.8,2.3,1.3,3.4c0.5,1.1,1,2.2,1.6,2.8c0.1,0.2,0.3,0.2,0.3,0.2c0,0,0,0-0.1-0.1
				c-0.1-0.1-0.2-0.1-0.4-0.1c-0.4,0-0.6,0.2-0.6,0.1c0,0,0,0,0,0l0-0.1l0-0.1l0.1-0.1c0.2-0.3,0.4-0.8,0.5-1.3
				c0.2-0.5,0.3-1.1,0.5-1.6c0.6-2.3,1-4.7,1.3-7.2c0.3-2.5,0.6-5,0.8-7.4l0.3-3.7l0.1-3.7c0.1-4.9-0.2-9.8-1-14.5
				c-0.9-4.7-2.2-9.3-4.2-13.6c-2-4.3-4.7-8.2-7.9-11.5c-1.6-1.7-3.4-3.2-5.3-4.5c-0.9-0.7-1.9-1.3-2.9-1.9c-0.5-0.3-1-0.6-1.5-0.8
				c-0.3-0.1-0.5-0.2-0.7-0.4l-0.6-0.3l3.8-1.2c-0.6,0.9-1.3,1.8-1.8,3l-0.9,1.6l-0.9,1.7c-0.6,1.1-1.1,2.3-1.7,3.5
				c-0.6,1.2-1.1,2.4-1.6,3.6c-2.2,4.8-4.2,9.7-6.3,14.5l-6.2,14.7C-172.4,844.1-174.5,849-176.7,853.9z"/>
		</g>
		<path class="st1" d="M-171.6,808c0,0-7.7-10.9-10.6-7.7s-33.7,49.3-33.7,49.3s-38,5.5-21.9,19.2s41.9,43,66.3,39.8
			s40.4-9.4,44.6-25.5c0,0-19,10-19.9-14.3c-1-24.3-6.8-44.8,2.9-41.6c0,0,1.6-15.4-12.9-17.3l-29,49.5L-171.6,808z"/>
	</g>
</g>
</svg>
