<?xml version="1.0" encoding="utf-8"?>
<!-- Generator: Adobe Illustrator 22.0.1, SVG Export Plug-In . SVG Version: 6.00 Build 0)  -->
<svg version="1.1" id="Capa_1" xmlns="http://www.w3.org/2000/svg" xmlns:xlink="http://www.w3.org/1999/xlink" x="0px" y="0px"
	 viewBox="0 0 1097.5 1215.7" style="enable-background:new 0 0 1097.5 1215.7;" xml:space="preserve">
<style type="text/css">
	.st0{fill:#FFFFFF;stroke:#5E004D;stroke-width:7.5453;stroke-linecap:round;stroke-linejoin:round;stroke-miterlimit:10;}
	.st1{fill:#5E004D;}
	.st2{fill:url(#SVGID_1_);stroke:#5E004D;stroke-width:7.5453;stroke-linecap:round;stroke-linejoin:round;stroke-miterlimit:10;}
	.st3{fill:#2AD8FF;stroke:#5E004D;stroke-width:4.7158;stroke-linecap:round;stroke-linejoin:round;stroke-miterlimit:10;}
	.st4{fill:url(#SVGID_2_);}
	.st5{fill:url(#SVGID_3_);}
	.st6{fill:url(#SVGID_4_);}
	.st7{fill:#FFFFFF;}
	.st8{fill:#5E004D;stroke:#5E004D;stroke-width:0.9432;stroke-linecap:round;stroke-linejoin:round;stroke-miterlimit:10;}
	.st9{fill:url(#SVGID_5_);}
	.st10{fill:url(#SVGID_6_);}
	.st11{fill:url(#SVGID_7_);}
	.st12{fill:url(#SVGID_8_);}
	.st13{fill:url(#SVGID_9_);}
	.st14{fill:url(#SVGID_10_);}
	.st15{fill:url(#SVGID_11_);}
	.st16{fill:url(#SVGID_12_);}
	.st17{fill:url(#SVGID_13_);}
	.st18{fill:url(#SVGID_14_);}
	.st19{fill:url(#SVGID_15_);}
	.st20{fill:url(#SVGID_16_);}
	.st21{fill:url(#SVGID_17_);}
	.st22{fill:url(#SVGID_18_);}
	.st23{fill:url(#SVGID_19_);}
	.st24{fill:url(#SVGID_20_);}
	.st25{fill:#5E004D;stroke:#5E004D;stroke-width:7.5453;stroke-linecap:round;stroke-linejoin:round;stroke-miterlimit:10;}
	.st26{fill:url(#SVGID_21_);stroke:#5E004D;stroke-width:7.5453;stroke-linecap:round;stroke-linejoin:round;stroke-miterlimit:10;}
	.st27{fill:url(#SVGID_22_);stroke:#5E004D;stroke-width:7.5453;stroke-linecap:round;stroke-linejoin:round;stroke-miterlimit:10;}
</style>
<g>
	<path class="st0" d="M203.2,690.6c0,0,83.6-3.2,150.7,35.2c84.6,48.5,34.2,112.3,7,119.2s-146-4.5-146-4.5S150.5,720.9,203.2,690.6
		z"/>
	<path class="st1" d="M341.6,747.8c0,0-18.6-29.6,22.1-15.9c0,0-54.7-27-74.8-31.4l-26.5,36.6L341.6,747.8z"/>
	<path class="st0" d="M-89.4,687.3c0,0-83.7,0.2-149.2,41.3c-82.6,51.8-29.6,113.6-2.2,119.4s145.7-10.4,145.7-10.4
		S-35.5,715.5-89.4,687.3z"/>
	<path class="st1" d="M-200,709.3c0,0,24.2,7.4,25.6,32.9l41-17l-27.3-29L-200,709.3z"/>
	
		<linearGradient id="SVGID_1_" gradientUnits="userSpaceOnUse" x1="1290.6373" y1="1010.2852" x2="1727.0149" y2="923.0097" gradientTransform="matrix(-1 0 0 1 1602.0353 0)">
		<stop  offset="0" style="stop-color:#2AD8FF"/>
		<stop  offset="0.9948" style="stop-color:#FC1E79"/>
	</linearGradient>
	<path class="st2" d="M-253.9,1059.9c12.7-42.9,75.4-111.1,75.4-111.1c0.4-0.2,0.8-0.3,1.2-0.5c0-0.4,0.1-0.8,0.1-1.2
		c2.3-29.1,41-123,42.4-243.1l391.7,18.1c0,0-34.8,148.7-1.1,239.5c17.8,18.2,59.7,63.4,68.8,97.2c17.9,66.2-15.7,109.4-44.2,122.6
		c-15.1,7-141.9,27.6-164.9-5l0.1-20.2c6.9-24.2-1-50.6-19.9-65.7c-2.7-2.1-5.5-4-8.5-5.6c-8.6,0.4-17.6,0.7-27,0.7
		c-31,0-58-1.7-81.5-4.8c-5.3,4.3-10.6,8.4-15.5,12.2c-19.2,14.6-27.8,40.7-21.4,65.1l5.3,20.3c-23.7,32-155.6,7.8-170.6,0.4
		C-251.7,1164.9-273.3,1125.6-253.9,1059.9z"/>
	<path class="st1" d="M328.4,1085.7c0,0-112.6-25.4-186.1,11.3l5.7,31.1l180.9-36.8L328.4,1085.7z"/>
	<path class="st1" d="M-191,963.1c0,0,18,34.9,33.6,43.4c0,0-8.5-15.6-14.1-36.8c0,0,172.5,110.4,408.5,32.6l11.3,8.4l20.5-35.5
		l-12-12.5l-435.4-15.6L-191,963.1z"/>
	<path class="st1" d="M198.7,1046.6c-49.4,12.7-176.7,37.8-302-1.7c-2.5-0.8-4.3,2.5-2.2,4.1l27.2,21.1c0,0-15.2-6.3-28.8-12.5
		c-5-2.3-9.6,3.8-6.1,8c8.6,10.2,19.7,21.4,29.2,24.3c0,0-69.3,8.5-7,80.5l38.1,8.5c0,0-33.2-56.5,19.3-93.3l130.9,0.1
		c0,0,25.1,20.3,19.4,61.7l104.5-30.7c0,0-8.3-21.3-26.1-18.4c-17.8,2.9-23.4-11.2-23.4-11.2s-0.1,0.1,10.3-6.9c2.7-1.8,1.4-6-1.8-6
		c-7.5,0.1-11.7-3.4,20.4-22.7C203.4,1049.9,201.7,1045.8,198.7,1046.6z"/>
	<path class="st3" d="M-263.2,1091.3c0,0,77.3-5.7,211.6,26l5.7,71.6l-169.6-7.1C-215.6,1181.8-275.5,1146.5-263.2,1091.3z"/>
	<path class="st1" d="M-152.5,1098.3c0,0,51.4,20.4,50,25.1c-1.5,4.7-25.5-10.8-80.6-10.8c0,0,73.5,22.6,80.6,29.7
		c0,0-55.1-11.3-80.6-11.3c0,0,72.9,26.3,75.3,37.2l59,20.8l-1.4-72.1L-152.5,1098.3z"/>
	<polygon class="st1" points="158,741 -64.8,737.2 11.5,906.9 90.7,901.2 	"/>
	<g>
		
			<linearGradient id="SVGID_2_" gradientUnits="userSpaceOnUse" x1="1251.912" y1="896.5538" x2="1712.2976" y2="804.4767" gradientTransform="matrix(-1 0 0 1 1602.0353 0)">
			<stop  offset="0" style="stop-color:#2AD8FF"/>
			<stop  offset="0.9948" style="stop-color:#FC1E79"/>
		</linearGradient>
		<path class="st4" d="M115.4,891.5c-0.5,0-1-0.1-1.5-0.3C43.2,860.1-8.8,800.6-9.3,800c-0.8-0.9-1.1-2.1-0.8-3.3
			c0.3-1.2,1-2.1,2.1-2.6l15.8-7.3c0.5-0.2,1-0.3,1.6-0.3c1.2,0,2.4,0.6,3.1,1.6c15,21.8,106.6,82.4,107.5,83
			c1.3,0.8,1.9,2.3,1.6,3.8l-2.5,13.5c-0.2,1.1-0.9,2.1-1.9,2.6C116.6,891.4,116,891.5,115.4,891.5z"/>
		<path class="st1" d="M9.4,790.2c15.6,22.6,108.5,84.1,108.5,84.1l-2.5,13.5C44.7,856.7-6.4,797.5-6.4,797.5L9.4,790.2 M9.4,782.7
			c-1.1,0-2.1,0.2-3.2,0.7l-15.8,7.3c-2.2,1-3.7,2.9-4.2,5.3c-0.5,2.3,0.1,4.7,1.7,6.5c0.5,0.6,13.4,15.4,35.2,34.2
			c20.1,17.4,51.9,41.6,89.3,58c1,0.4,2,0.6,3,0.6c1.2,0,2.4-0.3,3.5-0.9c2-1.1,3.5-3,3.9-5.3l2.5-13.5c0.6-3-0.7-6-3.3-7.7
			c-0.2-0.2-23.4-15.5-48.2-33.4c-42.9-31-54.9-43.8-58.3-48.6C14.1,783.9,11.8,782.7,9.4,782.7L9.4,782.7z"/>
	</g>
	<g>
		
			<linearGradient id="SVGID_3_" gradientUnits="userSpaceOnUse" x1="1520.1021" y1="1717.2841" x2="1980.9904" y2="1625.1063" gradientTransform="matrix(1 0 0 1 -5838.3589 0)">
			<stop  offset="0" style="stop-color:#2AD8FF"/>
			<stop  offset="0.9948" style="stop-color:#FC1E79"/>
		</linearGradient>
		<path class="st5" d="M-1.1,887.3c-0.6,0-1.2-0.2-1.8-0.5c-1-0.5-1.6-1.4-1.9-2.5l-2.5-11.1c-0.4-1.6,0.4-3.3,1.9-4.1
			c0.9-0.5,92.5-50.6,107.4-68.5c0.7-0.9,1.8-1.4,2.9-1.4c0.4,0,0.9,0.1,1.3,0.2l15.8,6c1.2,0.5,2.1,1.5,2.4,2.8
			c0.3,1.3-0.2,2.6-1.1,3.5c-0.5,0.5-52.5,49.7-123.1,75.4C-0.2,887.2-0.6,887.3-1.1,887.3z"/>
		<path class="st1" d="M104.9,803l15.8,6c0,0-51.1,48.9-121.8,74.6l-2.5-11.1C-3.6,872.4,89.4,821.6,104.9,803 M104.9,795.4
			c-2.2,0-4.3,1-5.8,2.7c-3.3,4-15.3,14.5-58.2,40.1C16.2,853-7,865.6-7.2,865.8c-3,1.6-4.5,5-3.7,8.3l2.5,11.1
			c0.5,2.1,1.8,3.9,3.7,5c1.1,0.6,2.4,0.9,3.6,0.9c0.9,0,1.7-0.2,2.6-0.5c37.3-13.6,69.1-33.5,89.2-47.9
			c21.8-15.6,34.7-27.8,35.2-28.3c1.9-1.8,2.7-4.4,2.2-6.9c-0.5-2.5-2.3-4.6-4.7-5.6l-15.8-6C106.7,795.6,105.8,795.4,104.9,795.4
			L104.9,795.4z"/>
	</g>
	<path class="st3" d="M-24.6,729.4c0,0,39,152.7,65,175.3l49.5-2.8c0,0,51.5-149.8,50.2-175.3l56.8,0.3c0,0-34.7,167.9-81.5,208.9
		H10.2c0,0-60.2-76.3-95.6-209.2L-24.6,729.4z"/>
	<path class="st1" d="M13.6,860.9c0,0-26.9,9.3-42.4,11.7c0,0-57.9,6.7-65,15.2l-39.6-38.2l132.2-32.9L13.6,860.9z"/>
	<path class="st1" d="M195.4,883.8c0,0-35.5-21-42.2-9.9c0,0-39.5-5.4-48.5-9.9l15-53.3l116,36.1l5.7,31.1L195.4,883.8z"/>
	<g>
		<path class="st1" d="M48.8,1013.6c-72,0-130.3-18.3-166.6-33.7c-39.3-16.7-62-33.6-62.2-33.7c-0.5-0.4-0.9-1-0.9-1.7
			c-4.3-51.4,26.4-80.9,27.8-82.1c0.4-0.4,1-0.6,1.6-0.6c0.2,0,0.5,0,0.7,0.1c60,17.8,132.2,26.8,214.7,26.8
			c98.2,0,176.5-13.2,177.2-13.3c0.1,0,0.3,0,0.4,0c1.1,0,2,0.7,2.3,1.8c11,47.8,15.4,83.5,15.4,83.8c0.1,1-0.4,2-1.3,2.4
			C188.8,996.7,118.5,1013.6,48.8,1013.6C48.8,1013.6,48.8,1013.6,48.8,1013.6z"/>
		<path class="st1" d="M-151.6,864.1C-81.7,884.9-4,891.1,63.7,891.1c99.6,0,177.6-13.3,177.6-13.3c11.1,48.2,15.4,83.6,15.4,83.6
			c-76.7,37.1-147.2,50-208,50c-138.6,0-227.4-66.9-227.4-66.9C-182.9,893.4-151.6,864.1-151.6,864.1 M-151.6,859.4
			c-1.2,0-2.3,0.4-3.2,1.3c-0.3,0.3-8.5,8-16,22.2c-6.9,13-14.7,34.4-12.5,61.8c0.1,1.3,0.8,2.6,1.9,3.4c0.9,0.7,23.1,17.3,62.7,34
			c23.2,9.8,47.6,17.7,72.5,23.3c31.1,7,63.1,10.6,95.1,10.6c70.1,0,140.8-17,210-50.4c1.8-0.9,2.9-2.8,2.6-4.8
			c0-0.4-4.4-36.1-15.5-84.1c-0.5-2.2-2.4-3.7-4.6-3.7c-0.3,0-0.5,0-0.8,0.1c-0.8,0.1-78.9,13.3-176.8,13.3
			c-82.3,0-154.3-9-214-26.7C-150.7,859.5-151.2,859.4-151.6,859.4L-151.6,859.4z"/>
	</g>
	
		<linearGradient id="SVGID_4_" gradientUnits="userSpaceOnUse" x1="1291.4685" y1="1014.4407" x2="1727.8461" y2="927.1652" gradientTransform="matrix(-1 0 0 1 1602.0353 0)">
		<stop  offset="0" style="stop-color:#2AD8FF"/>
		<stop  offset="0.9948" style="stop-color:#FC1E79"/>
	</linearGradient>
	<path class="st6" d="M-144.7,872.3c0,0,41.9,12.6,108.6,15.4c0,0-41.3,5.9-69.8,9.3c-4.7,0.6-5.6,7.1-1.1,8.8
		c13.6,5.4,27.6,12.5,16.1,15.8c-19.8,5.7-56.5-1.4-45.2,9.9c11.3,11.3,76.3,16,66.4,20.7c-9.9,4.7-59.4,3.3-66.4,0.5
		c0,0,50.3,28.3,85.2,46.7c0,0-98-29.7-127.7-53.7C-178.6,945.7-170.2,888-144.7,872.3z"/>
	<g>
		<circle class="st7" cx="-214" cy="565.5" r="69.3"/>
		<path class="st1" d="M-282.9,565.5c0,9,2,18,5.8,26.1c3.8,8.1,9.3,15.3,15.8,21.1c13.1,11.7,29.9,18.4,47.3,18.8
			c8.7,0.3,17.4-1,25.7-4c4.1-1.5,8.1-3.4,11.9-5.8c3.8-2.4,7.3-5.1,10.5-8.2c6.4-6.2,11.4-13.8,14.7-22.1c3.3-8.3,4.7-17.2,4.4-26
			c-0.7-17.6-8.4-34.5-20.7-46.5c-6.2-6-13.5-10.7-21.5-13.9c-7.9-3.2-16.4-4.8-25-4.9c-8.6-0.1-17.1,1.5-25.1,4.6
			c-1,0.4-2,0.8-3,1.2c-1,0.4-1.9,0.9-2.9,1.4c-1,0.5-1.9,1-2.9,1.5c-0.9,0.5-1.9,1.1-2.8,1.6c-3.7,2.3-7.2,4.8-10.5,7.7
			c-6.5,5.8-12.1,13-15.8,21.1C-280.9,547.4-282.9,556.4-282.9,565.5z M-283.6,565.5c0-9.1,1.6-18.2,4.7-26.9
			c3.2-8.6,7.9-16.8,14.2-23.8c3.2-3.5,6.7-6.7,10.5-9.5c1-0.7,1.9-1.4,2.9-2c1-0.6,2-1.3,3-1.9c1-0.6,2.1-1.2,3.1-1.7
			c1.1-0.5,2.1-1.1,3.2-1.5c8.7-3.9,18.3-5.9,27.9-5.9c9.6,0,19.2,1.9,28,5.7c8.8,3.8,16.8,9.3,23.5,16.1c6.6,6.8,11.9,15,15.3,23.8
			c3.4,8.8,4.9,18.3,4.5,27.7c-0.3,9.3-2.5,18.5-6.1,27c-3.7,8.5-8.9,16.2-15.3,22.8c-3.2,3.3-6.7,6.4-10.5,9c-3.8,2.7-7.8,5.1-12,7
			c-4.2,2-8.7,3.5-13.3,4.6c-4.6,1.1-9.3,1.7-14,1.9c-9.5,0.2-19.1-1.6-27.8-5.3c-8.8-3.7-16.6-9.5-22.9-16.4
			c-6.3-7-11-15.2-14.2-23.8C-282,583.7-283.6,574.6-283.6,565.5z"/>
	</g>
	<g>
		<path class="st1" d="M-231.9,605.7c19.2,5.7,39.4-5.4,45.1-24.6c5.7-19.2-5.4-39.4-24.6-45.1s-39.4,5.4-45.1,24.6
			c0,0,15.7-6.4,17.8-0.1s3.5,31.8,17,31.1C-208.3,590.9-231.9,605.7-231.9,605.7z"/>
		<path class="st1" d="M-231.6,605.6c0.5,0,0.9-0.1,1.2-0.1c0.2,0,0.3,0,0.5,0l0.7,0.1c0.9,0.1,1.7,0.1,2.6,0.2c1.7,0,3.5,0,5.2-0.2
			c1.7-0.2,3.4-0.5,5-0.9c1.6-0.4,3.2-0.9,4.8-1.5c6.2-2.4,11.6-6.5,15.6-11.6c4-5.1,6.4-11.4,7.3-17.8c0.9-6.4,0.2-13.3-2.7-19.5
			c-0.7-1.5-1.5-3-2.5-4.5c-1-1.4-2.1-2.7-3.2-4c-2.4-2.5-5.2-4.6-8.3-6.1c-1.5-0.8-3.1-1.5-4.8-2c-1.6-0.5-3.3-0.9-5-1.2
			c-1.7-0.2-3.4-0.4-5.1-0.3c-1.7,0-3.4,0.2-5.1,0.5c-6.7,1.1-12.8,4.3-17.6,8.7c-4.8,4.4-8.3,10-10,16.2l-5.1-4.6
			c1.8-0.8,3.4-1.3,5.2-1.9c1.8-0.5,3.6-1,5.5-1.3c2-0.2,4-0.5,6.7,0.2c1.3,0.3,2.9,1.1,4.1,2.5c0.6,0.7,1.1,1.5,1.4,2.3l0.1,0.3
			l0.1,0.2l0.1,0.4l0.2,0.7c0.5,1.9,0.7,3.6,1,5.3l0.9,4.9c0.6,3.2,1.4,6.4,2.4,9.3c1,2.9,2.4,5.6,4.2,7.1c0.9,0.8,1.9,1.3,3,1.4
			c0.3,0,0.6,0.1,0.9,0.1c0.4,0,1,0,1.5,0.1c0.5,0.1,1.1,0.1,1.7,0.3c0.6,0.2,1.3,0.3,2.2,1c0.5,0.4,0.9,0.9,1.2,1.6
			c0.3,0.7,0.3,1.4,0.2,1.9c-0.2,1-0.6,1.6-0.9,2.1c-0.7,1-1.4,1.6-2.1,2.3c-1.4,1.2-2.9,2.2-4.4,3.2c-1.5,0.9-3,1.8-4.5,2.6
			l-2.3,1.2l-1.2,0.5l-0.6,0.3l-0.3,0.1l-0.1,0.1l-0.1,0C-231.6,605.9-231.5,605.7-231.6,605.6z M-232.3,605.7
			c0-0.1,0.1-0.4,0.2-0.4l0.1-0.1l0.1-0.1l0.2-0.2l0.5-0.4l1-0.9l1.9-1.7c1.3-1.1,2.5-2.3,3.7-3.5c1.2-1.2,2.4-2.3,3.3-3.6
			c0.5-0.6,0.9-1.2,1.1-1.7c0.1-0.2,0.1-0.4,0-0.2c0,0.1-0.1,0.4,0.1,0.7c0.1,0.3,0.3,0.5,0.4,0.6c0.2,0.2,0.1,0.1-0.1,0.1
			c-0.2,0-0.5,0-0.9,0l-1.1,0.1c-0.5,0-1.1,0.1-1.7,0c-2.2-0.1-4.6-0.9-6.4-2.2c-1.8-1.3-3.2-2.9-4.4-4.5c-1.1-1.7-2-3.4-2.7-5.1
			c-1.5-3.4-2.5-6.9-3.3-10.3c-0.4-1.7-0.8-3.4-1.1-5.1c-0.3-1.7-0.7-3.3-1-4.8l-0.1-0.5l-0.1-0.2l0-0.1l0,0c0,0,0,0.1,0.1,0.2
			c0.1,0.1,0.1,0.1-0.2,0c-0.7-0.2-2.1-0.2-3.5-0.1c-2.8,0.3-6.1,1.2-8.9,2.2l-0.2,0.1c-1.9,0.7-4.1-0.3-4.8-2.2
			c-0.3-0.8-0.3-1.7-0.1-2.4c2.4-7.5,7-14.3,13.1-19c6.1-4.8,13.7-7.4,21.2-7.8c7.5-0.3,15,1.4,21.5,4.9c6.5,3.5,12,8.6,16,15
			c4,6.3,6.3,14,5.9,21.8c-0.4,7.8-3.5,15.4-8.5,21.3c-2.5,3-5.5,5.5-8.7,7.6c-3.3,2.1-6.9,3.5-10.5,4.5c-3.7,0.9-7.5,1.3-11.2,1
			c-1.9-0.1-3.7-0.4-5.5-0.9c-0.9-0.2-1.8-0.5-2.6-0.8l-0.6-0.2c-0.2-0.1-0.5-0.2-0.8-0.3C-231.5,606.2-231.9,605.9-232.3,605.7z"/>
	</g>
	<g>
		<circle class="st7" cx="348.6" cy="565.5" r="69.3"/>
		<path class="st1" d="M418.3,565.5c0,9.1-1.6,18.2-4.7,26.9c-3.2,8.6-7.9,16.8-14.2,23.8c-6.3,7-14.1,12.7-22.9,16.4
			c-8.7,3.8-18.3,5.6-27.8,5.3c-4.7-0.1-9.4-0.8-14-1.9c-4.6-1.1-9-2.7-13.3-4.6c-4.2-2-8.3-4.3-12-7c-3.8-2.7-7.3-5.7-10.5-9
			c-6.4-6.6-11.7-14.4-15.3-22.8c-3.7-8.5-5.8-17.7-6.1-27c-0.3-9.3,1.1-18.8,4.5-27.7c3.4-8.9,8.7-17,15.3-23.8
			c6.6-6.8,14.7-12.4,23.5-16.1c8.8-3.8,18.4-5.7,28-5.7c9.6,0.1,19.2,2.1,27.9,5.9c1.1,0.5,2.2,1,3.2,1.5c1.1,0.5,2.1,1.1,3.1,1.7
			c1,0.6,2,1.3,3,1.9c1,0.7,2,1.4,2.9,2c3.9,2.8,7.3,6,10.5,9.5c6.3,7,11,15.2,14.2,23.8C416.7,547.2,418.3,556.3,418.3,565.5z
			 M417.5,565.5c0-9-2-18-5.8-26.1c-3.8-8.1-9.3-15.3-15.8-21.1c-3.3-2.9-6.8-5.5-10.5-7.7c-0.9-0.5-1.9-1.1-2.8-1.6
			c-1-0.5-1.9-1-2.9-1.5c-1-0.5-1.9-0.9-2.9-1.4c-1-0.4-2-0.8-3-1.2c-8-3.1-16.6-4.7-25.1-4.6c-8.6,0-17.1,1.7-25,4.9
			c-7.9,3.2-15.3,7.9-21.5,13.9c-12.4,12-20.1,28.8-20.7,46.5c-0.3,8.8,1.1,17.7,4.4,26c3.3,8.3,8.3,15.9,14.7,22.1
			c3.2,3.1,6.7,5.8,10.5,8.2c3.8,2.3,7.8,4.3,11.9,5.8c8.3,3,17.1,4.3,25.7,4c17.3-0.5,34.2-7.1,47.3-18.8
			c6.5-5.9,12.1-13,15.8-21.1C415.6,583.5,417.6,574.5,417.5,565.5z"/>
	</g>
	<path class="st8" d="M400.8,519.9c0,0-0.6,12.9-9,29.3l-48.1,56.5c0,0-1.4,18.9,4.2,28.3c0,0-39.1-7.1-43.6-19.1
		c-4.5-12,67.6-120.9,67.6-120.9L400.8,519.9z"/>
	<g>
		<path class="st1" d="M366.6,605.7c-19.2,5.7-39.4-5.4-45.1-24.6c-5.7-19.2,5.4-39.4,24.6-45.1s39.4,5.4,45.1,24.6
			c0,0-12.2-12.8-18.5-3.6L360,572.5c0,0,17,21.2-7.8,23.3L366.6,605.7z"/>
		<path class="st1" d="M367,605.7c-0.4,0.2-0.8,0.5-1.4,0.8c-0.3,0.1-0.6,0.2-0.8,0.3l-0.6,0.2c-0.9,0.3-1.7,0.5-2.6,0.8
			c-1.8,0.4-3.6,0.7-5.5,0.9c-3.7,0.3-7.5-0.1-11.2-1c-3.7-1-7.3-2.4-10.5-4.5c-3.3-2-6.2-4.6-8.7-7.6c-5-5.9-8.2-13.5-8.6-21.3
			c-0.2-3.9,0.3-7.8,1.3-11.5c0.5-1.8,1.2-3.6,1.9-5.4c0.8-1.7,1.7-3.4,2.7-5c4-6.3,9.6-11.4,16.1-14.9c6.5-3.4,13.9-5.2,21.4-4.8
			c7.5,0.4,15.1,3,21.2,7.7c6.1,4.7,10.8,11.5,13.1,19c0.6,2-0.5,4-2.4,4.7c-1.3,0.4-2.7,0.1-3.7-0.9l-0.2-0.2
			c-0.5-0.4-1.1-1-1.7-1.5c-0.6-0.5-1.3-1-1.9-1.4c-1.3-0.9-2.6-1.6-3.9-2.1c-1.3-0.5-2.4-0.5-3-0.3c-0.6,0.2-1.2,0.6-1.9,1.5l0,0
			c-0.1,0.1-0.1,0.2-0.2,0.2l-3.2,3.9l-3.2,3.8c-2.2,2.5-4.4,5.1-6.6,7.5l0-4.5c0.5,0.7,0.9,1.3,1.4,2c0.4,0.6,0.8,1.3,1.2,2
			c0.8,1.3,1.4,2.7,2,4.2c0.6,1.5,1.1,3,1.4,4.7c0.3,1.7,0.3,3.5-0.1,5.4c-0.4,1.9-1.3,3.7-2.7,5.2c-1.3,1.4-2.9,2.4-4.4,3.1
			c-3.1,1.3-6.2,1.8-9.1,1.9l1.3-5.1c1.3,1.1,2.6,2.1,3.8,3.2c1.2,1.1,2.4,2.2,3.5,3.3l3.1,3C365.1,604,366.1,604.9,367,605.7z
			 M366.2,605.6c-1.5-0.8-3-1.6-4.4-2.3c-1.4-0.7-2.8-1.3-4.1-1.9c-1.3-0.6-2.5-1.1-3.7-1.6c-1.2-0.5-2.3-1.1-3.4-1.7
			c-1.3-0.7-1.8-2.3-1.1-3.6c0.4-0.8,1.2-1.3,2-1.4l0.4-0.1c2.6-0.3,5.1-0.9,7-1.9c1-0.5,1.8-1.1,2.3-1.8c0.5-0.7,0.8-1.4,1-2.2
			c0.3-1.7-0.3-4-1.3-6.2c-0.5-1.1-1.1-2.2-1.7-3.3c-0.3-0.5-0.7-1.1-1-1.6c-0.3-0.5-0.8-1.1-1.1-1.4c-1-1.3-1.1-3-0.1-4.3l0.1-0.2
			c2-2.7,4-5.4,6.1-8l3.1-3.9l3.2-3.9l-0.2,0.3c0.7-1,1.6-2,2.8-2.9c1.1-0.9,2.5-1.5,4-1.8c1.4-0.3,2.9-0.3,4.1-0.2
			c1.3,0.2,2.5,0.5,3.5,1c2.1,0.9,3.9,2,5.6,3.2c0.8,0.6,1.6,1.3,2.4,1.9c0.8,0.7,1.4,1.3,2.2,2.2l-6.3,3.6
			c-1.6-6.2-5.1-11.9-10-16.3c-4.8-4.4-10.9-7.6-17.6-8.8c-6.7-1.2-13.9-0.1-20,3.1c-6.2,3.1-11.1,8.5-13.9,14.6
			c-2.8,6.2-3.6,13-2.7,19.5c0.9,6.4,3.3,12.7,7.2,17.8c4,5.1,9.4,9.3,15.6,11.7c1.6,0.6,3.2,1.1,4.8,1.5c1.6,0.4,3.3,0.7,5,0.9
			c1.7,0.2,3.4,0.2,5.2,0.2c0.9,0,1.7-0.1,2.6-0.2l0.7-0.1c0.2,0,0.3,0,0.5,0C365.3,605.5,365.7,605.6,366.2,605.6z"/>
	</g>
	<path class="st0" d="M-264.9,414.8c0-170.6,145.7-308.9,325.3-308.9s325.3,138.3,325.3,308.9c0,65.2-21.3,125.6-57.5,175.4
		c-9.9,13.6-14.3,30.7-10.9,47.2c0.9,4.4,1.3,8.8,1.3,13.2c0,71.9-115.6,130.2-258.2,130.2s-258.2-58.3-258.2-130.2
		c0-4.5,0.4-8.9,1.3-13.2c3.3-16.5-1-33.6-10.9-47.2C-243.6,540.4-264.9,480-264.9,414.8z"/>
	
		<linearGradient id="SVGID_5_" gradientUnits="userSpaceOnUse" x1="1218.9242" y1="651.7196" x2="1655.3018" y2="564.4441" gradientTransform="matrix(-1 0 0 1 1602.0353 0)">
		<stop  offset="0" style="stop-color:#2AD8FF"/>
		<stop  offset="0.9948" style="stop-color:#FC1E79"/>
	</linearGradient>
	<path class="st9" d="M10.8,614.9c0,0-77.3-41.3-161.6-36.2v-22.1c0,0-36.3-19.4-26.4-51.9C-177.2,504.7-6.2,514.6,10.8,614.9z"/>
	
		<linearGradient id="SVGID_6_" gradientUnits="userSpaceOnUse" x1="5623.6016" y1="559.8082" x2="5813.3281" y2="559.8082" gradientTransform="matrix(1 0 0 1 -5511.5078 0)">
		<stop  offset="0" style="stop-color:#2AD8FF"/>
		<stop  offset="0.9948" style="stop-color:#FC1E79"/>
	</linearGradient>
	<path class="st10" d="M112.1,614.9c0,0,77.3-41.3,161.6-36.2v-22.1c0,0,36.3-19.4,26.4-51.9C300.1,504.7,129.1,514.6,112.1,614.9z"
		/>
	
		<linearGradient id="SVGID_7_" gradientUnits="userSpaceOnUse" x1="1190.5238" y1="509.7174" x2="1626.9014" y2="422.4419" gradientTransform="matrix(-1 0 0 1 1602.0353 0)">
		<stop  offset="5.181347e-03" style="stop-color:#FC1E79"/>
		<stop  offset="1" style="stop-color:#2AD8FF"/>
	</linearGradient>
	<path class="st11" d="M315,444.4l-48.3,10.8c0,0-7.1,19.8-25.4,31.1c-18.4,11.3-145.6,44.5-199.3,42.4
		c-36.8-1.4-186.6-59.4-186.6-74.9l-65-18.4l28.3-59.4l501.6,21.7L315,444.4z"/>
	<g>
		
			<linearGradient id="SVGID_8_" gradientUnits="userSpaceOnUse" x1="1235.2386" y1="733.2915" x2="1671.6162" y2="646.016" gradientTransform="matrix(-1 0 0 1 1602.0353 0)">
			<stop  offset="5.181347e-03" style="stop-color:#FC1E79"/>
			<stop  offset="1" style="stop-color:#2AD8FF"/>
		</linearGradient>
		<path class="st12" d="M-197.7,650.6c0-4.5,1.9-8.9,2.7-13.2c0.7-3.3,3.8-6.6,3.9-9.9c50,30.5,135,80.1,192,42.5
			c66.4-43.8,145.2,9,145.2,9c107.7-11.9,170.1-70,174.1-73.8c-3.9,10.2-5,21.3-2.8,32.2c0.9,4.4,1.3,8.8,1.3,13.2
			c0,71.9-115.6,130.2-258.2,130.2C-82.1,780.9-197.7,722.6-197.7,650.6z"/>
		<path class="st1" d="M-198.1,650.6c0-2.1,0.4-4.1,0.9-6.1c0.5-2,1.1-3.9,1.5-5.9l0.3-1.5c0.1-0.5,0.3-1,0.5-1.5
			c0.4-1,0.9-1.9,1.3-2.8c0.9-1.8,2-3.6,2-5.4c0-0.2,0.2-0.4,0.5-0.4c0.1,0,0.2,0,0.2,0.1l9.7,5.8c3.2,1.9,6.5,3.8,9.7,5.6
			c6.5,3.7,13.1,7.4,19.7,10.8c13.3,6.9,26.9,13.2,41,18.4c14,5.2,28.4,9.4,43,11.5c7.3,1.1,14.7,1.5,22,1.3
			c7.3-0.2,14.6-1.1,21.6-3c7-1.9,13.7-4.6,19.9-8.3c0.8-0.4,1.5-0.9,2.3-1.4l2.4-1.5c1.6-1.1,3.3-2,5-3c3.4-1.9,6.8-3.7,10.4-5.2
			c7.1-3.1,14.6-5.3,22.2-6.8c7.6-1.5,15.4-2.1,23.1-2c15.4,0.2,30.6,3.3,45.1,8.2c7.2,2.4,14.3,5.3,21.2,8.6
			c3.4,1.6,6.8,3.4,10.1,5.2c3.3,1.9,6.6,3.8,9.8,5.9l-1.4-0.3c15.8-1.6,31.6-4.1,47-7.9c7.7-2,15.4-4.1,23-6.6
			c7.6-2.5,15.1-5.2,22.4-8.3c14.7-6.1,29-13.3,42.6-21.6c6.8-4.2,13.4-8.6,19.8-13.3c3.2-2.3,6.4-4.8,9.4-7.3
			c3.1-2.5,6.1-5.1,8.9-7.8c0.6-0.6,1.6-0.6,2.3,0c0.4,0.5,0.6,1.1,0.4,1.6l0,0c-2.3,6.4-3.6,13.2-3.6,20c0,3.4,0.3,6.8,1,10.1
			l0.5,2.6c0.2,0.9,0.3,1.8,0.5,2.7c0.3,1.8,0.5,3.6,0.6,5.4c0.1,1.8,0.2,3.6,0.2,5.4c0,1.8-0.1,3.6-0.2,5.4
			c-0.3,3.6-0.9,7.2-1.8,10.7c-1.7,7-4.5,13.8-8,20.1c-7,12.7-16.9,23.4-27.8,32.6c-11,9.2-23,16.9-35.6,23.5
			c-25.2,13.2-52.3,22.3-79.8,28.8c-13.8,3.2-27.7,5.7-41.7,7.6c-14,1.8-28.1,3.1-42.2,3.7c-14.1,0.7-28.3,0.6-42.4,0.1
			c-14.1-0.6-28.2-1.7-42.2-3.5c-28-3.7-55.8-9.8-82.4-19.3c-13.3-4.8-26.3-10.3-38.8-16.9c-12.5-6.5-24.5-14.2-35.5-23
			c-10.9-8.9-20.9-19.1-28.4-31.2c-3.7-6-6.8-12.4-8.9-19.1c-1-3.4-1.9-6.8-2.4-10.3C-197.8,657.7-198.1,654.2-198.1,650.6z
			 M-197.3,650.6c0,14,4.7,27.7,12.3,39.3c3.8,5.9,8.2,11.2,13.1,16.3c4.8,5,10.2,9.5,15.7,13.8c11.1,8.4,23.2,15.4,35.8,21.4
			c12.6,6,25.6,10.9,38.9,15.1c13.3,4.1,26.8,7.6,40.4,10.4c13.6,2.8,27.4,5,41.2,6.5c13.8,1.6,27.7,2.6,41.6,3.1
			c13.9,0.4,27.8,0.3,41.7-0.3c13.9-0.6,27.8-1.8,41.5-3.6c13.8-1.7,27.5-4.1,41.1-7.1c27.1-6.1,53.7-14.8,78.3-27.4
			c12.3-6.3,24.1-13.6,34.8-22.3c10.6-8.7,20.3-18.7,27.2-30.4c3.5-5.9,6.2-12.1,8-18.7c0.9-3.3,1.5-6.6,1.9-10
			c0.2-1.7,0.3-3.4,0.3-5.1c0.1-1.7,0.1-3.4,0-5.1c-0.1-1.7-0.2-3.4-0.4-5.1c-0.1-0.8-0.2-1.7-0.4-2.5l-0.5-2.6
			c-0.6-3.6-0.9-7.2-0.8-10.8c0.1-7.2,1.7-14.4,4.3-21.1l2.6,1.7c-3,2.8-6.1,5.3-9.3,7.8c-3.2,2.5-6.4,4.9-9.7,7.2
			c-6.5,4.7-13.3,9.1-20.2,13.2c-6.9,4.1-13.9,8-21.1,11.6c-7.2,3.6-14.5,6.9-21.9,10.1c-7.4,3.1-14.9,5.9-22.5,8.5
			c-7.6,2.6-15.3,4.9-23,7c-15.5,4.1-31.3,7.2-47.3,9.2c-0.5,0.1-0.9-0.1-1.3-0.3l-0.1-0.1c-3.1-1.9-6.4-3.7-9.6-5.4
			c-3.3-1.7-6.6-3.3-10-4.8c-6.8-3-13.7-5.6-20.8-7.8c-14.1-4.3-28.8-6.8-43.5-6.8c-7.3,0-14.6,0.7-21.8,2.1
			c-7.1,1.4-14.1,3.5-20.8,6.4c-3.3,1.5-6.6,3.1-9.8,4.8c-1.6,0.9-3.2,1.8-4.7,2.8l-2.4,1.5c-0.8,0.5-1.7,1.1-2.5,1.5
			c-6.8,4-14.1,6.9-21.7,8.7c-7.6,1.8-15.3,2.7-23,2.7c-7.7,0-15.4-0.9-22.9-2.2c-15-2.8-29.5-7.5-43.4-13.4
			c-13.9-5.9-27.4-12.6-40.5-20c-6.6-3.6-13.1-7.4-19.6-11.3l-9.6-5.8l-9.6-5.9l0.7-0.4c-0.1,2.2-1.2,4.1-2.2,5.8
			c-0.5,0.9-1,1.8-1.3,2.7c-0.2,0.5-0.3,0.9-0.4,1.4l-0.3,1.5C-195.8,642.8-197.3,646.7-197.3,650.6z"/>
	</g>
	<path class="st1" d="M180.9,673.4C180.9,673.4,180.9,673.4,180.9,673.4l32.1-7.4c-17,39.5,5.6,45.2,28.2,46.6
		c9.5,0.6,51.1-11.3,55.1-42.4c4.2-32.5-24.6-30.8-24.6-30.8v0c29.7-16.6,46.4-32.1,48.4-34c-3.9,10.2-5,21.3-2.8,32.2
		c0.9,4.4,1.3,8.8,1.3,13.2c0,46.8-49,87.8-122.4,110.8l-28.6-5.5L180.9,673.4z"/>
	<path class="st1" d="M80.8,669.4c0,0,13.9,36,14,49.8c0,0,19.9,8.2,38.3,11c18.4,2.8,6.4-39.6,6.4-39.6S102,670.8,80.8,669.4z"/>
	<g>
		
			<linearGradient id="SVGID_9_" gradientUnits="userSpaceOnUse" x1="1140.4523" y1="259.3598" x2="1576.8298" y2="172.0843" gradientTransform="matrix(-1 0 0 1 1602.0353 0)">
			<stop  offset="0" style="stop-color:#2AD8FF"/>
			<stop  offset="0.9948" style="stop-color:#FC1E79"/>
		</linearGradient>
		<path class="st13" d="M376.3,285.8c0,0-22.3-50,2.3-92.1l-48-1.3c0,0,30.1-76.4,45.2-92.2c0,0-79.5-14.5-124.7,14.5
			c0,0,5.5-36.9,20.6-54c0,0-83.6-6.6-116.5,23.7c0,0,13.7-50.1,30.1-59.3C185.4,25,58,6.6,8.6,56.6c0,0-4.1-32.9,9.6-56.6
			c0,0-108.3,22.4-128.8,114.6c0,0,4.1-80.4,20.6-93.5c0,0-190.4,79.3-148,271.5C-238,292.6,158.8,420,376.3,285.8z"/>
		<path class="st1" d="M376,285.6c0,0.1,0,0.2,0,0.2l0,0L376,285.6l-0.1-0.1l-0.2-0.3l-0.3-0.7l-0.6-1.4c-0.4-0.9-0.7-1.9-1.1-2.8
			c-0.7-1.9-1.3-3.8-1.9-5.7c-1.2-3.8-2.2-7.7-3.1-11.6c-1.7-7.8-2.7-15.8-2.8-23.8c-0.1-8,0.6-16.1,2.5-24
			c1.8-7.9,4.8-15.5,8.8-22.5l1.4,2.5l-48-0.9c-1.2,0-2.1-1-2.1-2.2c0-0.3,0.1-0.5,0.1-0.7l0,0c6.2-16.1,12.8-31.9,19.9-47.6
			c3.5-7.9,7.2-15.7,11.2-23.4c2-3.8,4-7.7,6.3-11.4c1.1-1.9,2.3-3.7,3.5-5.6c1.3-1.8,2.6-3.6,4.2-5.4l1.6,4.8
			c-5.1-0.8-10.4-1.5-15.6-2c-5.3-0.5-10.5-0.9-15.8-1.1c-10.5-0.5-21.1-0.4-31.6,0.5c-10.5,0.9-20.9,2.4-31,5.1
			c-10.1,2.7-19.8,6.5-28.4,12l0,0c-1.5,1-3.6,0.5-4.6-1c-0.5-0.7-0.6-1.5-0.5-2.3c0.8-5,1.8-9.8,3-14.6c1.2-4.8,2.5-9.6,4.2-14.3
			c1.6-4.7,3.5-9.4,5.7-13.9c2.3-4.5,5-8.9,8.4-12.9l2.3,5.6c-9.9-0.7-20-0.7-30-0.4c-10,0.3-20,1.1-29.9,2.5
			c-9.9,1.4-19.6,3.4-29,6.6c-4.7,1.6-9.2,3.4-13.5,5.7c-4.3,2.3-8.3,4.9-11.9,8.1l-0.1,0.1c-1.2,1.1-3,1-4.1-0.2
			c-0.7-0.8-0.9-1.8-0.6-2.7c1.6-5.5,3.4-10.9,5.3-16.2c1.9-5.3,4-10.6,6.3-15.9c2.3-5.2,4.9-10.4,8-15.3c1.5-2.5,3.2-4.9,5.2-7.1
			c2-2.3,4.2-4.4,7-6l0.8,4.4c-15.1-2.1-30.5-3.2-45.8-3.6c-15.3-0.4-30.7,0-45.9,1.6c-15.2,1.6-30.4,4.4-44.9,9.3
			c-7.2,2.4-14.3,5.4-20.9,9.2C21,47.6,14.8,52.1,9.5,57.5l0,0C9,58,8.3,58,7.8,57.5c-0.2-0.2-0.3-0.4-0.3-0.7
			C7,51.8,6.8,47,6.9,42.1c0.1-4.9,0.5-9.8,1.2-14.7c0.7-4.9,1.7-9.7,3.2-14.4c1.5-4.7,3.4-9.3,5.8-13.6l1.3,1.7
			C11.2,2.8,4,5.1-3.1,7.6c-7.1,2.6-14,5.5-20.8,8.8c-13.5,6.6-26.4,14.5-38,24.1c-11.6,9.6-21.8,20.7-29.8,33.3
			c-8,12.6-13.7,26.6-16.9,41.2c-0.2,1.1-1.4,1.9-2.5,1.6c-1-0.2-1.7-1.2-1.7-2.2l0,0c0.4-8.1,1-16.2,1.8-24.3
			c0.8-8.1,1.7-16.2,2.9-24.2c1.2-8.1,2.7-16.1,4.8-24.1c1.1-4,2.3-8,3.9-11.9c0.8-2,1.8-3.9,2.9-5.8c1.1-1.9,2.5-3.8,4.5-5.4
			l2.9,4.9c-3.1,1.3-6.2,2.9-9.3,4.5c-3.1,1.6-6.1,3.2-9.2,4.9c-6,3.4-12,7-17.8,10.8c-11.6,7.6-22.7,15.9-33.2,25
			c-10.5,9.1-20.3,18.9-29.3,29.4c-9,10.5-17.1,21.8-24,33.7c-7,11.9-12.8,24.5-17.3,37.4c-2.2,6.5-4.2,13.1-5.8,19.8
			c-1.5,6.7-2.8,13.5-3.7,20.3c-0.9,6.8-1.5,13.7-1.7,20.6c-0.2,3.4-0.1,6.9-0.1,10.3c0,1.7,0.1,3.4,0.1,5.2
			c0.1,1.7,0.1,3.4,0.2,5.2c0.8,13.8,2.8,27.5,5.8,41l-2.7-3c12.4,3.9,25,7.4,37.7,10.8c12.7,3.4,25.4,6.5,38.1,9.5
			c25.5,6,51.1,11.4,76.9,16c12.9,2.3,25.8,4.4,38.8,6.4c12.9,2,25.9,3.7,38.9,5.3c26,3.1,52.1,5.3,78.2,6.6
			c26.1,1.3,52.3,1.5,78.5,0.4c26.1-1.1,52.2-3.4,78.1-7.6c25.8-4.2,51.4-10.1,76.3-18.3c12.4-4.1,24.7-8.8,36.6-14.2
			c6-2.7,11.9-5.5,17.7-8.5c1.5-0.7,2.9-1.5,4.3-2.3c1.4-0.8,2.9-1.5,4.3-2.4c1.4-0.8,2.9-1.6,4.2-2.4
			C373.2,287.2,374.5,286.4,376,285.6z M376.7,285.9c-1.4,0.9-2.8,1.9-4.3,2.8c-1.5,0.9-2.8,1.7-4.3,2.6c-1.4,0.9-2.8,1.7-4.3,2.5
			c-1.4,0.8-2.8,1.6-4.3,2.4c-5.7,3.2-11.6,6.2-17.6,9c-11.9,5.7-24.1,10.7-36.5,15.1c-24.8,8.9-50.5,15.2-76.4,19.9
			c-26,4.6-52.2,7.5-78.5,8.9c-26.3,1.5-52.7,1.5-79,0.6c-26.3-0.9-52.6-3-78.8-5.9c-13.1-1.4-26.2-3.1-39.2-5
			c-13-1.9-26-3.9-39-6.2c-25.9-4.5-51.8-9.7-77.4-15.7c-12.8-3-25.6-6.2-38.3-9.6c-12.7-3.4-25.4-6.9-38.1-10.9
			c-1.4-0.4-2.4-1.6-2.7-2.9l0,0c-3-13.9-5-28-5.8-42.2c-0.1-1.8-0.1-3.6-0.2-5.3c0-1.8-0.1-3.6-0.1-5.3c0-3.6,0-7.1,0.2-10.7
			c0.2-7.1,0.9-14.2,1.9-21.3c0.9-7.1,2.3-14.1,4-21c1.7-6.9,3.7-13.8,6.1-20.5c4.8-13.4,10.8-26.4,18.1-38.6
			c7.2-12.3,15.7-23.8,25-34.5c9.3-10.8,19.4-20.7,30.2-29.9c10.8-9.2,22.2-17.6,34.1-25.2c6-3.8,12.1-7.4,18.3-10.8
			c3.1-1.7,6.2-3.3,9.4-4.9c3.2-1.6,6.3-3.1,9.7-4.5c1.5-0.6,3.1,0.1,3.7,1.5c0.5,1.2,0.1,2.5-0.8,3.3l0,0c-1.2,1-2.3,2.3-3.3,3.9
			c-1,1.6-1.8,3.3-2.6,5c-1.5,3.5-2.8,7.3-3.9,11.1c-2.2,7.6-3.7,15.5-5.1,23.4c-1.3,7.9-2.4,15.9-3.3,23.9
			c-0.9,8-1.6,16.1-2.1,24.1l-4.2-0.6c3.5-15,9.5-29.4,18-42.2c8.4-12.8,19.1-24.1,30.9-33.7c11.9-9.6,25-17.6,38.7-24.1
			c6.9-3.3,13.9-6.2,21.1-8.8C3.3,2.8,10.5,0.5,18-1.1c0.6-0.1,1.3,0.3,1.4,0.9c0.1,0.3,0,0.6-0.1,0.8l0,0
			c-2.4,4.1-4.2,8.5-5.7,13.1c-1.4,4.6-2.5,9.3-3.2,14c-0.7,4.8-1.1,9.6-1.2,14.4c-0.1,4.8,0,9.7,0.6,14.4l-2-0.7
			c5.5-5.6,11.9-10.2,18.6-14.1c6.8-3.8,13.9-7,21.3-9.5c14.7-5.1,30-8.1,45.4-9.9c15.4-1.9,30.9-2.5,46.3-2.4
			c7.7,0.1,15.5,0.3,23.2,0.8c7.7,0.5,15.4,1.1,23.2,2.1c1.3,0.2,2.2,1.3,2,2.6c-0.1,0.7-0.5,1.4-1.1,1.7l-0.1,0
			c-2.1,1.2-3.9,3-5.6,5.1c-1.7,2-3.2,4.3-4.6,6.6c-2.8,4.7-5.2,9.7-7.4,14.8c-2.2,5.1-4.1,10.3-5.9,15.6
			c-1.8,5.3-3.5,10.6-4.9,15.9l-4.8-2.9c7.9-7.3,17.5-12,27.3-15.5c9.8-3.4,19.9-5.6,30.1-7.1c10.2-1.5,20.4-2.4,30.6-2.7
			c10.2-0.3,20.4-0.3,30.7,0.4c1.9,0.1,3.3,1.7,3.1,3.6c0,0.8-0.3,1.4-0.8,2l-0.1,0.1c-2.9,3.4-5.4,7.3-7.4,11.5
			c-2.1,4.2-3.9,8.6-5.4,13.1c-1.6,4.5-2.9,9.1-4.1,13.7c-1.2,4.6-2.2,9.4-2.9,14l-5.1-3.3c9.4-6,19.8-10,30.3-12.7
			c10.6-2.8,21.4-4.3,32.1-5.1c10.8-0.8,21.6-0.8,32.4-0.2c5.4,0.3,10.7,0.7,16.1,1.3c5.4,0.6,10.7,1.3,16.1,2.2
			c1.6,0.3,2.6,1.8,2.3,3.3c-0.1,0.6-0.4,1.1-0.7,1.5l0,0c-2.6,2.8-4.9,6.4-7.2,9.9c-2.2,3.6-4.3,7.3-6.3,11.1
			c-4,7.5-7.7,15.2-11.4,23c-3.6,7.8-7.1,15.6-10.5,23.4c-3.4,7.9-6.8,15.7-10,23.7l-1.9-2.9l48,1.8l0,0c0.9,0,1.6,0.8,1.6,1.7
			c0,0.3-0.1,0.6-0.2,0.8c-4,6.7-7,13.9-9,21.5c-1.9,7.6-2.9,15.4-3,23.3c-0.1,7.9,0.7,15.8,2.1,23.5c0.7,3.9,1.6,7.7,2.7,11.6
			c0.5,1.9,1.1,3.8,1.7,5.7c0.3,0.9,0.6,1.9,1,2.8l0.5,1.4l0.3,0.7l0.1,0.3l0.1,0.2l0,0.1l0,0C376.7,285.6,376.7,285.8,376.7,285.9z
			"/>
	</g>
	<path class="st7" d="M79.6,27.2c0,0-17.2,10.2-18.7,17.3c0,0,15.6-5.7,24-2.8c0,0-33.9,18.4-38.2,35.3c0,0,0-18.4,7.1-25.4
		c0,0-38.2,25.4-14.1-4.2l-11.4-0.9C28.3,46.5,58.7,32.5,79.6,27.2z"/>
	<path class="st8" d="M357.8,278.4c0,0-11.3-28.9-5.7-53c0,0-20.4,20-22.2,28.4C330,253.9,342.3,277.7,357.8,278.4z"/>
	<path class="st1" d="M235.6,77.8c0,0-24-2.8-52.3,15.6l29.7-5.7c0,0-35.3,12.7-52.9,39.1c0,0-7.9,16-5.1,47.1l1.4,17
		c0,0,7.1-5.7,17-17s35.3-36.8,48.1-55.1c0,0-22.8,6.7-33.3,11.9c0,0,30.5-18.9,40.4-33.1l-26.9,8.5L235.6,77.8z"/>
	<g>
		<path class="st1" d="M156.1,190.9c-1-4-1.5-8.1-1.9-12.2c-0.4-4.1-0.6-8.2-0.5-12.4c0-8.3,0.9-16.6,2.8-24.8
			c1.8-8.2,5.1-16.2,9.8-23.2c2.4-3.5,5-6.8,8-9.8c3-2.9,6.2-5.6,9.7-7.9l0.4,2.1c-6.1-1-12.6-1.2-18.8-0.7
			c-6.3,0.5-12.5,1.5-18.6,2.9c-6.1,1.4-12.1,3.1-17.9,5.3c-5.8,2.2-11.4,4.8-16.7,7.8c-10.6,6.2-20.3,13.8-28.6,22.9
			c-8.3,9.2-15.3,19.7-21.5,30.9c-0.1,0.2-0.3,0.3-0.5,0.2c-0.2-0.1-0.2-0.3-0.2-0.4c3.4-12.4,9.2-24.3,17.1-34.8
			c1-1.3,2.1-2.5,3.1-3.8l1.6-1.9c0.5-0.6,1.1-1.2,1.7-1.8c1.1-1.2,2.3-2.4,3.4-3.6l3.7-3.3c5-4.3,10.5-8.1,16.4-11.2
			c5.9-3.1,12-5.6,18.3-7.5c6.3-2,12.7-3.3,19.2-4c6.5-0.7,13-0.8,19.5-0.6c3.2,0.1,6.4,0.2,9.7,0.5c3.2,0.2,6.4,0.6,9.6,1
			c0.6,0.1,1,0.7,1,1.3c0,0.3-0.2,0.6-0.5,0.8l-0.1,0c-3.3,2.3-6.2,5-8.6,8.1c-2.5,3.1-4.4,6.6-6.1,10.1c-1.7,3.5-3,7.3-4.3,11
			c-1.2,3.7-2.3,7.5-3.3,11.3c-1.9,7.7-3.2,15.6-4.2,23.5c-0.9,8-1.6,16.1-2,24.2l0,0c0,0.2-0.2,0.4-0.4,0.4
			C156.3,191.2,156.1,191,156.1,190.9z"/>
	</g>
	<path class="st7" d="M-236.6,272.8c0,0-28.3-166.8,137.6-242.5c0,0-17.4,26.3-15.8,84.3c0,0-5.9-42.5,2.6-66.5
		C-112.2,48.1-229.5,90.5-236.6,272.8z"/>
	<path class="st1" d="M159.9,217c44.6-74.3,113.1-74.9,113.1-74.9c-33.9,19.8-48.8,72.8-48.8,72.8c19.8-25.4,53.7-41,53.7-41
		c-14.1,32.5-4.9,75.6-4.9,75.6c21.9-43.1,78.5-37.5,78.5-37.5c-36.8,28.3-41,100-41,100l-472.2,5.7
		c-66.4-37.8-43.8-132.6-43.8-132.6c14.1,50.9,21.9,64.3,21.9,64.3c-14.8-36-3.5-77-3.5-77c4.2,32.5,16.3,64.3,16.3,64.3
		c-19.8-42.4,7.1-110.3,7.1-110.3c-14.8,7.8-28.3,28.3-28.3,28.3c22.6-62.2,67.9-89.1,67.9-89.1s-16.3,55.8-0.7,84.1
		c0,0,38.2-101.8,106-120.2c0,0-15.6,18.5-5.7,38.9s0,0,0,0S-110.8,99-88.2,173.9c0,0,14.1-35.3,50.9-65c0,0-8.5,31.1-4.2,55.1
		c0,0-1.4-49.5,35.3-76.3c0,0-15.6,41-12.7,76.3c0,0,5.7-63.6,39.6-89.1c0,0-30.2,50.6-9.4,108.7s0,0,0,0L33,172.2
		c0,0-19.5-28.4,4.6-96.8s0,0,0,0s1.5,26.4,4.3,41.9c0,0,9.9-43.8,82-65c0,0-17-4.2-48.1,4.2c0,0,14.1-24,74.9-14.1
		c0,0-32.5,19.8-49.5,45.2c0,0,17-15.6,35.3-18.4c0,0-20.5,17.6-28.6,39.9c0,0,33.3-13.1,59.3-8.8c25.9,4.2,0,0,0,0
		s-68.8,0-77.3,96.1c0,0,8.5-38.2,50.9-72.1c0,0-21.2,32.5-24,76.3c0,0,7.1-31.1,24-56.5c0,0-9.9,36.8,5.7,69.3
		C146.5,213.5,153.6,227.6,159.9,217z"/>
	<g>
		
			<linearGradient id="SVGID_10_" gradientUnits="userSpaceOnUse" x1="1211.2872" y1="613.5347" x2="1647.6648" y2="526.2592" gradientTransform="matrix(-1 0 0 1 1602.0353 0)">
			<stop  offset="0" style="stop-color:#2AD8FF"/>
			<stop  offset="0.9948" style="stop-color:#FC1E79"/>
		</linearGradient>
		<path class="st14" d="M-171.6,397.2c0,0,1.4,72.1-18.4,113.1c-19.4,40.3-5.7,94.7-5.7,94.7s-56.5-39.6-67.9-212
			C-263.5,393-201.3,374.6-171.6,397.2z"/>
		<path class="st1" d="M-171.2,397.1c0,0.1,0.1,0.2,0.1,0.4l0,0.2l0,0.4l0.1,0.8l0.1,1.7l0.2,3.3c0.1,2.2,0.2,4.4,0.2,6.6
			c0.1,4.4,0.1,8.9,0,13.3c-0.2,8.9-0.6,17.7-1.5,26.6c-1.8,17.7-4.8,35.4-11.1,52.4c-0.4,1.1-0.8,2.1-1.2,3.2
			c-0.4,1.1-0.9,2.1-1.3,3.1l-2.7,6c-1.7,3.9-3.2,7.9-4.4,12c-2.4,8.2-4,16.8-4.8,25.4c-0.4,4.3-0.7,8.7-0.8,13.1
			c-0.1,4.4,0,8.7,0.3,13.1c0.6,8.7,1.6,17.5,3.6,26l0,0.1c0.1,0.6-0.2,1.2-0.8,1.3c-0.3,0.1-0.7,0-0.9-0.2
			c-3.9-3.1-7.1-6.6-10.2-10.2c-3.1-3.7-5.9-7.5-8.6-11.4c-5.3-7.9-10.1-16.2-14.4-24.7c-8.5-17.1-15.2-35.1-20.2-53.5
			c-5.1-18.4-9-37.1-11.8-56c-2.8-18.8-4.5-37.8-5.5-56.8l0-0.2c-0.1-1.7,1-3.1,2.6-3.5c4-1.1,7.9-1.9,11.8-2.7
			c3.9-0.7,7.9-1.4,11.9-1.9c7.9-1,16-1.6,24-1.5c4,0,8,0.3,12,0.8c4,0.5,8,1.1,11.9,2.1c3.9,1,7.7,2.3,11.4,4
			c1.8,0.9,3.6,1.8,5.3,2.9C-174.5,394.5-172.9,395.6-171.2,397.1z M-171.9,397.4c-1.5-0.9-3.2-2-5-2.8c-1.7-0.9-3.5-1.6-5.4-2.3
			c-3.7-1.3-7.4-2.2-11.2-2.9c-7.6-1.3-15.4-1.5-23.2-1.1c-7.8,0.4-15.5,1.4-23.2,2.7c-3.8,0.7-7.6,1.5-11.4,2.4
			c-3.8,0.9-7.6,1.8-11.2,2.9l2.6-3.7c1.6,18.8,3.7,37.5,6.3,56.1c2.6,18.6,6,37.2,10.5,55.4c1.1,4.6,2.4,9.1,3.6,13.6
			c1.4,4.5,2.6,9,4.1,13.5c2.8,8.9,6,17.8,9.7,26.4c3.7,8.6,7.9,17,12.9,25c2.5,3.9,5.2,7.8,8.2,11.4c1.5,1.8,3,3.6,4.6,5.3
			c1.6,1.7,3.3,3.3,5.1,4.6l-1.8,1.2c-1.1-4.4-1.9-8.7-2.6-13.1c-0.8-4.4-1.3-8.8-1.8-13.2c-1-8.8-1.5-17.8-1.3-26.7
			c0.1-4.5,0.4-9,1-13.5c0.6-4.5,1.3-8.9,2.5-13.4c1.2-4.4,2.5-8.8,4.3-13l1.4-3.1l1.3-2.9c0.5-1,0.9-2,1.3-2.9c0.4-1,0.8-2,1.2-3
			c1.6-4,2.9-8.1,4.2-12.3c1.2-4.2,2.3-8.4,3.3-12.6c2-8.5,3.5-17.1,4.8-25.8c1.3-8.7,2.3-17.4,3.2-26.2c0.5-4.4,0.8-8.8,1.2-13.2
			L-171.9,397.4z"/>
	</g>
	<path class="st1" d="M-181.9,396.8c0,0-1.7,71.8-22.9,98.7l-1.4-45.2c0,0-9.2,29-12.7,65c0,0-9.2-40.3-17-73.5
		c0,0-6.4,57.3,12,99.7l14.1-32.5c0,0-14.3,57.3,2.4,81.3c0,0-51.2-49.5-61.1-190.9L-181.9,396.8z"/>
	<g>
		
			<linearGradient id="SVGID_11_" gradientUnits="userSpaceOnUse" x1="1190.1631" y1="507.9137" x2="1626.5406" y2="420.6382" gradientTransform="matrix(-1 0 0 1 1602.0353 0)">
			<stop  offset="0" style="stop-color:#2AD8FF"/>
			<stop  offset="0.9948" style="stop-color:#FC1E79"/>
		</linearGradient>
		<path class="st15" d="M310.5,397.2c0,0,9.9,49.5,21.2,113.1c9.4,52.9-11.3,94.7-11.3,94.7s83.4-59.4,79.2-214.9
			C399.5,390.2,340.2,374.6,310.5,397.2z"/>
		<path class="st1" d="M310.8,397.4c0.1,0.2,0.2,0.3,0.2,0.6l0.2,0.8l0.4,1.6l0.8,3.2l1.6,6.4c1.1,4.3,2.1,8.6,3.1,12.9
			c2,8.6,4,17.2,5.8,25.9c3.7,17.3,7.1,34.6,10.4,52l1.2,6.5c0.4,2.2,0.8,4.4,1.1,6.6c0.6,4.5,1.1,9,1.3,13.4
			c0.1,2.2,0.2,4.5,0.2,6.7c0,2.2,0,4.5-0.2,6.7c-0.1,2.2-0.2,4.5-0.4,6.7c-0.2,2.2-0.4,4.5-0.7,6.7c-1.1,8.9-3,17.7-5.4,26.2
			c-1.2,4.3-2.5,8.5-4,12.7c-1.5,4.2-3.1,8.3-5.1,12.4l-1.7-1.5c3.8-2.8,7.5-6.2,10.9-9.7c1.7-1.7,3.4-3.5,5-5.3
			c1.6-1.8,3.2-3.7,4.8-5.6c6.2-7.6,11.7-15.7,16.6-24.2c9.8-16.9,17.4-35,23.4-53.5c3-9.3,5.4-18.7,7.4-28.3
			c2-9.5,3.6-19.2,4.8-28.8c2.4-19.4,3.4-38.9,3.3-58.5l2.6,3.3c-3.5-0.9-7.2-1.8-10.9-2.5c-3.7-0.7-7.4-1.4-11.1-1.9
			c-7.5-1-15-1.7-22.5-1.8c-7.5-0.1-15.1,0.4-22.4,1.9c-3.7,0.7-7.3,1.8-10.8,3.1c-1.8,0.7-3.5,1.4-5.2,2.3
			C313.9,395.5,312.2,396.6,310.8,397.4z M310.1,397.1c1.6-1.5,3.1-2.5,4.8-3.7c1.6-1.1,3.3-2,5.1-2.9c3.5-1.8,7.2-3.1,10.9-4.2
			c3.7-1.1,7.6-1.9,11.4-2.5c3.9-0.6,7.7-1,11.6-1.2c7.8-0.4,15.6-0.2,23.3,0.5c3.9,0.4,7.7,0.8,11.6,1.4c3.9,0.6,7.6,1.3,11.6,2.2
			c1.5,0.4,2.6,1.7,2.6,3.2l0,0.2c0.9,19.9,0.3,39.9-2.4,59.7c-2.6,19.8-7.2,39.4-13.7,58.2c-3.3,9.4-7.1,18.7-11.5,27.6
			c-4.4,8.9-9.4,17.6-15,25.9c-5.5,8.3-11.6,16.2-18.1,23.7c-6.6,7.5-13.4,14.6-21.4,20.8c-0.5,0.4-1.2,0.3-1.6-0.2
			c-0.3-0.4-0.3-0.8-0.1-1.2l0-0.1c0.9-1.9,1.7-4,2.5-6c0.8-2,1.5-4.1,2.1-6.2c1.3-4.2,2.5-8.4,3.4-12.7c1.9-8.5,3-17.2,3.5-25.9
			c0.5-8.7,0.4-17.4-0.4-26c-0.3-4.3-0.9-8.6-1.6-12.9c-0.7-4.2-1.5-8.6-2.2-13c-3-17.4-6-34.8-8.8-52.2c-1.4-8.7-2.8-17.4-4.1-26.2
			l-1.9-13.1l-0.9-6.6l-0.4-3.3l-0.2-1.6l-0.1-0.8C310.2,397.9,310.1,397.4,310.1,397.1z"/>
	</g>
	<path class="st1" d="M315,420.1c0,0,8.2,81.7,16.7,91.6c0,0,2.8-41,0-58c0,0,22.6,29.7,17,87.6c0,0,18.4-43.8,15.6-89.1
		c0,0,9.9,24,8.5,41c0,0,19-53.2,6-96.6L315,420.1z"/>
	<g>
		<path class="st1" d="M382.6,274.1c0,0-279.9,57.5-624.8-1.2c0,0-26.9,77.7-25.4,127c0,0,376,109.2,672.9-8.2
			C405.2,391.5,398.1,326.7,382.6,274.1z"/>
		<path class="st1" d="M382.5,274.3c-0.6,0.2-1.4,0.3-2.2,0.5l-2.4,0.5l-4.8,0.9l-9.6,1.8c-6.4,1.1-12.9,2.2-19.4,3.3
			c-12.9,2.1-25.9,3.9-38.8,5.7c-26,3.3-52,6-78.1,8.2c-52.2,4.3-104.6,6.3-156.9,6.2c-52.4,0-104.7-2.8-156.9-7.4l-19.5-1.9l-9.8-1
			l-9.8-1.1l-19.5-2.2l-19.5-2.5c-6.5-0.9-13-1.6-19.5-2.6l-19.4-2.8c-6.5-0.9-12.9-2-19.4-3l-19.4-3.1l0.8-0.5
			c-3.4,10.2-6.5,20.6-9.4,31.1c-2.9,10.4-5.6,20.9-7.9,31.5c-2.3,10.6-4.4,21.2-5.7,31.9c-1.3,10.7-2.3,21.5-2,32.2l-0.8-1.1
			c13.7,3.8,27.5,7,41.4,10.1c13.9,3.1,27.8,5.9,41.8,8.6c27.9,5.3,56,9.8,84.2,13.6c56.4,7.5,113.2,11.9,170,12.4
			c56.8,0.6,113.7-2.5,169.9-10.8c56.2-8.2,111.7-21.8,164.7-42.3l-0.8,1.4c-1.1-9.9-2.4-19.8-3.8-29.6c-1.4-9.9-3-19.7-4.7-29.5
			c-1.7-9.8-3.7-19.6-5.8-29.3c-1.1-4.9-2.2-9.7-3.4-14.6c-0.6-2.4-1.2-4.9-1.8-7.2L382.5,274.3z M382.7,273.9
			c1.4,4.8,3,9.8,4.2,14.5c1.3,4.8,2.5,9.7,3.7,14.5c2.3,9.7,4.5,19.5,6.4,29.3c1.9,9.8,3.7,19.6,5.3,29.5c1.6,9.9,3,19.8,4.2,29.7
			c0.1,0.6-0.3,1.2-0.8,1.4l0,0C352.8,414.2,297,428.3,240.6,437c-56.4,8.7-113.6,12-170.7,11.3c-57.1-0.8-114-5.5-170.5-13.3
			c-28.2-4-56.4-8.7-84.3-14.4c-14-2.8-27.9-5.9-41.8-9.1c-13.9-3.3-27.7-6.7-41.4-10.7l0,0c-0.5-0.1-0.8-0.6-0.8-1.1
			c-0.2-10.9,0.9-21.8,2.4-32.6l1.2-8.1l1.5-8c0.5-2.7,1-5.3,1.6-8c0.6-2.7,1.1-5.3,1.7-8c2.3-10.6,5.1-21.1,8-31.5
			c3-10.4,6.1-20.8,9.6-31.1c0.1-0.3,0.4-0.5,0.8-0.5l0,0l19.4,3.1c6.5,1,12.9,2.1,19.4,3c12.9,1.8,25.9,3.7,38.9,5.2
			c6.5,0.8,13,1.6,19.5,2.3l19.5,2l9.8,1l9.8,0.8l19.5,1.6l19.6,1.4l9.8,0.7l9.8,0.5l19.6,1l19.6,0.8c26.1,1,52.2,1.6,78.4,1.7
			l9.8,0.1c3.3,0,6.5,0,9.8,0c6.5-0.1,13.1-0.1,19.6-0.2l19.6-0.4c6.5-0.1,13.1-0.4,19.6-0.6c26.1-0.8,52.2-2.3,78.3-4
			c26.1-1.8,52.1-4.2,78.1-7.2c13-1.5,26-3,38.9-4.8c6.5-0.9,12.9-1.9,19.4-2.9l9.7-1.5l4.8-0.8l2.4-0.4
			C380.9,274.1,381.7,273.9,382.7,273.9z"/>
	</g>
	<g>
		
			<linearGradient id="SVGID_12_" gradientUnits="userSpaceOnUse" x1="44.9611" y1="-67.4624" x2="481.3387" y2="-154.7379" gradientTransform="matrix(-0.9697 -0.2445 -0.2445 0.9697 1284.3209 848.0347)">
			<stop  offset="0" style="stop-color:#2AD8FF"/>
			<stop  offset="0.9948" style="stop-color:#FC1E79"/>
		</linearGradient>
		<path class="st16" d="M182.5,272.2c0,0,107,55.6,86.8,112.1c0,0,194.2-123-13.7-162.2"/>
		<path class="st1" d="M182.7,271.9c11.7,5.1,22.9,11.4,33.6,18.5c2.7,1.8,5.3,3.6,7.9,5.5c2.6,1.9,5.1,3.8,7.7,5.8
			c5.1,4,9.9,8.3,14.5,12.8c9.2,9,17.5,19.5,22.6,31.7c2.5,6.1,4.2,12.6,4.6,19.2c0.3,6.6-0.7,13.2-3,19.3l-1.8-1.5
			c18-11.4,34.4-25.4,48.7-41.1c3.5-3.9,7-7.9,10.2-12.1c3.3-4.1,6.3-8.4,9.1-12.8c2.8-4.4,5.2-8.9,7.1-13.7
			c1.9-4.7,3.3-9.6,3.7-14.4c0.5-4.9,0.1-9.7-1.3-14.3c-1.4-4.6-3.8-8.8-6.9-12.6c-6.2-7.7-14.8-13.7-24-18.5
			c-1.1-0.6-2.3-1.2-3.5-1.8c-1.2-0.6-2.3-1.2-3.5-1.7l-3.6-1.6L303,238l-1.8-0.7c-2.4-1-4.9-2-7.4-2.9l-3.7-1.4
			c-1.2-0.5-2.5-0.8-3.8-1.3c-10-3.4-20.3-6.3-30.7-9.1c-0.2-0.1-0.3-0.3-0.3-0.5c0-0.2,0.2-0.3,0.4-0.3c10.7,1.2,21.3,3,31.8,5.6
			c10.5,2.6,20.9,5.8,30.9,10.5c5,2.3,9.8,5.1,14.5,8.2l3.4,2.5c1.1,0.9,2.2,1.8,3.3,2.7c2.1,1.9,4.2,3.9,6,6.2
			c3.7,4.4,6.7,9.6,8.5,15.3c1.7,5.7,2.1,11.7,1.3,17.5c-0.7,5.8-2.4,11.3-4.7,16.4c-2.3,5.1-5.1,10-8.2,14.5
			c-6.2,9.1-13.6,17.2-21.5,24.6c-7.9,7.4-16.3,14.2-24.8,20.7c-8.5,6.5-17.2,12.8-26.1,18.9c-0.6,0.4-1.3,0.2-1.7-0.3
			c-0.2-0.3-0.3-0.7-0.2-1.1l0-0.1c1-2.9,1.6-6,1.9-9c0.3-3.1,0.2-6.1-0.2-9.1c-0.8-6.1-3-11.8-5.8-17.3c-1.4-2.7-3-5.3-4.7-7.9
			c-1.7-2.5-3.5-5-5.4-7.5c-3.8-4.8-8-9.5-12.3-13.9c-4.3-4.5-9-8.7-13.7-12.8c-2.4-2.1-4.8-4.1-7.2-6c-2.4-2-4.9-4-7.4-5.9
			c-10-7.7-20.3-15-31-21.9l0,0c-0.2-0.1-0.2-0.3-0.1-0.5C182.4,271.9,182.6,271.8,182.7,271.9z"/>
	</g>
	<path class="st1" d="M236.3,234c0,0,52.3,12.7,66.4,42.4c0,0-26.9-12.7-32.5-12.7c0,0,29.7,24.9,31.8,48.5c0,0,4.9-10.4-0.7-24.5
		c0,0,36.8,31.1-17,76.3c0,0-9.2-30.4-43.1-71.4c0,0,31.1,11.3,45.9,35.3c0,0-13.4-36.8-56.5-60.1c0,0,16.3,13.4,26.3,27.9
		c0,0-45.4-21.6-74.3-29.3L236.3,234z"/>
	<path class="st0" d="M-120.1,445C-83,458.5,6.9,489.8,51,493.1c12.9,1,30.9-0.8,50.9-4.1c7.5-1.2,15.4-2.7,23.3-4.3
		c5.9-1.2,12-2.5,18-3.8c16.2-3.6,32.5-7.7,47.5-11.6c19.2-5.1,36.3-10,48.6-13.6c11.5-3.4,18.7-13.6,17.5-24.6l-15.8-136.8
		l-0.6-5.1c0,0-15.4-2.4-40.6-5.3c-5.1-0.6-10.5-1.2-16.4-1.8c-6.7-0.7-13.9-1.5-21.4-2.2c-77.7-7.4-196.7-13.6-278.2,5.9
		c0,0-16.1,90.5-19.9,135.8C-136.9,431.8-130.5,441.3-120.1,445z"/>
	<g>
		<path class="st1" d="M-39.9,468.7c3.9-27.8,7.8-55.7,11.6-83.6c1.9-13.9,3.8-27.9,5.6-41.8l2.6-20.9c0.8-7,1.7-14,2.1-21
			c-0.1,7-0.7,14.1-1.2,21.1l-1.7,21c-1.2,14-2.4,28-3.7,42c-2.5,28-5.2,56-7.9,84c-0.2,2.1-2,3.6-4.1,3.4c-2.1-0.2-3.6-2-3.4-4.1
			C-39.9,468.9-39.9,468.8-39.9,468.7z"/>
	</g>
	<path class="st1" d="M143.2,480.9c16.2-3.6,32.5-7.7,47.5-11.6l50.3-174.9l-0.6-5.1c0,0-15.4-2.4-40.6-5.3L143.2,480.9z"/>
	<path class="st1" d="M101.9,489c7.5-1.2,15.4-2.7,23.3-4.3l58.2-202.5c-6.7-0.7-13.9-1.5-21.4-2.2L101.9,489z"/>
	<g>
		<path class="st7" d="M-224.6,750.7c0,0,42.9-32.5,74-28.3s129.4,10.7,129.4,10.7s9.6,109.4-9.9,116.5s-183.9,41.2-217.2-9.8"/>
		<path class="st1" d="M-224.9,750.4c6.8-5.7,14.1-10.7,21.6-15.3c7.6-4.5,15.6-8.6,24.1-11.6c8.4-3,17.5-5.1,27-4.4l1.8,0.1
			l1.6,0.2l3.2,0.3c2.2,0.3,4.3,0.5,6.5,0.7c4.3,0.5,8.7,0.8,13.1,1.2c17.5,1.5,34.9,3.1,52.4,5.1c17.5,1.9,34.9,3.8,52.4,5.1l0,0
			c0.6,0,1.1,0.5,1.1,1.1c1,14.4,1.9,28.8,2.5,43.3c0.6,14.4,1,28.9,0,43.5c-0.3,3.6-0.6,7.3-1.2,11c-0.6,3.7-1.3,7.3-2.6,11
			c-0.7,1.8-1.4,3.7-2.5,5.5c-0.3,0.5-0.6,0.9-0.9,1.4c-0.3,0.5-0.7,0.9-1.1,1.3c-0.4,0.4-0.9,0.8-1.3,1.2c-0.5,0.4-1,0.8-1.7,1.1
			l-0.9,0.4c-0.3,0.1-0.5,0.2-0.7,0.3c-0.5,0.2-0.9,0.3-1.4,0.5c-0.9,0.3-1.8,0.6-2.7,0.8c-1.8,0.5-3.5,1-5.3,1.5
			c-14.1,3.7-28.3,6.5-42.7,8.9c-7.2,1.2-14.3,2.2-21.5,3.1c-3.6,0.4-7.2,0.9-10.8,1.2c-3.6,0.3-7.2,0.6-10.9,0.9
			c-7.2,0.5-14.5,0.9-21.8,1c-7.3,0.1-14.6,0-21.8-0.3c-7.3-0.4-14.6-1-21.8-2c-3.6-0.5-7.2-1.1-10.8-1.9c-3.6-0.8-7.2-1.6-10.7-2.7
			c-3.5-1-7-2.3-10.4-3.7c-3.4-1.4-6.7-3.1-9.8-5c-6.3-3.9-12-8.9-15.6-15.2c-0.1-0.2,0-0.4,0.1-0.5c0.2-0.1,0.4,0,0.5,0.1
			c4.3,5.8,10.1,10.1,16.4,13.2c3.1,1.6,6.4,2.9,9.8,4c3.3,1.1,6.8,2.1,10.2,2.8c6.9,1.6,14,2.5,21,3.2c7.1,0.6,14.2,1,21.3,1
			c7.1,0.1,14.3-0.1,21.4-0.4c7.1-0.4,14.3-0.8,21.4-1.5c3.6-0.3,7.1-0.7,10.7-1.1c3.6-0.4,7.1-0.8,10.7-1.2
			c7.1-0.8,14.2-1.9,21.3-2.9c7.1-1,14.2-2.2,21.2-3.5c7-1.3,14.1-2.7,21-4.3c1.7-0.4,3.5-0.8,5.1-1.3c0.8-0.2,1.7-0.5,2.5-0.7
			c0.4-0.1,0.8-0.2,1.2-0.4c0.2-0.1,0.4-0.1,0.6-0.2c0.1,0,0.2-0.1,0.3-0.1c0.8-0.3,1.7-1.3,2.5-2.5c0.8-1.2,1.5-2.7,2.1-4.2
			c1.2-3.1,2.1-6.5,2.8-9.9c0.7-3.4,1.3-6.9,1.7-10.5c0.9-7.1,1.5-14.2,1.8-21.4c0.4-7.2,0.5-14.4,0.5-21.6c0-7.2-0.2-14.4-0.5-21.6
			c-0.2-3.6-0.3-7.2-0.6-10.8c-0.3-3.6-0.5-7.2-0.9-10.8l1.1,1.1c-17.5-1-35.1-1.6-52.7-2.3c-17.6-0.7-35.1-1.9-52.6-3.6
			c-4.4-0.5-8.8-0.9-13.1-1.4c-2.2-0.3-4.4-0.5-6.6-0.8l-3.3-0.5l-1.6-0.2l-1.5-0.2c-4-0.4-8.2-0.3-12.4,0.3
			c-4.2,0.6-8.3,1.5-12.4,2.8c-8.2,2.5-16.2,5.8-24,9.7c-7.8,3.9-15.4,8.2-22.8,12.9l0,0c-0.2,0.1-0.4,0.1-0.5-0.1
			C-225,750.7-225,750.5-224.9,750.4z"/>
	</g>
	<path class="st0" d="M-42.9,733.7c0,0-84.4-12-90.5-8.5c0,0-33.8,92.7,1.1,141.4l83-13.5L-42.9,733.7z"/>
	<g>
		<g>
			<path class="st7" d="M35.5,716.9c0,0,52-12.8,64.2-21.2c12.3-8.5,37.4,43-41.9,41.6L35.5,716.9z"/>
			<path class="st1" d="M35.5,716.9c12.6-4.5,25.2-8.7,37.7-13.3c6.2-2.3,12.4-4.6,18.2-7.3c0.8-0.3,1.4-0.7,2.1-1.1
				c0.7-0.4,1.4-0.7,2.1-1.1l1.8-1.2c0.2-0.1,0.9-0.6,1.5-0.9c0.6-0.3,1.3-0.6,2-0.7c1.4-0.3,2.8-0.3,4.1,0c1.3,0.3,2.4,0.8,3.3,1.4
				c1.9,1.2,3.4,2.7,4.6,4.4c2.4,3.3,3.7,7.1,4.1,11.1c0.4,3.9-0.3,8.1-2,11.6c-1.7,3.6-4.2,6.7-7.1,9.1c-2.9,2.4-6.1,4.2-9.4,5.6
				c-6.6,2.8-13.5,4.1-20.3,4.7c-6.8,0.6-13.6,0.6-20.4,0.1l-0.2,0c-0.5,0-0.9-0.2-1.2-0.6c-1.9-1.9-3.8-3.8-5.6-5.7l-5.3-5.7
				l-5.1-5.5C38.7,720.2,37.1,718.5,35.5,716.9z M35.5,716.9c2.1,1.8,4.2,3.5,6.3,5.1c2.1,1.6,4.1,3.2,6.1,4.7l5.9,4.5
				c1.9,1.5,3.7,3,5.6,4.4l-1.4-0.6c6.6-0.3,13.1-0.8,19.5-1.8c6.4-1,12.6-2.6,18.2-5.2c5.6-2.6,10.4-6.3,12.6-11.3
				c1.1-2.4,1.5-5.1,1.3-7.8c-0.2-2.7-1.2-5.3-2.7-7.5c-0.7-1.1-1.6-2-2.5-2.5c-0.9-0.6-1.6-0.8-2.1-0.7c-0.1,0-0.2,0.1-0.4,0.1
				c-0.2,0.1-0.2,0.1-0.7,0.4l-2.4,1.4c-0.8,0.4-1.6,0.8-2.4,1.1c-0.8,0.4-1.6,0.8-2.4,1c-3.2,1.3-6.4,2.4-9.6,3.4
				c-1.6,0.5-3.2,1-4.8,1.5l-4.8,1.4C61.8,712.1,48.7,714.9,35.5,716.9z"/>
		</g>
		<g>
			<path class="st7" d="M38,728c0,0,52-12.8,64.2-21.2c12.3-8.5,37.4,43-41.9,41.6L38,728z"/>
			<path class="st1" d="M38,728c12.6-4.5,25.2-8.7,37.7-13.3c6.2-2.3,12.4-4.6,18.2-7.3c0.8-0.3,1.4-0.7,2.1-1.1
				c0.7-0.4,1.4-0.7,2.1-1.1l1.8-1.2c0.2-0.1,0.9-0.6,1.5-0.9c0.6-0.3,1.3-0.6,2-0.7c1.4-0.3,2.8-0.3,4.1,0c1.3,0.3,2.4,0.8,3.3,1.4
				c1.9,1.2,3.4,2.7,4.6,4.4c2.4,3.3,3.7,7.1,4.1,11.1c0.4,3.9-0.3,8.1-2,11.7c-1.7,3.6-4.2,6.7-7.1,9.1c-2.9,2.4-6.1,4.2-9.4,5.6
				c-6.6,2.8-13.5,4.1-20.3,4.7c-6.8,0.6-13.6,0.6-20.4,0.1l-0.2,0c-0.5,0-0.9-0.2-1.2-0.6c-1.9-1.9-3.8-3.8-5.6-5.7l-5.3-5.7
				l-5.1-5.5C41.3,731.3,39.6,729.6,38,728z M38,728c2.1,1.8,4.2,3.5,6.3,5.1c2.1,1.6,4.1,3.2,6.1,4.7l5.9,4.5
				c1.9,1.5,3.7,3,5.6,4.4l-1.4-0.6c6.6-0.3,13.1-0.8,19.5-1.8c6.4-1,12.6-2.6,18.2-5.2c5.6-2.6,10.4-6.3,12.6-11.3
				c1.1-2.4,1.5-5.1,1.3-7.8c-0.2-2.7-1.2-5.3-2.7-7.5c-0.7-1.1-1.6-2-2.5-2.5c-0.9-0.6-1.6-0.8-2.1-0.7c-0.1,0-0.2,0.1-0.4,0.1
				c-0.2,0.1-0.2,0.1-0.7,0.4l-2.4,1.4c-0.8,0.4-1.6,0.8-2.4,1.1c-0.8,0.4-1.6,0.8-2.4,1c-3.2,1.3-6.4,2.4-9.6,3.4
				c-1.6,0.5-3.2,1-4.8,1.5l-4.8,1.4C64.3,723.2,51.3,726,38,728z"/>
		</g>
		<polygon class="st1" points="69.4,719.4 93.3,744.7 68.7,749.9 48.1,725.4 		"/>
		<g>
			<path class="st7" d="M-56.4,847.5c23.3,24.7,84.1-30.4,84.1-30.4s0,17,18.4,15.6c17.4-1.3,33.2-45.9,37.3-53.7
				c4.1-7.8-25.3-55.8-36.9-63.1c-11.6-7.3-89.5,17.9-89.5,17.9S-84.5,817.7-56.4,847.5z"/>
			<path class="st1" d="M-56.1,847.2c2.7,2.9,6.3,4.8,10.2,5.6c3.9,0.8,7.9,0.5,11.7-0.3c7.8-1.6,15-5.2,21.8-9.2
				c3.4-2,6.7-4.2,10-6.5c3.2-2.3,6.4-4.7,9.5-7.1c3.1-2.4,6.2-4.9,9.2-7.5c3-2.6,6-5.2,8.9-7.8c1.5-1.4,3.8-1.3,5.2,0.2
				c0.6,0.6,0.9,1.4,1,2.2l0,0.4l0.1,0.7c0,0.3,0.1,0.5,0.1,0.8c0.1,0.5,0.2,1.1,0.4,1.6c0.3,1.1,0.7,2.1,1.2,3
				c1,1.8,2.4,3.2,4.1,4.1c1.7,0.9,3.8,1.4,6.1,1.4c0.6,0,1.1,0,1.7,0c0.3,0,0.6,0,0.8-0.1c0.2,0,0.4,0,0.6-0.1
				c0.9-0.2,1.8-0.5,2.7-1c1.8-1,3.7-2.5,5.4-4.3c1.7-1.8,3.3-3.8,4.8-5.9c3-4.2,5.7-8.8,8.2-13.5c2.5-4.7,4.8-9.6,7.1-14.5l3.4-7.4
				c0.6-1.3,1.1-2.5,1.8-3.8l0.3-0.5l0.1-0.3c0,0,0.1-0.1,0.1-0.1l0,0c0,0,0,0,0,0.1c0,0,0,0,0,0c0,0,0,0,0-0.1c0-0.2,0.1-0.7,0-1.1
				c-0.2-2.1-1-4.6-1.9-7c-0.9-2.4-2-4.9-3.1-7.3c-2.3-4.8-4.7-9.6-7.4-14.3c-2.6-4.7-5.4-9.3-8.4-13.8c-3-4.5-6.1-8.9-9.6-12.8
				c-0.9-1-1.8-1.9-2.8-2.7c-0.5-0.4-1-0.8-1.4-1.1c-0.4-0.3-0.9-0.5-1.5-0.6c-2.3-0.7-5-0.7-7.7-0.6c-5.3,0.2-10.7,1.1-16.1,2
				C-0.9,722-21.5,729.6-42,736.7l1.9-1.6c-4,8.9-7.7,18.2-11.2,27.4c-3.5,9.3-6.7,18.6-9.3,28.1c-1.3,4.8-2.4,9.6-3.2,14.4
				c-0.4,2.4-0.7,4.9-1,7.3c-0.2,2.5-0.3,4.9-0.3,7.4c0,4.9,0.5,9.9,1.9,14.6c0.7,2.4,1.6,4.7,2.8,6.8
				C-59.2,843.4-57.8,845.4-56.1,847.2z M-56.6,847.7c-3.5-3.7-5.9-8.3-7.5-13c-1.6-4.8-2.4-9.8-2.8-14.9
				c-0.7-10.1,0.2-20.3,1.8-30.3c1.7-10,4.3-19.8,7.6-29.4c3.3-9.6,7.2-18.8,11.8-27.9l0.1-0.1c0.4-0.8,1.1-1.3,1.8-1.5
				c10.5-3.1,21.2-5.6,31.9-8c10.7-2.4,21.3-4.8,32.1-6.9c5.4-1.1,10.8-2,16.3-2.4c1.4-0.1,2.8-0.2,4.2-0.1c1.4,0,2.9,0.1,4.4,0.4
				c0.8,0.2,1.5,0.4,2.3,0.9c0.7,0.4,1.3,0.8,1.9,1.3c1.2,0.9,2.2,1.9,3.2,2.8c4,3.9,7.5,8.3,10.8,12.6c3.3,4.4,6.5,8.9,9.5,13.6
				c3,4.7,5.8,9.4,8.4,14.4c1.3,2.5,2.5,5,3.6,7.6c0.5,1.3,1.1,2.7,1.5,4.1c0.4,1.4,0.9,2.9,1.1,4.6c0.1,0.9,0.2,1.8,0,2.9
				c0,0.3-0.1,0.6-0.2,0.9c0,0.2-0.1,0.3-0.1,0.5c-0.1,0.2-0.1,0.4-0.2,0.5l-0.5,1c-0.5,1.1-1.1,2.4-1.6,3.6l-3.2,7.6
				c-2.1,5.1-4.4,10.1-6.9,15.1c-2.5,5-5.2,9.9-8.6,14.6c-1.7,2.3-3.5,4.6-5.5,6.8c-2.1,2.2-4.4,4.2-7.4,5.8c-1.5,0.8-3.2,1.4-5,1.8
				c-0.4,0.1-0.9,0.1-1.4,0.2c-0.5,0.1-0.8,0-1.2,0.1c-0.8,0-1.6,0-2.4,0c-3.2-0.1-6.6-0.8-9.6-2.5c-3.1-1.7-5.6-4.5-7.1-7.5
				c-0.8-1.5-1.3-3.1-1.7-4.6c-0.2-0.8-0.4-1.6-0.5-2.4c-0.1-0.4-0.1-0.8-0.1-1.2l0-0.6c0-0.2,0-0.4,0-0.7l6.2,2.8
				c-6.3,5.4-12.8,10.1-19.6,14.7c-6.8,4.4-13.9,8.5-21.3,12c-3.7,1.7-7.5,3.3-11.3,4.6c-3.9,1.3-7.8,2.3-11.9,3
				c-4,0.6-8.2,0.7-12.2-0.3C-50.1,852.9-53.9,850.8-56.6,847.7z"/>
		</g>
		<g>
			<path class="st1" d="M8.5,819.2c2.7-2.4,5.9-4,9.3-5.3c3.4-1.2,6.9-1.9,10.5-2.1c1.8-0.1,3.6,0,5.4,0.1c0.9,0.1,1.8,0.2,2.7,0.4
				c0.4,0.1,0.9,0.1,1.3,0.2l1.3,0.3c3.5,0.8,6.8,2.4,9.7,4.5c-3.6-0.3-6.9-0.8-10.2-0.9c-1.6-0.2-3.3-0.1-5-0.1
				c-1.6,0.1-3.3,0-4.9,0.2c-3.3,0.2-6.6,0.5-9.9,1C15.3,818,12,818.6,8.5,819.2z"/>
		</g>
		<g>
			<path class="st1" d="M28.5,741c-2.8,0.3-5.4,0.4-7.8,0.6c-2.5,0.1-4.9,0.3-7.2,0.5c-2.4,0.2-4.7,0.6-7,1
				c-0.6,0.1-1.2,0.2-1.8,0.3c-0.6,0.2-1.2,0.3-1.8,0.4c-1.3,0.2-2.5,0.7-3.9,0.9c0.3-0.6,0.7-1.2,1.2-1.8c0.2-0.3,0.4-0.6,0.7-0.8
				c0.2-0.3,0.5-0.5,0.8-0.7c0.5-0.5,1.1-0.9,1.6-1.4c0.6-0.4,1.2-0.8,1.8-1.1c2.5-1.4,5.3-2.2,8.1-2.5c2.8-0.3,5.6,0,8.3,0.7
				C23.8,737.9,26.3,739,28.5,741z"/>
		</g>
		<g>
			<path class="st1" d="M72.1,800l-31-50.1l36.4,46.3c1.1,1.4,0.9,3.5-0.6,4.6c-1.4,1.1-3.5,0.9-4.6-0.6
				C72.3,800.2,72.2,800.1,72.1,800z"/>
		</g>
		<path class="st1" d="M61,812.1c0,0-21.2-39.6-29.7-39.6s-74.9,62.9-90.5,58.3c0,0,4.9,44.2,56.5,1.1c0,0,12.7-31.1,42.4-22.6
			C39.8,809.3,45.4,837.6,61,812.1z"/>
	</g>
	<g>
		<path class="st1" d="M-61.7,790.5l-73.8,1.9l73.2-9.4c2.1-0.3,4,1.2,4.2,3.3c0.3,2.1-1.2,4-3.3,4.2
			C-61.5,790.4-61.6,790.5-61.7,790.5z"/>
	</g>
	<path class="st1" d="M-148.1,803l84.8-7.4l3.4,34.2l-45.9,5.6c-3.6,0.4-4.7-4.7-1.3-5.8c13.2-4.2,24.2-8.5,21.7-10.6
		c-5.7-4.7-62.8,0.5-62.8,0.5V803z"/>
	<g>
		<path class="st7" d="M342.2,747.8c0,0-46.7-32.5-80.6-28.3s-140.8,10.7-140.8,10.7s-10.4,109.4,10.8,116.5S331.7,888,368.1,837"/>
		<path class="st1" d="M342,748.1c-8.2-4.8-16.6-9.2-25.2-13.1c-8.6-3.9-17.4-7.2-26.4-9.7c-4.5-1.2-9-2.1-13.6-2.7
			c-4.5-0.6-9.1-0.7-13.5-0.2c-1.1,0.1-2.3,0.3-3.5,0.4l-3.6,0.5c-2.4,0.3-4.7,0.5-7.1,0.8c-4.7,0.5-9.5,1-14.2,1.4
			c-19,1.7-38,2.8-57,3.5c-19,0.7-38,1.3-57,2.4l1.1-1.1c-1.5,15.1-2.1,30.3-2.1,45.5c0,7.6,0.2,15.2,0.7,22.7
			c0.5,7.5,1.2,15.1,2.4,22.4c0.6,3.7,1.4,7.3,2.4,10.8c1,3.5,2.4,6.9,4.2,9.3c0.5,0.6,0.9,1.1,1.4,1.6c0.5,0.4,1,0.7,1.5,0.9
			l0.2,0.1l0.3,0.1l0.6,0.2l1.3,0.4l2.7,0.7c3.6,0.9,7.3,1.7,11,2.4c7.4,1.5,14.9,2.8,22.3,4c7.5,1.2,15,2.3,22.5,3.3
			c30,3.9,60.2,6.7,90.4,6.4c7.5-0.1,15.1-0.4,22.6-1.1c7.5-0.7,14.9-1.6,22.3-3.2c1.8-0.4,3.7-0.8,5.5-1.2c1.8-0.5,3.6-1,5.4-1.5
			c3.6-1.1,7.1-2.4,10.5-3.9c6.8-3.1,13.1-7.3,17.9-13.2c0.1-0.2,0.4-0.2,0.5-0.1c0.2,0.1,0.2,0.3,0.1,0.5c-2.1,3.2-4.7,6.2-7.6,8.7
			c-2.9,2.5-6.2,4.7-9.6,6.6c-3.4,1.9-6.9,3.5-10.5,4.9c-1.8,0.7-3.6,1.3-5.5,2c-1.8,0.6-3.7,1.2-5.6,1.7
			c-7.5,2.1-15.1,3.5-22.7,4.5c-7.6,1-15.3,1.7-23,2.1c-15.4,0.7-30.7,0.5-46-0.5c-15.3-0.9-30.5-2.6-45.7-4.7
			c-15.1-2.2-30.2-4.9-45.2-8.2c-3.7-0.8-7.5-1.7-11.2-2.7c-0.9-0.3-1.9-0.5-2.8-0.8l-1.4-0.4l-0.7-0.2l-0.4-0.1l-0.5-0.2
			c-1.3-0.5-2.4-1.3-3.4-2.1c-0.9-0.8-1.7-1.8-2.3-2.7c-1.3-1.9-2.2-3.8-3-5.7c-0.7-1.9-1.3-3.9-1.8-5.8c-1-3.9-1.6-7.7-2-11.6
			c-1.7-15.4-1.3-30.7-0.8-46c0.6-15.3,1.6-30.4,2.8-45.7c0-0.6,0.5-1,1.1-1.1l0,0c19-1.3,37.9-3.1,56.8-5.1
			c18.9-1.9,37.8-3.6,56.8-5.1c4.7-0.4,9.5-0.8,14.2-1.2c2.4-0.2,4.7-0.4,7.1-0.7l3.5-0.4c1.2-0.1,2.3-0.2,3.6-0.3
			c10.1-0.8,19.9,1.2,29.2,4.1c9.3,2.9,18,7,26.5,11.5c8.4,4.6,16.5,9.7,24.1,15.5c0.2,0.1,0.2,0.4,0.1,0.5
			C342.4,748.2,342.2,748.2,342,748.1L342,748.1z"/>
	</g>
	<path class="st1" d="M256.9,722.1c0,0,76.8,74,30.9,143.5l-40.2-1.2C247.6,864.5,270.4,742.4,256.9,722.1z"/>
	<path class="st0" d="M142.7,730.6c0,0,81.9-7.9,100.4-9.1c18.6-1.2,69.9,102.5,6.8,142.5c0,0-100.5-10-102.3-13.2L142.7,730.6z"/>
	<path class="st1" d="M166.3,803h114.2c0,0,1.7,33.9-17.4,50.2l-91.8-7.1l7.8-16.2c0,0,86,6.4,72-1.8s-80.4-9.5-80.4-9.5L166.3,803z
		"/>
	<g>
		<path class="st1" d="M20.3,165.4c-1.1-4.9-1.6-9.8-2-14.7c-0.4-4.9-0.6-9.9-0.4-14.9c0.2-9.9,1.2-19.9,3.5-29.7
			c2.2-9.8,6-19.3,11.6-27.8c0.7-1.1,1.4-2.1,2.2-3.1c0.7-1,1.5-2.1,2.3-3c0.8-1,1.6-2,2.4-2.9l2.6-2.8C45.9,63,49.8,59.8,54,57
			l0.4,2.1c-7.4-1.2-15.1-1.4-22.7-0.9c-7.6,0.5-15.1,1.6-22.5,3.3c-7.4,1.6-14.6,3.7-21.6,6.2c-7,2.6-13.8,5.7-20.2,9.4
			C-39.1,80.7-45.2,85-51,89.6l-4.3,3.5l-4.1,3.8c-0.7,0.6-1.4,1.2-2,1.9l-1.9,2c-1.3,1.4-2.6,2.7-3.8,4.1
			c-9.9,11.2-18.2,24-25.4,37.6c-0.1,0.2-0.3,0.3-0.5,0.2c-0.2-0.1-0.2-0.3-0.2-0.4c4.4-14.8,11.5-29,21-41.5c1.2-1.6,2.5-3,3.8-4.6
			l1.9-2.3c0.6-0.7,1.4-1.4,2-2.2c1.4-1.4,2.7-2.9,4.1-4.2l4.4-4c6-5.1,12.6-9.7,19.6-13.4c7-3.7,14.3-6.7,21.8-9.1
			c7.5-2.4,15.2-4.1,23-5c7.8-0.9,15.6-1.1,23.3-1c3.9,0.1,7.7,0.2,11.6,0.6c3.9,0.2,7.7,0.7,11.6,1.2c0.6,0.1,1,0.7,1,1.3
			c0,0.3-0.2,0.6-0.5,0.8l-0.1,0c-3.9,2.8-7.5,6.1-10.5,9.8c-3,3.7-5.4,7.9-7.6,12.1c-2.1,4.3-3.8,8.7-5.3,13.2
			c-0.8,2.2-1.4,4.5-2.1,6.8c-0.6,2.3-1.3,4.6-1.8,6.9c-2.3,9.3-3.8,18.8-4.9,28.4c-1,9.6-1.7,19.4-1.9,29.2l0,0
			c0,0.2-0.2,0.4-0.4,0.4C20.5,165.7,20.3,165.6,20.3,165.4z"/>
	</g>
	<g>
		
			<linearGradient id="SVGID_13_" gradientUnits="userSpaceOnUse" x1="1146.9006" y1="291.6016" x2="1583.2782" y2="204.326" gradientTransform="matrix(-1 0 0 1 1602.0353 0)">
			<stop  offset="0" style="stop-color:#2AD8FF"/>
			<stop  offset="0.9948" style="stop-color:#FC1E79"/>
		</linearGradient>
		<path class="st17" d="M53.3,258.7c0,0-7.1-65.8,28.2-89.3c0,0-87.8-16-122.6,70.2"/>
		<path class="st1" d="M52.9,258.7c-1-4-1.5-8.1-1.9-12.2c-0.4-4.1-0.6-8.2-0.5-12.4c0-8.3,0.9-16.6,2.8-24.8
			c1.8-8.2,5.1-16.2,9.8-23.2c2.4-3.5,5-6.8,8-9.8c3-2.9,6.2-5.6,9.7-7.9l0.4,2.1c-6.1-1-12.6-1.2-18.8-0.7
			c-6.3,0.5-12.5,1.5-18.6,2.9c-6.1,1.4-12.1,3.1-17.9,5.3c-5.8,2.2-11.4,4.8-16.7,7.8C-1.3,192-11,199.7-19.3,208.8
			c-8.3,9.2-15.3,19.7-21.5,30.9c-0.1,0.2-0.3,0.3-0.5,0.2c-0.2-0.1-0.2-0.3-0.2-0.4c3.4-12.4,9.2-24.3,17.1-34.8
			c1-1.3,2.1-2.5,3.1-3.8l1.6-1.9c0.5-0.6,1.1-1.2,1.7-1.8c1.1-1.2,2.3-2.4,3.4-3.6l3.7-3.3c5-4.3,10.5-8.1,16.4-11.2
			c5.9-3.1,12-5.6,18.3-7.5c6.3-2,12.7-3.3,19.2-4c6.5-0.7,13-0.8,19.5-0.6c3.2,0.1,6.4,0.2,9.7,0.5c3.2,0.2,6.4,0.6,9.6,1
			c0.6,0.1,1,0.7,1,1.3c0,0.3-0.2,0.6-0.5,0.8l-0.1,0c-3.3,2.3-6.2,5-8.6,8.1c-2.5,3.1-4.4,6.6-6.1,10.1c-1.7,3.5-3,7.3-4.3,11
			c-1.2,3.7-2.3,7.5-3.3,11.3c-1.9,7.7-3.2,15.6-4.2,23.5c-0.9,8-1.6,16.1-2,24.2l0,0c0,0.2-0.2,0.4-0.4,0.4
			C53.1,259,52.9,258.9,52.9,258.7z"/>
	</g>
	<g>
		<g>
			<path class="st7" d="M148,704.5c0,0,10.5-48.4,6.7-64.2c-3.3-13.7-56.4-27.2-42.5,60.5L148,704.5z"/>
			<path class="st1" d="M147.7,704.2c-0.1,0-0.2,0.1-0.1,0.1l0-0.2l0-0.3l0-0.7l0.1-1.3l0.1-2.7l0.4-5.3c0.3-3.6,0.6-7.1,1-10.6
				l2.3-21c0.4-3.5,0.9-6.9,1.3-10.4c0.2-1.7,0.4-3.5,0.5-5.2c0.1-1.7,0.1-3.4-0.1-5.1c-0.1-3-2.7-5.5-5.5-7.2
				c-2.9-1.7-6.3-2.6-9.7-2.6c-3.4-0.1-6.7,0.8-9.6,2.4c-2.9,1.6-5.2,3.9-7,6.5c-3.6,5.3-5.6,11.8-6.5,18.5
				c-1,6.7-0.9,13.6-0.8,20.5c0.2,6.9,0.7,13.9,1.4,20.9l-2.9-2.8l8.4,1.4l8.6,1.6L147.7,704.2z M148.2,704.8c-2.8,0-5.6,0-8.6,0
				c-2.9,0-5.9,0-9-0.1c-3.1,0-6.2-0.1-9.3-0.2l-9.5-0.4c-1.4-0.1-2.6-1.1-2.9-2.4l-0.1-0.3c-1.4-7.1-2.6-14.3-3-21.6
				c-0.4-7.3,0.1-14.7,1.6-22.1c0.8-3.7,1.8-7.3,3.3-10.8c1.5-3.5,3.5-6.9,6.2-9.8c2.7-2.9,6-5.2,9.6-6.5c1.8-0.7,3.7-1.1,5.6-1.4
				c1.9-0.2,3.8-0.2,5.7-0.1c3.7,0.3,7.4,1.4,10.7,3.1c1.7,0.9,3.2,1.9,4.7,3.3c0.7,0.7,1.4,1.5,1.9,2.3c0.3,0.4,0.5,0.9,0.7,1.4
				c0.1,0.3,0.2,0.5,0.3,0.8l0.2,0.7c1,3.7,1.4,7.4,1.7,11c0.2,3.7,0.2,7.3-0.1,10.9c-0.6,7.2-1.9,14.3-3.5,21.3
				c-0.8,3.5-1.7,7-2.8,10.4c-0.5,1.7-1.1,3.4-1.7,5.1l-0.9,2.5l-0.5,1.3l-0.2,0.6l-0.1,0.3l-0.1,0.2
				C148.4,704.5,148.3,704.7,148.2,704.8z"/>
		</g>
		<path class="st1" d="M149.2,701.4c0,0,7.1-40.6,4-54c-2.8-11.6-43.3-23.9-31.2,50.2L149.2,701.4z"/>
		<g>
			<path class="st7" d="M167.3,715.1c0,0,10.5-48.4,6.7-64.2c-3.3-13.7-56.4-27.2-42.5,60.5L167.3,715.1z"/>
			<path class="st1" d="M167.1,714.8c-0.1,0-0.2,0.1-0.1,0.1l0-0.2l0-0.3l0-0.7l0.1-1.3l0.1-2.7l0.4-5.3c0.3-3.6,0.6-7.1,1-10.6
				l2.3-21c0.4-3.5,0.9-6.9,1.3-10.4c0.2-1.7,0.4-3.5,0.5-5.2c0.1-1.7,0.1-3.4-0.1-5.1c-0.1-3-2.7-5.5-5.5-7.2
				c-2.9-1.7-6.3-2.6-9.7-2.6c-3.4-0.1-6.7,0.8-9.6,2.4c-2.9,1.6-5.2,3.9-7,6.5c-3.6,5.3-5.6,11.8-6.5,18.5
				c-1,6.7-0.9,13.6-0.8,20.5c0.2,6.9,0.7,13.9,1.4,20.9l-2.9-2.8l8.4,1.4l8.6,1.6L167.1,714.8z M167.5,715.4c-2.8,0-5.6,0-8.6,0
				c-2.9,0-5.9,0-9-0.1c-3.1,0-6.2-0.1-9.3-0.2l-9.5-0.4c-1.4-0.1-2.6-1.1-2.9-2.4l-0.1-0.3c-1.4-7.1-2.6-14.3-3-21.6
				c-0.4-7.3,0.1-14.7,1.6-22.1c0.8-3.7,1.8-7.3,3.3-10.8c1.5-3.5,3.5-6.9,6.2-9.8c2.7-2.9,6-5.2,9.6-6.5c1.8-0.7,3.7-1.1,5.6-1.4
				c1.9-0.2,3.8-0.2,5.7-0.1c3.7,0.3,7.4,1.4,10.7,3.1c1.7,0.9,3.2,1.9,4.7,3.3c0.7,0.7,1.4,1.5,1.9,2.3c0.3,0.4,0.5,0.9,0.7,1.4
				c0.1,0.3,0.2,0.5,0.3,0.8l0.2,0.7c1,3.7,1.4,7.4,1.7,11c0.2,3.7,0.2,7.3-0.1,10.9c-0.6,7.2-1.9,14.3-3.5,21.3
				c-0.8,3.5-1.7,7-2.8,10.4c-0.5,1.7-1.1,3.4-1.7,5.1l-0.9,2.5l-0.5,1.3l-0.2,0.6l-0.1,0.3l-0.1,0.2
				C167.7,715.1,167.6,715.3,167.5,715.4z"/>
		</g>
		<g>
			<path class="st7" d="M174.1,845.2c-43,23.7-73.6-22.1-73.6-22.1c-8-4.2-11.8-45.2-12.4-63c-0.6-17.7,21.8-21,14.4-44
				c-7.4-23,46.3-13.4,60.8-13.4c14.4,0.1,49.2,37.9,46.4,45.6c-2.8,7.8-14.4,66.2-14.4,66.2S191.1,835.8,174.1,845.2z"/>
			<path class="st1" d="M174.2,845.5c-6.2,3.4-13,6-20.1,7c-7.1,1-14.5,0.4-21.5-1.7c-3.5-1.1-6.9-2.5-10.2-4.2
				c-3.2-1.7-6.4-3.7-9.3-5.9c-2.9-2.2-5.7-4.6-8.3-7.3c-1.3-1.3-2.5-2.7-3.7-4.1c-1.2-1.4-2.3-2.8-3.5-4.5l1.3,1.1
				c-1.6-0.9-2.5-2-3.2-2.9c-0.7-1-1.2-2-1.7-2.9c-0.9-1.9-1.6-3.8-2.1-5.7c-1.1-3.8-1.9-7.5-2.5-11.3c-1.2-7.5-1.9-15-2.3-22.5
				c-0.2-3.8-0.4-7.5-0.5-11.3l-0.1-5.6c0-1.9-0.1-3.7,0.1-5.8c0.2-2,0.7-4,1.4-5.9c0.8-1.9,1.8-3.6,2.9-5.1c2.2-3.2,4.8-5.9,7-8.8
				c2.2-2.9,4-6.1,4.6-9.6c0.7-3.5,0.3-7.1-0.7-10.5l-0.8-2.7c-0.2-1-0.4-2-0.5-3.1c-0.1-2.1,0.5-4.4,1.8-6.2c1.3-1.8,3.1-3,4.9-3.9
				c1.8-0.9,3.7-1.5,5.6-2c3.8-1,7.6-1.4,11.4-1.7c3.8-0.3,7.6-0.3,11.4-0.3c7.6,0,15.1,0.6,22.5,1l2.7,0.1l1.3,0l1.4,0
				c2.6,0.1,4.7,0.8,6.6,1.5c3.9,1.6,7.2,3.8,10.4,6c6.3,4.6,12,9.7,17.3,15.3c2.6,2.8,5.2,5.7,7.6,8.7c2.4,3.1,4.7,6.2,6.6,10
				c0.5,1,0.9,2,1.3,3.2c0.2,0.6,0.3,1.3,0.4,2c0.1,0.8,0.1,1.7-0.1,2.8l-0.1,0.4l-0.1,0.3l-0.1,0.3l-0.2,0.6
				c-0.1,0.4-0.2,0.7-0.4,1.2l-0.7,2.6c-0.9,3.6-1.8,7.2-2.6,10.8l-5,21.8c-0.8,3.6-1.7,7.3-2.6,10.9c-0.9,3.6-1.8,7.3-2.7,10.9
				l-1.4,5.4c-0.5,1.9-1.2,3.8-1.9,5.6c-1.5,3.6-3.3,7-5.4,10.2C186.3,836.3,180.9,841.9,174.2,845.5z M173.9,844.9
				c6.5-3.6,11.5-9.5,14.6-16.1c1.6-3.3,2.8-6.8,3.7-10.3c0.4-1.8,0.8-3.5,1-5.3l0.8-5.6c0.5-3.7,1.1-7.4,1.7-11.1
				c0.6-3.7,1.2-7.4,1.9-11.1c1.3-7.4,2.8-14.7,4.3-22c0.8-3.7,1.6-7.3,2.5-11l0.7-2.8c0.1-0.4,0.3-1,0.4-1.5l0.2-0.8l0.1-0.4
				c0-0.1,0,0,0,0c0,0,0,0.1,0,0.1c-0.1,0.2,0,0.2,0,0c0-0.2-0.1-0.4-0.2-0.7c-0.2-0.6-0.5-1.3-0.8-2c-1.4-2.9-3.5-5.9-5.6-8.7
				c-2.2-2.9-4.5-5.6-6.9-8.3c-4.9-5.3-10.2-10.4-15.9-14.8c-2.8-2.1-5.8-4.1-8.8-5.5c-1.5-0.7-3-1.1-4.2-1.2L162,706l-1.5-0.1
				l-2.9-0.2c-3.8-0.3-7.5-0.8-11.2-1.2c-3.7-0.4-7.4-0.8-11.1-1.1c-3.7-0.3-7.4-0.5-11-0.5c-3.6,0-7.3,0.2-10.8,0.8
				c-1.7,0.3-3.5,0.8-5,1.4c-1.6,0.7-3,1.6-3.9,2.7c-1,1.2-1.5,2.7-1.5,4.3c0,0.8,0.1,1.6,0.3,2.5l0.7,2.7c0.9,3.7,1.3,7.7,0.5,11.6
				c-0.8,3.9-2.8,7.4-5,10.5c-2.2,3.1-4.8,5.9-6.7,8.9c-1.9,3-3.3,6.3-3.3,9.8c0,1.7,0.2,3.6,0.3,5.4c0.2,1.8,0.3,3.7,0.5,5.5
				c0.4,3.7,0.9,7.4,1.4,11.1c1,7.3,2.2,14.7,3.7,21.8c0.8,3.6,1.6,7.1,2.7,10.5c0.5,1.7,1.1,3.3,1.8,4.8c0.3,0.7,0.7,1.4,1.1,1.9
				c0.2,0.3,0.4,0.5,0.5,0.6c0.2,0.1,0.3,0.2,0.3,0.2l1.3,1.1c0.8,1.3,1.9,2.7,3,4c1.1,1.3,2.2,2.6,3.3,3.9c2.3,2.5,4.7,4.9,7.2,7.2
				c5.1,4.5,10.7,8.5,17,11.2c3.1,1.3,6.4,2.4,9.8,3c1.7,0.3,3.4,0.5,5.1,0.6c1.7,0.1,3.5,0.1,5.2,0c3.5-0.2,6.9-0.9,10.3-2
				C167.6,848,170.8,846.6,173.9,844.9z"/>
		</g>
		<path class="st1" d="M131.5,766.6c0,0-25.7,39.6-12.5,70.3c0,0-28.5-27.7-24-88.7C95,748.2,112.6,720,131.5,766.6z"/>
		<g>
			<path class="st7" d="M174.2,725.9l-51.5-8.7c0,0-15.8,40.1-8.3,47.6c7.5,7.5,49.6,14.9,49.6,14.9s21.1-21.6-15.4-32.4"/>
			<path class="st1" d="M174.2,726.3c-4.4-0.1-8.8-0.3-13.1-0.6c-2.2-0.1-4.4-0.3-6.5-0.5c-2.2-0.2-4.3-0.4-6.5-0.6
				c-4.3-0.4-8.7-1-13-1.5c-4.3-0.6-8.6-1.2-12.9-1.9l4.4-2.5c-2.9,7.7-5.9,15.6-8.2,23.6c-1.1,4-2.2,8-2.9,11.9
				c-0.3,2-0.6,3.9-0.5,5.8c0,0.5,0.1,0.9,0.1,1.3c0,0.2,0.1,0.4,0.1,0.6c0,0.2,0.1,0.4,0.1,0.6l0.2,0.5c0.1,0.1,0.2,0.3,0.2,0.4
				c0,0.1,0.2,0.3,0.4,0.4c0.1,0.1,0.3,0.3,0.5,0.5c1.4,1.2,3.2,2.2,5,3.2c1.9,0.9,3.8,1.7,5.8,2.4c4,1.4,8,2.5,12.2,3.3
				c4.1,0.8,8.4,1.3,12.6,1.8c4.2,0.5,8.4,1,12.5,1.6l-3,1c0.2-0.2,0.5-0.6,0.7-0.9c0.3-0.3,0.5-0.7,0.7-1c0.5-0.7,0.9-1.4,1.4-2.1
				c0.8-1.4,1.5-2.9,1.9-4.4c0.9-3,0.7-5.9-0.9-8.6c-1.5-2.7-4.2-5.1-7.2-7.2c-3-2.1-6.4-3.8-9.8-5.5l0,0c-0.2-0.1-0.3-0.3-0.2-0.5
				c0.1-0.1,0.2-0.2,0.4-0.2c3.9,0.4,7.7,1.4,11.4,2.9c0.9,0.4,1.8,0.9,2.8,1.3c0.9,0.5,1.8,1,2.7,1.6c1.8,1.2,3.3,2.7,4.7,4.5
				c1.3,1.8,2.4,4,2.8,6.4c0.4,2.3,0.3,4.7-0.2,7c-0.5,2.2-1.4,4.3-2.5,6.2c-0.5,0.9-1.1,1.8-1.8,2.7c-0.3,0.4-0.7,0.8-1,1.3
				c-0.4,0.4-0.7,0.8-1.2,1.3l-0.1,0.1c-0.8,0.8-1.9,1-2.8,0.8c-8.4-1.8-16.5-4.7-24.6-7.3c-4.1-1.3-8.2-2.5-12.3-3.7
				c-2-0.6-4.1-1.3-6.1-2c-2.1-0.7-4.1-1.6-6.1-2.8c-0.3-0.1-0.5-0.4-0.8-0.6c-0.3-0.2-0.5-0.4-0.8-0.7c-0.2-0.3-0.5-0.6-0.7-0.9
				l-0.5-0.9c-0.2-0.3-0.3-0.6-0.4-0.9c-0.1-0.3-0.3-0.6-0.3-0.9c-0.2-0.6-0.4-1.2-0.5-1.8c-0.5-2.4-0.5-4.7-0.5-6.9
				c0.2-4.5,0.9-8.8,1.8-13.1c0.9-4.2,2-8.4,3.2-12.6c1.2-4.1,2.5-8.2,4.2-12.3l0,0c0.7-1.8,2.6-2.8,4.4-2.5
				c4.3,0.7,8.6,1.6,12.8,2.5c4.3,0.9,8.5,1.8,12.8,2.9c2.1,0.5,4.2,1,6.4,1.6c2.1,0.5,4.2,1.1,6.3,1.7c4.2,1.1,8.4,2.4,12.6,3.8
				c0.2,0.1,0.3,0.3,0.2,0.5C174.5,726.2,174.3,726.3,174.2,726.3z"/>
		</g>
		<g>
			<path class="st7" d="M118.7,737.2c0,0-4.3-32-21.3-33.7s-38.3,12.5-32,23.9C79.1,751.8,119.2,758.8,118.7,737.2z"/>
			<path class="st1" d="M118.3,737.3c-0.5-3.2-1.4-6.4-2.7-9.4c-1.3-3-2.9-5.9-4.6-8.5c-3.5-5.3-7-10.1-11.6-12.3
				c-0.6-0.3-1.2-0.5-1.8-0.7c-0.6-0.2-1.4-0.3-2.1-0.5c-1.5-0.3-3-0.4-4.6-0.4c-3.1,0-6.3,0.5-9.3,1.6c-3,1.1-5.8,2.7-8.2,4.7
				c-2.4,2-4.4,4.5-5.4,7.2c-0.5,1.3-0.7,2.6-0.6,3.7c0.1,1.1,0.5,2.1,1,3c1.6,2.5,3.5,4.9,5.6,6.9c2.1,2.1,4.5,4,7.1,5.6
				c2.5,1.7,5.2,3.1,7.9,4.4c2.7,1.3,5.6,2.3,8.5,3.2c2.9,0.8,5.8,1.5,8.8,1.7c3,0.1,6.1-0.3,8.5-2.1c1.2-0.9,2.2-2.2,2.8-3.6
				C118.1,740.5,118.3,738.8,118.3,737.3z M119,737.2c0,0.9,0,1.7-0.1,2.5c-0.1,0.8-0.2,1.7-0.5,2.5c-0.5,1.7-1.3,3.3-2.5,4.6
				c-1.2,1.4-2.6,2.5-4.2,3.4c-1.6,0.9-3.3,1.5-5.1,2c-3.5,0.9-7.2,1-10.8,0.6c-3.6-0.4-7-1.5-10.3-2.8c-3.3-1.3-6.4-3.1-9.3-5.1
				c-2.9-2.1-5.5-4.5-7.9-7.2c-2.3-2.7-4.4-5.6-6-8.9c-1-2-1.4-4.3-1.1-6.5c0.3-2.2,1.2-4.1,2.2-5.6c2.2-3.2,5-5.3,7.9-7.1
				c2.9-1.8,5.9-3.3,9.1-4.6c3.1-1.3,6.3-2.4,9.7-3.2c1.7-0.4,3.4-0.7,5.2-0.9c0.9-0.1,1.8-0.1,2.8-0.1c1,0.1,2,0.2,3,0.4
				c2,0.5,3.8,1.4,5.4,2.5c1.6,1.1,3,2.5,4.1,4c2.3,2.9,3.8,6.2,4.7,9.5c1,3.3,1.5,6.7,2,10L119,737.2z"/>
		</g>
		<polygon class="st1" points="167.8,697.6 131.7,676.2 130.5,700.7 164.7,702.4 		"/>
	</g>
	<g>
		<g>
			<path class="st1" d="M43.5,402.5c0.4-2.8,1.7-11.2,2.7-19.5c0.3-2.6-0.6-5.3-2.4-7.2c-24.1-25.4-38.7-39.7-43-43.1
				c-4.3-3.3-10.1-5.7-13.5-6.6c-6.6-1.7-9.5-6.2,1.9-13c5.8-3.5,37.5-20.2,44.1-20c1.8,0,3.5,0.4,5,1.1c3.1,1.4,6.6,2.9,24.3,34.3
				c0,0,0.1,0.1,0.1,0.1c3.3,5.8,11.5,6,15.1,0.4c0,0,0.1-0.1,0.1-0.1c19.4-30.4,23-31.7,26.2-32.9c1.6-0.6,3.3-0.9,5-0.8
				c6.6,0.2,17,5.4,36.5,16.3c2.1,1.2,8.2,4.6,8.6,5c6.2,5.1,9.8,11.8-0.7,13.3c-0.6,0.1-1.2,0.2-1.7,0.4c-2.3,0.8-8.6,3.3-12.4,6.3
				c-4.5,3.1-19.8,16.6-45.3,40.7c-1.9,1.8-2.9,4.4-2.8,7.1c0.6,8.3,1.4,16.8,1.7,19.6c0.5,5.8,2.5,14.8,4.3,22.7
				c2.8,13,3.7,17.5,3.2,21.2c-1.8,13.9-25.4,13.2-33.2,13l0,0l-0.7,0c-5.7-0.2-11.9-1-17.2-2.1c-4.9-1.1-15.1-3.3-15.7-12.7
				c-0.3-3.8,0.9-8.2,4.4-21.1C40.1,417.1,42.6,408.2,43.5,402.5z"/>
		</g>
		<g>
			
				<linearGradient id="SVGID_14_" gradientUnits="userSpaceOnUse" x1="1177.7377" y1="445.7868" x2="1614.1152" y2="358.5113" gradientTransform="matrix(-1 0 0 1 1602.0353 0)">
				<stop  offset="0" style="stop-color:#2AD8FF"/>
				<stop  offset="0.9948" style="stop-color:#FC1E79"/>
			</linearGradient>
			<path class="st18" d="M4.9,322.6c-5.2-1.3-11.4-2.3-11.4-2.3c1.9-0.4,35.6-18.5,40.3-16.4c4.7,2.1,35.1,56.9,35.3,61.5
				c0,0,0,0,0,0c0,0,0,0,0,0c0,0,0,0,0,0c0,0,0,0,0,0c0.5-4.6,33.8-57.6,38.6-59.4c4.8-1.8,37.4,18.1,39.3,18.6
				c0,0-6.2,0.6-11.5,1.6c-4.1,0.8-37.7,32.3-52.9,46.7c-1.9,1.8-2.9,4.3-2.7,6.9c0.5,8.2,1.3,18,2,25.1c1.2,12.8,8.1,37.1,7.6,41.6
				c-0.2,1.9-11.1,4-22.8,3.6c-10.8-0.4-22.4-3.1-22.6-4.8c-0.3-4.5,7.9-28.4,9.8-41.1c1.1-7,2.5-16.8,3.4-24.9
				c0.3-2.6-0.5-5.1-2.3-7C40.8,356.9,9,323.6,4.9,322.6z"/>
		</g>
	</g>
	<path class="st1" d="M-37.3,272.8l-17,197.9l-25.4-14.1c0,0,11.8-133.1,7.1-144.2c-8.5-19.8-16.1,117.3-16.1,117.3
		s-14.9-119.6,6.3-150.2L-37.3,272.8z"/>
	<path class="st7" d="M-209.2,138.6c0,0-10.4,38.2,3.7,26.8c14.1-11.3,28.3-18.4,28.3-18.4s-21.6,26.9-17.8,50.9l-6.2-25.4
		c0,0-22.6,29.8-19.8-7.1L-209.2,138.6z"/>
	
		<linearGradient id="SVGID_15_" gradientUnits="userSpaceOnUse" x1="1183.0719" y1="472.4579" x2="1619.4495" y2="385.1824" gradientTransform="matrix(-1 0 0 1 1602.0353 0)">
		<stop  offset="0" style="stop-color:#2AD8FF"/>
		<stop  offset="0.9948" style="stop-color:#FC1E79"/>
	</linearGradient>
	<path class="st19" d="M-178.3,295.6c0,0-45.8-7-58.5-8.2c0,0-19.8,57.7-21,105.9c0,0,38,10.4,79.6,15.9c0,0-41.9-17.3-50-26.6
		c0,0,53.9-1.3,22.8-23.5c-29.7-21.2,22.5-1.9,36.8-5.9c0,0-45.2-23.8-52.2-33.5c-7.1-9.9,58.2,10.7,48.7,0
		C-181.8,309-222.2,302.3-178.3,295.6z"/>
	<path class="st7" d="M15,2.8c0,0-97.5,18.4-122.8,111.8c0,0,18.2-68,95.9-93.4c0,0-5.7,5.7-7.1,19.8C-18.9,41-0.5,15.6,15,2.8z"/>
	<path class="st7" d="M177.6,26.9c0,0-109.3-17.9-164.9,27.8c0,0,47.6-33.5,149.4-25c0,0-8.5,26.9-9.9,48.1
		C152.1,77.8,163.5,39.6,177.6,26.9z"/>
	<path class="st7" d="M50.4,59.4c0,0-77.6-16.2-139.9,78.2c0,0,38.1-48.5,70.6-56.9c0,0-24,12.7-32.5,25.4c0,0,19.8-15.6,33.9-19.8
		c0,0-14.1,11.3-19.8,22.6c0,0,22.6-24,43.8-32.5l-18.4,1.4C-11.8,77.8,9.4,60.8,50.4,59.4z"/>
	<g>
		<path class="st1" d="M7.7,623.9c0,0-35.9-76.3-162.9-82.7c0,0-27.1,78.1,89.4,92c0,0-74.4-22.1-69.2-71.3
			C-134.9,561.8-71.7,555.7,7.7,623.9z"/>
	</g>
	<circle class="st1" cx="-69.8" cy="588.1" r="19.8"/>
	<g>
		
			<linearGradient id="SVGID_16_" gradientUnits="userSpaceOnUse" x1="1771.4353" y1="526.2433" x2="2207.813" y2="438.9677" gradientTransform="matrix(-0.9952 9.782915e-02 0.118 1.2007 1663.502 -248.172)">
			<stop  offset="0" style="stop-color:#2AD8FF"/>
			<stop  offset="0.9948" style="stop-color:#FC1E79"/>
		</linearGradient>
		<path class="st20" d="M22.7,625.1c0,0-68.6-90.9-203.6-120.5c0,0,20.7-24.7,48.1-20.5S2.4,548.6,23.5,589.4L22.7,625.1z"/>
		<path class="st1" d="M22.8,625.4c-0.1,0-0.3,0-0.4-0.1c-0.1-0.1-0.1-0.1-0.1-0.1l-0.1-0.1l-0.2-0.2l-0.3-0.3l-0.6-0.7l-1.3-1.4
			l-2.6-2.7c-1.7-1.8-3.5-3.6-5.3-5.3c-3.5-3.5-7.2-6.9-10.9-10.3c-7.4-6.7-15-13.2-22.8-19.3c-7.8-6.2-15.9-12-24-17.7
			c-8.2-5.6-16.6-10.9-25.1-16.1c-17-10.3-34.6-19.9-53-27.7c-18.4-7.8-37.7-13.6-57.3-17.4c-0.8-0.2-1.3-0.9-1.2-1.7
			c0-0.2,0.2-0.5,0.3-0.6l0,0c1.7-2.1,3.5-3.9,5.5-5.7c1.9-1.8,3.9-3.5,6-5.1c4.2-3.2,8.7-6,13.6-8.1c4.9-2.1,10.2-3.6,15.7-4
			c2.7-0.2,5.5-0.2,8.2,0.1c2.8,0.3,5.5,1,8,1.7c5.1,1.5,10,3.4,14.8,5.3c4.8,2,9.5,4.1,14.2,6.3c9.3,4.5,18.5,9.3,27.5,14.3
			c17.9,10.2,35.2,21.6,51.5,34.4c8.1,6.4,16,13.2,23.3,20.6c3.7,3.7,7.2,7.6,10.4,11.7c3.2,4.1,6.2,8.5,8.5,13.3l0.1,0.1
			c0.1,0.3,0.2,0.6,0.2,0.8c-0.3,6.2-0.8,12.5-1.3,18.5C23.6,614,23.1,619.8,22.8,625.4z M22.6,624.7c0-6.2-0.3-12.4-0.5-18.2
			c-0.3-5.9-0.5-11.5-0.6-17.1l0.2,0.9c-2.5-4.3-5.5-8.2-8.8-12c-3.3-3.8-6.9-7.3-10.6-10.7c-3.7-3.4-7.6-6.7-11.5-9.8
			c-3.9-3.2-8-6.3-12.1-9.3c-8.2-6-16.6-11.7-25.2-17.2c-8.6-5.5-17.2-10.9-26-15.9c-8.8-5.1-17.7-10-26.7-14.6
			c-4.5-2.3-9.1-4.5-13.7-6.5c-4.6-2-9.3-4-14-5.5c-2.3-0.8-4.7-1.4-6.9-1.7c-2.3-0.4-4.7-0.5-7.1-0.5c-4.8,0.1-9.6,1.1-14.2,2.7
			c-4.6,1.6-9,3.9-13.2,6.7c-4.1,2.7-8.1,6-11.4,9.6l-0.8-2.4c19.6,4.8,38.8,10.6,57.8,17.5c18.9,6.8,37.7,14.8,55.2,24.8
			c4.4,2.5,8.7,5.2,13,7.9c4.2,2.8,8.4,5.6,12.5,8.5c8.3,5.8,16.2,12.1,23.9,18.7c7.6,6.6,15,13.6,21.9,20.9
			c3.5,3.7,6.8,7.5,10.1,11.3c1.6,1.9,3.2,3.9,4.7,5.9c0.8,1,1.5,2,2.3,3l1.1,1.5l0.5,0.8l0.3,0.4l0.1,0.2l0.1,0.1c0,0,0,0-0.1,0
			C22.8,624.6,22.7,624.7,22.6,624.7z"/>
	</g>
	<g>
		<path class="st1" d="M111.4,620.8c0,0,38.7-75,165.8-76.7c0,0,24.2,79.1-92.7,88.6c0,0,75.2-19.4,71.8-68.7
			C256.3,564,193.3,555.6,111.4,620.8z"/>
	</g>
	<circle class="st1" cx="190.1" cy="588.1" r="19.8"/>
	<g>
		
			<linearGradient id="SVGID_17_" gradientUnits="userSpaceOnUse" x1="5489.5376" y1="191.3372" x2="5976.7285" y2="191.3372" gradientTransform="matrix(0.9952 9.782915e-02 -0.118 1.2007 -5644.5664 -248.172)">
			<stop  offset="0" style="stop-color:#2AD8FF"/>
			<stop  offset="0.9948" style="stop-color:#FC1E79"/>
		</linearGradient>
		<path class="st21" d="M97.6,625.1c0,0,68.6-90.9,203.6-120.5c0,0-20.7-20.5-48.1-16.3c-27.4,4.2-136.4,63.3-157.4,104.1
			L97.6,625.1z"/>
		<path class="st1" d="M97.7,624.7c-0.1,0-0.2-0.1-0.3,0c-0.1,0.1-0.1,0.1-0.1,0l0.1-0.1l0.1-0.2l0.3-0.4l0.5-0.8l1.1-1.5
			c0.7-1,1.5-2,2.3-3c1.5-2,3.1-4,4.7-5.9c3.3-3.9,6.6-7.7,10.1-11.3c6.9-7.4,14.3-14.3,21.9-20.9c7.7-6.6,15.6-12.9,23.9-18.7
			c4.1-2.9,8.3-5.8,12.5-8.5c4.3-2.7,8.6-5.4,13-7.9c17.6-10.1,36.3-18,55.2-24.8c19-6.8,38.2-12.7,57.8-17.5l-0.7,2.5
			c-3.6-3.2-7.9-6-12.3-8.3c-4.4-2.3-9-4.1-13.8-5.2c-4.7-1.1-9.6-1.6-14.3-1.4c-2.4,0.1-4.8,0.4-7.1,0.8c-2.3,0.4-4.6,1.2-6.9,2
			c-9.3,3.2-18.5,7.5-27.6,11.9c-9,4.5-17.9,9.3-26.7,14.3c-8.8,5-17.4,10.2-26,15.6c-8.5,5.4-17,10.9-25.2,16.8
			c-4.1,2.9-8.1,6-12.1,9.1c-4,3.1-7.8,6.3-11.5,9.7c-3.7,3.4-7.3,6.8-10.6,10.5c-3.3,3.7-6.4,7.6-8.8,11.8l0.2-1
			c0.1,5.2,0.1,10.3,0,15.7C97.5,613.3,97.5,618.9,97.7,624.7z M97.5,625.4c-0.5-5.2-1.1-10.4-1.9-16c-0.7-5.5-1.4-11.3-2-17
			c0-0.3,0-0.6,0.2-0.9l0.1-0.1c2.3-4.8,5.2-9.2,8.5-13.2c3.2-4.1,6.7-7.9,10.4-11.6c7.3-7.3,15.2-14,23.3-20.2
			c16.3-12.6,33.6-23.6,51.5-33.6c9-5,18.1-9.6,27.4-14c4.7-2.2,9.4-4.3,14.1-6.2c4.8-1.9,9.6-3.8,14.6-5.3c2.5-0.8,5.1-1.5,7.8-1.9
			c2.7-0.4,5.4-0.6,8.1-0.6c2.7,0,5.4,0.2,8,0.7c2.6,0.5,5.2,1.1,7.8,1.9c5.1,1.6,9.9,3.9,14.3,6.6c2.2,1.4,4.4,2.9,6.5,4.4
			c2.1,1.6,4.1,3.2,6,5.1l0,0c0.6,0.6,0.6,1.5,0,2.1c-0.2,0.2-0.5,0.3-0.8,0.4c-19.6,3.9-38.9,9.6-57.3,17.4
			c-18.4,7.8-35.9,17.5-53,27.7c-8.5,5.2-16.9,10.4-25.1,16.1c-8.2,5.7-16.3,11.5-24,17.7c-7.8,6.1-15.4,12.6-22.8,19.3
			c-3.7,3.4-7.3,6.8-10.9,10.3c-1.8,1.7-3.6,3.5-5.3,5.3l-2.6,2.7l-1.3,1.4l-0.6,0.7l-0.3,0.3l-0.2,0.2l-0.1,0.1c0,0,0,0-0.1,0.1
			C97.7,625.4,97.6,625.4,97.5,625.4z"/>
	</g>
	<path class="st1" d="M46.8,181.7c0,0-25.4,7.1-41,26.9l22.5-3.8c0,0-15.5,26.4-22.5,40.6v-24c0,0-17,12.7-19.8,24
		c0,0,39.6,21.2,56.5,12.7C42.6,258,27,232.5,46.8,181.7z"/>
	<path class="st7" d="M251.1,120.2c0,0,45.2-18.4,99-8.5c0,0-14.1,31.1-15.6,62.2c0,0,26.9-60.8,35-70.8
		C369.5,103.1,299.2,87.6,251.1,120.2z"/>
	<path class="st7" d="M317.5,101.8c0,0-14.1,8.5-15.6,11.3s24,0,24,0s-29.7,17-33.9,17s1.4,8.5,19.8,0c0,0-14.1,14.1-24,18.4
		l7.1-8.5c0,0-38.2,0,1.4-19.8C296.3,120.2,268.1,111.7,317.5,101.8z"/>
	<path class="st7" d="M160.6,86.2c0,0,19.8-28.3,102.3-22.2c0,0-17.4,34.9-16,50.4c0,0-1.4-25.4,7.1-39.6l-15.6,11.3l12.7-17
		C251.1,69.3,215.8,63.6,160.6,86.2z"/>
	<g>
		
			<linearGradient id="SVGID_18_" gradientUnits="userSpaceOnUse" x1="1168.7334" y1="400.7655" x2="1605.111" y2="313.49" gradientTransform="matrix(-1 0 0 1 1602.0353 0)">
			<stop  offset="0" style="stop-color:#2AD8FF"/>
			<stop  offset="0.9948" style="stop-color:#FC1E79"/>
		</linearGradient>
		<path class="st22" d="M-49.6,276.6c0,0-117.3,27.8-111.6,87.5c0,0-158.2-166.8,52.9-153.9"/>
		<path class="st1" d="M-49.5,277c-12,4.1-23.8,8.7-35.4,13.7c-2.9,1.2-5.7,2.6-8.6,3.9c-2.9,1.3-5.7,2.7-8.5,4.1
			c-5.6,2.9-11.1,5.8-16.4,9.1c-5.3,3.3-10.4,6.7-15.3,10.5c-2.4,1.9-4.8,3.9-7.1,5.9c-2.3,2-4.5,4.2-6.5,6.5
			c-4.1,4.6-7.6,9.6-9.9,15.3c-1.1,2.8-2,5.8-2.5,8.8c-0.5,3-0.6,6.1-0.4,9.2l0,0.1c0,0.7-0.5,1.3-1.1,1.3c-0.4,0-0.7-0.1-1-0.4
			c-7.2-8-14.1-16.3-20.7-24.7c-6.7-8.4-13.2-17-19-26.2c-5.9-9.1-11-18.8-14.8-29.1c-1.9-5.2-3.4-10.5-4.4-16.1
			c-1-5.5-1.3-11.3-0.6-17.1c0.7-5.8,2.5-11.5,5.6-16.6c3.1-5.1,7.3-9.4,12-12.8c2.3-1.7,4.8-3.2,7.3-4.5c1.3-0.6,2.5-1.3,3.8-1.8
			l3.9-1.6c5.3-1.9,10.6-3.4,16-4.4c10.8-2.1,21.7-2.7,32.5-2.6c10.8,0.1,21.5,0.9,32.2,2.4c0.2,0,0.4,0.2,0.3,0.4
			c0,0.2-0.2,0.3-0.4,0.3c-10.7,0.2-21.4,0.5-32,1.4c-1.3,0.1-2.6,0.2-4,0.3l-3.9,0.4c-2.6,0.2-5.2,0.7-7.9,1l-2,0.3l-1.9,0.3
			l-3.9,0.7c-1.3,0.2-2.6,0.5-3.8,0.8c-1.3,0.3-2.6,0.5-3.8,0.9c-10.1,2.5-19.9,6.1-27.8,12.1c-3.9,3-7.3,6.5-9.8,10.6
			c-2.4,4.1-4,8.7-4.7,13.5c-0.8,4.8-0.6,9.9,0.1,14.9c0.7,5,1.9,10,3.5,15c1.6,4.9,3.5,9.8,5.7,14.6c2.1,4.8,4.5,9.5,7,14.2
			c10,18.7,22.5,36.3,37.2,51.7l-2.1,1c-0.8-6.5-0.1-13.2,1.8-19.5c1.9-6.3,5.2-12.2,9.1-17.5c7.9-10.6,18.5-18.7,29.7-25.2
			c5.6-3.3,11.3-6.3,17.2-8.9c2.9-1.3,5.9-2.6,8.9-3.8c3-1.2,6-2.3,9-3.4c12.1-4.2,24.4-7.7,37.1-9.7c0.2,0,0.4,0.1,0.4,0.3
			C-49.2,276.8-49.3,276.9-49.5,277L-49.5,277z"/>
	</g>
	<path class="st1" d="M-47.2,271.4c0,0-100.4,2.8-118.7,46.7c0,0-2.8-35.3,35.3-48.1c0,0-60.8,11.3-41,63.6c0,0-53.7-60.8,15.6-83.4
		c22.5-7.4,50.2-9.7,48.1-7.1l-28.3,15.6l46.7-14.1c0,0,0-14.1-56.5-8.5c0,0,21.2-24,45.2-22.6S-47.2,271.4-47.2,271.4z"/>
	<path class="st7" d="M-106.5,211.3c0,0-84.9-4.9-104.2,33.8c-21.1,42.3,45.3,111.6,45.3,111.6s-52.8-68.2-35.9-105
		c0,0-3.3,16.5,3.3,27.3c0,0-1.9-28.7,26.4-42.9c0,0-11.3-2.8-25.4,2.8C-197,238.9-173,216.3-106.5,211.3z"/>
	
		<linearGradient id="SVGID_19_" gradientUnits="userSpaceOnUse" x1="1162.53" y1="369.7484" x2="1598.9076" y2="282.4729" gradientTransform="matrix(-1 0 0 1 1602.0353 0)">
		<stop  offset="0" style="stop-color:#2AD8FF"/>
		<stop  offset="0.9948" style="stop-color:#FC1E79"/>
	</linearGradient>
	<path class="st23" d="M378.3,287c0,0-18.4,3.5-20.5,6c0,0,15.6,15.5,10.2,21s-40.6,28.1-33.6,38c7.1,9.9,53.7-9.9,33.9,8.5
		c-19.8,18.4-55.1,24-55.1,24s39.6,7.1,49.5,1.4c0,0-42.4,24-60.8,26.9c0,0,59.4-4.2,93.6-27.5L378.3,287z"/>
	<g>
		<path class="st1" d="M325.3,136.4c0,0-31.1,24-35.3,35.3c-4.2,11.3-5.7,45.2-4.2,49.5c1.4,4.2,14.8-16.3,21.9-29
			C307.6,192.3,296.3,172.5,325.3,136.4z"/>
		<g>
			<path class="st1" d="M324.6,147c-2.7,2.8-5.2,5.7-7.6,8.7c-2.4,3-4.8,6-7.1,9.1c-2.3,3.1-4.5,6.2-6.7,9.4L300,179l-3.2,4.8
				L293,181l3.7-4.5l3.7-4.4c2.5-2.9,5.1-5.9,7.7-8.7c2.6-2.9,5.3-5.7,8-8.4C318.9,152.2,321.7,149.5,324.6,147z"/>
		</g>
		<g>
			<path class="st1" d="M324.6,154.1c-2.7,2.8-5.2,5.7-7.6,8.7c-2.4,3-4.8,6-7.1,9.1c-2.3,3.1-4.5,6.2-6.7,9.4L300,186l-3.2,4.8
				L293,188l3.7-4.5l3.7-4.4c2.5-2.9,5.1-5.9,7.7-8.7c2.6-2.9,5.3-5.7,8-8.4C318.9,159.3,321.7,156.6,324.6,154.1z"/>
		</g>
		<g>
			<path class="st1" d="M324.6,161.2c-2.7,2.8-5.2,5.7-7.6,8.7c-2.4,3-4.8,6-7.1,9.1c-2.3,3.1-4.5,6.2-6.7,9.4l-3.2,4.8l-3.2,4.8
				l-3.8-2.8l3.7-4.5l3.7-4.4c2.5-2.9,5.1-5.9,7.7-8.7c2.6-2.9,5.3-5.7,8-8.4C318.9,166.3,321.7,163.6,324.6,161.2z"/>
		</g>
		<g>
			<path class="st1" d="M322.9,170.8c-2.6,2.8-5.1,5.8-7.4,8.8c-2.4,3-4.6,6.1-6.9,9.2c-2.2,3.1-4.4,6.3-6.5,9.5l-3.2,4.8l-3.1,4.9
				l-3.9-2.7l3.6-4.6l3.7-4.5c2.5-3,5-6,7.5-8.8c2.6-2.9,5.2-5.8,7.8-8.6C317.2,176.1,320,173.3,322.9,170.8z"/>
		</g>
	</g>
	<path class="st7" d="M327.4,195.1c0,0,42.7,1.4,47.5,1.4c0,0-13,17.2-8.3,57.4c0,0-10.9-30.5-2.4-50.3
		C364.2,203.6,340.2,197.9,327.4,195.1z"/>
	<path class="st7" d="M262.9,225.9c0,0,71.6,11.6,81.5,49.8c0,0,14.1,35.3-48.1,85.6c0,0,56.5-51.7,35.3-88.5c0,0,4.2,28.3-4.2,37.7
		c0,0,2.8-34.9-19.8-56.1c0,0,7.1,0,28.3,12.7C335.9,267.2,326,247.4,262.9,225.9z"/>
	<g>
		<path class="st1" d="M298.3,640.2c-4.6,2.9-9.1,5.6-13.8,8.3c-4.6,2.6-9.3,5.1-14.1,7.5c-4.7,2.4-9.6,4.7-14.4,6.8
			c-4.9,2.2-9.8,4.1-14.8,5.9c4.8-2.3,9.5-4.7,14-7.4c4.6-2.6,9.1-5.3,13.5-8.2c4.4-2.8,8.8-5.8,13.1-8.8c4.3-3,8.5-6.2,12.5-9.4
			l0,0c1.4-1.1,3.5-0.9,4.6,0.5c1.1,1.4,0.9,3.5-0.5,4.6C298.5,640.1,298.4,640.2,298.3,640.2z"/>
	</g>
	<g>
		<path class="st1" d="M305.4,647.3c-4.6,2.9-9.1,5.6-13.8,8.3c-4.6,2.6-9.3,5.1-14.1,7.5c-4.7,2.4-9.6,4.7-14.4,6.8
			c-4.9,2.2-9.8,4.1-14.8,5.9c4.8-2.3,9.5-4.7,14-7.4c4.6-2.6,9.1-5.3,13.5-8.2c4.4-2.8,8.8-5.8,13.1-8.8c4.3-3,8.5-6.2,12.5-9.4
			l0,0c1.4-1.1,3.5-0.9,4.6,0.5c1.1,1.4,0.9,3.5-0.5,4.6C305.5,647.2,305.4,647.2,305.4,647.3z"/>
	</g>
	<g>
		<path class="st1" d="M312.4,654.3c-4.6,3-9.1,5.7-13.7,8.4c-4.6,2.7-9.3,5.2-14.1,7.6c-4.7,2.4-9.6,4.7-14.4,6.8
			c-4.9,2.1-9.9,4-14.9,5.7c4.8-2.2,9.5-4.6,14.1-7.2c4.6-2.6,9.1-5.3,13.5-8.2c4.4-2.9,8.8-5.8,13-8.9c4.2-3.1,8.5-6.3,12.5-9.5
			l0,0c1.4-1.2,3.5-0.9,4.7,0.5c1.2,1.4,0.9,3.5-0.5,4.7C312.6,654.2,312.5,654.3,312.4,654.3z"/>
	</g>
	<g>
		<path class="st1" d="M319.7,661.3c-4.5,3.2-8.9,6.1-13.6,8.9c-4.6,2.8-9.3,5.3-14.1,7.7c-4.8,2.4-9.6,4.6-14.6,6.6
			c-4.9,2.1-10,3.7-15,5.3c4.9-2.1,9.7-4.2,14.3-6.8c4.7-2.5,9.2-5.1,13.6-8c4.4-2.8,8.8-5.8,12.9-9c4.2-3.1,8.3-6.5,12.1-9.9
			l0.1-0.1c1.4-1.2,3.5-1.1,4.7,0.3c1.2,1.4,1.1,3.5-0.3,4.7C319.8,661.2,319.7,661.2,319.7,661.3z"/>
	</g>
	<g>
		<path class="st1" d="M310.7,681.6c-0.6,0.5-0.7,0.5-1,0.7c-0.2,0.2-0.5,0.3-0.7,0.4c-0.4,0.2-0.9,0.5-1.3,0.7
			c-0.9,0.4-1.7,0.8-2.6,1.2c-1.7,0.7-3.4,1.4-5.1,2.1c-3.4,1.3-6.8,2.5-10.2,3.7c-6.8,2.3-13.6,4.5-20.5,6.5
			c6.4-3.1,12.9-6.3,19.2-9.6c3.1-1.7,6.3-3.3,9.3-5.1c1.5-0.9,3-1.8,4.5-2.7c0.7-0.5,1.4-0.9,2.1-1.4c0.3-0.2,0.7-0.5,1-0.7
			c0.1-0.1,0.3-0.2,0.4-0.3c0.1-0.1,0.3-0.3,0.1-0.1c1.3-1.3,3.4-1.3,4.7,0C312,678.2,312,680.3,310.7,681.6z"/>
	</g>
	<g>
		<path class="st1" d="M-21.5,273.6c-3.9,27.9-7.7,55.7-11.4,83.6c-1.9,13.9-3.7,27.9-5.4,41.8l-2.6,20.9c-0.8,7-1.7,14-2.1,21
			c0.1-7,0.7-14.1,1.1-21.1l1.6-21c1.1-14,2.3-28,3.6-42.1c2.5-28,5-56,7.6-84.1c0.2-2.1,2-3.6,4.1-3.4c2.1,0.2,3.6,2,3.4,4.1
			C-21.5,273.4-21.5,273.5-21.5,273.6z"/>
	</g>
	<g>
		<path class="st1" d="M49.3,590.1c-4.1,10.6-10,22.8-17.5,29.6c-2.2,2-2,6.3,0.3,6.5c7.1,0.5,17.7-4.4,21.9-35
			C54.6,587.1,50.8,586.3,49.3,590.1z"/>
	</g>
	<path class="st3" d="M328.4,1091.3c0,0-77.3-5.7-211.6,26l-5.7,71.6l169.6-7.1C280.8,1181.8,340.6,1146.5,328.4,1091.3z"/>
	<path class="st1" d="M217.6,1098.3c0,0-51.4,20.4-50,25.1c1.5,4.7,25.5-10.8,80.6-10.8c0,0-73.5,22.6-80.6,29.7
		c0,0,55.1-11.3,80.6-11.3c0,0-72.9,26.3-75.3,37.2l-59,20.8l1.4-72.1L217.6,1098.3z"/>
	
		<linearGradient id="SVGID_20_" gradientUnits="userSpaceOnUse" x1="1281.1685" y1="962.9407" x2="1717.546" y2="875.6652" gradientTransform="matrix(-1 0 0 1 1602.0353 0)">
		<stop  offset="5.181347e-03" style="stop-color:#FC1E79"/>
		<stop  offset="1" style="stop-color:#2AD8FF"/>
	</linearGradient>
	<path class="st24" d="M241.2,877.9c0,0-69.6,9.8-111.1,11.3c0,0,51.7,12.7,71.5,11.3c19.8-1.4,7.1,19.8-9.9,21.2
		c-17,1.4-4.2,17,15.6,18.4c19.8,1.4-8.5,18.4-33.9,21.2s-4.2,21.2-36.8,33.9c0,0,93.3-19.8,120.2-33.9L241.2,877.9z"/>
	<polygon class="st1" points="248.3,902.6 136.6,928.8 255.3,917.5 	"/>
	<polygon class="st1" points="255.3,938.6 153.6,955.6 259.6,947.2 	"/>
	<polygon class="st1" points="-170.3,897 -31.6,945.7 -177,914.1 	"/>
	<path class="st1" d="M301.2,1091.1c0,0,6.4,22.5,0.8,21.4c-15.6-2.8-33.9,0-33.9,0s35.3,15.6,28.3,15.6c-17.2,0-28.3,0-28.3,0
		s33.9,11.3,32.5,15.6c-1.4,4.2-9,14.2-9,14.2l16.7,0.8c0,0,31.8-17.8,20.5-67.3L301.2,1091.1z"/>
	<g>
		<path class="st25" d="M114,1191.2l1.4-24c50.5-17.2,190.7-34.6,212,24C344.4,1237.8,123.9,1249.1,114,1191.2z"/>
		
			<linearGradient id="SVGID_21_" gradientUnits="userSpaceOnUse" x1="1326.5592" y1="1189.8947" x2="1762.9368" y2="1102.6191" gradientTransform="matrix(-1 0 0 1 1602.0353 0)">
			<stop  offset="0" style="stop-color:#2AD8FF"/>
			<stop  offset="0.9948" style="stop-color:#FC1E79"/>
		</linearGradient>
		<path class="st26" d="M114,1178.5c0,0,186.2-74.9,213.5,0C344.4,1225.1,123.9,1236.4,114,1178.5z"/>
		<path class="st1" d="M276.7,1213.1c0,0-69.3-71.4-139.3-43.1l-23.4,9.9c0,0,77.8-15.6,142.8,33.2H276.7z"/>
		<path class="st1" d="M312,1158c0,0-26.7,15.9-24.7,52.8h-18.5c0,0-4.9-53.6,21.9-60.7L312,1158z"/>
	</g>
	<g>
		<path class="st25" d="M-47.7,1191.2l-1.4-24c-50.5-17.2-190.7-34.6-212,24C-278.1,1237.8-57.6,1249.1-47.7,1191.2z"/>
		
			<linearGradient id="SVGID_22_" gradientUnits="userSpaceOnUse" x1="1839.8539" y1="2012.9535" x2="2276.2314" y2="1925.678" gradientTransform="matrix(1 0 0 1 -6164.3066 0)">
			<stop  offset="0" style="stop-color:#2AD8FF"/>
			<stop  offset="0.9948" style="stop-color:#FC1E79"/>
		</linearGradient>
		<path class="st27" d="M-47.7,1178.5c0,0-186.2-74.9-213.5,0C-278.1,1225.1-57.6,1236.4-47.7,1178.5z"/>
		<path class="st1" d="M-210.4,1213.1c0,0,69.3-71.4,139.3-43.1l23.4,9.9c0,0-77.8-15.6-142.8,33.2H-210.4z"/>
		<path class="st1" d="M-245.7,1158c0,0,26.7,15.9,24.7,52.8h18.5c0,0,4.9-53.6-21.9-60.7L-245.7,1158z"/>
	</g>
	<path class="st1" d="M305.1,1020.2c0,0-30-37.9-57.1-21.2l20.6-21.9C268.6,977.1,290,992.5,305.1,1020.2z"/>
</g>
</svg>
