<?xml version="1.0" encoding="utf-8"?>
<!-- Generator: Adobe Illustrator 22.0.1, SVG Export Plug-In . SVG Version: 6.00 Build 0)  -->
<svg version="1.1" id="Capa_1" xmlns="http://www.w3.org/2000/svg" xmlns:xlink="http://www.w3.org/1999/xlink" x="0px" y="0px"
	 viewBox="0 0 1097.5 1215.7" style="enable-background:new 0 0 1097.5 1215.7;" xml:space="preserve">
<style type="text/css">
	.st0{fill:#FFFFFF;stroke:#5E004D;stroke-width:7.8855;stroke-linecap:round;stroke-linejoin:round;stroke-miterlimit:10;}
	.st1{fill:#5E004D;stroke:#5E004D;stroke-width:7.8855;stroke-linecap:round;stroke-linejoin:round;stroke-miterlimit:10;}
	.st2{fill:url(#SVGID_1_);stroke:#5E004D;stroke-width:7.8855;stroke-linecap:round;stroke-linejoin:round;stroke-miterlimit:10;}
	.st3{fill:#FFFFFF;}
	.st4{fill:#5E004D;}
	.st5{fill:url(#SVGID_2_);stroke:#5E004D;stroke-width:7.8855;stroke-linecap:round;stroke-linejoin:round;stroke-miterlimit:10;}
	.st6{fill:#2AD8FF;stroke:#5E004D;stroke-width:7.8855;stroke-linecap:round;stroke-linejoin:round;stroke-miterlimit:10;}
	.st7{fill:url(#SVGID_3_);stroke:#5E004D;stroke-width:7.8855;stroke-linecap:round;stroke-linejoin:round;stroke-miterlimit:10;}
	.st8{fill:url(#SVGID_4_);stroke:#5E004D;stroke-width:7.8855;stroke-linecap:round;stroke-linejoin:round;stroke-miterlimit:10;}
	.st9{fill:#5E004D;stroke:#5E004D;stroke-width:4.9284;stroke-linecap:round;stroke-linejoin:round;stroke-miterlimit:10;}
	.st10{fill:url(#SVGID_5_);stroke:#5E004D;stroke-width:7.8855;stroke-linecap:round;stroke-linejoin:round;stroke-miterlimit:10;}
	.st11{fill:#2AD8FF;stroke:#5E004D;stroke-width:4.9284;stroke-linecap:round;stroke-linejoin:round;stroke-miterlimit:10;}
	.st12{fill:url(#SVGID_6_);}
	.st13{fill:#2AD8FF;}
	.st14{fill:url(#SVGID_7_);}
	.st15{fill:url(#SVGID_8_);}
	.st16{fill:url(#SVGID_9_);}
	.st17{fill:#5E004D;stroke:#5E004D;stroke-width:0.9857;stroke-linecap:round;stroke-linejoin:round;stroke-miterlimit:10;}
	.st18{fill:url(#SVGID_10_);}
	.st19{fill:url(#SVGID_11_);}
	.st20{fill:url(#SVGID_12_);}
	.st21{fill:url(#SVGID_13_);}
	.st22{fill:url(#SVGID_14_);}
	.st23{fill:url(#SVGID_15_);}
	.st24{fill:url(#SVGID_16_);}
	.st25{fill:url(#SVGID_17_);}
	.st26{fill:url(#SVGID_18_);stroke:#5E004D;stroke-width:7.8855;stroke-linecap:round;stroke-linejoin:round;stroke-miterlimit:10;}
	.st27{fill:url(#SVGID_19_);stroke:#5E004D;stroke-width:7.8855;stroke-linecap:round;stroke-linejoin:round;stroke-miterlimit:10;}
	.st28{fill:url(#SVGID_20_);stroke:#5E004D;stroke-width:7.8855;stroke-linecap:round;stroke-linejoin:round;stroke-miterlimit:10;}
	.st29{fill:url(#SVGID_21_);stroke:#5E004D;stroke-width:7.8855;stroke-linecap:round;stroke-linejoin:round;stroke-miterlimit:10;}
	.st30{fill:url(#SVGID_22_);stroke:#5E004D;stroke-width:7.8855;stroke-linecap:round;stroke-linejoin:round;stroke-miterlimit:10;}
	.st31{fill:url(#SVGID_23_);}
	.st32{fill:url(#SVGID_24_);}
</style>
<g>
	<g>
		<path class="st0" d="M-95.3,714c0,0-60.9,55.2-81.5,128.2c-26.1,92.1,53.1,102.2,76.9,88.4S-0.6,827.2-0.6,827.2
			S-37.5,699.1-95.3,714z"/>
	</g>
	<path class="st1" d="M-79.6,781.6c0,0-27.9-27.9-53.9-21.4l41-28.9l30.3,15.2L-79.6,781.6z"/>
	<g>
		<path class="st0" d="M304,710c0,0,61.9,54,84,126.6c27.9,91.6-51.1,103.2-75.2,89.9C288.7,913.1,211.5,825,211.5,825
			S245.9,696.2,304,710z"/>
	</g>
	<path class="st1" d="M340,759.4c0,0-26.4-17.3-50.4,19.3l-6.3-44.2l8.8-21.5L340,759.4z"/>
	<g>
		<g>
			
				<linearGradient id="SVGID_1_" gradientUnits="userSpaceOnUse" x1="1350.5823" y1="1070.715" x2="1964.6627" y2="1070.715" gradientTransform="matrix(-0.992 0.1258 0.1258 0.992 1831.2773 -867.0729)">
				<stop  offset="0" style="stop-color:#2AD8FF"/>
				<stop  offset="0.9948" style="stop-color:#FC1E79"/>
			</linearGradient>
			<path class="st2" d="M31.2,155.7c0,0,56.9-247.4,415.3-94.5c0,0-120.9,4.5-150.5,38.5c0,0,168.2-69.6,318.2,171.5
				c0,0-131.1-68-231.3-68c0,0,257.1,58,237.8,321.5L498.3,401c0,0,154.6,221.3,175.5,363.3c0,0-99.7-141.3-272.9-178
				c0,0,20.7,60,84.1,85.1C485,671.4-128.9,690.8,31.2,155.7z"/>
			<g>
				<path class="st3" d="M140.9,30.4C203.3,3.1,299.5-1.6,446.5,61.1C446.5,61.1,230.5-8.5,140.9,30.4z"/>
				<path class="st3" d="M272.3,105.2c-13.2,1.9,28.5-11,23.7-5.5c0,0,162.1-70.2,312.2,170.9C608.2,270.6,474.2,76.4,272.3,105.2z"
					/>
				<path class="st3" d="M359.6,197.1c-19.2-7.9,54.5,18.1,83,25.4c74.7,34.9,189.5,131.8,173.9,295.3
					C616.5,517.9,632.5,309.9,359.6,197.1z"/>
				<path class="st3" d="M400.9,586.3c19.5,49.8,29.3,69.2,84.1,85.1C485,671.4,436.5,652.1,400.9,586.3z"/>
				<path class="st3" d="M484.7,377.9l76.2,121.6c45.4,76.8,100.9,183.7,112.9,264.8L484.7,377.9z"/>
			</g>
			<path class="st4" d="M58.7,218.6c0,0,0.1-129.8,98.3-163.2c0,0-30.4,20.5-38.1,61c0,0,100.8-68.9,144.9-76.7c0,0-37.5-7.5-71.4-1
				c0,0,42.2-32,156.7,4.2c0,0-120-1.3-197.1,99.7c0,0,68.4-35.3,150.6-20.6c0,0-77.8,12.9-114.9,39.8c0,0,126.7-42.3,242.3-2.9
				c0,0-109.1-7-179.6,23.4c0,0,171.9,72.3,245,136.2c0,0-53.8-59.3-108.3-86c0,0,108.6,10,177,150.7l-48.5-37.6
				c0,0,63.9,86.3,75.7,121c0,0-80.9-96.5-167.4-138.7c0,0,89.6,123.2,101.9,164l-55.2-59.6c0,0,30,101.8,59.6,122.9l-107.6-44.1
				l-4.3,27.7c0,0,16.4,32.5,68.8,54.3c0,0-105.6-11-132.8-48.1C327.2,507.8,58.7,218.6,58.7,218.6z"/>
			<path class="st3" d="M424,114.2c0,0,67.5,48.9,30,35s12.3,24.3,45.4,46.4s-44-7-44-7s57.9,41.7,83.2,37.9c0,0-22.7-33.8-58-55.2
				s55,18.9,27.5-11.3S424,114.2,424,114.2z"/>
		</g>
		
			<linearGradient id="SVGID_2_" gradientUnits="userSpaceOnUse" x1="1684.8021" y1="883.2527" x2="1785.4006" y2="883.2527" gradientTransform="matrix(-0.992 0.1258 0.1258 0.992 1831.2773 -867.0729)">
			<stop  offset="0" style="stop-color:#2AD8FF"/>
			<stop  offset="0.9948" style="stop-color:#FC1E79"/>
		</linearGradient>
		<path class="st5" d="M171.6,219.6c-4.4,28.5,14.2,55.2,41.6,59.6c27.4,4.4,53.1-15.2,57.6-43.7c4.4-28.5-14.2-55.2-41.6-59.6
			C201.8,171.5,176,191,171.6,219.6z"/>
		<g>
			<path class="st4" d="M185.9,202.9c-3.9,4.4-6.9,9.5-8.8,15.1c-1.9,5.5-2.7,11.4-2.4,17.2c0.3,5.8,1.8,11.5,4.2,16.6
				c2.4,5.2,5.9,9.8,10,13.6c8.3,7.6,19.4,11.4,30.2,10.6c10.8-0.7,20.9-6,28-14c7.1-8,11.2-18.7,11.3-29.6
				c0.2-10.9-3.7-22-11.3-30.3c-3.8-4.1-8.4-7.6-13.6-9.9c-5.2-2.3-10.9-3.6-16.7-3.5c-5.8,0-11.6,1.3-16.9,3.8
				C194.6,194.9,189.8,198.5,185.9,202.9z M185.9,202.9c3.9-4.4,8.6-8,13.9-10.7c5.2-2.6,11-4.2,17-4.6c11.9-0.9,24.1,3.4,33.1,11.8
				c4.5,4.1,8.3,9.2,10.9,14.8c2.6,5.6,4.2,11.8,4.5,18.1c0.3,6.3-0.6,12.6-2.6,18.6c-2.1,6-5.3,11.6-9.5,16.3
				c-4.2,4.7-9.4,8.7-15.2,11.3c-5.8,2.7-12.1,4.1-18.5,4.2c-6.3,0.1-12.6-1.3-18.3-3.8c-5.7-2.5-10.8-6.3-14.9-10.8
				c-8.3-9-12.6-21.1-12.5-33C173.7,223.3,178.1,211.6,185.9,202.9z"/>
		</g>
		<g>
			<path class="st4" d="M48.2,202.6c-0.1-0.8-0.2-1.5-0.2-2.2c-0.1-0.7-0.1-1.4-0.1-2.1c-0.1-1.4-0.1-2.7-0.1-4.1c0-2.7,0-5.4,0.2-8
				c0.3-5.3,0.9-10.6,1.8-15.9c1.8-10.5,4.8-20.6,8.7-30.4c2-4.9,4.1-9.7,6.6-14.3c0.6-1.2,1.2-2.3,1.9-3.5l1.9-3.4l2-3.4l1-1.7
				l1.1-1.6c5.7-8.8,12.1-17,19.1-24.7c-6.5,8.1-12.4,16.7-17.4,25.7l-1,1.7l-0.9,1.7L71,120l-1.7,3.5c-0.6,1.2-1.1,2.3-1.6,3.5
				c-2.1,4.7-3.9,9.5-5.6,14.4c-3.2,9.7-5.5,19.8-6.6,29.9c-0.6,5.1-0.8,10.1-0.8,15.2c0,2.5,0.1,5,0.3,7.5c0.1,1.2,0.2,2.5,0.4,3.7
				c0.1,0.6,0.2,1.2,0.2,1.8c0.1,0.6,0.2,1.2,0.3,1.7L48.2,202.6z"/>
		</g>
		<g>
			<path class="st4" d="M32.6,206.8c-0.1-0.8-0.2-1.5-0.2-2.2c-0.1-0.7-0.1-1.4-0.1-2.1c-0.1-1.4-0.1-2.7-0.1-4.1c0-2.7,0-5.4,0.2-8
				c0.3-5.3,0.9-10.6,1.8-15.9c1.8-10.5,4.8-20.6,8.7-30.4c2-4.9,4.1-9.7,6.6-14.3c0.6-1.2,1.2-2.3,1.9-3.5l1.9-3.4l2-3.4l1-1.7
				l1.1-1.6c5.7-8.8,12.1-17,19.1-24.7C69.9,99.8,64,108.4,59,117.4l-1,1.7l-0.9,1.7l-1.8,3.4l-1.7,3.5c-0.6,1.2-1.1,2.3-1.6,3.5
				c-2.1,4.7-3.9,9.5-5.6,14.4c-3.2,9.7-5.5,19.8-6.6,29.9c-0.6,5.1-0.8,10.1-0.8,15.2c0,2.5,0.1,5,0.3,7.5c0.1,1.2,0.2,2.5,0.4,3.7
				c0.1,0.6,0.2,1.2,0.2,1.8c0.1,0.6,0.2,1.2,0.3,1.7L32.6,206.8z"/>
		</g>
		<g>
			<path class="st4" d="M379.1,466.2c0-5.6-0.3-11.3-0.8-17c-0.4-5.7-1-11.4-1.8-17.1c-0.8-5.7-1.8-11.3-3.1-16.9
				c-1.3-5.6-2.9-11.1-5-16.5c2.7,5.1,4.9,10.5,6.9,15.9c1.9,5.5,3.6,11,5.1,16.7c1.4,5.6,2.7,11.3,3.8,17c1.1,5.7,2,11.4,2.8,17.4
				L379.1,466.2z"/>
		</g>
		<g>
			<path class="st4" d="M370.1,469.3c0-5.6-0.3-11.3-0.8-17c-0.4-5.7-1-11.4-1.8-17.1c-0.8-5.7-1.8-11.3-3.1-16.9
				c-1.3-5.6-2.9-11.1-5-16.5c2.7,5.1,4.9,10.5,6.9,15.9c1.9,5.5,3.6,11,5.1,16.7c1.4,5.6,2.7,11.3,3.8,17c1.1,5.7,2,11.4,2.8,17.4
				L370.1,469.3z"/>
		</g>
		<g>
			<path class="st4" d="M360.7,474.5c0-5.6-0.3-11.3-0.8-17c-0.4-5.7-1-11.4-1.8-17.1c-0.8-5.7-1.8-11.3-3.1-16.9
				c-1.3-5.6-2.9-11.1-5-16.5c2.7,5.1,4.9,10.5,6.9,15.9c1.9,5.5,3.6,11,5.1,16.7c1.4,5.6,2.7,11.3,3.8,17c1.1,5.7,2,11.4,2.8,17.4
				L360.7,474.5z"/>
		</g>
		<g>
			<path class="st4" d="M353,482.2c0-5.6-0.3-11.3-0.8-17c-0.4-5.7-1-11.4-1.8-17.1c-0.8-5.7-1.8-11.3-3.1-16.9
				c-1.3-5.6-2.9-11.1-5-16.5c2.7,5.1,4.9,10.5,6.9,15.9c1.9,5.5,3.6,11,5.1,16.7c1.4,5.6,2.7,11.3,3.8,17c1.1,5.7,2,11.4,2.8,17.4
				L353,482.2z"/>
		</g>
		<g>
			<path class="st4" d="M84.6,216.2c2.1-0.5,4.1-0.8,6.2-1.1c2-0.3,4.1-0.6,6.1-0.8c2-0.3,4.1-0.4,6.1-0.6c2-0.2,4.1-0.3,6.1-0.4
				c8.1-0.4,16.2-0.3,24.3,0.3c8.1,0.6,16.1,2,23.9,3.8l5.8,1.6c1.9,0.6,3.8,1.3,5.7,1.9l2.8,1c0.9,0.4,1.8,0.8,2.8,1.2l5.5,2.4
				l-5.7-1.9c-0.9-0.3-1.9-0.7-2.8-0.9l-2.9-0.7c-1.9-0.5-3.9-1-5.8-1.4l-5.9-1.1c-7.8-1.2-15.8-1.9-23.7-1.8
				c-7.9,0-15.8,0.6-23.6,1.6c-1.9,0.3-3.9,0.6-5.8,0.9c-1.9,0.4-3.9,0.7-5.8,1.1c-1.9,0.4-3.8,0.8-5.7,1.3c-1.9,0.4-3.8,1-5.6,1.5
				L84.6,216.2z"/>
		</g>
		<g>
			<path class="st4" d="M239.6,36.1l-0.2,0L239,36l-0.7-0.1l-1.5-0.1c-1-0.1-2-0.1-3-0.1l-3.1,0.1l-3.1,0.2c-1,0-2.1,0.2-3.2,0.4
				c-1,0.2-2.1,0.2-3.2,0.5l-3.1,0.6c-1.1,0.2-2.1,0.4-3.1,0.7l-3.1,0.8c-1,0.3-2.1,0.5-3.1,0.9c-2.1,0.7-4.1,1.3-6.2,1.9l-6.1,2.3
				l-1.5,0.6l-1.5,0.7l-3,1.3c-4,1.6-7.9,3.7-11.8,5.6l-1.5,0.7l-1.4,0.8l-2.9,1.6l-5.7,3.2c-3.7,2.3-7.5,4.6-11.2,7l-10.9,7.5
				l10.3-8.3c3.5-2.6,7.1-5.2,10.7-7.8l5.5-3.7l2.8-1.8l1.4-0.9l1.4-0.8c3.8-2.2,7.6-4.6,11.6-6.6l3-1.6l1.5-0.8l1.5-0.7l6.1-2.8
				c2.1-0.9,4.2-1.7,6.3-2.5c1-0.4,2.1-0.8,3.2-1.1l3.2-1.1c1.1-0.4,2.2-0.7,3.3-1l3.3-0.9c1.1-0.3,2.2-0.5,3.3-0.7
				c1.1-0.2,2.2-0.5,3.4-0.7l3.4-0.5l3.5-0.3c1.2-0.1,2.4-0.1,3.6-0.1c1.3,0,2.3,0,3.9,0.2L239.6,36.1z"/>
		</g>
		<g>
			<path class="st4" d="M262.9,37.6l-0.3-0.1l-0.4-0.1l-0.8-0.1l-1.8-0.2c-1.2-0.1-2.4-0.1-3.6-0.1l-3.7,0.1l-3.7,0.3
				c-1.2,0.1-2.5,0.3-3.7,0.5c-1.2,0.2-2.5,0.3-3.7,0.6l-3.7,0.7c-1.2,0.2-2.5,0.5-3.7,0.8l-3.7,1c-1.2,0.3-2.5,0.6-3.7,1
				c-2.4,0.8-4.9,1.5-7.3,2.3l-7.2,2.7l-1.8,0.7l-1.8,0.8l-3.5,1.6c-4.8,2-9.3,4.4-14,6.7l-1.7,0.9l-1.7,1l-3.4,1.9l-6.8,3.8
				c-4.4,2.8-8.8,5.5-13.2,8.3l-12.8,8.9l12.3-9.7c4.2-3.1,8.4-6.1,12.7-9.2l6.6-4.3l3.3-2.1l1.6-1.1l1.7-1c4.5-2.6,9-5.4,13.7-7.7
				l3.5-1.8l1.8-0.9l1.8-0.8l7.2-3.3c2.4-1,4.9-1.9,7.4-2.9c1.2-0.5,2.5-0.9,3.8-1.3l3.8-1.2c1.3-0.4,2.5-0.8,3.8-1.1l3.9-1
				c1.3-0.3,2.6-0.6,3.9-0.8c1.3-0.3,2.6-0.6,4-0.7l4-0.6l4.1-0.4c1.4-0.1,2.8-0.1,4.2-0.1l2.1,0.1l1.1,0.1l0.6,0l0.7,0.1
				L262.9,37.6z"/>
		</g>
		<g>
			<path class="st4" d="M265.8,47l-0.3-0.1l-0.4-0.1l-0.8-0.1l-1.7-0.2c-1.2-0.1-2.4-0.1-3.6-0.1l-3.7,0.1l-3.7,0.3
				c-1.2,0.1-2.5,0.3-3.7,0.4c-1.2,0.2-2.5,0.3-3.7,0.5l-3.7,0.7c-1.2,0.2-2.5,0.4-3.7,0.8l-3.7,0.9c-1.2,0.3-2.5,0.6-3.7,1
				l-7.3,2.2l-7.2,2.6l-1.8,0.7l-1.8,0.7l-3.5,1.5c-4.7,1.9-9.3,4.2-13.9,6.5l-1.7,0.8c-0.6,0.3-1.1,0.6-1.7,0.9l-3.4,1.8l-6.7,3.7
				c-4.4,2.7-8.8,5.3-13.1,8l-12.8,8.6l12.2-9.4c4.2-3,8.4-5.9,12.6-8.9l6.5-4.2l3.3-2.1c0.5-0.3,1.1-0.7,1.6-1l1.7-1
				c4.5-2.5,9-5.2,13.6-7.4l3.5-1.8l1.7-0.9l1.8-0.8l7.2-3.1l7.3-2.8c1.2-0.5,2.5-0.8,3.7-1.3l3.8-1.2c1.2-0.4,2.5-0.7,3.8-1.1
				l3.8-1c1.3-0.3,2.6-0.5,3.9-0.8c1.3-0.2,2.6-0.6,3.9-0.7l4-0.6l4-0.3c1.4-0.1,2.7-0.1,4.1-0.1l2.1,0.1l1.1,0.1l0.6,0l0.7,0.1
				L265.8,47z"/>
		</g>
		<g>
			<path class="st4" d="M521.4,344.7c3.7,3.8,7.1,7.6,10.4,11.5c1.7,2,3.3,3.9,4.9,5.9l4.8,6c6.3,8.1,12.1,16.5,17.6,25.1
				c2.8,4.3,5.3,8.7,7.9,13.1c1.2,2.2,2.4,4.5,3.6,6.7l1.8,3.4l1.7,3.4l3.3,6.9l3,7l1.5,3.5l1.3,3.6l2.6,7.1l-3.1-6.9l-1.5-3.5
				l-1.7-3.4l-3.4-6.8l-3.7-6.6l-1.9-3.3l-2-3.2c-1.3-2.1-2.6-4.3-4-6.4c-2.8-4.2-5.6-8.4-8.6-12.4c-5.9-8.1-12.2-16-18.9-23.5
				l-5-5.6c-1.7-1.8-3.4-3.7-5.2-5.4c-3.5-3.6-7.1-7.1-10.7-10.3L521.4,344.7z"/>
		</g>
		<g>
			<path class="st4" d="M526.9,336.6c3.7,3.8,7.1,7.6,10.4,11.5c1.7,2,3.3,3.9,4.9,5.9l4.8,6c6.3,8.1,12.1,16.5,17.6,25.1
				c2.8,4.3,5.3,8.7,7.9,13.1c1.2,2.2,2.4,4.5,3.6,6.7l1.8,3.4l1.7,3.4l3.3,6.9l3,7l1.5,3.5l1.3,3.6l2.6,7.1l-3.1-6.9l-1.5-3.5
				L585,426l-3.4-6.8l-3.7-6.6l-1.9-3.3l-2-3.2c-1.3-2.1-2.6-4.3-4-6.4c-2.8-4.2-5.6-8.4-8.6-12.4c-5.9-8.1-12.2-16-18.9-23.5
				l-5-5.6c-1.7-1.8-3.4-3.7-5.2-5.4c-3.5-3.6-7.1-7.1-10.7-10.3L526.9,336.6z"/>
		</g>
		<g>
			<path class="st4" d="M495.7,317.1c-6.2-5.2-12.7-10.3-19.2-15.3c-3.2-2.5-6.5-5-9.8-7.4l-9.9-7.3c-13.3-9.6-26.9-18.9-40.8-27.7
				c-3.5-2.2-6.9-4.5-10.4-6.6l-10.5-6.4c-3.5-2.1-7.1-4.1-10.7-6.2l-5.3-3.1c-1.8-1-3.6-2-5.4-3l-10.9-5.9l-11-5.6l-5.5-2.8
				l-5.6-2.6l-11.2-5.2l11.4,4.8l5.7,2.4l5.6,2.6l11.3,5.1l11.1,5.5c1.8,0.9,3.7,1.8,5.5,2.8l5.5,2.9c3.6,1.9,7.3,3.8,11,5.8l10.8,6
				c3.6,2,7.2,4.1,10.7,6.2c14.3,8.3,28.3,17.1,42.1,26.2l10.3,6.9c3.4,2.4,6.8,4.7,10.2,7.1c6.8,4.8,13.4,9.6,20.1,14.8
				L495.7,317.1z"/>
		</g>
		<path class="st4" d="M666.3,759.4c0,0-25.9-82.4-120.8-162.5c0,0,27.6,43.6-3.6,50.9C542,647.7,631.4,707.9,666.3,759.4z"/>
		<g>
			<path class="st4" d="M585.5,661c-6.8-9.1-14.1-18.1-21.6-26.8c-7.5-8.7-15.3-17.2-23.5-25.3c-4.1-4.1-8.2-8-12.5-11.9
				c-4.3-3.9-8.6-7.6-13.1-11.2c-4.5-3.6-9.1-7-14-10.2c-4.8-3.2-9.8-6.1-15-8.6c5.3,2.2,10.5,4.8,15.5,7.7c5,2.9,9.9,6.1,14.6,9.4
				c4.8,3.3,9.4,6.9,13.9,10.5c4.5,3.6,9,7.4,13.3,11.3c8.7,7.7,17,15.8,25.1,24.2c8.1,8.4,15.9,16.9,23.5,25.9L585.5,661z"/>
		</g>
		<g>
			<path class="st4" d="M586.8,666.6c-7.3-8.7-15.1-17.2-23.1-25.4c-8-8.2-16.3-16.2-24.9-23.8c-4.3-3.8-8.7-7.5-13.2-11.1
				c-4.5-3.6-9.1-7.1-13.8-10.3c-4.7-3.3-9.5-6.4-14.5-9.3c-5-2.8-10.1-5.4-15.5-7.6c5.5,1.9,10.8,4.2,16,6.7
				c5.2,2.6,10.2,5.4,15.1,8.5c4.9,3,9.8,6.3,14.5,9.6c4.7,3.3,9.4,6.8,13.9,10.4c9.1,7.2,17.9,14.7,26.5,22.6
				c8.6,7.9,16.9,15.9,24.9,24.4L586.8,666.6z"/>
		</g>
		<g>
			<path class="st4" d="M587.6,672.6c-7.7-8.3-15.9-16.3-24.3-24.1c-8.4-7.8-17-15.3-26-22.4c-4.5-3.6-9-7-13.7-10.4
				c-4.6-3.4-9.4-6.6-14.3-9.6c-4.9-3-9.8-5.9-15-8.5c-5.1-2.6-10.4-4.9-15.8-6.8c5.5,1.6,11,3.6,16.3,5.9
				c5.3,2.3,10.5,4.9,15.5,7.7c5.1,2.8,10,5.7,14.9,8.9c4.9,3.1,9.7,6.3,14.4,9.7c9.5,6.7,18.6,13.8,27.5,21.1
				c8.9,7.4,17.6,15,26.1,23.1L587.6,672.6z"/>
		</g>
		<g>
			<path class="st4" d="M588.5,678c-8.2-7.8-16.8-15.3-25.6-22.6c-8.8-7.2-17.9-14.3-27.2-20.8c-4.7-3.3-9.4-6.5-14.3-9.5
				c-4.8-3.1-9.7-6-14.8-8.7c-5-2.7-10.1-5.3-15.4-7.6c-5.3-2.3-10.6-4.3-16.2-5.8c5.6,1.2,11.1,2.9,16.5,4.9
				c5.4,2,10.7,4.3,15.9,6.7c5.2,2.5,10.3,5.1,15.4,7.9c5.1,2.8,10,5.7,14.9,8.8c9.8,6.1,19.3,12.6,28.7,19.4
				c9.3,6.8,18.4,13.9,27.3,21.5L588.5,678z"/>
		</g>
		<g>
			<path class="st4" d="M590.7,655.1c-6.8-9.1-14.1-18.1-21.6-26.8c-7.5-8.7-15.3-17.2-23.5-25.3c-4.1-4.1-8.2-8-12.5-11.9
				c-4.3-3.9-8.6-7.6-13.1-11.2c-4.5-3.6-9.1-7-14-10.2c-4.8-3.2-9.8-6.1-15-8.6c5.3,2.2,10.5,4.8,15.5,7.7c5,2.9,9.9,6.1,14.6,9.4
				c4.8,3.3,9.4,6.9,13.9,10.5c4.5,3.6,9,7.4,13.3,11.3c8.7,7.7,17,15.8,25.1,24.2c8.1,8.4,15.9,16.9,23.5,25.9L590.7,655.1z"/>
		</g>
		<g>
			<path class="st4" d="M415.6,510.8c5.6,3.9,11.5,7.6,17.4,11.2c5.9,3.6,12,7,18.1,10.2c6.2,3.2,12.5,6.1,18.9,8.8
				c6.4,2.6,13,4.9,19.8,6.6c-6.9-1.1-13.7-2.7-20.5-4.7c-6.7-2.1-13.3-4.5-19.9-7.1c-6.5-2.7-13-5.5-19.3-8.6
				c-6.4-3.1-12.6-6.2-18.8-9.8L415.6,510.8z"/>
		</g>
		<g>
			<path class="st4" d="M411.5,523.6c5.6,3.9,11.5,7.6,17.4,11.2c5.9,3.6,12,7,18.1,10.2c6.2,3.2,12.5,6.1,18.9,8.8
				c6.4,2.6,13,4.9,19.8,6.6c-6.9-1.1-13.7-2.7-20.5-4.7c-6.7-2.1-13.3-4.5-19.9-7.1c-6.5-2.7-13-5.5-19.3-8.6
				c-6.4-3.1-12.6-6.2-18.8-9.8L411.5,523.6z"/>
		</g>
		<g>
			<path class="st4" d="M409.5,536.7c5.6,3.9,11.5,7.6,17.4,11.2c5.9,3.6,12,7,18.1,10.2c6.2,3.2,12.5,6.1,18.9,8.8
				c6.4,2.6,13,4.9,19.8,6.6c-6.9-1.1-13.7-2.7-20.5-4.7c-6.7-2.1-13.3-4.5-19.9-7.1c-6.5-2.7-13-5.5-19.3-8.6
				c-6.4-3.1-12.6-6.2-18.8-9.8L409.5,536.7z"/>
		</g>
	</g>
	<g>
		<g>
			<path class="st0" d="M-105.3,984.4c0,0-19.7,141-29,190.2c0,0,66.1,44.9,184.7-9.5c0,0,18-53.3,59.2-175L-105.3,984.4z"/>
			<path class="st6" d="M-124.2,1108.6c0,0,104.7,25.5,192.6,3.2c0,0,3.4,44.4-18,53.3l-185.9,23.9
				C-135.5,1189-123.7,1108.5-124.2,1108.6z"/>
			<path class="st4" d="M39.7,1121.5c0,0-20.9,5.8-47.5,10.6c-4.4,0.8-4.2,6.8,0.2,7.4c7,0.8,14.5,1.5,22.1,2.1
				c1.7,0.1,1.7,2.5,0.1,2.6c-11.9,1.2-28.1,2.4-45.9,2.2c-3.7,0-4.4,4.9-0.9,5.8c26.2,6.8,66.9,15.9,93.9,14.8c0,0,3.1-39.1,7-53.9
				L39.7,1121.5z"/>
			<g>
				<path class="st1" d="M-134.7,1191.2l3.6-23.4c53.8-12.5,200.6-17.7,217.5,41.5C99.7,1256.3-129.7,1248.7-134.7,1191.2z"/>
				
					<linearGradient id="SVGID_3_" gradientUnits="userSpaceOnUse" x1="6737.5312" y1="1472.9148" x2="6960.292" y2="1472.9148" gradientTransform="matrix(-0.9963 -8.626882e-02 -8.626882e-02 0.9963 6927.605 314.0954)">
					<stop  offset="0" style="stop-color:#2AD8FF"/>
					<stop  offset="0.9948" style="stop-color:#FC1E79"/>
				</linearGradient>
				<path class="st7" d="M-133.6,1178.7c0,0,199.6-57.4,221.1,18.1C100.9,1243.9-128.6,1236.2-133.6,1178.7z"/>
				<path class="st4" d="M31.8,1226.4c0,0-65.4-75.7-140.4-54l-25.1,7.7c0,0,81.9-8.6,144.9,44.6L31.8,1226.4z"/>
				<path class="st4" d="M73.3,1175.5c0,0-29.1,13.3-30.3,49.5l-19.2-1.6c0,0-0.3-52.8,28.1-57.5L73.3,1175.5z"/>
			</g>
		</g>
		<g>
			<path class="st0" d="M349.9,986.3c0,0,32.2,139,45.9,187.3c0,0-62.3,49.9-186,5c0,0-22.8-51.7-74.8-169.8L349.9,986.3z"/>
			<path class="st6" d="M379.8,1108.6c0,0-102.7,33.6-192.9,18.3c0,0,0.5,44.5,22.8,51.7l188.5,9.3
				C398.2,1187.9,379.2,1108.5,379.8,1108.6z"/>
			<path class="st4" d="M216.3,1131.8c0,0,22.8,5,50.9,6.3c3.9,0.2,4.3,5.4,0.5,6.1c-6.5,1.2-13.6,2.3-20.8,3.1
				c-3,0.3-2.9,4.4,0,4.7c12.4,1.2,28.5,2,45.9,0.8c3.4-0.2,4.5,4.3,1.2,5.4c-25.5,8.9-67.4,22-95.4,23c0,0-6.6-38.7-11.8-53.2
				L216.3,1131.8z"/>
			<g>
				<path class="st1" d="M398.2,1198.1l-2.6-23.5c-53.6-14.6-200.9-25.6-220.5,32.8C159.6,1253.9,390.6,1255.4,398.2,1198.1z"/>
				
					<linearGradient id="SVGID_4_" gradientUnits="userSpaceOnUse" x1="354.8397" y1="1077.6643" x2="579.0656" y2="1077.6643" gradientTransform="matrix(0.999 -4.462019e-02 4.462019e-02 0.999 -228.8072 137.4895)">
					<stop  offset="0" style="stop-color:#2AD8FF"/>
					<stop  offset="0.9948" style="stop-color:#FC1E79"/>
				</linearGradient>
				<path class="st8" d="M397.7,1185.6c0,0-198.1-65.3-223.1,9.3C159,1241.5,390,1242.9,397.7,1185.6z"/>
				<path class="st4" d="M229.2,1226.7c0,0,69.1-73,143.6-48.4l24.9,8.7c0,0-82-11.8-147.7,38.8L229.2,1226.7z"/>
				<path class="st4" d="M189.8,1174.3c0,0,28.7,14.4,28.3,50.7l19.3-0.8c0,0,2.7-52.8-25.7-58.5L189.8,1174.3z"/>
			</g>
		</g>
		<path class="st4" d="M-124.8,1114.1c0,0,14.8,7.8,29.6,12.3c3.1,0.9,2.9,5.1-0.3,5.8c-4,0.9-8.5,1.9-12.4,2.5
			c-2.4,0.4-2.9,3.4-0.8,4.5c3.9,2,9.1,4.4,14.7,6.2c3.4,1.1,3,5.8-0.5,6.4c-10.9,1.8-24.8,3.4-36.6,2.3L-124.8,1114.1z"/>
		<polygon class="st9" points="35.5,1067 24.8,1118.8 68.6,1113.5 86.9,1057.2 		"/>
		<polygon class="st9" points="198.6,1068 209.4,1127.4 182.4,1122.3 164,1066 		"/>
		<path class="st4" d="M-117.8,1068.6c0,0,82.1,17.7,192.1-11.4l-2.5,16.4c0,0,71.2,4.8,102.3,0c0,0-3-11.4-1.3-7.6
			c0,0,141.5,20.2,198.4-15.2c0,0-12.6-80.9-45.5-94.8s-418.2-5.1-418.2-5.1L-117.8,1068.6z"/>
		
			<linearGradient id="SVGID_5_" gradientUnits="userSpaceOnUse" x1="724.8505" y1="822.3901" x2="1152.2046" y2="822.3901" gradientTransform="matrix(1 0 0 1 -817.3132 0)">
			<stop  offset="0" style="stop-color:#2AD8FF"/>
			<stop  offset="0.9948" style="stop-color:#FC1E79"/>
		</linearGradient>
		<path class="st10" d="M334.9,933.5c-0.4-0.2-0.8-0.3-1.2-0.5c0-0.4-0.1-0.8-0.1-1.2c-2.3-28.5-40.2-120.7-41.6-238.6L-92.5,711
			c0,0,34.2,146,1.1,235C-108.9,963.8,334.9,933.5,334.9,933.5z"/>
		<polygon class="st4" points="4.6,729.5 223.3,725.8 148.4,892.3 70.7,886.7 		"/>
		<path class="st11" d="M183.8,718.2c0,0-64.4,129.3-90,151.5l0,0c0,0-73-129.3-71.7-154.3l-49.4,0.3c0,0,54.9,160.5,100.9,200.7
			l41.7-3.8c0,0,56.9-65.7,118-197.2L183.8,718.2z"/>
		<g>
			
				<linearGradient id="SVGID_6_" gradientUnits="userSpaceOnUse" x1="696.7805" y1="999.6111" x2="979.9829" y2="999.6111" gradientTransform="matrix(1 0 0 1 -817.3132 0)">
				<stop  offset="0" style="stop-color:#2AD8FF"/>
				<stop  offset="0.9948" style="stop-color:#FC1E79"/>
			</linearGradient>
			<path class="st12" d="M162.7,977.6c0,0-52,123.2-283.2,78.8c0,0,9.3-94.8,31.2-123.4L162.7,977.6z"/>
			<path class="st4" d="M163,977.5c0,0.1,0,0.2,0,0.4l-0.1,0.1l-0.1,0.1l-0.1,0.3l-0.2,0.6l-0.5,1.1c-0.3,0.8-0.7,1.5-1.1,2.2
				c-0.7,1.5-1.5,2.9-2.3,4.4c-1.6,2.9-3.4,5.7-5.3,8.4c-3.8,5.4-8,10.6-12.5,15.4c-4.6,4.8-9.4,9.4-14.6,13.5
				c-5.2,4.2-10.6,8.1-16.2,11.6c-5.6,3.6-11.4,6.8-17.4,9.7c-3,1.5-6,2.9-9,4.2c-1.5,0.7-3.1,1.3-4.6,1.9c-1.5,0.6-3.1,1.2-4.6,1.8
				c-6.2,2.3-12.5,4.4-18.9,6.2c-6.4,1.8-12.9,3.2-19.4,4.5c-13,2.4-26.2,3.8-39.4,4.3c-13.2,0.5-26.4,0.2-39.5-0.6
				c-26.2-1.7-52.2-5.1-78.1-9.7c-0.7-0.1-1.2-0.8-1.1-1.5l0,0c1-10.7,2.2-21.3,3.5-32c1.4-10.6,3-21.2,4.9-31.8
				c1-5.3,2.1-10.6,3.3-15.8c1.2-5.3,2.6-10.5,4.2-15.7c1.6-5.2,3.3-10.4,5.5-15.4c2.2-5.1,4.6-10.1,8.1-14.8
				c0.8-1.1,2.2-1.6,3.5-1.4l0.1,0l32,5.4l16,2.7l16,2.8l16,2.9l15.9,3c10.6,2,21.2,4,31.7,6.1l31.5,6.2l31.2,6.3
				C122.4,969,142.8,973.3,163,977.5z M162.3,977.8l-64.6-9.6l-31.8-4.8l-31.5-4.9c-10.5-1.6-20.9-3.4-31.3-5.1l-15.6-2.6l-15.5-2.7
				l-15.5-2.7l-15.5-2.8l-31.1-5.8l3.6-1.4c-3,3.8-5.4,8.4-7.5,13.1c-2.1,4.7-3.9,9.6-5.6,14.6c-1.6,5-3.1,10.1-4.6,15.2
				c-1.4,5.1-2.7,10.3-3.9,15.4c-2.4,10.3-4.6,20.8-6.4,31.3c-1.9,10.5-3.5,21.1-4.7,31.6l-1.1-1.5c25.6,5.2,51.6,8.5,77.7,8.9
				c13,0.2,26.1-0.3,39-1.5c3.2-0.2,6.5-0.6,9.7-1c3.2-0.4,6.4-0.8,9.6-1.3c6.4-0.8,12.8-2.1,19.1-3.3c12.7-2.6,25.2-5.8,37.3-10.2
				c1.5-0.5,3-1.1,4.5-1.7c1.5-0.6,3-1.1,4.5-1.8c3-1.2,5.9-2.5,8.9-3.8c5.9-2.7,11.6-5.7,17.1-8.9c11.1-6.5,21.6-14.2,31-23
				c4.7-4.4,9.2-9.1,13.3-14.2c2.1-2.5,4-5.1,5.9-7.8c0.9-1.3,1.8-2.7,2.7-4.1c0.4-0.7,0.8-1.4,1.3-2.1l0.6-1.1l0.3-0.5l0.1-0.3
				l0.1-0.1c0,0,0-0.1,0,0C162.2,977.7,162.3,977.8,162.3,977.8z"/>
		</g>
		<g>
			<path class="st13" d="M-115.5,1019.2c0,0,0-0.3,0.1-1c-3.5,21.5-5.2,38.3-5.2,38.3c231.2,44.3,283.2-78.8,283.2-78.8l-20.4-3.6
				C108.1,1006.8,33.5,1047.8-115.5,1019.2z"/>
			<path class="st4" d="M-115.7,1019.4c0-0.4,0-0.8,0-1.2l0.6,0.1l-1.2,9.6c-0.4,3.2-0.8,6.4-1.1,9.6c-0.4,3.2-0.7,6.4-1,9.6
				c-0.3,3.2-0.6,6.4-0.9,9.6l-1-1.4c25.7,4.4,51.7,7.4,77.7,8.4c3.3,0.1,6.5,0.1,9.8,0.1l4.9,0.1c1.6,0,3.3,0.1,4.9,0l9.7-0.2
				l4.9-0.1l4.9-0.3l9.7-0.6c3.2-0.3,6.5-0.6,9.7-1l4.9-0.5c1.6-0.2,3.2-0.5,4.8-0.7c3.2-0.5,6.4-0.9,9.6-1.5
				c12.8-2.3,25.5-5.4,37.8-9.8c12.3-4.3,24.2-9.9,35.2-16.8c5.5-3.5,10.9-7.1,16-11.2l3.8-3.1l3.6-3.2l1.8-1.6l1.7-1.7
				c1.2-1.1,2.3-2.2,3.5-3.4c4.5-4.7,8.7-9.6,12.5-14.8l1.4-2l1.3-2c0.9-1.3,1.8-2.7,2.6-4.1c1.6-2.7,3.2-5.6,4.5-8.4l1.4,2.5
				l-20.4-3.4l1.8-0.5c-16.4,16.1-36.4,28.2-57.5,37c-21.2,8.7-43.7,13.9-66.4,16.4c-22.7,2.6-45.5,2.5-68.2,0.8
				c-11.3-1-22.6-2.2-33.8-4c-5.6-0.8-11.2-1.9-16.8-2.9c-2.8-0.5-5.7-1.1-8.5-1.7L-115.7,1019.4z M-115.3,1019.1l8.4,1.2
				c2.7,0.4,5.4,0.8,8.3,1.2l8.4,1.1c2.8,0.4,5.6,0.6,8.4,1c11.2,1.3,22.5,2.2,33.7,2.7c11.3,0.6,22.5,0.6,33.8,0.3
				c11.2-0.3,22.5-1.2,33.6-2.6c22.3-2.8,44.2-8,65-16.2c5.2-2.1,10.3-4.3,15.3-6.9c2.5-1.2,5-2.6,7.4-3.9c1.2-0.7,2.4-1.4,3.6-2.1
				l1.8-1.1l1.8-1.1c4.8-2.9,9.4-6.1,13.8-9.5c4.4-3.4,8.7-6.9,12.8-10.8l0,0c0.5-0.5,1.2-0.6,1.8-0.5l20.4,3.8l0.1,0
				c1,0.2,1.6,1.1,1.4,2.1c0,0.1-0.1,0.3-0.1,0.4c-1.5,3.2-3.2,5.9-5,8.8c-0.9,1.4-1.8,2.8-2.8,4.1l-1.5,2l-1.5,2
				c-4.1,5.2-8.5,10.1-13.2,14.7c-1.2,1.2-2.4,2.2-3.6,3.4l-1.8,1.7l-1.9,1.6l-3.8,3.2c-1.3,1-2.6,2-3.9,3c-2.6,2-5.3,3.9-8,5.8
				c-1.3,1-2.7,1.8-4.1,2.7l-4.2,2.6c-11.2,6.8-23.2,12.4-35.5,17c-12.3,4.6-24.9,8.3-37.8,11.1c-3.2,0.7-6.5,1.2-9.7,1.8
				c-1.6,0.3-3.2,0.6-4.9,0.9l-4.9,0.7c-3.3,0.4-6.5,0.9-9.8,1.3l-9.8,0.8l-4.9,0.4l-4.9,0.2l-9.9,0.3c-1.6,0.1-3.3,0-4.9,0
				l-4.9-0.1c-3.3-0.1-6.6-0.1-9.9-0.2c-26.3-1.1-52.4-4.8-78-10.2l0,0c-0.6-0.1-1.1-0.7-1-1.4c0.8-6.4,1.7-12.8,2.8-19.2
				c0.5-3.2,1-6.4,1.6-9.5c0.5-3.2,1.2-6.3,1.8-9.5l0,0c0-0.2,0.2-0.3,0.3-0.2c0.1,0,0.2,0.2,0.2,0.3
				C-115.1,1018.5-115.2,1018.8-115.3,1019.1z"/>
		</g>
		<g>
			
				<linearGradient id="SVGID_7_" gradientUnits="userSpaceOnUse" x1="7578.3989" y1="999.6111" x2="7865.3921" y2="999.6111" gradientTransform="matrix(-1 0 0 1 7949.5537 0)">
				<stop  offset="5.181347e-03" style="stop-color:#FC1E79"/>
				<stop  offset="1" style="stop-color:#2AD8FF"/>
			</linearGradient>
			<path class="st14" d="M84.2,977.6c0,0,55.8,123.2,287,78.8c0,0-13.1-94.8-34.9-123.4L84.2,977.6z"/>
			<path class="st4" d="M84.5,977.8c0.1,0,0.2,0,0.2,0c0,0,0,0,0,0.1l0.1,0.1l0.3,0.5c0.2,0.4,0.4,0.7,0.6,1.1
				c0.4,0.7,0.9,1.4,1.3,2.1c0.9,1.4,1.8,2.7,2.8,4c1,1.3,1.9,2.6,3,3.9l1.5,1.9l1.6,1.9c4.2,5,8.8,9.7,13.6,14.1
				c4.9,4.4,9.9,8.5,15.2,12.3c5.2,3.9,10.8,7.3,16.4,10.6c1.4,0.9,2.8,1.6,4.3,2.4l4.3,2.3c2.9,1.5,5.9,2.8,8.8,4.2
				c6,2.6,12,5.1,18.1,7.3c3,1.2,6.2,2.1,9.3,3.1l4.7,1.5c1.6,0.5,3.1,0.8,4.7,1.2l4.7,1.3c1.6,0.4,3.1,0.9,4.7,1.2l9.6,2.1
				c3.2,0.7,6.4,1.2,9.6,1.8l4.8,0.9c1.6,0.3,3.2,0.4,4.9,0.7l9.7,1.4l9.8,1l4.9,0.5c1.6,0.2,3.3,0.2,4.9,0.3l9.8,0.5l2.5,0.1l2.5,0
				l4.9,0.1l9.9,0.1c26.3-0.4,52.6-3.8,78.4-9.1l-1.2,1.6c-1.7-10.6-3.7-21.1-6-31.6c-2.3-10.5-4.7-20.9-7.5-31.3
				c-1.4-5.2-2.8-10.3-4.4-15.4c-1.6-5.1-3.2-10.2-5-15.2c-1.8-5-3.7-9.9-5.9-14.6c-2.2-4.7-4.7-9.3-7.7-13.2l3.7,1.4l-31,5.8
				c-10.3,1.9-20.7,3.7-31,5.5l-15.5,2.7l-15.6,2.6c-10.4,1.7-20.8,3.4-31.3,5l-31.5,4.9l-31.8,4.8L84.5,977.8z M83.8,977.5
				l61.4-12.6l31.2-6.3l31.5-6.2c10.5-2.1,21.1-4.1,31.7-6.1l15.9-3l16-2.9c10.7-1.9,21.3-3.8,32-5.6l32-5.4l0.1,0
				c1.4-0.2,2.8,0.4,3.6,1.5c3.5,4.7,6,9.7,8.3,14.8c2.3,5.1,4.1,10.2,5.8,15.4c3.4,10.4,6.1,20.9,8.5,31.4
				c2.3,10.6,4.3,21.2,6.1,31.8c1.7,10.7,3.3,21.3,4.7,32l0,0c0.1,0.8-0.4,1.5-1.2,1.6c-26.1,4.6-52.4,7.9-78.9,9.6l-9.9,0.4l-5,0.2
				l-2.5,0.1l-2.5,0l-10,0c-1.7,0-3.3,0-5,0l-5-0.2c-3.3-0.1-6.7-0.3-10-0.5l-10-0.9c-1.7-0.2-3.3-0.3-5-0.5l-5-0.7l-5-0.7
				c-1.6-0.3-3.3-0.4-4.9-0.8l-9.8-2.1c-1.6-0.3-3.3-0.8-4.9-1.2l-4.9-1.3c-1.6-0.5-3.2-0.9-4.8-1.3l-4.8-1.6c-3.2-1-6.4-2-9.5-3.3
				c-12.6-4.6-24.7-10.5-36.1-17.6c-11.3-7.2-22-15.5-31.3-25.1l-3.4-3.7c-1.1-1.2-2.2-2.5-3.3-3.8c-1.1-1.2-2.1-2.6-3.2-3.9l-1.6-2
				l-1.5-2l-1.5-2l-1.4-2.1c-0.9-1.4-1.8-2.8-2.7-4.2c-0.4-0.7-0.8-1.4-1.2-2.2c-0.4-0.7-0.8-1.5-1.2-2.2c-0.4-0.7-0.8-1.5-1.1-2.2
				c-0.2-0.4-0.4-0.7-0.5-1.1l-0.3-0.6l-0.1-0.1c0,0,0-0.1-0.1-0.2C83.8,977.8,83.8,977.6,83.8,977.5z"/>
		</g>
		<g>
			<path class="st13" d="M359.8,1019.2c-147.8,28.4-223.9-11.8-259.6-44.4l-16,2.8c0,0,55.8,123.2,287,78.8L359.8,1019.2z"/>
			<path class="st4" d="M359.7,1019.4l-8.3,1.8c-2.7,0.6-5.4,1.2-8.2,1.7l-8.4,1.5c-2.8,0.5-5.6,0.9-8.4,1.4
				c-5.6,0.9-11.3,1.6-16.9,2.3c-2.8,0.4-5.7,0.6-8.5,0.9c-2.8,0.3-5.7,0.6-8.5,0.7c-2.8,0.2-5.7,0.4-8.5,0.6l-8.6,0.3
				c-2.9,0.2-5.7,0.1-8.6,0.2l-4.3,0.1c-1.4,0-2.9,0-4.3-0.1c-11.4-0.2-22.9-0.8-34.2-2.2c-22.7-2.7-45.2-8.3-66.3-17.2
				c-21.1-8.9-40.9-20.8-57.9-36.1l0.7,0.2l-16,2.9l0.7-1.2c1.4,2.9,3.2,5.7,5,8.4c0.9,1.3,1.9,2.7,2.9,4l1.5,2l1.5,1.9
				c4.1,5.1,8.6,9.9,13.4,14.4c1.2,1.1,2.4,2.2,3.6,3.3c1.2,1.1,2.4,2.2,3.7,3.2l3.8,3.1c1.3,1,2.6,2,3.9,2.9
				c5.2,3.9,10.7,7.5,16.4,10.8c1.4,0.9,2.8,1.6,4.3,2.4l4.3,2.3c2.9,1.5,5.9,2.9,8.8,4.3c1.5,0.7,3,1.3,4.5,2l4.5,1.9
				c0.8,0.3,1.5,0.7,2.3,0.9l2.3,0.8l4.6,1.7c3,1.2,6.2,2.1,9.3,3.1l4.7,1.5c1.6,0.5,3.2,0.8,4.7,1.3l4.7,1.2
				c1.6,0.4,3.2,0.8,4.8,1.1l9.6,2c1.6,0.4,3.2,0.6,4.8,0.8l4.8,0.8l4.8,0.8c1.6,0.2,3.3,0.4,4.9,0.6l9.8,1.1l9.8,0.7l4.9,0.4
				c1.6,0.1,3.3,0.1,4.9,0.2l9.8,0.3l2.5,0.1l2.5,0l4.9-0.1l9.9-0.1c26.3-0.8,52.5-3.8,78.5-8.2l-0.9,1.6
				c-1.8-6.1-3.4-12.3-5.1-18.5L359.7,1019.4z M359.9,1019l6.2,18.4c2.1,6.2,4.2,12.4,6.2,18.8c0.2,0.6-0.1,1.3-0.8,1.5
				c0,0-0.1,0-0.1,0l0,0c-25.9,5.4-52.2,9.3-78.8,10.5c-26.5,1.1-53.3-0.2-79.5-5.3l-9.8-2.2c-1.6-0.3-3.2-0.8-4.8-1.2l-4.8-1.3
				c-1.6-0.4-3.2-0.9-4.8-1.3l-4.8-1.6c-3.2-1-6.4-2-9.5-3.3l-4.7-1.8l-2.3-0.9c-0.8-0.3-1.5-0.7-2.3-1l-4.6-2
				c-1.5-0.7-3.1-1.3-4.6-2.1l-4.5-2.3c-1.5-0.8-3-1.5-4.4-2.3l-4.3-2.5c-1.4-0.8-2.9-1.6-4.3-2.5c-11.4-7-22-15.2-31.4-24.7
				c-4.7-4.7-9.1-9.7-13.2-15c-4-5.3-7.7-10.8-10.7-16.9c-0.2-0.4,0-1,0.4-1.2c0.1,0,0.2-0.1,0.2-0.1l0,0l16-2.7l0,0
				c0.2,0,0.5,0,0.7,0.2c8.3,7.6,17.5,14.4,27.2,20.2c9.7,5.8,20,10.6,30.6,14.6c21.2,8,43.4,12.5,65.8,15.2
				c2.8,0.3,5.6,0.6,8.4,0.9l8.4,0.7l8.5,0.5c2.8,0.2,5.6,0.2,8.5,0.3c11.3,0.3,22.6,0.2,33.9-0.4c11.3-0.6,22.6-1.5,33.9-2.7
				c2.8-0.3,5.6-0.6,8.5-0.9l8.4-1.1c2.8-0.3,5.7-0.8,8.6-1.2L359.9,1019z"/>
		</g>
		<g>
			<path class="st4" d="M82.9,1004.7c-62.7,0-125.4-12.6-186.5-37.4c-1.2-0.5-1.8-1.7-1.5-2.9c0.1-0.5,14.6-54.5,25.4-101.3
				c0.3-1.1,1.3-1.9,2.4-1.9c0.1,0,0.3,0,0.4,0c0.8,0.1,77.6,13.1,173.9,13.1c81,0,151.8-8.9,210.7-26.3c0.2-0.1,0.5-0.1,0.7-0.1
				c0.6,0,1.2,0.2,1.7,0.7c1.3,1.2,31.5,30.2,27.3,80.7c-0.1,0.7-0.4,1.4-1,1.8c-0.3,0.2-25.9,18.7-69.8,36.9
				C226.2,984.7,161.5,1004.7,82.9,1004.7z"/>
			<path class="st4" d="M308.5,850.3c0,0,30.7,28.8,26.5,78.7c0,0-100.8,73.2-252.1,73.2c-55.8,0-118.5-9.9-185.6-37.2
				c0,0,14.5-54,25.4-101.4c0,0,76.6,13.1,174.4,13.1C163.6,876.8,239.9,870.7,308.5,850.3 M308.5,845.4c-0.5,0-0.9,0.1-1.4,0.2
				c-58.6,17.4-129.2,26.2-210,26.2c-96.2,0-172.8-12.9-173.5-13c-0.3,0-0.6-0.1-0.8-0.1c-2.3,0-4.3,1.6-4.8,3.8
				c-10.8,46.7-25.3,100.7-25.4,101.2c-0.6,2.4,0.6,4.9,2.9,5.8c61.3,24.9,124.4,37.5,187.4,37.5c34.9,0,70-3.9,104.3-11.6
				c27.5-6.1,54.5-14.7,80.4-25.4c44.1-18.3,69.3-36.4,70.3-37.1c1.2-0.8,1.9-2.1,2-3.6c2.2-27-5.4-48-12.3-60.8
				c-7.4-14-15.5-21.6-15.8-21.9C310.9,845.9,309.7,845.4,308.5,845.4L308.5,845.4z"/>
		</g>
		<g>
			<path class="st4" d="M111.8,997.2c-68.5,0-137.5-16.6-205.2-49.3c-0.9-0.5-1.5-1.5-1.4-2.5c0-0.3,4.3-35.4,15.2-82.3
				c0.3-1.1,1.3-1.9,2.4-1.9c0.1,0,0.3,0,0.4,0c0.8,0.1,77.6,13.1,173.9,13.1c81,0,151.8-8.9,210.7-26.3c0.2-0.1,0.5-0.1,0.7-0.1
				c0.6,0,1.2,0.2,1.7,0.7c1.3,1.2,31.5,30.2,27.3,80.7c-0.1,0.7-0.4,1.3-1,1.8c-0.2,0.2-22.5,16.8-61.1,33.1
				C239.8,979.2,182.5,997.2,111.8,997.2z"/>
			<path class="st4" d="M308.5,850.3c0,0,30.7,28.8,26.5,78.7c0,0-87.1,65.7-223.2,65.7c-59.7,0-128.8-12.6-204.1-49
				c0,0,4.2-34.7,15.1-82c0,0,76.6,13.1,174.4,13.1C163.6,876.8,239.9,870.7,308.5,850.3 M308.5,845.4c-0.5,0-0.9,0.1-1.4,0.2
				c-58.6,17.4-129.2,26.2-210,26.2c-96.2,0-172.8-12.9-173.5-13c-0.3,0-0.6-0.1-0.8-0.1c-2.3,0-4.3,1.6-4.8,3.8
				c-10.9,47.1-15.2,82.2-15.2,82.6c-0.3,2.1,0.9,4.1,2.7,5c68,32.9,137.4,49.5,206.3,49.5c31.4,0,62.8-3.5,93.4-10.4
				c24.4-5.5,48.4-13.2,71.2-22.8c38.9-16.5,60.7-32.8,61.6-33.4c1.1-0.8,1.8-2.1,1.9-3.5c2.2-27-5.4-48-12.3-60.8
				c-7.4-14-15.5-21.6-15.8-21.9C310.9,845.9,309.7,845.4,308.5,845.4L308.5,845.4z"/>
		</g>
		
			<linearGradient id="SVGID_8_" gradientUnits="userSpaceOnUse" x1="1012.4325" y1="920.775" x2="1152.3177" y2="920.775" gradientTransform="matrix(1 0 0 1 -817.3132 0)">
			<stop  offset="0" style="stop-color:#2AD8FF"/>
			<stop  offset="0.9948" style="stop-color:#FC1E79"/>
		</linearGradient>
		<path class="st15" d="M301.7,858.4c0,0-41.1,12.4-106.6,15.2c0,0,40.5,5.8,68.5,9.1c4.7,0.5,5.5,6.9,1.1,8.7
			c-13.4,5.3-27.1,12.3-15.8,15.6c19.4,5.5,55.5-1.4,44.4,9.7s-74.9,15.7-65.2,20.3c9.7,4.6,58.3,3.2,65.2,0.5
			c0,0-49.4,27.7-83.7,45.8c0,0,96.2-29.1,125.3-52.7C335,930.4,326.7,873.8,301.7,858.4z"/>
		
			<linearGradient id="SVGID_9_" gradientUnits="userSpaceOnUse" x1="724.9758" y1="921.418" x2="849.3001" y2="921.418" gradientTransform="matrix(1 0 0 1 -817.3132 0)">
			<stop  offset="0" style="stop-color:#2AD8FF"/>
			<stop  offset="0.9948" style="stop-color:#FC1E79"/>
		</linearGradient>
		<path class="st16" d="M-77.1,863.8c0,0,68.3,9.7,109.1,11.1c0,0-50.8,12.5-70.2,11.1c-19.4-1.4-6.9,19.4,9.7,20.8
			c16.6,1.4,4.2,16.6-15.3,18s8.3,18,33.3,20.8c25,2.8,4.2,20.8,36.1,33.3c0,0-91.6-19.4-117.9-33.3L-77.1,863.8z"/>
		<polygon class="st4" points="-84,888.1 25.6,913.8 -90.9,902.7 		"/>
		<polygon class="st4" points="-90.9,923.4 8.9,940.1 -95.1,931.8 		"/>
		<polygon class="st4" points="326.8,882.6 190.7,930.4 333.4,899.4 		"/>
		<path class="st9" d="M94.5,999.6c0,0,13.5,26.6,20.8,33l10.4-8L94.5,999.6z"/>
	</g>
	<g>
		<circle class="st3" cx="369.7" cy="577.4" r="68"/>
		<path class="st4" d="M438.1,577.4c0,9-1.6,17.9-4.6,26.4c-3.1,8.5-7.7,16.6-13.9,23.4c-6.2,6.9-13.9,12.5-22.5,16.2
			c-8.6,3.7-18,5.5-27.4,5.2c-4.7-0.1-9.3-0.8-13.8-1.9c-4.5-1.1-8.9-2.6-13-4.6c-4.2-2-8.1-4.3-11.8-7c-3.7-2.6-7.2-5.6-10.3-8.9
			c-6.3-6.5-11.5-14.1-15.1-22.4c-3.6-8.3-5.7-17.3-6.1-26.5c-0.3-9.2,1-18.5,4.4-27.2c3.3-8.7,8.5-16.7,15-23.5
			c6.5-6.8,14.4-12.2,23.1-15.9c8.7-3.8,18.2-5.6,27.6-5.6c9.4,0.1,18.9,2,27.5,5.9c1.1,0.5,2.1,1,3.2,1.5c1,0.5,2.1,1.1,3.1,1.7
			c1,0.6,2,1.2,3,1.9c1,0.6,1.9,1.3,2.9,2c3.8,2.7,7.2,5.9,10.3,9.4c6.2,6.9,10.8,15,13.9,23.5C436.6,559.5,438.1,568.5,438.1,577.4
			z M437.3,577.4c0-8.8-2-17.7-5.8-25.6c-3.7-8-9.2-14.9-15.6-20.6c-3.2-2.9-6.7-5.3-10.3-7.5c-0.9-0.5-1.8-1.1-2.8-1.6
			c-0.9-0.5-1.9-1-2.8-1.4c-1-0.4-1.9-0.9-2.9-1.3c-1-0.4-1.9-0.8-2.9-1.2c-7.8-3-16.2-4.5-24.6-4.5c-8.4,0-16.7,1.7-24.4,4.8
			c-7.8,3.1-14.9,7.7-21,13.6c-12.1,11.7-19.7,28.2-20.4,45.4c-0.3,8.6,1,17.4,4.2,25.5c3.2,8.1,8.1,15.6,14.4,21.7
			c3.2,3,6.6,5.7,10.3,8c3.7,2.3,7.6,4.2,11.7,5.6c8.1,2.9,16.7,4.2,25.2,3.9c17-0.5,33.4-7,46.3-18.4c6.4-5.7,11.9-12.7,15.6-20.7
			C435.3,595.1,437.3,586.3,437.3,577.4z"/>
	</g>
	<g>
		<path class="st4" d="M387.3,616.9c-18.9,5.5-38.7-5.3-44.2-24.1s5.3-38.7,24.1-44.2c18.9-5.5,38.7,5.3,44.2,24.1
			c0,0-15.4-6.3-17.5-0.1s-3.5,31.2-16.6,30.5S387.3,616.9,387.3,616.9z"/>
		<path class="st4" d="M387.7,616.9c-0.4,0.2-0.8,0.5-1.4,0.8c-0.3,0.1-0.6,0.3-0.8,0.3l-0.6,0.2c-0.8,0.3-1.7,0.5-2.6,0.8
			c-1.8,0.4-3.6,0.8-5.4,0.9c-3.7,0.3-7.4,0-11.1-0.9c-7.3-1.8-14.1-6-19-11.9c-4.9-5.9-8.1-13.4-8.4-21c-0.4-7.7,2-15.2,5.9-21.4
			c4-6.2,9.4-11.3,15.8-14.7c6.4-3.4,13.7-5.2,21.1-4.9c7.4,0.3,14.9,2.9,21,7.6c6.1,4.7,10.7,11.4,13,18.8c0.7,2.1-0.5,4.3-2.5,4.9
			c-0.9,0.3-1.7,0.2-2.5,0l-0.2-0.1c-2.8-1-5.9-1.9-8.7-2.2c-1.3-0.2-2.7-0.1-3.3,0.1c-0.3,0.1-0.3,0.1-0.1,0
			c0.1-0.1,0.1-0.2,0.1-0.2c0,0,0,0,0,0l0,0.1l-0.1,0.2l-0.1,0.5c-0.3,1.4-0.7,3-1,4.7c-0.3,1.6-0.7,3.3-1.1,5
			c-0.8,3.4-1.8,6.8-3.3,10.2c-0.7,1.7-1.6,3.4-2.7,5c-1.1,1.6-2.5,3.2-4.3,4.5c-1.8,1.3-4.1,2.1-6.4,2.2c-0.6,0-1.1,0-1.6,0
			l-1.1-0.1c-0.3,0-0.6,0-0.8,0c-0.2,0-0.3,0-0.1-0.1c0.1-0.1,0.3-0.3,0.5-0.7c0.1-0.3,0.1-0.6,0.1-0.7c-0.1-0.2-0.1,0,0,0.2
			c0.2,0.4,0.6,1.1,1.1,1.6c0.9,1.2,2.1,2.4,3.2,3.5c1.2,1.2,2.4,2.3,3.6,3.4l1.9,1.7l0.9,0.8l0.5,0.4l0.2,0.2l0.1,0.1l0.1,0.1
			C387.6,616.6,387.7,616.8,387.7,616.9z M386.9,616.8c-0.1,0.1,0,0.3,0.1,0.4l-0.1,0l-0.1-0.1l-0.3-0.1l-0.6-0.3l-1.2-0.5l-2.3-1.1
			c-1.5-0.8-3-1.6-4.5-2.5c-1.5-0.9-2.9-1.9-4.3-3.1c-0.7-0.6-1.4-1.3-2.1-2.2c-0.3-0.5-0.7-1.1-0.9-2.1c-0.1-0.5-0.1-1.2,0.2-2
			c0.3-0.7,0.8-1.3,1.2-1.6c0.9-0.7,1.6-0.8,2.3-1c0.6-0.1,1.2-0.2,1.7-0.3c0.5,0,1.1-0.1,1.5-0.1c0.3,0,0.6,0,0.9-0.1
			c1.1-0.2,2-0.6,2.9-1.4c1.7-1.5,3.1-4.1,4.1-6.9c1-2.8,1.7-5.9,2.3-9.1l0.9-4.8c0.3-1.7,0.6-3.3,1-5.2l0.2-0.7l0.1-0.4l0.1-0.2
			l0.1-0.3c0.3-0.8,0.8-1.7,1.4-2.4c1.3-1.4,2.9-2.2,4.2-2.5c2.7-0.7,4.7-0.4,6.7-0.2c1.9,0.3,3.7,0.8,5.5,1.3
			c1.8,0.5,3.4,1.1,5.1,1.9l-5.3,4.8c-1.6-6-5-11.6-9.7-15.9c-4.7-4.3-10.6-7.4-17.1-8.6c-1.6-0.3-3.3-0.5-4.9-0.5
			c-1.7,0-3.3,0.1-5,0.3c-1.7,0.3-3.3,0.6-4.9,1.1c-1.6,0.5-3.2,1.2-4.7,1.9c-3,1.5-5.8,3.6-8.1,6c-1.1,1.2-2.2,2.5-3.2,3.9
			c-0.9,1.4-1.7,2.9-2.4,4.4c-2.8,6.1-3.4,12.8-2.5,19.1c0.9,6.3,3.2,12.3,7.1,17.3c3.8,5,9.1,9,15.2,11.4c3,1.2,6.3,2,9.6,2.4
			c1.7,0.2,3.4,0.2,5.1,0.2c0.9,0,1.7-0.1,2.6-0.1l0.6,0c0.2,0,0.3,0,0.5,0C386,616.7,386.4,616.8,386.9,616.8z"/>
	</g>
	<g>
		<circle class="st3" cx="-182.5" cy="577.4" r="68"/>
		<path class="st4" d="M-250.1,577.4c0,8.8,1.9,17.7,5.7,25.6c3.7,8,9.2,15,15.6,20.7c12.9,11.4,29.3,17.9,46.3,18.4
			c8.5,0.3,17.1-1,25.2-3.9c4.1-1.4,8-3.4,11.7-5.6c3.7-2.3,7.2-5,10.3-8c6.3-6.1,11.2-13.6,14.4-21.7c3.2-8.1,4.6-16.9,4.2-25.5
			c-0.7-17.3-8.3-33.7-20.4-45.4c-6.1-5.8-13.2-10.5-21-13.6c-7.8-3.1-16.1-4.7-24.4-4.8c-8.4-0.1-16.7,1.5-24.6,4.5
			c-1,0.4-1.9,0.8-2.9,1.2c-1,0.4-1.9,0.9-2.9,1.3c-1,0.5-1.9,1-2.8,1.4c-0.9,0.5-1.8,1.1-2.8,1.6c-3.6,2.2-7.1,4.7-10.3,7.5
			c-6.4,5.7-11.9,12.7-15.6,20.6C-248.1,559.7-250.1,568.6-250.1,577.4z M-250.9,577.4c0-9,1.5-17.9,4.6-26.4
			c3.1-8.5,7.7-16.6,13.9-23.5c3.1-3.4,6.5-6.6,10.3-9.4c1-0.7,1.9-1.4,2.9-2c1-0.6,2-1.3,3-1.9c1-0.6,2-1.2,3.1-1.7
			c1.1-0.5,2.1-1.1,3.2-1.5c8.6-3.8,18-5.8,27.5-5.9c9.4,0,18.9,1.8,27.6,5.6c8.7,3.7,16.6,9.2,23.1,15.9c6.5,6.7,11.7,14.8,15,23.5
			c3.4,8.7,4.7,18.1,4.4,27.2c-0.3,9.2-2.5,18.2-6.1,26.5c-3.6,8.3-8.8,15.9-15.1,22.4c-3.1,3.3-6.6,6.3-10.3,8.9
			c-3.7,2.7-7.7,5-11.8,7c-4.2,2-8.5,3.5-13,4.6c-4.5,1.1-9.1,1.7-13.8,1.9c-9.3,0.3-18.8-1.5-27.4-5.2c-8.6-3.7-16.3-9.3-22.5-16.2
			c-6.2-6.9-10.8-15-13.9-23.4C-249.3,595.3-250.9,586.4-250.9,577.4z"/>
	</g>
	<path class="st17" d="M-233.7,532.7c0,0,0.6,12.7,8.9,28.8l47.2,55.5c0,0,1.4,18.6-4.2,27.7c0,0,38.4-6.9,42.8-18.7
		s-66.4-118.6-66.4-118.6L-233.7,532.7z"/>
	<g>
		<path class="st4" d="M-200.1,616.9c18.9,5.5,38.7-5.3,44.2-24.1s-5.3-38.7-24.1-44.2c-18.9-5.5-38.7,5.3-44.2,24.1
			c0,0,11.9-12.6,18.2-3.5l12.5,15.3c0,0-16.6,20.8,7.6,22.9L-200.1,616.9z"/>
		<path class="st4" d="M-199.7,616.8c0.5,0,0.9-0.1,1.2-0.1c0.2,0,0.3,0,0.5,0l0.6,0c0.9,0.1,1.7,0.1,2.6,0.1c1.7,0,3.4,0,5.1-0.2
			c1.7-0.2,3.3-0.5,4.9-0.9c1.6-0.4,3.2-0.9,4.7-1.5c6.1-2.4,11.4-6.4,15.2-11.4c3.9-5,6.2-11.1,7-17.4c0.9-6.3,0.2-12.9-2.6-19
			c-2.7-6.1-7.6-11.3-13.6-14.4c-6-3.1-13.1-4.1-19.6-3c-6.5,1.1-12.5,4.3-17.2,8.6c-4.7,4.3-8.1,9.9-9.7,15.9l-6.6-3.8
			c0.8-0.8,1.5-1.5,2.2-2.1c0.7-0.7,1.5-1.3,2.3-1.9c1.6-1.2,3.4-2.3,5.5-3.2c1.1-0.4,2.2-0.8,3.5-1c1.3-0.2,2.7-0.2,4.1,0.2
			c1.4,0.3,2.8,1,4,1.9c1.1,0.9,2,1.9,2.8,2.9l-0.2-0.3l3.1,3.8l3.1,3.9c2,2.6,4,5.2,5.9,7.9l0.2,0.2c1,1.4,0.9,3.2-0.1,4.5
			c-0.3,0.4-0.7,0.9-1,1.4c-0.4,0.5-0.7,1-1,1.5c-0.6,1-1.2,2.1-1.7,3.2c-1,2.1-1.5,4.3-1.2,6c0.1,0.8,0.4,1.5,0.9,2.1
			c0.5,0.6,1.3,1.2,2.2,1.7c1.9,1,4.3,1.5,6.9,1.8l0.5,0.1c1.5,0.2,2.6,1.6,2.4,3.1c-0.1,0.9-0.7,1.7-1.5,2.1
			c-1.1,0.5-2.2,1.1-3.3,1.6c-1.2,0.5-2.4,1-3.7,1.6c-1.3,0.5-2.7,1.1-4,1.8C-196.8,615.3-198.3,616-199.7,616.8z M-200.5,616.9
			c0.9-0.8,1.8-1.6,2.7-2.6l3-3c1.1-1.1,2.2-2.2,3.4-3.3c1.2-1.1,2.5-2.2,3.7-3.2l1.4,5.3c-2.9-0.2-5.9-0.6-9-1.9
			c-1.5-0.7-3.1-1.6-4.4-3.1c-1.3-1.4-2.3-3.3-2.7-5.1c-0.4-1.9-0.3-3.7-0.1-5.4c0.3-1.7,0.8-3.2,1.3-4.7c0.6-1.5,1.3-2.8,2-4.1
			c0.4-0.7,0.8-1.3,1.2-1.9c0.4-0.7,0.8-1.2,1.3-1.9l0,4.7c-2.2-2.4-4.4-4.9-6.5-7.4l-3.2-3.8l-3.1-3.8c-0.1-0.1-0.1-0.2-0.2-0.3
			c-0.3-0.4-0.6-0.8-0.9-1c-0.3-0.2-0.5-0.3-0.8-0.4c-0.6-0.2-1.6-0.1-2.8,0.3c-1.2,0.4-2.5,1.1-3.8,2c-0.6,0.4-1.3,0.9-1.9,1.4
			c-0.6,0.5-1.2,1.1-1.7,1.5l-0.2,0.2c-1.6,1.5-4,1.4-5.5-0.1c-1-1.1-1.3-2.6-0.9-3.9c2.4-7.4,6.9-14,13-18.7
			c6.1-4.7,13.5-7.2,20.9-7.5c7.4-0.4,14.7,1.4,21.1,4.7c6.4,3.4,11.9,8.4,15.9,14.6c1,1.6,1.9,3.2,2.7,4.9c0.8,1.7,1.4,3.5,1.9,5.3
			c1,3.6,1.5,7.5,1.3,11.3c-0.4,7.7-3.5,15.2-8.5,21c-2.5,2.9-5.4,5.5-8.6,7.5c-3.2,2-6.8,3.5-10.4,4.4c-3.6,0.9-7.4,1.2-11.1,0.9
			c-1.8-0.1-3.6-0.5-5.4-0.9c-0.9-0.2-1.7-0.5-2.6-0.8l-0.6-0.2c-0.2-0.1-0.5-0.2-0.8-0.3C-199.7,617.5-200.2,617.1-200.5,616.9z"/>
	</g>
	<path class="st0" d="M419.6,429.6c0-167.4-143-303.2-319.3-303.2S-219,262.1-219,429.6c0,64,20.9,123.3,56.5,172.2
		c9.7,13.4,14,30.1,10.7,46.3c-0.9,4.3-1.3,8.6-1.3,13c0,70.6,113.5,127.8,253.4,127.8S353.7,731.6,353.7,661c0-4.4-0.4-8.7-1.3-13
		c-3.2-16.2,1-32.9,10.7-46.3C398.8,552.8,419.6,493.5,419.6,429.6z"/>
	
		<linearGradient id="SVGID_10_" gradientUnits="userSpaceOnUse" x1="662.7373" y1="462.2486" x2="1182.8422" y2="462.2486" gradientTransform="matrix(1 0 0 1 -817.3132 0)">
		<stop  offset="0" style="stop-color:#2AD8FF"/>
		<stop  offset="0.9948" style="stop-color:#FC1E79"/>
	</linearGradient>
	<path class="st18" d="M-149.5,458.6l47.4,10.6c0,0,6.6,10.9,24.6,22s140.6,43.7,193.3,41.7c36.1-1.4,189.5-58,189.5-73.3l60.1-9.8
		l-27.7-58.3l-492.4,21.3L-149.5,458.6z"/>
	<g>
		
			<linearGradient id="SVGID_11_" gradientUnits="userSpaceOnUse" x1="662.7373" y1="702.6417" x2="1171.0291" y2="702.6417" gradientTransform="matrix(1 0 0 1 -817.3132 0)">
			<stop  offset="0" style="stop-color:#2AD8FF"/>
			<stop  offset="0.9948" style="stop-color:#FC1E79"/>
		</linearGradient>
		<path class="st19" d="M353.7,661c0-4.4-1.8-8.7-2.7-13c-0.6-3.2-3.8-6.5-3.8-9.7c-49.1,29.9-132.5,78.6-188.4,41.8
			c-65.2-43-142.5,8.8-142.5,8.8c-105.7-11.6-167-68.7-170.8-72.4c3.8,10,4.9,20.9,2.8,31.6c-0.9,4.3-1.3,8.6-1.3,13
			c0,70.6,113.5,127.8,253.4,127.8C240.3,788.8,353.7,731.6,353.7,661z"/>
		<path class="st4" d="M353.3,661c0-3.9-1.5-7.7-2.4-11.5l-0.3-1.5c-0.1-0.5-0.2-0.9-0.4-1.3c-0.4-0.9-0.8-1.8-1.3-2.6
			c-0.9-1.7-2-3.5-2.1-5.7l0.7,0.4l-9.4,5.8l-9.5,5.7c-6.3,3.8-12.7,7.5-19.2,11.1c-12.9,7.2-26.1,13.9-39.8,19.7
			c-13.7,5.7-27.9,10.5-42.6,13.2c-7.4,1.3-14.9,2.1-22.5,2.2c-7.6,0-15.2-0.8-22.7-2.6c-7.5-1.8-14.7-4.7-21.3-8.5
			c-0.8-0.5-1.7-1-2.5-1.5l-2.3-1.5c-1.5-1-3-1.8-4.6-2.7c-3.1-1.7-6.3-3.3-9.6-4.7c-6.5-2.8-13.4-4.9-20.4-6.3
			c-7-1.3-14.1-2-21.3-2c-14.3,0-28.7,2.5-42.6,6.7c-6.9,2.1-13.8,4.6-20.4,7.6c-3.3,1.5-6.6,3-9.9,4.7c-3.2,1.7-6.5,3.4-9.4,5.3
			l-0.1,0.1c-0.4,0.3-0.9,0.4-1.3,0.3c-15.7-2-31.2-5.1-46.4-9.1c-7.6-2.1-15.2-4.3-22.6-6.9c-7.5-2.6-14.9-5.3-22.1-8.4
			c-7.3-3.1-14.4-6.4-21.5-9.9c-7-3.5-13.9-7.4-20.7-11.4c-6.8-4-13.4-8.3-19.8-12.9c-3.2-2.3-6.4-4.7-9.5-7.1
			c-3.1-2.4-6.2-4.9-9.1-7.7l2.7-1.8c2.6,6.6,4.1,13.6,4.2,20.7c0.1,3.6-0.2,7.1-0.8,10.6l-0.4,2.5c-0.1,0.8-0.3,1.6-0.4,2.5
			c-0.2,1.7-0.4,3.3-0.4,5c-0.1,1.7-0.1,3.3,0,5c0,1.7,0.2,3.3,0.3,5c0.4,3.3,1,6.6,1.9,9.8c1.8,6.4,4.4,12.5,7.8,18.3
			c6.8,11.5,16.3,21.3,26.7,29.8c10.5,8.5,22,15.7,34.1,21.8c24.2,12.4,50.3,20.9,76.8,26.8c13.3,2.9,26.8,5.2,40.3,6.9
			c13.5,1.7,27.1,2.9,40.8,3.5c13.6,0.6,27.3,0.7,40.9,0.3c13.6-0.5,27.3-1.4,40.8-3c13.6-1.5,27-3.7,40.4-6.4
			c13.4-2.7,26.6-6.1,39.6-10.1c13-4.1,25.8-8.9,38.2-14.8c12.3-5.8,24.2-12.7,35.1-21c5.4-4.1,10.6-8.6,15.4-13.5
			c4.7-4.9,9.1-10.2,12.8-15.9C348.7,688.2,353.3,674.7,353.3,661z M354.1,661c0,3.5-0.3,6.9-0.8,10.3c-0.5,3.4-1.3,6.8-2.4,10.1
			c-2.1,6.6-5.1,12.9-8.7,18.8c-7.3,11.8-17.1,21.8-27.8,30.6c-10.8,8.7-22.5,16.2-34.8,22.6c-12.3,6.4-25.1,11.9-38.1,16.6
			c-26.1,9.4-53.4,15.4-80.9,19c-13.8,1.8-27.6,2.9-41.5,3.4c-13.9,0.6-27.7,0.6-41.6-0.1c-13.9-0.6-27.7-1.8-41.5-3.6
			c-13.8-1.9-27.4-4.4-41-7.5c-27-6.4-53.6-15.3-78.3-28.3c-12.3-6.5-24.2-14.1-34.9-23.1c-10.7-9.1-20.4-19.6-27.3-32
			c-3.4-6.2-6.2-12.8-7.8-19.8c-0.8-3.5-1.4-7-1.7-10.5c-0.1-1.8-0.2-3.6-0.2-5.3c0-1.8,0-3.6,0.2-5.3c0.1-1.8,0.3-3.5,0.6-5.3
			c0.1-0.9,0.3-1.8,0.4-2.6l0.5-2.5c0.6-3.3,0.9-6.6,0.9-9.9c0-6.6-1.2-13.3-3.5-19.6l0,0c-0.3-0.9,0.1-1.8,1-2.1
			c0.6-0.2,1.3-0.1,1.7,0.4c2.8,2.7,5.7,5.2,8.7,7.7c3,2.5,6.1,4.9,9.2,7.2c6.3,4.6,12.8,9,19.5,13.1c13.4,8.1,27.3,15.3,41.8,21.2
			c7.2,3,14.6,5.7,22,8.2c7.4,2.5,15,4.5,22.5,6.4c15.2,3.7,30.6,6.2,46.2,7.7l-1.4,0.4c3.2-2.1,6.4-4,9.7-5.8
			c3.3-1.8,6.6-3.5,10-5.1c6.7-3.2,13.7-6.1,20.8-8.5c14.2-4.8,29.1-7.8,44.3-8c7.6-0.1,15.2,0.5,22.7,1.9
			c7.5,1.4,14.8,3.7,21.8,6.7c3.5,1.5,6.9,3.2,10.2,5.1c1.6,1,3.3,1.9,4.9,3l2.3,1.5c0.7,0.5,1.5,1,2.2,1.4c6,3.6,12.6,6.3,19.5,8.1
			c6.8,1.8,14,2.8,21.1,3c7.2,0.2,14.4-0.3,21.6-1.3c14.4-2.1,28.5-6.1,42.2-11.2c13.8-5.1,27.1-11.3,40.2-18
			c6.5-3.4,13-7,19.4-10.6c3.2-1.8,6.4-3.7,9.6-5.5l9.5-5.7c0.2-0.1,0.5-0.1,0.6,0.2c0,0.1,0.1,0.2,0.1,0.2c0.1,1.8,1.1,3.6,2,5.3
			c0.5,0.9,0.9,1.8,1.3,2.7c0.2,0.5,0.3,1,0.5,1.5l0.3,1.4c0.5,1.9,1,3.8,1.5,5.8C353.7,657,354.1,659,354.1,661z"/>
	</g>
	<path class="st4" d="M-110.3,647.9c0,0-44.7,40.9,21.2,70.4S50,740.7,71.6,711.3l36.1,4h31.1c0,0,17.6,0.8,31.5,15.9
		c13.9,15.2,57.9,32.7,123.1,12.5c0,0-159.7,83.7-331.5,24.2c0,0-115-36.8-116.3-106.2v-45.5C-154.5,616.3-121.6,644.1-110.3,647.9z
		"/>
	<g>
		
			<linearGradient id="SVGID_12_" gradientUnits="userSpaceOnUse" x1="1145.3588" y1="508.7555" x2="1235.5662" y2="508.7555" gradientTransform="matrix(1 0 0 1 -817.3132 0)">
			<stop  offset="0" style="stop-color:#2AD8FF"/>
			<stop  offset="0.9948" style="stop-color:#FC1E79"/>
		</linearGradient>
		<path class="st20" d="M328.1,412.3c0,0-1.4,70.8,18,111c19.1,39.5,5.5,93,5.5,93s55.5-38.8,66.6-208.1
			C418.3,408.2,357.2,390.1,328.1,412.3z"/>
		<path class="st4" d="M328.4,412.5l1,12.8c0.4,4.3,0.7,8.6,1.2,12.9c0.8,8.6,1.9,17.2,3.2,25.7c1.3,8.5,2.8,17,4.8,25.3
			c1,4.2,2,8.3,3.2,12.4c1.2,4.1,2.5,8.1,4.1,12c0.4,1,0.8,1.9,1.2,2.9c0.4,1,0.8,1.9,1.2,2.9l1.3,2.9l1.4,3.1
			c1.7,4.2,3.1,8.5,4.2,12.8c1.1,4.3,1.9,8.7,2.4,13.1c0.6,4.4,0.8,8.8,1,13.2c0.2,8.8-0.3,17.6-1.3,26.3c-0.5,4.3-1.1,8.7-1.8,13
			c-0.7,4.3-1.5,8.6-2.6,12.9l-1.8-1.3c1.7-1.3,3.4-2.9,5-4.5c1.6-1.7,3.1-3.4,4.5-5.2c2.9-3.5,5.5-7.3,8-11.2
			c4.9-7.8,9-16.1,12.6-24.5c3.6-8.5,6.7-17.2,9.5-26c1.4-4.4,2.6-8.8,4-13.2c1.2-4.5,2.4-8.9,3.5-13.4c4.4-17.9,7.7-36.1,10.2-54.3
			c2.6-18.3,4.6-36.6,6.2-55.1l2.7,3.8c-3.5-1.1-7.3-2-11-2.9c-3.7-0.9-7.4-1.7-11.2-2.3c-7.5-1.3-15.1-2.3-22.7-2.7
			c-7.6-0.4-15.2-0.2-22.7,1c-3.7,0.6-7.4,1.5-11,2.8c-1.8,0.6-3.6,1.4-5.3,2.2C331.6,410.6,329.9,411.7,328.4,412.5z M327.7,412.1
			c1.7-1.5,3.2-2.5,4.8-3.6c1.7-1.1,3.4-2,5.2-2.9c3.6-1.7,7.3-3,11.2-4c3.8-1,7.7-1.7,11.7-2.1c3.9-0.5,7.9-0.7,11.8-0.8
			c7.9-0.1,15.8,0.4,23.6,1.4c3.9,0.5,7.8,1.1,11.7,1.8c3.9,0.8,7.7,1.6,11.6,2.6c1.7,0.4,2.8,2,2.7,3.7l0,0.2
			c-0.9,18.7-2.5,37.3-5.3,55.8c-2.8,18.5-6.6,36.9-11.6,54.9c-4.9,18.1-11.5,35.8-20,52.5c-4.2,8.4-8.9,16.5-14.2,24.3
			c-2.7,3.9-5.5,7.6-8.5,11.2c-3.1,3.6-6.2,7-10.1,10.1c-0.5,0.4-1.2,0.3-1.6-0.2c-0.2-0.3-0.3-0.7-0.2-1l0-0.1
			c1.9-8.3,3-17,3.5-25.5c0.2-4.3,0.3-8.6,0.2-12.9c-0.1-4.3-0.4-8.6-0.8-12.8c-0.8-8.5-2.4-16.8-4.8-24.9c-1.2-4-2.7-7.9-4.3-11.8
			l-2.7-5.9c-0.5-1-0.9-2-1.3-3.1c-0.4-1-0.9-2.1-1.2-3.1c-6.2-16.7-9.1-34.2-10.8-51.5c-0.9-8.7-1.3-17.4-1.4-26.1
			c0-4.4,0-8.7,0.1-13.1c0.1-2.2,0.1-4.3,0.2-6.5l0.2-3.3l0.1-1.6l0.1-0.8l0-0.4l0-0.2C327.7,412.4,327.7,412.3,327.7,412.1z"/>
	</g>
	<path class="st4" d="M338.2,406.8c0,0,1.7,75.6,22.5,101.9l1.4-44.4c0,0,9,28.4,12.5,63.8c0,0,9-39.5,16.6-72.1
		c0,0,6.2,56.2-11.8,97.8l-13.9-31.9c0,0,14,56.3-2.4,79.8c0,0,58.5-71.4,56-221.7L338.2,406.8z"/>
	<g>
		
			<linearGradient id="SVGID_13_" gradientUnits="userSpaceOnUse" x1="584.6874" y1="508.2663" x2="672.2518" y2="508.2663" gradientTransform="matrix(1 0 0 1 -817.3132 0)">
			<stop  offset="0" style="stop-color:#2AD8FF"/>
			<stop  offset="0.9948" style="stop-color:#FC1E79"/>
		</linearGradient>
		<path class="st21" d="M-145.1,412.3c0,0-9.7,48.6-20.8,111c-9.2,51.9,11.1,93,11.1,93s-81.9-58.3-77.7-210.9
			C-232.5,405.4-174.2,390.1-145.1,412.3z"/>
		<path class="st4" d="M-144.7,412.2c0,0.3-0.1,0.8-0.1,1l-0.1,0.8l-0.2,1.6l-0.4,3.2l-0.9,6.4l-1.9,12.9c-1.3,8.6-2.6,17.1-4,25.7
			c-2.7,17.1-5.6,34.2-8.6,51.2c-0.7,4.3-1.5,8.6-2.2,12.7c-0.6,4.2-1.2,8.4-1.5,12.6c-0.7,8.4-0.9,17-0.4,25.5
			c0.5,8.5,1.6,17,3.4,25.4c0.9,4.2,2,8.3,3.3,12.4c0.6,2,1.3,4.1,2.1,6.1c0.8,2,1.6,4,2.5,5.9l0,0.1c0.3,0.6,0,1.3-0.6,1.6
			c-0.4,0.2-0.9,0.1-1.2-0.1c-7.8-6.1-14.6-13.1-21-20.4c-6.4-7.4-12.3-15.1-17.8-23.3c-5.4-8.1-10.4-16.6-14.7-25.4
			c-4.3-8.8-8.1-17.9-11.3-27.1c-6.5-18.5-10.9-37.7-13.5-57.2c-2.6-19.4-3.2-39.1-2.3-58.6l0-0.2c0.1-1.6,1.2-2.9,2.8-3.3
			c3.9-0.9,7.6-1.6,11.4-2.2c3.8-0.6,7.6-1,11.4-1.4c7.6-0.7,15.3-0.9,22.9-0.5c3.8,0.2,7.6,0.6,11.4,1.2c3.8,0.6,7.6,1.4,11.2,2.5
			c3.7,1.1,7.3,2.4,10.7,4.2c1.7,0.9,3.4,1.8,5,2.9c0.8,0.5,1.6,1.1,2.3,1.7c0.4,0.3,0.7,0.5,1.2,0.9
			C-145.5,411.5-145.1,411.8-144.7,412.2z M-145.4,412.5c-0.4-0.2-0.7-0.4-1.1-0.6l-1.2-0.7c-0.8-0.5-1.6-0.9-2.5-1.3
			c-1.7-0.8-3.3-1.6-5.1-2.2c-3.5-1.3-7-2.3-10.6-3c-7.2-1.4-14.6-1.9-22-1.8c-7.4,0.1-14.8,0.8-22.1,1.8c-3.7,0.5-7.3,1.2-10.9,1.9
			c-3.6,0.7-7.3,1.5-10.7,2.4l2.8-3.5c-0.1,19.2,0.9,38.4,3.3,57.3c2.4,19,6.2,37.8,12,56c2.9,9.1,6.3,18.1,10,26.9
			c3.8,8.8,8,17.4,12.8,25.7c4.8,8.3,10.2,16.3,16.3,23.7c1.5,1.9,3.1,3.7,4.7,5.5c1.6,1.8,3.3,3.5,5,5.2c3.4,3.4,6.9,6.7,10.7,9.5
			l-1.8,1.5c-1.9-4-3.5-8.1-5-12.2c-1.5-4.1-2.8-8.3-4-12.5c-2.4-8.4-4.2-17-5.3-25.8c-0.3-2.2-0.5-4.4-0.7-6.6
			c-0.2-2.2-0.3-4.4-0.4-6.6c-0.1-2.2-0.1-4.4-0.2-6.6c0-2.2,0.1-4.4,0.2-6.6c0.2-4.4,0.6-8.8,1.2-13.2c0.3-2.2,0.7-4.4,1.1-6.5
			c0.4-2.1,0.8-4.3,1.2-6.4c3.2-17,6.5-34.1,10.2-51c1.8-8.5,3.8-16.9,5.7-25.4c1-4.2,2-8.4,3.1-12.6l1.6-6.3l0.8-3.1l0.4-1.6
			l0.2-0.8C-145.6,412.7-145.5,412.7-145.4,412.5z"/>
	</g>
	<path class="st4" d="M-149.5,434.8c0,0-8.1,80.2-16.4,89.9c0,0-2.8-40.2,0-56.9c0,0-22.2,29.1-16.6,86c0,0-18-43-15.3-87.4
		c0,0-9.7,23.6-8.3,40.2c0,0-18.7-52.2-5.9-94.8L-149.5,434.8z"/>
	<g>
		
			<linearGradient id="SVGID_14_" gradientUnits="userSpaceOnUse" x1="629.981" y1="240.9866" x2="1212.4751" y2="240.9866" gradientTransform="matrix(1 0 0 1 -817.3132 0)">
			<stop  offset="0" style="stop-color:#2AD8FF"/>
			<stop  offset="0.9948" style="stop-color:#FC1E79"/>
		</linearGradient>
		<path class="st22" d="M145,128.6c0,0,169.3-75.8,250.2,175.6c0,0-260.3,77.1-303.3,75.8c-43-1.3-279.2-135.2-279.2-135.2
			S-27.3,28,145,128.6z"/>
		<path class="st4" d="M145,128.2C145,128.1,144.9,128.2,145,128.2l0.1-0.1l0.3-0.1l0.6-0.3l1.3-0.5c0.8-0.3,1.7-0.7,2.5-1
			c1.7-0.6,3.4-1.3,5.1-1.8c3.4-1.2,6.9-2.2,10.5-3.1c7-1.8,14.2-3.1,21.5-4c14.5-1.7,29.2-1.5,43.7,0.8c29,4.5,56.5,17.8,78.9,36.7
			c11.3,9.4,21.4,20.1,30.5,31.6c9,11.5,17.1,23.8,24.3,36.5c7.2,12.7,13.4,25.9,19.1,39.3c5.6,13.4,10.5,27.2,14.8,41l0,0.1
			c0.5,1.7-0.4,3.5-2.1,4c0,0-0.1,0-0.1,0c-50.1,14.2-100.4,27.3-150.7,40.5c-12.6,3.3-25.2,6.6-37.8,9.8
			c-12.6,3.2-25.2,6.4-37.8,9.5c-12.6,3.1-25.3,6.1-38,8.8c-3.2,0.7-6.4,1.4-9.6,2l-4.8,0.9l-4.8,0.9c-6.5,1.1-12.9,2.2-19.7,2.3
			c-0.8,0.1-1.7,0-2.6-0.1c-0.9,0-1.7-0.2-2.6-0.3c-1.7-0.2-3.3-0.6-4.9-0.9c-3.3-0.7-6.4-1.6-9.6-2.6c-6.3-2-12.4-4.2-18.5-6.5
			c-12.2-4.7-24.2-9.9-36.1-15.2c-11.9-5.4-23.7-10.9-35.4-16.6c-11.7-5.7-23.4-11.5-35-17.4c-23.2-11.8-46.2-23.9-69.2-36.2
			c-11.5-6.1-22.9-12.3-34.3-18.6c-11.4-6.2-22.8-12.5-34.1-18.9l0,0c-2-1.1-2.7-3.7-1.6-5.7c0.1-0.2,0.2-0.3,0.3-0.5
			c2.5-3.4,5-6.5,7.6-9.6c2.6-3.1,5.2-6.2,7.9-9.3c5.3-6.1,10.8-12.1,16.5-17.9c11.3-11.6,23.2-22.7,35.6-33.1
			c12.4-10.4,25.4-20.2,39.1-29c6.8-4.4,13.8-8.6,20.9-12.5c7.1-3.9,14.4-7.5,21.8-10.9c7.4-3.3,15-6.3,22.7-8.9
			c7.7-2.6,15.6-4.8,23.5-6.6c15.9-3.4,32.2-5.3,48.5-4.6c2,0.1,4.1,0.1,6.1,0.3l6.1,0.5c4,0.5,8.1,0.9,12.1,1.7
			c4,0.6,8,1.6,11.9,2.4c3.9,1.1,7.9,2,11.7,3.3c3.9,1.1,7.7,2.6,11.5,4c1.9,0.7,3.7,1.5,5.6,2.3l2.8,1.2l2.7,1.3l5.5,2.6l5.3,2.8
			l2.7,1.4l2.5,1.5L145,128.2z M145,129l-5.4-2.8l-2.7-1.4l-2.7-1.3l-5.4-2.6l-5.5-2.4l-2.8-1.2l-2.8-1.1c-1.9-0.7-3.7-1.4-5.6-2.1
			c-3.8-1.2-7.6-2.5-11.4-3.5c-3.8-1.1-7.7-1.9-11.6-2.8c-3.9-0.7-7.8-1.5-11.8-2c-3.9-0.6-7.9-0.9-11.9-1.3l-6-0.3
			c-2-0.1-4-0.1-6-0.1l-3,0l-3,0.1c-2,0.1-4,0.1-5.9,0.3l-5.9,0.4l-5.9,0.7c-7.9,1-15.7,2.5-23.4,4.3c-15.4,3.9-30.4,9.2-44.7,16.1
			c-28.8,13.5-55.2,31.8-79.4,52.5c-12.1,10.3-23.7,21.3-34.7,32.8c-5.5,5.8-10.9,11.6-16.2,17.6c-2.6,3-5.2,6-7.7,9.1
			c-2.5,3.1-5,6.2-7.4,9.3l-1.3-6.1c45.2,25.5,90.7,50.7,136.8,74.7c11.5,6,23,12,34.6,17.8C-2.3,339.6,9.3,345.4,21,351
			c11.7,5.6,23.5,11.1,35.4,16c6,2.5,12,4.8,18.1,6.9c3,1,6.1,2,9.2,2.7c3.1,0.8,6.1,1.4,9.2,1.4l2.3,0l1.2,0l1.2-0.1l4.8-0.4
			c3.2-0.4,6.4-0.7,9.6-1.3l4.8-0.7l4.8-0.8c3.2-0.5,6.4-1.1,9.6-1.8c12.7-2.5,25.4-5.3,38.1-8.3c12.6-3,25.3-6.1,37.8-9.3
			c12.6-3.3,25.1-6.6,37.7-10c12.5-3.5,25-7,37.5-10.6l37.4-11c24.9-7.4,49.8-15,74.6-22.6l-2.1,4.1c-4.5-13.6-9.6-27.1-15.2-40.3
			c-5.6-13.2-11.8-26.1-18.7-38.6c-7-12.5-14.8-24.5-23.5-35.8c-1.1-1.4-2.2-2.8-3.3-4.2l-1.7-2.1l-1.7-2l-3.5-4.1l-3.6-3.9
			c-4.9-5.2-9.9-10.2-15.4-14.8c-10.8-9.2-22.6-17.4-35.3-23.7c-6.4-3.2-12.9-5.9-19.7-8.1c-6.7-2.3-13.6-4.1-20.6-5.4
			c-14-2.6-28.4-3.3-42.7-2.2c-7.1,0.6-14.3,1.5-21.3,3c-3.5,0.7-7,1.6-10.5,2.5c-1.7,0.5-3.5,1-5.2,1.6c-0.9,0.3-1.7,0.6-2.6,0.9
			l-1.3,0.5l-0.6,0.2l-0.3,0.1l-0.2,0.1C145.3,128.9,145.1,129,145,129z"/>
	</g>
	<path class="st4" d="M150.7,162.1c-2.8,0.4,109.9-45.5,168.7,51.8c0,0-37-48-88.4-49.9c0,0,61.9,17.7,98.8,78.5
		c0,0-45.6-17.5-92.7-9.2c0,0-15.9,21-4.4,19.1c11.6-1.9,72.5-6.5,98.9,12.9c0,0-86-8.5-145.4,18.1c0,0,12.2-24.6,23.8-26.8
		c0,0-20.7-7.9-32-0.3c0,0,19.6-38.5,58.8-44.9c0,0-22.1-4.4-62.5,12c0,0,9.5-27.2,53.7-33.5c0,0-49.9-3.2-61.3-0.6
		c0,0,25.3-15.2,55.6-16.4C222.1,172.8,181,158.3,150.7,162.1z"/>
	<path class="st3" d="M143.7,143.7c0,0,158.1-73.1,240.6,162.2c3.7-1.1,5.8-1.7,5.8-1.7C309.2,52.8,145,129.8,145,129.8
		C-27.3,29.2-174.7,251.1-174.7,251.1s2.7,1.5,7.5,4.2C-131.6,212.6-4.9,57,143.7,143.7z"/>
	<g>
		<path class="st4" d="M-215.8,291.4c0,0,274.7,56.5,613.3-1.2c0,0,23.7,42.1,22.4,90.4c0,0-366.5,141.4-657.8,26.1
			C-238,406.7-231.1,343.1-215.8,291.4z"/>
		<path class="st4" d="M-215.9,291.2c1,0.1,1.7,0.3,2.5,0.4l2.4,0.4l4.7,0.8l9.5,1.5c6.3,1,12.7,1.9,19,2.8
			c12.7,1.8,25.4,3.3,38.2,4.7c25.5,2.9,51,5.2,76.6,7c25.6,1.7,51.2,3.1,76.8,3.9c25.6,0.9,51.3,1.2,76.9,1.1
			c25.6,0,51.3-0.6,76.9-1.6l19.2-0.8l19.2-1l9.6-0.5l9.6-0.7l19.2-1.3l19.2-1.6l9.6-0.8l9.6-1l19.1-1.9c6.4-0.7,12.7-1.5,19.1-2.2
			c12.7-1.4,25.5-3.3,38.2-5c6.4-0.8,12.7-1.9,19-2.9l19-3l0,0c0.3-0.1,0.6,0.1,0.8,0.4c3.8,7,6.9,14.2,9.8,21.5
			c2.8,7.4,5.2,14.9,7.2,22.5c2,7.6,3.5,15.4,4.6,23.2c1.1,7.8,1.5,15.7,1.4,23.6c0,0.5-0.3,0.9-0.8,1.1l0,0
			c-13.1,5-26.4,9.5-39.7,13.8c-13.3,4.3-26.7,8.4-40.2,12.2c-27,7.7-54.2,14.4-81.6,20.3c-54.8,11.7-110.4,20-166.4,24
			c-55.9,3.9-112.3,3.3-168.1-3.4c-55.7-6.8-110.8-19.6-162.9-40.7l0,0c-0.6-0.2-0.9-0.8-0.9-1.5c1.2-9.8,2.6-19.5,4.2-29.1
			c1.5-9.7,3.3-19.3,5.2-29c1.9-9.6,4-19.2,6.3-28.7c1.2-4.8,2.3-9.5,3.7-14.2C-218.9,300.8-217.4,295.9-215.9,291.2z M-215.7,291.6
			l-1.8,7c-0.6,2.3-1.2,4.7-1.8,7.1c-1.2,4.7-2.3,9.5-3.3,14.3c-2.1,9.6-4,19.2-5.7,28.8c-1.7,9.6-3.2,19.3-4.6,29
			c-1.4,9.7-2.7,19.4-3.7,29.1l-0.9-1.5c52.1,20.1,107,32.4,162.4,38.6c55.5,6.2,111.5,6.7,167.2,2.9c27.9-1.8,55.6-4.8,83.3-8.7
			c27.7-3.9,55.2-8.7,82.5-14.4c27.4-5.6,54.5-12.2,81.5-19.5c13.5-3.6,26.9-7.5,40.3-11.6c13.3-4.1,26.7-8.5,39.7-13.3l-0.8,1.1
			c0.2-7.8-0.1-15.6-1-23.3c-0.4-3.9-1.1-7.7-1.7-11.6c-0.7-3.8-1.6-7.6-2.5-11.4c-1.9-7.6-4.3-15-7-22.3
			c-2.8-7.3-5.9-14.5-9.5-21.4l0.8,0.4l-19,3.1c-6.3,1-12.7,2.1-19,3l-19.1,2.8c-6.3,1-12.7,1.7-19.1,2.6l-19.1,2.5l-19.1,2.2
			l-9.6,1.1l-9.6,0.9l-19.2,1.9c-51.2,4.5-102.6,7.3-154,7.3c-51.4,0.2-102.8-1.8-154-6.1c-25.6-2.1-51.2-4.8-76.6-8.1
			c-12.7-1.7-25.4-3.5-38.1-5.6c-6.3-1-12.7-2.1-19-3.2l-9.5-1.8l-4.7-0.9l-2.4-0.5C-214.3,292-215.2,291.9-215.7,291.6z"/>
	</g>
	<path class="st0" d="M277.6,459.2c-36.4,13.3-124.7,44-168,47.2c-12.7,0.9-30.3-0.8-49.9-4c-7.4-1.2-15.1-2.7-22.9-4.2
		c-5.8-1.2-11.7-2.5-17.6-3.8c-15.9-3.6-31.9-7.5-46.6-11.4c-18.8-5-35.6-9.8-47.7-13.3c-11.2-3.3-18.4-13.4-17.2-24.1l15.5-134.2
		l0.6-5c0,0,15.2-2.3,39.8-5.2c5-0.6,10.3-1.2,16.1-1.8c6.6-0.7,13.6-1.4,21-2.1C77,290,193.8,283.9,273.7,303
		c0,0,15.8,88.8,19.5,133.3C294.1,446.3,287.7,455.5,277.6,459.2z"/>
	<g>
		<path class="st4" d="M191.2,483.4c-2.6-27.5-5.2-55-7.6-82.5c-1.2-13.8-2.4-27.5-3.6-41.3l-1.6-20.6c-0.5-6.9-1.1-13.8-1.2-20.7
			c0.4,6.9,1.4,13.7,2.1,20.6l2.6,20.5c1.8,13.7,3.6,27.4,5.5,41c3.8,27.3,7.6,54.7,11.5,82c0.3,2.2-1.2,4.2-3.3,4.5
			s-4.2-1.2-4.5-3.3C191.2,483.5,191.2,483.4,191.2,483.4z"/>
	</g>
	<path class="st4" d="M19.1,494.4c-15.9-3.6-31.9-7.5-46.6-11.4l-49.3-171.6l0.6-5c0,0,15.2-2.3,39.8-5.2L19.1,494.4z"/>
	<path class="st4" d="M59.6,502.4c-7.4-1.2-15.1-2.7-22.9-4.2l-57.1-198.8c6.6-0.7,13.6-1.4,21-2.1L59.6,502.4z"/>
	<g>
		<g>
			<path class="st3" d="M354.9,819.8c0,0-42.1-31.9-72.6-27.7s-127,10.5-127,10.5S145.9,910,165,917s180.5,40.5,213.2-9.6"/>
			<path class="st4" d="M354.6,820.1c-7.3-4.6-14.8-8.8-22.4-12.6c-7.7-3.8-15.5-7-23.6-9.5c-4-1.2-8.1-2.1-12.2-2.7
				c-4.1-0.6-8.2-0.8-12.1-0.3l-1.5,0.2l-1.6,0.2L278,796c-2.2,0.3-4.3,0.5-6.5,0.8c-4.3,0.5-8.6,0.9-12.9,1.4
				c-17.2,1.8-34.4,2.8-51.6,3.5c-17.2,0.7-34.5,1.2-51.7,2.2l1.2-1.1c-0.7,7-1.1,14.1-1.4,21.1c-0.4,7.1-0.5,14.1-0.5,21.2
				c0,7.1,0.2,14.1,0.6,21.1c0.4,7,0.9,14,1.8,21c0.5,3.5,1,6.9,1.7,10.2c0.7,3.3,1.6,6.7,2.7,9.7c0.6,1.5,1.3,2.9,2,4.1
				c0.8,1.2,1.7,2.1,2.4,2.4c0.1,0,0.2,0.1,0.3,0.1l0.5,0.2c0.4,0.1,0.8,0.2,1.2,0.4l2.5,0.7c1.7,0.4,3.4,0.9,5,1.3
				c6.8,1.6,13.7,3,20.6,4.2c6.9,1.3,13.8,2.4,20.8,3.4c13.9,2,27.9,3.7,41.8,5c14,1.2,28,2.1,42,1.9c7,0,14-0.3,20.9-1
				c6.9-0.6,13.9-1.5,20.6-3.1c3.4-0.7,6.7-1.6,10-2.7c3.3-1.1,6.5-2.4,9.6-3.9c6.2-3.1,11.9-7.2,16.1-12.9c0.1-0.2,0.4-0.2,0.6-0.1
				c0.2,0.1,0.2,0.3,0.1,0.5c-3.6,6.2-9.2,11.3-15.3,15c-3.1,1.9-6.3,3.5-9.7,4.9c-3.3,1.4-6.7,2.6-10.2,3.6c-3.5,1-7,1.9-10.5,2.6
				c-3.5,0.8-7.1,1.4-10.6,1.9c-7.1,1-14.3,1.7-21.4,2c-7.2,0.3-14.3,0.4-21.5,0.3c-7.1-0.1-14.3-0.5-21.4-1
				c-14.2-1-28.4-2.8-42.4-5.1c-14.1-2.4-28-5.1-41.9-8.8c-1.7-0.5-3.5-0.9-5.2-1.4c-0.9-0.3-1.7-0.5-2.6-0.8
				c-0.4-0.2-0.9-0.3-1.3-0.5c-0.2-0.1-0.4-0.2-0.7-0.3l-0.9-0.4c-0.6-0.3-1.1-0.7-1.7-1.1c-0.5-0.4-1-0.8-1.3-1.2
				c-0.4-0.4-0.8-0.9-1.1-1.3c-0.3-0.4-0.6-0.9-0.9-1.4c-1.1-1.8-1.9-3.6-2.5-5.5c-1.2-3.6-1.9-7.3-2.5-10.9
				c-0.6-3.6-0.9-7.2-1.2-10.8c-1-14.3-0.5-28.5,0-42.7c0.6-14.2,1.4-28.3,2.4-42.5c0-0.6,0.5-1.1,1.1-1.1l0,0
				c17.2-1.3,34.3-3.2,51.4-5.1c17.1-1.9,34.3-3.6,51.4-5c4.3-0.4,8.6-0.7,12.8-1.2c2.1-0.2,4.3-0.4,6.4-0.7l3.2-0.3l1.6-0.2
				l1.7-0.1c9.3-0.7,18.2,1.4,26.5,4.4c8.3,3,16.2,7,23.6,11.4c7.4,4.5,14.6,9.5,21.2,15.1c0.2,0.1,0.2,0.4,0,0.6
				C355,820.2,354.8,820.3,354.6,820.1L354.6,820.1z"/>
		</g>
		<g>
			<path class="st0" d="M184.5,801.9c0,0,82.8-11.8,88.8-8.3c0,0,33.2,91-1.1,138.8l-81.5-13.2L184.5,801.9z"/>
			<g>
				<path class="st4" d="M203.6,850l71.8,9.5l-72.5-1.6c-2.2,0-3.9-1.9-3.9-4c0-2.2,1.9-3.9,4-3.9C203.3,850,203.4,850,203.6,850z"
					/>
			</g>
			<path class="st4" d="M287.8,869.9l-83.3-7.2l-3.3,33.6l45,5.5c3.6,0.4,4.7-4.6,1.2-5.7c-12.9-4.1-23.7-8.3-21.3-10.4
				c5.5-4.6,61.6,0.5,61.6,0.5V869.9z"/>
		</g>
	</g>
	<g>
		<g>
			<path class="st3" d="M162.3,765.5c0,0-34.9-39.3-40.1-53s-54.2,13.9,10.7,56.9L162.3,765.5z"/>
			<path class="st4" d="M162.3,765.5c-9.7-8.9-18.7-18.5-27.3-28.4l-3.2-3.8c-1.1-1.3-2.1-2.6-3.1-3.9c-2-2.6-4-5.3-5.9-8.1
				c-0.5-0.7-0.9-1.4-1.4-2.2c-0.4-0.8-0.9-1.5-1.3-2.3l-1.2-2.5c-0.3-0.5-0.3-0.5-0.3-0.7c-0.1-0.1-0.1-0.2-0.2-0.2
				c-0.3-0.3-0.9-0.5-1.9-0.5c-1,0-2.2,0.2-3.3,0.7c-2.3,0.9-4.6,2.5-6.2,4.5c-1.6,2-2.8,4.4-3.2,6.9c-0.9,5.1,0.8,10.9,3.9,16
				c3,5.2,7.2,9.9,11.8,14.3c4.6,4.4,9.6,8.5,14.7,12.3l-1.6-0.4c2.3-0.2,4.6-0.4,7-0.5l7.2-0.3c2.5-0.1,5-0.2,7.6-0.4
				C156.9,765.9,159.5,765.7,162.3,765.5z M162.3,765.5c-2.2,0.4-4.4,0.9-6.8,1.4l-7.1,1.6l-7.5,1.7c-2.5,0.6-5.1,1-7.7,1.5
				c-0.5,0.1-1,0-1.4-0.2l-0.2-0.1c-5.7-3.4-11.3-7.1-16.4-11.4c-5.2-4.3-10-9.2-13.9-15.2c-1.9-3-3.5-6.3-4.5-9.8
				c-1.1-3.6-1.4-7.5-0.7-11.4c0.6-3.9,2.4-7.6,5-10.6c2.5-3,5.8-5.4,9.6-6.7c1.9-0.7,4-1.1,6.3-1c1.1,0.1,2.3,0.3,3.6,0.7
				c1.2,0.5,2.4,1.2,3.4,2.3c0.5,0.5,0.9,1.1,1.2,1.7c0.3,0.6,0.6,1.4,0.7,1.6l0.8,1.9c0.3,0.7,0.7,1.3,1.1,2c0.4,0.7,0.7,1.4,1.1,2
				c3.2,5.4,6.9,10.8,10.6,16.1C146.8,744.3,154.7,754.8,162.3,765.5z"/>
		</g>
		<g>
			<path class="st3" d="M168.1,760.1c0,0-26.7-45.2-29.2-59.7s-55.8,3.3-0.5,57.9L168.1,760.1z"/>
			<path class="st4" d="M168.1,760.1c-7.8-10.6-14.8-21.7-21.3-33.1l-2.4-4.3c-0.8-1.5-1.5-2.9-2.3-4.4c-1.5-3-2.9-6-4.2-9.1
				c-0.3-0.8-0.6-1.6-0.9-2.4c-0.3-0.8-0.6-1.6-0.9-2.5l-0.7-2.7c-0.1-0.6-0.2-0.6-0.2-0.7c0-0.1-0.1-0.2-0.2-0.3
				c-0.2-0.3-0.8-0.7-1.8-0.9c-1-0.2-2.2-0.2-3.4,0c-2.5,0.4-4.9,1.6-7,3.2c-2,1.7-3.6,3.8-4.5,6.2c-1.9,4.9-1.3,10.8,0.7,16.4
				c2,5.7,5.2,11.1,8.8,16.3c3.7,5.2,7.8,10.1,12.1,14.9l-1.5-0.7c2.3,0.3,4.6,0.5,6.9,0.9l7.1,1.1c2.4,0.4,5,0.8,7.5,1.1
				C162.7,759.5,165.4,759.8,168.1,760.1z M168.1,760.1c-2.2,0-4.5,0-6.9,0.1l-7.3,0.2l-7.7,0.2c-2.6,0.1-5.3,0-7.9,0
				c-0.5,0-0.9-0.2-1.3-0.5l-0.2-0.2c-5-4.4-9.7-9.1-14-14.3c-4.2-5.2-8.1-11-10.7-17.6c-1.3-3.3-2.2-6.8-2.6-10.5
				c-0.4-3.7,0.1-7.6,1.5-11.3c1.4-3.7,3.8-7,6.9-9.5c3.1-2.5,6.7-4.2,10.7-4.7c2-0.3,4.1-0.3,6.3,0.2c1.1,0.3,2.2,0.7,3.4,1.4
				c1.1,0.7,2.1,1.7,2.9,2.9c0.4,0.6,0.7,1.3,0.9,1.9c0.2,0.6,0.3,1.5,0.4,1.7l0.5,2.1c0.2,0.7,0.4,1.5,0.7,2.2
				c0.2,0.7,0.4,1.5,0.7,2.2c2.1,5.9,4.7,11.9,7.3,17.8C157,736.4,162.7,748.1,168.1,760.1z"/>
		</g>
		<g>
			<path class="st3" d="M161.9,918.7c-33.2-3.3-45-75.4-45-75.4s-10.5,12.9-23.6,0.4c-12.4-11.9,3.3-55.5,5.1-64
				c1.7-8.5,53.9-26.7,67.3-25c13.3,1.7,37.2,46.4,42.5,65C215.6,846,220.8,924.6,161.9,918.7z"/>
			<path class="st4" d="M161.9,919.1c-3.9-0.4-7.7-1.8-11.1-3.8c-3.4-2-6.4-4.6-9-7.5c-2.7-2.9-5.1-6-7.2-9.3
				c-2.2-3.3-4.2-6.7-6-10.2c-3.6-7-6.7-14.2-9.3-21.7c-1.3-3.7-2.4-7.5-3.5-11.3c-1-3.8-2-7.6-2.7-11.6l6.8,1.8
				c-0.3,0.4-0.5,0.5-0.7,0.8c-0.2,0.2-0.4,0.4-0.6,0.6c-0.4,0.4-0.9,0.8-1.3,1.2c-0.9,0.8-1.9,1.4-2.9,2.1
				c-2.1,1.2-4.4,2.2-6.9,2.6c-2.5,0.4-5.2,0.2-7.6-0.5c-2.4-0.7-4.6-1.9-6.5-3.2c-0.9-0.7-1.8-1.4-2.6-2.2
				c-0.4-0.3-0.9-0.9-1.4-1.4c-0.4-0.5-0.8-1-1.2-1.6c-1.5-2.2-2.3-4.5-2.9-6.7c-1.1-4.5-1.2-8.8-0.9-12.9
				c0.5-8.3,2.2-16.1,4.1-23.9c1-3.9,2.1-7.7,3.2-11.4l1.7-5.6l0.8-2.8l0.4-1.3l0.2-0.7c0.1-0.3,0.2-0.6,0.3-0.8
				c0.1-0.2,0.2-0.5,0.3-0.7c0.9-1.6,1.8-2.5,2.7-3.3c0.9-0.8,1.8-1.4,2.7-2c1.8-1.2,3.6-2.2,5.4-3.1c3.6-1.8,7.3-3.4,11-4.9
				c7.4-2.9,15-5.2,22.7-7.2c3.8-1,7.7-1.9,11.6-2.6c3.9-0.7,7.9-1.3,12.1-1.3c1,0,2.1,0.1,3.3,0.4c1.1,0.3,2.1,0.8,3,1.4
				c1.8,1.1,3.4,2.5,4.8,3.9c2.9,2.9,5.4,5.9,7.7,9.1c2.3,3.2,4.6,6.4,6.7,9.7c2.2,3.3,4.3,6.6,6.3,10c4.1,6.7,8,13.6,11.5,20.8
				c1.7,3.6,3.3,7.3,4.5,11.3c1.1,3.9,2,7.9,2.7,11.8c1.3,7.9,1.9,15.9,1.8,23.9c-0.1,8-1,16.1-2.9,23.9c-1.9,7.8-4.9,15.5-9.4,22.2
				c-2.3,3.3-5,6.4-8.1,9c-3.1,2.6-6.6,4.6-10.3,6.1C177.8,919.4,169.7,919.9,161.9,919.1z M162,918.3c7.7,0.8,15.7,0.1,22.8-3.1
				c7-3.2,12.6-8.8,16.2-15.5c3.7-6.6,5.6-14.1,6.9-21.6c1.1-7.5,1.5-15.2,1.3-22.8c-0.2-7.6-0.8-15.3-1.9-22.8
				c-0.6-3.8-1.2-7.5-2.1-11.2c-0.9-3.6-2-7.2-3.4-10.8c-2.6-7.3-5.6-14.5-9-21.4c-3.5-6.9-7.4-13.7-12.1-19.9
				c-2.3-3.1-4.8-6.1-7.7-8.6c-1.4-1.2-2.9-2.4-4.5-3.2c-0.8-0.4-1.6-0.7-2.4-0.9c-0.7-0.2-1.6-0.2-2.5-0.1c-3.7,0.1-7.5,1-11.2,1.9
				c-3.7,1-7.4,2.1-11.1,3.3c-3.7,1.2-7.3,2.5-10.9,4c-3.6,1.4-7.2,2.9-10.7,4.4c-3.5,1.6-7,3.2-10.2,5c-1.6,0.9-3.2,1.9-4.6,2.9
				c-0.7,0.5-1.4,1-1.9,1.5c-0.5,0.5-1,1.1-1,1.2c0,0,0,0,0,0c0,0,0-0.1,0-0.1l-0.2,0.7l-0.4,1.5l-0.8,2.9l-1.5,5.7
				c-1,3.8-2,7.5-2.8,11.3c-1.7,7.5-3.1,15.1-3.5,22.4c-0.2,3.7-0.1,7.3,0.7,10.4c0.4,1.6,0.9,3,1.6,4.1c0.2,0.3,0.4,0.5,0.6,0.8
				c0.2,0.2,0.4,0.4,0.7,0.7c0.6,0.6,1.2,1.1,1.9,1.6c2.6,1.9,5.3,2.8,8,2.5c1.4-0.2,2.7-0.7,4.1-1.4c0.7-0.4,1.3-0.8,1.9-1.3
				c0.3-0.2,0.6-0.5,0.9-0.8l0.4-0.4l0.3-0.3l0.3-0.3c1.5-1.5,3.9-1.5,5.5-0.1c0.6,0.6,1,1.4,1.1,2.2c0.6,3.6,1.3,7.4,2,11.1
				c0.7,3.7,1.6,7.5,2.5,11.1c0.9,3.7,1.9,7.4,3,11c1.1,3.6,2.3,7.3,3.7,10.8c2.8,7.1,6.2,14,11,19.9c2.4,3,5.2,5.6,8.4,7.7
				C154.5,916.5,158.2,917.9,162,918.3z"/>
		</g>
		<g>
			<path class="st4" d="M130.2,856.9c-2.3-2.6-4.5-5.1-6.8-7.5c-2.2-2.4-4.5-4.7-6.9-6.9c-1.1-1.1-2.4-2.1-3.6-3.2
				c-1.3-1-2.5-2.1-3.8-3c-2.6-2-5.4-3.7-8.2-5.8c3.5,0.1,7,0.9,10.2,2.5l1.2,0.6c0.4,0.2,0.8,0.4,1.2,0.6c0.8,0.4,1.5,0.9,2.3,1.4
				c1.4,1,2.9,2.1,4.2,3.3c2.6,2.4,4.9,5.2,6.7,8.2C128.3,850.1,129.7,853.4,130.2,856.9z"/>
		</g>
		<path class="st4" d="M94.8,818.9c0,0,40.7-16.9,47.2-11.6c6.4,5.3,17.8,94.3,32.5,100.5c0,0-31.2,30.5-43.6-34.3
			c0,0,9.7-31.5-18.1-43.5C112.7,829.9,90.8,847.9,94.8,818.9z"/>
	</g>
	<g>
		<g>
			<path class="st3" d="M-143.3,826c0,0,43.7-34.7,77.2-32.6s138.6,2,138.6,2S89.4,902,69,910.2c-20.3,8.2-193.6,52.5-232.3,4.8"/>
			<path class="st4" d="M-143.6,825.7c7.1-6.2,14.7-11.7,22.6-16.8c8-5,16.3-9.5,25.2-13c8.9-3.5,18.4-6,28.4-5.8
				c1.3,0,2.4,0.1,3.6,0.1l3.5,0.1c2.3,0.1,4.6,0.1,7,0.2c4.6,0.1,9.3,0.2,14,0.3c18.6,0.3,37.3,0.9,55.9,1.6
				c18.6,0.8,37.3,1.5,56,1.6l0,0c0.6,0,1.1,0.5,1.2,1c2.1,14.8,4,29.7,5.5,44.6c1.5,14.9,2.8,29.9,2.1,45.1
				c-0.2,3.8-0.5,7.6-1.3,11.5c-0.4,1.9-0.8,3.9-1.4,5.8c-0.6,1.9-1.4,3.9-2.6,5.8c-0.6,1-1.3,1.9-2.2,2.8c-0.9,0.9-1.9,1.7-3.2,2.3
				l-0.5,0.2l-0.4,0.1l-0.7,0.3l-1.4,0.5l-2.7,1c-3.6,1.2-7.2,2.3-10.8,3.4c-14.5,4.2-29.1,7.7-43.8,10.8
				c-7.3,1.6-14.7,2.9-22.1,4.2c-7.4,1.3-14.9,2.3-22.3,3.2c-14.9,1.9-30,3-45.1,3.2c-7.5,0-15.1-0.1-22.7-0.7
				c-7.5-0.6-15.1-1.5-22.5-3.1c-1.9-0.4-3.7-0.9-5.5-1.3c-1.8-0.5-3.7-1-5.5-1.6c-3.6-1.1-7.2-2.5-10.6-4.2
				c-6.8-3.3-13.3-7.9-17.8-14c-0.1-0.2-0.1-0.4,0.1-0.6c0.2-0.1,0.4-0.1,0.5,0.1c5,5.5,11.5,9.2,18.3,11.8
				c3.4,1.3,6.9,2.3,10.5,3.2c1.8,0.5,3.6,0.8,5.4,1.2c1.8,0.3,3.6,0.6,5.4,0.9c7.3,1.1,14.6,1.6,22,1.7c7.4,0.2,14.8,0,22.1-0.4
				c29.5-1.6,58.9-6.2,88.1-11.8c7.3-1.4,14.6-2.9,21.8-4.5c7.2-1.6,14.5-3.3,21.6-5.2c3.6-0.9,7.1-1.9,10.6-3l2.6-0.8l1.3-0.4
				l0.6-0.2l0.3-0.1l0.2-0.1c0.4-0.1,0.9-0.5,1.3-0.9c0.4-0.4,0.9-1,1.3-1.6c1.6-2.5,2.7-5.9,3.5-9.3c0.8-3.5,1.3-7.1,1.7-10.7
				c0.8-7.3,1-14.7,1.1-22.1c0-7.4-0.2-14.9-0.7-22.3c-0.9-14.9-2.5-29.7-4.8-44.4l1.2,1c-18.7,0.1-37.3,0.7-56,1.2
				c-18.7,0.5-37.4,0.7-56,0.1c-4.7-0.2-9.3-0.3-14-0.5c-2.3-0.1-4.7-0.2-7-0.3l-3.5-0.2c-1.2-0.1-2.4-0.2-3.4-0.2
				c-4.3-0.2-8.8,0.2-13.2,1c-4.4,0.8-8.8,2-13.1,3.4c-8.6,2.9-17.1,6.7-25.3,11c-8.2,4.3-16.2,9.1-23.9,14.3l0,0
				c-0.2,0.1-0.4,0.1-0.5-0.1C-143.8,826.1-143.7,825.9-143.6,825.7z"/>
		</g>
		<path class="st4" d="M-61.3,795.7c0,0-77.9,72.5-28.7,137.8l46.5,1.1C-43.6,934.6-73.4,816.3-61.3,795.7z"/>
		<path class="st0" d="M51,797.1c0,0-80.7-2.8-98.9-2.9s-62.3,104.6,2,140c0,0,97.8-15.8,99.4-19.2L51,797.1z"/>
		<path class="st4" d="M32.3,869.4l-111.9,6.9c0,0,0.4,33.3,20.1,48.1l89.5-12.5l-8.6-15.4c0,0-83.8,11.4-70.6,2.6
			s78.2-14.2,78.2-14.2L32.3,869.4z"/>
	</g>
	<g>
		<g>
			<path class="st4" d="M117,417.4c-0.4-2.7-1.6-10.9-2.7-19.1c-0.3-2.6,0.5-5.2,2.3-7.1c23.7-25,38-39,42.2-42.3
				c4.2-3.2,9.9-5.6,13.3-6.5c6.5-1.7,9.3-6.1-1.9-12.8c-5.7-3.4-36.8-19.8-43.2-19.7c-1.8,0-3.4,0.4-4.9,1.1
				c-3,1.4-6.4,2.9-23.9,33.7c0,0-0.1,0.1-0.1,0.1c-3.2,5.7-11.3,5.9-14.8,0.4c0,0-0.1-0.1-0.1-0.1c-19.1-29.8-22.6-31.2-25.7-32.3
				c-1.5-0.6-3.2-0.9-5-0.8c-6.4,0.2-16.6,5.3-35.8,16c-2,1.1-8,4.5-8.5,4.9c-6.1,5-9.6,11.6,0.7,13c0.6,0.1,1.2,0.2,1.7,0.4
				c2.3,0.8,8.4,3.2,12.2,6.2c4.4,3.1,19.5,16.3,44.5,39.9c1.9,1.8,2.9,4.3,2.7,6.9c-0.6,8.2-1.4,16.5-1.6,19.3
				c-0.5,5.7-2.5,14.5-4.2,22.3c-2.8,12.7-3.7,17.2-3.2,20.8c1.7,13.6,25,13,32.6,12.8l0,0l0.6,0c5.5-0.2,11.7-1,16.9-2.1
				c4.8-1.1,14.8-3.2,15.4-12.5c0.3-3.7-0.8-8.1-4.3-20.7C120.3,431.8,117.9,423.1,117,417.4z"/>
		</g>
		<g>
			
				<linearGradient id="SVGID_15_" gradientUnits="userSpaceOnUse" x1="832.592" y1="392.3756" x2="983.2733" y2="392.3756" gradientTransform="matrix(1 0 0 1 -817.3132 0)">
				<stop  offset="0" style="stop-color:#2AD8FF"/>
				<stop  offset="0.9948" style="stop-color:#FC1E79"/>
			</linearGradient>
			<path class="st23" d="M154.8,339c5.1-1.3,11.1-2.2,11.1-2.2c-1.9-0.4-34.9-18.1-39.5-16.1c-4.6,2.1-34.5,55.8-34.7,60.3
				c0,0,0,0,0,0c0,0,0,0,0,0c0,0,0,0,0,0c0,0,0,0,0,0c-0.4-4.5-33.2-56.5-37.9-58.3c-4.7-1.8-36.7,17.8-38.6,18.2
				c0,0,6.1,0.6,11.3,1.6c4,0.8,37,31.7,51.9,45.8c1.9,1.8,2.8,4.2,2.7,6.8c-0.5,8-1.3,17.7-2,24.6c-1.2,12.5-8,36.4-7.4,40.8
				c0.2,1.9,10.9,3.9,22.4,3.5c10.6-0.4,22-3,22.1-4.7c0.3-4.4-7.8-27.9-9.7-40.4c-1-6.9-2.4-16.5-3.3-24.5c-0.3-2.5,0.5-5,2.3-6.9
				C119.6,372.7,150.9,340,154.8,339z"/>
		</g>
	</g>
	<path class="st4" d="M196.3,290.2l16.6,194.2l25-13.9c0,0-11.6-130.6-6.9-141.5c8.3-19.4,15.8,115.1,15.8,115.1
		s14.6-117.3-6.1-147.5L196.3,290.2z"/>
	
		<linearGradient id="SVGID_16_" gradientUnits="userSpaceOnUse" x1="1142.6055" y1="348.5975" x2="1226.2257" y2="348.5975" gradientTransform="matrix(1 0 0 1 -817.3132 0)">
		<stop  offset="0" style="stop-color:#2AD8FF"/>
		<stop  offset="0.9948" style="stop-color:#FC1E79"/>
	</linearGradient>
	<path class="st24" d="M334.6,309.6c0,0,45-4.3,57.5-5.1c0,0,15.7,35.8,16.8,65.6c0,0-33.5,19.1-74.3,22.5c0,0,41.1-23.3,49.1-29.1
		c0,0-52.9-0.8-22.4-14.6c29.1-13.1-22.1-1.2-36.1-3.7c0,0,44.4-14.7,51.3-20.7c7-6.1-57.1,6.6-47.8,0
		C338.1,317.9,377.7,313.8,334.6,309.6z"/>
	
		<linearGradient id="SVGID_17_" gradientUnits="userSpaceOnUse" x1="588.7029" y1="365.8331" x2="680.5767" y2="365.8331" gradientTransform="matrix(1 0 0 1 -817.3132 0)">
		<stop  offset="0" style="stop-color:#2AD8FF"/>
		<stop  offset="0.9948" style="stop-color:#FC1E79"/>
	</linearGradient>
	<path class="st25" d="M-211.7,304.1c0,0,18,3.5,20.1,5.9c0,0-15.3,15.2-10.1,20.6c5.2,5.4,39.9,27.6,33,37.3
		c-6.9,9.7-52.7-9.7-33.3,8.3s54.1,23.6,54.1,23.6s-38.8,6.9-48.6,1.4c0,0,41.6,23.6,59.7,26.4c0,0-58.3-4.2-91.9-27L-211.7,304.1z"
		/>
	<g>
		<path class="st4" d="M188.3,291.3c2.5,27.5,5,55,7.4,82.5c1.2,13.8,2.3,27.5,3.4,41.3l1.6,20.7c0.4,6.9,1,13.8,1.1,20.7
			c-0.4-6.9-1.3-13.7-2.1-20.6l-2.6-20.5c-1.8-13.7-3.6-27.4-5.4-41.1c-3.7-27.4-7.5-54.7-11.3-82c-0.3-2.2,1.2-4.2,3.4-4.5
			s4.2,1.2,4.5,3.4C188.3,291.2,188.3,291.3,188.3,291.3z"/>
	</g>
	<g>
		<g>
			
				<linearGradient id="SVGID_18_" gradientUnits="userSpaceOnUse" x1="536.4788" y1="311.4834" x2="911.1688" y2="311.4834" gradientTransform="matrix(1 0 0 1 -817.3132 0)">
				<stop  offset="0" style="stop-color:#2AD8FF"/>
				<stop  offset="0.9948" style="stop-color:#FC1E79"/>
			</linearGradient>
			<path class="st26" d="M-266.7,503.1c0,0,162.7-354.6,360.6-249.2c0,0-56.9-222.8-245.5-93.9S-266.7,503.1-266.7,503.1z"/>
		</g>
		<path class="st3" d="M-141.1,168.2c87.4-55.3,144.7-42.2,183-9.5C4.1,119-57.3,95.5-151.6,160
			c-188.6,128.9-115.1,343.1-115.1,343.1S-318.4,280.4-141.1,168.2z"/>
		<path class="st4" d="M33.3,170.4c0,0-53.5-66.4-151.1-14.2c0,0,31.8-9.9,58.7-6.8c0,0-80.5,27.7-104.6,57c0,0,9.9-24.9,30.7-40.3
			c0,0-29.9,8.1-71.5,60.8c0,0,64.2-8.6,92.3,24.9C-112.3,251.8-30.5,167.3,33.3,170.4z"/>
		<path class="st4" d="M-264.7,481.2c0,0-17.3-105.5,20.2-183.8l-4.5,71.4l32.4-3.3l76.4-75.1c0,0-93.3,129.9-108.5,161.9l6-59.9
			C-242.7,392.4-264.6,452.1-264.7,481.2z"/>
		<g>
			<path class="st4" d="M-252.2,376.8c1.6-6.7,3.2-13.4,5-20c1.7-6.6,3.5-13.3,5.4-19.9c1.9-6.6,3.9-13.2,6-19.7
				c2.2-6.5,4.4-13,7.3-19.2c-2.2,6.5-3.8,13.1-5.4,19.8c-1.5,6.7-2.8,13.4-4.1,20.1c-1.2,6.7-2.4,13.4-3.4,20.2
				c-1.1,6.7-2.1,13.5-3,20.2L-252.2,376.8z"/>
		</g>
		<g>
			<path class="st4" d="M-237.6,375.8c1.9-6.6,3.9-13.1,6-19.7c2.1-6.5,4.2-13,6.4-19.5c2.2-6.5,4.5-12.9,7-19.3
				c2.5-6.4,5.1-12.7,8.3-18.8c-2.6,6.3-4.5,12.9-6.4,19.4c-1.9,6.6-3.5,13.2-5.1,19.8c-1.6,6.6-3.1,13.3-4.5,19.9
				c-1.4,6.7-2.8,13.3-4.1,20L-237.6,375.8z"/>
		</g>
		<g>
			<path class="st4" d="M-221.9,373.4c2.5-6.4,5-12.7,7.6-19c2.6-6.3,5.3-12.6,8-18.8c2.8-6.2,5.6-12.4,8.6-18.6
				c3-6.1,6.1-12.2,9.8-17.9c-3.1,6.1-5.6,12.4-8,18.7c-2.4,6.3-4.6,12.7-6.8,19.2c-2.1,6.4-4.2,12.9-6.2,19.4
				c-2,6.5-3.9,13-5.7,19.5L-221.9,373.4z"/>
		</g>
		<g>
			<path class="st4" d="M-183.5,216.7c-4.4,3.9-8.7,8.1-12.9,12.4c-4.2,4.3-8.2,8.7-12.2,13.2c-4,4.5-7.7,9.2-11.4,14
				c-3.7,4.8-7,9.8-10.3,14.9c2.7-5.4,5.5-10.8,8.7-16c3.1-5.2,6.4-10.3,9.9-15.3c3.5-5,7.1-9.9,10.9-14.7
				c3.8-4.8,7.6-9.5,11.8-14.1L-183.5,216.7z"/>
		</g>
		<g>
			<path class="st4" d="M-166.8,216.7c-4.4,3.9-8.7,8.1-12.9,12.4c-4.2,4.3-8.2,8.7-12.2,13.2c-4,4.5-7.7,9.2-11.4,14
				c-3.7,4.8-7,9.8-10.3,14.9c2.7-5.4,5.5-10.8,8.7-16c3.1-5.2,6.4-10.3,9.9-15.3c3.5-5,7.1-9.9,10.9-14.7
				c3.8-4.8,7.6-9.5,11.8-14.1L-166.8,216.7z"/>
		</g>
		<g>
			<path class="st4" d="M-148.7,213.5c-4.4,3.9-8.7,8.1-12.9,12.4c-4.2,4.3-8.2,8.7-12.2,13.2c-4,4.5-7.7,9.2-11.4,14
				c-3.7,4.8-7,9.8-10.3,14.9c2.7-5.4,5.5-10.8,8.7-16c3.1-5.2,6.4-10.3,9.9-15.3c3.5-5,7.1-9.9,10.9-14.7
				c3.8-4.8,7.6-9.5,11.8-14.1L-148.7,213.5z"/>
		</g>
		<g>
			<path class="st4" d="M-134.3,214.2c-4.4,3.9-8.7,8.1-12.9,12.4c-4.2,4.3-8.2,8.7-12.2,13.2c-4,4.5-7.7,9.2-11.4,14
				c-3.7,4.8-7,9.8-10.3,14.9c2.7-5.4,5.5-10.8,8.7-16c3.1-5.2,6.4-10.3,9.9-15.3c3.5-5,7.1-9.9,10.9-14.7
				c3.8-4.8,7.6-9.5,11.8-14.1L-134.3,214.2z"/>
		</g>
		<g>
			<path class="st4" d="M-119.8,214.8c-4.4,3.9-8.7,8.1-12.9,12.4c-4.2,4.3-8.2,8.7-12.2,13.2c-4,4.5-7.7,9.2-11.4,14
				c-3.7,4.8-7,9.8-10.3,14.9c2.7-5.4,5.5-10.8,8.7-16c3.1-5.2,6.4-10.3,9.9-15.3c3.5-5,7.1-9.9,10.9-14.7
				c3.8-4.8,7.6-9.5,11.8-14.1L-119.8,214.8z"/>
		</g>
		<g>
			<path class="st4" d="M-107.6,216.1c-4.4,3.9-8.7,8.1-12.9,12.4c-4.2,4.3-8.2,8.7-12.2,13.2c-4,4.5-7.7,9.2-11.4,14
				c-3.7,4.8-7,9.8-10.3,14.9c2.7-5.4,5.5-10.8,8.7-16c3.1-5.2,6.4-10.3,9.9-15.3c3.5-5,7.1-9.9,10.9-14.7
				c3.8-4.8,7.6-9.5,11.8-14.1L-107.6,216.1z"/>
		</g>
		<g>
			<path class="st4" d="M-99.3,220.3c-4.4,3.9-8.7,8.1-12.9,12.4c-4.2,4.3-8.2,8.7-12.2,13.2c-4,4.5-7.7,9.2-11.4,14
				c-3.7,4.8-7,9.8-10.3,14.9c2.7-5.4,5.5-10.8,8.7-16c3.1-5.2,6.4-10.3,9.9-15.3c3.5-5,7.1-9.9,10.9-14.7
				c3.8-4.8,7.6-9.5,11.8-14.1L-99.3,220.3z"/>
		</g>
		<g>
			<path class="st4" d="M-89.7,226.7c-4.4,3.9-8.7,8.1-12.9,12.4c-4.2,4.3-8.2,8.7-12.2,13.2c-4,4.5-7.7,9.2-11.4,14
				c-3.7,4.8-7,9.8-10.3,14.9c2.7-5.4,5.5-10.8,8.7-16c3.1-5.2,6.4-10.3,9.9-15.3c3.5-5,7.1-9.9,10.9-14.7
				c3.8-4.8,7.6-9.5,11.8-14.1L-89.7,226.7z"/>
		</g>
		<path class="st3" d="M-232.2,254.8c0,0-13.5,46.9,1.8,30.2s42.9-40.7,42.9-40.7s-27.4,51.2-12.8,40.7
			c14.6-10.5,35.6-32.5,35.6-32.5s-22.9,47.3-10.5,37.4c12.4-9.8,50.7-50,9.6,14.9c0,0,13.2-33.1-17.4,8.9s0.1-35,0.1-35
			s-43.9,48.7-31.9,2.3c0,0-31.7,56-32.9-1.7L-232.2,254.8z"/>
		<g>
			<path class="st4" d="M-171.5,204.2c1.3-1.4,2.5-2.7,3.8-3.9c1.3-1.3,2.6-2.4,3.8-3.7c1.3-1.2,2.6-2.4,4-3.5
				c1.4-1.1,2.7-2.3,4.1-3.4c5.5-4.4,11.2-8.4,17.2-12.1l2.2-1.4c0.7-0.5,1.5-0.9,2.3-1.3c1.5-0.9,3-1.7,4.6-2.6
				c3.1-1.5,6.2-3.2,9.4-4.5c6.3-2.9,12.9-5.1,19.5-7.1c-6.4,2.6-12.7,5.4-18.6,8.9c-3,1.6-5.9,3.5-8.8,5.3l-4.2,2.9
				c-0.7,0.5-1.4,1-2.1,1.5l-2,1.5c-5.4,4.1-10.6,8.5-15.5,13.3c-1.2,1.2-2.4,2.4-3.6,3.6c-1.2,1.2-2.3,2.5-3.5,3.7
				c-1.1,1.3-2.2,2.5-3.3,3.8c-1.1,1.3-2.1,2.6-3.1,3.8L-171.5,204.2z"/>
		</g>
	</g>
	<g>
		
			<linearGradient id="SVGID_19_" gradientUnits="userSpaceOnUse" x1="650.1199" y1="326.7117" x2="945.1008" y2="326.7117" gradientTransform="matrix(1 0 0 1 -817.3132 0)">
			<stop  offset="0" style="stop-color:#2AD8FF"/>
			<stop  offset="0.9948" style="stop-color:#FC1E79"/>
		</linearGradient>
		<path class="st27" d="M127.8,274c0,0-226-21.5-289.6,218.5c0,0-54.5-320,184.7-331.6C22.9,160.9,115.3,168.7,127.8,274z"/>
		<path class="st3" d="M31.1,173.7c0,0,48.8,4.1,80.3,46.8c-30.3-54.7-88.5-59.6-88.5-59.6c-239.2,11.7-184.7,331.6-184.7,331.6
			C-160.4,486.9-183.6,167.9,31.1,173.7z"/>
		<path class="st4" d="M109.9,242.9c0,0-28.7-83.2-120.2-69.9c0,0,43.1,7,59.7,27.4c0,0-32.3-25.7-75.6,1.5c0,0,26.1-3,50.2,9.9
			c0,0-40.2-7.9-79.1,29.8l33.8-3.8l-69,90.7C-90.4,328.5,23.1,232.5,109.9,242.9z"/>
		<path class="st4" d="M-159.1,470.3c0,0-4.4-136.8,36.5-202.5c0,0-13.6,55.4,3.2,58.7c16.7,3.3,69.7-29.5,69.7-29.5
			S-141.9,369.4-159.1,470.3z"/>
		<g>
			<path class="st4" d="M-140.9,320.9c2.8-6.3,5.9-12.3,9-18.3c3.2-6,6.5-11.9,10-17.7c3.5-5.8,7.3-11.4,11.2-16.9
				c4-5.4,8.2-10.7,12.8-15.6c-4.1,5.3-7.8,10.9-11.2,16.7c-3.3,5.8-6.5,11.7-9.4,17.7c-2.9,6-5.6,12.1-8.1,18.3
				c-2.5,6.2-4.9,12.4-7,18.6L-140.9,320.9z"/>
		</g>
		<g>
			<path class="st4" d="M-134.9,334.4c2.8-6.3,5.9-12.3,9-18.3c3.2-6,6.5-11.9,10-17.7c3.5-5.8,7.3-11.4,11.2-16.9
				c4-5.4,8.2-10.7,12.8-15.6c-4.1,5.3-7.8,10.9-11.2,16.7c-3.3,5.8-6.5,11.7-9.4,17.7c-2.9,6-5.6,12.1-8.1,18.3
				c-2.5,6.2-4.9,12.4-7,18.6L-134.9,334.4z"/>
		</g>
		<g>
			<path class="st4" d="M-124.2,337.9c3.4-6,6.9-11.7,10.6-17.3c3.7-5.6,7.5-11.2,11.5-16.6c4-5.4,8.2-10.6,12.6-15.7
				c4.5-5,9.1-9.8,14.1-14.3c-4.5,4.9-8.7,10.1-12.6,15.5c-3.8,5.4-7.5,11-10.9,16.7c-3.4,5.7-6.6,11.5-9.7,17.4
				c-3,5.9-6,11.9-8.6,17.8L-124.2,337.9z"/>
		</g>
		<g>
			<path class="st4" d="M-115.7,348.8c3.5-5.9,7.1-11.5,10.8-17.1c3.8-5.6,7.7-11,11.7-16.4c4.1-5.3,8.4-10.5,12.8-15.5
				c4.5-4.9,9.3-9.7,14.3-14c-4.6,4.8-8.8,10-12.8,15.3c-3.9,5.4-7.6,10.9-11.1,16.5c-3.5,5.6-6.8,11.4-9.9,17.2
				c-3.1,5.8-6.2,11.8-8.9,17.7L-115.7,348.8z"/>
		</g>
		<path class="st3" d="M-52.9,189.7c0,0-34.6,39-11.2,29.1s55.4-23.7,32.3-3.7s-51.1,44.1-29.2,37.3s26.3-6.7,10.7,13.3
			c0,0,2.6-12.3-29.4,5.4c-32.1,17.7,22.6-44.2,22.6-44.2s-54.4,36.2-37.5-2.4L-52.9,189.7z"/>
	</g>
	<g>
		
			<linearGradient id="SVGID_20_" gradientUnits="userSpaceOnUse" x1="1013.7606" y1="327.027" x2="1199.2948" y2="327.027" gradientTransform="matrix(1 0 0 1 -817.3132 0)">
			<stop  offset="0" style="stop-color:#2AD8FF"/>
			<stop  offset="0.9948" style="stop-color:#FC1E79"/>
		</linearGradient>
		<path class="st28" d="M196.4,281.1c0,0,56.8-112.5,142.3-33.3s17.6,186.7,17.6,186.7S353.1,286.3,196.4,281.1z"/>
		<path class="st4" d="M209.9,277.6c0,0,33.9-55.7,85.7-39.2c0,0-22.6,0-35.4,7.3c0,0,44.2-9.8,61.8,10c0,0-26-11.5-54,0.8
			c0,0,47.3-1.2,56.1,18.9L209.9,277.6z"/>
		<path class="st3" d="M335.7,259c47.6,44.1,47.7,96.8,38.4,135c11.9-38.5,17.1-97.7-35.3-146.3c-85.6-79.2-142.3,33.3-142.3,33.3
			c1.2,0,2.3,0.1,3.5,0.2C217.2,255,267.2,195.6,335.7,259z"/>
		<path class="st4" d="M356,432.3c0,0,12.9-56.1-12.8-105.8c0,0,20,23.9,24.6,41.7c0,0-0.5-36.8-12.8-64.7
			C354.9,303.4,398.5,353.3,356,432.3z"/>
		<path class="st3" d="M341.7,262c0,0,6,8.4-29.2-6.4c0,0,21.5,10.4,27,31.5s-12.1-13.1-35.2-2.3c-23,10.9,21.2-5,37.2,56.5
			c0,0,3.4-21.2-8.4-39.2c0,0,18.3,11.9,26.1,36.5c0,0-0.1-30.9-11.3-53.3c-11.2-22.3,17.5,6.8,17.5,6.8S353,272.4,341.7,262z"/>
	</g>
	<g>
		
			<linearGradient id="SVGID_21_" gradientUnits="userSpaceOnUse" x1="724.3697" y1="335.9945" x2="967.855" y2="335.9945" gradientTransform="matrix(1 0 0 1 -817.3132 0)">
			<stop  offset="0" style="stop-color:#2AD8FF"/>
			<stop  offset="0.9948" style="stop-color:#FC1E79"/>
		</linearGradient>
		<path class="st29" d="M150.5,287.5c0,0-134.3,11.3-243.5,162.6C-92.9,450.1-53.7,73.9,150.5,287.5z"/>
		<path class="st3" d="M146,288c2.9-0.4,4.5-0.6,4.5-0.6C-53.7,73.9-92.9,450.1-92.9,450.1C-88.8,444.4-36.5,98.3,146,288z"/>
		<path class="st4" d="M-86.7,433c0,0,20.8-99.5,44.9-129.6c0,0,14.4,32.9,32.2,32.5s35.7-25.8,59.5-26.6
			C49.9,309.3-38.2,362.7-86.7,433z"/>
		<g>
			<path class="st4" d="M-54.5,331c0.6-1.9,1.2-3.5,1.9-5.2c0.7-1.7,1.4-3.3,2.1-5c1.4-3.3,3-6.5,4.7-9.7
				c3.3-6.3,7.1-12.4,11.3-18.1c2.1-2.9,4.4-5.6,6.7-8.3c2.4-2.7,4.9-5.2,7.5-7.5c5.2-4.7,11.1-8.8,17.3-12
				c-5.9,3.8-11.2,8.3-15.9,13.4c-2.3,2.5-4.6,5.2-6.6,8c-2.1,2.8-4,5.6-5.7,8.6c-3.6,5.9-6.6,12.1-9.2,18.4
				c-1.3,3.2-2.5,6.4-3.6,9.6c-0.5,1.6-1,3.2-1.5,4.9c-0.5,1.6-0.9,3.3-1.3,4.8L-54.5,331z"/>
		</g>
		<g>
			<path class="st4" d="M-48.3,339.7c0.6-1.9,1.2-3.5,1.9-5.2c0.7-1.7,1.4-3.3,2.1-5c1.4-3.3,3-6.5,4.7-9.7
				c3.3-6.3,7.1-12.4,11.3-18.1c2.1-2.9,4.4-5.6,6.7-8.3c2.4-2.7,4.9-5.2,7.5-7.5c5.2-4.7,11.1-8.8,17.3-12
				c-5.9,3.8-11.2,8.3-15.9,13.4c-2.3,2.5-4.6,5.2-6.6,8c-2.1,2.8-4,5.6-5.7,8.6c-3.6,5.9-6.6,12.1-9.2,18.4
				c-1.3,3.2-2.5,6.4-3.6,9.6c-0.5,1.6-1,3.2-1.5,4.9c-0.5,1.6-0.9,3.3-1.3,4.8L-48.3,339.7z"/>
		</g>
		<g>
			<path class="st4" d="M-42,348.4c0.6-1.9,1.2-3.5,1.9-5.2c0.7-1.7,1.4-3.3,2.1-5c1.4-3.3,3-6.5,4.7-9.7
				c3.3-6.3,7.1-12.4,11.3-18.1c2.1-2.9,4.4-5.6,6.7-8.3c2.4-2.7,4.9-5.2,7.5-7.5c5.2-4.7,11.1-8.8,17.3-12
				c-5.9,3.8-11.2,8.3-15.9,13.4c-2.3,2.5-4.6,5.2-6.6,8c-2.1,2.8-4,5.6-5.7,8.6c-3.6,5.9-6.6,12.1-9.2,18.4
				c-1.3,3.2-2.5,6.4-3.6,9.6c-0.5,1.6-1,3.2-1.5,4.9c-0.5,1.6-0.9,3.3-1.3,4.8L-42,348.4z"/>
		</g>
		<g>
			<path class="st4" d="M-36.8,353.2c0.8-1.8,1.6-3.3,2.4-4.9c0.8-1.6,1.7-3.1,2.6-4.7c1.8-3.1,3.7-6.1,5.6-9
				c4-5.9,8.3-11.5,13.1-16.6c4.8-5.2,10.1-9.9,15.8-14c5.7-4.1,11.9-7.4,18.4-9.8c-6.3,3-12,6.9-17.2,11.4c-5.2,4.5-9.8,9.6-14,15
				c-4.2,5.4-7.8,11.2-11.1,17.2c-1.6,3-3.1,6-4.6,9.1c-0.7,1.5-1.4,3.1-2,4.7c-0.6,1.5-1.3,3.2-1.7,4.6L-36.8,353.2z"/>
		</g>
		<g>
			<path class="st4" d="M-28.8,357.2c1-1.7,1.9-3.1,2.9-4.6c1-1.5,2-2.9,3-4.4c2.1-2.9,4.3-5.6,6.5-8.3c4.5-5.4,9.4-10.4,14.8-15
				c2.6-2.3,5.4-4.5,8.3-6.5c2.8-2,5.8-3.9,8.9-5.6c6.1-3.4,12.6-6,19.3-7.6c-6.5,2.3-12.7,5.4-18.3,9.3c-2.8,1.9-5.5,4-8.1,6.2
				c-2.6,2.2-5,4.5-7.4,7c-4.7,4.9-8.9,10.2-12.8,15.7c-1.9,2.8-3.7,5.6-5.4,8.5c-0.9,1.4-1.7,2.9-2.5,4.4c-0.8,1.5-1.6,3-2.2,4.4
				L-28.8,357.2z"/>
		</g>
		<path class="st4" d="M138.8,282.4c0,0-47.9,0.8-78,18.8c0,0,22.7-24.8,39.2-27.4c0,0-21.1-9.8-56.1-1.6c0,0,17-17.7,40.4-16.8
			c0,0-28.2-19.1-65.5-6.4C18.9,249,67.5,204.7,138.8,282.4z"/>
		<path class="st3" d="M-40.1,287.2c0,0,19.2-44.1,66.2-53.9l-26.7,23.9c0,0,30.9-9,64.9-5.2c0,0-27.7,9.9-38.8,25.6l51-0.6
			l-27.4,24.1l6.6-14.7c0,0-34.6-2.8-56.9,11c0,0,17.8-26.2,33.8-36.3c0,0-32.1,6.7-49.4,22.8c0,0-0.7-16.6,11.4-31.6L-40.1,287.2z"
			/>
	</g>
	<g>
		
			<linearGradient id="SVGID_22_" gradientUnits="userSpaceOnUse" x1="1008.4714" y1="370.6008" x2="1152.2167" y2="370.6008" gradientTransform="matrix(1 0 0 1 -817.3132 0)">
			<stop  offset="0" style="stop-color:#2AD8FF"/>
			<stop  offset="0.9948" style="stop-color:#FC1E79"/>
		</linearGradient>
		<path class="st30" d="M191.2,286.7c0,0,119,30.8,83.2,190.3C274.4,477,455.5,182,191.2,286.7z"/>
		<path class="st4" d="M277.2,471c0,0,10.9-46.6,13.8-98.1c0,0,4.6,17.7,6.6,29c0,0,7.3-15.8,10.3-32.2
			C308,369.8,306.7,420.8,277.2,471z"/>
		<path class="st4" d="M194.4,286.9c0,0,72-33.6,110.5,0.5c0,0-46.3-2.2-36,19.4c0,0,15.5,19.1,14.1,52.8
			C283,359.6,273.5,313.1,194.4,286.9z"/>
		<path class="st3" d="M191.2,286.7c0,0,4.5,1.2,11.4,4.2c214.1-80.4,73.6,178,71.8,186.2C274.4,477,455.5,182,191.2,286.7z"/>
		<g>
			<path class="st4" d="M255.6,289c0.6,0.1,1,0.2,1.4,0.3c0.4,0.1,0.9,0.2,1.3,0.3c0.9,0.2,1.7,0.5,2.5,0.8c1.6,0.6,3.2,1.2,4.8,1.9
				c3.1,1.4,6,3.3,8.7,5.4c5.4,4.2,9.6,9.8,12.2,15.9c2.6,6.1,3.7,12.6,3.9,19.1c0.2,6.4-0.6,12.8-1.8,19c0.6-6.3,0.7-12.7-0.1-18.9
				c-0.8-6.2-2.5-12.2-5.5-17.5c-3-5.3-7.1-9.7-12.1-12.8c-2.5-1.6-5.1-2.8-7.9-3.8c-1.4-0.5-2.8-0.9-4.2-1.2
				c-0.7-0.2-1.4-0.3-2.1-0.4c-0.3-0.1-0.7-0.1-1-0.1c-0.3,0-0.7-0.1-0.9-0.1L255.6,289z"/>
		</g>
		<g>
			<path class="st4" d="M265.3,281.4c0.6,0.1,1,0.2,1.4,0.3c0.4,0.1,0.9,0.2,1.3,0.3c0.9,0.2,1.7,0.5,2.5,0.8
				c1.6,0.6,3.2,1.2,4.8,1.9c3.1,1.4,6,3.3,8.7,5.4c5.4,4.2,9.6,9.8,12.2,15.9c2.6,6.1,3.7,12.6,3.9,19.1c0.2,6.4-0.6,12.8-1.8,19
				c0.6-6.3,0.7-12.7-0.1-18.9c-0.8-6.2-2.5-12.2-5.5-17.5c-3-5.3-7.1-9.7-12.1-12.8c-2.5-1.6-5.1-2.8-7.9-3.8
				c-1.4-0.5-2.8-0.9-4.2-1.2c-0.7-0.2-1.4-0.3-2.1-0.4c-0.3-0.1-0.7-0.1-1-0.1c-0.3,0-0.7-0.1-0.9-0.1L265.3,281.4z"/>
		</g>
		<g>
			<path class="st4" d="M276.2,278.2c0.6,0.1,1,0.2,1.4,0.3c0.4,0.1,0.9,0.2,1.3,0.3c0.9,0.2,1.7,0.5,2.5,0.8
				c1.6,0.6,3.2,1.2,4.8,1.9c3.1,1.4,6,3.3,8.7,5.4c5.4,4.2,9.6,9.8,12.2,15.9c2.6,6.1,3.7,12.6,3.9,19.1c0.2,6.4-0.6,12.8-1.8,19
				c0.6-6.3,0.7-12.7-0.1-18.9c-0.8-6.2-2.5-12.2-5.5-17.5c-3-5.3-7.1-9.7-12.1-12.8c-2.5-1.6-5.1-2.8-7.9-3.8
				c-1.4-0.5-2.8-0.9-4.2-1.2c-0.7-0.2-1.4-0.3-2.1-0.4c-0.3-0.1-0.7-0.1-1-0.1c-0.3,0-0.7-0.1-0.9-0.1L276.2,278.2z"/>
		</g>
		<path class="st3" d="M303.7,279.3c0,0,24.7,48.2,13.3,70.5c-11.4,22.4-10.3-33.3-10.3-33.3s-4.6,35.3-8.4,38.8
			s-10.2,1.8-11.9-24.5c0,0-4.8,47.2-1.9,61.3l8.3-26.8c0,0,7,28.3,12.5,4.1c5.5-24.2,2.9,22.4,15.2,1c12.2-21.4,8.5-65,8.5-65
			L303.7,279.3z"/>
	</g>
	<g>
		<g>
			<path class="st3" d="M49.5,768.7c0,0,31.5-42,35.6-56.1c4-14,55.1,9.4-5.9,57.6L49.5,768.7z"/>
			<path class="st4" d="M49.5,768.7c6.7-11.3,13.6-22.4,20.2-33.6c3.3-5.6,6.5-11.2,9.3-16.9c0.4-0.7,0.6-1.4,1-2.1
				c0.3-0.7,0.6-1.4,0.9-2.1l0.7-2c0.1-0.2,0.3-1,0.6-1.6c0.3-0.6,0.7-1.3,1.1-1.8c0.9-1.1,2-2,3.2-2.6c1.2-0.6,2.4-0.9,3.5-1
				c2.3-0.3,4.4,0,6.3,0.5c3.9,1,7.3,3.1,10.1,5.9c2.8,2.8,4.9,6.3,5.8,10.2c1,3.8,1,7.8,0.2,11.4c-0.7,3.7-2,7.1-3.7,10.2
				c-3.3,6.3-7.8,11.5-12.6,16.3c-4.8,4.7-10,8.9-15.4,12.7l-0.2,0.1c-0.4,0.3-0.9,0.4-1.3,0.3c-2.6-0.3-5.3-0.5-7.8-0.9l-7.6-1.1
				l-7.2-1C54,769.3,51.7,769,49.5,768.7z M49.5,768.7c2.7,0,5.4,0,8-0.1c2.6,0,5.1-0.2,7.6-0.3l7.2-0.3c2.4-0.1,4.7-0.1,7-0.1
				l-1.5,0.5c4.8-4.3,9.4-8.8,13.7-13.5c4.2-4.8,8-9.8,10.6-15.2c2.6-5.4,3.9-11.2,2.5-16.3c-0.7-2.5-2-4.8-3.8-6.7
				c-1.8-1.9-4.2-3.3-6.6-4c-1.2-0.3-2.4-0.5-3.4-0.4c-1,0.1-1.6,0.4-1.9,0.7c-0.1,0.1-0.1,0.2-0.2,0.3c-0.1,0.1-0.1,0.1-0.3,0.7
				l-1,2.6c-0.3,0.8-0.7,1.6-1.1,2.4c-0.4,0.8-0.8,1.6-1.2,2.3c-1.6,3-3.4,5.8-5.2,8.6c-0.9,1.4-1.8,2.8-2.8,4.1l-2.8,4.1
				C66.6,748.8,58.4,759,49.5,768.7z"/>
		</g>
		<g>
			<path class="st3" d="M41.9,762.4c0,0,31.5-42,35.6-56.1c4-14,55.1,9.4-5.9,57.6L41.9,762.4z"/>
			<path class="st4" d="M41.9,762.4c6.7-11.3,13.6-22.4,20.2-33.6c3.3-5.6,6.5-11.2,9.3-16.9c0.4-0.7,0.6-1.4,1-2.1
				c0.3-0.7,0.6-1.4,0.9-2.1l0.7-2c0.1-0.2,0.3-1,0.6-1.6c0.3-0.6,0.7-1.3,1.1-1.8c0.9-1.1,2-2,3.2-2.6c1.2-0.6,2.4-0.9,3.5-1
				c2.3-0.3,4.4,0,6.3,0.5c3.9,1,7.3,3.1,10.1,5.9c2.8,2.8,4.9,6.3,5.8,10.2c1,3.8,1,7.8,0.2,11.4c-0.7,3.7-2,7.1-3.7,10.2
				c-3.3,6.3-7.8,11.5-12.6,16.3c-4.8,4.7-10,8.9-15.4,12.7l-0.2,0.1c-0.4,0.3-0.9,0.4-1.3,0.3c-2.6-0.3-5.3-0.5-7.8-0.9l-7.6-1.1
				l-7.2-1C46.4,762.9,44.1,762.6,41.9,762.4z M41.9,762.4c2.7,0,5.4,0,8-0.1c2.6,0,5.1-0.2,7.6-0.3l7.2-0.3c2.4-0.1,4.7-0.1,7-0.1
				l-1.5,0.5c4.8-4.3,9.4-8.8,13.7-13.5c4.2-4.8,8-9.8,10.6-15.2c2.6-5.4,3.9-11.2,2.5-16.3c-0.7-2.5-2-4.8-3.8-6.7
				c-1.8-1.9-4.2-3.3-6.6-4c-1.2-0.3-2.4-0.5-3.4-0.4c-1,0.1-1.6,0.4-1.9,0.7c-0.1,0.1-0.1,0.2-0.2,0.3c-0.1,0.1-0.1,0.1-0.3,0.7
				l-1,2.6c-0.3,0.8-0.7,1.6-1.1,2.4c-0.4,0.8-0.8,1.6-1.2,2.3c-1.6,3-3.4,5.8-5.2,8.6c-0.9,1.4-1.8,2.8-2.8,4.1l-2.8,4.1
				C59,742.5,50.8,752.7,41.9,762.4z"/>
		</g>
		<g>
			<path class="st3" d="M53.3,918.7c33.2-3.3,45-75.4,45-75.4s10.5,12.9,23.6,0.4c12.4-11.9-3.3-55.5-5.1-64s-53.9-26.7-67.3-25
				s-37.2,46.4-42.5,65C-0.3,846-5.5,924.6,53.3,918.7z"/>
			<path class="st4" d="M53.3,918.3c3.8-0.4,7.4-1.8,10.6-3.9c3.2-2.1,6-4.7,8.4-7.7c4.8-5.9,8.2-12.9,11-19.9
				c1.4-3.5,2.6-7.2,3.7-10.8c1.1-3.6,2.1-7.3,3-11c0.9-3.7,1.8-7.4,2.5-11.1c0.7-3.7,1.5-7.5,2-11.1c0.3-2.1,2.3-3.6,4.4-3.2
				c0.9,0.1,1.6,0.5,2.2,1.1l0.3,0.3l0.3,0.3l0.4,0.4c0.3,0.3,0.6,0.5,0.9,0.8c0.6,0.5,1.3,0.9,1.9,1.3c1.3,0.7,2.7,1.3,4.1,1.4
				c2.7,0.4,5.4-0.6,8-2.5c0.6-0.5,1.3-1,1.9-1.6c0.4-0.3,0.5-0.5,0.7-0.7c0.2-0.2,0.4-0.5,0.6-0.8c0.7-1.1,1.3-2.5,1.6-4.1
				c0.8-3.2,0.9-6.8,0.7-10.4c-0.4-7.4-1.8-14.9-3.5-22.4c-0.9-3.7-1.8-7.5-2.8-11.3l-1.5-5.7l-0.8-2.9l-0.4-1.5l-0.2-0.7
				c0,0,0,0.1,0,0.1c0,0,0,0,0,0c0-0.1-0.5-0.7-1-1.2c-0.6-0.5-1.2-1-1.9-1.5c-1.4-1-3-2-4.6-2.9c-3.3-1.8-6.7-3.5-10.2-5
				c-3.5-1.6-7.1-3-10.7-4.4c-3.6-1.4-7.2-2.7-10.9-4c-3.7-1.2-7.4-2.3-11.1-3.3c-3.7-0.9-7.5-1.8-11.2-1.9c-0.9,0-1.8,0-2.5,0.1
				c-0.8,0.2-1.6,0.5-2.4,0.9c-1.6,0.8-3.1,2-4.5,3.2c-2.8,2.5-5.3,5.5-7.7,8.6c-4.7,6.2-8.6,12.9-12.1,19.9c-3.5,7-6.5,14.2-9,21.4
				c-1.3,3.6-2.4,7.3-3.4,10.8c-0.9,3.6-1.5,7.4-2.1,11.2c-1.1,7.6-1.7,15.2-1.9,22.8c-0.1,7.6,0.2,15.3,1.3,22.8
				c1.2,7.5,3.2,14.9,6.9,21.6c3.6,6.6,9.2,12.3,16.2,15.5C37.6,918.4,45.6,919.1,53.3,918.3z M53.4,919.1
				c-7.8,0.8-15.9,0.3-23.4-2.6c-3.7-1.5-7.2-3.5-10.3-6.1c-3.1-2.6-5.8-5.6-8.1-9C7,894.7,4,887,2.2,879.2
				c-1.9-7.8-2.8-15.9-2.9-23.9c-0.1-8,0.5-16,1.8-23.9c0.6-4,1.5-7.9,2.7-11.8c1.1-4,2.8-7.7,4.5-11.3c3.4-7.2,7.4-14.1,11.5-20.8
				c2-3.4,4.1-6.7,6.3-10c2.2-3.3,4.4-6.5,6.7-9.7c2.4-3.2,4.9-6.3,7.7-9.1c1.5-1.4,3-2.8,4.8-3.9c0.9-0.6,1.9-1.1,3-1.4
				c1.2-0.3,2.3-0.4,3.3-0.4c4.2,0,8.1,0.6,12.1,1.3c3.9,0.7,7.8,1.6,11.6,2.6c7.7,2,15.2,4.3,22.7,7.2c3.7,1.4,7.4,3,11,4.9
				c1.8,0.9,3.6,1.9,5.4,3.1c0.9,0.6,1.8,1.3,2.7,2c0.9,0.8,1.9,1.7,2.7,3.3c0.1,0.2,0.2,0.5,0.3,0.7c0.1,0.3,0.2,0.6,0.3,0.8
				l0.2,0.7l0.4,1.3l0.8,2.8l1.7,5.6c1.1,3.8,2.2,7.6,3.2,11.4c1.9,7.7,3.7,15.6,4.1,23.9c0.2,4.1,0.1,8.4-0.9,12.9
				c-0.5,2.2-1.4,4.5-2.9,6.7c-0.4,0.5-0.8,1.1-1.2,1.6c-0.4,0.5-1,1-1.4,1.4c-0.8,0.8-1.7,1.5-2.6,2.2c-1.9,1.4-4,2.5-6.5,3.2
				c-2.4,0.7-5.1,0.9-7.6,0.5c-2.5-0.4-4.9-1.3-6.9-2.6c-1-0.6-2-1.3-2.9-2.1c-0.5-0.4-0.9-0.8-1.3-1.2c-0.2-0.2-0.4-0.4-0.6-0.6
				c-0.2-0.2-0.4-0.4-0.7-0.8l6.8-1.8c-0.8,4-1.7,7.7-2.7,11.6c-1.1,3.8-2.2,7.5-3.5,11.3c-2.6,7.4-5.6,14.7-9.3,21.7
				c-1.8,3.5-3.8,6.9-6,10.2c-2.2,3.3-4.6,6.4-7.2,9.3c-2.7,2.9-5.7,5.5-9,7.5C61.1,917.3,57.3,918.7,53.4,919.1z"/>
		</g>
		<g>
			<path class="st4" d="M85,856.9c0.5-3.5,1.9-6.8,3.7-9.8c1.8-3,4.1-5.8,6.7-8.2c1.3-1.2,2.7-2.3,4.2-3.3c0.8-0.5,1.5-0.9,2.3-1.4
				c0.4-0.2,0.8-0.5,1.2-0.6l1.2-0.6c3.2-1.5,6.7-2.3,10.2-2.5c-2.9,2.1-5.7,3.8-8.2,5.8c-1.3,0.9-2.5,2-3.8,3
				c-1.2,1.1-2.5,2.1-3.6,3.2c-2.4,2.2-4.7,4.4-6.9,6.9C89.6,851.8,87.4,854.3,85,856.9z"/>
		</g>
		<g>
			<path class="st4" d="M51.5,785.1c-1.9,2-3.8,3.7-5.5,5.4c-1.8,1.7-3.5,3.3-5.1,4.9c-1.7,1.6-3.2,3.3-4.7,5.1
				c-0.4,0.5-0.8,0.9-1.2,1.4c-0.4,0.5-0.7,1-1.1,1.4c-0.9,1-1.5,2-2.5,3.1c-0.1-0.7-0.2-1.4-0.3-2.1c0-0.4,0-0.7,0-1.1
				c0-0.3,0.1-0.7,0.1-1c0.1-0.7,0.2-1.4,0.3-2.1c0.2-0.7,0.4-1.3,0.7-2c1-2.6,2.6-5,4.6-7c2-2,4.3-3.5,6.8-4.6
				C46,785.5,48.7,784.8,51.5,785.1z"/>
		</g>
		<g>
			<path class="st4" d="M121.3,802.9l-54.6-19l56.5,12.3c1.9,0.4,3,2.2,2.6,4.1c-0.4,1.9-2.2,3-4.1,2.6
				C121.6,803,121.5,803,121.3,802.9z"/>
		</g>
		<path class="st4" d="M120.5,818.9c0,0-40.7-16.9-47.2-11.6c-6.4,5.3-17.8,94.3-32.5,100.5c0,0,31.2,30.5,43.6-34.3
			c0,0-9.7-31.5,18.1-43.5C102.6,829.9,124.5,847.9,120.5,818.9z"/>
	</g>
	<g>
		<path class="st3" d="M166.5,759.1c0,0-30.3-16.4-36.6-19c-6.3-2.5-31.9,17.5-41.2,19.5s-2.2,31.9,37.8,9.4l17.3,5.2"/>
		<path class="st4" d="M166.3,759.4c-5.9-1.7-11.5-3.9-17-6.3c-5.5-2.4-10.9-5-16.2-7.6l-3.8-2c-0.3-0.1-0.8-0.4-0.5-0.3
			c0,0-0.1-0.1-0.2-0.1c-0.3-0.1-0.9,0-1.5,0.1c-2.5,0.4-5.4,1.3-8.1,2.4c-5.6,2.1-10.8,5.2-15.8,8.5c-2.5,1.7-5,3.4-7.6,5.1
			c-1.3,0.8-2.7,1.6-4.2,2.4c-0.4,0.2-0.8,0.3-1.2,0.5c-0.2,0.1-0.4,0.2-0.7,0.2l-0.2,0.1l0,0l-0.1,0.1c-0.2,0.2-0.3,0.3-0.4,0.6
			c-0.3,0.4-0.4,1.3-0.3,2.2c0.1,0.9,0.4,1.9,0.9,2.8c1,1.8,2.7,3.2,4.8,4.1c4.2,1.7,9.6,1.2,14.9,0c5.4-1.2,10.8-3.3,16.1-5.6
			l0.5-0.2c0.6-0.3,1.2-0.2,1.8,0l4.2,1.8c1.4,0.6,2.8,1.2,4.2,1.9c1.4,0.6,2.8,1.3,4.1,1.9c1.4,0.7,2.7,1.4,4.1,2.1
			c0.2,0.1,0.3,0.4,0.2,0.5c-0.1,0.1-0.2,0.2-0.4,0.2c-1.5-0.1-3-0.3-4.6-0.5c-1.5-0.2-3-0.4-4.5-0.7c-1.5-0.3-3-0.5-4.5-0.8
			l-4.5-0.8l2.3-0.3c-5.1,3.5-10.6,6.6-16.9,8.5c-3.1,0.9-6.4,1.6-9.9,1.6c-3.5,0-7.1-0.7-10.5-2.4c-3.4-1.7-6.3-4.6-7.9-8.2
			c-0.8-1.8-1.2-3.8-1.1-5.9c0-1,0.2-2.1,0.6-3.2c0.4-1,1-2.1,1.9-3c0.9-0.9,2.1-1.6,3.3-1.9l0.5-0.1l0.2,0l0.1,0c0.1,0,0.3,0,0.4,0
			c0.3,0,0.6-0.1,0.9-0.2c1.3-0.3,2.7-0.7,4-1.3c1.4-0.5,2.7-1.1,4.1-1.7c1.4-0.6,2.7-1.3,4-2c2.6-1.4,5.2-2.9,7.8-4.5
			c2.5-1.6,5-3.4,7.5-5.1c1.3-0.9,2.5-1.7,3.9-2.6c1.4-0.8,2.8-1.6,4.4-2.2c0.8-0.3,1.8-0.6,2.9-0.7c0.6,0,1.2,0,2,0.1
			c1,0.2,1.1,0.4,1.6,0.5c1.6,0.6,2.9,1.2,4.3,1.8c5.5,2.7,10.7,5.7,15.8,8.9c5.1,3.2,10.1,6.7,14.7,10.7c0.2,0.1,0.2,0.4,0,0.6
			C166.6,759.4,166.4,759.5,166.3,759.4z"/>
	</g>
	<g>
		<path class="st3" d="M166.4,777.2c0,0-33.6-7.7-40.4-8.5c-6.8-0.7-21.8,17.5-30.3,21.9s8.8,31.6,34.7,11.9l19.3,6.8"/>
		<path class="st4" d="M166.3,777.6c-5.5-0.2-10.9-0.7-16.3-1.3c-5.4-0.6-10.8-1.4-16.1-2.2c-2.6-0.4-5.4-0.8-7.8-1.1
			c-0.3,0-0.7-0.1-0.5-0.1c0,0,0,0-0.1,0c-0.2,0-0.6,0.2-1,0.4c-0.8,0.4-1.9,1-2.9,1.6c-2.1,1.3-4.1,2.9-6.2,4.5l-6.3,5
			c-1.1,0.8-2.2,1.6-3.4,2.4c-1.2,0.8-2.3,1.5-3.5,2.3c-1.2,0.7-2.4,1.5-3.7,2.1c-0.6,0.3-1.4,0.7-2,0.9c-0.4,0.1-0.7,0.4-1,0.7
			c-0.5,0.7-0.7,1.8-0.5,3c0.2,1.2,0.6,2.3,1.2,3.4c1.2,2.2,3.2,4,5.3,5.2c2.2,1.2,4.6,1.8,7,2c2.4,0.1,4.6-0.1,6.9-0.6
			c2.3-0.5,4.5-1.2,6.8-2.1c2.2-1,4.4-2.2,6.6-3.5l0.4-0.3c0.7-0.5,1.6-0.5,2.3-0.2c3.1,1.4,6.3,2.8,9.3,4.3
			c1.5,0.7,3.1,1.6,4.6,2.3c1.5,0.8,3,1.6,4.5,2.5c0.2,0.1,0.3,0.4,0.1,0.6c-0.1,0.1-0.2,0.2-0.4,0.2c-1.7-0.2-3.4-0.5-5.1-0.8
			c-1.7-0.3-3.4-0.7-5.1-1c-3.4-0.7-6.7-1.6-10-2.5l2.7-0.4c-2.2,1.9-4.5,3.7-7.2,5c-2.6,1.4-5.5,2.5-8.6,2.9
			c-3.1,0.4-6.3,0.1-9.2-0.9c-2.9-1-5.5-2.7-7.7-4.6c-2.2-2-4-4.2-5.4-6.8c-0.7-1.3-1.3-2.7-1.6-4.2c-0.3-1.5-0.4-3.2,0.5-4.9
			c0.4-0.8,1.1-1.6,1.9-2.1c0.6-0.4,1-0.7,1.5-1.1c1-0.8,1.9-1.7,2.8-2.7c0.9-1,1.8-1.9,2.7-2.9l2.7-3c1.9-1.9,3.8-3.9,5.8-5.8
			c2-1.9,4.1-3.8,6.5-5.6c1.2-0.9,2.5-1.7,4.1-2.5c0.8-0.4,1.7-0.7,2.8-0.9c0.6-0.1,1.2-0.2,1.9-0.2c0.9,0,1.1,0.1,1.5,0.2l1.1,0.2
			l1,0.2c0.7,0.1,1.4,0.3,2,0.4c1.4,0.3,2.7,0.6,4,1c5.3,1.3,10.5,2.9,15.7,4.6c5.2,1.7,10.3,3.5,15.4,5.8c0.2,0.1,0.3,0.3,0.2,0.5
			C166.6,777.5,166.4,777.6,166.3,777.6z"/>
	</g>
	<g>
		
			<linearGradient id="SVGID_23_" gradientUnits="userSpaceOnUse" x1="897.6453" y1="580.0767" x2="1088.3462" y2="580.0767" gradientTransform="matrix(1 0 0 1 -817.3132 0)">
			<stop  offset="0" style="stop-color:#2AD8FF"/>
			<stop  offset="0.9948" style="stop-color:#FC1E79"/>
		</linearGradient>
		<path class="st31" d="M145.3,637.4c0,0,79.3-55.2,156.4-48.9l-0.3-3.3c0,0,59.6-37.1,21.7-62.4
			C323.1,522.8,137.4,541.8,145.3,637.4z"/>
		<g>
			<path class="st4" d="M141.8,608.1c0,0,136.5-93.5,202.2-77.1C344,531,294.1,443.2,141.8,608.1z"/>
		</g>
		<g>
			<path class="st4" d="M149.6,634.8c0,0,35.3-74.9,159.9-81.2c0,0,26.6,76.7-87.7,90.3c0,0,73-21.7,67.9-70
				C289.6,573.8,227.5,567.9,149.6,634.8z"/>
		</g>
		<circle class="st4" cx="225.6" cy="599.6" r="19.4"/>
		<g>
			<path class="st4" d="M299,554.1c0,0,27.6,0.6,40.4-13.5c0,0-2.4,36.5-37.8,41.5L299,554.1z"/>
		</g>
	</g>
	<g>
		
			<linearGradient id="SVGID_24_" gradientUnits="userSpaceOnUse" x1="6143.8003" y1="576.9178" x2="6327.7612" y2="576.9178" gradientTransform="matrix(-1 0 0 1 6296.23 0)">
			<stop  offset="5.181347e-03" style="stop-color:#FC1E79"/>
			<stop  offset="1" style="stop-color:#2AD8FF"/>
		</linearGradient>
		<path class="st32" d="M56,634.8c0,0-55-45.1-152.3-52.6l-6.3,3c0,0-32.5-34.2-22.7-66.2C-125.4,519,70.4,569.5,56,634.8z"/>
		<g>
			<path class="st4" d="M55.3,608.7c0,0-129.5-94.1-195.2-77.7C-139.9,531-97,443.8,55.3,608.7z"/>
		</g>
		<g>
			<path class="st4" d="M56.4,634.8c0,0-35.3-74.9-159.9-81.2c0,0-26.6,76.7,87.7,90.3c0,0-73-21.7-67.9-70
				C-83.6,573.8-21.6,567.9,56.4,634.8z"/>
		</g>
		<circle class="st4" cx="-19.7" cy="599.6" r="19.4"/>
		<g>
			<path class="st4" d="M-93.1,554.1c0,0-27.6,0.6-40.4-13.5c0,0,2.4,36.5,37.8,41.5L-93.1,554.1z"/>
		</g>
	</g>
</g>
</svg>
