<?xml version="1.0" encoding="utf-8"?>
<!-- Generator: Adobe Illustrator 22.0.1, SVG Export Plug-In . SVG Version: 6.00 Build 0)  -->
<svg version="1.1" id="Capa_1" xmlns="http://www.w3.org/2000/svg" xmlns:xlink="http://www.w3.org/1999/xlink" x="0px" y="0px"
	 viewBox="0 0 1097.5 1215.7" style="enable-background:new 0 0 1097.5 1215.7;" xml:space="preserve">
<style type="text/css">
	.st0{fill:#FFFFFF;}
	.st1{fill:#5E004D;}
	.st2{fill:url(#SVGID_1_);stroke:#5E004D;stroke-width:8;stroke-linecap:round;stroke-linejoin:round;stroke-miterlimit:10;}
	.st3{fill:#FFFFFF;stroke:#5E004D;stroke-width:5;stroke-linecap:round;stroke-linejoin:round;stroke-miterlimit:10;}
	.st4{fill:url(#SVGID_2_);stroke:#5E004D;stroke-width:8;stroke-linecap:round;stroke-linejoin:round;stroke-miterlimit:10;}
	.st5{fill:url(#SVGID_3_);}
	.st6{fill:#5E004D;stroke:#5E004D;stroke-width:5;stroke-linecap:round;stroke-linejoin:round;stroke-miterlimit:10;}
	.st7{fill:url(#SVGID_4_);}
	.st8{fill:url(#SVGID_5_);stroke:#5E004D;stroke-width:8;stroke-linecap:round;stroke-linejoin:round;stroke-miterlimit:10;}
	.st9{fill:url(#SVGID_6_);}
	.st10{fill:#FFFFFF;stroke:#5E004D;stroke-linecap:round;stroke-linejoin:round;stroke-miterlimit:10;}
	.st11{fill:url(#SVGID_7_);}
	.st12{fill:url(#SVGID_8_);}
	.st13{fill:url(#SVGID_9_);}
	.st14{fill:url(#SVGID_10_);}
	.st15{fill:url(#SVGID_11_);}
</style>
<g>
	<g>
		<g>
			<path class="st0" d="M217.5,416c0,0-168.3-90.2-241.7,20.3C-92.5,539.1,62.2,616,106.4,579.4c0,0,120.2,82.1,178.7,140.4
				C285.1,719.9,363.1,519.1,217.5,416z"/>
			<path class="st1" d="M217.3,416.3c-19.3-9.8-39.9-17.5-60.8-23.2c-5.2-1.4-10.5-2.7-15.8-3.8c-5.3-1.1-10.6-2.1-16-2.9
				c-10.7-1.6-21.5-2.5-32.3-2.6s-21.5,0.7-32,2.5s-20.8,4.8-30.5,8.9c-4.9,2.1-9.6,4.5-14.1,7.2s-8.9,5.7-13,9.1
				c-4.1,3.3-7.9,6.9-11.6,10.8c-3.6,3.9-7,7.9-10.1,12.2c-6.2,8.6-11.6,17.9-15.1,27.8c-3.6,9.9-5.4,20.5-4.7,31
				c0.6,10.5,3.6,20.9,8.4,30.4c2.4,4.8,5.3,9.3,8.5,13.6s6.8,8.3,10.6,12.1c7.6,7.6,16.3,14.1,25.6,19.6s19.2,9.9,29.5,13.1
				c10.3,3.2,21,5.1,31.7,5c5.3-0.1,10.7-0.7,15.7-2.2c5.1-1.4,9.9-3.7,13.8-7.1c0.6-0.5,1.5-0.6,2.2-0.1l0,0
				c15.8,10.6,31.4,21.3,47,32.2c7.8,5.5,15.5,11,23.2,16.5c7.7,5.6,15.3,11.2,22.9,16.9s15.1,11.5,22.6,17.4s14.9,11.8,22.2,17.9
				c7.3,6,14.6,12.2,21.7,18.5s14.2,12.8,21,19.5l-6.9,1.5c1.1-3.1,2.2-6.4,3.3-9.7c1-3.3,2-6.6,3-9.9c1.9-6.6,3.6-13.3,5.1-20.1
				c1.5-6.7,2.8-13.5,4-20.3s2.2-13.6,3-20.5c1.6-13.7,2.4-27.5,2.4-41.3s-0.9-27.6-2.8-41.2c-1.9-13.6-4.9-27.1-9.2-40.3
				c-2.2-6.6-4.6-13-7.4-19.4c-2.8-6.3-5.9-12.5-9.3-18.5c-3.5-6-7.3-11.8-11.4-17.4c-1-1.4-2.1-2.8-3.1-4.1l-1.6-2.1
				c-0.5-0.7-1.1-1.3-1.7-2l-3.4-4l-3.5-3.9c-1.1-1.3-2.4-2.5-3.6-3.8c-1.2-1.2-2.4-2.5-3.7-3.7c-2.5-2.4-5-4.8-7.7-7
				C228.5,424.7,222.9,420.5,217.3,416.3z M217.8,415.7c11.5,8.1,22.1,17.2,31.9,27.2c4.9,5,9.4,10.4,13.8,15.8
				c4.4,5.5,8.4,11.3,12.2,17.2c15.1,23.7,25.1,50.7,30.1,78.6c1.2,7,2.2,14,2.9,21c0.6,7,1,14.1,1.2,21.2c0.3,14.1-0.5,28.3-2,42.3
				s-3.8,28-7,41.7c-1.6,6.9-3.3,13.7-5.2,20.5c-1,3.4-2,6.8-3.1,10.1c-1.1,3.4-2.2,6.7-3.5,10.1c-0.8,2.2-3.2,3.2-5.4,2.4
				c-0.6-0.2-1.1-0.6-1.5-1c-6.6-6.7-13.5-13.1-20.5-19.4c-7-6.3-14.1-12.5-21.3-18.6c-14.4-12.2-29.2-24-44.1-35.7
				c-7.5-5.8-14.9-11.6-22.4-17.4l-22.6-17.2c-15.1-11.4-30.4-22.6-45.8-33.6l2.2-0.1c-4.5,3.6-9.8,6-15.3,7.4s-11,1.9-16.6,1.9
				c-11.1-0.1-22-2.3-32.5-5.5c-20.9-6.7-40.4-17.9-56.4-33.1c-4-3.8-7.7-7.9-11.1-12.2s-6.6-8.9-9.2-13.8
				c-5.4-9.7-8.9-20.6-10-31.8c-1.1-11.2,0.4-22.6,3.9-33.3c3.5-10.7,8.8-20.7,15.2-29.8c12.6-18.4,30.7-33.4,51.5-41.8
				c10.3-4.3,21.3-7.1,32.3-8.6c11-1.6,22.1-1.8,33.1-1.3c22,1.2,43.6,5.9,64.5,12.3c10.4,3.3,20.7,6.8,30.9,10.9
				C198.1,406.3,208,410.6,217.8,415.7z"/>
		</g>
		<path class="st1" d="M56.8,384.1c0,0,9.4,22.9-18.8,60.5l77.9-8.1l-15-59.4L56.8,384.1z"/>
		<path class="st1" d="M121.7,528.3c0,0,15.6,63.9,46.5,66.6v19.7l-59.1-30.5L121.7,528.3z"/>
		
			<linearGradient id="SVGID_1_" gradientUnits="userSpaceOnUse" x1="-53.7355" y1="718.4501" x2="121.6311" y2="718.4501" gradientTransform="matrix(1 0 0 -1 0 1216)">
			<stop  offset="0" style="stop-color:#52FFCE"/>
			<stop  offset="0.9948" style="stop-color:#6700E4"/>
		</linearGradient>
		<path class="st2" d="M-1,411.3c0,0,151.7,27.9,117.7,156.4l-66,16.1l-104.4-80.5C-53.7,503.3-35.1,431.3-1,411.3z"/>
		<g>
			<g>
				<path class="st0" d="M82.1,473.5c0,0-119.3-47.9-180.7,10.7c-38.8,37,29.3,105.6,70.5,82.5c0,0,28.5,33,69.8,21.5
					s44.6,28.1,72.6,16.5s9.9-51.2-26.4-59.4C87.8,545.3,123.3,490,82.1,473.5z"/>
				<path class="st1" d="M81.9,473.9c-13-5-26.5-8.6-40.2-11.2c-3.4-0.6-6.8-1.2-10.3-1.8c-3.4-0.5-6.9-1-10.3-1.3
					c-6.9-0.8-13.8-1.2-20.7-1.4c-6.9-0.2-13.8-0.1-20.6,0.3c-3.4,0.2-6.8,0.5-10.2,0.9c-3.4,0.4-6.8,0.9-10.1,1.4
					c-6.7,1.2-13.3,2.7-19.7,4.9c-1.6,0.5-3.2,1.1-4.8,1.7c-1.6,0.7-3.2,1.2-4.7,1.9c-3.1,1.3-6.1,2.8-9.1,4.4
					c-2.9,1.6-5.8,3.4-8.6,5.3c-2.8,1.9-5.5,4-8,6.2c-1.3,1.1-2.5,2.2-3.6,3.4c-0.6,0.6-1.1,1.2-1.6,1.8l-0.8,0.9l-0.7,1
					c-1.9,2.6-3.5,5.5-4.5,8.6c-1.1,3.1-1.7,6.4-1.7,9.7c-0.1,3.3,0.2,6.7,1,10c0.8,3.3,1.9,6.5,3.3,9.6c1.4,3.1,3.2,6.1,5.1,8.9
					c7.7,11.3,18.8,20.5,31.3,25.9c6.3,2.6,13,4.3,19.6,4.3c3.3,0,6.6-0.3,9.8-1.2c3.2-0.8,6.2-2.1,8.9-3.7c1.1-0.6,2.4-0.4,3.2,0.4
					l0.2,0.2c13.5,13.4,32.4,22.6,51.3,21.9c4.7-0.2,9.4-0.9,14-2.1c1.1-0.3,2.4-0.7,3.7-1s2.6-0.6,3.9-0.9c2.7-0.5,5.4-0.8,8.1-0.9
					c5.5-0.2,11.2,0.7,16.4,2.8s9.8,5.1,13.9,8.2c4.1,3,7.9,6.1,11.8,7.9c3.8,1.9,7.7,2.3,11.9,1.3c2-0.5,4.2-1.3,6.1-2.3
					c1.9-1,3.6-2.2,4.9-3.7c1.4-1.4,2.4-3.1,3.1-5c0.7-1.8,1-3.9,1-6s-0.4-4.3-1-6.4c-0.6-2.1-1.4-4.3-2.5-6.3
					c-2.1-4.1-5-7.9-8.4-11.2c-6.7-6.7-15.4-11.7-24.8-14.2h-0.1c-0.9-0.3-1.5-1.2-1.2-2.2c0-0.2,0.1-0.4,0.2-0.5
					c3.7-5.6,6.9-11.8,9.5-18.1s4.6-13,5.2-19.8c0.3-3.4,0.3-6.8-0.2-10.2c-0.5-3.4-1.6-6.6-3.3-9.6c-1.7-2.9-4-5.6-6.7-7.7
					C88.2,476.8,85.1,475.2,81.9,473.9z M82.2,473.1c3.2,1.3,6.4,2.9,9.2,5.1c2.8,2.1,5.2,4.8,7,7.8s3,6.4,3.7,9.9s0.8,7,0.6,10.5
					c-0.5,7-2.2,13.9-4.5,20.5c-1.2,3.3-2.5,6.6-4,9.8s-3,6.3-4.8,9.4l-1.1-2.7c10.2,1.9,20,6.4,28.1,13.3c4,3.4,7.6,7.5,10.4,12.2
					c1.4,2.3,2.6,4.8,3.5,7.5s1.4,5.5,1.6,8.4c0.1,2.9-0.2,5.9-1.2,8.8c-1,2.9-2.6,5.6-4.6,7.8c-2,2.2-4.5,4-7,5.4
					c-2.6,1.4-5.1,2.4-7.9,3.1c-2.8,0.7-5.9,1-8.9,0.8c-3-0.3-6-1.2-8.6-2.4c-5.3-2.5-9.3-5.9-13.2-8.8c-3.9-2.9-7.8-5.5-12-7.1
					c-4.1-1.7-8.5-2.5-13.1-2.4c-2.3,0-4.6,0.2-6.9,0.6c-1.1,0.2-2.3,0.4-3.4,0.7l-3.6,0.9c-5.2,1.3-10.5,2-15.8,2
					C15,594.3,4.4,591.7-5,587.1c-4.7-2.3-9.2-5.1-13.4-8.2c-2.1-1.6-4.1-3.2-6-5c-1-0.9-1.9-1.8-2.8-2.7c-0.9-1-1.8-1.9-2.7-3
					l3.4,0.6c-3.3,1.7-6.9,3-10.6,3.7c-3.6,0.7-7.4,0.9-11,0.6c-3.7-0.2-7.2-0.9-10.7-1.9s-6.8-2.3-10-3.8
					c-6.4-3.1-12.4-7.1-17.8-11.7c-5.4-4.6-10.2-9.9-14.3-15.7c-4-5.8-7.3-12.2-9.3-19.2c-1.9-6.9-2.4-14.5-0.4-21.7
					c1.8-7.2,6.2-13.7,11.5-18.7c5.2-5,10.9-9.4,17.1-13.1c6.2-3.6,12.8-6.7,19.6-9c3.4-1.2,6.9-2.1,10.3-3c3.5-0.8,7-1.5,10.5-2.1
					c7.1-1.1,14.2-1.6,21.3-1.7s14.2,0.3,21.2,1c14,1.4,27.8,4.2,41.4,7.6c6.8,1.8,13.5,3.6,20.2,5.7c3.3,1.1,6.7,2.1,10,3.2
					C75.7,470.7,79,471.8,82.2,473.1z"/>
			</g>
			<path class="st1" d="M-16.8,542.6c0,0-47-7.1-60.4-31.1c-0.1-0.2-13.4,12.6-13.4,12.6S-75.5,573.8-16.8,542.6z"/>
			<g>
				<path class="st0" d="M75.6,498.5c-17-7.1-19.2-70.3-19.2-70.3l-63.6-13.4c0,0-9.6,51.1-16.7,65.3"/>
				<path class="st1" d="M75.6,498.5c-1.5-0.5-2.9-1.3-4.1-2.4c-1.2-1.1-2.3-2.3-3.2-3.6c-1.9-2.6-3.4-5.5-4.6-8.4
					c-2.5-5.9-4.3-12-5.7-18.2c-1.5-6.2-2.5-12.4-3.4-18.7c-0.4-3.1-0.8-6.3-1.1-9.4c-0.3-3.2-0.6-6.3-0.8-9.5l2.9,3.5
					c-5.3-1-10.6-2.1-15.9-3.1c-5.3-1.1-10.6-2.2-15.9-3.3c-5.3-1.1-10.6-2.3-15.9-3.5c-5.3-1.2-10.6-2.4-15.8-3.7l4.2-2.8
					c-1.2,5.5-2.5,11-3.8,16.5c-1.4,5.5-2.8,10.9-4.4,16.4c-1.5,5.4-3.3,10.8-5.1,16.2c-1.9,5.3-3.9,10.7-6.8,15.6
					c1-2.6,1.7-5.4,2.4-8.1c0.7-2.7,1.3-5.5,1.9-8.2c1.2-5.5,2.2-11,3.2-16.5s2-11,2.9-16.6l2.8-16.6c0.3-1.9,2.1-3.1,4-2.8l0,0h0.2
					c5.3,1,10.7,2,16,3c5.3,1.1,10.6,2.1,15.9,3.2c5.3,1.1,10.6,2.2,15.9,3.4c5.3,1.2,10.6,2.3,15.8,3.6h0.1
					c1.7,0.4,2.8,1.9,2.8,3.5c0.1,6.1,0.5,12.3,0.9,18.5s1.1,12.3,1.9,18.4c0.4,3.1,0.9,6.1,1.5,9.1s1.2,6,2.1,9
					c0.9,2.9,1.8,5.8,3.2,8.6C71,494.4,72.8,497,75.6,498.5z"/>
			</g>
			<path class="st1" d="M109.7,583.8c0,0-18.5-2-29.8-15.9c-11.4-13.9-32.7-8.2-29.8-18.2c2.8-9.9,39.8-56.8,38.4-62.5
				c-0.8-3.1-12.4-1.5-22.7,0.6c-8.4,1.7-16.5-3.8-18-12.3c-2.1-11.9-5.6-26.8-10.5-30.9c-8.5-7.1-29.8-7.1-29.8-7.1
				s-15.9,34.1-18.6,42.6l-69.5,11.4c0,0,6.9,25.7,38.4,35.5c41.2,12.8,75.3,0,75.3,0S8.9,542.6-1,539.8s11.4,42.6,42.6,36.9
				C72.7,571,106.8,615,109.7,583.8z"/>
			<g>
				<path class="st0" d="M115.5,471.8c0,0-18.1-25.6-43.6-18.1c-25.6,7.5-3,67.7,10.5,67.7C95.9,521.4,115.5,524.5,115.5,471.8z"/>
				<path class="st1" d="M115.1,471.9C115.1,471.9,115.1,472,115.1,471.9L115.1,471.9l-0.2-0.2l-0.3-0.3l-0.6-0.5l-1.2-1
					c-0.8-0.7-1.6-1.3-2.4-2c-1.6-1.3-3.3-2.5-4.9-3.6c-3.3-2.3-6.8-4.2-10.4-5.7c-1.8-0.7-3.6-1.3-5.5-1.8
					c-1.8-0.5-3.7-0.8-5.5-0.9c-3.7-0.3-7.4,0.1-11.1,0.8c-1.7,0.4-3.2,0.9-4.6,1.9c-1.4,0.9-2.6,2.2-3.6,3.8c-2,3.1-3,7.2-3.2,11.2
					c-0.4,8.2,2,16.4,5.4,23.7c1.7,3.7,3.8,7.2,5.9,10.6c1.1,1.6,2.2,3.2,3.4,4.7c1.2,1.5,2.5,2.8,3.8,3.7c0.6,0.5,1.3,0.8,1.7,0.9
					l0.3,0.1c0.1,0,0.2,0,0.2,0s0,0,0.1,0h0.1h0.2h0.8c2.1,0,4.1-0.1,6-0.2c3.8-0.3,7.1-1,9.8-2.7c1.4-0.8,2.6-1.9,3.7-3.2
					c1.1-1.3,2.1-2.8,3-4.4c1.7-3.3,3.1-7,4.2-10.8c0.5-1.9,1-3.9,1.5-5.9c0.2-1,0.4-2,0.6-3c0.2-1,0.4-2,0.6-3c0.2-1,0.3-2,0.5-3.1
					l0.5-3.1L115.1,471.9z M115.8,471.7c0.2,1,0.3,2.1,0.5,3.2l0.2,1.7l0.2,1.6l0.3,3.2c0.1,1.1,0.1,2.1,0.1,3.2
					c0.1,2.1,0.1,4.3,0,6.4s-0.2,4.3-0.5,6.5c-0.6,4.3-1.5,8.7-3.4,13c-1,2.1-2.1,4.2-3.6,6.2s-3.4,3.7-5.5,5.2
					c-2.2,1.4-4.6,2.4-7,3s-4.8,0.8-7.1,0.9c-2.3,0-4.5-0.1-6.5-0.1h-0.8h-0.5l-0.7-0.1c-0.5,0-0.9-0.2-1.3-0.3
					c-0.4-0.1-0.8-0.3-1.2-0.4c-1.5-0.6-2.6-1.4-3.6-2.3c-2-1.7-3.4-3.5-4.8-5.4c-1.3-1.9-2.4-3.8-3.3-5.8c-1.9-4-3.3-8.1-4.4-12.2
					c-1.1-4.1-2-8.3-2.7-12.5S59,478.3,59,474c0-4.3,0.2-8.7,1.8-13.1c0.8-2.2,2.1-4.3,3.9-6.1c1.8-1.8,4.1-3.2,6.4-4
					c4.3-1.5,9.1-2.1,13.7-1.5c2.3,0.2,4.6,0.7,6.7,1.4c2.2,0.7,4.3,1.6,6.2,2.7c4,2.1,7.5,4.9,10.5,8c1.5,1.6,2.9,3.2,4.2,5
					c0.6,0.9,1.2,1.8,1.8,2.7c0.3,0.5,0.6,0.9,0.8,1.4l0.4,0.7L115.8,471.7z"/>
			</g>
			<g>
				<path class="st0" d="M56.8,422.6c0,0-20.9-23.4-50.5-16.5S2.8,468,18.5,468S56.8,470.7,56.8,422.6z"/>
				<path class="st1" d="M56.4,422.7C56.4,422.7,56.4,422.8,56.4,422.7L56.4,422.7l-0.2-0.1l-0.3-0.2l-0.7-0.5l-1.3-0.9
					c-0.9-0.6-1.8-1.1-2.7-1.7c-1.8-1.1-3.6-2.1-5.4-3.1c-3.7-1.9-7.4-3.6-11.2-4.9s-7.7-2.2-11.6-2.6c-3.9-0.4-7.9-0.5-11.8-0.2
					c-0.5,0-1,0.1-1.5,0.1l-1.5,0.2c-1,0.1-1.9,0.2-2.8,0.4c-1.8,0.4-3.5,1-5,2c-3.1,2-5.2,5.6-5.9,9.6c-0.7,4-0.3,8.2,0.7,12.2
					s2.6,7.9,4.6,11.5s4.3,7,6.8,10.2c1.3,1.6,2.6,3.1,4,4.4c1.4,1.4,2.8,2.6,4.3,3.5c0.7,0.4,1.5,0.8,2.1,1l0.5,0.1
					c0.1,0,0.3,0.1,0.4,0.1h0.4c0.1,0,0.2,0,0.4,0c2.2-0.1,4.3-0.1,6.3-0.2c4.1-0.2,7.9-0.5,11.3-1.6c3.4-1,6.3-2.9,8.7-5.5
					c1.2-1.3,2.3-2.9,3.2-4.5l0.7-1.3l0.6-1.3c0.5-0.9,0.8-1.8,1.2-2.7c0.4-0.9,0.7-1.9,1-2.8l0.9-2.9l0.8-3l0.7-3
					c0.4-2.1,0.9-4.1,1.2-6.2L56.4,422.7z M57.1,422.4c0.2,1,0.3,2.1,0.5,3.3c0.1,1.2,0.2,2.2,0.3,3.3c0.2,2.2,0.3,4.3,0.2,6.5
					l-0.1,3.3l-0.3,3.3l-0.4,3.3c-0.2,1.1-0.4,2.2-0.7,3.3c-1.1,4.4-2.7,8.9-5.7,12.9c-2.9,4-7.3,7.2-12,8.7
					c-4.7,1.6-9.5,1.9-13.9,1.8c-2.2,0-4.4-0.1-6.4-0.2c-0.3,0-0.8,0-1.2-0.1s-0.8-0.1-1.2-0.2l-1.1-0.3l-1-0.4
					c-1.3-0.6-2.5-1.2-3.5-2c-2.1-1.5-3.8-3.2-5.3-4.9c-1.5-1.8-2.8-3.6-4-5.6c-2.4-3.8-4.1-8-5.6-12.1c-1.4-4.2-2.5-8.4-3.2-12.7
					c-0.7-4.3-1.1-8.7-0.6-13.2c0.3-2.2,0.7-4.5,1.6-6.6c0.9-2.2,2.2-4.2,4-6c1.7-1.7,3.9-3.1,6.1-4c1.1-0.5,2.3-0.8,3.4-1.1
					l1.6-0.4l1.7-0.3c2.2-0.5,4.5-0.7,6.8-0.8c2.3,0,4.6,0.1,6.8,0.5c4.5,0.6,8.9,2,13,3.9s7.9,4.3,11.3,7.1
					c1.7,1.4,3.3,2.9,4.8,4.5c0.7,0.8,1.5,1.6,2.2,2.5c0.3,0.4,0.7,0.9,1,1.3l0.5,0.7l0.2,0.3L57.1,422.4z"/>
			</g>
			<g>
				<path class="st0" d="M-15,440.9c0,0-25.6-22-50.4-7.4s14.7,71.6,28.9,68S-1.1,496-15,440.9z"/>
				<path class="st1" d="M-15.3,441.1C-15.3,441.1-15.3,441.2-15.3,441.1L-15.3,441.1l-0.3-0.1l-0.4-0.2l-0.7-0.4l-1.5-0.8
					c-1-0.5-2-1-3-1.5c-2-0.9-4.1-1.8-6.1-2.5c-4.1-1.5-8.3-2.7-12.4-3.2c-2.1-0.3-4.2-0.5-6.2-0.4c-2.1,0-4.1,0.2-6.1,0.5
					c-4,0.7-7.8,2.1-11.5,3.9c-0.8,0.4-1.6,0.9-2.3,1.4c-0.7,0.5-1.4,1.1-2,1.8c-1.2,1.4-2.2,3.1-2.8,5c-1.2,3.9-1.2,8.4-0.3,12.6
					c1.8,8.6,6.4,16.6,11.9,23.5c2.8,3.5,5.8,6.6,8.9,9.6c1.6,1.4,3.2,2.8,4.8,4.1c1.6,1.2,3.4,2.3,5,3c0.8,0.3,1.6,0.5,2.1,0.5h0.4
					c0.1,0,0.2,0,0.3-0.1l1.3-0.4c2.2-0.6,4.3-1.1,6.3-1.8c3.9-1.3,7.3-3,9.7-5.5c1.2-1.3,2.3-2.7,3.1-4.4c0.8-1.7,1.5-3.5,2-5.5
					c0.9-3.9,1.4-8.2,1.5-12.5c0-2.2,0-4.4-0.1-6.6c0-1.1-0.1-2.2-0.2-3.3c-0.1-1.1-0.1-2.2-0.2-3.3c-0.1-1.1-0.2-2.2-0.3-3.3
					l-0.3-3.4L-15.3,441.1z M-14.7,440.7c0.4,1,0.9,2.1,1.3,3.2l0.6,1.7l0.6,1.6l1.1,3.3c0.3,1.1,0.6,2.2,1,3.3
					c0.6,2.2,1.2,4.4,1.6,6.7c0.5,2.3,0.9,4.6,1.1,6.9c0.5,4.7,0.6,9.5-0.2,14.4c-0.4,2.5-1.1,4.9-2.1,7.4c-1,2.4-2.5,4.8-4.4,6.8
					s-4.1,3.7-6.4,4.9c-2.3,1.2-4.7,2.1-7.1,2.7c-2.3,0.7-4.6,1.1-6.8,1.6l-0.8,0.2l-0.5,0.1l-0.7,0.1c-0.5,0.1-0.9,0.1-1.4,0.1
					c-0.4,0-0.9-0.1-1.3-0.1c-1.7-0.3-3.1-0.8-4.3-1.4c-2.5-1.2-4.5-2.7-6.3-4.3c-1.8-1.6-3.5-3.3-5-5.2c-3.1-3.6-5.6-7.5-7.9-11.5
					s-4.3-8.2-6.1-12.4c-1.8-4.2-3.4-8.5-4.6-13c-1.2-4.5-2.1-9.1-1.5-14.2c0.3-2.5,1.1-5,2.5-7.3s3.4-4.3,5.6-5.7
					c4.1-2.7,8.9-4.5,13.8-5.1c1.2-0.2,2.5-0.3,3.7-0.3s2.5,0,3.7,0.1c2.4,0.2,4.9,0.5,7.2,1.1c4.7,1.2,9.1,3.1,13.1,5.5
					c2,1.2,3.9,2.6,5.7,4c0.9,0.7,1.8,1.5,2.6,2.3c0.4,0.4,0.8,0.8,1.2,1.2l0.6,0.6L-14.7,440.7z"/>
			</g>
			<g>
				<path class="st0" d="M-68.9,466.2c0,0-25.6-22-50.4-7.4s14.7,71.6,28.9,68S-55,521.3-68.9,466.2z"/>
				<path class="st1" d="M-69.2,466.4C-69.2,466.4-69.2,466.5-69.2,466.4L-69.2,466.4l-0.3-0.1l-0.4-0.2l-0.7-0.4l-1.5-0.8
					c-1-0.5-2-1-3-1.5c-2-0.9-4.1-1.8-6.1-2.5c-4.1-1.5-8.3-2.7-12.4-3.2c-2.1-0.3-4.2-0.5-6.2-0.4c-2.1,0-4.1,0.2-6.1,0.5
					c-4,0.7-7.8,2.1-11.5,3.9c-0.8,0.4-1.6,0.9-2.3,1.4c-0.7,0.5-1.4,1.1-2,1.8c-1.2,1.4-2.2,3.1-2.8,5c-1.2,3.9-1.2,8.4-0.3,12.6
					c1.8,8.6,6.4,16.6,11.9,23.5c2.8,3.5,5.8,6.6,8.9,9.6c1.6,1.4,3.2,2.8,4.8,4.1c1.6,1.2,3.4,2.3,5,3c0.8,0.3,1.6,0.5,2.1,0.5h0.4
					c0.1,0,0.2,0,0.3-0.1l1.3-0.4c2.2-0.6,4.3-1.1,6.3-1.8c3.9-1.3,7.3-3,9.7-5.5c1.2-1.3,2.3-2.7,3.1-4.4c0.8-1.7,1.5-3.5,2-5.5
					c0.9-3.9,1.4-8.2,1.5-12.5c0-2.2,0-4.4-0.1-6.6c0-1.1-0.1-2.2-0.2-3.3c-0.1-1.1-0.1-2.2-0.2-3.3c-0.1-1.1-0.2-2.2-0.3-3.3
					l-0.3-3.4L-69.2,466.4z M-68.5,466c0.4,1,0.9,2.1,1.3,3.2l0.6,1.7l0.6,1.6l1.1,3.3c0.3,1.1,0.6,2.2,1,3.3
					c0.6,2.2,1.2,4.4,1.6,6.7c0.5,2.3,0.9,4.6,1.1,6.9c0.5,4.7,0.6,9.5-0.2,14.4c-0.4,2.5-1.1,4.9-2.1,7.4c-1,2.4-2.5,4.8-4.4,6.8
					s-4.1,3.7-6.4,4.9s-4.7,2.1-7.1,2.7c-2.3,0.7-4.6,1.1-6.8,1.6l-0.8,0.2l-0.5,0.1l-0.7,0.1c-0.5,0.1-0.9,0.1-1.4,0.1
					c-0.4,0-0.9-0.1-1.3-0.1c-1.7-0.3-3.1-0.8-4.3-1.4c-2.5-1.2-4.5-2.7-6.3-4.3c-1.8-1.6-3.5-3.3-5-5.2c-3.1-3.6-5.6-7.5-7.9-11.5
					s-4.3-8.2-6.1-12.4c-1.8-4.2-3.4-8.5-4.6-13c-1.2-4.5-2.1-9.1-1.5-14.2c0.3-2.5,1.1-5,2.5-7.3s3.4-4.3,5.6-5.7
					c4.1-2.7,8.9-4.5,13.8-5.1c1.2-0.2,2.5-0.3,3.7-0.3c1.2,0,2.5,0,3.7,0.1c2.4,0.2,4.9,0.5,7.2,1.1c4.7,1.2,9.1,3.1,13.1,5.5
					c2,1.2,3.9,2.6,5.7,4c0.9,0.7,1.8,1.5,2.6,2.3c0.4,0.4,0.8,0.8,1.2,1.2l0.6,0.6L-68.5,466z"/>
			</g>
			<path class="st3" d="M102.6,492.4c0,0-17.8-14-25.8-4.6S102.6,524.6,102.6,492.4z"/>
			<path class="st3" d="M41.5,431.8c0,0-21.3-9.9-34.1-2.8c0,0,4.3,18.5,17,17S47.2,441.7,41.5,431.8z"/>
			<path class="st3" d="M-23.9,461.9c0,0-17-4.6-29.8,3.2c-13.4,8.1,14,23.8,21.9,19.4S-21,483.6-23.9,461.9z"/>
			<path class="st1" d="M-85.9,468.2c0,0,4.6,41.8-17.1,39.6c0,0,13.8,19.1,22.3,3.5s4.3-34.1,4.3-34.1S-76.9,470.6-85.9,468.2z"/>
			<path class="st3" d="M-80.7,491.4c0,0-19.5-5-26.8,5.3c-7.3,10.3,22.5,28.8,26.8,11.7C-76.4,491.3-80.7,491.4-80.7,491.4z"/>
		</g>
		<g>
			<path class="st0" d="M197.8,654c0,0,95.3,231.3,38.9,247.1c-76.6,21.5-135.6,81.9-99.4,162.5c0,0,26.9,49.7,34.9,60.4
				c8.1,10.7,208.2,2.7,217.6-12.1l-17.5-48.4c0,0,102.1-17.5,141-12.1c0,0,110.1,52.4,151.8,76.6l212.2-1.3
				c0,0-74.7-131.9-110.1-188c-55.1-87.3-80.6-181.3-133-318.3L197.8,654z"/>
			<path class="st1" d="M198.1,654.3c0.2,0.1,0.2-0.1,0.2,0.1l0.2,0.4l0.4,0.9l0.7,1.7l1.4,3.5l2.9,7c1.9,4.7,3.7,9.3,5.6,14
				c3.6,9.4,7.2,18.8,10.6,28.3c6.8,18.9,13.3,38.1,19,57.4c5.7,19.3,10.8,38.9,14.3,58.9c1.8,10,3.1,20.1,3.6,30.3
				c0.2,5.1,0.2,10.3-0.2,15.4c-0.5,5.2-1.3,10.4-3.2,15.4c-0.9,2.5-2.1,5-3.7,7.3s-3.6,4.4-6,6.1c-1.2,0.8-2.5,1.5-3.8,2.1
				c-0.7,0.3-1.3,0.5-2,0.7l-1,0.3l-0.9,0.3c-2.4,0.7-4.8,1.4-7.1,2.2c-9.4,3.1-18.6,6.9-27.5,11.3c-8.8,4.4-17.3,9.6-25.2,15.5
				c-7.9,5.9-15.2,12.5-21.6,19.9c-3.2,3.7-6.2,7.6-8.9,11.6c-2.7,4.1-5.1,8.3-7.1,12.7c-4.1,8.8-6.8,18.2-7.9,27.8
				s-0.7,19.4,1.2,28.9c1.8,9.5,5,18.8,9,27.8l-0.1-0.3c5.8,10.6,11.6,21.1,17.6,31.6c3,5.2,6,10.4,9.1,15.6
				c1.5,2.6,3.1,5.1,4.7,7.6l1.2,1.8l0.6,0.9l0.6,0.9l0.6,0.9l0.3,0.4l0.1,0.1l-0.1-0.1c-0.1-0.1-0.2-0.2-0.2-0.2l-0.1-0.1l0,0
				c0,0,0.1,0,0.1,0.1c0.1,0.1,0.4,0.2,0.6,0.2c1,0.4,2.4,0.7,3.7,0.9c1.4,0.3,2.8,0.5,4.2,0.6c2.9,0.4,5.8,0.6,8.8,0.8
				c5.9,0.4,11.9,0.6,17.9,0.7c12,0.2,24,0.1,36.1-0.1c24.1-0.5,48.2-1.7,72.2-3.6c12-1,24-2.1,35.8-3.7c5.9-0.8,11.8-1.7,17.6-2.9
				c2.9-0.6,5.7-1.3,8.4-2.1c1.3-0.4,2.7-0.9,3.8-1.4c0.6-0.2,1.1-0.5,1.5-0.8c0.4-0.2,0.6-0.5,0.4-0.3l-0.4,3.6l-17.3-48.4l0,0
				c-0.7-2,0.3-4.2,2.3-5c0.2-0.1,0.5-0.1,0.7-0.2c11.7-1.9,23.4-3.7,35.2-5.3c11.7-1.6,23.5-3.1,35.3-4.3
				c11.8-1.2,23.6-2.3,35.6-2.9c6-0.3,11.9-0.5,17.9-0.4s12,0.3,18.2,1.1l0,0c0.4,0,0.7,0.2,1,0.3c12.8,6.2,25.5,12.4,38.2,18.6
				c12.7,6.3,25.4,12.6,38,19c12.7,6.4,25.3,12.9,37.8,19.5c12.6,6.6,25.1,13.3,37.4,20.5l-1.2-0.3h106.1l53.1-0.1l53.1-0.2
				l-1.1,1.9c-23.1-40.9-46.5-81.6-70.5-122c-12-20.2-24.1-40.3-36.6-60.1c-3.1-4.9-6.3-9.9-9.4-14.9l-4.6-7.6l-4.5-7.6
				c-5.9-10.2-11.4-20.6-16.7-31.1c-21.2-42.1-38.1-86.1-54.4-130.2l-12.1-33.1l-12-33.1c-4-11-8.1-22-12.2-33
				c-4.1-11-8.2-22-12.3-33l3.6,2.3c-36.1,2.7-72.3,5.4-108.4,8l-54.3,3.8l-54.4,3.7L198.1,654.3z M197.4,653.8L414.6,635l54.7-4.7
				l54.8-4.5c36.6-3.1,73.2-5.9,109.8-8.8c1.6-0.1,3,0.8,3.6,2.2l0,0c4.2,11,8.4,22,12.5,33s8.1,22.1,12.1,33.1l11.9,33.1l11.8,33.2
				c15.9,44.1,32,88.2,52.4,130.4c5.1,10.5,10.4,20.9,16.1,31.2l4.3,7.6l4.4,7.6c3,5,6.1,10,9.1,15c6.2,10,12.1,20.1,18.1,30.2
				c6,10.1,11.9,20.2,17.8,30.4c23.6,40.6,47,81.3,70.3,122.1c0.3,0.6,0.1,1.4-0.5,1.7c-0.2,0.1-0.4,0.2-0.6,0.2l0,0l-53,0.5
				l-53,0.6l-106.1,1.4c-0.4,0-0.8-0.1-1.2-0.3l0,0c-12.3-6.9-24.9-13.4-37.5-19.8s-25.3-12.7-38-18.9
				c-12.7-6.2-25.5-12.4-38.2-18.5c-12.8-6.1-25.5-12.2-38.3-18.3l1,0.3c-5.6-0.7-11.4-0.9-17.2-0.9s-11.7,0.2-17.5,0.5
				c-11.7,0.6-23.4,1.7-35.1,3c-11.7,1.3-23.4,2.8-35.1,4.4c-11.7,1.7-23.3,3.4-34.9,5.4l3-5.2l17.6,48.3v0.1
				c0.4,1.2,0.2,2.5-0.4,3.5c-1,1.5-2,2.2-2.9,2.8c-0.9,0.6-1.7,1-2.5,1.4c-1.6,0.7-3.2,1.3-4.7,1.8c-3.1,1-6.1,1.7-9.2,2.3
				c-6.1,1.3-12.1,2.2-18.2,3.1c-12.1,1.7-24.2,2.9-36.3,3.9c-24.2,2-48.4,3.2-72.7,3.7c-12.1,0.3-24.3,0.3-36.4,0
				c-6.1-0.2-12.2-0.4-18.3-0.8c-3.1-0.2-6.1-0.5-9.3-0.9c-1.6-0.2-3.1-0.4-4.7-0.7c-1.6-0.3-3.2-0.7-5-1.3c-0.5-0.2-1-0.4-1.5-0.6
				c-0.3-0.2-0.5-0.3-0.9-0.5l-0.5-0.3c-0.2-0.1-0.4-0.3-0.5-0.4c-0.2-0.1-0.4-0.4-0.6-0.6l-0.3-0.3l-0.1-0.1l-0.3-0.5l-0.7-1
				l-0.7-1l-0.6-1l-1.3-2c-1.6-2.6-3.2-5.2-4.8-7.8c-3.1-5.2-6.1-10.5-9.1-15.8c-5.9-10.6-11.8-21.2-17.5-31.8l0,0
				c0-0.1-0.1-0.2-0.1-0.2c-4.2-9.4-7.5-19.4-9.3-29.6c-1.9-10.2-2.3-20.8-1-31.2s4.3-20.6,8.8-30c4.5-9.4,10.4-18.1,17.3-25.8
				c6.9-7.8,14.7-14.6,23-20.6s17.2-11.3,26.4-15.7c9.2-4.5,18.7-8.3,28.4-11.4c2.4-0.8,4.9-1.5,7.3-2.2l0.9-0.3
				c0.3-0.1,0.6-0.2,0.9-0.3c0.5-0.1,1-0.3,1.5-0.5c1-0.4,1.9-0.9,2.8-1.5c3.6-2.3,6.1-6.2,7.8-10.6c1.7-4.4,2.6-9.2,3.1-14
				c0.5-4.9,0.6-9.8,0.4-14.7c-0.3-9.9-1.5-19.8-3-29.7c-3.2-19.7-7.9-39.3-13.2-58.6c-5.3-19.4-11.3-38.6-17.7-57.6
				c-3.2-9.5-6.5-19-10-28.5c-1.7-4.7-3.4-9.5-5.2-14.2l-2.7-7.1l-1.3-3.5l-0.7-1.8l-0.3-0.9l-0.2-0.4
				C197.5,654.5,197.4,654.1,197.4,653.8z"/>
		</g>
		<path class="st1" d="M617.3,764.1c-5.6,2.6-26,24.2,10.3,5.4c0,0,49.7,63.1,78.5,47.6L678,742.7l-58.8,20.6
			C618.5,763.6,617.9,763.8,617.3,764.1z"/>
		<path class="st1" d="M661,660.5c0,0-53.6,82.2-163.7,102.3c0,0-12.9,48.1-68.9,43.3c-26.2-2.3-49.2,1.8-66.7-17.8
			c0,0-128.9,0-144.1-89.2L661,660.5z"/>
		
			<linearGradient id="SVGID_2_" gradientUnits="userSpaceOnUse" x1="126.3429" y1="222.3414" x2="877.2645" y2="222.3414" gradientTransform="matrix(1 0 0 -1 0 1216)">
			<stop  offset="0" style="stop-color:#52FFCE"/>
			<stop  offset="0.9948" style="stop-color:#6700E4"/>
		</linearGradient>
		<path class="st4" d="M137.3,1063.7c0,0,26.9,49.7,34.9,60.4c8.1,10.7,208.2,2.7,217.6-12.1l-17.5-48.4c0,0,102.1-17.5,141-12.1
			c0,0,110.1,52.4,151.8,76.6l212.2-1.3c0,0-80.1-131.9-115.5-188c-10.1-16-19.2-32.3-27.7-49c-159.5,52.5-359.4,5.9-479.7-31.5
			c0.6,22.7-4.1,39.1-17.8,42.9C160.2,922.7,101.1,983.1,137.3,1063.7z"/>
		<path class="st1" d="M665.3,981c0,0-98.2,53.1-84.8,71.9s161.2-38.9,185.3-20.5l-167.9,60.4l-81.9-39.9
			C516.1,1052.9,618.5,962.8,665.3,981z"/>
		<path class="st1" d="M254.2,1001.2c0,0,52.3-7.3,104,24.2c14.4,8.8,40.3,0,40.3,0l-65.9-62.6l144.6,88.3l-104.8,12.6L254.2,1001.2
			z"/>
		<g>
			<path class="st0" d="M161.1,1108.7c-0.7,0-1.3-0.3-1.8-0.8c-0.7-0.8-18.1-19-28.9-46.7c-10-25.7-15.8-64.7,13.4-104
				c0.5-0.6,1.2-1,2-1c0.3,0,0.5,0,0.8,0.1c0.7,0.2,71.1,23.8,143.2,58.4c27.6,13.3,52.2,26.6,73,39.6c3.5,2.2,6.9,4.4,10.2,6.5
				c0.4,0.3,0.8,0.7,1,1.2l16.1,43c0.3,0.8,0.2,1.6-0.3,2.3s-1.2,1.1-2.1,1.1l-82,0.1C305.8,1108.6,161.1,1108.7,161.1,1108.7z"/>
			<path class="st1" d="M145.9,958.7c0,0,70.1,23.3,142.9,58.3c24.8,11.9,50,25.2,72.8,39.4c3.5,2.1,6.8,4.3,10.2,6.5l16.1,43h-23.1
				l-58.9,0.1l-144.7,0.1C161.1,1106.2,90.6,1033.1,145.9,958.7 M145.9,953.7c-1.6,0-3.1,0.7-4,2c-13.2,17.7-20.6,36.9-21.9,57.1
				c-1.1,16.1,1.7,32.7,8.2,49.4c11,28.2,28.7,46.7,29.4,47.5c0.9,1,2.2,1.5,3.6,1.5l0,0l144.7-0.1l58.9-0.1h23.1
				c1.6,0,3.2-0.8,4.1-2.2c0.9-1.3,1.1-3.1,0.6-4.6l-16.1-43c-0.4-1-1-1.8-1.9-2.4c-3.3-2.2-6.8-4.4-10.3-6.6
				c-20.9-13-45.5-26.4-73.2-39.7c-72.4-34.7-143-58.3-143.7-58.5C146.9,953.8,146.4,953.7,145.9,953.7L145.9,953.7z"/>
		</g>
		
			<linearGradient id="SVGID_3_" gradientUnits="userSpaceOnUse" x1="288.743" y1="147.4501" x2="365.6332" y2="147.4501" gradientTransform="matrix(1 0 0 -1 0 1216)">
			<stop  offset="0" style="stop-color:#52FFCE"/>
			<stop  offset="0.9948" style="stop-color:#6700E4"/>
		</linearGradient>
		<path class="st5" d="M365.7,1120.1l-59.7-13.3l-0.1-0.8l-17-89c24.8,11.9,50,25.2,72.8,39.4l3.2,49.5L365.7,1120.1z"/>
		<g>
			<path class="st1" d="M287.5,1010.7c2.5,11.3,5,22.5,7.3,33.8c1.2,5.6,2.3,11.3,3.4,17s2.1,11.3,3,17c-1.3-5.6-2.7-11.2-4.2-16.7
				c-1.5-5.6-3-11.1-4.6-16.6c-3.1-11.1-6.4-22.1-9.7-33.1l0,0c-0.4-1.3,0.4-2.7,1.7-3.1S287.1,1009.3,287.5,1010.7
				C287.5,1010.5,287.5,1010.6,287.5,1010.7z"/>
		</g>
		<polygon class="st1" points="338.8,1039.5 365.7,1057 377.9,1101.5 345,1094.4 		"/>
		<path class="st1" d="M342.8,1044.9l5.2,56.6h-9.2c0,0,2.7-37.8-6.4-49s-7,42.1-7,42.1h-20.5c7.7-13.4-10.4-77.9-10.4-77.9
			S333.4,1032.8,342.8,1044.9z"/>
		<path class="st6" d="M134.7,980c0,0,107.8,31.2,239.6,97.4l1.7,4.2c0,0-91.6-33.4-207.1-76.3c0,0-18.1,50.4,26.2,95.1l-16.8,19
			c0,0-52.4-61.8-36.3-122.2l-11.7-4.7L134.7,980z"/>
		<path class="st3" d="M136,975.9c0,0,107.8,31.2,239.6,97.4l1.7,4.2c0,0-91.6-33.4-207.1-76.3c0,0-18.1,50.4,26.2,95.1l-16.8,19
			c0,0-52.4-61.8-36.3-122.2l-13.1-4.7L136,975.9z"/>
		<g>
			<path class="st0" d="M666.5,1142.7c-0.5,0-1-0.1-1.4-0.4l-81.2-53.7c-0.8-0.5-1.2-1.4-1.1-2.3c0.1-0.9,0.6-1.7,1.5-2.1
				c0.2-0.1,22.4-10,56.8-21.6c25.9-8.8,51.8-16.3,77.1-22.3c34.5-8.2,67.4-13.6,97.9-16c0.1,0,0.1,0,0.2,0c0.9,0,1.7,0.5,2.1,1.2
				l61.1,102.7c0.4,0.8,0.5,1.7,0.1,2.5s-1.2,1.3-2.1,1.3L666.5,1142.7C666.6,1142.7,666.6,1142.7,666.5,1142.7z"/>
			<path class="st1" d="M816.3,1026.7l61.1,102.7l-210.9,10.7l-81.2-53.7c0,0,21.9-9.8,56.6-21.6c21.5-7.3,47.8-15.3,76.8-22.3
				C749.1,1035.5,782.5,1029.4,816.3,1026.7 M816.3,1021.7c-0.1,0-0.3,0-0.4,0c-30.7,2.4-63.7,7.9-98.3,16.1
				c-25.3,6-51.3,13.6-77.3,22.4c-34.5,11.7-56.8,21.6-57,21.7c-1.7,0.7-2.8,2.3-2.9,4.2c-0.1,1.8,0.7,3.6,2.2,4.6l81.2,53.7
				c0.8,0.5,1.8,0.8,2.8,0.8c0.1,0,0.2,0,0.3,0l210.9-10.7c1.8-0.1,3.3-1.1,4.2-2.6c0.8-1.5,0.8-3.4-0.1-4.9l-61.1-102.7
				C819.7,1022.7,818,1021.7,816.3,1021.7L816.3,1021.7z"/>
		</g>
		
			<linearGradient id="SVGID_4_" gradientUnits="userSpaceOnUse" x1="641.7645" y1="131.1" x2="783.2645" y2="131.1" gradientTransform="matrix(1 0 0 -1 0 1216)">
			<stop  offset="0" style="stop-color:#52FFCE"/>
			<stop  offset="0.9948" style="stop-color:#6700E4"/>
		</linearGradient>
		<path class="st7" d="M783.3,1122.9l-61.8,4.3l-79.7-62.3c21.5-7.3,47.8-15.3,76.8-22.3L783.3,1122.9z"/>
		<polygon class="st1" points="765.9,1032.5 818.3,1120.1 765.2,1122.6 707.5,1041.3 		"/>
		<g>
			<path class="st1" d="M660.3,1057.9l54.6,55.5l-58.1-51.9c-1-0.9-1.1-2.5-0.2-3.5s2.5-1.1,3.5-0.2
				C660.2,1057.8,660.2,1057.8,660.3,1057.9z"/>
		</g>
		<path class="st1" d="M648.8,1061l72.8,66.3l-15.5,1.8c0,0-58.4-56-58-40.4l47.9,43.6l-20.1,4.5l-79.2-56.9L648.8,1061z"/>
		<path class="st6" d="M616.2,1105.2c0,0,90-47.6,209.9-53.3l12.9,14.6l-23.4-0.1l33,55l-30.3,4.1c0,0-17.5-41.6-32.2-52.4
			s-162,37.2-162,37.2L616.2,1105.2z"/>
		<path class="st3" d="M610.8,1103.9c0,0,95.3-51.6,215.3-57.4l12.9,14.6l-23.4-0.1l33,55l-30.3,4.1c0,0-17.5-41.6-32.2-52.4
			s-166,41.2-166,41.2L610.8,1103.9z"/>
		<g>
			<path class="st0" d="M637.7,533.4c0,0,73.6,7.9,150.8,76.4s77.6,145.4,31,147.3c-46.6,1.9-128.7,9.6-128.7,9.6s-84.8-9.1-87.5,11
				"/>
			<path class="st1" d="M637.7,533.4c5,0.5,10,1.4,15,2.3c5,1,9.9,2.2,14.8,3.6c9.8,2.7,19.4,6,28.9,9.7c18.9,7.5,37,17,54.2,28
				c17.1,11.1,33.3,23.5,48.3,37.5c14.8,14.1,28.3,29.9,38.7,47.7c5.2,8.9,9.6,18.4,12.8,28.3c3.2,9.9,5.2,20.4,4.8,31.2
				c-0.2,5.4-1.2,10.8-3.1,16c-1.9,5.2-5,10.2-9.2,14.1c-4.2,3.9-9.5,6.6-15,7.9c-2.7,0.7-5.5,1-8.3,1.1l-7.5,0.3
				c-20.1,1-40.3,2.2-60.4,3.6c-20.1,1.4-40.3,2.8-60.4,4.4h-0.1c-0.2,0-0.3,0-0.5,0c-7.5-0.9-15.1-1.6-22.8-2.2
				c-7.6-0.5-15.2-0.9-22.9-0.9c-3.8,0-7.6,0-11.4,0.2c-3.8,0.2-7.6,0.5-11.4,1c-3.8,0.6-7.5,1.3-11,2.7c-1.8,0.7-3.5,1.5-4.9,2.7
				s-2.6,2.8-2.9,4.7c0.2-1.9,1.2-3.7,2.6-5.1c1.4-1.4,3.1-2.4,4.8-3.3c3.5-1.7,7.3-2.7,11.1-3.6c7.6-1.6,15.3-2.3,23-2.7
				s15.4-0.5,23.1-0.3c7.7,0.2,15.4,0.5,23.1,1.2h-0.5c40.3-4.2,80.5-8,121-10.4l7.6-0.4c2.3-0.1,4.6-0.4,6.7-0.9
				c4.3-1.1,8.3-3.1,11.5-6.1s5.6-6.8,7.1-11.1c1.6-4.3,2.4-8.9,2.6-13.6c0.4-9.5-1.4-19.2-4.3-28.4c-3-9.3-7.1-18.3-12-26.9
				c-9.9-17.1-22.6-32.7-36.8-46.6c-3.6-3.5-7.2-6.9-11-10.1c-3.7-3.4-7.6-6.5-11.4-9.8c-7.8-6.3-15.8-12.3-24.1-18
				s-16.8-11-25.5-15.9c-8.8-4.9-17.7-9.5-26.9-13.6c-4.6-2-9.2-4-13.9-5.8s-9.4-3.6-14.2-5.2c-4.8-1.6-9.6-3-14.5-4.4
				C647.6,535.3,642.7,534.2,637.7,533.4z"/>
		</g>
		<path class="st1" d="M598.8,780.6c16.2-20.1,40.9-48.9,52.9-54v16.1c0,0,49.7-6.7,59.1,2.7l4,17.5c0,0-51.3-16.4-111.6,22.7
			C600.1,787.6,596.4,783.6,598.8,780.6z"/>
		
			<linearGradient id="SVGID_5_" gradientUnits="userSpaceOnUse" x1="692.6645" y1="503.2875" x2="873.9298" y2="503.2875" gradientTransform="matrix(1 0 0 -1 0 1216)">
			<stop  offset="0" style="stop-color:#52FFCE"/>
			<stop  offset="0.9948" style="stop-color:#6700E4"/>
		</linearGradient>
		<path class="st8" d="M692.7,763.5c0,0,12.8-143,132.6-124.1c0,0,62.1,35.5,46,104C871.3,743.4,782.7,828,692.7,763.5z"/>
		<g>
			<path class="st0" d="M420.3,739.4c-72.5,0-140.8-14.3-192.2-40.2c-10.8-5.4-20.7-11.4-29.5-17.6c-33.7-23.9-51.6-52.2-51.6-82
				c0-4.9,0.5-9.8,1.4-14.6c3.1-15.6-0.8-32.4-10.7-46.1c-39.8-54.6-60.8-118.7-60.8-185.4c0-87.2,35.7-169.1,100.7-230.8
				c64.8-61.5,151-95.5,242.7-95.5s177.9,33.9,242.8,95.5s100.7,143.6,100.7,230.8c0,66.6-21,130.7-60.8,185.4
				c-10,13.7-13.9,30.4-10.7,46.1c1,4.8,1.5,9.7,1.5,14.6c0,20.4-8.2,40-24.5,58.2c-15.4,17.3-37.3,32.6-65,45.5
				c-11.8,5.5-24.6,10.4-38,14.7C522.5,732,472.1,739.4,420.3,739.4z"/>
			<path class="st1" d="M420.3,31.2c187.5,0,339.4,144.3,339.4,322.3c0,68-22.2,131-60,183c-10.3,14.2-14.9,32-11.4,49.2
				c0.9,4.5,1.4,9.1,1.4,13.8c0,39.6-33.6,75.3-87.2,100.1c-11.6,5.4-24.2,10.2-37.5,14.5c-41.8,13.4-91.4,21.2-144.6,21.2
				c-74.4,0-141.7-15.2-190.4-39.8c-10.6-5.3-20.3-11.1-29-17.3c-31.4-22.2-49.9-49.4-49.9-78.8c0-4.7,0.5-9.3,1.4-13.8
				c3.5-17.2-1.1-35-11.4-49.2c-37.8-52-60-115-60-183C80.8,175.5,232.8,31.2,420.3,31.2 M420.3,23.2c-46.8,0-92.3,8.7-135.1,25.9
				c-41.4,16.6-78.5,40.4-110.4,70.7s-57,65.6-74.5,105c-18.2,40.8-27.4,84.1-27.4,128.7c0,67.5,21.3,132.4,61.6,187.7
				c9.3,12.8,13,28.4,10,42.9c-1,5-1.5,10.2-1.5,15.4c0,31.2,18.4,60.6,53.2,85.3c9,6.4,19.1,12.4,30.1,17.9
				c52,26.2,120.9,40.6,194,40.6c52.3,0,103.1-7.5,147-21.6c13.6-4.4,26.5-9.4,38.4-14.9c28.2-13.1,50.5-28.7,66.3-46.4
				c16.9-19,25.5-39.5,25.5-60.9c0-5.1-0.5-10.3-1.5-15.4c-2.9-14.5,0.8-30.2,10.1-42.9c40.3-55.3,61.6-120.2,61.6-187.7
				c0-44.6-9.2-87.9-27.4-128.7c-17.5-39.3-42.6-74.7-74.5-105c-31.9-30.3-69.1-54-110.4-70.7C512.6,32,467.1,23.2,420.3,23.2
				L420.3,23.2z"/>
		</g>
		
			<linearGradient id="SVGID_6_" gradientUnits="userSpaceOnUse" x1="87.6645" y1="823.7" x2="747.0645" y2="823.7" gradientTransform="matrix(1 0 0 -1 0 1216)">
			<stop  offset="0" style="stop-color:#52FFCE"/>
			<stop  offset="0.9948" style="stop-color:#6700E4"/>
		</linearGradient>
		<path class="st9" d="M688.8,541.8c-10,13.8-14.5,31.2-11.1,48c0.9,4.4,1.3,8.9,1.3,13.5c0,38.7-32.6,73.5-84.7,97.7
			c-11.3,5.2-23.5,10-36.5,14.2c-40.5,13.2-88.7,20.8-140.4,20.8c-72.2,0-137.6-14.8-185-38.8c-10.3-5.2-19.7-10.9-28.2-16.9
			c-30.5-21.7-48.4-48.2-48.4-76.9c0-4.6,0.4-9,1.3-13.5c3.4-16.8-1.1-34.2-11.1-48c-36.8-50.8-58.3-112.3-58.3-178.7
			c0-173.8,147.6-314.6,329.7-314.6s329.7,140.9,329.7,314.6C747.1,429.5,725.6,491.1,688.8,541.8z"/>
		<g>
			<path class="st1" d="M284.8,560.5c-0.6,0.4-1,0.7-1.5,1s-1,0.6-1.5,0.9c-1,0.6-2,1.1-2.9,1.6c-1,0.5-2,1-3,1.5s-2,0.9-3,1.4
				l-3,1.3l-3.1,1.1c-2,0.8-4.1,1.4-6.2,2.1c-8.3,2.6-16.8,4.3-25.3,5.5c-4.3,0.4-8.5,1-12.8,1.1l-3.2,0.2c-1.1,0.1-2.1,0.1-3.2,0.1
				h-6.4c-1.1,0-2.1,0-3.2,0l-3.2-0.2l-6.4-0.4c-4.2-0.4-8.4-0.9-12.7-1.4c4.2,0.1,8.5,0.4,12.7,0.4l6.3-0.1l3.2-0.1
				c1.1,0,2.1-0.1,3.2-0.2l6.3-0.5c1.1-0.1,2.1-0.2,3.1-0.3l3.1-0.4c4.2-0.4,8.3-1.3,12.4-2.1c8.2-1.8,16.2-4.1,23.9-7.2
				c1.9-0.8,3.8-1.5,5.7-2.5l2.8-1.3l2.7-1.4c0.9-0.5,1.8-1,2.7-1.5c0.9-0.5,1.8-1,2.6-1.6c0.9-0.5,1.7-1.1,2.5-1.6
				c0.4-0.3,0.8-0.6,1.2-0.8c0.4-0.3,0.8-0.6,1.1-0.8c1.7-1.4,4.2-1.2,5.6,0.5s1.2,4.2-0.5,5.6C285.1,560.3,285,560.4,284.8,560.5
				L284.8,560.5z"/>
		</g>
		<g>
			<path class="st1" d="M299.6,582c-0.6,0.4-1,0.7-1.5,1s-1,0.6-1.5,0.9c-1,0.6-2,1.1-2.9,1.6c-1,0.5-2,1-3,1.5s-2,0.9-3,1.4l-3,1.3
				l-3.1,1.1c-2,0.8-4.1,1.4-6.2,2.1c-8.3,2.6-16.8,4.3-25.3,5.5c-4.3,0.4-8.5,1-12.8,1.1l-3.2,0.2c-1.1,0.1-2.1,0.1-3.2,0.1h-6.4
				c-1.1,0-2.1,0-3.2,0l-3.2-0.2l-6.4-0.4c-4.2-0.4-8.4-0.9-12.7-1.4c4.2,0.1,8.5,0.4,12.7,0.4l6.3-0.1l3.2-0.1
				c1.1,0,2.1-0.1,3.2-0.2l6.3-0.5c1.1-0.1,2.1-0.2,3.1-0.3l3.1-0.4c4.2-0.4,8.3-1.3,12.4-2.1c8.2-1.8,16.2-4.1,23.9-7.2
				c1.9-0.8,3.8-1.5,5.7-2.5l2.8-1.3l2.7-1.4c0.9-0.5,1.8-1,2.7-1.5c0.9-0.5,1.8-1,2.6-1.6c0.8-0.5,1.7-1.1,2.5-1.6
				c0.4-0.3,0.8-0.6,1.2-0.8c0.4-0.3,0.8-0.6,1.1-0.8c1.7-1.4,4.2-1.2,5.6,0.5s1.2,4.2-0.5,5.6C299.8,581.8,299.8,581.9,299.6,582
				L299.6,582z"/>
		</g>
		<g>
			<path class="st1" d="M291.5,571.3c-0.6,0.4-1,0.7-1.5,1s-1,0.6-1.5,0.9c-1,0.6-2,1.1-2.9,1.6c-1,0.5-2,1-3,1.5s-2,0.9-3,1.4
				l-3,1.3l-3.1,1.1c-2,0.8-4.1,1.4-6.2,2.1c-8.3,2.6-16.8,4.3-25.3,5.5c-4.3,0.4-8.5,1-12.8,1.1L226,589c-1.1,0.1-2.1,0.1-3.2,0.1
				h-6.4c-1.1,0-2.1,0-3.2,0l-3.2-0.2l-6.4-0.4c-4.2-0.4-8.4-0.9-12.7-1.4c4.2,0.1,8.5,0.4,12.7,0.4l6.3-0.1l3.2-0.1
				c1.1,0,2.1-0.1,3.2-0.2l6.3-0.5c1.1-0.1,2.1-0.2,3.1-0.3l3.1-0.4c4.2-0.4,8.3-1.3,12.4-2.1c8.2-1.8,16.2-4.1,23.9-7.2
				c1.9-0.8,3.8-1.5,5.7-2.5l2.8-1.3l2.7-1.4c0.9-0.5,1.8-1,2.7-1.5c0.9-0.5,1.8-1,2.6-1.6c0.9-0.5,1.7-1.1,2.5-1.6
				c0.4-0.3,0.8-0.6,1.2-0.8c0.4-0.3,0.8-0.6,1.1-0.8c1.7-1.4,4.2-1.2,5.6,0.5s1.2,4.2-0.5,5.6C291.8,571.1,291.7,571.2,291.5,571.3
				L291.5,571.3z"/>
		</g>
		<path class="st1" d="M345.2,540.3c0,0-105.8,15.1-109.8,26.1c0,0,57.8-6.4,34.9,44.6"/>
		<path class="st1" d="M360.7,437.1c0,0,74.8,38.3,137.9-47.7l21.5-53.7c0,0-90,98-171.9,80.6L360.7,437.1z"/>
		<g>
			<path class="st1" d="M206.3,311.7c0.2-3,0.6-5.8,1-8.7c0.4-2.8,0.9-5.7,1.4-8.5c1-5.6,2.3-11.2,3.7-16.7c1.4-5.5,3.1-11,4.9-16.4
				c1.9-5.4,4-10.7,6.3-15.9c4.6-10.4,10.2-20.4,17-29.5c3.3-4.6,7.1-8.9,11-12.9c3.9-4.1,8.3-7.7,12.7-11.1
				c-4.3,3.7-8.3,7.6-12,11.8c-3.6,4.3-7.1,8.7-10.1,13.4c-6.1,9.4-11,19.4-15,29.9c-2,5.2-3.7,10.5-5.2,15.9
				c-1.5,5.4-2.8,10.8-3.9,16.2c-1.1,5.4-2,10.9-2.6,16.4c-0.3,2.8-0.6,5.5-0.8,8.3c-0.2,2.7-0.4,5.6-0.5,8.2v0.1
				c0,2.2-1.9,4-4.1,3.9c-2.2,0-4-1.9-3.9-4.1C206.3,311.9,206.3,311.8,206.3,311.7z"/>
		</g>
		<g>
			<path class="st1" d="M221.8,325.3c-0.1-3,0-5.8,0.1-8.6c0.1-2.8,0.3-5.7,0.5-8.5c0.4-5.6,1.1-11.3,1.9-16.8
				c0.9-5.6,1.9-11.1,3.2-16.6c1.3-5.5,2.8-10.9,4.5-16.3c3.5-10.7,8-21.1,13.7-30.7c2.8-4.9,6.1-9.4,9.5-13.8
				c3.5-4.4,7.3-8.4,11.4-12.3c-3.8,4.1-7.4,8.3-10.6,12.9c-3.1,4.6-6.1,9.3-8.6,14.2c-5.1,9.8-8.8,20.3-11.6,30.9
				c-1.4,5.3-2.5,10.7-3.5,16.1c-0.9,5.4-1.6,10.9-2.1,16.3c-0.5,5.5-0.8,11-0.9,16.4c0,2.7,0,5.5,0,8.2c0.1,2.7,0.2,5.5,0.4,8.1
				v0.1c0.2,2.2-1.4,4.1-3.6,4.3s-4.1-1.4-4.3-3.6C221.8,325.5,221.8,325.4,221.8,325.3z"/>
		</g>
		<g>
			<path class="st1" d="M234,342.5c-0.2-3-0.3-5.8-0.3-8.7c0-2.9,0-5.7,0.1-8.6c0.2-5.7,0.5-11.4,1.1-17.1s1.4-11.4,2.4-17
				s2.3-11.2,3.8-16.7c3-11,7-21.8,12.3-31.8c2.6-5.1,5.7-9.9,8.9-14.5c3.3-4.6,7-8.9,10.9-13c-3.6,4.3-7.1,8.8-10.1,13.6
				c-2.9,4.8-5.7,9.7-8,14.8c-4.6,10.2-7.9,21-10.2,31.9c-1.1,5.5-2,11-2.7,16.5s-1.1,11.1-1.3,16.7c-0.2,5.6-0.3,11.1-0.1,16.7
				c0.1,2.8,0.2,5.6,0.4,8.3c0.2,2.7,0.5,5.6,0.8,8.1v0.1c0.3,2.2-1.2,4.2-3.4,4.5c-2.2,0.3-4.2-1.2-4.5-3.4
				C234.1,342.6,234.1,342.5,234,342.5z"/>
		</g>
		<g>
			<path class="st1" d="M565.9,316.9c-1.8,0-3.4-0.1-5.1-0.2c-1.7-0.1-3.3-0.2-5-0.4c-3.3-0.3-6.6-0.8-9.8-1.3
				c-6.5-1-12.9-2.5-19.2-4.2s-12.5-3.7-18.7-6.1c-6.1-2.3-12.1-5-17.9-7.9c-11.6-5.9-22.6-13-32.7-21.1
				c-10.1-8.2-19.3-17.4-27.4-27.3c8.7,9.5,18.3,18.2,28.6,25.7c10.4,7.5,21.5,13.9,33.2,19.1c5.8,2.6,11.8,4.9,17.8,6.8
				c6.1,2,12.2,3.6,18.4,4.9s12.5,2.4,18.7,3.1c3.1,0.3,6.3,0.6,9.4,0.7c1.6,0.1,3.1,0.1,4.7,0.1c1.5,0,3.2,0,4.5-0.1h0.1
				c2.2-0.1,4.1,1.6,4.2,3.8c0.1,2.2-1.6,4.1-3.8,4.2C566.1,316.9,566,316.9,565.9,316.9z"/>
		</g>
		<g>
			<path class="st1" d="M557.9,330.3c-1.8,0-3.4-0.1-5.1-0.2c-1.7-0.1-3.3-0.2-5-0.4c-3.3-0.3-6.6-0.8-9.8-1.3
				c-6.5-1-12.9-2.5-19.2-4.2s-12.5-3.7-18.7-6.1c-6.1-2.3-12.1-5-17.9-7.9c-11.6-5.9-22.6-13-32.7-21.1
				c-10.1-8.2-19.3-17.4-27.4-27.3c8.7,9.5,18.3,18.2,28.6,25.7c10.4,7.5,21.5,13.9,33.2,19.1c5.8,2.6,11.8,4.9,17.8,6.8
				c6.1,2,12.2,3.6,18.4,4.9s12.5,2.4,18.7,3.1c3.1,0.3,6.3,0.6,9.4,0.7c1.6,0.1,3.1,0.1,4.7,0.1c1.5,0,3.2,0,4.5-0.1h0.1
				c2.2-0.1,4.1,1.6,4.2,3.8c0.1,2.2-1.6,4.1-3.8,4.2C558,330.3,557.9,330.3,557.9,330.3z"/>
		</g>
		<g>
			<path class="st1" d="M551.1,343.8c-1.8,0-3.4-0.1-5.1-0.2c-1.7-0.1-3.3-0.2-5-0.4c-3.3-0.3-6.6-0.8-9.8-1.3
				c-6.5-1-12.9-2.5-19.2-4.2s-12.5-3.7-18.7-6.1c-6.1-2.3-12.1-5-17.9-7.9c-11.6-5.9-22.6-13-32.7-21.1
				c-10.1-8.2-19.3-17.4-27.4-27.3c8.7,9.5,18.3,18.2,28.6,25.7c10.4,7.5,21.5,13.9,33.2,19.1c5.8,2.6,11.8,4.9,17.8,6.8
				c6.1,2,12.2,3.6,18.4,4.9s12.5,2.4,18.7,3.1c3.1,0.3,6.3,0.6,9.4,0.7c1.6,0.1,3.1,0.1,4.7,0.1c1.5,0,3.2,0,4.5-0.1h0.1
				c2.2-0.1,4.1,1.6,4.2,3.8c0.1,2.2-1.6,4.1-3.8,4.2C551.3,343.8,551.2,343.8,551.1,343.8z"/>
		</g>
		<g>
			<path class="st1" d="M574,303.5c-1.8,0-3.4-0.1-5.1-0.2c-1.7-0.1-3.3-0.2-5-0.4c-3.3-0.3-6.6-0.8-9.8-1.3
				c-6.5-1-12.9-2.5-19.2-4.2s-12.5-3.7-18.7-6.1c-6.1-2.3-12.1-5-17.9-7.9c-11.6-5.9-22.6-13-32.7-21.1
				c-10.1-8.2-19.3-17.4-27.4-27.3c8.7,9.5,18.3,18.2,28.6,25.7c10.4,7.5,21.5,13.9,33.2,19.1c5.8,2.6,11.8,4.9,17.8,6.8
				c6.1,2,12.2,3.6,18.4,4.9s12.5,2.4,18.7,3.1c3.1,0.3,6.3,0.6,9.4,0.7c1.6,0.1,3.1,0.1,4.7,0.1c1.5,0,3.2,0,4.5-0.1h0.1
				c2.2-0.1,4.1,1.6,4.2,3.8s-1.6,4.1-3.8,4.2C574.1,303.5,574,303.5,574,303.5z"/>
		</g>
		<g>
			<path class="st1" d="M196.9,153.6c3.1-3.5,6.2-6.6,9.4-9.8c1.6-1.6,3.2-3.1,4.9-4.6c1.7-1.5,3.3-3,5-4.5
				c6.7-6,13.6-11.6,20.8-16.8c3.5-2.7,7.3-5.1,10.9-7.7l5.6-3.6c0.9-0.6,1.9-1.2,2.8-1.8l2.9-1.7c7.6-4.6,15.6-8.5,23.6-12.2
				c-7.7,4.3-15.4,8.8-22.5,13.9l-2.7,1.9c-0.9,0.6-1.8,1.3-2.7,2l-5.3,4c-3.4,2.8-6.9,5.5-10.2,8.4c-6.7,5.7-13.1,11.7-19.2,18
				c-1.5,1.6-3,3.2-4.5,4.8s-2.9,3.2-4.4,4.9c-2.9,3.3-5.7,6.7-8.2,10l-0.1,0.1c-1.3,1.8-3.9,2.1-5.6,0.8s-2.1-3.9-0.8-5.6
				C196.8,153.8,196.8,153.7,196.9,153.6z"/>
		</g>
		<g>
			<path class="st1" d="M196.9,169.8c3.1-3.5,6.2-6.6,9.4-9.8c1.6-1.6,3.2-3.1,4.9-4.6c1.7-1.5,3.3-3,5-4.5
				c6.7-6,13.6-11.6,20.8-16.8c3.5-2.7,7.3-5.1,10.9-7.7l5.6-3.6c0.9-0.6,1.9-1.2,2.8-1.8l2.9-1.7c7.6-4.6,15.6-8.5,23.6-12.2
				c-7.7,4.3-15.4,8.8-22.5,13.9l-2.7,1.9c-0.9,0.6-1.8,1.3-2.7,2l-5.3,4c-3.4,2.8-6.9,5.5-10.2,8.4c-6.7,5.7-13.1,11.7-19.2,18
				c-1.5,1.6-3,3.2-4.5,4.8s-2.9,3.2-4.4,4.9c-2.9,3.3-5.7,6.7-8.2,10l-0.1,0.1c-1.3,1.8-3.9,2.1-5.6,0.8c-1.8-1.3-2.1-3.9-0.8-5.6
				C196.8,169.9,196.8,169.8,196.9,169.8z"/>
		</g>
		<g>
			<path class="st1" d="M199.3,193.2c2.8-3.7,5.7-7.1,8.6-10.5c1.5-1.7,3-3.3,4.5-5c1.5-1.6,3-3.3,4.6-4.9
				c6.2-6.4,12.7-12.6,19.5-18.4c3.3-3,6.9-5.7,10.3-8.5l5.3-4c0.9-0.7,1.8-1.3,2.7-2l2.7-1.9c7.2-5.2,14.9-9.7,22.6-14
				c-7.4,4.9-14.7,9.9-21.4,15.6l-2.6,2.1c-0.8,0.7-1.7,1.4-2.5,2.2l-5,4.3c-3.2,3-6.5,6-9.5,9.1c-6.2,6.2-12.1,12.7-17.7,19.4
				c-1.4,1.7-2.8,3.4-4.1,5.1c-1.4,1.7-2.7,3.5-4,5.2c-2.6,3.5-5.2,7.1-7.5,10.6l-0.1,0.1c-1.2,1.9-3.7,2.4-5.5,1.2
				c-1.9-1.2-2.4-3.7-1.2-5.5C199.2,193.4,199.3,193.3,199.3,193.2z"/>
		</g>
		<g>
			<path class="st1" d="M197.9,214.8c2.7-3.8,5.4-7.3,8.3-10.8c1.4-1.7,2.9-3.5,4.3-5.2c1.5-1.7,2.9-3.4,4.4-5
				c6-6.7,12.3-13,18.8-19.1c3.2-3.1,6.7-5.9,10-8.9l5.2-4.2c0.9-0.7,1.7-1.4,2.6-2.1l2.7-2c7-5.4,14.6-10.2,22.1-14.8
				c-7.2,5.1-14.3,10.4-20.9,16.3l-2.5,2.2c-0.8,0.7-1.6,1.5-2.4,2.3l-4.8,4.5c-3.1,3.1-6.2,6.2-9.2,9.5c-6,6.4-11.7,13.1-17,20.1
				c-1.3,1.7-2.6,3.5-4,5.2c-1.3,1.8-2.6,3.5-3.8,5.3c-2.5,3.6-4.9,7.3-7.1,10.9v0.1c-1.1,1.9-3.6,2.5-5.5,1.4s-2.5-3.6-1.4-5.5
				C197.7,215,197.8,214.9,197.9,214.8z"/>
		</g>
		<g>
			<path class="st1" d="M204,224.9c2.7-3.8,5.5-7.2,8.4-10.7c1.5-1.7,2.9-3.4,4.4-5.1c1.5-1.7,3-3.3,4.5-5
				c6.1-6.6,12.5-12.8,19.1-18.8c3.3-3,6.8-5.8,10.1-8.7l5.3-4.1c0.9-0.7,1.7-1.4,2.6-2l2.7-1.9c7.1-5.3,14.7-10,22.3-14.4
				c-7.3,5-14.5,10.2-21.1,16l-2.5,2.1c-0.8,0.7-1.6,1.5-2.5,2.2l-4.9,4.4c-3.1,3.1-6.3,6.1-9.3,9.3c-6.1,6.3-11.9,12.9-17.3,19.8
				c-1.4,1.7-2.7,3.5-4,5.2s-2.6,3.5-3.9,5.3c-2.5,3.5-5,7.2-7.2,10.7l-0.1,0.1c-1.2,1.9-3.6,2.5-5.5,1.3s-2.5-3.6-1.3-5.5
				C203.9,225.1,204,225,204,224.9z"/>
		</g>
		<g>
			<path class="st1" d="M202.9,248.3c2.4-4,4.9-7.6,7.5-11.3c1.3-1.8,2.6-3.6,4-5.4c1.4-1.8,2.7-3.6,4.1-5.3
				c5.5-7,11.4-13.8,17.6-20.2c3-3.3,6.3-6.3,9.4-9.5l4.9-4.5c0.8-0.7,1.6-1.5,2.5-2.2l2.5-2.2c6.7-5.9,13.9-11.1,21.1-16.2
				c-6.9,5.6-13.6,11.3-19.8,17.6l-2.4,2.3c-0.8,0.8-1.5,1.6-2.3,2.4l-4.5,4.8c-2.9,3.3-5.8,6.6-8.6,10
				c-5.6,6.8-10.8,13.8-15.7,21.1c-1.2,1.8-2.4,3.7-3.6,5.5s-2.3,3.7-3.5,5.6c-2.2,3.7-4.5,7.6-6.4,11.3v0.1c-1,2-3.4,2.7-5.4,1.7
				s-2.7-3.4-1.7-5.4C202.8,248.4,202.8,248.4,202.9,248.3z"/>
		</g>
		<path class="st1" d="M205.2,141.7c0,0,42.2-50.2,86.2-69.4c0,0-57.6,20.4-99.4,62.3L205.2,141.7z"/>
		<path class="st1" d="M81.3,363.1c0,66.4,25.3,127.9,61.5,178.7c5.2,7.3,12.9,15.7,14.7,24.4c95.1,16.8,220.2-41.1,220.2-41.1
			S274.3,374.7,224.6,325s24.2-127.6,24.2-127.6c-6.2-26.8-23.5-69.4-34.9-81.9C141.4,169.2,81.3,269.7,81.3,363.1z"/>
		<g>
			<path class="st1" d="M434.4,131.4c-0.2,0.3-0.4,0.7-0.6,1.1c-0.2,0.4-0.4,0.8-0.6,1.2c-0.4,0.8-0.8,1.7-1.1,2.6
				c-0.4,0.9-0.7,1.7-1.1,2.6c-0.3,0.9-0.7,1.8-1,2.7c-0.6,1.8-1.2,3.6-1.7,5.5s-1,3.7-1.4,5.6c-0.4,1.9-0.9,3.8-1.1,5.7
				c-0.3,1.9-0.7,3.8-0.9,5.7s-0.5,3.9-0.6,5.8l-0.3,5.8c-0.1,1,0,1.9,0,2.9v2.9v2.9c0,1,0.1,1.9,0.2,2.9l0.4,5.9l0.8,5.8l0.4,2.9
				c0.1,1,0.4,1.9,0.6,2.9l1.2,5.8l0.3,1.4l0.4,1.4l0.8,2.8l1.7,5.7l-2.1-5.5l-1.1-2.8l-0.5-1.4l-0.4-1.4l-1.7-5.7
				c-0.3-1-0.6-1.9-0.8-2.9l-0.7-2.9l-1.3-5.8l-1-5.9c-0.1-1-0.3-2-0.5-3l-0.3-3l-0.3-3c-0.1-1-0.2-2-0.2-3l-0.2-6
				c0-2,0.1-4,0.1-6.1c0-2,0.3-4,0.4-6.1c0.1-2,0.4-4,0.7-6c0.2-2,0.6-4,1-6c0.3-2,0.9-4,1.3-6c0.2-1,0.5-2,0.8-3s0.6-2,0.9-3
				c0.3-1,0.6-2,1-3c0.2-0.5,0.4-1,0.6-1.5c0.2-0.5,0.4-1,0.7-1.6v-0.1c0.9-2,3.3-2.9,5.3-1.9c2,0.9,2.9,3.3,1.9,5.3
				C434.5,131.2,434.4,131.3,434.4,131.4z"/>
		</g>
		<g>
			<path class="st1" d="M419.2,131.1c-0.2,0.3-0.4,0.7-0.5,1.1c-0.2,0.4-0.4,0.8-0.6,1.3c-0.4,0.8-0.7,1.7-1,2.6
				c-0.3,0.9-0.7,1.8-1,2.7s-0.6,1.8-0.9,2.7c-0.5,1.8-1.1,3.7-1.5,5.6c-0.4,1.9-0.9,3.7-1.2,5.6c-0.4,1.9-0.7,3.8-0.9,5.7
				s-0.6,3.8-0.6,5.8c-0.1,1.9-0.3,3.9-0.4,5.8l-0.1,5.8c0,1,0,1.9,0.1,2.9l0.1,2.9l0.1,2.9c0.1,1,0.2,1.9,0.3,2.9l0.7,5.8l1.1,5.8
				l0.5,2.9c0.2,1,0.5,1.9,0.7,2.9l1.5,5.7l0.4,1.4l0.5,1.4l0.9,2.8l1.9,5.6l-2.3-5.5l-1.2-2.7l-0.6-1.4l-0.5-1.4l-2-5.6
				c-0.3-0.9-0.7-1.9-0.9-2.8l-0.8-2.9l-1.6-5.8l-1.2-5.9c-0.2-1-0.4-2-0.6-3l-0.4-3l-0.4-3c-0.1-1-0.3-2-0.3-3l-0.4-6
				c-0.1-2-0.1-4-0.1-6.1c-0.1-2,0.1-4,0.2-6.1c0-2,0.3-4,0.5-6.1c0.2-2,0.5-4,0.8-6.1c0.3-2,0.7-4,1.1-6c0.2-1,0.5-2,0.7-3
				s0.5-2,0.8-3s0.6-2,0.9-3c0.2-0.5,0.3-1,0.5-1.5s0.4-1,0.6-1.6v-0.1c0.9-2,3.2-3,5.2-2.1s3,3.2,2.1,5.2
				C419.3,130.9,419.2,131,419.2,131.1z"/>
		</g>
		<path class="st1" d="M680,603.3c0-4.6-0.4-9-1.3-13.5c-3.3-16.8,1-34.2,10.9-48C725.8,491,747,429.5,747,363.1
			c0-173.8-145.4-314.7-324.8-314.7C385.4,48.4,350,53,317,63.9c0.3,20.6,5.6,59.5,64.7,75.6c0,0,44.3-13.4,52.4,18.8
			c0,0-20.1,107.4,112.8,127.6c0,0-90,188-182.7,165.2C288,432.5,353.6,560,353.6,560l191.2,160c5.4-1.5,10.7-3.1,15.9-4.8
			c12.8-4.2,24.8-13,35.9-18.2C647.9,672.8,680,642,680,603.3z"/>
		<path class="st0" d="M621,137.8c-12.1,30.4-58,40.7-102.4,23s-70.6-56.7-58.5-87.2c12.1-30.4,46.5-25.6,90.9-7.8
			S633.2,107.4,621,137.8z"/>
		<path class="st10" d="M422.7,543.2c-76.9-18.4-171.6,97.8-205.2,145.7c3.9,2.3,8,4.5,12.3,6.6c48.8,24.6,116.1,39.8,190.4,39.8
			c53.2,0,102.8-7.8,144.6-21.2c8.3-2.7,16.3-5.6,24-8.7C559.1,666.4,500.3,561.9,422.7,543.2z"/>
		<g>
			<path class="st0" d="M362.3,700.4c0,0-1.5,69.8,47.4,73.9s81-6.7,79.5-71.2"/>
			<path class="st1" d="M362.3,700.4c0.9,9.3,2.6,18.6,5.2,27.4c2.6,8.8,6.2,17.3,11.3,24.6c2.6,3.6,5.6,6.8,8.9,9.5
				c3.4,2.7,7.1,4.8,11.1,6.2l3.1,0.9c1,0.3,2.1,0.4,3.1,0.7s2.1,0.3,3.2,0.5l1.6,0.2c0.6,0.1,1.1,0.1,1.7,0.1
				c4.6,0.3,9.2,0.5,13.8,0.5c9.1,0.1,18.2-0.6,26.7-2.9c4.2-1.2,8.3-2.8,12-5s7-5,9.8-8.3s5.1-7.1,7-11.2c1.9-4.1,3.3-8.4,4.4-12.9
				c1.1-4.4,2-9,2.5-13.6c0.7-4.6,1-9.3,1.4-14c0.2,2.3,0.5,4.7,0.6,7c0.1,2.4,0.2,4.7,0.2,7.1c0.1,4.7-0.3,9.5-0.9,14.2
				c-0.7,4.7-1.8,9.5-3.4,14.1c-1.6,4.6-3.9,9.1-6.9,13.1s-6.7,7.6-11,10.4c-4.2,2.8-8.9,4.9-13.6,6.3c-4.7,1.5-9.6,2.4-14.4,3
				c-4.8,0.5-9.7,0.7-14.5,0.7s-9.6-0.3-14.3-0.7c-0.6-0.1-1.2-0.1-1.8-0.2l-1.9-0.3c-1.2-0.2-2.5-0.3-3.7-0.6s-2.5-0.6-3.7-0.9
				l-3.6-1.2c-4.8-1.9-9.2-4.5-13-7.9c-3.8-3.3-7-7.3-9.6-11.4c-5.2-8.4-8.2-17.8-9.9-27.1C362.1,719.3,361.4,709.8,362.3,700.4z"/>
		</g>
		<path class="st3" d="M759.7,353.5c0,15.9-1.2,31.5-3.6,46.8c-22.5,12.4-44.1,18-50.7,34.9c-6.2,16-5.4,88.8-78.8,111.2
			c-7.2,2.2-15.1,3.9-23.9,5c-9.3,1.2-19.5,1.7-30.7,1.5c-14-0.3-29.5-1.9-46.7-4.9c-23.8-4.2-50.9-11.1-81.8-21.5
			c0,0-13.9-154.9,102.6-208.8c13.3-6.2,28.2-11,45.1-14.1c1.2-0.2,2.3-0.4,3.4-0.7c12.6-2.5,23-5.5,31.4-8.7
			c11.8-4.6,19.9-9.8,24.8-15.1c8.2-8.9,7.9-18.3,2.4-26c-4.5-6.3-12.5-11.5-22.1-14.5c-9.2-2.8-19.9-3.6-30.5-1.2
			c-11.2,2.5-22.1,8.5-30.9,19.2c0,0,3.2-40.8,34.5-59c8.3-4.8,18.6-8.1,31.4-8.5c7-0.2,14.7,0.4,23.2,2c1.6,0.3,3.3,0.7,5,1
			c0,0,1-5.2-4-11.9c-3.5-4.7-10-10.2-22-15.2c-7.6-3.1-17.3-6.1-29.8-8.5c-3.5-0.7-7.3-1.3-11.3-1.9c0,0,4.5-2.8,12.1-6.2
			c7.7-3.4,18.6-7.2,31.4-9.1c7.3-1.1,15.2-1.5,23.5-0.9c3.5,0.3,7,0.7,10.6,1.4C727.4,196.6,759.7,271.5,759.7,353.5z"/>
		
			<linearGradient id="SVGID_7_" gradientUnits="userSpaceOnUse" x1="158.6884" y1="777.9886" x2="619.1678" y2="777.9886" gradientTransform="matrix(1 0 0 -1 0 1216)">
			<stop  offset="0" style="stop-color:#52FFCE"/>
			<stop  offset="0.9948" style="stop-color:#6700E4"/>
		</linearGradient>
		<path class="st11" d="M492.6,505.6c0,0-8.1-21.5,6.7-48.4c0,0,67.2-128.9,189.4-72.5c0,0-1.7,47.9-36.4,37.4
			C652.3,422.1,541.6,397.5,492.6,505.6z"/>
		<g>
			<path class="st0" d="M388.5,1105.3c0,0-241.8-63.1-274,17.5C93,1176.5,446.3,1171.1,388.5,1105.3z"/>
			<path class="st1" d="M388.3,1105.7l-18.8-3.4c-6.3-1.1-12.6-2.2-18.9-3.3c-6.3-1-12.6-2.1-18.9-3.1s-12.6-1.9-18.9-2.8
				s-12.6-1.7-19-2.5c-6.3-0.8-12.7-1.5-19-2.2c-12.7-1.2-25.3-2.3-38-3l-9.5-0.5c-3.2-0.1-6.4-0.2-9.5-0.3
				c-6.4-0.1-12.7-0.2-19.1,0.1c-6.3,0.2-12.7,0.7-19,1.5s-12.6,1.9-18.7,3.5s-12.2,3.6-17.8,6.4c-5.7,2.8-11,6.1-15.6,10.4
				l-0.9,0.8c-0.3,0.3-0.5,0.6-0.8,0.8l-1.6,1.7c-0.5,0.6-1,1.2-1.5,1.8c-0.5,0.6-1,1.2-1.4,1.8l-1.3,1.9l-0.6,1l-0.5,1l-1.1,2
				c-0.4,0.7-0.6,1.4-0.9,2.1c-0.3,0.7-0.6,1.4-0.9,2.1c-0.2,0.7-0.4,1.3-0.5,2c-0.2,1.3-0.1,2.7,0.3,3.9c0.8,2.5,2.7,4.7,5,6.5
				s5,3.3,7.8,4.6c2.8,1.3,5.7,2.3,8.7,3.3c6,1.9,12.1,3.3,18.3,4.5c12.4,2.3,25,3.8,37.7,4.9c12.7,1,25.4,1.5,38.1,1.6
				c6.4,0,12.7,0.1,19.1,0c6.4-0.1,12.7-0.3,19.1-0.5c12.7-0.4,25.4-1.3,38-2.6c6.3-0.6,12.6-1.4,18.9-2.3s12.5-1.9,18.7-3.2
				c6.2-1.3,12.3-2.7,18.4-4.6c3-0.9,6-1.9,8.9-3.1c2.9-1.1,5.8-2.4,8.5-3.9s5.3-3.2,7.5-5.2s4.1-4.4,4.9-7.2
				c0.9-2.8,0.8-5.8-0.3-8.7c-0.5-1.4-1.2-2.9-2-4.2c-0.4-0.7-0.8-1.3-1.3-2C389.2,1106.8,388.7,1106.3,388.3,1105.7z M388.7,1105
				c0.6,0.6,1.2,1.2,1.7,1.9c0.5,0.6,1.1,1.2,1.5,1.9c1,1.3,1.9,2.7,2.5,4.3c1.4,3,2,6.6,1.2,10.1c-0.4,1.7-1.1,3.3-2,4.8
				s-2,2.8-3.1,4.1c-2.3,2.5-5,4.5-7.8,6.3c-5.6,3.6-11.6,6.2-17.7,8.5s-12.4,4.1-18.6,5.7c-6.3,1.6-12.6,2.9-19,4.1
				c-6.4,1.1-12.7,2.1-19.1,3s-12.8,1.5-19.2,2.1c-6.4,0.6-12.9,1-19.3,1.3c-25.8,1.2-51.6,0.6-77.3-2c-12.8-1.3-25.7-3.1-38.3-6.1
				c-6.3-1.5-12.6-3.3-18.7-5.6c-3.1-1.2-6.1-2.5-9.1-4c-2.9-1.6-5.8-3.3-8.4-5.6c-2.6-2.2-5-5.2-5.9-8.9c-0.5-1.8-0.5-3.8-0.1-5.6
				c0.2-0.9,0.4-1.8,0.8-2.6c0.3-0.8,0.7-1.5,1.1-2.3c2.9-6,7-11.3,11.9-15.6c4.9-4.3,10.5-7.8,16.4-10.6c5.9-2.8,12-5,18.2-6.7
				c6.2-1.8,12.5-3.2,18.9-4.3c6.4-1.1,12.8-2,19.2-2.6c12.8-1.3,25.8-1.8,38.7-1.5c12.9,0.2,25.8,1.2,38.5,2.7
				c6.4,0.7,12.8,1.6,19.1,2.5c6.4,0.9,12.7,2,19,3.1s12.6,2.3,18.9,3.6c6.3,1.3,12.6,2.7,18.8,4.2c6.2,1.5,12.5,3.1,18.7,4.7
				c3.1,0.8,6.2,1.7,9.3,2.6c1.5,0.4,3.1,0.9,4.6,1.4l2.3,0.7l1.1,0.4l0.6,0.2C388.2,1104.8,388.3,1104.8,388.7,1105z"/>
		</g>
		
			<linearGradient id="SVGID_8_" gradientUnits="userSpaceOnUse" x1="150.2915" y1="98.8439" x2="325.808" y2="98.8439" gradientTransform="matrix(1 0 0 -1 0 1216)">
			<stop  offset="0" style="stop-color:#52FFCE"/>
			<stop  offset="0.9948" style="stop-color:#6700E4"/>
		</linearGradient>
		<path class="st12" d="M150.8,1145.6c0,0,67.2,12.1,116.8-1.3c0,0,29.5-10.7,17.5-21.5c0,0,45.7-2.7,40.3-28.2L225,1083.7
			c0,0,17.4,40.5-32.4,41.8S150.8,1145.6,150.8,1145.6z"/>
		<g>
			<path class="st0" d="M661.2,1136.2c0,0,254.4-69,261.9,17.5C927.1,1199.3,673.2,1227.5,661.2,1136.2z"/>
			<path class="st1" d="M660.9,1136c0.1-0.1,0.3-0.2,0.4-0.2c0.1,0,0.2-0.1,0.2-0.1h0.1l0.5-0.2l1.1-0.4l2.2-0.7
				c1.5-0.5,2.9-0.9,4.4-1.4c2.9-0.9,5.9-1.8,8.8-2.6c5.9-1.7,11.8-3.3,17.7-4.8s11.9-3,17.8-4.3c6-1.3,11.9-2.7,17.9-3.8
				c6-1.2,12-2.3,18.1-3.3c6-1,12.1-1.9,18.2-2.8c12.1-1.7,24.3-3.1,36.6-3.6c12.3-0.7,24.6-0.7,36.9,0.1c12.3,0.8,24.5,2.2,36.5,5
				c6,1.5,11.9,3.2,17.6,5.7c5.7,2.4,11.2,5.5,15.9,9.7c2.3,2.1,4.5,4.4,6.3,7s3.3,5.4,4.4,8.4s1.8,6.1,2.2,9.3
				c0.2,1.6,0.2,3.5-0.2,5.1c-0.4,1.7-1,3.3-1.9,4.8c-1.7,2.9-4,5.4-6.4,7.5s-5,3.9-7.7,5.6c-5.4,3.3-11.1,5.9-16.9,8.2
				c-5.8,2.3-11.7,4.2-17.7,5.8c-6,1.7-12,3-18,4.3c-12.1,2.4-24.3,4.1-36.6,5.2s-24.6,1.4-37,1.2c-12.3-0.4-24.7-1.4-36.9-3.4
				c-6.1-1-12.2-2.2-18.2-3.7s-12-3.4-17.8-5.5c-5.8-2.2-11.5-4.8-17-7.9c-5.4-3.1-10.6-6.7-15.2-11c-4.6-4.3-8.6-9.3-11.5-14.9
				c-1.4-2.8-2.6-5.7-3.4-8.7c-0.4-1.5-0.8-3-1-4.5c-0.1-0.8-0.2-1.5-0.3-2.3C660.9,1137.7,660.9,1136.8,660.9,1136z M661.5,1136.4
				c0.2,0.7,0.4,1.3,0.5,1.9c0.2,0.7,0.4,1.5,0.6,2.2c0.4,1.4,0.9,2.9,1.5,4.3c1.1,2.8,2.5,5.4,4,8c3.2,5,7.3,9.4,11.9,13.1
				c4.6,3.7,9.7,6.8,15,9.4s10.9,4.8,16.6,6.6c11.4,3.6,23.2,6,35.1,7.5c11.9,1.6,23.9,2.4,36,2.6c24.1,0.5,48.3-1,72-5.1
				c11.9-2.1,23.6-4.8,35-8.5c5.7-1.9,11.2-4.1,16.4-6.8c2.6-1.4,5.1-2.9,7.4-4.7c2.3-1.8,4.3-3.8,5.8-6c1.5-2.3,2.3-4.8,2-7.5
				c-0.2-2.9-0.8-5.8-1.6-8.6c-0.9-2.8-2.2-5.4-3.8-7.9c-1.6-2.4-3.5-4.7-5.7-6.7c-4.4-4-9.6-7.1-15.1-9.4s-11.3-4-17.3-5.2
				c-5.9-1.2-11.9-2-17.9-2.4c-6-0.5-12.1-0.6-18.1-0.6c-12.1,0.1-24.2,0.9-36.3,1.9c-12.1,1.1-24.1,2.4-36.2,3.8
				c-6,0.7-12,1.6-18,2.5c-6,0.8-12,1.8-18,2.7c-12,1.9-24,4-36,6.2c-6,1.1-12,2.2-18,3.4l-9,1.7l-4.5,0.9l-2.2,0.4l-1.1,0.2
				l-0.6,0.1h-0.1l0,0H661.5z"/>
		</g>
		
			<linearGradient id="SVGID_9_" gradientUnits="userSpaceOnUse" x1="686.6645" y1="63.4032" x2="896.1906" y2="63.4032" gradientTransform="matrix(1 0 0 -1 0 1216)">
			<stop  offset="0" style="stop-color:#52FFCE"/>
			<stop  offset="0.9948" style="stop-color:#6700E4"/>
		</linearGradient>
		<path class="st13" d="M686.7,1150.6c0,0,19.1,50.1,151.4,27.2c0,0,42.6-14.8,32.4-22.8c0,0,62-25.6-6.5-33.6l-80.2,7.7
			c0,0,27.9,27.3-8.8,30S686.7,1150.6,686.7,1150.6z"/>
		<path class="st1" d="M236.7,901.2c0,0,95.4,57.8,220.4,151.3c0,0,33.4,9.9,59,0.5c0,0,165.2-100.6,263.2-94.6l-39.8-68.6
			l-485-31.5L236.7,901.2z"/>
		<path class="st1" d="M254.2,828.6c0,0,303.5,87.3,464.7,14.8c0,0,16.3,42.8,25.5,57.8c0,0-175.9,124.9-502.3-8.1
			C242.1,893.1,250.2,866.3,254.2,828.6z"/>
		<g>
			<path class="st0" d="M254.2,840.7c0,0,303.5,77.9,464.7,5.4c0,0,21.7,49.5,30.9,64.5c0,0-186.7,123.6-513-9.4
				C236.7,901.2,242.1,879.7,254.2,840.7z"/>
			<path class="st1" d="M254,840.4c0.2,0,0.4,0,0.5,0h0.2l0.4,0.1l0.9,0.2l1.8,0.4l3.6,0.8l7.2,1.5c4.8,1,9.6,1.9,14.5,2.8
				c9.6,1.8,19.3,3.6,29,5.3c19.3,3.4,38.7,6.4,58.1,9.1c9.7,1.3,19.4,2.6,29.2,3.8c9.7,1.2,19.5,2.2,29.2,3.2
				c19.5,2,39,3.5,58.6,4.5c9.8,0.5,19.6,1,29.3,1.2c9.8,0.3,19.6,0.5,29.3,0.4c9.8,0,19.6-0.1,29.3-0.5c9.8-0.4,19.5-0.9,29.3-1.7
				c9.7-0.8,19.5-1.9,29.2-3.3c9.7-1.4,19.3-3,28.9-5.2c19.1-4.2,37.9-10,55.8-18c0.6-0.3,1.3,0,1.6,0.6l0,0
				c2.4,5.4,4.9,10.9,7.3,16.3c2.5,5.4,5,10.8,7.5,16.2c2.6,5.4,5.2,10.7,7.8,16c2.7,5.3,5.4,10.6,8.5,15.6l0,0
				c0.5,0.8,0.2,1.7-0.5,2.2c-4.8,3.1-9.6,5.8-14.5,8.4c-4.9,2.6-9.9,5-15,7.3c-10.1,4.6-20.4,8.7-30.9,12.4s-21.1,7-31.8,9.9
				s-21.6,5.4-32.5,7.5c-43.7,8.3-88.4,10.8-132.8,8.7c-44.4-2.3-88.5-9.3-131.5-20.2s-85-25.5-125.7-43h-0.1
				c-0.9-0.4-1.3-1.3-1.1-2.2c1.4-5.1,2.9-10.1,4.4-15.1s3.1-10,4.7-15l4.8-15l2.5-7.5C252.1,845.5,253.1,842.9,254,840.4z
				 M254.4,841.1c-0.7,2.5-1.2,4.9-1.9,7.4l-2.1,7.5l-4.1,15.2c-1.3,5.1-2.7,10.1-3.9,15.2c-1.3,5.1-2.5,10.2-3.7,15.2l-1.2-2.3
				c41.1,15.8,83.2,29.1,126,39.2c42.8,10,86.3,16.7,130.2,19.1c10.9,0.6,21.9,1,32.9,1c11,0.1,21.9-0.2,32.9-0.8
				c21.9-1.1,43.7-3.6,65.3-7.3c21.6-3.8,43-8.8,63.9-15.5c10.5-3.3,20.8-7.1,30.9-11.4c5.1-2.1,10.1-4.4,15-6.8
				c4.9-2.4,9.8-5,14.4-7.8l-0.5,2.2c-3.1-5.3-5.7-10.6-8.3-16s-5.1-10.8-7.6-16.2l-7.4-16.3c-2.4-5.4-4.9-10.9-7.3-16.4l1.6,0.6
				c-9,4-18.2,7.6-27.6,10.6c-9.4,3-18.9,5.8-28.5,8.1s-19.2,4.3-29,6c-9.7,1.7-19.5,3.1-29.3,4.2c-39.2,4.6-78.8,5.2-118.2,3
				c-9.8-0.5-19.7-1.3-29.5-2.1c-9.8-0.9-19.6-1.8-29.4-2.9c-19.6-2.3-39.1-4.9-58.5-8.1c-19.4-3.2-38.8-6.8-58-10.9
				c-9.6-2.1-19.2-4.2-28.8-6.5c-4.8-1.2-9.6-2.4-14.3-3.6l-7.1-1.9l-3.6-1l-1.8-0.5L255,841l-0.4-0.1l-0.2-0.1
				C254.3,841.2,254.4,841.2,254.4,841.1z"/>
		</g>
		<g>
			<path class="st0" d="M724.6,858.8c-3.4-7.5-5.7-12.7-5.7-12.7c-161.2,72.5-464.7-5.4-464.7-5.4c-1.6,5.2-3.1,10-4.5,14.5
				C319.7,872.7,561.3,924.5,724.6,858.8z"/>
			<path class="st1" d="M724.2,858.7c-2.1-4.2-4.2-8.2-6.1-12.2l1.2,0.5l-6.7,3.1c-2.2,1-4.5,2-6.8,2.9c-2.3,1-4.6,1.8-6.9,2.7
				c-1.2,0.4-2.3,0.9-3.5,1.3l-3.5,1.2c-4.6,1.7-9.4,3.1-14.1,4.6l-7.1,2l-7.2,1.9c-9.6,2.4-19.3,4.4-29,6.1
				c-9.7,1.7-19.5,3-29.4,4.1c-19.6,2.2-39.4,3.2-59.1,3.5c-19.7,0.3-39.5-0.3-59.1-1.6c-19.7-1.3-39.3-3.4-58.8-5.9
				c-9.8-1.2-19.5-2.6-29.2-4s-19.5-2.9-29.2-4.4s-19.4-3.1-29.1-4.8c-9.7-1.6-19.4-3.4-29-5.2c-19.3-3.6-38.6-7.3-57.9-11.8
				l2.5-1.4l-4.2,14.6l-1.7-3c9.8,2.2,19.5,4.3,29.4,6.3l14.7,2.9c4.9,0.9,9.8,1.9,14.8,2.8c4.9,0.9,9.8,1.8,14.8,2.7l7.4,1.3
				l7.4,1.2c4.9,0.8,9.9,1.6,14.8,2.4c4.9,0.8,9.9,1.5,14.8,2.2c19.8,2.8,39.7,5.2,59.6,7l7.5,0.7l7.5,0.6c5,0.4,10,0.9,14.9,1.2
				c5,0.3,10,0.7,15,1l15,0.8c39.9,1.8,79.9,1.4,119.7-2.4c19.9-2,39.6-4.9,59.2-9c4.9-1.1,9.8-2,14.6-3.3l7.3-1.8l3.6-0.9
				c1.2-0.3,2.4-0.7,3.6-1l7.2-2.1l3.6-1.1c1.2-0.3,2.4-0.7,3.5-1.1C714.7,861.7,719.4,860.3,724.2,858.7z M724.9,859
				c-4.6,1.9-9.3,4-14.1,5.9c-1.2,0.5-2.4,0.9-3.6,1.3l-3.6,1.3l-7.1,2.5c-1.2,0.4-2.4,0.9-3.6,1.2l-3.6,1.1l-7.2,2.2
				c-4.8,1.6-9.7,2.7-14.6,4c-19.5,5-39.4,8.6-59.4,11.3l-15,1.7c-5,0.5-10,0.9-15.1,1.4l-3.8,0.3l-3.8,0.2l-7.5,0.5
				c-2.5,0.1-5,0.3-7.6,0.4l-7.6,0.3c-5,0.2-10.1,0.4-15.1,0.4l-7.6,0.1c-2.5,0-5,0.1-7.6,0l-15.1-0.2l-15.1-0.4
				c-10.1-0.4-20.1-1-30.2-1.7c-5-0.3-10-0.8-15.1-1.2l-7.5-0.7l-7.5-0.8c-20-2.1-40-4.8-59.9-7.9c-5-0.8-9.9-1.6-14.9-2.4
				c-5-0.8-9.9-1.7-14.9-2.6l-7.4-1.4l-7.4-1.4c-4.9-0.9-9.9-2-14.8-3c-19.7-4.1-39.3-8.8-58.7-14h-0.1c-1.2-0.3-2-1.6-1.6-2.8v-0.1
				l4.7-14.5l0,0c0.3-1.1,1.5-1.7,2.5-1.4c37.9,10,76.5,17.7,115.3,23.3c9.7,1.4,19.5,2.6,29.2,3.8c9.8,1.1,19.5,2,29.3,2.9
				s19.6,1.6,29.3,2.2l14.7,0.8c4.9,0.2,9.8,0.5,14.7,0.6c39.1,1.5,78.3,1.8,117.3-1.7c9.7-0.9,19.4-2,29.1-3.4
				c9.7-1.4,19.3-3.1,28.8-5.1c19.1-4,37.9-9.5,56.1-16.9h0.1c0.4-0.2,1,0,1.1,0.5C721.6,850.2,723.2,854.7,724.9,859z"/>
		</g>
		<g>
			<g>
				<path class="st1" d="M493,505.9c-0.4-9.1,0.4-18.3,2-27.4s4.2-18.1,7.7-26.7c3.7-8.6,8.4-16.9,14.6-24.2
					c6.1-7.3,13.7-13.6,22.1-18.3c8.5-4.7,17.7-7.9,27.2-9.5c4.7-0.8,9.5-1.4,14.3-1.6s9.5-0.2,14.3,0.2c1.2,0,2.4,0.2,3.5,0.3
					c1.2,0.1,2.4,0.2,3.5,0.3c2.3,0.3,4.7,0.5,7,1l3.5,0.6c1.2,0.2,2.5,0.6,3.7,0.8l1.9,0.5l1.8,0.6c1.2,0.4,2.5,0.8,3.6,1.4
					c4.8,2,9.2,5,13.1,8.4l2.8,2.7c0.9,0.9,1.7,2,2.5,2.9c0.9,1,1.6,2,2.3,3.1s1.5,2.1,2.1,3.3c0.6,1.1,1.2,2.3,1.8,3.4l1.5,3.6
					l0.4,0.9l0.3,0.9l0.6,1.9l0.5,1.9c0.2,0.6,0.3,1.3,0.4,1.9c0.2,1.3,0.5,2.5,0.6,3.8l0.3,3.9c0.1,1.3,0,2.6,0,3.9l-0.1,1.9
					l-0.3,1.9c-0.2,1.3-0.3,2.6-0.6,3.8l-1,3.8l-0.2,0.9l-0.3,0.8l-0.6,1.7c-0.4,1.1-0.8,2.3-1.2,3.4c-1.7,4.5-3.5,8.9-5.8,13.2
					c-2.3,4.3-4.8,8.4-7.7,12.3s-6.1,7.6-9.7,10.9c-3.5,3.4-7.5,6.3-11.6,9c-4.1,2.6-8.5,4.7-13,6.5c-9.1,3.4-18.6,5.1-28.1,5.5
					s-18.8-0.5-28-2.2c-9.1-1.8-18-4.3-26.7-7.3l-6.5-2.4c-2.1-0.8-4.3-1.7-6.4-2.6l-3.2-1.3l-3.2-1.5L493,505.9z M493,505.9
					l6.6,2.1l3.2,1l3.3,0.9c2.2,0.6,4.4,1.3,6.6,1.8l6.6,1.6c8.8,2,17.7,3.8,26.6,4.6c8.9,0.9,17.8,1.1,26.6,0.2
					c8.7-0.9,17.2-3,25.1-6.4c3.9-1.8,7.6-3.8,11.1-6.2c3.5-2.4,6.8-5.1,9.7-8.1s5.7-6.3,8.1-9.8c2.4-3.5,4.6-7.2,6.5-11.1
					c1.9-3.8,3.5-7.9,5-11.9c0.4-1,0.7-2,1-3.1l0.5-1.6l0.2-0.8l0.2-0.7l0.7-2.9c0.2-1,0.3-1.9,0.4-2.9l0.2-1.5v-1.5
					c0-1,0.1-2,0-2.9l-0.2-2.9c-0.1-1-0.3-1.9-0.5-2.9c-0.8-3.8-2.1-7.6-4.1-10.9c-0.4-0.9-1-1.7-1.6-2.5c-0.5-0.8-1.1-1.6-1.7-2.4
					c-0.6-0.7-1.2-1.5-1.9-2.2l-2.1-2c-2.9-2.6-6.2-4.8-9.8-6.4c-0.9-0.4-1.8-0.7-2.7-1.1l-1.4-0.5l-1.4-0.4c-1-0.2-1.9-0.5-2.9-0.7
					l-3.3-0.6c-2.2-0.4-4.3-0.7-6.5-1c-2.2-0.2-4.4-0.5-6.5-0.7c-8.7-0.8-17.5-0.7-26,0.5c-4.3,0.6-8.5,1.5-12.6,2.8
					c-4.1,1.2-8.1,2.8-11.9,4.7c-7.7,3.8-14.7,9-20.7,15.3s-11,13.6-15.2,21.5c-2.1,3.9-3.9,8-5.5,12.2s-3,8.5-4.3,12.8
					s-2.3,8.7-3.2,13.2C494.1,496.9,493.4,501.4,493,505.9z"/>
			</g>
		</g>
		<path class="st3" d="M229.3,303.5c-137-25.5-25.5-104.8,21.5-47c0,0-6.7-84.6-94-64.5c0,0-5.4-26.9,67.2-37.6
			c0,0-24.2-15.5-56-16.4c-54.1,57.1-87.1,132.6-87.1,215.5c0,20.2,2,40,5.7,59.2c13.4,8.1,24.2,16.7,28.6,27.8
			c9.4,24.2,2.7,173.3,261.9,86C377,526.5,394.3,334.2,229.3,303.5z"/>
		
			<linearGradient id="SVGID_10_" gradientUnits="userSpaceOnUse" x1="127.3008" y1="782.6494" x2="671.9845" y2="782.6494" gradientTransform="matrix(1 0 0 -1 0 1216)">
			<stop  offset="0" style="stop-color:#52FFCE"/>
			<stop  offset="0.9948" style="stop-color:#6700E4"/>
		</linearGradient>
		<path class="st14" d="M130,384.8c0,0,48.4-41.6,99.4-14.8c51,26.9,93.8,88.3,93.8,88.3s25.7,31.3,9.6,47.4
			c0,0-55.7-98.7-165.9-81.3C166.9,424.4,115.2,415.7,130,384.8z"/>
		<g>
			<path class="st1" d="M332.3,508.2l-0.1,0.1L332.3,508.2l-0.1-0.2v-0.5l-0.1-0.9l-0.2-1.8l-0.5-3.6c-0.4-2.4-0.8-4.8-1.3-7.1
				c-0.9-4.7-2.1-9.4-3.3-14c-2.6-9.2-5.9-18.2-10.2-26.7c-4.2-8.5-9.4-16.4-15.5-23.4c-6.2-7-13.4-13-21.3-17.9
				s-16.7-8.6-25.8-11.2c-9.1-2.5-18.7-3.9-28.3-4c-9.6-0.2-19.3,0.6-28.8,2.3c-2.4,0.5-4.7,0.9-7.1,1.4s-4.7,1.1-7,1.7
				s-4.7,1.2-7,1.9l-6.9,2.1l1.3-1.6c0,5,0.3,10.1,0.8,15.1s1.2,10,2.2,15c0.9,4.9,2,9.9,3.4,14.7c1.3,4.8,2.8,9.6,4.6,14.2
				c3.5,9.3,8.2,18.1,14.1,25.9s13.1,14.4,21.4,19.4c8.2,5,17.5,8.3,27.1,10.1c9.6,1.9,19.6,2.1,29.6,1.5c5-0.3,10-0.9,15-1.6
				c5-0.8,9.9-1.7,14.9-2.8c4.9-1.1,9.9-2.3,14.8-3.7c2.5-0.7,4.9-1.4,7.4-2.1l3.6-1.1L332.3,508.2z M333,508.7
				c-1.2,0.6-2.4,1.2-3.6,1.7c-1.2,0.6-2.4,1.1-3.6,1.6c-2.4,1-4.7,2-7.1,2.9c-4.8,1.9-9.6,3.6-14.6,5.2c-4.9,1.6-9.9,2.9-15,4.1
				c-5.1,1.2-10.2,2.1-15.4,2.7c-10.4,1.3-21,1.4-31.5-0.1c-10.5-1.6-20.9-5-30.2-10.6c-4.6-2.8-9-6.1-12.9-9.7
				c-3.9-3.7-7.5-7.8-10.6-12.1c-6.3-8.7-10.9-18.3-14.3-28.2c-1.7-5-3.1-10-4.2-15.1s-2-10.2-2.5-15.4c-0.6-5.2-0.9-10.3-1.1-15.5
				c-0.1-5.2-0.1-10.3,0.3-15.6v-0.1c0-0.7,0.6-1.3,1.2-1.5l7.1-1.7l7.1-1.6c4.8-1,9.6-1.9,14.4-2.7c9.6-1.5,19.4-2.6,29.2-2.9
				c9.8-0.3,19.7,0.2,29.5,2.1c4.9,0.9,9.7,2.2,14.4,3.9c4.7,1.6,9.3,3.8,13.7,6.3c8.8,5,16.6,11.6,23.1,19.3
				c6.5,7.7,11.7,16.4,15.7,25.4c4,9.1,6.9,18.6,8.7,28.3c0.5,2.4,0.9,4.8,1.2,7.3c0.3,2.4,0.6,4.9,0.8,7.3c0.2,2.4,0.3,4.9,0.4,7.3
				c0,1.2,0,2.4,0,3.7v1.8v0.9v0.5v0.2v0.1C333.1,508.4,333,508.6,333,508.7z"/>
		</g>
		<path class="st6" d="M405.7,420.4c0,0-10-76.1,86-116.3c55.5-23.3,74-78,27.2-120.7c0,0,14.7,36.9-56.8,84.5
			c-54.3,36.2-53.9,64.2-53.9,64.2s-18.4-138.6-4.8-185.1c0,0,45.5-46.3,8.6-86.6c0,0-65.2,24.2-36.4,85.3c0,0-6.3,112.8,4.8,189
			c0,0-13.6-50-53.1-73.2c-54-31.8-36-74-36-74s-51.9,74.4,29.7,130.8C356.3,342.7,384.8,359.6,405.7,420.4z"/>
		<path class="st3" d="M407.1,415c0,0-4.6-76.1,91.3-116.3c55.5-23.3,74-78,27.2-120.7c0,0,14.7,36.9-56.8,84.5
			c-54.3,36.2-53.9,64.2-53.9,64.2s-18.4-138.6-4.8-185.2c0,0,45.5-46.3,8.6-86.6c0,0-65.2,24.2-36.4,85.3c0,0-6.3,112.8,4.8,189
			c0,0-13.6-50-53.1-73.2c-54-31.8-40-75.3-40-75.3s-47.9,75.7,33.8,132.2C363,337.3,386.1,354.3,407.1,415z"/>
		<circle class="st1" cx="550" cy="462.7" r="22.5"/>
		<circle class="st1" cx="268" cy="462.7" r="22.5"/>
		<path class="st1" d="M602.4,703.9c-11.6,4.8-24.2,9.1-37.5,12.9c-21.2-44.6-64.9-144.2-163.6-144.3c-52.2,0-79.9,32.5-163.4,129.1
			c-10.6-4.8-28.4-11.2-37.1-16.7c26.2-35.7,98.4-131.7,195.1-135.5C500,545.2,576.1,648.9,602.4,703.9z"/>
		<path class="st3" d="M602.4,702.3c-11.6,5.4-24.2,10.2-37.5,14.5C543.7,666.6,500,562.1,401.3,562c-52.2,0-86.6,27.5-170.1,136.2
			c-10.6-5.3-21.7-11.1-30.4-17.3c26.2-40.1,98.4-148.1,195.1-152.5C500,523.8,576.1,640.4,602.4,702.3z"/>
		
			<ellipse transform="matrix(3.657068e-02 -0.9993 0.9993 3.657068e-02 -512.0034 1302.5643)" class="st1" cx="419.6" cy="916.8" rx="51.4" ry="77.7"/>
		<g>
			
				<ellipse transform="matrix(3.657085e-02 -0.9993 0.9993 3.657085e-02 -491.0877 1316.124)" class="st0" cx="437" cy="912.8" rx="51.4" ry="77.7"/>
			<path class="st1" d="M359.4,909.9c0.2-4.3,1.1-8.5,2.8-12.4c1.6-4,4-7.6,6.7-10.9c5.5-6.6,12.5-11.8,20.1-15.8s15.8-6.8,24.3-8.7
				c8.4-1.9,17.1-2.7,25.8-2.7c17.3,0.1,35,3.8,50.6,12.5c7.7,4.4,15,10.1,20.5,17.5c2.7,3.7,5.1,7.8,6.6,12.3s2.3,9.3,2.1,14
				c-0.2,4.8-1.3,9.5-3.1,13.8c-1.8,4.4-4.5,8.3-7.5,11.8c-6,7-13.7,12.1-21.7,16c-16.2,7.5-34.1,9.9-51.4,8.8
				c-8.7-0.6-17.2-2.1-25.5-4.6c-8.3-2.4-16.3-5.9-23.6-10.4s-14-10.2-18.9-17.2c-2.5-3.5-4.5-7.3-5.9-11.4
				C359.9,918.5,359.2,914.2,359.4,909.9z M359.4,909.9c-0.1,4.3,0.6,8.5,1.9,12.6c1.4,4,3.5,7.8,6,11.2
				c5.1,6.9,11.9,12.2,19.3,16.4s15.4,7.1,23.6,9.1c8.2,2,16.7,2.8,25,2.9c8.4,0,16.8-0.8,24.9-2.6c8.1-1.8,16-4.5,23.3-8.3
				c7.2-3.8,13.9-8.7,18.9-14.8c2.5-3,4.6-6.3,6-9.9c1.5-3.5,2.3-7.3,2.4-11c0.1-3.8-0.4-7.6-1.6-11.2c-1.2-3.6-3-7.1-5.3-10.3
				c-4.6-6.4-10.8-11.8-17.7-16.1s-14.6-7.6-22.6-10s-16.3-3.8-24.6-4.5c-8.4-0.5-16.9-0.3-25.2,1.1c-8.3,1.4-16.6,3.7-24.2,7.3
				c-7.7,3.6-14.8,8.5-20.4,15c-2.8,3.2-5.2,6.8-6.8,10.7C360.6,901.4,359.6,905.7,359.4,909.9z"/>
		</g>
		
			<linearGradient id="SVGID_11_" gradientUnits="userSpaceOnUse" x1="370.3645" y1="300.35" x2="486.8971" y2="300.35" gradientTransform="matrix(1 0 0 -1 0 1216)">
			<stop  offset="0" style="stop-color:#52FFCE"/>
			<stop  offset="0.9948" style="stop-color:#6700E4"/>
		</linearGradient>
		<path class="st15" d="M370.4,896.3c0,0,19.2-18.1,37.8-15.5s9.2-0.3,9.2-0.3s-8.1,35.7,25.5,38.7s40.3-9.5,40.3-9.5
			s22.8,39.6-44.3,41.1c0,0,19.5-17.5-30.2-13.4c-19.4,1.6-24.2-11.9-20.1-26.9S370.4,896.3,370.4,896.3z"/>
		<path class="st1" d="M371,895.8c0,0,27.8-30,78.3-21c0,0-40.7,18.4-12.5,38.5s46.3-20.1,46.3-20.1s31.6,18.7-0.7,42.9
			c0,0,2.7-10.7-5.4-17.5c0,0-9.4,24.2-43,13.4c-33.6-10.7-33-32.4-23.9-42.4C410.3,889.7,397.9,887.7,371,895.8z"/>
		<path class="st1" d="M685.6,379.6c-37.9-17.5-128.7-47.8-184.1,72.2c-7.8,15.3-12.4,13.7-14.7,9.7c-0.9-1.5-3.2-1-3.5,0.7
			c-10.6,76.9,27.7,6.5,31.8-0.1c27-42.6,82.1-80.8,168.7-75.5C687.9,386.9,689.3,381.3,685.6,379.6z"/>
		<path class="st1" d="M133.8,377.9c38.2-16.9,129.4-45.7,182.9,75.2c7.6,15.4,12.1,13.9,14.6,9.9c0.9-1.5,3.3-1,3.5,0.8
			c9.3,77-27.8,6-31.8-0.6c-26.3-43-80.7-82.2-167.5-78.3C131.4,385.2,130,379.6,133.8,377.9z"/>
		<path class="st1" d="M434.4,291.1c-2.2,2.4-4.1,4.6-5.8,6.8c-2.1,36.3-7,79-17.9,50.6c-16.6-43.4-15.4-240.5,4.7-291.4
			c-0.2-0.3,3.6-1.9,3.4-2.1c0,0-8,3-17.2,9.5c-4.7,40.5-17.3,172.3-2.9,328.8c2.8,6.6,5.6,13.7,8.4,21.7c0,0-2.4-40.1,32.9-77.4
			L434.4,291.1z"/>
		<path class="st1" d="M525.5,549.3c0,0-12.5-28.3-8.9-35c0,0,51.9,15.8,64,9.9l8.3,25c0,0-29.8-26.9-31.1-16.1s0.3,19,0.3,19
			L525.5,549.3z"/>
		<path class="st1" d="M529.5,398.9c0,0,22.8-59.1,28.5-85.6l30.6-9.8c0,0-12.1,47-16.1,64.5c-3.3,14.5,38.9-69,38.9-69l12.2-4.8
			c0,0-12.1,45.7-25.8,79.5L529.5,398.9z"/>
		<path class="st1" d="M718.3,199.2c0,0,23.4,105.6-14.2,175.4c-33.8,62.7-29.2,119.1-46.8,156.9l18.5-17.3c0,0,12.2-94,39.1-132.9
			S741,264.5,736,234.9L718.3,199.2z"/>
		<path class="st1" d="M753.8,276.6c0,0-1.3,57.8-43,147.8l15.2-9c0,0,27.4-67.5,33.7-114.5L753.8,276.6z"/>
		<path class="st1" d="M312.4,342.2c0,0-15.7,40-6.4,74.9c0,0-48.4-47-76.6-47c0,0-9.3-50.8,21.1-63c0.4-0.2,32.2,14.7,32.2,14.7
			s-10.5,14-12.4,52l15.3,15.7c0,0,1.8-49.3,15.1-56.5L312.4,342.2z"/>
		<path class="st1" d="M240,553.6c0,0-3.3-16,6.1-30.3c0,0,31.4,0.1,45.3-2.4c0,0,0.4,22.8,5.8,26.9l-17.1,2.8c0,0,1-26.9-11.1-17.5
			s-10.5,19.8-10.5,19.8L240,553.6z"/>
		<path class="st1" d="M207,190.4c0,0-112.9,54.5-91.4,245.4l-9.9-3.9c0,0-36.8-171.3,93.1-246.7L207,190.4z"/>
		<g>
			<g>
				<path class="st0" d="M569.4,118.8c-10.1,0-18.4-8.2-18.4-18.4c0-10.1,8.2-18.4,18.4-18.4c10.1,0,18.4,8.2,18.4,18.4
					S579.5,118.8,569.4,118.8z"/>
				<path class="st1" d="M569.4,84.6c8.8,0,15.9,7.1,15.9,15.9s-7.1,15.9-15.9,15.9s-15.9-7.1-15.9-15.9S560.6,84.6,569.4,84.6
					 M569.4,79.6c-11.5,0-20.9,9.4-20.9,20.9s9.4,20.9,20.9,20.9s20.9-9.4,20.9-20.9S580.9,79.6,569.4,79.6L569.4,79.6z"/>
			</g>
			<g>
				<path class="st1" d="M559.1,108.8c0,0-5.4-8.1,2.7-17.5c0,0,1.3,10.7,9.4,10.7s5.4-8.1,5.4-8.1s12.1,8.1,0,17.5c0,0,0-4-5.4-2.7
					C565.8,110.1,559.1,100.7,559.1,108.8z"/>
				<g>
					<path class="st1" d="M562.7,102.2c-0.1,0.4-0.1,1-0.1,1.5s0.2,1,0.4,1.6c0.4,1,1.1,2,1.9,2.8c0.8,0.8,1.8,1.4,2.9,2
						c0.5,0.2,1.1,0.5,1.6,0.8l1.7,0.6l-1.8-0.4c-0.6-0.2-1.2-0.4-1.8-0.5c-1.1-0.5-2.3-1-3.3-1.7s-2-1.7-2.6-2.9
						c-0.3-0.6-0.6-1.2-0.7-1.9c-0.2-0.7-0.3-1.3-0.2-2.2c0.1-0.6,0.5-1,1.1-0.9S562.8,101.5,562.7,102.2
						C562.8,102.1,562.8,102.2,562.7,102.2L562.7,102.2z"/>
				</g>
				<g>
					<path class="st1" d="M560,103.6c-0.1,0.4-0.1,1-0.1,1.5s0.2,1,0.4,1.6c0.4,1,1.1,2,1.9,2.8c0.8,0.8,1.8,1.4,2.9,2
						c0.5,0.2,1.1,0.5,1.6,0.8l1.7,0.6l-1.8-0.4c-0.6-0.2-1.2-0.4-1.8-0.5c-1.1-0.5-2.3-1-3.3-1.7s-2-1.7-2.6-2.9
						c-0.3-0.6-0.6-1.2-0.7-1.9c-0.2-0.7-0.3-1.3-0.2-2.2c0.1-0.6,0.5-1,1.1-0.9S560.1,102.9,560,103.6
						C560.1,103.4,560.1,103.5,560,103.6L560,103.6z"/>
				</g>
			</g>
		</g>
		<g>
			<g>
				<circle class="st0" cx="542.7" cy="152.9" r="16"/>
				<path class="st1" d="M542.7,139.4c7.5,0,13.5,6.1,13.5,13.5c0,7.5-6.1,13.5-13.5,13.5s-13.5-6.1-13.5-13.5
					S535.2,139.4,542.7,139.4 M542.7,134.4c-10.2,0-18.5,8.3-18.5,18.5s8.3,18.5,18.5,18.5s18.5-8.3,18.5-18.5
					S552.9,134.4,542.7,134.4L542.7,134.4z"/>
			</g>
			<g>
				<path class="st1" d="M533.4,159.2c0,0-4.8-7.2,2.4-15.6c0,0,1.2,9.6,8.4,9.6s4.8-7.2,4.8-7.2s10.8,7.2,0,15.6c0,0,0-3.6-4.8-2.4
					C539.3,160.4,533.4,152.1,533.4,159.2z"/>
				<g>
					<path class="st1" d="M536.7,153.5c-0.1,0.3-0.1,0.8-0.1,1.3s0.2,0.9,0.3,1.4c0.3,0.9,0.9,1.7,1.6,2.4c0.7,0.7,1.6,1.3,2.5,1.8
						c0.5,0.2,1,0.5,1.5,0.7l1.5,0.6l-1.6-0.3c-0.5-0.1-1-0.3-1.6-0.5c-1-0.4-2.1-0.8-3-1.5s-1.8-1.5-2.4-2.6
						c-0.3-0.5-0.5-1.1-0.7-1.7c-0.1-0.6-0.2-1.2-0.2-2c0.1-0.6,0.5-1,1.1-0.9s1,0.5,0.9,1.1C536.8,153.3,536.8,153.4,536.7,153.5
						L536.7,153.5z"/>
				</g>
				<g>
					<path class="st1" d="M534.3,154.6c-0.1,0.3-0.1,0.8-0.1,1.3s0.2,0.9,0.3,1.4c0.3,0.9,0.9,1.7,1.6,2.4c0.7,0.7,1.6,1.3,2.5,1.8
						c0.5,0.2,1,0.5,1.5,0.7l1.5,0.6l-1.6-0.3c-0.5-0.1-1-0.3-1.6-0.5c-1-0.4-2.1-0.8-3-1.5s-1.8-1.5-2.4-2.6
						c-0.3-0.5-0.5-1.1-0.7-1.7c-0.1-0.6-0.2-1.2-0.2-2c0.1-0.6,0.5-1,1.1-0.9s1,0.5,0.9,1.1C534.4,154.5,534.4,154.6,534.3,154.6
						L534.3,154.6z"/>
				</g>
			</g>
		</g>
		<g>
			<g>
				<path class="st0" d="M291.4,169c-2.2,0-4.3-0.4-6.4-1.3c-8.1-3.5-11.8-13-8.3-21.1c2.5-5.9,8.3-9.6,14.7-9.6
					c2.2,0,4.3,0.4,6.4,1.3c8.1,3.5,11.8,13,8.3,21.1C303.5,165.2,297.8,169,291.4,169z"/>
				<path class="st1" d="M291.4,139.4c1.8,0,3.6,0.4,5.4,1.1c6.8,3,10,10.9,7,17.8c-2.2,5.1-7.2,8.1-12.4,8.1
					c-1.8,0-3.6-0.4-5.4-1.1c-6.8-3-10-10.9-7-17.8C281.2,142.5,286.2,139.4,291.4,139.4 M291.4,134.4L291.4,134.4
					c-7.4,0-14.1,4.4-17,11.1c-4.1,9.4,0.2,20.3,9.6,24.4c2.3,1,4.8,1.5,7.4,1.5c7.4,0,14.1-4.4,17-11.1c2-4.5,2.1-9.6,0.2-14.2
					c-1.8-4.6-5.3-8.2-9.8-10.2C296.4,134.9,294,134.4,291.4,134.4L291.4,134.4z"/>
			</g>
			<g>
				<path class="st1" d="M280.7,154.9c0,0-1.5-8.3,8.2-13.1c0,0-2.7,9.1,3.8,11.9c6.5,2.8,7.1-4.6,7.1-4.6s6.9,10.7-6.1,14
					c0,0,1.4-3.2-3.4-4C285.6,158.3,283.5,148.4,280.7,154.9z"/>
				<g>
					<path class="st1" d="M286,151c-0.2,0.2-0.4,0.7-0.6,1.1c-0.2,0.4-0.2,0.9-0.3,1.4c-0.1,0.9,0.1,1.9,0.5,2.8
						c0.4,0.9,0.9,1.8,1.6,2.6c0.3,0.4,0.7,0.8,1,1.2l1.1,1.1l-1.3-0.9c-0.4-0.3-0.8-0.7-1.2-1c-0.8-0.8-1.5-1.6-2.1-2.5
						c-0.6-1-1-2.1-1.1-3.2c-0.1-0.6-0.1-1.2,0.1-1.8c0.1-0.6,0.2-1.2,0.6-1.8c0.3-0.5,0.9-0.7,1.4-0.4s0.7,0.9,0.4,1.4
						C286.1,150.9,286.1,150.9,286,151L286,151z"/>
				</g>
				<g>
					<path class="st1" d="M283.4,151.1c-0.2,0.2-0.4,0.7-0.6,1.1c-0.2,0.4-0.2,0.9-0.3,1.4c-0.1,0.9,0.1,1.9,0.5,2.8
						c0.4,0.9,0.9,1.8,1.6,2.6c0.3,0.4,0.7,0.8,1,1.2l1.1,1.1l-1.3-0.9c-0.4-0.3-0.8-0.7-1.2-1c-0.8-0.8-1.5-1.6-2.1-2.5
						c-0.6-1-1-2.1-1.1-3.2c-0.1-0.6-0.1-1.2,0.1-1.8c0.1-0.6,0.2-1.2,0.6-1.8c0.3-0.5,0.9-0.7,1.4-0.4s0.7,0.9,0.4,1.4
						C283.5,151,283.5,151.1,283.4,151.1L283.4,151.1z"/>
				</g>
			</g>
		</g>
		<g>
			<g>
				<path class="st0" d="M262,125.6c-2.3,0-4.5-0.4-6.7-1.3c-9.4-3.7-14.1-14.4-10.4-23.8c2.8-7.1,9.5-11.7,17.1-11.7
					c2.3,0,4.5,0.4,6.7,1.3c4.6,1.8,8.2,5.2,10.1,9.7c2,4.5,2.1,9.5,0.3,14.1C276.3,121,269.6,125.6,262,125.6z"/>
				<path class="st1" d="M262,91.3c1.9,0,3.9,0.4,5.8,1.1c8.2,3.2,12.2,12.4,9,20.6c-2.4,6.3-8.4,10.1-14.8,10.1
					c-1.9,0-3.9-0.4-5.8-1.1c-8.2-3.2-12.2-12.4-9-20.6C249.7,95.1,255.6,91.3,262,91.3 M262,86.3L262,86.3
					c-8.7,0-16.3,5.2-19.4,13.3c-2,5.2-1.9,10.9,0.3,16c2.2,5.1,6.3,9,11.5,11.1c2.4,1,5,1.4,7.6,1.4c8.7,0,16.3-5.2,19.4-13.3
					c2-5.2,1.9-10.9-0.3-16c-2.2-5.1-6.3-9-11.5-11.1C267.1,86.8,264.6,86.3,262,86.3L262,86.3z"/>
			</g>
			<g>
				<path class="st1" d="M249.7,109.8c0,0-2.1-9.5,8.9-15.3c0,0-2.7,10.5,4.8,13.4c7.5,2.9,7.9-5.6,7.9-5.6s8.3,11.9-6.4,16.3
					c0,0,1.5-3.8-4-4.5C255.4,113.4,252.6,102.3,249.7,109.8z"/>
				<g>
					<path class="st1" d="M255.5,105.1c-0.2,0.3-0.5,0.9-0.6,1.3c-0.2,0.5-0.2,1-0.2,1.6c0,1.1,0.3,2.2,0.8,3.3
						c0.5,1.1,1.2,2,1.9,2.9c0.4,0.4,0.8,0.9,1.3,1.3l1.4,1.2l-1.5-1c-0.5-0.4-1-0.8-1.4-1.1c-0.9-0.8-1.8-1.7-2.5-2.8
						c-0.7-1.1-1.2-2.3-1.4-3.6c-0.1-0.7-0.1-1.4,0-2c0.1-0.7,0.2-1.3,0.6-2.1c0.3-0.5,0.9-0.7,1.4-0.4s0.7,0.9,0.4,1.4
						C255.6,105,255.5,105,255.5,105.1L255.5,105.1z"/>
				</g>
				<g>
					<path class="st1" d="M252.5,105.4c-0.2,0.3-0.5,0.9-0.6,1.3c-0.2,0.5-0.2,1-0.2,1.6c0,1.1,0.3,2.2,0.8,3.3
						c0.5,1.1,1.2,2,1.9,2.9c0.4,0.4,0.8,0.9,1.3,1.3l1.4,1.2l-1.5-1c-0.5-0.4-1-0.8-1.4-1.1c-0.9-0.8-1.8-1.7-2.5-2.8
						c-0.7-1.1-1.2-2.3-1.4-3.6c-0.1-0.7-0.1-1.4,0-2c0.1-0.7,0.2-1.3,0.6-2.1c0.3-0.5,0.9-0.7,1.4-0.4s0.7,0.9,0.4,1.4
						C252.6,105.3,252.5,105.3,252.5,105.4L252.5,105.4z"/>
				</g>
			</g>
		</g>
		<path class="st1" d="M489.9,560.1c0,0-0.7,23.6-6.7,31.3c0,0,25.7,22.4,37.4,40.5l8.6-40.6L516,578.4c0,0-2.2,27.7-9.8,13.4
			s-4.3-22.5-4.3-22.5L489.9,560.1z"/>
		<polygon class="st1" points="561.8,711.8 598,695.7 592.5,683.9 		"/>
		<g>
			<g>
				<path class="st1" d="M462.2,716.9c-5.6,20.7-16.2,35.1-33,33.5c-13-1.3-22.5-8.7-29.5-19.3C375.9,694.7,382.4,620,382.4,620
					s-29.3-6.6-33-20.2c0,0,16.1,11.7,38.7,12.1c11.5,0.2,24.6-2.6,38.2-11.3c16.5-10.7,29,6.2,35.5,32
					C468.2,658,468.9,692,462.2,716.9z"/>
				<path class="st1" d="M462.4,717c-1.1,4.1-2.4,8.1-4.1,12c-1.6,3.9-3.6,7.7-6.1,11.1c-2.5,3.4-5.7,6.5-9.5,8.7s-8.3,3.2-12.7,3
					c-4.4-0.1-8.7-1.1-12.8-2.7c-2-0.9-4-1.8-5.9-3c-1.8-1.2-3.6-2.5-5.3-4c-3.3-2.9-6.1-6.4-8.5-10s-4.3-7.5-6-11.5
					c-3.3-7.9-5.6-16.3-7.1-24.6c-1.6-8.4-2.4-16.8-3-25.2c-0.5-8.4-0.7-16.9-0.7-25.3c0-8.4,0.2-16.9,0.8-25.3l0.6,0.9
					c-3.3-0.8-6.5-1.7-9.7-2.8s-6.4-2.3-9.4-3.7c-3.1-1.5-6.1-3.2-8.8-5.4c-2.7-2.2-5.3-5-6.4-8.7c-0.2-0.8,0.2-1.7,1-2
					c0.5-0.1,0.9-0.1,1.3,0.2l0.1,0.1c3.7,2.4,7.9,4.4,12.1,6c4.2,1.7,8.6,2.9,13,3.8c4.4,0.9,8.9,1.2,13.4,1.3
					c2.2,0,4.5-0.1,6.7-0.4c2.2-0.3,4.4-0.6,6.6-1.1c4.4-1,8.6-2.5,12.7-4.3c2-1,4-2,6-3.1s3.7-2.4,6.1-3.7c2.3-1.2,4.9-2.1,7.7-2.3
					s5.6,0.3,8.1,1.4c2.5,1.1,4.6,2.7,6.5,4.5c1.8,1.8,3.4,3.8,4.7,5.9c2.7,4.1,4.7,8.6,6.4,13c1.7,4.5,3,9.1,4,13.7l0.8,3.5
					c0.2,1.2,0.4,2.3,0.6,3.5c0.4,2.3,0.7,4.7,1,7c0.5,4.7,0.9,9.4,1.1,14.1c0.4,9.4,0.1,18.8-0.7,28.1c-0.2,2.3-0.5,4.6-0.7,7
					c-0.3,2.3-0.6,4.6-1,6.9C464.6,707.9,463.6,712.5,462.4,717z M461.9,716.9c1.1-4.5,2.1-9.1,2.7-13.7c0.6-4.6,1.1-9.2,1.2-13.9
					c0.4-9.3-0.1-18.6-1.1-27.8s-2.7-18.3-5-27.1c-1.1-4.4-2.5-8.8-4.1-13s-3.6-8.3-6-11.9c-2.4-3.6-5.4-6.8-9-8.4
					c-1.8-0.8-3.6-1.1-5.5-1c-1.9,0.2-3.8,0.8-5.6,1.7c-1.7,0.9-3.9,2.4-6,3.5c-2.1,1.2-4.3,2.2-6.5,3.2c-4.4,1.9-9,3.4-13.8,4.4
					c-2.4,0.5-4.8,0.9-7.2,1.1c-2.4,0.2-4.8,0.3-7.2,0.3c-4.8-0.1-9.6-0.6-14.3-1.7c-4.7-1-9.2-2.5-13.6-4.4c-2.2-0.9-4.3-2-6.4-3.1
					c-2.1-1.2-4.1-2.4-6.1-3.8l2.5-1.7c0.7,2.8,2.7,5.3,5.1,7.4c2.4,2.1,5.2,3.9,8.1,5.4s5.9,2.8,9,4c3.1,1.1,6.3,2.1,9.5,2.9l0,0
					c0.4,0.1,0.7,0.5,0.6,0.9c-0.7,8.3-0.9,16.8-0.8,25.1c0.1,8.4,0.6,16.8,1.6,25.1s2.2,16.6,4.2,24.7c0.9,4.1,2.1,8.1,3.2,12
					c0.7,2,1.3,3.9,2,5.9c0.7,1.9,1.5,3.8,2.3,5.7c1.7,3.7,3.5,7.4,5.7,10.8c2.2,3.4,4.7,6.6,7.5,9.4c2.9,2.8,6.2,5.1,9.7,6.9
					c3.6,1.7,7.6,2.9,11.6,3.2c4,0.4,8-0.2,11.7-2c3.7-1.7,6.8-4.5,9.5-7.7c2.6-3.2,4.7-6.9,6.4-10.7
					C459.4,724.9,460.8,720.9,461.9,716.9z"/>
			</g>
			<path class="st3" d="M461.7,632.6c-21.5,4.1-48.2,8.7-53.4,6.9c-5.6-1.9-14.4-16.6-20.3-27.6c11.5,0.2,24.6-2.6,38.2-11.3
				C442.8,589.9,455.2,606.8,461.7,632.6z"/>
			<g>
				<path class="st0" d="M399.7,731.1c6.9,10.6,16.5,18,29.5,19.3c15.4,1.5,23.8-10.6,29.7-28.5c-26.1,11.7-53.7-1.6-52.1-10.4
					c3.1-16.3,41.8-15.8,2-27c0,0-12.8,8.1-20.6,18.8C390.8,713.6,394.5,723.2,399.7,731.1z"/>
				<path class="st1" d="M399.9,731c1.9,2.8,4,5.5,6.4,7.8s5.2,4.3,8.1,5.8c2.9,1.5,6.1,2.6,9.3,3.2c0.8,0.2,1.6,0.3,2.4,0.4
					c0.8,0.1,1.6,0.2,2.4,0.2c1.6,0.1,3.2,0.1,4.7-0.1c3.1-0.3,5.9-1.3,8.5-2.9c1.3-0.8,2.5-1.8,3.6-2.8c1.1-1.1,2.2-2.3,3.2-3.5
					c4-5.1,7.1-11.2,9.4-17.5l1.2,1.1c-8.4,3.5-17.5,5.1-26.6,4.5c-4.5-0.3-9-1.1-13.4-2.6c-2.2-0.7-4.3-1.6-6.4-2.8
					c-2-1.2-4-2.5-5.7-4.4c-0.8-1-1.6-2.1-2-3.5c-0.2-0.7-0.3-1.5-0.2-2.3s0.2-1.3,0.4-2c0.7-2.5,2.3-4.7,4-6.4
					c3.5-3.5,7.7-5.7,11.4-7.9c0.9-0.6,1.8-1.1,2.5-1.7c0.4-0.3,0.7-0.6,0.8-0.7c0.1-0.1,0.1-0.1,0.1-0.1s-0.1,0.2,0,0.3
					c0,0.3,0.1,0.2-0.1,0c-0.2-0.2-0.5-0.4-0.9-0.7c-0.8-0.5-1.7-0.9-2.7-1.3c-3.9-1.6-8.2-2.8-12.4-4l2.2-0.3
					c-1.8,1.2-3.7,2.6-5.5,3.9c-1.8,1.4-3.6,2.8-5.3,4.3s-3.4,3-5,4.6s-3.1,3.2-4.6,4.9l0.3-1.8c0.5,2.4,1,4.9,1.5,7.3
					c0.6,2.4,1.2,4.9,1.9,7.3c0.8,2.4,1.6,4.8,2.7,7C397.3,726.6,398.5,728.9,399.9,731z M399.5,731.3c-1.4-2.1-2.7-4.3-3.9-6.5
					s-2.4-4.5-3.6-6.8c-1.1-2.3-2.2-4.6-3.2-7s-1.9-4.8-2.7-7.2c-0.2-0.6-0.1-1.1,0.2-1.6l0.1-0.2c1.4-2,2.8-4,4.4-5.8
					c1.6-1.8,3.3-3.5,5.1-5.1s3.6-3.2,5.5-4.7s3.8-2.9,5.9-4.2l0,0c0.7-0.4,1.5-0.5,2.2-0.3c4.4,1.3,8.7,2.6,13,4.5
					c1.1,0.5,2.2,1,3.3,1.8c0.6,0.4,1.1,0.8,1.7,1.4c0.3,0.3,0.6,0.7,0.9,1.1c0.3,0.4,0.5,1.1,0.6,1.8s0,1.4-0.3,2
					c-0.2,0.6-0.5,1-0.8,1.3c-0.6,0.7-1.1,1.1-1.7,1.5c-1.1,0.8-2.1,1.4-3.1,1.9c-2,1.1-4,2.1-5.8,3.2c-1.9,1.1-3.6,2.3-5.1,3.6
					s-2.7,2.9-3.4,4.6c-0.2,0.4-0.3,0.9-0.4,1.3c-0.1,0.3-0.1,0.7,0,1c0.1,0.7,0.6,1.6,1.1,2.3c1.2,1.6,2.8,2.9,4.6,4.1
					c1.8,1.2,3.7,2.1,5.8,2.9c4,1.6,8.4,2.7,12.7,3.1c8.7,0.9,17.8-0.5,25.8-4.3c0.4-0.2,0.9,0,1.2,0.4c0.1,0.2,0.1,0.4,0,0.6l0,0
					c-2,6.5-4,13.2-7.9,19.2c-1,1.5-2.1,2.9-3.3,4.3c-1.3,1.3-2.7,2.6-4.2,3.6c-3.1,2.1-6.9,3.3-10.6,3.4c-1.9,0.1-3.7-0.1-5.5-0.4
					c-0.9-0.2-1.8-0.3-2.6-0.6c-0.9-0.2-1.7-0.4-2.6-0.7c-3.4-1.1-6.6-2.7-9.4-4.7c-2.9-2-5.4-4.3-7.7-6.9
					C403.4,736.8,401.3,734.1,399.5,731.3z"/>
			</g>
		</g>
		<path class="st1" d="M579.9,874.8l14.6,84l37.3-5.9c0,0-14.9-86.1,5.2-60.6c13.4,17,14.6,57.6,14.6,57.6l13.8-7.6
			c0,0-5.5-50.5-16-77.2C649.3,865.1,628.2,875.9,579.9,874.8z"/>
		<g>
			<g>
				<path class="st0" d="M439.7,951.1c-0.1,0-0.2,0-0.3,0l-18.9-1.4c-2.1-0.2-3.7-1.9-3.7-4l-0.2-26.2l-21-30.7
					c-0.8-1.2-0.9-2.7-0.3-4c0.6-1.3,1.9-2.1,3.3-2.2l28.5-1.8c0.1,0,0.2,0,0.3,0c1.7,0,3.2,1,3.7,2.6l1.8,4.9l2.4-5.6
					c0.6-1.5,2.1-2.4,3.7-2.4c0.3,0,0.5,0,0.8,0.1l29.8,6.2c1.4,0.3,2.5,1.3,3,2.7c0.4,1.4,0.1,2.9-0.9,3.9l-24.7,27l-3.4,27.5
					C443.4,949.6,441.7,951.1,439.7,951.1z"/>
				<path class="st1" d="M439,884.1l29.8,6.2l-25.6,28l-3.5,28.8l-18.9-1.4l-0.2-27.4l-21.7-31.7l28.5-1.8l5.3,14.2L439,884.1
					 M439,876.1c-2.4,0-4.6,1-6.1,2.8c-1.5-1.4-3.4-2.2-5.5-2.2c-0.2,0-0.3,0-0.5,0l-28.5,1.8c-2.9,0.2-5.4,1.9-6.7,4.5
					s-1,5.6,0.6,8l20.3,29.7l0.2,25c0,4.2,3.3,7.6,7.4,7.9l18.9,1.4c0.2,0,0.4,0,0.6,0c4,0,7.4-3,7.9-7l3.2-26.3l23.8-26.1
					c1.9-2.1,2.6-5.1,1.7-7.9c-0.9-2.7-3.2-4.8-6-5.4l-29.8-6.2C440.1,876.1,439.5,876.1,439,876.1L439,876.1z"/>
			</g>
		</g>
		<path class="st1" d="M270.5,1084.5c0,0-43.1-18.1-99.5,10.1c0,0,43.6-3.6,29.9,15.7s-47.3,11.2-42,0.5c0,0-23.8,14.5-22,36.1
			l22.4,6.5c0,0,0.9-13,9-17c0,0,25.5,13.4,56.4,4s25.5-36.3,1.3-47C226,1093.2,242.4,1087.8,270.5,1084.5z"/>
		<g>
			<path class="st1" d="M222,1098.3c4-1.3,8-2.3,12-3.1c4-0.8,8.1-1.4,12.1-1.8c4.1-0.4,8.1-0.6,12.2-0.5c4.1,0,8.1,0.5,12.1,1.1
				c-4-0.2-8.1-0.2-12,0.2c-4,0.3-8,0.9-11.9,1.7c-3.9,0.8-7.8,1.8-11.6,3c-3.8,1.2-7.6,2.5-11.1,4.1h-0.1c-1.3,0.6-2.7,0-3.3-1.3
				c-0.6-1.3,0-2.7,1.3-3.3C221.8,1098.4,221.9,1098.4,222,1098.3z"/>
		</g>
		<g>
			<path class="st1" d="M268.2,1099.8c-4.3,0.4-8.5,1-12.7,1.8c-2.1,0.4-4.2,0.8-6.2,1.3c-2.1,0.5-4.1,1.1-6.1,1.6
				c-2,0.6-4,1.2-6,1.9c-2,0.7-4,1.4-6,2.1s-3.9,1.5-5.9,2.3c-1.9,0.8-3.9,1.7-5.7,2.6l-0.1,0.1h-0.1c-4.6,2-9.3,4.4-13.9,6.8
				c-4.5,2.5-9,5.1-13.3,8c-2.2,1.4-4.3,2.9-6.4,4.4s-4.2,3.1-6.2,4.8c-4,3.3-7.8,6.9-11.4,10.8c1.3-2.3,2.8-4.5,4.4-6.6
				s3.3-4.2,5.2-6.1c3.7-3.9,7.7-7.4,12-10.7c4.3-3.2,8.7-6.2,13.4-8.9c4.6-2.7,9.4-5.1,14.4-7.2l-0.2,0.1c4.1-1.9,8.1-3.4,12.3-4.8
				c4.1-1.3,8.4-2.4,12.6-3.2c2.1-0.4,4.3-0.8,6.4-1c2.2-0.3,4.3-0.5,6.5-0.6C259.5,1099.1,263.9,1099.2,268.2,1099.8z"/>
		</g>
		<g>
			<path class="st1" d="M270.5,1107.8c-8.6,0.9-16.9,2.5-25,4.8c-8.1,2.4-16.1,5.2-23.7,8.8c-7.6,3.6-15.1,7.6-22.3,12
				c-7.1,4.5-14,9.4-20,15.7c2.1-3.8,4.9-7.2,7.9-10.3c1.5-1.5,3.1-3,4.8-4.5c1.6-1.4,3.4-2.8,5.1-4.1c7-5.2,14.5-9.6,22.4-13.3
				c3.9-1.8,8.1-3.4,12.2-4.8c4.2-1.3,8.4-2.4,12.7-3.2C253.1,1107.2,261.9,1106.6,270.5,1107.8z"/>
		</g>
		<path class="st1" d="M377.8,1101.3c0,0-60.9,5.7-65.4,53.9l26.4-5.7c0,0,2.8-22,26.9-29.7c24.1-7.7-7.4,23.7-7.4,23.7l23.3-6.8
			C381.6,1136.7,399.2,1114.7,377.8,1101.3z"/>
		<path class="st1" d="M312.4,852.8l-22.1,68.4l15.7,5.2c0,0,15.6-64.1,22.5-59.1s-11.4,62.6-11.4,62.6l9.1,2.7l18.5-73.3
			L312.4,852.8z"/>
		<path class="st1" d="M888.1,1125.5c0,0-32.2-18.8-150.4,5.4c0,0,31.6,0.7,23.5,18.1c-8.1,17.5-59.8,0.7-58.4-8.7
			c0,0-36.3,0-15.4,19.5c0,0,0.7,0.7,20.1,6.7c-1.1-0.4,42.6,21.3,75.2,5.4c32.4-15.8,20.1-28.6,12.8-31.1
			C795.4,1140.7,818.3,1125.5,888.1,1125.5z"/>
		<g>
			<path class="st1" d="M783.8,1148.4c3.8-1.8,7.5-3.2,11.3-4.5c3.8-1.4,7.6-2.5,11.5-3.7c7.7-2.2,15.5-4.1,23.3-5.6
				c3.9-0.7,7.8-1.5,11.8-2.1c3.9-0.7,7.9-1.2,11.8-1.7c2-0.3,3.9-0.5,5.9-0.7l5.9-0.6c4-0.3,7.9-0.6,11.9-0.9
				c-3.9,0.5-7.9,1-11.8,1.5l-5.9,0.9c-2,0.3-3.9,0.6-5.9,1c-3.9,0.7-7.8,1.4-11.7,2.3c-3.9,0.8-7.7,1.8-11.6,2.7
				c-7.7,2-15.3,4.2-22.7,6.8c-3.7,1.3-7.4,2.7-11,4.2s-7.3,3.1-10.6,4.9h-0.1c-1.2,0.7-2.7,0.2-3.4-1s-0.2-2.7,1-3.4
				C783.7,1148.4,783.7,1148.4,783.8,1148.4z"/>
		</g>
		<g>
			<path class="st1" d="M783.5,1158c1.1-0.7,1.9-1.1,2.9-1.6c0.9-0.5,1.9-0.9,2.8-1.3c0.9-0.4,1.9-0.8,2.8-1.2
				c0.9-0.4,1.9-0.8,2.9-1.1c1.9-0.7,3.8-1.4,5.7-2.1s3.9-1.3,5.8-1.9c7.7-2.4,15.6-4.5,23.4-6.3c3.9-0.9,7.9-1.7,11.8-2.6
				c4-0.8,7.9-1.6,11.9-2.3c4-0.7,7.9-1.4,11.9-2.1l11.9-1.9l-11.8,2.5c-3.9,0.9-7.8,1.8-11.8,2.7c-3.9,0.9-7.8,1.9-11.7,2.9
				c-3.9,1.1-7.8,2.1-11.6,3.2c-7.7,2.2-15.4,4.7-22.8,7.4c-1.9,0.7-3.7,1.4-5.6,2.2c-1.9,0.7-3.7,1.5-5.5,2.3
				c-0.9,0.4-1.8,0.8-2.7,1.2c-0.9,0.4-1.8,0.9-2.6,1.3c-0.9,0.4-1.7,0.9-2.6,1.4c-0.8,0.5-1.7,1-2.3,1.4l-0.1,0.1
				c-1.1,0.8-2.7,0.5-3.5-0.6s-0.5-2.7,0.6-3.5C783.4,1158,783.4,1158,783.5,1158z"/>
		</g>
		<g>
			<path class="st1" d="M771.2,1166.7c8.8-2.6,17.6-5,26.4-7.5c8.8-2.4,17.7-4.8,26.5-7.1c8.9-2.3,17.7-4.6,26.6-6.8
				c8.9-2.2,17.8-4.4,26.6-6.5c-8.8,2.5-17.6,5.1-26.3,7.7c-8.8,2.6-17.5,5.3-26.2,8s-17.4,5.5-26.1,8.3c-8.7,2.8-17.4,5.7-26,8.6
				l0,0c-1.3,0.4-2.7-0.2-3.2-1.6c-0.4-1.3,0.2-2.7,1.6-3.2C771.1,1166.8,771.1,1166.7,771.2,1166.7z"/>
		</g>
		<g>
			<g>
				<path class="st0" d="M744.8,700.7c0,0,122.9-49.4,186.2,11.1c40,38.2-30.2,108.8-72.7,85c0,0-29.4,34-71.9,22.1
					s-45.9,28.9-74.8,17c-28.9-11.9-10.2-52.7,27.2-61.2C738.9,774.6,702.3,717.7,744.8,700.7z"/>
				<path class="st1" d="M744.7,700.3c3.4-1.3,6.8-2.5,10.2-3.7s6.8-2.3,10.3-3.3c6.9-2.2,13.8-4,20.8-5.9c14-3.5,28.2-6.4,42.7-7.8
					c7.2-0.7,14.5-1.1,21.8-1s14.6,0.6,21.9,1.7c3.6,0.6,7.2,1.3,10.8,2.1c3.6,0.9,7.1,1.9,10.6,3.1c7,2.3,13.8,5.5,20.2,9.2
					c6.4,3.8,12.3,8.3,17.6,13.5c5.5,5.1,10,11.8,11.9,19.2c2,7.4,1.6,15.2-0.4,22.3c-2,7.2-5.4,13.8-9.5,19.8
					c-4.2,6-9.1,11.4-14.7,16.2c-5.5,4.7-11.7,8.8-18.3,12c-3.3,1.6-6.8,2.9-10.3,3.9c-3.6,1-7.2,1.7-11,2
					c-3.7,0.2-7.6,0.1-11.3-0.7c-3.7-0.7-7.4-2-10.8-3.8l3.4-0.6c-1,1.1-1.8,2.1-2.8,3c-0.9,1-1.9,1.9-2.9,2.8
					c-2,1.8-4.1,3.5-6.2,5.1c-4.3,3.2-8.9,6.1-13.8,8.4c-9.7,4.7-20.6,7.4-31.6,7.3c-5.5-0.1-11-0.8-16.3-2.1l-3.7-0.9
					c-1.2-0.3-2.4-0.5-3.6-0.7c-2.4-0.4-4.7-0.6-7.1-0.7c-4.7-0.1-9.3,0.8-13.5,2.5c-4.3,1.7-8.3,4.4-12.4,7.4
					c-2,1.5-4.1,3.1-6.3,4.7c-2.2,1.6-4.6,3.1-7.3,4.4c-2.7,1.2-5.7,2.2-8.8,2.4c-3.1,0.3-6.2,0-9.1-0.8c-2.9-0.8-5.5-1.8-8.2-3.2
					c-2.6-1.4-5.1-3.3-7.2-5.6c-2.1-2.3-3.7-5.1-4.7-8c-1-3-1.4-6.1-1.2-9c0.1-3,0.7-5.9,1.6-8.6c0.9-2.7,2.1-5.3,3.6-7.7
					c2.9-4.8,6.5-9,10.7-12.6c8.3-7.1,18.4-11.8,28.9-13.7l-1.1,2.7c-1.9-3.2-3.5-6.4-5-9.7s-2.9-6.6-4.1-10
					c-2.4-6.8-4.2-13.9-4.7-21.2c-0.2-3.6-0.1-7.3,0.6-10.9c0.7-3.6,1.9-7.1,3.8-10.2c1.9-3.1,4.4-5.9,7.2-8.1
					C738.1,703.3,741.4,701.6,744.7,700.3z M745,701c-3.3,1.4-6.4,3-9.2,5.2s-5.1,4.9-6.9,7.9c-1.8,3-2.9,6.4-3.4,9.9
					c-0.6,3.5-0.6,7-0.3,10.5c0.7,7,2.7,13.9,5.4,20.4s6,12.9,9.8,18.7c0.5,0.8,0.3,1.9-0.5,2.4c-0.2,0.1-0.3,0.2-0.5,0.2h-0.1
					c-9.7,2.6-18.7,7.7-25.6,14.6c-3.5,3.5-6.5,7.4-8.7,11.6c-1.1,2.1-2,4.3-2.6,6.5s-1,4.5-1,6.6c0,2.2,0.3,4.3,1.1,6.2
					c0.7,1.9,1.8,3.7,3.2,5.2s3.2,2.8,5.1,3.8c1.9,1,4.2,1.9,6.3,2.4c4.3,1.1,8.3,0.6,12.3-1.3c4-1.9,7.9-5,12.2-8.2
					c4.2-3.1,8.9-6.3,14.3-8.4c5.3-2.1,11.2-3.1,16.8-2.9c2.8,0.1,5.6,0.4,8.3,0.9c1.4,0.3,2.7,0.6,4,0.9c1.3,0.3,2.7,0.7,3.8,1
					c4.7,1.3,9.6,2,14.4,2.2c19.5,0.7,39-8.8,52.9-22.6l0.2-0.2c0.9-0.9,2.2-1,3.2-0.4c2.9,1.7,6,3,9.2,3.8
					c3.3,0.9,6.7,1.2,10.1,1.2c6.9,0,13.8-1.8,20.2-4.5c12.9-5.6,24.3-15,32.2-26.7c2-2.9,3.8-6,5.2-9.2c1.4-3.2,2.6-6.5,3.4-9.9
					s1.1-6.9,1.1-10.3c-0.1-3.4-0.7-6.8-1.8-10c-1.1-3.2-2.7-6.2-4.7-8.9l-0.7-1l-0.8-1c-0.5-0.7-1.1-1.3-1.7-1.9
					c-1.2-1.2-2.4-2.3-3.7-3.5c-2.6-2.3-5.4-4.4-8.2-6.4c-2.9-2-5.8-3.8-8.9-5.5s-6.2-3.2-9.4-4.6c-1.6-0.7-3.2-1.3-4.8-2
					c-1.6-0.6-3.3-1.2-4.9-1.7c-6.6-2.2-13.4-3.8-20.3-5c-3.5-0.6-6.9-1.1-10.4-1.5s-7-0.7-10.5-0.9c-7.1-0.4-14.2-0.5-21.3-0.3
					s-14.2,0.7-21.3,1.5c-3.5,0.4-7.1,0.9-10.6,1.4c-3.5,0.6-7.1,1.2-10.6,1.8C772.3,692.2,758.4,695.9,745,701z"/>
			</g>
			<path class="st1" d="M846.7,771.8c0,0,48.4-7.3,62.3-32c0.1-0.2,13.8,13,13.8,13S907.1,804,846.7,771.8z"/>
			<g>
				<path class="st0" d="M751.5,726.5c17.6-7.3,19.8-72.4,19.8-72.4l65.5-13.8c0,0,9.9,52.6,17.2,67.2"/>
				<path class="st1" d="M751.5,726.5c2.9-1.6,4.7-4.3,6.1-7.1c1.4-2.8,2.4-5.8,3.3-8.8c0.9-3,1.5-6.1,2.2-9.2
					c0.6-3.1,1.1-6.2,1.5-9.4c0.8-6.3,1.5-12.6,1.9-19c0.5-6.3,0.8-12.8,1-19c0-1.7,1.2-3.1,2.8-3.5h0.1c5.4-1.3,10.9-2.5,16.3-3.7
					c5.5-1.2,10.9-2.4,16.4-3.5s10.9-2.2,16.4-3.3s11-2.1,16.4-3.1h0.2c1.9-0.3,3.7,0.9,4,2.8l0,0l2.9,17.1c1,5.7,2,11.4,3,17.1
					c1.1,5.7,2.1,11.4,3.4,17c0.6,2.8,1.2,5.6,1.9,8.4c0.7,2.8,1.5,5.6,2.5,8.3c-3-5-5-10.6-7-16c-1.9-5.5-3.7-11.1-5.2-16.7
					c-1.6-5.6-3.1-11.2-4.5-16.9s-2.7-11.3-3.9-17l4.1,2.8c-5.4,1.3-10.9,2.6-16.3,3.8c-5.4,1.2-10.9,2.4-16.3,3.6
					c-5.5,1.2-10.9,2.3-16.4,3.4c-5.5,1.1-10.9,2.2-16.4,3.2l2.9-3.5c-0.2,3.3-0.4,6.5-0.8,9.8c-0.3,3.2-0.7,6.5-1.1,9.7
					c-0.9,6.4-2,12.9-3.5,19.2c-1.5,6.4-3.3,12.7-5.9,18.7c-1.3,3-2.8,6-4.7,8.7c-1,1.3-2,2.6-3.3,3.7
					C754.5,725.1,753.1,726,751.5,726.5z"/>
			</g>
			<path class="st1" d="M716.4,814.3c0,0,19-2.1,30.7-16.4c11.7-14.3,33.7-8.5,30.7-18.7s-41-58.5-39.5-64.4
				c0.8-3.2,12.8-1.6,23.3,0.6c8.6,1.8,17-4,18.5-12.6c2.1-12.3,5.7-27.6,10.8-31.9c8.8-7.3,30.7-7.3,30.7-7.3s16.3,35.1,19.1,43.9
				l71.6,11.7c0,0-7.1,26.5-39.5,36.6c-42.4,13.2-77.6,0-77.6,0s24.9,16.1,35.1,13.2s-11.7,43.9-43.9,38
				C754.5,801.1,719.3,846.5,716.4,814.3z"/>
			<g>
				<path class="st0" d="M710.4,698.9c0,0,18.6-26.4,45-18.6s3.1,69.8-10.9,69.8C730.6,750.1,710.4,753.2,710.4,698.9z"/>
				<path class="st1" d="M710.1,698.8l0.4-0.9l0.4-0.7c0.3-0.5,0.5-1,0.8-1.4c0.6-0.9,1.2-1.9,1.9-2.7c1.3-1.8,2.8-3.5,4.3-5.1
					c3.1-3.2,6.8-6,10.8-8.2c2-1.1,4.2-2,6.4-2.7c1.1-0.4,2.3-0.6,3.4-0.9c1.2-0.2,2.3-0.5,3.5-0.6c4.7-0.6,9.6,0,14,1.6
					c2.4,0.8,4.8,2.2,6.6,4s3.2,4,4,6.3c1.7,4.5,1.9,9.1,1.9,13.5c-0.1,4.4-0.6,8.8-1.3,13.1s-1.6,8.6-2.8,12.9
					c-1.2,4.3-2.6,8.5-4.6,12.6c-1,2-2.1,4-3.4,6c-1.3,1.9-2.9,3.8-4.9,5.5c-1,0.9-2.2,1.7-3.7,2.3c-0.4,0.1-0.8,0.3-1.2,0.4
					c-0.5,0.1-0.9,0.2-1.4,0.3l-0.7,0.1H744h-0.8c-2.1,0.1-4.4,0.2-6.7,0.1c-2.3,0-4.8-0.3-7.2-0.9c-2.5-0.6-4.9-1.6-7.2-3.1
					c-2.2-1.5-4.2-3.3-5.7-5.3s-2.7-4.2-3.7-6.4c-1.9-4.4-2.9-8.9-3.5-13.3c-0.3-2.2-0.5-4.4-0.6-6.7c-0.1-2.2-0.1-4.4-0.1-6.6
					c0-1.1,0.1-2.2,0.1-3.3l0.3-3.3l0.2-1.6l0.2-1.7C709.7,700.9,709.9,699.8,710.1,698.8z M710.8,699l1.1,6.3l0.5,3.2
					c0.2,1.1,0.4,2.1,0.6,3.2c0.2,1.1,0.4,2.1,0.6,3.1c0.2,1,0.4,2.1,0.6,3.1c0.4,2.1,1,4.1,1.5,6.1c1.1,4,2.5,7.8,4.3,11.2
					c0.9,1.7,2,3.2,3.1,4.6c1.2,1.3,2.5,2.4,3.9,3.3c2.8,1.8,6.3,2.5,10.2,2.8c2,0.2,4,0.2,6.2,0.2h0.8h0.2c0.1,0,0.1,0,0.1,0h0.1
					c0.1,0,0.2,0,0.2,0l0.3-0.1c0.5-0.2,1.1-0.5,1.8-1c1.3-1,2.7-2.4,3.9-3.9s2.4-3.2,3.5-4.9c2.2-3.4,4.3-7.1,6.1-10.9
					c3.5-7.6,5.9-16.1,5.6-24.5c-0.2-4.2-1.2-8.3-3.3-11.6c-1-1.6-2.3-3-3.7-3.9c-1.4-1-3-1.6-4.8-1.9c-3.8-0.8-7.7-1.2-11.5-0.9
					c-1.9,0.1-3.8,0.4-5.7,0.9s-3.8,1.1-5.6,1.8c-3.7,1.5-7.3,3.5-10.7,5.9c-1.7,1.2-3.4,2.4-5.1,3.7c-0.8,0.7-1.7,1.3-2.5,2
					l-1.2,1.1l-0.6,0.5l-0.3,0.3L710.8,699L710.8,699C710.8,699.1,710.8,699,710.8,699z"/>
			</g>
			<g>
				<path class="st0" d="M770.9,648.2c0,0,21.5-24.1,52-17s3.6,63.8-12.5,63.8C794.2,695,770.9,697.8,770.9,648.2z"/>
				<path class="st1" d="M770.5,648.1l0.3-0.5l0.2-0.4l0.5-0.7c0.3-0.5,0.7-0.9,1-1.3c0.7-0.9,1.5-1.7,2.2-2.6
					c1.6-1.6,3.2-3.2,5-4.6c3.5-2.9,7.4-5.3,11.7-7.3c4.2-1.9,8.7-3.3,13.4-4c2.3-0.4,4.7-0.5,7-0.5c2.4,0.1,4.7,0.3,7,0.8l1.7,0.4
					l1.7,0.5c1.1,0.3,2.3,0.7,3.4,1.2c2.3,1,4.5,2.3,6.3,4.1s3.2,3.9,4.1,6.1c0.9,2.2,1.4,4.5,1.7,6.8c0.5,4.6,0.1,9.1-0.6,13.5
					c-0.8,4.4-1.9,8.8-3.4,13.1s-3.3,8.5-5.8,12.4c-1.2,2-2.6,3.9-4.1,5.7c-1.6,1.8-3.3,3.5-5.4,5.1c-1.1,0.8-2.2,1.5-3.6,2
					l-1.1,0.4l-1.1,0.3c-0.4,0.1-0.8,0.2-1.2,0.2s-0.9,0.1-1.2,0.1c-2.1,0.1-4.4,0.2-6.6,0.2c-4.5,0.1-9.4-0.3-14.3-1.9
					c-2.4-0.8-4.8-2-6.9-3.5c-2.1-1.5-4-3.4-5.5-5.4c-3.1-4-4.8-8.7-5.9-13.2c-0.3-1.1-0.5-2.3-0.7-3.4l-0.5-3.4l-0.3-3.4l-0.1-3.4
					c0-2.2,0.1-4.5,0.2-6.7c0.1-1.1,0.2-2.2,0.3-3.4C770.2,650.2,770.4,649.1,770.5,648.1z M771.3,648.3l1.1,6.4
					c0.3,2.2,0.8,4.3,1.2,6.4l0.7,3.1l0.8,3.1l0.9,3c0.4,1,0.7,2,1,2.9c0.4,0.9,0.7,1.9,1.2,2.8l0.7,1.4l0.7,1.3
					c1,1.7,2.1,3.3,3.3,4.7c2.5,2.8,5.5,4.7,9,5.8s7.5,1.5,11.7,1.6c2.1,0.1,4.3,0.1,6.5,0.2c0.2,0,0.3,0,0.4,0h0.4
					c0.2,0,0.3-0.1,0.5-0.1l0.5-0.1c0.7-0.2,1.4-0.6,2.2-1.1c1.5-0.9,3-2.2,4.4-3.6c1.4-1.4,2.8-3,4.1-4.6c2.6-3.3,5-6.8,7-10.5
					c2-3.8,3.7-7.7,4.7-11.9c1-4.1,1.4-8.5,0.7-12.6s-2.9-7.9-6-9.9c-1.6-1.1-3.4-1.7-5.2-2.1c-0.9-0.2-1.9-0.3-2.9-0.4l-1.5-0.2
					c-0.5,0-1-0.1-1.5-0.1c-4.1-0.3-8.1-0.3-12.2,0.2c-4,0.4-8.1,1.4-12,2.7s-7.8,3-11.6,5c-1.9,1-3.8,2.1-5.6,3.2
					c-0.9,0.6-1.8,1.2-2.7,1.8l-1.4,0.9l-0.7,0.5l-0.3,0.2L771.3,648.3L771.3,648.3C771.3,648.4,771.3,648.4,771.3,648.3z"/>
			</g>
			<g>
				<path class="st0" d="M844.8,667.1c0,0,26.4-22.7,51.9-7.6c25.5,15.1-15.2,73.8-29.7,70.1C852.4,725.9,830.5,723.8,844.8,667.1z"
					/>
				<path class="st1" d="M844.5,666.9l0.4-0.4l0.3-0.3l0.6-0.6c0.4-0.4,0.8-0.9,1.3-1.3c0.9-0.8,1.8-1.6,2.7-2.3
					c1.9-1.5,3.8-2.9,5.9-4.1c4.1-2.5,8.6-4.5,13.5-5.6c2.4-0.6,4.9-1,7.4-1.1c1.3-0.1,2.5-0.1,3.8-0.1c1.3,0.1,2.5,0.1,3.8,0.3
					c5.1,0.6,10,2.5,14.2,5.3c2.3,1.5,4.4,3.5,5.8,5.9s2.2,5,2.6,7.5c0.6,5.1-0.3,10-1.5,14.6s-2.9,9-4.8,13.3s-4,8.6-6.3,12.7
					c-2.4,4.1-5,8.2-8.2,11.9c-1.6,1.9-3.3,3.6-5.2,5.3c-1.9,1.6-4,3.2-6.5,4.5c-1.3,0.6-2.7,1.2-4.4,1.4c-0.4,0.1-0.9,0.1-1.3,0.1
					c-0.5,0-0.9,0-1.4-0.1l-0.7-0.1l-0.5-0.1l-0.8-0.2c-2.2-0.5-4.6-1-7-1.6c-2.4-0.7-4.9-1.6-7.3-2.8c-2.4-1.3-4.7-3-6.6-5
					c-1.9-2.1-3.4-4.5-4.5-6.9c-1.1-2.5-1.8-5-2.2-7.6c-0.8-5.1-0.7-10-0.2-14.8c0.2-2.4,0.6-4.8,1.1-7.1c0.4-2.3,1-4.6,1.6-6.9
					c0.3-1.1,0.6-2.3,1-3.4l1.1-3.4l0.6-1.7l0.6-1.7C843.6,669.1,844,667.9,844.5,666.9z M845.2,667.3l-0.6,6.8l-0.3,3.5
					c-0.1,1.2-0.2,2.3-0.3,3.4c-0.1,1.1-0.1,2.3-0.2,3.4c-0.1,1.1-0.2,2.3-0.2,3.4c-0.1,2.3-0.1,4.5-0.1,6.8
					c0.1,4.5,0.5,8.9,1.5,12.9c0.5,2,1.2,3.9,2.1,5.7c0.9,1.7,1.9,3.3,3.2,4.6c2.5,2.7,6,4.4,10.1,5.7c2,0.7,4.2,1.2,6.5,1.9
					l1.3,0.4c0.1,0,0.2,0,0.3,0.1h0.4c0.6,0,1.4-0.2,2.2-0.6c1.7-0.7,3.5-1.8,5.2-3.1s3.4-2.7,5-4.2c3.2-3,6.4-6.3,9.2-9.9
					c5.7-7.1,10.4-15.3,12.2-24.2c0.9-4.4,1-9-0.3-13c-0.6-2-1.6-3.8-2.9-5.2c-0.6-0.7-1.3-1.4-2.1-1.9c-0.7-0.6-1.6-1-2.4-1.5
					c-3.8-1.9-7.8-3.3-11.9-4c-2.1-0.4-4.2-0.5-6.3-0.5s-4.3,0.1-6.4,0.5c-4.3,0.6-8.6,1.8-12.8,3.4c-2.1,0.8-4.2,1.7-6.3,2.6
					c-1,0.5-2.1,1-3.1,1.5l-1.5,0.8l-0.8,0.4l-0.4,0.2L845.2,667.3L845.2,667.3C845.2,667.4,845.2,667.3,845.2,667.3z"/>
			</g>
			<g>
				<path class="st0" d="M900.3,693.2c0,0,26.4-22.7,51.9-7.6c25.5,15.1-15.2,73.8-29.7,70.1C907.9,752,886,749.9,900.3,693.2z"/>
				<path class="st1" d="M900,693l0.4-0.4l0.3-0.3l0.6-0.6c0.4-0.4,0.8-0.9,1.3-1.3c0.9-0.8,1.8-1.6,2.7-2.3
					c1.9-1.5,3.8-2.9,5.9-4.1c4.1-2.5,8.6-4.5,13.5-5.6c2.4-0.6,4.9-1,7.4-1.1c1.3-0.1,2.5-0.1,3.8-0.1c1.3,0.1,2.5,0.1,3.8,0.3
					c5.1,0.6,10,2.5,14.2,5.3c2.3,1.5,4.4,3.5,5.8,5.9s2.2,5,2.6,7.5c0.6,5.1-0.3,10-1.5,14.6s-2.9,9-4.8,13.3s-4,8.6-6.3,12.7
					c-2.4,4.1-5,8.2-8.2,11.9c-1.6,1.9-3.3,3.6-5.2,5.3c-1.9,1.6-4,3.2-6.5,4.5c-1.3,0.6-2.7,1.2-4.4,1.4c-0.4,0.1-0.9,0.1-1.3,0.1
					c-0.5,0-0.9,0-1.4-0.1l-0.7-0.1l-0.5-0.1l-0.8-0.2c-2.2-0.5-4.6-1-7-1.6c-2.4-0.7-4.9-1.6-7.3-2.8c-2.4-1.3-4.7-3-6.6-5
					c-1.9-2.1-3.4-4.5-4.5-6.9c-1.1-2.5-1.8-5-2.2-7.6c-0.8-5.1-0.7-10-0.2-14.8c0.2-2.4,0.6-4.8,1.1-7.1c0.4-2.3,1-4.6,1.6-6.9
					c0.3-1.1,0.6-2.3,1-3.4l1.1-3.4l0.6-1.7l0.6-1.7C899.1,695.1,899.5,694,900,693z M900.7,693.4l-0.6,6.8l-0.3,3.5
					c-0.1,1.2-0.2,2.3-0.3,3.4c-0.1,1.1-0.1,2.3-0.2,3.4c-0.1,1.1-0.2,2.3-0.2,3.4c-0.1,2.3-0.1,4.5-0.1,6.8
					c0.1,4.5,0.5,8.9,1.5,12.9c0.5,2,1.2,3.9,2.1,5.7c0.9,1.7,1.9,3.3,3.2,4.6c2.5,2.7,6,4.4,10.1,5.7c2,0.7,4.2,1.2,6.5,1.9
					l1.3,0.4c0.1,0,0.2,0,0.3,0.1h0.4c0.6,0,1.4-0.2,2.2-0.6c1.7-0.7,3.5-1.8,5.2-3.1s3.4-2.7,5-4.2c3.2-3,6.4-6.3,9.2-9.9
					c5.7-7.1,10.4-15.3,12.2-24.2c0.9-4.4,1-9-0.3-13c-0.6-2-1.6-3.8-2.9-5.2c-0.6-0.7-1.3-1.4-2.1-1.9c-0.7-0.6-1.6-1-2.4-1.5
					c-3.8-1.9-7.8-3.3-11.9-4c-2.1-0.4-4.2-0.5-6.3-0.5c-2.1,0-4.3,0.1-6.4,0.5c-4.3,0.6-8.6,1.8-12.8,3.4c-2.1,0.8-4.2,1.7-6.3,2.6
					c-1,0.5-2.1,1-3.1,1.5l-1.5,0.8l-0.8,0.4l-0.4,0.2L900.7,693.4L900.7,693.4L900.7,693.4z"/>
			</g>
			<path class="st1" d="M917.9,695.3c0,0-4.7,43.1,17.7,40.8c0,0-14.2,19.7-23,3.6c-8.8-16.1-4.4-35.1-4.4-35.1
				S908.6,697.7,917.9,695.3z"/>
			<path class="st3" d="M723.7,720.1c0,0,18.3-14.4,26.5-4.8S723.7,753.3,723.7,720.1z"/>
			<path class="st3" d="M786.7,657.7c0,0,22-10.2,35.1-2.9c0,0-4.4,19-17.6,17.6S780.8,667.9,786.7,657.7z"/>
			<path class="st3" d="M854,688.8c0,0,17.6-4.7,30.7,3.3c13.8,8.4-14.4,24.6-22.6,20C854,707.4,851.1,711.1,854,688.8z"/>
			<path class="st3" d="M912.5,719.1c0,0,20.1-5.1,27.6,5.5s-23.2,29.6-27.6,12.1C908.1,719.1,912.5,719.1,912.5,719.1z"/>
		</g>
	</g>
</g>
</svg>
