<?xml version="1.0" encoding="utf-8"?>
<!-- Generator: Adobe Illustrator 22.0.1, SVG Export Plug-In . SVG Version: 6.00 Build 0)  -->
<svg version="1.1" id="Capa_1" xmlns="http://www.w3.org/2000/svg" xmlns:xlink="http://www.w3.org/1999/xlink" x="0px" y="0px"
	 viewBox="0 0 1097.5 1215.7" style="enable-background:new 0 0 1097.5 1215.7;" xml:space="preserve">
<style type="text/css">
	.st0{fill:#FFFFFF;}
	.st1{fill:#5E004D;}
	.st2{fill:#FFFFFF;stroke:#5E004D;stroke-width:6.6795;stroke-linecap:round;stroke-linejoin:round;stroke-miterlimit:10;}
	.st3{fill:url(#SVGID_1_);stroke:#5E004D;stroke-width:6.6795;stroke-linecap:round;stroke-linejoin:round;stroke-miterlimit:10;}
	.st4{fill:url(#SVGID_2_);stroke:#5E004D;stroke-width:6.6795;stroke-linecap:round;stroke-linejoin:round;stroke-miterlimit:10;}
	.st5{fill:url(#SVGID_3_);}
	.st6{fill:#5E004D;stroke:#5E004D;stroke-width:0.8349;stroke-linecap:round;stroke-linejoin:round;stroke-miterlimit:10;}
	.st7{fill:url(#SVGID_4_);}
	.st8{fill:url(#SVGID_5_);}
	.st9{fill:#5E004D;stroke:#5E004D;stroke-width:6.6795;stroke-linecap:round;stroke-linejoin:round;stroke-miterlimit:10;}
	.st10{fill:url(#SVGID_6_);}
	.st11{fill:url(#SVGID_7_);}
	.st12{fill:url(#SVGID_8_);}
	.st13{fill:#5E004D;stroke:#5E004D;stroke-width:6.6795;stroke-linejoin:round;stroke-miterlimit:10;}
	.st14{fill:url(#SVGID_9_);}
	.st15{fill:url(#SVGID_10_);}
	.st16{fill:url(#SVGID_11_);}
</style>
<g>
	<g>
		<g>
			<g>
				<g>
					<path class="st0" d="M678,1055.8c-0.6,0-1.2,0-1.8-0.1c-3.7-0.3-9.3-0.7-16-1.1c-45.5-2.7-95-7-106.3-25.2
						c-2.9-4.7-3.1-9.9-0.7-15.5c6.8-15.9-0.4-31.7-8.1-48.5c-7.7-16.9-15.6-34.4-7.2-51.4c15.6-31.9,100.7-85.5,104.3-87.8
						c0.5-0.3,1.2-0.5,1.8-0.5c0.4,0,0.9,0.1,1.4,0.3c1.1,0.5,27.5,12.4,53.6,34c34.9,28.8,52.1,61,49.5,93.2
						C745.4,992.1,705.5,1055.8,678,1055.8z"/>
					<path class="st1" d="M644.1,829c0,0,107.2,48,101.1,123.8c-3,37.6-42.1,99.6-67.2,99.6c-0.5,0-1,0-1.4-0.1
						c-25-2.5-135-2.9-120.3-37.1c14.8-34.2-30.8-68.4-15.4-99.7C556.3,884.1,644.1,829,644.1,829 M644.1,822.4
						c-1.3,0-2.5,0.3-3.6,1c-0.3,0.2-22.4,14.1-46.2,31.8c-32.5,24.1-52.5,43.4-59.4,57.4c-9.1,18.4-0.8,36.6,7.2,54.3
						c7.3,16.1,14.3,31.3,8,45.8c-3.6,8.2-1.4,14.6,0.9,18.5c12.1,19.5,60.4,24,108.9,26.8c6.5,0.4,12.2,0.8,15.8,1.1
						c0.7,0.1,1.4,0.1,2.1,0.1c19.9,0,39.8-27.1,47.5-38.7c14.8-22.4,24.9-48.2,26.4-67.1c1.5-18.7-3.3-37.3-14.2-55.3
						c-8.5-14-20.8-27.8-36.5-40.7c-26.4-21.8-53.3-33.9-54.4-34.4C646,822.6,645,822.4,644.1,822.4L644.1,822.4z"/>
				</g>
				<g>
					<path class="st0" d="M546.2,1046.2c-1.2,0-2.4-0.7-3-1.8c-8.3-15.6,8.1-57.2,9.9-62c0.2-0.4,0.4-0.8,0.8-1.2
						c32.7-31.4,71.9-47.4,116.4-47.4c43.2,0,75.1,15.3,76.4,16c0.9,0.4,1.6,1.4,1.8,2.4c3.3,17.7-2.8,38.2-17.7,59.5
						c-11.1,15.8-23,26.3-23.5,26.8c-0.6,0.5-1.3,0.8-2,0.8L546.2,1046.2C546.2,1046.2,546.2,1046.2,546.2,1046.2z"/>
					<path class="st1" d="M670.2,937.2c43,0,74.9,15.6,74.9,15.6c7.7,41-40.1,83.1-40.1,83.1l-158.9,7
						c-7.8-14.7,10.1-59.2,10.1-59.2C594.1,947.3,635.8,937.2,670.2,937.2 M670.2,930.5c-20.3,0-39.8,3.4-58,10
						c-22.1,8.1-42.5,20.9-60.6,38.4c-0.7,0.7-1.2,1.4-1.5,2.3c-0.2,0.5-4.7,11.6-8.2,24.8c-5.2,19.2-5.7,32.2-1.5,40
						c1.2,2.2,3.4,3.6,5.9,3.6c0.1,0,0.2,0,0.3,0l158.9-7c1.5-0.1,3-0.7,4.1-1.6c2-1.8,50.6-45.1,42.3-89.3c-0.4-2-1.7-3.8-3.7-4.8
						C746.8,946.1,714.2,930.5,670.2,930.5L670.2,930.5z"/>
				</g>
				<g>
					<path class="st0" d="M547.3,1013.9c-0.3,0-0.8-0.1-1.1-0.3c-0.8-0.5-1.2-1.4-0.9-2.3c3.6-14.6,9.1-28.3,9.1-28.4
						c0.1-0.3,0.3-0.5,0.5-0.8c32.4-31.3,71.3-47.1,115.4-47.1c43,0,75.5,15.7,75.8,15.8c0.6,0.3,1,0.8,1.1,1.5
						c2,10.2,0.3,21.2-1.8,23.7c-0.7,0.8-1.5,1-2,1c-0.8,0-1.8-0.3-2.4-1.8c-5.1-1.9-30.2-10.3-64-10.3c-21.2,0-41.9,3.2-61.3,9.7
						c-24.2,8-46.8,21-67.1,38.6C548.2,1013.7,547.8,1013.9,547.3,1013.9z"/>
					<path class="st1" d="M670.2,937.2c43,0,74.9,15.6,74.9,15.6c2,10.9-0.3,22.3-1.7,22.3c-0.3,0-0.5-0.4-0.7-1.3
						c0,0-27.1-10.8-65.7-10.8c-37.1,0-84.9,9.9-129.8,48.8c3.6-14.6,9-28.1,9-28.1C594.1,947.3,635.8,937.2,670.2,937.2
						 M670.2,933.1v4.2V933.1c-20,0-39.2,3.3-57.2,9.9c-21.7,7.9-41.9,20.6-59.7,37.8c-0.4,0.4-0.8,0.9-1,1.4
						c-0.3,0.6-5.6,14-9.2,28.7c-0.4,1.8,0.3,3.6,1.9,4.6c0.7,0.4,1.4,0.6,2.2,0.6c1,0,2-0.3,2.7-1c20-17.4,42.4-30.2,66.3-38.1
						c19.3-6.4,39.8-9.6,60.7-9.6c32.2,0,56.2,7.6,62.6,9.9c1.3,2,3.1,2.2,3.8,2.2c1.4,0,2.6-0.6,3.6-1.8c3-3.6,4-15.9,2.2-25.5
						c-0.3-1.3-1.1-2.4-2.3-3C745.7,948.4,713.7,933.1,670.2,933.1L670.2,933.1z"/>
				</g>
				<g>
					<g>
						<path class="st0" d="M637.2,1071.5c-12.6,0-26.5-0.2-43.7-0.3c-16.1-0.2-28.6-2.3-37.1-6.3c-10.5-4.9-13.1-11.8-13.3-16.7
							c-1.2-21.1,36.8-46.7,76.7-51.7c11.3-1.4,22-2.1,31.9-2.1c33.8,0,58.2,8.2,72.5,24.5c10.9,12.5,11.4,25,11.4,25.5v0.1
							c0,15.2-14.9,20.2-26.2,22.6C695,1070.2,674.1,1071.5,637.2,1071.5L637.2,1071.5z"/>
						<path class="st1" d="M651.7,997.6c79.2,0,80.5,46.8,80.5,46.8c0,20-31.2,23.7-95,23.7c-13.2,0-27.7-0.2-43.6-0.3
							c-88.2-1.1-37-60,26.7-68C631.9,998.3,642.4,997.6,651.7,997.6 M651.7,991c-9.9,0-20.8,0.8-32.3,2.1
							c-19.6,2.5-39.7,9.9-55.1,20.2c-16.2,10.9-25.1,23.7-24.5,35c0.3,5.8,3.2,13.9,15.3,19.5c8.9,4.2,21.9,6.4,38.5,6.6
							c17.1,0.2,31.1,0.3,43.7,0.3c37.1,0,58.2-1.3,72.9-4.5c9.1-2,15.8-4.8,20.5-8.5c5.5-4.5,8.3-10.3,8.3-17.3c0-0.1,0-0.2,0-0.2
							c0-0.6-0.5-14.3-12.2-27.6c-6.6-7.6-15.6-13.7-26.6-17.9C686.9,993.6,670.6,991,651.7,991L651.7,991z"/>
					</g>
					<g>
						<path class="st0" d="M644.1,1071.6c-14,0-31.2-0.2-50.5-0.4c-5.5-0.1-10.7-0.3-15.4-0.8c-0.9-0.1-1.8-0.6-2.4-1.4
							c-0.5-0.8-0.8-1.7-0.5-2.6c5.6-25.6,31.7-43.4,63.4-43.4c51.8,0,65.2,18.2,75.4,38.4c0.4,0.8,0.5,2,0.1,2.8
							c-0.4,0.9-1.2,1.6-2.1,1.9C697.5,1070.2,681,1071.6,644.1,1071.6L644.1,1071.6z"/>
						<path class="st1" d="M638.7,1026.1L638.7,1026.1c49.9,0,62.6,17,72.4,36.6c-14.8,4.3-32.4,5.5-67.1,5.5
							c-13.8,0-30.3-0.2-50.5-0.4c-5.5-0.1-10.5-0.3-15-0.8C584,1042.8,608.8,1026.1,638.7,1026.1 M638.8,1019.5L638.8,1019.5
							L638.8,1019.5c-33.3,0-60.7,18.9-66.7,46c-0.4,1.9,0,3.8,1.1,5.4c1.1,1.5,2.8,2.5,4.7,2.7c4.8,0.5,10.1,0.8,15.7,0.9
							c19.3,0.3,36.4,0.4,50.5,0.4c37.3,0,54-1.4,69-5.8c1.9-0.6,3.5-2,4.2-3.7c0.8-1.8,0.8-3.9-0.2-5.7c-2.1-4.3-5.2-9.9-9.2-15
							c-4.2-5.4-8.9-9.7-14.4-13.2C680.7,1023.4,662.8,1019.5,638.8,1019.5L638.8,1019.5z"/>
					</g>
					<path class="st2" d="M698.7,1000.2l-3.3,12.6c0,0,30.1,12,41.4,37C736.8,1049.8,744.7,1017.9,698.7,1000.2z"/>
					<path class="st2" d="M596.3,1000.2l3.3,12.6c0,0-30.1,12-41.4,37C558.1,1049.8,550.2,1017.9,596.3,1000.2z"/>
				</g>
				<path class="st1" d="M718,878.1c0,0-18.4,30-13.2,38.3l-20.1-6l-14.9,15.4l8.2,12.2c0,0-57.2,65.5-78.4,66.5l-16.2-3.1
					l-12.7,17.7c0,0-24.5,23.6-7.5,44.4c0,0-23.7-3.5-25.5-30.8l-6.1-50.4l165.6-119.7L718,878.1z"/>
				<path class="st1" d="M683.4,967.3c0,0-56-2.9-63.9,8.7l-3.3,15.3C616.2,991.3,645.4,971.1,683.4,967.3z"/>
			</g>
			<g>
				<g>
					<path class="st0" d="M255.8,1055.8c-6,0-22.6-3.7-44.7-37.2c-14.5-22-24.4-47.1-25.9-65.5c-2.5-32.1,14.5-64.3,49.5-93.2
						c26.1-21.5,52.5-33.5,53.6-34c0.4-0.2,0.9-0.3,1.4-0.3c0.6,0,1.3,0.2,1.8,0.5c3.7,2.3,88.7,56,104.4,87.8
						c8.4,17,0.4,34.5-7.2,51.4c-7.6,16.8-14.9,32.7-8.1,48.5c2.4,5.6,2.1,10.8-0.7,15.5c-11.2,18.2-60.7,22.6-106.3,25.2
						c-6.6,0.4-12.3,0.8-16,1.1C256.9,1055.8,256.4,1055.8,255.8,1055.8L255.8,1055.8z"/>
					<path class="st1" d="M289.6,829c0,0,87.7,55.1,103.2,86.5s-30.1,65.5-15.4,99.7c14.8,34.2-95.3,34.6-120.3,37.1
						c-0.5,0.1-1,0.1-1.4,0.1c-25.1,0-64.2-62-67.2-99.6C182.5,877.1,289.6,829,289.6,829 M289.6,822.4c-0.9,0-1.9,0.2-2.7,0.6
						c-1.1,0.5-27.9,12.7-54.4,34.4c-15.7,12.9-27.9,26.7-36.5,40.7c-10.9,18-15.7,36.6-14.2,55.3c1.5,18.9,11.6,44.6,26.4,67.1
						c7.6,11.6,27.6,38.7,47.5,38.7c0.8,0,1.4,0,2.1-0.1c3.6-0.3,9.3-0.7,15.8-1.1c48.5-2.9,96.9-7.3,108.9-26.8
						c2.4-3.9,4.5-10.3,0.9-18.5c-6.2-14.5,0.7-29.7,8-45.8c8-17.6,16.3-35.8,7.2-54.3c-6.9-13.9-26.8-33.3-59.4-57.4
						c-23.8-17.7-46-31.6-46.2-31.8C292.1,822.7,290.9,822.4,289.6,822.4L289.6,822.4z"/>
				</g>
				<g>
					<path class="st0" d="M387.4,1046.2l-158.9-7c-0.8,0-1.5-0.3-2-0.8c-0.5-0.4-12.4-11-23.5-26.8c-14.9-21.2-21.1-41.8-17.7-59.5
						c0.2-1,0.8-2,1.8-2.4c1.4-0.7,33.1-16,76.4-16c44.5,0,83.6,16,116.4,47.4c0.3,0.3,0.6,0.7,0.8,1.2c1.9,4.7,18.3,46.4,9.9,62
						C389.9,1045.5,388.8,1046.2,387.4,1046.2C387.5,1046.2,387.5,1046.2,387.4,1046.2z"/>
					<path class="st1" d="M263.5,937.2c34.6,0,76.2,10.1,114,46.5c0,0,17.9,44.5,10.1,59.2l-158.9-7c0,0-47.8-42-40.1-83.1
						C188.5,952.8,220.5,937.2,263.5,937.2 M263.5,930.5v6.7V930.5c-44,0-76.5,15.6-77.9,16.3c-1.9,0.9-3.2,2.7-3.7,4.8
						c-8.3,44.3,40.2,87.5,42.3,89.3c1.1,1,2.6,1.6,4.1,1.6l158.9,7c0.1,0,0.2,0,0.3,0c2.5,0,4.8-1.4,5.9-3.6
						c4.2-7.7,3.7-20.8-1.5-40c-3.6-13.2-8.1-24.4-8.2-24.8c-0.3-0.8-0.8-1.7-1.5-2.3c-18.1-17.4-38.5-30.3-60.6-38.4
						C303.2,933.9,283.7,930.5,263.5,930.5L263.5,930.5z"/>
				</g>
				<g>
					<path class="st0" d="M386.5,1013.9c-0.5,0-1-0.2-1.4-0.5c-20.3-17.6-42.8-30.6-67.1-38.6c-19.5-6.5-40.2-9.7-61.3-9.7
						c-33.9,0-59,8.4-64,10.3c-0.6,1.4-1.6,1.8-2.4,1.8l0,0c-0.4,0-1.3-0.2-2-1c-2-2.5-3.7-13.5-1.8-23.7c0.1-0.7,0.5-1.2,1.1-1.5
						c0.3-0.2,32.9-15.8,75.8-15.8c44.2,0,83,15.8,115.4,47.1c0.3,0.2,0.3,0.4,0.5,0.8c0.1,0.2,5.5,13.8,9.1,28.4
						c0.3,0.8-0.2,1.8-0.9,2.3C387.2,1013.8,386.9,1013.9,386.5,1013.9z"/>
					<path class="st1" d="M263.5,937.2c34.5,0,76.2,10.1,114,46.5c0,0,5.4,13.5,9,28.1c-44.8-38.9-92.7-48.8-129.8-48.8
						c-38.7,0-65.7,10.8-65.7,10.8c-0.2,0.9-0.4,1.3-0.7,1.3c-1.4,0-3.7-11.4-1.7-22.3C188.5,952.8,220.5,937.2,263.5,937.2
						 M263.5,933.1c-43.4,0-75.4,15.4-76.8,16.1c-1.2,0.6-2,1.7-2.3,3c-1.8,9.5-0.8,21.9,2.2,25.5c0.9,1.1,2.2,1.8,3.6,1.8
						c0.7,0,2.6-0.2,3.8-2.2c6.4-2.2,30.5-9.9,62.6-9.9c21,0,41.4,3.2,60.7,9.6c24,7.9,46.3,20.7,66.3,38.1c0.8,0.7,1.8,1,2.7,1
						c0.8,0,1.5-0.2,2.2-0.6c1.5-0.9,2.3-2.8,1.9-4.6c-3.6-14.7-9-28.1-9.2-28.7c-0.3-0.5-0.6-1-1-1.4c-17.8-17.2-38-29.9-59.7-37.8
						C302.6,936.4,283.4,933.1,263.5,933.1L263.5,933.1z"/>
				</g>
				<g>
					<g>
						<path class="st0" d="M296.5,1071.5c-36.9,0-57.8-1.3-72.1-4.4c-11.2-2.5-26.2-7.4-26.2-22.6v-0.1c0-0.5,0.5-13.1,11.4-25.5
							c14.3-16.3,38.6-24.5,72.5-24.5c9.8,0,20.5,0.7,31.9,2.1c39.9,5,77.9,30.6,76.7,51.7c-0.5,8.3-7.6,22.4-50.5,23
							C323,1071.3,309.1,1071.5,296.5,1071.5z"/>
						<path class="st1" d="M282,997.6c9.3,0,19.8,0.7,31.4,2.1c63.7,8,114.9,66.9,26.7,68c-15.9,0.2-30.4,0.3-43.6,0.3
							c-63.9,0-95-3.7-95-23.7C201.5,1044.5,202.8,997.6,282,997.6 M282,991v6.7V991c-18.9,0-35.2,2.6-48.4,7.8
							c-11,4.2-19.9,10.3-26.6,17.9c-11.6,13.3-12.1,27-12.2,27.6c0,0.1,0,0.2,0,0.2c0,7,2.8,12.9,8.3,17.3
							c4.7,3.7,11.4,6.5,20.5,8.5c14.7,3.1,35.8,4.5,72.9,4.5c12.6,0,26.6-0.2,43.7-0.3c16.6-0.2,29.6-2.5,38.5-6.6
							c12-5.6,14.9-13.8,15.3-19.5c0.7-11.3-8.3-24.1-24.5-35c-15.5-10.4-35.5-17.8-55.1-20.2C302.8,991.7,291.9,991,282,991
							L282,991z"/>
					</g>
					<g>
						<path class="st0" d="M289.6,1071.6c-36.9,0-53.4-1.4-68-5.6c-0.9-0.3-1.7-0.9-2.1-1.9c-0.4-0.9-0.3-2,0.1-2.8
							c10.2-20.2,23.6-38.4,75.3-38.4c31.8,0,57.8,17.8,63.4,43.4c0.2,0.9,0,1.9-0.5,2.6s-1.4,1.3-2.4,1.4
							c-4.7,0.5-9.9,0.8-15.4,0.8C320.8,1071.4,303.7,1071.6,289.6,1071.6z"/>
						<path class="st1" d="M295,1026.1c30,0,54.8,16.6,60.1,40.8c-4.5,0.5-9.5,0.8-15,0.8c-20.1,0.3-36.6,0.4-50.5,0.4
							c-34.7,0-52.3-1.2-67.1-5.5C232.4,1043.1,245.1,1026.2,295,1026.1L295,1026.1 M295,1019.5L295,1019.5L295,1019.5
							c-24,0-42,3.9-54.8,12c-12.1,7.6-18.5,18.1-23.6,28.3c-0.8,1.8-0.9,3.8-0.2,5.7c0.8,1.8,2.4,3.2,4.2,3.7
							c14.9,4.3,31.7,5.8,69,5.8c14,0,31.2-0.2,50.5-0.4c5.6-0.1,11-0.3,15.7-0.9c1.9-0.2,3.6-1.2,4.7-2.7c1.1-1.5,1.5-3.5,1.1-5.4
							C355.7,1038.4,328.3,1019.5,295,1019.5L295,1019.5z"/>
					</g>
					<path class="st2" d="M235,1000.2l3.3,12.6c0,0-30.1,12-41.4,37C196.9,1049.8,189,1017.9,235,1000.2z"/>
					<path class="st2" d="M337.5,1000.2l-3.3,12.6c0,0,30.1,12,41.4,37C375.6,1049.8,383.5,1017.9,337.5,1000.2z"/>
				</g>
				<path class="st1" d="M215.8,878.1c0,0,18.4,30,13.2,38.3l20.1-6l14.9,15.4l-8.2,12.2c0,0,57.2,65.5,78.4,66.5l16.2-3.1
					l12.7,17.7c0,0,24.5,23.6,7.5,44.4c0,0,23.7-3.5,25.5-30.8l6.1-50.4L236.6,862.6L215.8,878.1z"/>
				<path class="st1" d="M250.3,967.3c0,0,56-2.9,63.9,8.7l3.3,15.3C317.5,991.3,288.4,971.1,250.3,967.3z"/>
			</g>
			<g>
				<path class="st2" d="M52.3,658c0,0,127.1-84.5,180.7-52c53.6,32.4,95.9,150.5,79.2,172c-16.6,21.5-64.9-34.5-79.8-43.6
					c0,0-56.3,70.8-92.7,74.8C84,815.5,52.3,658,52.3,658z"/>
				
					<linearGradient id="SVGID_1_" gradientUnits="userSpaceOnUse" x1="38.6627" y1="491.6172" x2="224.8439" y2="491.6172" gradientTransform="matrix(1 0 0 -1 0 1216)">
					<stop  offset="0" style="stop-color:#52FFCE"/>
					<stop  offset="0.9948" style="stop-color:#6700E4"/>
				</linearGradient>
				<path class="st3" d="M38.7,681.1c0,0,48-56.4,85.6-62c0,0,135.4-9.8,92,138.3l-75,72.4C141.3,829.8,49,745.1,38.7,681.1z"/>
				<path class="st2" d="M101.4,647.3c0,0-73.7-16.3-73.8,51.3c-0.1,60.3-14.7,95.7,6.8,119.3c29.4,32.2,125.9,30.7,141.8-26.9
					C176.2,791,224,637.7,101.4,647.3z"/>
				<g>
					<path class="st0" d="M32.1,801.1c0,0-17.2,14.5-9.7,31c7.5,16.5,84.3,40.3,100.6,18.5s9.9-51.8-6.3-51S32.1,801.1,32.1,801.1z"
						/>
					<path class="st1" d="M32.1,801.1c-2.1,2.1-4,4.5-5.6,7c-1.6,2.5-3,5.2-3.7,8c-0.4,1.4-0.7,2.8-0.8,4.2c-0.2,1.4-0.2,2.9,0,4.2
						c0.2,1.4,0.5,2.8,0.9,4.2c0.3,0.7,0.5,1.4,0.8,2c0.3,0.7,0.6,1.2,0.9,1.7c1.5,2.1,3.9,3.9,6.3,5.5c2.5,1.6,5,3,7.7,4.2
						c5.4,2.5,10.9,4.7,16.6,6.5c11.4,3.6,23.1,6.2,34.8,7c5.9,0.3,11.7,0.4,17.2-0.6c5.5-1,10.8-3.1,13.5-7
						c3.4-4.5,5.8-9.7,7.2-15.1c1.4-5.4,1.9-11.2,0.9-16.6c-0.4-2.7-1.3-5.4-2.5-7.6c-0.3-0.6-0.7-1.1-1-1.6c-0.4-0.5-0.8-1-1.2-1.4
						c-0.8-0.9-1.8-1.7-2.8-2.2c-1-0.5-2.1-0.9-3.2-1c-0.3-0.1-0.6,0-0.8-0.1h-0.4h-0.6l-2.3,0.1l-9.1,0.1
						C80.5,802.7,56.3,802.3,32.1,801.1z M32.1,801.1c24.2-1.7,48.4-2.7,72.5-3.8l9-0.4l2.2-0.1h0.6h0.7c0.4,0,0.9,0,1.4,0
						c1.9,0.2,3.7,0.7,5.4,1.5s3.1,2,4.4,3.3c0.7,0.6,1.2,1.4,1.7,2c0.5,0.8,1,1.4,1.4,2.2c1.7,3,2.8,6.2,3.4,9.4
						c1.3,6.5,0.8,13.1-0.8,19.4c-1.6,6.3-4.4,12.2-8.2,17.5l-0.3,0.5l-0.4,0.5c-0.3,0.3-0.6,0.7-0.9,1c-0.6,0.7-1.3,1.3-2,1.9
						c-1.4,1.1-3,2-4.5,2.8c-1.5,0.8-3.1,1.4-4.8,1.8c-1.6,0.5-3.2,0.8-4.8,1.1c-3.2,0.5-6.4,0.8-9.5,0.8c-3.1,0.1-6.3-0.1-9.4-0.4
						c-6.2-0.6-12.3-1.7-18.3-3.1s-11.9-3.2-17.7-5.4c-5.8-2.1-11.5-4.6-16.9-7.6c-2.7-1.5-5.4-3.1-7.9-5c-1.3-0.9-2.5-2-3.7-3.1
						c-1.2-1.1-2.3-2.4-3.1-3.8c-0.4-0.7-0.8-1.6-1.1-2.3c-0.3-0.8-0.5-1.5-0.8-2.3c-0.3-1.6-0.7-3.1-0.7-4.8s0.1-3.2,0.4-4.8
						c0.3-1.5,0.8-3.1,1.4-4.5C23.4,809.8,27.5,805,32.1,801.1z"/>
				</g>
				<g>
					<path class="st0" d="M35.9,752.1c0,0-55.5,37.9-16.6,64.3c17,11.6,95.1,31.2,110.1-13.9c10.2-30.6-28.2-58.3-56.1-39"/>
					<path class="st1" d="M35.9,752.1c-2.4,2-4.7,3.9-6.9,6c-2.2,2-4.4,4.2-6.5,6.5s-4,4.6-5.8,7c-1.8,2.4-3.5,4.9-4.8,7.6
						c-1.4,2.6-2.6,5.3-3.3,8.1c-0.8,2.8-1.1,5.6-0.8,8.3c0.5,5.5,3.4,10.4,7.6,14.3l1.6,1.4c0.3,0.3,0.5,0.5,0.8,0.7l0.8,0.6
						c1.2,0.8,2.3,1.7,3.6,2.4c2.5,1.4,5.2,2.5,7.9,3.7c5.5,2.1,11.3,3.7,17.2,5.1s11.7,2.4,17.7,3c5.9,0.7,11.9,0.9,17.8,0.7
						c5.9-0.3,11.8-1,17.3-2.5c5.6-1.5,10.9-3.9,15.3-7.4c4.5-3.4,8-7.9,10.2-13.2c1.1-2.6,2-5.4,2.4-8.1s0.4-5.6,0.1-8.3
						c-0.4-2.8-1.1-5.5-2.4-8.1c-1.2-2.5-2.7-5-4.5-7.3c-3.6-4.6-8.3-8.2-13.6-10.7c-5.3-2.5-11.2-3.8-17.2-3.5
						c-3,0.2-5.9,0.7-8.8,1.5c-2.9,0.9-5.6,2.2-8.3,3.7c2.5-1.9,5.1-3.5,8-4.7c2.9-1.2,5.9-2,9-2.5c3.1-0.5,6.3-0.4,9.4,0
						c3.1,0.4,6.3,1.2,9.3,2.3c3,1.2,5.8,2.7,8.4,4.5c2.6,1.8,5.1,4,7.2,6.4c4.3,4.8,7.5,10.9,8.7,17.4c0.6,3.2,0.8,6.6,0.3,9.9
						c-0.4,3.3-1.3,6.5-2.5,9.6c-1.2,3.1-2.8,5.9-4.8,8.7c-2,2.7-4.3,5.1-6.9,7.2c-5.2,4.2-11.3,7-17.4,8.7
						c-6.2,1.8-12.6,2.6-18.9,2.9c-12.7,0.4-25.1-1.2-37.3-4.2c-6-1.5-12.1-3.4-17.8-5.8c-2.9-1.2-5.8-2.5-8.7-4.2
						c-1.4-0.8-2.7-2-4-2.9l-0.9-0.8c-0.3-0.3-0.6-0.5-0.9-0.8l-1.8-1.7l-0.4-0.4l-0.4-0.5l-0.8-0.9l-0.8-0.9
						c-0.3-0.3-0.5-0.6-0.8-1l-1.4-2c-0.3-0.3-0.4-0.7-0.6-1.1l-0.6-1.1c-1.4-3-2.5-6.4-2.5-9.8s0.5-6.6,1.5-9.8l0.8-2.3l1-2.2
						c0.3-0.8,0.8-1.4,1.1-2.1l0.6-1l0.7-1c1.7-2.7,3.6-5.2,5.7-7.5c2-2.4,4.2-4.6,6.5-6.6C25.8,759.2,30.7,755.4,35.9,752.1z"/>
				</g>
				<g>
					<path class="st0" d="M39.2,706.1c0,0-62.9,21.9-31.7,57.8c13.7,15.6,100.2,44.2,116.7,16.7s-20-64.8-51.6-53.5"/>
					<path class="st1" d="M39.2,706.1c-2.9,1.3-5.7,2.6-8.4,4.1s-5.4,3.1-8.1,4.8c-5.2,3.4-10.1,7.2-14.1,11.7
						c-2,2.3-3.7,4.7-5.1,7.3c-1.4,2.6-2.2,5.4-2.4,8.2c-0.2,2.8,0.3,5.6,1.1,8.3c0.6,1.3,1,2.6,1.8,3.9c0.3,0.6,0.7,1.3,1,1.9
						l1.3,1.8l0.6,0.9c0.3,0.3,0.5,0.6,0.7,0.8l1.4,1.7c0.3,0.3,0.5,0.6,0.7,0.8c0.3,0.3,0.4,0.4,0.7,0.7c0.5,0.4,1,0.9,1.6,1.4
						c2.3,1.7,4.8,3.3,7.6,4.8c5.4,2.9,11,5.3,16.7,7.5c11.5,4.3,23.4,7.7,35.5,9.9c6,1.1,12.1,2,18.2,2.3c6,0.3,12.1,0.1,17.8-1.2
						c2.8-0.7,5.5-1.5,7.9-2.9c1.2-0.7,2.3-1.4,3.3-2.3s1.9-1.9,2.5-3c1.4-2.4,2.6-5,3.3-7.7c0.8-2.7,0.9-5.6,0.7-8.4
						c-0.2-2.9-0.8-5.7-1.8-8.5c-1-2.7-2.4-5.4-3.9-7.9c-1.5-2.5-3.5-4.8-5.5-7c-1-1.1-2.1-2.1-3.2-3.1c-1.2-0.9-2.3-2-3.6-2.8
						c-4.9-3.6-10.5-6.1-16.5-7.5c-3-0.6-6-0.9-9.2-0.8c-3.1,0.1-6.2,0.6-9.2,1.4c2.9-1.2,5.9-2,9.1-2.5c3.1-0.3,6.4-0.3,9.5,0.1
						c3.2,0.3,6.3,1.3,9.3,2.3c3.1,1.1,5.9,2.5,8.7,4.2c1.4,0.8,2.7,1.8,4,2.7c1.3,1,2.5,2,3.7,3.1c2.4,2.2,4.6,4.7,6.5,7.3
						c2,2.6,3.6,5.5,4.8,8.7c1.3,3.1,2.1,6.4,2.5,9.7c0.3,3.4,0.3,6.8-0.4,10.2c-0.8,3.4-2,6.5-3.8,9.5c-0.9,1.5-2.1,3-3.5,4.2
						c-1.3,1.3-2.8,2.3-4.2,3.2c-3.1,1.8-6.3,2.9-9.5,3.7c-6.5,1.5-13.1,1.8-19.5,1.5c-6.5-0.3-12.8-1.1-19.1-2.2
						c-6.3-1.2-12.4-2.7-18.5-4.5s-12.1-3.8-18-6.2c-5.9-2.4-11.7-5-17.3-8.2c-2.8-1.6-5.6-3.3-8.2-5.5c-0.7-0.5-1.3-1.1-2-1.8
						c-0.3-0.3-0.6-0.7-0.9-1c-0.3-0.3-0.5-0.7-0.8-1l-1.5-2c-0.3-0.3-0.5-0.7-0.8-1l-0.7-1l-1.4-2.1c-0.4-0.8-0.8-1.5-1.2-2.2
						c-0.8-1.4-1.3-3.1-1.9-4.7c-0.9-3.3-1.3-6.8-0.8-10.2s1.7-6.7,3.4-9.5c1.7-2.9,3.7-5.4,6-7.7c4.7-4.5,10-8.1,15.5-11
						C27.4,710.3,33.1,707.9,39.2,706.1z"/>
				</g>
				<g>
					<path class="st0" d="M52.3,658c0,0-65.9,7.8-42.5,49.7c10.3,18.3,89.3,65,110.8,41.7s-6.6-67.7-39.8-63.5"/>
					<path class="st1" d="M52.3,658c-3.1,0.6-6.1,1.4-9.1,2.2s-5.9,1.8-8.8,2.9c-5.8,2.2-11.4,4.9-16.3,8.5
						c-4.8,3.6-8.8,8.2-10.3,13.8c-0.7,2.7-0.8,5.6-0.3,8.4l0.4,2.1c0.1,0.7,0.4,1.4,0.6,2.1c0.3,1.4,1,2.7,1.5,4.1
						c0.3,0.7,0.6,1.4,1,2l1,2c0.2,0.3,0.3,0.6,0.5,0.8c0.2,0.3,0.4,0.6,0.6,0.8c0.4,0.6,0.8,1.1,1.4,1.6c1.9,2.2,4.2,4.2,6.5,6.2
						c4.7,3.9,9.7,7.5,14.9,10.8c10.4,6.7,21.2,12.6,32.6,17.3c5.7,2.4,11.4,4.5,17.2,6.1c5.9,1.6,11.8,2.7,17.7,2.7
						c2.9,0,5.8-0.3,8.4-1.1c2.6-0.8,4.9-2.1,6.8-3.9c3.8-4.1,6.5-9.3,7.1-15c0.3-2.9,0.3-5.8-0.2-8.7c-0.4-2.9-1.3-5.8-2.3-8.6
						c-1-2.8-2.5-5.4-4-8.1c-0.8-1.3-1.7-2.5-2.5-3.7c-0.9-1.2-1.9-2.4-2.9-3.5c-4.1-4.5-9-8.2-14.6-10.8c-2.8-1.3-5.7-2.2-8.7-2.8
						s-6.2-0.8-9.3-0.6c3.1-0.5,6.3-0.7,9.4-0.4c3.1,0.3,6.3,1.1,9.3,2.1c3.1,1,5.9,2.5,8.7,4.2c2.7,1.7,5.3,3.7,7.6,5.9
						c1.2,1.1,2.3,2.3,3.3,3.5c1,1.3,2,2.5,3,3.8c1.9,2.6,3.6,5.4,4.8,8.5c1.4,3,2.4,6.1,3.1,9.4c0.6,3.3,0.8,6.6,0.6,10
						c-0.3,3.4-1,6.8-2.4,9.9c-1.4,3.1-3.3,6-5.7,8.7c-2.5,2.7-5.8,4.6-9.2,5.7c-3.4,1.1-6.8,1.5-10.1,1.6
						c-6.7,0.1-13.2-1.1-19.5-2.7c-6.2-1.7-12.3-3.8-18.2-6.3c-5.9-2.5-11.6-5.4-17.2-8.3c-5.6-3.1-11-6.3-16.3-9.9
						c-5.3-3.6-10.4-7.4-15.2-11.6c-2.4-2.1-4.8-4.4-6.9-7c-0.5-0.7-1-1.4-1.5-2c-0.3-0.3-0.5-0.7-0.7-1.1c-0.3-0.4-0.4-0.8-0.6-1.2
						l-1.1-2.2c-0.3-0.8-0.8-1.4-1-2.3C5,702.5,4.4,701,4,699.3c-0.2-0.8-0.5-1.6-0.6-2.5l-0.3-2.5c-0.3-3.4-0.1-6.9,0.9-10.2
						c1.1-3.3,2.9-6.3,5.1-8.7c2.2-2.5,4.8-4.7,7.5-6.4c5.5-3.5,11.5-5.9,17.6-7.6C39.9,659.7,46.1,658.5,52.3,658z"/>
				</g>
				<g>
					<path class="st0" d="M115.3,683.3c0,0,18.8,7.2,12.1,36.7c-6.6,29.5-23.9,83.4,3.1,86.3c38.3,4.1,49.3-38,55-57.9
						c3.1-11,21.6-55.6-22.4-78.7"/>
					<path class="st1" d="M115.3,683.3c3.1,1.2,5.8,3.3,8.1,5.8c2.2,2.5,3.9,5.5,5,8.7c1.1,3.2,1.6,6.6,1.8,10
						c0.2,3.4-0.1,6.8-0.6,10.1l-0.4,2.5l-0.5,2.5l-1,4.8l-2,9.7c-1.4,6.5-2.8,12.8-3.9,19.2c-0.6,3.2-1.1,6.5-1.5,9.6
						c-0.4,3.2-0.8,6.4-1,9.6c-0.3,3.2-0.3,6.4-0.1,9.5c0.2,3.1,0.7,6.1,1.6,8.9c0.9,2.7,2.3,5.1,4.2,6.6c0.9,0.8,2.1,1.4,3.3,1.7
						c1.3,0.4,2.5,0.5,4.2,0.7c6.1,0.4,12.2-0.4,17.7-2.9c5.5-2.4,10.3-6.4,14.2-11.1c3.9-4.8,7-10.4,9.7-16.1s4.8-11.9,6.7-18.1
						l1.4-4.7l0.7-2.4c0.3-0.8,0.5-1.6,0.8-2.5c1-3.1,2-6.2,3-9.3c1.8-6.2,3.1-12.5,3.3-18.9c0.3-6.4-0.2-12.7-2.1-18.8
						c-0.9-3.1-2.2-5.9-3.7-8.7c-1.6-2.8-3.5-5.4-5.6-7.8c-2.1-2.5-4.5-4.7-7-6.7c-2.5-2-5.3-3.9-8.1-5.6c6,2.7,11.7,6.3,16.6,11
						c4.8,4.7,8.7,10.4,11.2,16.8c2.5,6.4,3.5,13.2,3.5,20c-0.1,6.8-1.1,13.6-2.7,20.1c-0.8,3.2-1.8,6.5-2.7,9.6
						c-0.3,0.8-0.4,1.5-0.7,2.3l-0.7,2.4l-1.4,4.8c-1.8,6.4-3.9,12.8-6.6,19c-2.7,6.2-6,12.2-10.4,17.7c-4.3,5.4-9.9,10.2-16.6,13.1
						c-6.6,3-13.9,3.8-20.9,3.3c-1.7-0.1-3.7-0.3-5.6-1c-1.9-0.6-3.7-1.5-5.4-2.8s-3-2.8-4-4.5s-1.8-3.4-2.4-5.2
						c-1.1-3.6-1.5-7-1.6-10.5c-0.1-3.5,0-6.9,0.3-10.3c0.6-6.7,1.8-13.3,3.2-19.8s3.1-12.9,4.8-19.3l2.6-9.5l1.3-4.8l0.6-2.4
						l0.5-2.4c0.7-3.1,1.2-6.3,1.3-9.5c0.1-3.1-0.2-6.4-0.9-9.4c-0.8-3.1-2.1-6-4-8.7C120.6,687.1,118.2,684.8,115.3,683.3z"/>
				</g>
			</g>
			<g>
				<path class="st2" d="M870.4,654.8c0,0-133-88.4-189.2-54.4s-100.3,157.4-82.9,180c17.3,22.5,67.9-36.1,83.4-45.6
					c0,0,58.9,74,96.9,78.3C837.3,819.5,870.4,654.8,870.4,654.8z"/>
				
					<linearGradient id="SVGID_2_" gradientUnits="userSpaceOnUse" x1="689.9703" y1="491.7896" x2="884.7122" y2="491.7896" gradientTransform="matrix(1 0 0 -1 0 1216)">
					<stop  offset="0" style="stop-color:#52FFCE"/>
					<stop  offset="0.9948" style="stop-color:#6700E4"/>
				</linearGradient>
				<path class="st4" d="M884.7,678.9c0,0-50.2-59-89.5-64.8c0,0-141.7-10.2-96.2,144.6l78.5,75.7
					C777.4,834.4,873.9,745.8,884.7,678.9z"/>
				<path class="st2" d="M819.1,643.5c0,0,77.1-17.1,77.3,53.7c0.1,63.1,15.4,100.1-7.1,124.9c-30.7,33.6-131.7,32.2-148.3-28.2
					C740.9,793.8,690.9,633.6,819.1,643.5z"/>
				<g>
					<path class="st0" d="M891.6,804.5c0,0,18,15.1,10.2,32.4c-7.8,17.2-88.2,42.1-105.2,19.4c-17.1-22.8-10.3-54.2,6.6-53.4
						C820.1,803.6,891.6,804.5,891.6,804.5z"/>
					<path class="st1" d="M891.6,804.5c2.5,2,4.7,4.3,6.7,6.8c2,2.5,3.7,5.4,4.8,8.3c0.6,1.5,1.1,3.1,1.4,4.8c0.3,1.6,0.4,3.3,0.4,5
						c0,1.7-0.3,3.4-0.7,5c-0.3,0.8-0.4,1.6-0.8,2.4c-0.3,0.8-0.7,1.7-1.1,2.4c-0.9,1.5-2.1,2.8-3.3,4c-1.2,1.2-2.5,2.2-3.8,3.2
						c-2.6,2-5.4,3.7-8.2,5.3c-5.7,3.1-11.6,5.6-17.7,7.9c-6,2.2-12.2,4.1-18.5,5.5c-6.3,1.4-12.7,2.6-19.1,3.2
						c-3.2,0.3-6.5,0.4-9.9,0.4c-3.3-0.1-6.6-0.3-9.9-0.8c-1.7-0.3-3.3-0.7-5-1.2c-1.7-0.5-3.3-1.1-4.9-1.9
						c-1.6-0.8-3.2-1.7-4.7-2.9c-0.8-0.6-1.4-1.2-2.1-2c-0.3-0.3-0.7-0.7-0.9-1.1l-0.4-0.6l-0.3-0.5c-4-5.4-6.9-11.7-8.6-18.3
						c-1.6-6.5-2.1-13.4-0.8-20.2c0.7-3.4,1.8-6.7,3.6-9.9c0.4-0.8,0.9-1.5,1.4-2.3c0.6-0.7,1.1-1.4,1.8-2.1
						c1.3-1.4,2.8-2.5,4.6-3.4c1.7-0.8,3.7-1.4,5.6-1.6c0.5-0.1,0.9,0,1.4,0h0.7h0.6l2.4,0.1l9.4,0.4
						C841,801.7,866.3,802.8,891.6,804.5z M891.6,804.5c-25.4,1-50.7,1.4-76,1.4l-9.5-0.1l-2.4-0.1h-0.6h-0.5c-0.3,0-0.6,0-0.9,0.1
						c-1.2,0.1-2.4,0.5-3.4,1.1c-1.1,0.6-2,1.4-2.9,2.3c-0.4,0.4-0.8,1-1.3,1.5c-0.3,0.6-0.8,1.1-1,1.7c-1.3,2.4-2.1,5.2-2.6,8
						c-1,5.7-0.6,11.7,0.9,17.5c1.5,5.7,4.1,11.1,7.6,15.9c2.9,4.2,8.4,6.5,14.2,7.5c5.9,1.1,12,1,18.1,0.6
						c12.3-0.8,24.5-3.7,36.4-7.4c5.9-1.9,11.7-4.2,17.3-6.8c2.8-1.4,5.5-2.8,8.1-4.5c2.5-1.7,5-3.6,6.6-5.9c0.4-0.6,0.7-1.1,1-1.8
						c0.3-0.7,0.6-1.4,0.8-2c0.4-1.4,0.8-2.9,0.9-4.3c0.2-1.4,0.2-3,0-4.5c-0.2-1.5-0.5-3-0.9-4.5c-0.8-3-2.3-5.8-4-8.4
						C895.8,809.2,893.9,806.8,891.6,804.5z"/>
				</g>
				<g>
					<path class="st0" d="M887.7,753.2c0,0,58.1,39.7,17.3,67.3c-17.8,12.1-99.5,32.6-115.2-14.5c-10.6-32,29.5-61,58.7-40.8"/>
					<path class="st1" d="M887.7,753.2c5.4,3.4,10.5,7.4,15.3,11.7c4.8,4.4,9.2,9.3,12.7,14.8c1.8,2.8,3.3,5.8,4.3,9
						c1.1,3.2,1.7,6.6,1.6,10.2c-0.1,3.5-1,7-2.6,10.2s-3.7,5.9-6.1,8.3c-0.6,0.6-1.2,1.2-1.9,1.8c-0.6,0.6-1.3,1.1-2,1.6
						c-0.7,0.5-1.4,1-2,1.5c-0.7,0.5-1.4,1-2.1,1.4c-3,1.8-5.9,3.1-9,4.4c-6.1,2.5-12.3,4.5-18.7,6c-6.4,1.6-12.7,2.7-19.3,3.5
						s-13.1,1.1-19.7,0.8c-6.6-0.3-13.3-1.2-19.7-3.1s-12.8-4.7-18.2-9.1c-2.7-2.2-5.1-4.7-7.1-7.5c-2-2.8-3.7-5.9-5-9
						c-0.7-1.6-1.2-3.2-1.6-4.9c-0.3-0.8-0.5-1.7-0.6-2.5c-0.2-0.8-0.3-1.7-0.4-2.5c-0.4-3.5-0.3-7,0.3-10.4
						c1.2-6.8,4.5-13.2,9-18.2c2.2-2.5,4.8-4.8,7.6-6.6c2.7-1.9,5.7-3.5,8.8-4.8c3.1-1.2,6.4-2,9.6-2.5c3.3-0.4,6.6-0.5,9.9,0
						c3.2,0.4,6.5,1.3,9.4,2.5c3,1.4,5.8,3,8.3,4.9c-2.8-1.6-5.7-3-8.7-4c-3.1-0.9-6.1-1.4-9.3-1.6c-6.3-0.3-12.5,1-18,3.7
						c-5.5,2.6-10.5,6.5-14.3,11.2c-1.9,2.4-3.5,4.9-4.8,7.6c-1.3,2.7-2,5.6-2.5,8.5c-0.4,2.9-0.4,5.9,0.1,8.7
						c0.5,2.9,1.3,5.7,2.5,8.5c1.2,2.7,2.7,5.3,4.5,7.6c1.8,2.3,3.9,4.4,6.2,6.2c4.7,3.7,10.2,6.1,16.1,7.8c5.9,1.6,12,2.4,18.2,2.6
						c12.4,0.5,25-1,37.2-3.8c6.1-1.4,12.1-3.1,18-5.4c2.9-1.1,5.8-2.4,8.3-3.8c0.7-0.3,1.3-0.7,1.9-1.2c0.6-0.4,1.3-0.8,1.9-1.3
						s1.2-0.9,1.8-1.4c0.6-0.4,1.1-0.9,1.7-1.4c2.2-2,4.1-4.3,5.5-6.8c1.4-2.5,2.3-5.4,2.5-8.2c0.3-2.9-0.1-5.9-0.9-8.7
						c-0.8-2.9-2-5.8-3.5-8.5c-3-5.5-6.9-10.4-11.2-15.2c-2.1-2.4-4.4-4.6-6.7-6.8C892.6,757.3,890.2,755.2,887.7,753.2z"/>
				</g>
				<g>
					<path class="st0" d="M884.3,705c0,0,65.8,22.9,33.1,60.5c-14.3,16.4-104.9,46.3-122.1,17.5c-17.2-28.7,20.8-67.8,54-56.1"/>
					<path class="st1" d="M884.3,705c6.3,2,12.3,4.5,18.2,7.6c5.9,3.1,11.4,6.9,16.2,11.6c2.4,2.4,4.6,5,6.4,8.1
						c1.7,3,3.1,6.4,3.5,9.9c0.3,1.8,0.3,3.6,0.2,5.4c-0.2,1.8-0.5,3.6-1,5.3c-1,3.4-2.6,6.6-4.5,9.5c-0.5,0.8-0.9,1.4-1.4,2.1
						c-0.5,0.7-1,1.4-1.6,2c-0.3,0.3-0.5,0.7-0.8,1c-0.3,0.3-0.6,0.7-0.9,1c-0.7,0.7-1.4,1.3-2,1.8c-2.7,2.3-5.6,4.1-8.6,5.7
						c-5.9,3.3-12,6.1-18.1,8.6c-6.2,2.5-12.5,4.6-18.9,6.5c-6.4,1.9-12.8,3.4-19.4,4.7c-6.5,1.2-13.2,2-20,2.3
						c-6.7,0.3-13.6,0-20.4-1.6c-3.4-0.8-6.8-2-9.9-3.9c-1.6-0.9-3.1-2-4.5-3.3c-1.4-1.3-2.6-2.7-3.6-4.3c-1.9-3.1-3.2-6.5-4-9.9
						c-0.8-3.5-0.8-7.1-0.5-10.6c0.4-3.5,1.3-7,2.6-10.1c1.4-3.2,3.1-6.2,5-9c2-2.8,4.2-5.4,6.8-7.6c1.2-1.2,2.5-2.2,3.9-3.3
						c1.4-1,2.7-2,4.2-2.9c2.9-1.8,5.9-3.3,9.1-4.4c3.1-1.1,6.4-2,9.8-2.5c3.3-0.4,6.7-0.4,9.9-0.1c3.3,0.4,6.5,1.3,9.5,2.5
						c-3.1-0.8-6.4-1.4-9.6-1.5c-3.2-0.1-6.5,0.3-9.6,0.8c-6.3,1.4-12.1,4.1-17.3,7.8c-1.3,0.9-2.5,2-3.7,2.9
						c-1.2,1.1-2.4,2.1-3.4,3.2c-2.1,2.3-4.2,4.8-5.9,7.4c-1.6,2.6-3.1,5.4-4.2,8.3c-1,2.9-1.7,5.9-2,8.9c-0.2,3,0,6,0.8,8.8
						c0.8,2.9,2,5.6,3.5,8.1c0.8,1.2,1.7,2.2,2.7,3.1c1,0.9,2.2,1.8,3.5,2.5c2.5,1.4,5.4,2.4,8.3,3.1c5.9,1.3,12.3,1.5,18.7,1.2
						s12.7-1.2,19-2.4c12.7-2.3,25.1-5.9,37.1-10.4c6-2.3,12-4.8,17.6-7.8c2.8-1.5,5.5-3.1,7.9-5c0.6-0.4,1.2-0.9,1.7-1.4
						c0.3-0.3,0.5-0.5,0.8-0.8c0.3-0.3,0.5-0.6,0.8-0.8c0.5-0.6,1-1.2,1.5-1.8c0.5-0.6,0.9-1.2,1.4-1.9c1.8-2.5,3.2-5.2,4.2-8
						c0.9-2.8,1.4-5.8,1.1-8.7c-0.2-3-1.1-5.9-2.5-8.6c-1.4-2.7-3.2-5.3-5.4-7.6c-4.2-4.8-9.4-8.7-14.9-12.2
						c-2.7-1.8-5.5-3.4-8.4-4.9C890.2,707.7,887.3,706.4,884.3,705z"/>
				</g>
				<g>
					<path class="st0" d="M870.4,654.8c0,0,69,8.2,44.4,52c-10.7,19.1-93.4,67.9-116,43.7c-22.6-24.3,7-70.8,41.7-66.5"/>
					<path class="st1" d="M870.4,654.8c6.5,0.5,13.1,1.8,19.5,3.6c3.2,0.9,6.4,2,9.4,3.3c3.1,1.3,6.1,2.8,8.9,4.7
						c2.9,1.9,5.5,4.1,7.8,6.7c2.3,2.6,4.2,5.8,5.3,9.2c1.1,3.4,1.4,7.1,1,10.6c-0.3,3.6-1.4,7-2.7,10.1c-0.7,1.6-1.4,3.1-2.2,4.7
						c-0.2,0.3-0.4,0.8-0.7,1.2c-0.3,0.4-0.5,0.8-0.8,1.2c-0.5,0.8-1,1.4-1.6,2.1c-2.2,2.7-4.7,5.1-7.2,7.3
						c-5,4.5-10.4,8.5-15.9,12.2c-5.5,3.7-11.2,7.1-17.1,10.4c-5.9,3.1-11.8,6.1-17.9,8.7c-6.1,2.5-12.5,4.8-19,6.6
						c-6.5,1.7-13.3,3-20.3,2.9c-3.5-0.1-7-0.5-10.6-1.7c-3.5-1.1-6.9-3.1-9.5-5.9c-2.5-2.7-4.4-5.7-5.9-9s-2.2-6.9-2.5-10.4
						c-0.3-3.6,0-7,0.6-10.4c0.7-3.4,1.8-6.7,3.1-9.9c1.4-3.1,3.1-6.1,5.1-8.8c0.9-1.4,2-2.7,3.1-4c1.1-1.3,2.2-2.5,3.5-3.7
						c2.5-2.3,5.1-4.5,7.9-6.3c2.9-1.8,5.9-3.4,9-4.5c3.1-1.1,6.5-1.9,9.8-2.2c3.3-0.3,6.6-0.2,9.9,0.4c-3.3-0.2-6.5,0-9.8,0.6
						c-3.1,0.6-6.3,1.6-9.2,3c-5.9,2.7-11,6.5-15.3,11.3c-1.1,1.2-2,2.4-3.1,3.7c-0.9,1.3-1.9,2.5-2.7,3.9c-1.7,2.6-3.1,5.5-4.2,8.4
						c-1.1,2.9-2,5.9-2.5,9c-0.4,3.1-0.5,6.1-0.2,9.1c0.6,6,3.4,11.6,7.5,15.8c2,2,4.4,3.3,7.1,4.2s5.8,1.1,8.8,1.2
						c6.1,0,12.4-1.2,18.5-2.9s12.1-3.9,18.1-6.5c11.9-5,23.3-11.2,34.1-18.2c5.4-3.5,10.7-7.2,15.5-11.4c2.5-2,4.8-4.2,6.7-6.5
						c0.5-0.6,0.9-1.2,1.4-1.7c0.2-0.3,0.4-0.6,0.6-0.8c0.2-0.3,0.3-0.6,0.6-0.9c0.8-1.4,1.5-2.7,2.1-4.2c2.6-5.6,3.8-11.8,2.3-17.5
						c-0.8-2.9-2.2-5.5-4.1-8c-1.9-2.4-4.2-4.6-6.7-6.5c-5.1-3.8-11-6.5-17.1-8.9c-3.1-1.1-6.1-2.1-9.3-3.1
						C876.9,656.2,873.7,655.4,870.4,654.8z"/>
				</g>
				<g>
					<path class="st0" d="M804.6,681.1c0,0-19.6,7.6-12.7,38.4c7,30.8,25,87.3-3.2,90.3c-40.1,4.2-51.6-39.8-57.5-60.6
						c-3.3-11.6-22.6-58.2,23.4-82.4"/>
					<path class="st1" d="M804.6,681.1c-3.1,1.6-5.6,4-7.6,6.7c-2,2.7-3.4,5.9-4.2,9.1c-0.8,3.2-1.1,6.5-1,9.9
						c0.1,3.3,0.6,6.6,1.3,9.9l0.6,2.5l0.7,2.5l1.4,5l2.7,9.9c1.8,6.6,3.5,13.3,4.9,20.1c1.5,6.8,2.7,13.7,3.3,20.7
						c0.3,3.5,0.5,7,0.3,10.7c-0.2,3.7-0.6,7.3-1.7,11c-0.6,1.9-1.4,3.7-2.5,5.4c-1,1.7-2.5,3.4-4.2,4.7c-1.7,1.4-3.6,2.3-5.6,3
						c-2,0.6-4.1,0.8-5.8,1c-7.3,0.6-14.9-0.3-21.7-3.4c-6.9-3.1-12.7-8-17.2-13.7c-4.6-5.7-8.1-12-10.9-18.4
						c-2.8-6.5-5-13.2-6.9-19.9l-1.4-5l-0.7-2.5c-0.3-0.8-0.4-1.6-0.7-2.4c-1-3.2-2-6.6-2.8-10c-1.7-6.8-2.8-13.8-2.8-21
						c0-7.1,1-14.3,3.6-21s6.6-12.7,11.6-17.6c5.1-4.9,11-8.7,17.2-11.5c-3,1.8-5.8,3.7-8.5,5.9c-2.6,2.1-5.2,4.5-7.4,7
						c-2.2,2.5-4.2,5.3-5.9,8.2c-1.7,2.9-3,6-4,9.2c-2,6.4-2.6,13.1-2.3,19.7c0.3,6.6,1.6,13.3,3.5,19.7c0.9,3.2,2,6.5,3.1,9.7
						c0.3,0.8,0.5,1.7,0.8,2.5l0.8,2.5l1.4,4.9c2,6.5,4.2,12.9,7,19s6,11.9,10.1,16.9c4.1,5,9.1,9.2,14.9,11.7
						c5.7,2.6,12.1,3.5,18.6,3c1.7-0.1,3-0.3,4.3-0.7c1.3-0.4,2.5-1,3.6-1.8c2.1-1.6,3.6-4.1,4.5-7c0.9-2.9,1.4-6.1,1.6-9.3
						c0.2-3.2,0.2-6.6-0.1-9.9c-0.3-3.3-0.6-6.7-1.1-10c-0.4-3.4-1-6.7-1.6-10.1c-1.2-6.7-2.6-13.4-4.2-20.1l-2.2-10.1l-1.1-5.1
						l-0.5-2.5l-0.4-2.6c-0.5-3.5-0.8-7-0.7-10.6c0.2-3.6,0.7-7.1,1.9-10.4c1.2-3.4,2.9-6.5,5.3-9.2
						C798.6,684.6,801.4,682.3,804.6,681.1z"/>
				</g>
			</g>
			<g>
				<g>
					<path class="st0" d="M468,979.4c-88.2,0-155-42.9-178.5-114.8c-12.2-37.5-18.6-73.6-18.9-107.4c-0.3-27.2,3.3-52.9,10.7-76.5
						c12.6-40.4,31.6-60.5,32.4-61.2c0.3-0.3,0.7-0.6,1-0.8c1-0.4,14.7-4.5,176.9-8.3c3.2-0.1,6.4-0.1,9.6-0.1
						c68.8,0,117.3,18.3,144.1,54.4c45,60.6,16.6,154.8,5.9,190.2c-1,3.5-2,6.4-2.5,8.7c-12.1,43.7-39.6,75.9-81.5,95.6
						C529.2,976.8,488.7,979.4,468,979.4z"/>
					<path class="st1" d="M501.2,613.4c233.5,0,154.9,210.4,144.2,249.1C618.4,960.2,519.2,976.1,468,976.1
						c-84.8,0-151.8-40.3-175.3-112.5c-53.1-162.7,23.4-241.9,23.4-241.9s9.4-4.2,175.6-8.1C494.9,613.5,498.1,613.4,501.2,613.4
						 M501.2,606.8c-3.2,0-6.4,0-9.7,0.1c-105,2.5-171.6,5.7-178.2,8.6c-0.8,0.3-1.5,0.8-2.1,1.4c-0.8,0.8-20.4,21.4-33.1,62.6
						c-7.5,24-11.1,50.1-10.8,77.5c0.3,34.2,6.8,70.7,19.1,108.5c24,73.4,91.8,117.1,181.7,117.1c21,0,61.9-2.7,100.6-20.7
						c19.6-9.2,36.4-21.3,49.9-36c15.5-17.1,26.8-37.8,33.5-61.7c0.6-2.3,1.5-5.2,2.5-8.7c5.4-17.7,15.3-50.5,18.2-86.2
						c3.6-44.3-4.7-80.3-24.5-106.9C620.6,625.6,571.2,606.8,501.2,606.8L501.2,606.8z"/>
				</g>
				<path class="st1" d="M294.9,753.8c0,0,27.6,147.3,56.6,172.3l220.2-1c0,0,70.2-89,69.6-161.5l-80.8,12c0,0-20,133.9-91.9,122
					c-71.9-12-111.3-139.7-111.3-139.7L294.9,753.8z"/>
				<path class="st1" d="M266.8,753.8c0,0,30.7,72.3,49.3,113.6l86.2,35.2c0,0,66.5-124.5,125.4-102.6c0,0,102.3-20.3,113.9-36.4
					c0,0,23-27.7,31.8-23.8c0,0-5-47.8-12.7-52.7c-7.6-4.9-386.6,24.7-386.6,24.7S264.9,741,266.8,753.8z"/>
				<path class="st2" d="M272,830.4c0,0-29.3,7.4-41.1,38.2c0,0,39.5,27.9,87,76.6c54.7,56.1,191.7,98.1,290.9,30.8
					c57.5-39,63.5-111.9,89.9-115.3L660.6,839c0,0-86.6,135.1-212.5,111.9C298.7,923.3,272,830.4,272,830.4z"/>
				<polygon class="st1" points="644.3,902 666.3,904 673.2,888.4 644.8,877.9 638.8,897.3 				"/>
				<path class="st1" d="M550.3,999.5c0,0-1.4-31.1,6.9-23.4c8.3,7.6,12.3,20.5,12.3,20.5l17.6-11.4l-14.9-43.8l-44.9,21.6l2.2,43.1
					L550.3,999.5z"/>
				<path class="st1" d="M375.6,984.7c0,0,6.2-25.5,17.2-20.8c11,4.8,6.2-10.8,6.2-10.8l-19.3-7l-18.6,25.8L375.6,984.7z"/>
				<path class="st1" d="M268.8,902c0,0,21.7-21.4,27.5-3.6l6.4-9.5l-16.9-21.7l-24.6,22L268.8,902z"/>
				<g>
					<path class="st0" d="M400,939.7l-13.9,71.6c0,0,91.3,38.7,157,3.8l-6.7-68.5L400,939.7z"/>
					<path class="st1" d="M400,939.7l-5.9,36.4l-3,17.8l-3.1,17.7l-1.2-2.2c6.1,2.4,12.6,4.3,18.9,6.3c6.5,1.9,12.9,3.5,19.5,4.9
						c13.1,2.8,26.2,4.8,39.5,5.6c6.6,0.3,13.3,0.4,19.9,0.2c6.6-0.3,13.2-0.9,19.7-2c6.5-1.1,12.9-2.6,19.1-4.6
						c6.2-2,12.2-4.6,18.1-7.6l-1.7,3.2l-3.2-34.3l-3.1-34.3l2.7,2.6c-11.2-0.6-22.4-1.4-33.6-2.1l-16.9-1.1l-17-1.3l-34.1-2.5
						L400,939.7z M400,939.7l33.5,0.8l34.1,0.8l17.2,0.5l17.2,0.6c11.5,0.4,23,0.8,34.6,1.3c1.4,0.1,2.6,1.2,2.7,2.5l0,0l3.7,34.2
						l3.5,34.3l0,0c0.2,1.4-0.6,2.6-1.7,3.2c-6.2,3.1-12.6,5.9-19.1,8.1c-6.6,2-13.3,3.7-20.1,4.8c-6.8,1-13.7,1.7-20.5,2
						c-6.9,0.2-13.7,0-20.5-0.5c-13.6-1.1-27.1-3.2-40.3-6.5c-13.2-3.3-26.2-7.3-38.7-12.7l0,0c-0.8-0.3-1.4-1.3-1.1-2.2l3.9-18.1
						l4-17.9L400,939.7z"/>
				</g>
				<path class="st1" d="M408.1,956c0,0,53.8,71,97.3,11.6L408.1,956z"/>
				<g>
					<path class="st0" d="M303.7,874.2c0,0-16.6,28.9-29,51.6c0,0,59.1,53.3,79,59.4l35.2-52.7L303.7,874.2z"/>
					<path class="st1" d="M303.7,874.2c-2.2,4.4-4.4,8.8-6.7,13.3l-3.4,6.6l-3.4,6.5l-13.7,26.2l-0.4-2.7
						c6.3,5.4,12.6,10.6,18.9,15.9c6.4,5.2,12.7,10.4,19.3,15.5c6.5,5,13,10,19.7,14.7c3.3,2.4,6.7,4.6,10.2,6.7
						c1.7,1,3.5,2,5.2,2.9c1.7,0.8,3.5,1.7,5.1,2.2l-3.7,1.4l17.7-26.3l17.8-26.2l0.8,4c-6.9-4.8-13.8-9.8-20.6-14.7
						c-6.9-4.9-13.8-9.9-20.6-14.9L303.7,874.2z M303.7,874.2l21.2,13.5l21.6,13.8c7.2,4.7,14.6,9.3,21.9,14.1s14.6,9.5,21.9,14.4
						c1.3,0.8,1.6,2.6,0.8,3.9v0.1l-17.3,26.5L356.3,987l0,0c-0.8,1.3-2.4,1.8-3.7,1.4c-2.3-0.7-4.3-1.6-6.3-2.6c-2-1-3.8-2-5.6-3.2
						c-3.7-2.2-7-4.6-10.5-7c-6.8-4.8-13.4-9.9-19.8-15.2c-6.5-5.3-12.7-10.6-18.9-16.1c-6.2-5.5-12.3-11-18.4-16.7l-0.1-0.1
						c-0.8-0.7-0.8-1.8-0.3-2.6l7.6-12.7c2.5-4.2,5.1-8.5,7.6-12.7l3.9-6.3l3.9-6.3C298.4,882.5,301,878.4,303.7,874.2z"/>
				</g>
				<g>
					<path class="st0" d="M305,867.3c0,0-51.5,23.8-61.1,29.6c6.6,7.6-24.6-44.4-29.2-42c-4.2,2.2,24.8-24.5,57.2-24.5L305,867.3z"
						/>
					<path class="st1" d="M305.4,867.4c-0.2,0.2-0.3,0.3-0.6,0.5l-0.5,0.3l-0.9,0.6c-0.6,0.4-1.2,0.8-1.8,1.1
						c-1.2,0.8-2.5,1.4-3.7,2.2c-2.5,1.4-4.9,2.8-7.4,4.2c-4.9,2.7-9.9,5.4-14.9,8c-5,2.5-10.1,5.1-15.2,7.5
						c-5.1,2.4-10.4,4.6-15.3,6.9l0.5-3.1l0.3,0.3c0.1,0.1,0.2,0.2,0.1,0.1c0,0-0.1-0.1-0.2-0.1c0,0-0.2-0.1-0.3-0.1
						c0,0-0.2-0.1-0.3-0.1c-0.2,0-0.3,0-0.5,0c-0.3,0.1-0.7,0.2-0.8,0.4c-0.3,0.2-0.3,0.3-0.5,0.6c-0.2,0.3-0.2,0.4-0.2,0.4
						c0,0.1,0,0.2,0,0.3c0,0.3,0,0.3,0,0.3c0,0.2,0,0,0-0.1c-0.1-0.4-0.3-1-0.6-1.5c-0.4-1.1-0.9-2.2-1.5-3.3
						c-1.1-2.2-2.2-4.4-3.4-6.5c-2.4-4.3-5-8.5-7.8-12.6c-2.8-4.1-5.8-8-9-11.6c-0.8-0.9-1.6-1.8-2.5-2.6c-0.8-0.8-1.7-1.6-2.5-2.2
						c-0.2-0.2-0.4-0.3-0.5-0.3c-0.1-0.1-0.3,0,0.1,0c0.1,0,0.2,0,0.3,0c0.1,0,0.2,0,0.3-0.1c0,0,0.1-0.1,0.1,0l-0.1,0.1
						c-0.2,0.1-0.3,0.2-0.7,0.3c-0.1,0-0.3,0.1-0.5,0.1s-0.4,0-0.7-0.1c-0.2,0-0.8-0.3-1.1-0.7c-0.3-0.3-0.5-0.9-0.5-1.3
						c0-0.3,0-0.4,0-0.7c0-0.1,0.1-0.2,0.1-0.3s0.1-0.2,0.1-0.2c0.2-0.4,0.3-0.5,0.3-0.6l0.3-0.3c0.2-0.2,0.3-0.3,0.3-0.4
						c0.9-1.1,1.9-2,2.8-2.8c1.9-1.7,3.9-3.3,5.9-4.8c2-1.5,4.2-3,6.3-4.2c4.3-2.7,8.8-5.1,13.5-7.1c4.7-2,9.5-3.8,14.6-4.9
						c5-1.1,10.3-1.8,15.5-1.6h0.2c0.9,0,1.8,0.4,2.4,1.1c2.9,3.3,5.6,6.7,8.3,10c2.7,3.4,5.4,6.7,8,10.1l3.8,4.9l3.7,4.8
						L305.4,867.4z M304.7,867.3l-9.5-9.2l-9-8.7c-2.9-2.8-5.8-5.6-8.6-8.4c-2.7-2.8-5.5-5.6-8.2-8.4l2.5,1.1
						c-4.7,0.2-9.3,0.8-13.9,1.8c-4.6,1-9.2,2.5-13.6,4.2c-8.9,3.5-17.4,8.3-25.2,13.8c-0.9,0.7-2,1.4-2.7,2.1l-0.3,0.3l-0.1,0.1
						c0,0,0,0,0.1-0.3l0.1-0.2c0-0.1,0-0.2,0.1-0.3c0.1-0.2,0.1-0.4,0-0.6c0-0.3-0.2-0.9-0.5-1.2c-0.3-0.3-0.9-0.7-1-0.7
						c-0.2-0.1-0.5-0.1-0.6-0.1c-0.2,0-0.3,0.1-0.4,0.1c-0.3,0.1-0.2,0.1-0.3,0.1l0,0l0.2-0.1c0.2-0.1,0.3-0.1,0.4-0.2
						c0.3-0.1,0.6-0.1,0.8-0.1c0.9,0.1,1.4,0.3,1.8,0.6c0.4,0.3,0.7,0.5,1,0.8c1.1,0.9,2,2,2.8,3c0.8,1,1.5,2,2.3,3.1
						c1.4,2,2.9,4.2,4.2,6.2c1.4,2,2.7,4.2,4.1,6.3c2.7,4.2,5.4,8.3,8.2,12.5c1.4,2,2.7,4.2,4.1,6.2c0.7,1,1.4,2.1,2,3.2
						c0.3,0.6,0.7,1.1,0.9,1.8c0.1,0.2,0.2,0.3,0.3,0.8c0,0.1,0.1,0.3,0,0.6c0,0.1,0,0.3-0.1,0.3c0,0.1,0,0.3-0.2,0.5
						c-0.2,0.3-0.3,0.4-0.5,0.6c-0.3,0.3-0.6,0.4-0.9,0.4c-0.3,0.1-0.4,0-0.6,0c-0.2,0-0.4-0.1-0.4-0.1c-0.2,0-0.3-0.2-0.4-0.2
						c-0.2-0.1-0.3-0.2-0.3-0.3c-0.3-0.3-0.4-0.3-0.6-0.5l-0.4-0.4c-0.8-0.8-0.8-2,0-2.7c0.1-0.1,0.2-0.2,0.3-0.3l0.3-0.2
						c2.5-1.6,4.8-3.1,7.4-4.6c2.5-1.4,4.9-2.8,7.5-4.1c5-2.5,10.2-4.9,15.4-7.2s10.4-4.4,15.7-6.5c2.6-1,5.3-2,8-3
						c1.4-0.5,2.7-0.9,4-1.4c0.7-0.3,1.4-0.4,2-0.7l1-0.3l0.3-0.1c0.1,0,0.2-0.1,0.2-0.1C304.4,867.2,304.5,867.3,304.7,867.3z"/>
				</g>
				<g>
					<path class="st0" d="M635.3,881.5c0,0,16.6,28.9,29,51.6c0,0-59.1,53.3-79,59.4l-35.2-52.7L635.3,881.5z"/>
					<path class="st1" d="M635.3,881.5c2.7,4.2,5.4,8.3,8,12.5l3.9,6.3l3.9,6.3c2.5,4.2,5.2,8.4,7.6,12.7l7.6,12.7
						c0.5,0.8,0.3,2-0.3,2.6l-0.1,0.1c-6,5.7-12.2,11.2-18.4,16.7c-6.2,5.5-12.6,10.9-18.9,16.1s-13,10.4-19.8,15.2
						c-3.4,2.5-6.9,4.8-10.5,7c-1.8,1.1-3.7,2.2-5.6,3.2c-2,1-4,2-6.3,2.6c-1.4,0.4-2.9-0.2-3.7-1.4l0,0l-17.5-26.4l-17.3-26.5v-0.1
						c-0.8-1.3-0.5-3.1,0.8-3.9c7.3-4.9,14.6-9.7,21.9-14.4c7.3-4.8,14.6-9.4,21.9-14.1L614,895L635.3,881.5z M635.3,881.5
						l-42.2,30.9c-6.9,5-13.8,10.1-20.6,14.9c-6.9,4.9-13.7,9.9-20.6,14.7l0.8-4l17.8,26.2l17.7,26.3l-3.7-1.4
						c1.6-0.5,3.4-1.4,5.1-2.2c1.8-0.8,3.5-1.9,5.2-2.9c3.5-2,6.8-4.3,10.2-6.7c6.7-4.7,13.2-9.7,19.7-14.7
						c6.5-5,12.9-10.3,19.3-15.5s12.7-10.5,18.9-15.9l-0.4,2.7l-13.7-26.2l-3.4-6.5l-3.4-6.6C639.8,890.3,637.5,885.9,635.3,881.5z"
						/>
				</g>
				<g>
					<path class="st0" d="M625.3,882.4c0,0,55.3,11.2,65.8,14.5c-4.8,8.9,14.4-49,19.5-47.7c4.5,1.2-21.5-18.1-53.1-10.5
						L625.3,882.4z"/>
					<path class="st1" d="M625.7,882.3c0.2-0.1,0.3-0.2,0.3-0.2c0,0,0.1,0,0.2,0h0.3l1,0.1c0.7,0.1,1.4,0.1,2.1,0.2
						c1.4,0.1,2.8,0.3,4.2,0.4c2.8,0.3,5.6,0.7,8.4,1c5.6,0.8,11.1,1.6,16.6,2.7c5.5,1,11,2.1,16.6,3.5c2.7,0.7,5.4,1.4,8.2,2.2
						c2.7,0.8,5.4,1.7,8.2,2.7l0.3,0.1c1,0.3,1.5,1.5,1.1,2.5c-0.1,0.1-0.1,0.3-0.2,0.3c-0.2,0.3-0.3,0.6-0.7,1l-0.2,0.2l-0.2,0.2
						l-0.1,0.1c-0.1,0.1-0.1,0.1-0.2,0.2c-0.1,0-0.1,0.1-0.2,0.1c0,0-0.3,0.2-0.4,0.2c-0.2,0.1-0.3,0.1-0.6,0.1s-0.7-0.1-0.9-0.3
						c-0.3-0.2-0.4-0.3-0.6-0.5c-0.2-0.3-0.3-0.4-0.3-0.4c-0.1-0.2-0.2-0.4-0.2-0.5s0-0.2,0-0.3v-0.2c0-0.2,0-0.2,0-0.3
						c0-0.2,0-0.3,0.1-0.3c0.2-0.8,0.3-1.4,0.5-2c0.3-1.2,0.8-2.3,1.2-3.4c0.8-2.2,1.7-4.4,2.5-6.5c1.7-4.3,3.3-8.7,4.9-13.1
						l2.5-6.5l1.3-3.3l1.3-3.3c0.8-2.2,1.8-4.3,2.8-6.5c0.5-1.1,1.1-2.2,2-3.3c0.2-0.3,0.4-0.6,0.8-0.8s0.7-0.6,1.4-0.9
						c0.3-0.2,0.8-0.3,1.4-0.3h0.3h0.1l0,0l0,0c0,0-0.1,0-0.3,0c-0.2,0-0.3,0-0.8,0.2c-0.1,0.1-0.2,0.1-0.3,0.3
						c-0.2,0.1-0.3,0.3-0.4,0.4c-0.3,0.3-0.3,0.8-0.3,1c0,0.6,0.1,0.8,0.2,0.9c0.1,0.1,0.1,0.2,0.1,0.3c0.1,0.2,0,0.1,0,0.1
						c-0.3-0.2-0.7-0.5-1.1-0.8c-0.4-0.3-0.9-0.5-1.4-0.8c-0.9-0.5-2-1-3-1.4c-2-0.9-4.1-1.7-6.2-2.5c-4.2-1.4-8.6-2.6-12.9-3.3
						c-4.4-0.7-8.8-0.9-13.2-0.8c-4.4,0.1-8.7,0.6-13.1,1.5l2-1.3c-2.6,3.4-5.4,6.7-8,10.1c-2.7,3.3-5.5,6.7-8.4,10.1l-8.9,10.4
						C631.9,874.8,628.8,878.4,625.7,882.3z M625.1,882.5l14-22.3c2.5-3.9,5-7.8,7.6-11.8c2.6-3.9,5.3-7.9,8.1-11.8
						c0.4-0.7,1.1-1.1,1.8-1.3h0.2c4.8-1.3,9.7-2,14.5-2c4.9-0.1,9.8,0.5,14.5,1.4c4.8,1,9.4,2.5,13.8,4.4c2.2,0.9,4.4,2,6.5,3.3
						c1,0.6,2.1,1.3,3.1,2c0.5,0.3,1,0.8,1.5,1.1c0.5,0.4,1,0.8,1.5,1.4c0.2,0.2,0.3,0.3,0.5,0.7c0.1,0.1,0.2,0.3,0.3,0.4
						c0.1,0.3,0.2,0.4,0.2,1.1c0,0.3-0.2,0.8-0.4,1.1c-0.1,0.2-0.3,0.3-0.4,0.4c-0.2,0.1-0.3,0.2-0.4,0.3c-0.5,0.3-0.8,0.3-0.9,0.3
						c-0.3,0-0.6,0-0.7-0.1l-0.3-0.1c0,0-0.1,0,0,0h0.1h0.1c0.3,0,0.5-0.1,0.6-0.1c0.2-0.1,0-0.1-0.1,0.1c-0.2,0.1-0.3,0.3-0.4,0.4
						c-0.7,0.7-1.3,1.6-1.9,2.5c-1.2,1.9-2.3,3.9-3.4,5.9c-1,2-2,4.2-3,6.3s-1.8,4.2-2.6,6.5c-1.7,4.3-3.1,8.7-4.5,13.2
						c-0.7,2.2-1.2,4.5-1.8,6.7c-0.3,1.1-0.5,2.2-0.7,3.3c-0.1,0.5-0.2,1.1-0.2,1.5c0,0.1,0,0.1,0,0.1s0,0,0-0.1v-0.1
						c0-0.1,0-0.1,0-0.2v-0.2c0-0.1-0.1-0.2-0.1-0.3c0,0-0.1-0.2-0.3-0.4c-0.2-0.2-0.3-0.3-0.6-0.4c-0.3-0.2-0.6-0.3-0.9-0.3
						c-0.3,0-0.3,0-0.5,0.1c-0.2,0-0.3,0.2-0.3,0.2c-0.1,0-0.1,0.1-0.2,0.1c-0.1,0-0.1,0.1-0.2,0.1h-0.1l-0.1,0.1l0,0
						c0,0,0.2-0.3,0.3-0.5l1.2,3c-5.4-1.1-11-2-16.4-3.1c-5.5-1.2-11-2.5-16.4-3.7c-5.4-1.4-10.9-2.8-16.3-4.2
						c-2.7-0.8-5.4-1.5-8.1-2.4c-1.4-0.4-2.7-0.8-4.1-1.3c-0.7-0.3-1.4-0.4-2-0.7l-1-0.3l-0.6-0.2
						C625.5,882.8,625.2,882.6,625.1,882.5z"/>
				</g>
				<g>
					<path class="st1" d="M271.6,809.4c0,0,53.8,121.3,217.6,119.5c53.1-0.6,105.7-17.7,174.5-110.4c0,0-18.1,153.6-175.1,158.8
						C419.8,979.7,259.7,910.5,271.6,809.4z"/>
					<path class="st1" d="M271.6,809c0.2-0.1,0.4,0.3,0.4,0.3l0.1,0.1l0.1,0.2l0.2,0.4l0.4,0.8l0.8,1.6c0.6,1.1,1.2,2.1,1.9,3.2
						c1.3,2.1,2.6,4.2,3.9,6.3c2.7,4.2,5.6,8.2,8.6,12.1c5.9,7.9,12.6,15.3,19.5,22.3c13.9,13.9,29.6,26.1,46.5,36
						c16.9,9.9,35.2,17.6,54,23c9.4,2.7,19,4.8,28.7,6.5c9.7,1.7,19.5,2.7,29.3,3.5c19.6,1.3,39.5,1.4,58.7-2.2
						c19.3-3.6,37.7-11.2,54.4-21.7c8.3-5.3,16.3-11.1,23.9-17.6c7.6-6.4,14.8-13.2,21.6-20.4c6.8-7.1,13.4-14.6,19.7-22.3
						c6.3-7.6,12.3-15.5,18.1-23.5c0.4-0.6,1.4-0.8,2-0.3c0.4,0.3,0.6,0.8,0.6,1.3c-0.8,5.9-1.9,11.6-3.2,17.3s-3,11.4-4.8,17
						c-3.6,11.2-8.1,22.1-13.5,32.6c-5.4,10.5-11.7,20.6-18.9,29.9c-7.2,9.3-15.5,17.9-24.6,25.6c-4.5,3.8-9.3,7.4-14.3,10.6
						c-4.9,3.2-10,6.4-15.4,9c-5.3,2.7-10.7,5.2-16.2,7.3c-5.5,2.1-11.2,4-16.9,5.6c-5.7,1.5-11.5,3-17.3,3.9
						c-2.9,0.6-5.9,0.9-8.7,1.4c-1.4,0.3-3,0.3-4.4,0.5c-1.4,0.2-3,0.3-4.4,0.5c-3,0.3-5.9,0.5-8.8,0.7l-4.4,0.3
						c-1.5,0.1-3.1,0.1-4.5,0.1c-6,0-12-0.5-17.8-1.3s-11.7-1.8-17.5-3.1s-11.5-2.7-17.2-4.3c-11.3-3.2-22.4-7.2-33.4-11.6
						c-10.9-4.5-21.5-9.6-31.9-15.2c-10.4-5.6-20.4-11.9-29.9-18.8c-9.6-6.9-18.7-14.4-27.1-22.7c-8.3-8.3-16.1-17.4-22.3-27.3
						c-3.1-5-6-10.2-8.4-15.5c-2.4-5.4-4.3-11-5.8-16.7c-1.4-5.7-2.3-11.6-2.6-17.4c-0.2-3-0.2-5.9,0-8.8c0.1-1.4,0.2-2.9,0.3-4.4
						l0.3-2.2C271,810.7,271.4,809.8,271.6,809z M271.6,809.7c0,0.8,0.2,1.4,0.1,1.9l-0.1,2.1c-0.1,1.4-0.1,2.9-0.1,4.3
						c0,2.9,0.2,5.8,0.4,8.7c0.6,5.8,1.7,11.5,3.3,17c1.6,5.5,3.7,10.9,6.3,16.1c2.5,5.2,5.4,10.1,8.7,14.9
						c6.5,9.5,14.2,18.2,22.6,26c8.4,7.9,17.5,15,27,21.6c19,13,39.7,23.7,61.2,32.2c21.4,8.6,43.7,15,66.4,18.2
						c5.7,0.8,11.4,1.2,17,1.3c1.4,0,2.8,0,4.2-0.1l4.3-0.2c2.9-0.1,5.7-0.4,8.6-0.6c1.4-0.1,2.9-0.3,4.2-0.4
						c1.4-0.2,2.9-0.3,4.2-0.5c2.8-0.4,5.7-0.8,8.5-1.3c5.7-0.9,11.2-2.2,16.8-3.7c5.5-1.4,11-3.2,16.3-5.3c5.4-2,10.6-4.3,15.7-6.9
						c10.2-5.2,19.9-11.4,28.7-18.6c8.8-7.2,16.9-15.5,24.2-24.4c7.2-8.9,13.6-18.5,19.1-28.6c5.5-10.1,10.2-20.7,14.1-31.6
						c2-5.4,3.7-11,5.1-16.6c1.4-5.6,2.7-11.3,3.6-16.9l2.5,1c-3.1,3.9-6,7.9-9.2,11.7c-1.5,2-3.1,3.9-4.7,5.9l-4.8,5.8
						c-6.5,7.6-13,15-20,22.3c-7,7.1-14.1,14.1-21.7,20.6c-1.9,1.6-3.8,3.2-5.8,4.8L593,895c-2,1.4-4,3-6,4.4
						c-2,1.4-4.1,2.9-6.2,4.2c-8.3,5.4-17.1,10.4-26.3,14.4l-3.5,1.4c-1.2,0.5-2.4,0.9-3.5,1.4c-2.3,0.9-4.8,1.7-7.1,2.5
						c-4.8,1.5-9.7,2.9-14.5,4c-9.9,2.2-19.9,3.4-29.9,3.9s-20,0.4-30.1-0.2c-20-1.2-40-4.4-59.3-10.2c-19.3-5.7-37.9-13.8-55-24.3
						c-17.2-10.5-32.8-23.3-46.5-38c-6.9-7.3-13.1-15.1-18.9-23.4c-2.8-4.1-5.5-8.3-8.1-12.7c-1.3-2.1-2.5-4.3-3.6-6.5
						c-0.6-1.1-1.1-2.2-1.7-3.3l-0.8-1.7l-0.4-0.8l-0.2-0.4l-0.1-0.3l-0.1-0.1C271.3,809.6,271.6,809.9,271.6,809.7z"/>
				</g>
				<g>
					<path class="st0" d="M271.6,809.4c0,0,53.8,121.3,217.6,119.5c53.1-0.6,105.7-17.7,174.5-110.4c0,0-13.3,140.7-170.3,145.9
						C424.5,966.8,273.3,916.9,271.6,809.4z"/>
					<path class="st1" d="M271.6,809c0.2-0.1,0.5,0.3,0.4,0.3l0.1,0.1l0.1,0.2l0.2,0.4l0.4,0.8l0.8,1.6c0.6,1.1,1.2,2.1,1.9,3.2
						c1.3,2.1,2.6,4.2,3.9,6.3c2.7,4.2,5.6,8.2,8.6,12.1c5.9,7.9,12.6,15.3,19.5,22.3c13.9,13.9,29.6,26.1,46.5,36
						c16.9,9.9,35.2,17.6,54,23c9.4,2.7,19,4.8,28.7,6.5c9.7,1.7,19.5,2.7,29.3,3.5c19.6,1.3,39.5,1.4,58.7-2.2
						c19.3-3.6,37.7-11.2,54.4-21.7c8.3-5.3,16.3-11.1,23.9-17.6c7.6-6.4,14.8-13.2,21.6-20.4c6.8-7.1,13.4-14.6,19.7-22.3
						c6.3-7.6,12.3-15.5,18.1-23.5c0.4-0.6,1.4-0.8,2-0.3c0.4,0.3,0.6,0.8,0.6,1.3c-0.6,5.8-1.7,11.3-3,16.9
						c-1.3,5.5-2.9,11-4.7,16.5c-3.6,10.8-8.2,21.3-13.7,31.3c-5.5,10-12.1,19.5-19.6,28.1c-7.6,8.7-16.1,16.5-25.4,23.3
						c-9.3,6.8-19.4,12.5-29.9,17.1c-5.3,2.3-10.6,4.3-16.1,6.1c-1.4,0.4-2.7,0.8-4.1,1.3l-2,0.6l-2,0.6l-4.2,1.1l-4.2,1
						c-1.4,0.3-2.8,0.6-4.2,0.9c-1.4,0.3-2.8,0.6-4.2,0.8c-2.8,0.4-5.6,1-8.5,1.4l-4.2,0.6l-4.2,0.5c-2.8,0.3-5.7,0.5-8.6,0.8
						c-2.9,0.3-5.7,0.3-8.6,0.4c-2.9,0.1-5.8,0.1-8.7,0c-5.8-0.2-11.5-0.5-17.2-1.2c-11.4-1.2-22.7-3.3-33.7-5.9
						c-11.1-2.6-22-5.9-32.8-9.7c-21.4-7.7-42.2-17.6-61.2-30.2c-9.5-6.3-18.6-13.3-26.8-21.2c-8.3-7.8-15.9-16.5-22.3-26
						c-3.1-4.8-6-9.7-8.6-14.9c-2.5-5.2-4.6-10.4-6.3-15.9c-1.7-5.4-3-11-3.7-16.6l-0.3-2.1l-0.3-2.1c-0.2-1.4-0.3-2.8-0.3-4.2
						l-0.1-2.1c0-0.7-0.1-1.4-0.1-2.2C271.3,812,271.5,810.5,271.6,809z M271.6,809.7c0.2,1.4,0.4,2.7,0.5,4c0,0.6,0.1,1.4,0.2,2
						l0.3,2.1c0.1,1.4,0.3,2.8,0.6,4.2l0.3,2l0.4,2c1,5.5,2.5,11,4.4,16.2c3.8,10.5,9.2,20.4,15.6,29.5c6.5,9.1,14.1,17.2,22.4,24.6
						s17.3,14,26.8,20c18.9,11.9,39.3,21.2,60.5,28.5c21.1,7.2,43,12.4,65.1,14.9c5.5,0.6,11,1,16.6,1.1c2.8,0.1,5.5,0.1,8.2,0
						c2.8-0.2,5.5-0.3,8.3-0.4c2.8-0.2,5.5-0.3,8.3-0.7l4.2-0.4l4.2-0.5c2.8-0.3,5.5-0.8,8.2-1.3c1.4-0.3,2.7-0.5,4.1-0.8
						c1.4-0.3,2.7-0.5,4.1-0.8l4.1-0.9l4-1l2-0.5l2-0.6c1.4-0.4,2.6-0.8,4-1.2c5.3-1.7,10.4-3.6,15.5-5.8c10.2-4.3,20-9.7,28.9-16.1
						c18.1-12.7,33.2-29.6,44.5-48.8c5.7-9.6,10.4-19.7,14.2-30.2c1.9-5.3,3.6-10.6,4.9-16.1c1.4-5.4,2.5-11,3.3-16.4l2.5,0.9
						c-3.1,3.9-6,7.9-9.2,11.7c-1.5,2-3.1,3.9-4.7,5.9l-4.8,5.8c-6.5,7.6-13,15-20,22.3c-7,7.1-14.1,14.1-21.7,20.6
						c-1.9,1.6-3.8,3.2-5.8,4.8l-5.9,4.7c-2,1.4-4,3-6,4.4c-2,1.4-4.1,2.9-6.2,4.2c-8.3,5.4-17.1,10.4-26.3,14.4l-3.5,1.4
						c-1.2,0.5-2.4,0.9-3.5,1.4c-2.3,0.9-4.8,1.7-7.1,2.5c-4.8,1.5-9.7,2.9-14.5,4c-9.9,2.2-19.9,3.4-29.9,3.9
						c-10,0.5-20,0.4-30.1-0.2c-20-1.2-40-4.4-59.3-10.2c-19.3-5.7-37.9-13.8-55-24.3c-17.2-10.5-32.8-23.3-46.5-38
						c-6.9-7.3-13.1-15.1-18.9-23.4c-2.8-4.1-5.5-8.3-8.1-12.7c-1.3-2.1-2.5-4.3-3.6-6.5c-0.6-1.1-1.1-2.2-1.7-3.3l-0.8-1.7
						l-0.4-0.8l-0.2-0.4l-0.1-0.3l-0.1-0.1C271.2,809.6,271.6,809.9,271.6,809.7z"/>
				</g>
				<g>
					<path class="st1" d="M271.6,814.9c1.9,4.8,4.1,9.3,6.5,13.8c2.4,4.5,5,8.8,7.7,13.1c5.5,8.5,11.6,16.6,18.3,24.2
						c13.3,15.2,28.9,28.5,46,39.1c17.2,10.7,35.8,18.9,55.1,24.4c19.4,5.5,39.4,8.7,59.5,9.7c2.5,0.2,5,0.2,7.6,0.3
						c2.5,0.1,5,0.1,7.6,0.1c5,0,10.1-0.1,15.1-0.4c5-0.3,10-0.8,14.9-1.6c4.9-0.7,9.9-1.7,14.8-2.8c19.5-4.5,38.1-12.5,55.1-23
						c17-10.6,32.4-23.8,46.2-38.5c7-7.3,13.5-15,19.7-23c6.3-8,12.1-16.2,17.8-24.6c-10,17.7-21.4,34.7-34.9,50
						c-13.4,15.4-28.9,29.2-46.2,40.3c-8.7,5.5-17.8,10.4-27.3,14.3c-1.2,0.5-2.4,1-3.6,1.4l-3.6,1.4l-3.7,1.3l-1.8,0.6l-1.9,0.6
						l-3.7,1.1l-3.7,1l-1.9,0.5l-1.9,0.4l-3.7,0.8c-5,1-10.1,2-15.2,2.6c-5.1,0.6-10.2,1.1-15.4,1.3c-10.3,0.3-20.5,0.3-30.7-0.3
						c-20.4-1.2-40.7-4.5-60.2-10.4c-19.5-5.9-38.4-14.4-55.5-25.5c-17.2-11-32.6-24.7-45.8-40.3c-6.5-7.7-12.6-16-17.9-24.6
						c-2.6-4.3-5.2-8.7-7.5-13.3C275.5,824.3,273.3,819.7,271.6,814.9z"/>
				</g>
				<path class="st1" d="M357.4,897.3l1.9,15c0,0,23.4,30.7,39.6,43.5c0,0,58.8,29.3,128.3,7.1l28.4-36l3.2-18.7
					C558.9,908.3,475.2,964.6,357.4,897.3z"/>
				<g>
					
						<linearGradient id="SVGID_3_" gradientUnits="userSpaceOnUse" x1="280.3271" y1="398.5457" x2="659.8347" y2="398.5457" gradientTransform="matrix(1 0 0 -1 0 1216)">
						<stop  offset="0" style="stop-color:#52FFCE"/>
						<stop  offset="0.9948" style="stop-color:#6700E4"/>
					</linearGradient>
					<path class="st5" d="M463.9,963.3c-25.8,0-52.1-12.7-75.9-36.7c-16.3-16.5-26.2-32.7-28-35.8c-9.4-8.2-25.3-40.7-47.1-96.7
						c-16.5-42.1-30.5-82.7-30.7-83.1c-0.3-0.9-0.3-1.9,0.3-2.7c0.4-0.8,1.3-1.4,2.1-1.6l76.4-18.1c0.3-0.1,0.5-0.1,0.8-0.1
						c0.7,0,1.4,0.2,1.9,0.6c0.8,0.5,1.3,1.4,1.4,2.4c13.4,110.9,72.6,135.6,73.2,135.8c10.6,4,20.8,5.9,30.3,5.9l0,0
						c19,0,35.8-8.2,50.1-24.1c11.6-13.1,21.6-31.3,29.6-54.4c13.8-39.5,16.9-79.7,16.9-80.1c0.2-1.8,1.6-3.1,3.3-3.1l93.4,1.5
						c0.9,0,1.8,0.4,2.5,1.1c0.6,0.7,0.9,1.6,0.8,2.5c-7.6,70.5-36.1,129.1-58.7,165.9c-23.6,38.4-46,61.7-47.7,63.5
						C528,944.1,496,963.3,463.9,963.3L463.9,963.3z"/>
					<path class="st1" d="M568.5,675l93.4,1.5c-14.4,135.3-105.7,227.6-105.7,227.6c-33.7,41.4-65.1,55.8-92.4,55.8
						c-60.9,0-101.4-71.3-101.4-71.3C341,871.7,285.1,710,285.1,710l76.4-18.1c13.8,114.2,75.3,138.5,75.3,138.5
						c11.5,4.3,22,6.2,31.6,6.2C556.3,836.6,568.5,675,568.5,675 M568.5,668.3c-3.5,0-6.4,2.7-6.6,6.2l0,0l0,0l0,0
						c0,0.5-3.2,40.3-16.8,79.3c-7.8,22.6-17.6,40.4-28.9,53.2c-13.6,15.2-29.6,22.9-47.6,22.9c-9.1,0-18.9-2-29.1-5.8
						c-0.8-0.3-14.9-6.5-30.4-25.3c-9.3-11.3-17.4-25-23.9-40.5c-8.2-19.5-13.8-42.2-16.8-67.4c-0.3-1.9-1.3-3.6-2.8-4.7
						c-1.1-0.8-2.5-1.2-3.8-1.2c-0.5,0-1,0.1-1.5,0.2l-76.4,18.1c-1.9,0.4-3.4,1.6-4.3,3.3c-0.9,1.6-1.1,3.7-0.4,5.4
						c0.2,0.4,14.2,41,30.7,83.2c9.7,24.8,18.3,45.4,25.7,61c11.8,25.1,18.1,33.1,21.9,36.5c2.5,4.2,12.4,20,28.3,36
						c10.8,10.8,22.1,19.5,33.5,25.7c14.7,7.9,29.7,12,44.8,12c33.3,0,66-19.5,97.4-58c2.6-2.7,24.5-25.6,48.1-64
						c14.5-23.6,26.7-48.2,36.2-73c11.9-31.2,19.6-62.9,23-94.3c0.2-1.9-0.4-3.7-1.6-5.1c-1.2-1.4-3.1-2.2-4.9-2.3l-93.4-1.5
						C568.6,668.3,568.5,668.3,568.5,668.3L568.5,668.3z"/>
				</g>
				<path class="st0" d="M556.3,890.2c-111.2,132.1-193.8-15.5-193.8-15.5c-18.1-22.8-42.5-71.1-42.5-71.1s16.2,57.6,42.5,85.1
					c0,0,84.9,149.7,193.8,15.5c0,0,48.6-58.6,71-107.4C627.3,796.8,602.9,834.7,556.3,890.2z"/>
				<path class="st1" d="M405.5,803.4c-3.1-9.1-23.9-15.6-24.7-7.4c-0.8,8.2,21.6,45.7,25.1,49.4c0,0-19.8-12.2-36.9-39.4
					c0,0,25.5,79.2,60.6,91.6c0,0-52.8-0.8-89.8-102.7c0,0-4.7,7.6-21.2,8.5c0,0-27.3-47.9-23.3-65.3c4.1-17.4,90.7,17.3,90.7,17.3
					L405.5,803.4z"/>
				<path class="st1" d="M536.5,790.2c0,0,36.2-10.1,34.2,4.6c-1.3,9.9-30.3,71.5-30.3,71.5s39.6-33.3,51.8-72.6
					c0,0,34.3-13.2,39,3.1c0,0,18.1-50.7,22.4-75.4c4.3-24.7-93.2,0-93.2,0L536.5,790.2z"/>
				<g>
					<g>
						<g>
							<path class="st0" d="M468.7,900.8c-28.2,0-51.2-22.9-51.2-51.2c0-28.2,22.9-51.2,51.2-51.2c28.3,0,51.2,22.9,51.2,51.2
								C519.9,877.8,497,900.8,468.7,900.8z"/>
							<path class="st1" d="M468.7,801.7c26.4,0,47.8,21.4,47.8,47.8c0,26.4-21.4,47.8-47.8,47.8c-26.4,0-47.8-21.4-47.8-47.8
								C420.9,823.1,442.3,801.7,468.7,801.7 M468.7,795c-30.1,0-54.5,24.5-54.5,54.5c0,30.1,24.5,54.5,54.5,54.5
								c30.1,0,54.5-24.5,54.5-54.5S498.8,795,468.7,795L468.7,795z"/>
						</g>
						<path class="st1" d="M456,882.6v-4.3h4.4c2.5,0,3.4-2.5,3.6-3.1v-14.8c-15.3-0.1-18.3-2.8-21.4-7.2
							c-2.4-3.4-3.1-10.4-3.7-15.5c-0.2-1.5-0.3-2.9-0.5-3.7c-0.6-3.1-3.7-5.5-3.7-5.6l-0.3-0.3l-0.1-0.4c0-0.2-0.1-1.1,0.5-1.8
							c0.3-0.3,0.7-0.6,1.4-0.6c0.2,0,0.3,0,0.6,0.1c12.8,2.5,13.5,8.3,14.1,13.4c0.1,0.5,0.1,1,0.2,1.5c0.9,6.8,3,11.6,5.3,12.7
							c1.4,0.7,4.1,1.1,7.6,1.2v-12c0-3.1-3.1-3.3-3.2-3.3l-4.3-0.4v-4.2h26v4.2l-4.3,0.4c-0.3,0-3.2,0.3-3.2,3.3v11.9
							c2.8-0.2,5-0.6,6.2-1.1c2.4-1.2,4.3-5.9,5.3-12.7c0.1-0.5,0.2-1,0.2-1.5c0.6-5.1,1.2-11,14.1-13.4c0.2-0.1,0.3-0.1,0.5-0.1
							c0.7,0,1.1,0.3,1.4,0.6c0.6,0.7,0.5,1.6,0.5,1.8v0.4l-0.3,0.3c0,0-3.1,2.5-3.7,5.6c-0.2,0.8-0.3,2.2-0.5,3.7
							c-0.5,5.1-1.3,12.1-3.7,15.5c-2.9,4.2-5.9,7-20,7.2v14.8c0.2,0.5,1.1,3.1,3.6,3.1h4.4v4.3L456,882.6L456,882.6z"/>
						<g>
							<path class="st0" d="M503.3,855.8c-6.5,0-14.1-5.9-19.1-14.8c-6.4-11.3-6.3-23.4,0.3-27.2c1.3-0.8,2.8-1.1,4.3-1.1
								c6.5,0,14.1,5.9,19.1,14.8c3.1,5.4,4.8,11.1,4.8,16.2c0,5.3-1.8,9.2-5.1,11C506.4,855.5,505,855.8,503.3,855.8z"/>
							<g>
								<path class="st1" d="M488.9,813.6c5.9,0,13.4,5.6,18.4,14.4c6.2,10.9,6.2,22.6,0,26.1c-1.2,0.7-2.5,1-4,1
									c-5.9,0-13.4-5.6-18.4-14.4c-6.2-10.9-6.2-22.6,0-26.1C486.1,814,487.5,813.6,488.9,813.6 M488.9,811.9L488.9,811.9
									c-1.8,0-3.4,0.4-4.8,1.2c-7,4-7.4,16.5-0.6,28.4c5.2,9.1,13.2,15.2,19.9,15.2c1.8,0,3.4-0.4,4.8-1.2c3.6-2,5.4-6.2,5.4-11.7
									c0-5.2-1.7-11.1-4.8-16.6C503.6,818,495.6,811.9,488.9,811.9L488.9,811.9z"/>
							</g>
						</g>
					</g>
				</g>
			</g>
			<g>
				<g>
					<g>
						<g>
							<ellipse class="st0" cx="214.8" cy="623.2" rx="60.4" ry="63.1"/>
							<path class="st1" d="M156.3,608.9c-1.8,7.8-1.9,16.1-0.3,23.9c1.5,7.8,4.7,15.3,8.9,21.8c8.6,13.1,21.4,22.9,36.3,27.2
								c7.4,2.1,15.3,2.9,23,1.9c3.9-0.5,7.7-1.4,11.5-2.7c3.7-1.4,7.3-3.1,10.6-5.2c6.7-4.2,12.5-10,16.8-16.6
								c4.4-6.6,7.3-14.2,8.7-21.9s1.4-15.7,0-23.3c-1.4-7.6-4.1-15-8-21.6c-3.9-6.6-9.1-12.4-15.2-17c-6.1-4.6-13-8-20.4-9.9
								c-7.4-2-15.1-2.4-22.6-1.3c-0.9,0.1-1.9,0.3-2.8,0.5c-0.9,0.2-1.9,0.4-2.8,0.6c-0.9,0.3-1.9,0.5-2.8,0.8s-1.9,0.6-2.7,0.8
								c-3.7,1.3-7.2,2.9-10.5,4.8c-6.7,3.9-12.9,9.2-17.7,15.5C161.5,593.6,158.1,601,156.3,608.9z M155.7,608.8
								c1.8-7.9,4.8-15.5,9.2-22.6c4.3-7,9.9-13.2,16.7-18.3c3.4-2.5,7-4.7,11-6.4c1-0.4,2-0.8,3-1.2c1-0.3,2-0.8,3-1
								c1-0.3,2-0.6,3.1-0.8c1-0.3,2-0.5,3.1-0.7c8.4-1.6,17.2-1.4,25.5,0.8c8.3,2,16.2,5.9,22.8,11.3c6.7,5.4,12.3,12,16.4,19.4
								c4.2,7.4,6.8,15.6,7.8,24c1,8.3,0.3,16.9-1.8,24.9c-4.2,16.1-14.3,30.4-27.9,39.6c-3.4,2.3-7,4.3-10.9,5.9
								c-3.8,1.7-7.8,2.9-11.9,3.8c-4.1,0.8-8.2,1.3-12.5,1.3s-8.4-0.5-12.6-1.4c-8.2-1.9-16.1-5.7-22.8-11s-12.1-12.1-15.8-19.5
								c-3.8-7.5-6-15.5-6.9-23.7C153.4,624.9,153.9,616.7,155.7,608.8z"/>
						</g>
						<path class="st6" d="M179.6,572c0,0,13,10.8,16.9,27.1l16.8,61c0,0-3.7,17.1-10.4,24.2c0,0,33.5,1.9,39.7-7.9
							c6.2-9.8-33.4-121.3-33.4-121.3L179.6,572z"/>
						<path class="st1" d="M191.5,655.1c15.2,9,34.6,3.4,43.1-12.5c8.7-15.9,3.3-36.1-11.9-45.1c-15.2-9-34.6-3.4-43.1,12.5
							c0,0,12.9-8.8,16.5,0.7l15.4,16.5c0,0-21.2,15.3-0.6,22.3L191.5,655.1z"/>
					</g>
					<g>
						<g>
							<ellipse class="st0" cx="689.6" cy="623.2" rx="60.4" ry="63.1"/>
							<path class="st1" d="M748.7,608.8c1.8,7.9,2.2,16.1,1.4,24.3s-3.1,16.2-6.9,23.7c-3.8,7.5-9.2,14.2-15.8,19.5
								c-6.6,5.3-14.5,9.1-22.8,11c-4.2,0.9-8.3,1.4-12.6,1.4c-4.2,0-8.4-0.4-12.5-1.3s-8.1-2.1-11.9-3.8c-3.8-1.6-7.4-3.7-10.9-5.9
								c-13.7-9.2-23.7-23.4-27.9-39.6c-2.1-8.1-2.8-16.6-1.8-24.9c1-8.3,3.7-16.6,7.8-24c4.1-7.4,9.7-14.1,16.4-19.4
								c6.7-5.4,14.6-9.3,22.8-11.3c8.3-2,17.1-2.4,25.5-0.8c1,0.2,2.1,0.5,3.1,0.7c1,0.3,2,0.6,3.1,0.8c1,0.3,2,0.7,3,1
								c1,0.4,2,0.8,3,1.2c3.9,1.7,7.6,3.9,11,6.4c6.8,5,12.4,11.3,16.7,18.3C744,593.1,747,600.8,748.7,608.8z M748.1,608.9
								c-1.8-7.8-5.2-15.3-10-21.7c-4.8-6.4-10.9-11.7-17.7-15.5c-3.4-2-7-3.6-10.5-4.8c-0.9-0.3-1.9-0.6-2.7-0.8
								c-0.9-0.3-1.9-0.5-2.8-0.8c-0.9-0.2-1.9-0.4-2.8-0.6c-0.9-0.2-1.9-0.3-2.8-0.5c-7.6-1.1-15.3-0.7-22.6,1.3
								c-7.4,1.9-14.3,5.4-20.4,9.9c-6.1,4.6-11.2,10.4-15.2,17c-3.9,6.6-6.6,13.9-8,21.6c-1.4,7.6-1.4,15.5,0,23.3
								c1.4,7.7,4.3,15.3,8.7,21.9c4.3,6.6,10.1,12.4,16.8,16.6c3.4,2.1,7,3.9,10.6,5.2c3.7,1.3,7.6,2.2,11.5,2.7
								c7.8,0.9,15.6,0.3,23-1.9c14.9-4.2,27.7-14,36.3-27.2c4.2-6.5,7.4-14,8.9-21.8C750,624.9,749.9,616.8,748.1,608.9z"/>
						</g>
						<path class="st6" d="M734.8,577.7c0,0-13,22.4-24,40.3l-14.7,42c0,0-0.2,17.1,6.5,24.2c0,0-34.7,1.9-40.9-7.9
							S695.1,555,695.1,555L734.8,577.7z"/>
						<path class="st1" d="M712.9,655.1c-15.2,9-34.6,3.4-43.1-12.5c-8.7-15.9-3.3-36.1,11.9-45.1c15.2-9,34.6-3.4,43.1,12.5
							c0,0-12.9-8.8-16.5,0.7l-7.7,16.5c0,0,18.6,15.3-2,22.3L712.9,655.1z"/>
					</g>
					<g>
						<g>
							<g>
								<path class="st0" d="M453.3,774.4c-60.4,0-117.3-11.8-160.2-33.2c-5.9-3-11.5-6.1-16.6-9.3c-2.7-1.7-5.4-3.4-7.9-5.3
									c-8.2-5.8-15.4-11.9-21.3-18.3c-14.4-15.5-21.7-32.2-21.7-49.5c0-4.1,0.4-8.2,1.2-12.1c2.6-12.9-0.7-26.8-8.9-38.1
									c-1.6-2.2-3.3-4.6-5-7l-0.1-0.1C202,585.8,193,569.1,186,551.8c0-0.1,0-0.1-0.1-0.2c-12.4-30.7-18.8-63-18.8-96.1
									c0-9.3,0.5-18.5,1.4-27.6c1.5-13.8,4.2-27.6,7.8-40.9c32.9-118.5,146.7-201.3,276.8-201.3c63.5,0,123.8,19.2,174,55.5
									c24.2,17.5,45.2,38.4,62.4,62.1c17.5,24.1,30.6,50.5,39,78.5c3.8,12.6,6.6,25.7,8.4,38.7c1.6,11.5,2.4,23.2,2.4,34.8
									c0,28.7-4.8,57-14.2,84c-4.8,13.8-10.9,27.3-17.9,40.3c-5.5,10-11.8,19.8-18.5,29c-8.3,11.3-11.6,25.1-8.9,38.1
									c0.8,4,1.2,8.1,1.2,12.1c0,8.2-1.7,16.5-5,24.4c-5.6,13.4-15.7,26-30.1,37.5c-11,8.8-24.3,16.8-39.5,23.8
									c-9.9,4.5-20.5,8.6-31.7,12.1C538.5,768.3,496.6,774.4,453.3,774.4z"/>
								<path class="st1" d="M453.3,188.9c129.4,0,238.6,82,272.1,193.8c3.7,12.4,6.5,25.1,8.3,38.2c1.5,11.3,2.4,22.8,2.4,34.4
									c0,29-4.9,56.8-14,82.9c-4.8,13.8-10.7,27.1-17.8,39.8c-5.5,9.9-11.6,19.5-18.3,28.6c-8.6,11.7-12.4,26.4-9.5,40.7
									c0.8,3.7,1.2,7.6,1.2,11.4c0,7.9-1.6,15.6-4.8,23.1c-5.4,13.1-15.5,25.3-29.1,36.2c-10.8,8.7-23.9,16.6-38.8,23.4
									c-9.7,4.4-20.1,8.5-31.3,12.1c-34.8,11.1-76.1,17.5-120.4,17.5c-62,0-118.1-12.6-158.7-32.9c-5.8-2.9-11.3-5.9-16.4-9.2
									c-2.7-1.7-5.3-3.4-7.8-5.2c-8-5.6-14.9-11.6-20.7-17.8c-13.3-14.4-20.8-30.4-20.8-47.3c0-3.8,0.3-7.6,1.1-11.4
									c2.9-14.3-0.9-29-9.5-40.7c-1.7-2.3-3.4-4.7-5-7l0,0C205,584,196,567.6,189.1,550.2l0,0c-12-29.5-18.5-61.6-18.5-95
									c0-9.2,0.5-18.3,1.4-27.3c1.5-13.8,4.1-27.3,7.7-40.3C211.4,273.4,321.9,188.9,453.3,188.9 M453.3,182.2
									c-32.9,0-65.1,5.2-95.8,15.3c-29.7,9.9-57.4,24.1-82.3,42.5c-24.7,18.2-46,39.9-63.3,64.6c-17.6,25.1-30.6,52.4-38.6,81.4
									c-3.7,13.4-6.4,27.3-7.9,41.4c-1,9.3-1.5,18.7-1.5,27.9c0,33.5,6.4,66.3,18.9,97.3c0,0.1,0.1,0.2,0.1,0.3
									c7.1,17.6,16.2,34.5,27.1,50.5l0,0c0,0.1,0.1,0.1,0.1,0.2c1.7,2.5,3.4,4.8,5,7c7.7,10.5,10.8,23.4,8.3,35.4
									c-0.8,4.2-1.3,8.5-1.3,12.7c0,18.3,7.6,35.7,22.6,51.8c6.1,6.5,13.4,12.9,21.8,18.8c2.6,1.9,5.4,3.7,8.1,5.4
									c5.3,3.3,11,6.5,16.9,9.4c43.3,21.7,100.7,33.5,161.6,33.5c43.6,0,85.9-6.2,122.5-17.8c11.3-3.6,22.1-7.7,32-12.3
									c15.5-7.1,29-15.3,40.2-24.3c14.8-11.9,25.2-25,31.1-38.8c3.5-8.4,5.3-17,5.3-25.7c0-4.2-0.4-8.5-1.3-12.7
									c-2.4-12,0.6-24.9,8.3-35.4c6.9-9.3,13.2-19.2,18.8-29.4c7.2-13.1,13.3-26.8,18.2-40.8c9.5-27.3,14.4-56,14.4-85.1
									c0-11.8-0.8-23.7-2.4-35.2c-1.8-13.3-4.7-26.5-8.5-39.2c-8.5-28.4-21.7-55-39.5-79.4c-17.4-24-38.6-45.2-63.1-62.9
									c-24.7-17.9-52.2-31.8-81.5-41.4C517.5,187.2,485.7,182.2,453.3,182.2L453.3,182.2z"/>
							</g>
						</g>
					</g>
					
						<linearGradient id="SVGID_4_" gradientUnits="userSpaceOnUse" x1="170.4837" y1="809.8492" x2="736.1589" y2="809.8492" gradientTransform="matrix(1 0 0 -1 0 1216)">
						<stop  offset="0" style="stop-color:#52FFCE"/>
						<stop  offset="0.9948" style="stop-color:#6700E4"/>
					</linearGradient>
					<path class="st7" d="M725.5,382.8c-33.5-111.9-142.7-193.8-272.1-193.8c-131.4,0-241.9,84.4-273.7,198.8
						c-3.7,13.1-6.2,26.5-7.7,40.3c-0.9,8.9-1.4,18.1-1.4,27.3c0,33.5,6.5,65.6,18.5,95l0,0c7,17.3,16,33.8,26.4,49.2l0,0
						c1.6,2.4,3.3,4.8,5,7c1.4,1.9,2.6,3.8,3.7,5.9c20.7-23.5,51-50.7,31.9-169.7c-2.4-14.9,3.7-46.2,15.3-58.7
						c0,0,182.6-86.8,336.8-32.5c0,0,74.2-0.3,60,123.3c-7,61.2-4.3,119.4,9.5,148.5c1.8-5.9,4.6-11.6,8.4-16.8
						c6.7-9.2,12.8-18.7,18.3-28.6c7-12.7,12.9-26,17.8-39.8c9.1-26.1,14-53.9,14-82.9c0-11.6-0.8-23.1-2.4-34.4
						C732,407.9,729.2,395.2,725.5,382.8z"/>
					<g>
						<path class="st0" d="M734.5,342.2c0,0,17.7-3.5,35.2,12.5c0,0,20.8-94.2-61.8-127.8c0,0-12.7-133.9-181.6-142.5
							c0,0,20,8.9,22.6,33c0,0-352.7-107.1-412.9,251l43.4,19.4C179.4,387.8,465.9,113.4,734.5,342.2z"/>
						<path class="st1" d="M734.6,341.9C734.5,341.8,734.6,341.8,734.6,341.9l0.2-0.1l0.3-0.1l0.6-0.1c0.4-0.1,0.8-0.1,1.2-0.1
							c0.8-0.1,1.6-0.1,2.5-0.1c1.6,0,3.2,0.1,4.8,0.3c3.2,0.4,6.4,1.2,9.5,2.2c3.1,1.1,6,2.5,8.8,4.2c2.8,1.7,5.4,3.7,7.8,5.9
							l-1.4,0.5c1.2-6.2,1.7-12.7,2-19c0.2-6.4,0-12.8-0.6-19.1c-1.3-12.7-4.2-25.2-9.3-36.8c-5.2-11.6-12.5-22.1-21.8-30.6
							c-1.1-1.1-2.4-2.1-3.6-3.1c-1.3-1-2.5-2-3.7-2.9c-2.5-2-5.1-3.7-7.8-5.3c-5.4-3.2-11-6-16.9-8.4c-0.8-0.3-1.4-1.1-1.5-2v-0.1
							c-0.3-2.4-0.8-5-1.3-7.5c-0.5-2.5-1.1-5-1.8-7.5c-1.4-5-3-9.9-4.8-14.7c-3.7-9.6-8.2-18.9-13.6-27.7
							c-5.4-8.7-11.6-17-18.6-24.5c-7-7.6-14.7-14.4-23-20.5c-16.6-12.1-35.5-20.9-55.3-26.8c-9.9-2.9-20-5.2-30.2-6.8
							c-10.2-1.6-20.6-2.6-30.8-3.1l1.6-6.8c0.3,0.2,0.5,0.3,0.8,0.3l0.7,0.3c0.4,0.3,0.8,0.5,1.3,0.7c0.8,0.5,1.6,1,2.4,1.5
							c1.5,1.1,3.1,2.2,4.4,3.5c2.8,2.5,5.4,5.4,7.5,8.4c2.1,3.1,3.9,6.5,5.2,10c1.3,3.6,2.1,7.2,2.5,11c0.3,2-1.2,3.7-3.1,3.9
							c-0.5,0.1-0.9,0-1.4-0.1h-0.1c-5.4-1.5-11-3-16.6-4.2c-5.6-1.3-11.3-2.4-16.9-3.5c-11.3-2-22.8-3.7-34.2-4.9
							c-22.9-2.5-46-3.2-69.1-2c-23,1.3-45.9,4.6-68.1,10.4c-11.1,2.9-22.1,6.5-32.8,10.6c-10.7,4.2-21.1,9-31.3,14.6
							c-20.1,11-38.7,25-55.1,41.2s-30.4,34.8-42,54.8c-2.9,5-5.7,10-8.3,15.2c-2.6,5.2-5.1,10.4-7.5,15.6
							c-4.7,10.6-8.8,21.4-12.5,32.4c-3.7,11-6.8,22.2-9.5,33.4c-2.7,11.3-5,22.6-7,34.1l-0.6-1.1l21.7,9.6l21.7,9.6l-1.3,0.3
							c9.3-8.8,19.2-17,29.2-25c10-8,20.3-15.5,30.8-22.8c21.1-14.6,43-27.9,65.8-39.8c22.8-11.8,46.5-21.9,70.8-30.2
							c12.2-4,24.5-7.6,37.1-10.5c12.5-3,25.2-5.4,38-7c25.5-3.5,51.4-4.3,77-2.2c6.5,0.5,12.8,1.3,19.2,2.1c6.4,0.9,12.7,2,19,3.2
							c6.3,1.3,12.6,2.8,18.8,4.4c6.2,1.6,12.4,3.5,18.5,5.4c6.1,2,12.1,4.2,18.2,6.5c5.9,2.4,11.9,4.8,17.8,7.6s11.6,5.5,17.2,8.5
							c5.7,3,11.3,6.1,16.8,9.3c11,6.6,21.7,13.6,32,21.2c2.5,2,5.2,3.8,7.6,5.8l3.8,3l3.7,3c2.5,2,4.9,4.1,7.4,6.1
							C730,337.7,732.3,339.8,734.6,341.9z M734.5,342.5l-7.6-6c-2.5-2-5-3.9-7.6-5.9l-3.8-2.9l-3.9-2.8c-2.5-1.9-5.2-3.7-7.8-5.5
							c-10.4-7.2-21.3-14-32.4-20.3c-11.1-6.2-22.5-12-34.1-17c-11.6-5.1-23.6-9.4-35.7-13.3c-6-1.9-12.1-3.6-18.3-5.1
							c-6.2-1.5-12.3-2.9-18.6-4.1c-6.2-1.2-12.5-2.2-18.8-3c-6.3-0.8-12.6-1.4-18.9-2c-25.3-1.8-50.7-0.8-75.8,2.6
							c-25.1,3.6-49.9,9.5-74,17.4c-12.1,3.9-24,8.3-35.8,13.2c-11.7,4.8-23.4,10.1-34.7,15.7c-22.8,11.3-44.8,24.1-66.1,38.2
							c-10.6,7-21,14.4-31.1,22.2c-5.1,3.8-10.1,7.8-14.9,11.9c-4.9,4.1-9.8,8.2-14.4,12.5l0,0c-0.3,0.3-0.8,0.4-1.3,0.2l-21.7-9.8
							l-21.7-9.7l0,0c-0.4-0.2-0.7-0.7-0.6-1.1c2-11.5,4.2-22.8,7-34.2c2.7-11.3,5.9-22.5,9.4-33.6s7.7-22,12.3-32.7
							c4.6-10.7,9.8-21.1,15.5-31.3c11.5-20.3,25.4-39.3,41.7-56.1c16.3-16.7,35.1-31.3,55.5-42.9c20.4-11.6,42.4-20.3,65-26.4
							c22.7-6.1,46-9.6,69.3-11s46.8-0.8,70.2,1.5c11.6,1.2,23.3,2.8,34.7,4.8c5.8,1,11.5,2.1,17.2,3.4c5.8,1.3,11.4,2.6,17.2,4.3
							l-4.6,3.8c-0.3-3.2-1.1-6.3-2.1-9.3c-1.1-3-2.5-5.9-4.3-8.4c-1.8-2.6-3.9-5-6.4-7.1c-1.2-1-2.5-2-3.7-3
							c-0.7-0.4-1.4-0.8-2-1.3c-0.3-0.2-0.7-0.4-1-0.6l-0.5-0.3l-0.4-0.2l-0.1-0.1c-1.8-0.8-2.5-3.1-1.6-4.8c0.7-1.3,2-2,3.4-2
							c21.1,1,42.3,4.3,62.7,10.4c20.4,6.2,40,15.4,57.1,28.2c8.6,6.4,16.6,13.6,23.7,21.5c7.1,7.9,13.5,16.6,19,25.7
							c5.4,9.2,10,18.9,13.7,28.9c1.8,5,3.4,10.1,4.7,15.3c0.7,2.5,1.3,5.2,1.8,7.8c0.3,1.3,0.5,2.6,0.7,4s0.4,2.6,0.5,4.1l-1.5-2
							c6,2.5,11.9,5.5,17.5,9.1c2.8,1.8,5.5,3.7,8.1,5.7c1.4,1,2.5,2,3.8,3.1c1.2,1.1,2.5,2.2,3.7,3.3c4.8,4.6,9.1,9.6,12.7,15
							c1.9,2.7,3.6,5.5,5.1,8.4c1.5,2.9,3,5.9,4.2,8.8c5.1,12.1,7.9,25.1,8.8,38c0.5,6.5,0.5,13,0.2,19.5
							c-0.4,6.5-1.1,12.9-2.5,19.4c-0.1,0.5-0.6,0.8-1,0.7c-0.2,0-0.3-0.1-0.4-0.3c-2.3-2.1-4.8-4.2-7.5-5.9
							c-2.6-1.7-5.5-3.1-8.4-4.3c-3-1.2-6-2-9.2-2.5c-1.5-0.3-3.1-0.4-4.8-0.4c-0.8,0-1.6,0-2.4,0c-0.4,0-0.8,0.1-1.2,0.1l-0.6,0.1
							h-0.3h-0.2C734.7,342.5,734.7,342.5,734.5,342.5z"/>
					</g>
					
						<linearGradient id="SVGID_5_" gradientUnits="userSpaceOnUse" x1="120.4098" y1="970.7609" x2="850.187" y2="970.7609" gradientTransform="matrix(1 0 0 -1 0 1216)">
						<stop  offset="0" style="stop-color:#52FFCE"/>
						<stop  offset="0.9948" style="stop-color:#6700E4"/>
					</linearGradient>
					<path class="st8" d="M701.7,236.7c0,0-18-112.2-121.5-131.7c17.7,14.9,18.3,30.7,18.3,30.7c-8-15.1-23.2-23.9-33-32.8
						c-0.4,0-0.8-0.1-1.3-0.2c0,0,4.6,19.9,0.2,35.2c0,0-360.3-118.7-420.8,231.5l52.6,18.2c0,0,269-257.6,521.3-42.8
						c0,0,27.1-18.4,43.6-3.4C761,341.6,779.2,268.3,701.7,236.7z"/>
					<path class="st1" d="M641.5,155.1c0,0,45.8,35.5,48.5,89c0,0,46.5,13.2,59.4,37.6c0,0-16.1-17.7-43.7-14.1
						c0,0,42.5,23.5,43.2,39.5c0,0-0.7-16-17.6-26.1c0,0,30.7-1.2,24.4,49c0,0-24-25.5-50-19.7c-36.4,8.2-75.7-58.1-75.7-58.1
						s-8.2-46.7-34.9-63.3c0,0,32.3,7.9,39.4,22.3c0,0-4.1-45-19.7-79.2c0,0,31.9,33.1,42.7,63.3
						C657.4,195.4,654.2,174.5,641.5,155.1z"/>
					<path class="st9" d="M590.2,513c-3.9,73.2-61.4,81.4-131.5,77.3c-70.1-4.2-126.3-18.9-122.4-92.2s64-129.3,134-125.1
						C540.6,377.1,594.1,439.7,590.2,513z"/>
					<g>
						<path class="st0" d="M485.1,603.4c-7.9,0-16.5-0.3-26.2-0.8c-53.6-3.1-75.3-12.4-88.1-20c-24.8-14.9-36-38.8-34.1-73.1
							c3.7-70.2,59.5-125.2,126.8-125.2c2.4,0,4.8,0.1,7.2,0.2c70,4.1,123.7,66.8,119.8,139.8c-1.6,30.2-12.4,51.1-32.8,63.9
							C540.8,598.6,517.8,603.4,485.1,603.4z"/>
						<path class="st1" d="M463.4,387.5c2.4,0,4.7,0.1,7,0.2c68.2,4,120.4,65,116.6,136.3c-3.3,61.9-46,76-101.9,76
							c-8.4,0-17.2-0.3-26.1-0.8c-68.2-4-123-18.4-119.1-89.7C343.7,440.8,398.2,387.5,463.4,387.5 M463.4,380.8v6.7V380.8
							L463.4,380.8c-69.1,0-126.2,56.4-130.1,128.3c-1,18.3,1.7,34,8.1,46.8c5.9,12,15.3,21.9,27.7,29.3
							c25.1,15,61.1,18.9,89.6,20.6c9.8,0.6,18.4,0.8,26.4,0.8c33.4,0,56.9-5,74.2-15.8c10.4-6.5,18.4-15.1,24.1-25.7
							c5.9-11.1,9.4-24.9,10.3-40.8c2-36.2-9.8-71-32.9-98.1c-23.2-27.1-55.2-43.2-90-45.3C468.4,380.9,465.9,380.8,463.4,380.8
							L463.4,380.8z"/>
					</g>
					
						<linearGradient id="SVGID_6_" gradientUnits="userSpaceOnUse" x1="170.2908" y1="757.0369" x2="761.4551" y2="757.0369" gradientTransform="matrix(1 0 0 -1 0 1216)">
						<stop  offset="0" style="stop-color:#52FFCE"/>
						<stop  offset="0.9948" style="stop-color:#6700E4"/>
					</linearGradient>
					<path class="st10" d="M470.5,387.8c-68.2-4-126.6,50.5-130.5,121.8c-0.3,5.9-0.3,11.6,0.3,16.7
						c7.1-67.9,62.8-115.7,128.8-112.5c70.3,3.3,112.8,53.1,117.6,116.6c0.2-2,0.3-4.1,0.5-6.3C590.9,452.7,538.7,391.8,470.5,387.8
						z"/>
					<g>
						<g>
							
								<linearGradient id="SVGID_7_" gradientUnits="userSpaceOnUse" x1="123.7585" y1="746.1415" x2="758.6735" y2="746.1415" gradientTransform="matrix(1 0 0 -1 0 1216)">
								<stop  offset="0" style="stop-color:#52FFCE"/>
								<stop  offset="0.9948" style="stop-color:#6700E4"/>
							</linearGradient>
							<path class="st11" d="M276.8,327.9c0,0-51.2,53.1-48.1,113.5c5.2,98.1,24.4,139.7-13.3,170.3c1.6,2.5-10.5-20.6-31.1-49.2
								c-18.7-26-46.1-103.8-15.3-154.2C169.2,408.1,250.5,344,276.8,327.9z"/>
							<path class="st1" d="M277.1,327.6c0.2,0.2-0.1,0.6-0.1,0.5l-0.1,0.1l-0.1,0.1l-0.2,0.3l-0.4,0.4l-0.8,0.9l-1.5,1.9
								c-1,1.3-2,2.5-2.9,3.7c-2,2.5-3.7,5.1-5.6,7.6c-3.7,5.2-7,10.4-10.2,15.9c-3.2,5.4-6.1,11-8.8,16.6
								c-2.7,5.6-5.1,11.5-7.1,17.3c-4.2,11.7-6.9,24-7.6,36.3c-0.2,3.1-0.3,6.2-0.2,9.3s0.3,6.3,0.5,9.3c0.3,6.3,0.8,12.6,1.3,18.9
								c0.4,6.3,0.9,12.6,1.4,18.9l1.5,18.9c1,12.7,2.2,25.2,2.7,38c0.3,6.4,0.4,12.7,0.2,19.1s-0.9,12.7-2.5,19
								c-0.8,3.1-1.8,6.2-3.1,9.2c-1.3,3-2.8,5.9-4.6,8.5c-3.5,5.4-8,10.2-12.9,14.3l0.3-1.7v0.1c0,0,0.1,0.1-0.1-0.1
								c-0.3-1-3.5,2-2,1.3v0.1l0,0l-0.2-0.3l-0.4-0.8l-0.8-1.4l-1.7-3c-1.2-2-2.4-3.9-3.6-5.9c-2.4-3.9-4.9-7.7-7.4-11.6
								c-5.1-7.6-10.4-15.1-15.8-22.5l-2-2.7c-0.7-0.9-1.4-2-2-2.9c-1.4-2-2.5-4-3.7-6c-2.4-4.1-4.5-8.2-6.5-12.5
								c-3.9-8.5-7.2-17.2-9.9-26.2c-2.7-8.9-4.8-18.1-6.4-27.3c-1.4-9.3-2.3-18.7-2.2-28.1c0.2-9.4,1.2-18.9,3.6-28.1
								c1.2-4.6,2.7-9.2,4.5-13.6c1.9-4.4,4-8.7,6.5-12.7l0,0c0.2-0.3,0.5-0.6,0.8-0.8c8.8-6.9,17.8-13.6,26.8-20.4
								c9-6.7,18-13.4,27-20c4.6-3.3,9.1-6.5,13.7-9.8c4.6-3.2,9.2-6.5,13.8-9.7c4.7-3.1,9.3-6.3,14-9.3c2.3-1.5,4.8-3.1,7-4.5
								c0.6-0.3,1.2-0.8,1.8-1.1c0.7-0.4,1.4-0.8,2-1.1C274.6,328.9,276,328.3,277.1,327.6z M276.6,328.1c-1.2,0.8-2.3,1.8-3.2,2.5
								c-0.5,0.4-1,0.8-1.5,1.1l-1.7,1.2c-2.2,1.7-4.5,3.3-6.7,5c-2.2,1.7-4.5,3.4-6.7,5.1l-6.6,5.2c-4.4,3.4-8.8,6.9-13.3,10.4
								l-13.2,10.4l-26.2,20.9l-26.2,21l0.8-0.8c-2.3,3.8-4.2,7.7-5.9,11.9c-1.6,4.1-3,8.3-4,12.7s-1.9,8.7-2.4,13.2
								c-0.5,4.4-0.8,8.9-0.9,13.4c-0.3,18,2.5,36.1,7.4,53.5c2.5,8.7,5.5,17.3,9.1,25.7c1.8,4.2,3.7,8.2,5.9,12.2
								c1.1,2,2.2,3.9,3.4,5.9c0.6,0.9,1.2,1.9,1.9,2.8l2,2.9c5.2,7.6,10.1,15.5,14.9,23.4c2.4,3.9,4.8,7.9,7,12c1.1,2,2.3,4,3.4,6
								l1.6,3.1l0.8,1.5l0.4,0.8l0.2,0.4l0.1,0.2l0.1,0.2c1.4-0.8-1.7,2.4-2.1,1.3c-0.3-0.3-0.2-0.3-0.3-0.3l-0.1-0.1l0,0
								c-0.3-0.5-0.3-1.3,0.3-1.7c4.8-3.8,9.3-8.3,12.7-13.5c1.7-2.5,3.2-5.4,4.4-8.2c1.2-2.9,2.2-5.8,3-8.8
								c1.4-6,2.1-12.3,2.2-18.6c0.1-6.3-0.2-12.6-0.8-18.9c-1.1-12.6-2.9-25.1-4.5-37.6c-0.8-6.3-1.6-12.6-2.4-18.9
								c-0.7-6.3-1.4-12.7-2-18.9c-0.5-6.4-1-12.7-1.4-19c-0.2-3.2-0.3-6.3-0.4-9.6c-0.1-3.2,0-6.5,0.3-9.8c0.4-6.5,1.4-12.9,3-19.2
								c1.5-6.3,3.5-12.5,5.8-18.4c4.7-12,10.8-23.4,17.8-34c3.5-5.4,7.3-10.4,11.3-15.5c2-2.5,4.1-4.9,6.2-7.3
								c1-1.2,2.1-2.4,3.2-3.5l1.7-1.7l0.8-0.8l0.4-0.4l0.3-0.2l0.1-0.1l0.1-0.1C276.7,327.5,276.4,328,276.6,328.1z"/>
						</g>
						<g>
							<path class="st0" d="M215.6,611.6L215.6,611.6C215.7,611.8,215.8,611.8,215.6,611.6z"/>
							<path class="st0" d="M220.5,603.8c-5.4-9-8.8-25.6-20.2-41.4c-18.7-26-46.1-103.8-15.3-154.2c0,0,39.7-31.3,72.6-55.7
								c10.2-15.3,19.2-24.6,19.2-24.6C250.5,343.9,173,408.1,173,408.1c-30.9,50.5-3.4,128.3,15.3,154.2
								c18.4,25.7,27.5,45.4,28.5,47.8C216.9,610.2,217.7,607.4,220.5,603.8z"/>
						</g>
						<path class="st1" d="M231.9,360.5c0,0-17.6,48-20.5,98.4c0,0-13.2-15.1-11-36.4c0,0-14.4,30.9-4.1,65.8
							c0,0-18.1-14.6-16.5-41.3c0,0-4.8,51.8,22.8,99.6c0,0,16.4-7.5,21.5-34c0,0,18.9,54.9-5.7,84.9c0,0-29.6-47.1-36.3-65.7
							c-4.6-12.7-30.2-84.1-13.2-123.7C169.2,408.1,217.5,366.7,231.9,360.5z"/>
						<g>
							<path class="st1" d="M220.6,535.9c0.1-7.5,0.2-14.9,0.2-22.4c0-7.5,0-14.9-0.2-22.4c1.3,7.4,2.4,14.8,3.5,22.3
								c1.1,7.4,2.1,14.9,3.2,22.3c0.3,1.9-1,3.5-2.9,3.7c-1.9,0.3-3.5-1-3.7-2.9C220.6,536.2,220.6,536.1,220.6,535.9L220.6,535.9z
								"/>
						</g>
						<g>
							<path class="st1" d="M212.2,546.8c-0.2-7.5-0.3-14.9-0.6-22.4c-0.3-7.5-0.5-14.9-0.9-22.4c1.5,7.3,2.9,14.7,4.2,22.1
								s2.6,14.8,3.9,22.2c0.3,1.8-0.9,3.6-2.7,3.9c-1.8,0.3-3.6-0.9-3.9-2.7C212.2,547.1,212.2,546.9,212.2,546.8L212.2,546.8z"/>
						</g>
						<g>
							<path class="st1" d="M203.6,557.6c-0.3-7.5-0.8-14.9-1.2-22.4c-0.4-7.5-0.8-14.9-1.4-22.4c1.7,7.3,3.2,14.6,4.8,22
								c1.5,7.3,3.1,14.7,4.5,22.1c0.3,1.8-0.8,3.6-2.6,3.9c-1.8,0.3-3.6-0.8-3.9-2.6C203.7,558,203.7,557.8,203.6,557.6
								L203.6,557.6z"/>
						</g>
					</g>
					<g>
						<g>
							
								<linearGradient id="SVGID_8_" gradientUnits="userSpaceOnUse" x1="123.7585" y1="764.6688" x2="758.6735" y2="764.6688" gradientTransform="matrix(1 0 0 -1 0 1216)">
								<stop  offset="0" style="stop-color:#52FFCE"/>
								<stop  offset="0.9948" style="stop-color:#6700E4"/>
							</linearGradient>
							<path class="st12" d="M640.7,289.1c0,0,76,123.2,44.1,213.8c-22.3,63.3-2.1,110.9-2.1,110.9s88.8-59.2,65.9-235.7
								C748.6,378.1,668.4,284.2,640.7,289.1z"/>
							<path class="st1" d="M641,289.2c0.1,0,0.1-0.1,0.1-0.2c0-0.1,0,0,0,0l0.1,0.2l0.2,0.3l0.3,0.6l0.7,1.1l1.4,2.2
								c0.9,1.5,1.9,3,2.8,4.5c1.8,3.1,3.6,6.1,5.4,9.2c3.4,6.2,6.7,12.4,9.9,18.8c6.2,12.7,11.8,25.7,16.6,39
								c4.8,13.3,8.9,26.9,11.8,40.9c1.4,7,2.8,13.9,3.7,21s1.4,14.2,1.6,21.3c0.3,14.3-1.1,28.6-4.8,42.5c-0.9,3.5-2,6.9-3.1,10.3
								l-1.8,5c-0.6,1.6-1.2,3.2-1.7,4.9c-2.2,6.6-4.1,13.3-5.4,20.2c-1.4,6.9-2.4,13.8-2.9,20.7s-0.6,14-0.2,21s1.3,13.9,2.5,20.8
								c0.7,3.4,1.4,6.8,2.4,10.2c0.9,3.3,2,6.7,3.3,9.9l-2-0.6c2-1.4,4.1-3.2,6-5c2-1.8,3.8-3.7,5.6-5.5c3.7-3.8,7-7.8,10.3-12
								c6.4-8.3,12-17.3,16.8-26.7c9.7-18.7,16.6-38.7,21.1-59.2c4.6-20.6,6.5-41.6,7-62.7c0.3-21.1-0.8-42.2-3.5-63.2l0.8,1.7
								c-7.6-9-15.5-17.8-23.5-26.5c-8-8.7-16.2-17.2-24.6-25.6c-4.2-4.2-8.5-8.2-12.8-12.1c-4.3-4-8.8-7.8-13.4-11.5
								c-4.6-3.7-9.3-7.1-14.4-10.1c-2.5-1.4-5.2-2.8-7.9-3.7c-1.4-0.5-2.8-0.9-4.2-1.1c-0.7-0.1-1.4-0.3-2.1-0.3
								c-0.3,0-0.7,0-1.1,0h-0.5C641.3,289.3,641.2,289.3,641,289.2z M640.4,289c0.2-0.1,0.5-0.3,0.8-0.3c0.3-0.1,0.4-0.1,0.6-0.1
								c0.3-0.1,0.8-0.1,1.1-0.1c0.8,0,1.5,0,2.3,0.1c1.5,0.2,3,0.4,4.5,0.8c2.9,0.8,5.7,2,8.4,3.3c5.4,2.7,10.4,5.9,15.4,9.3
								c9.8,7,18.9,14.7,27.7,22.7c8.8,8,17.3,16.4,25.7,24.9c8.3,8.6,16.4,17.2,24.3,26.2c0.4,0.5,0.7,1.1,0.8,1.7v0.1
								c1.4,10.6,2.5,21.3,3.2,32l0.4,8.1c0.1,2.7,0.2,5.4,0.3,8.1c0.1,5.4,0.1,10.7,0,16.1c-0.2,10.7-0.9,21.5-2.3,32.2
								c-0.6,5.4-1.4,10.6-2.4,16c-0.9,5.3-2,10.6-3.2,15.8c-4.9,21-12.3,41.4-22.9,60.2c-5.4,9.3-11.4,18.3-18.3,26.6
								c-3.4,4.2-7,8.2-10.9,11.9c-2,1.9-3.9,3.7-5.9,5.4c-2,1.8-4.2,3.4-6.5,5l0,0c-0.6,0.4-1.4,0.3-1.8-0.3
								c-0.1-0.1-0.1-0.2-0.2-0.3c-1.3-3.4-2.3-6.8-3.1-10.3c-0.8-3.4-1.6-6.9-2.3-10.4c-1.3-7-2.1-14-2.5-21.1s-0.4-14.2,0.1-21.2
								c0.4-7,1.2-14.1,2.5-21.1c1.2-7,2.7-13.9,4.7-20.7c0.4-1.7,1-3.4,1.5-5.1l1.5-5c1-3.3,1.9-6.7,2.6-10
								c2.8-13.6,3.7-27.4,3.1-41.3c-0.5-13.8-2.4-27.7-5.1-41.3c-2.8-13.7-6.5-27.1-10.9-40.4c-4.3-13.3-9.4-26.3-14.9-39.2
								c-2.8-6.5-5.7-12.8-8.7-19.1c-1.5-3.1-3.1-6.3-4.7-9.4l-2.4-4.7l-1.2-2.3l-0.6-1.2l-0.3-0.6l-0.2-0.3l-0.1-0.2
								c0-0.1,0,0-0.1-0.2C640.4,289.2,640.4,289.1,640.4,289z"/>
						</g>
						<path class="st1" d="M693.3,339.4c0,0,4.9,76.8,15.8,100.7c0,0-2.6-35,3-40.3c0,0,0,62.7,7.4,81.5c0,0,5.1-58.5,14.4-60.3
							c9.3-1.8,3.6,97-14.4,104.3c-17.9,7.3-21,0.7-21,0.7s-2.7-8.3,4.2-36.9c0,0-30.7,66.8-17.7,108.5c0,0,17.7-6.5,34.4-43.9
							c6.4-14.2,24.5-36.5,33.8-152.5C753.3,401.1,711.4,330.1,693.3,339.4z"/>
						<g>
							<path class="st1" d="M694.5,538.4c1.4-3.9,2.7-7.7,4.1-11.6c1.4-3.8,2.8-7.6,4.2-11.5c1.4-3.8,2.9-7.6,4.4-11.4
								c1.5-3.7,3.1-7.5,4.8-11.2c-1.2,3.9-2.3,7.8-3.2,11.7c-1,3.9-2,7.9-2.9,11.8c-0.9,3.9-1.8,7.9-2.6,11.9
								c-0.8,4-1.7,7.9-2.5,11.9l0,0c-0.3,1.8-2.1,3-3.9,2.6c-1.8-0.3-3-2.1-2.6-3.9C694.4,538.6,694.4,538.4,694.5,538.4z"/>
						</g>
						<g>
							<path class="st1" d="M704.2,538.2c3.2-8.3,6.3-16.7,9.3-25.2c3-8.4,5.9-16.9,8.3-25.6c-1.4,8.8-3.2,17.7-5.1,26.5
								c-2,8.7-4,17.5-6.1,26.3c-0.4,1.8-2.3,2.9-4.1,2.5s-2.9-2.3-2.5-4.1C704.1,538.4,704.1,538.4,704.2,538.2L704.2,538.2z"/>
						</g>
						<g>
							<path class="st1" d="M715.3,538.8c3-9.4,5.8-18.9,8.6-28.5c2.7-9.5,5.4-19,7.7-28.7c-1.2,9.9-2.8,19.6-4.5,29.4
								c-1.7,9.8-3.5,19.5-5.4,29.3c-0.3,1.8-2.1,3-3.9,2.6c-1.8-0.3-3-2.1-2.6-3.9C715.2,539,715.2,538.9,715.3,538.8L715.3,538.8z
								"/>
						</g>
					</g>
					<g>
						<path class="st0" d="M754.9,451c-1.8,0-3.2-1.4-3.3-3.1l0,0c0-0.3-2.3-34.1-32.3-68.4c-17.6-20.1-41.2-36.5-70.2-48.8
							c-36.4-15.4-81.3-24-133.4-25.9c-8.2-0.3-16.3-0.4-24.3-0.4c-54.1,0-105,6.6-151.3,19.7c-36.9,10.4-71.1,25.1-101.5,43.3
							c-51.6,31.1-74.4,62.3-74.7,62.6c-0.6,0.8-1.5,1.3-2.5,1.4c-0.1,0-0.2,0-0.3,0c-0.9,0-1.8-0.3-2.5-1
							c-18.3-19.3,2-48.8,3.7-51.3c33.1-55.5,85.7-97.3,156.3-124.1c71-26.9,140.6-31,175.7-31c7.2,0,14.4,0.2,21.2,0.5
							c79.9,3.7,141.5,23.4,183,58.5c40.5,34.2,50.6,74.1,53,94.7c6.4,54.4,6.4,69.3,6.4,69.9C758.2,449.3,756.7,450.9,754.9,451
							C754.9,451,754.9,451,754.9,451z"/>
						<path class="st1" d="M494.7,227.4c7.4,0,14.4,0.2,21.1,0.5c178.5,8.3,226.4,95.5,232.8,150.3c6.4,54.8,6.3,69.5,6.3,69.5
							s-7.7-138-239.1-146.2c-8.3-0.3-16.4-0.4-24.4-0.4C253,301,161.4,428.1,161.4,428.1c-17-17.9,4.1-47.2,4.1-47.2
							C238.6,258.2,395,227.4,494.7,227.4 M494.7,220.7c-35.4,0-105.5,4.1-176.9,31.2c-33.1,12.6-62.7,28.7-88.1,48
							c-28.7,21.8-52.2,47.8-69.8,77.5c-1,1.5-6,8.9-9.2,18.4c-4.9,14.9-3,27.8,5.8,37c1.3,1.4,3.1,2.1,4.8,2.1c0.2,0,0.3,0,0.4,0
							c2-0.2,3.8-1.1,5-2.7c0.1-0.1,5.8-7.9,17.8-19.5c11-10.6,29.8-26.7,56.6-42.7c30.1-18,63.9-32.4,100.5-42.7
							c45.9-12.9,96.2-19.5,149.8-19.5c7.9,0,16.1,0.2,24.1,0.4c51.6,1.8,96.1,10.4,131.9,25.5c28.5,12,51.6,28,69,47.6
							c15.4,17.4,23.2,34.7,27,46c4.2,12.3,4.8,20.6,4.8,20.7c0.3,3.6,3.1,6.3,6.6,6.3c0.1,0,0.2,0,0.2,0c3.6-0.1,6.5-3.1,6.5-6.6
							c0-0.6,0-15.8-6.4-70.3c-2.5-21.1-12.7-61.8-54.2-96.8c-42-35.6-104.3-55.5-185-59.3C509.2,220.9,502,220.7,494.7,220.7
							L494.7,220.7z"/>
					</g>
					<g>
						<path class="st0" d="M754.9,451c-1.8,0-3.2-1.4-3.3-3.1l0,0c0-0.3-2.3-34.1-32.3-68.4c-17.6-20.1-41.2-36.5-70.2-48.8
							c-36.4-15.4-81.3-24-133.4-25.9c-8.2-0.3-16.3-0.4-24.3-0.4c-54.1,0-105,6.6-151.3,19.7c-36.9,10.4-71.1,25.1-101.5,43.3
							c-51.6,31.1-74.4,62.3-74.7,62.6c-0.6,0.8-1.5,1.3-2.5,1.4c-0.1,0-0.2,0-0.3,0c-0.9,0-1.8-0.3-2.5-1
							c-18.3-19.3,2-48.8,3.7-51.3c33.1-55.5,85.7-97.3,156.3-124.1c71-26.9,140.6-31,175.7-31c7.2,0,14.4,0.2,21.2,0.5
							c79.9,3.7,141.5,23.4,183,58.5c40.5,34.2,50.6,74.1,53,94.7c6.4,54.4,6.4,69.3,6.4,69.9C758.2,449.3,756.7,450.9,754.9,451
							C754.9,451,754.9,451,754.9,451z"/>
						<path class="st1" d="M494.7,227.4c7.4,0,14.4,0.2,21.1,0.5c178.5,8.3,226.4,95.5,232.8,150.3c6.4,54.8,6.3,69.5,6.3,69.5
							s-7.7-138-239.1-146.2c-8.3-0.3-16.4-0.4-24.4-0.4C253,301,161.4,428.1,161.4,428.1c-17-17.9,4.1-47.2,4.1-47.2
							C238.6,258.2,395,227.4,494.7,227.4 M494.7,220.7c-35.4,0-105.5,4.1-176.9,31.2c-33.1,12.6-62.7,28.7-88.1,48
							c-28.7,21.8-52.2,47.8-69.8,77.5c-1,1.5-6,8.9-9.2,18.4c-4.9,14.9-3,27.8,5.8,37c1.3,1.4,3.1,2.1,4.8,2.1c0.2,0,0.3,0,0.4,0
							c2-0.2,3.8-1.1,5-2.7c0.1-0.1,5.8-7.9,17.8-19.5c11-10.6,29.8-26.7,56.6-42.7c30.1-18,63.9-32.4,100.5-42.7
							c45.9-12.9,96.2-19.5,149.8-19.5c7.9,0,16.1,0.2,24.1,0.4c51.6,1.8,96.1,10.4,131.9,25.5c28.5,12,51.6,28,69,47.6
							c15.4,17.4,23.2,34.7,27,46c4.2,12.3,4.8,20.6,4.8,20.7c0.3,3.6,3.1,6.3,6.6,6.3c0.1,0,0.2,0,0.2,0c3.6-0.1,6.5-3.1,6.5-6.6
							c0-0.6,0-15.8-6.4-70.3c-2.5-21.1-12.7-61.8-54.2-96.8c-42-35.6-104.3-55.5-185-59.3C509.2,220.9,502,220.7,494.7,220.7
							L494.7,220.7z"/>
					</g>
					<path class="st1" d="M537.1,226.6c0,0-128.9,31.3-172.6,78.8l-33.5,9v-34.6c0,0-67.4,64-99.1,80.7l-8-30.7l-19.3,52.7
						c0,0-25,5.4-17.7-33.7C192.2,320.2,381.4,195.3,537.1,226.6z"/>
					<g>
						<path class="st1" d="M748.6,423.5c-1.1-7-2.9-13.8-5.4-20.5c-2.5-6.6-5.5-13-9.1-19.1c-7.3-12.1-16.6-22.8-27.2-32.1
							c-10.6-9.2-22.4-17.1-34.9-23.5c-12.5-6.5-25.6-11.8-39-16.1c-6.7-2.2-13.5-4.1-20.3-5.8l-10.3-2.5l-10.4-2.1
							c-1.7-0.3-3.5-0.7-5.2-0.9l-5.2-0.8l-5.2-0.8l-5.3-0.7c-3.5-0.4-7-1-10.5-1.4l-10.5-1.1l-2.6-0.3l-2.6-0.2l-5.3-0.4
							c-3.5-0.3-7-0.6-10.5-0.8l-10.6-0.6l-2.6-0.2l-2.6-0.1l-5.3-0.2c-14.1-0.3-28.2-0.1-42.3,0.6c-28.2,1.4-56.3,4.8-84,10.2
							c-13.8,2.6-27.6,5.9-41.2,9.8l-5.1,1.4c-1.7,0.5-3.4,1-5.1,1.5l-5,1.6c-1.7,0.5-3.4,1-5,1.6l-10,3.4l-9.9,3.7
							c-13.2,5.1-26.1,10.9-38.6,17.3c-12.6,6.5-24.5,13.9-36.1,22.1c-5.9,4-11.3,8.4-16.8,12.8l-8,7l-1,0.8l-0.9,0.9l-1.9,1.9
							l-3.8,3.7c-2.6,2.4-4.9,5-7.4,7.6l-3.7,3.9c-1.2,1.4-2.3,2.7-3.4,4.1l-3.4,4.1l-1.7,2c-0.5,0.7-1.1,1.4-1.6,2.1l-6.4,8.5
							l6-8.7c0.5-0.8,1-1.4,1.5-2.2l1.6-2.1l3.3-4.2c1.1-1.4,2.2-2.8,3.3-4.2l3.6-4c2.4-2.6,4.7-5.4,7.2-7.9l3.7-3.8l1.9-1.9
							l0.9-0.9l1-0.9l7.9-7.2c5.4-4.6,10.9-9.2,16.6-13.4l4.2-3.2l4.4-3c3-2,5.9-4.1,8.9-5.9c3.1-1.9,6-3.8,9.1-5.6l9.3-5.3
							c12.6-6.8,25.5-12.7,38.7-18.1c13.2-5.4,26.8-9.9,40.4-13.8c13.7-4,27.5-7.4,41.4-10.2c27.9-5.5,56.2-9,84.7-10.5
							c14.2-0.7,28.5-0.9,42.7-0.5l5.4,0.2l2.6,0.1l2.6,0.2l10.7,0.6c3.6,0.2,7.1,0.5,10.6,0.8l5.4,0.4l2.6,0.3l2.6,0.3
							c28.3,3.1,56.6,8.2,83.6,17.3c13.5,4.6,26.8,10.1,39.3,16.9c12.6,6.8,24.4,15,35,24.6c10.5,9.6,19.7,20.8,26.8,33.2
							c3.5,6.2,6.4,12.7,8.7,19.5C746.2,409.5,747.8,416.5,748.6,423.5z"/>
					</g>
					<ellipse class="st1" cx="463.2" cy="514.7" rx="41.4" ry="43.1"/>
					<g>
						<ellipse class="st0" cx="487.8" cy="489.3" rx="22.2" ry="23.2"/>
					</g>
					<g>
						<path class="st0" d="M364.6,354.3c0,0,131.8-24.4,217.4,1.4c0,0-53.3,59.2-117.9,49.3C464,405.1,359.9,389.5,364.6,354.3z"/>
					</g>
					<path class="st6" d="M588.5,351c-69,25.7-124.4,54.1-223.9,4.8c-4.2-2.1-8.2,2.5-4.9,5.9c40.3,42.4,122.6,95,233.1-4.4
						C596.4,354.2,592.9,349.3,588.5,351z"/>
					<path class="st6" d="M468,223.5v64.4l46.6,0.3l-5.8-60.9l-9.6-1.6c0,0,8.4,53-4.5,46.5c-12.9-6.5-5.9-47.6-5.9-47.6L468,223.5z
						"/>
					<path class="st1" d="M585,298.2l29,6.3c0,0,0-73.9-43.7-73.9C570.4,230.6,589.1,277,585,298.2z"/>
					<polygon class="st1" points="393.5,234.9 377.5,301.5 429.5,294.3 437.4,226.5 					"/>
					<path class="st2" d="M584.1,703.4c-14.4,11-34.5,15.8-57,9.4c-73.9-20.8-91.6-3.7-127.2,4.8c-17.9,4.3-40.6-2.1-57.5-16.9
						c-16.8-14.6-27.9-37.5-23.4-66.2c1.8-11.4,5.5-18.3,23.6-14.3c11.5,2.5,28.6,9.3,54.7,22.1c56.2,27.4,151.3-17.8,186.5-25
						c6.9-1.4,11.6-1.4,13.1,1C617.1,649.3,608.2,685,584.1,703.4z"/>
					<path class="st13" d="M584.1,703.4l-19.4-28.5l18.9-57.5c6.9-1.4,11.6-1.4,13.1,1C617.1,649.3,608.2,685,584.1,703.4z"/>
					<path class="st13" d="M360.4,675l-18.1,25.8c-16.8-14.6-27.9-37.5-23.4-66.2c1.8-11.4,5.5-18.3,23.6-14.3L360.4,675z"/>
					<g>
						
							<linearGradient id="SVGID_9_" gradientUnits="userSpaceOnUse" x1="112.2922" y1="905.6997" x2="861.6791" y2="905.6997" gradientTransform="matrix(1 0 0 -1 0 1216)">
							<stop  offset="0" style="stop-color:#52FFCE"/>
							<stop  offset="0.9948" style="stop-color:#6700E4"/>
						</linearGradient>
						<path class="st14" d="M266,269.3c0,0-61.6,73.1-86.5,107.3c0,0-48.8-66.3,33.1-132.5"/>
						<path class="st1" d="M266,269.3c-6.9,9.3-13.8,18.3-20.8,27.5c-7,9.1-14,18.2-21.1,27.3L203,351.2c-7,9.1-14,18.2-20.7,27.3
							l0,0c-1.1,1.4-3.1,1.8-4.6,0.8c-0.3-0.2-0.5-0.4-0.8-0.8c-0.6-0.8-1-1.4-1.4-2.1c-0.4-0.7-0.8-1.4-1.3-2.1
							c-0.8-1.4-1.6-2.9-2.4-4.3c-1.4-2.9-2.8-5.9-3.9-9c-2.3-6.1-3.9-12.5-4.9-18.9c-1.9-12.9-0.8-26.2,3.1-38.6
							c2-6.2,4.6-12.1,7.7-17.8c3.2-5.6,6.9-10.9,10.9-15.8c8.2-9.9,17.6-18.4,27.9-25.7c-9.3,8.5-18,17.7-25.2,27.8
							c-3.7,5-6.9,10.4-9.6,15.9c-1.4,2.8-2.6,5.6-3.7,8.4c-1.1,2.9-2,5.8-2.9,8.7c-1.5,5.9-2.6,12-3,18c-0.3,6,0,12.1,1,18.2
							c0.9,6,2.6,11.9,4.8,17.6c1.1,2.8,2.3,5.6,3.7,8.3c0.7,1.4,1.4,2.7,2.2,4c0.3,0.7,0.8,1.3,1.2,2c0.4,0.6,0.8,1.3,1.2,1.8h-5.4
							c6.9-9.3,13.9-18.3,21.2-27.3c7.2-8.9,14.5-17.8,22.1-26.5c7.4-8.7,15-17.4,22.6-26C250.4,286.2,258.1,277.7,266,269.3z"/>
					</g>
					<g>
						
							<linearGradient id="SVGID_10_" gradientUnits="userSpaceOnUse" x1="112.2922" y1="943.1141" x2="861.6791" y2="943.1141" gradientTransform="matrix(1 0 0 -1 0 1216)">
							<stop  offset="0" style="stop-color:#52FFCE"/>
							<stop  offset="0.9948" style="stop-color:#6700E4"/>
						</linearGradient>
						<path class="st15" d="M385.4,237.1c-3.6-1.6-128,60.4-169.9,121.2c0,0-34.7-123.1,80-170.8"/>
						<path class="st1" d="M385.4,237.1c-0.5-0.1-1.1,0.2-1.6,0.3c-0.5,0.2-1,0.4-1.5,0.6c-1,0.4-2,0.8-3,1.4c-2,0.9-3.9,2-5.9,3
							c-3.9,2-7.7,4.1-11.6,6.2c-7.6,4.2-15.3,8.7-22.8,13.2c-7.6,4.5-14.9,9.2-22.3,13.9c-7.4,4.8-14.6,9.6-21.8,14.6
							c-3.6,2.5-7.1,5.1-10.6,7.6c-3.6,2.5-7,5.2-10.5,7.8c-7,5.4-13.7,10.8-20.2,16.6c-6.5,5.7-12.9,11.6-18.9,17.9
							c-5.9,6.3-11.6,12.9-16.4,19.9v0.1c-1,1.5-3.1,1.9-4.6,0.8c-0.7-0.4-1.1-1.1-1.3-1.9c-0.6-2.3-1-4.3-1.5-6.5
							c-0.4-2.1-0.8-4.3-1.2-6.5c-0.7-4.3-1.2-8.7-1.6-13.1c-0.8-8.7-0.9-17.6-0.3-26.3c1.1-17.5,4.8-35,12.1-51
							c3.6-8.1,8-15.7,13.3-22.8c2.6-3.6,5.4-6.9,8.4-10.1c3-3.2,6.1-6.3,9.4-9.2l2.5-2.1l1.3-1l1.3-1l2.5-2l2.6-2
							c0.8-0.7,1.8-1.3,2.7-1.9l2.7-1.8l2.8-1.7c0.9-0.6,1.9-1.1,2.8-1.6l2.8-1.6c0.9-0.5,2-1,2.9-1.5c2-1,3.9-2,5.9-2.9l1.4-0.7
							l1.5-0.7l3-1.3c2-0.8,4-1.6,6-2.4c-2,0.9-3.9,1.9-5.9,2.8l-2.9,1.5l-1.4,0.8l-1.4,0.8l-2.8,1.6c-0.9,0.5-1.9,1.1-2.8,1.6
							c-0.9,0.6-1.9,1.1-2.7,1.7l-2.7,1.8c-7.2,4.7-13.9,10-20,16c-12.3,11.8-22,26.1-28.5,41.8c-6.5,15.6-9.8,32.4-10.5,49.4
							c-0.3,8.5-0.2,17,0.6,25.4c0.4,4.2,0.9,8.4,1.6,12.6c0.3,2.1,0.8,4.2,1.2,6.2s0.9,4.2,1.4,6l-5.9-1c5.1-7.5,11-14.2,17.2-20.6
							c6.2-6.5,12.7-12.5,19.5-18.2c6.8-5.7,13.8-11.2,20.8-16.4c3.6-2.6,7.1-5.2,10.8-7.7c3.7-2.5,7.3-5,11-7.4
							c7.4-4.8,14.9-9.5,22.4-14c7.6-4.5,15.3-8.8,23-13c7.7-4.2,15.6-8.2,23.5-12c4-1.9,8-3.7,12-5.5c2-0.8,4.1-1.7,6.1-2.5
							c1-0.4,2-0.8,3.1-1.1c0.5-0.2,1-0.3,1.6-0.5C384.3,237.3,384.9,237,385.4,237.1z"/>
					</g>
					<path class="st6" d="M223.9,329.8c0,0,48.8-54.4,80.7-62.2c0,0,2.8-20.4,5.9-28.1c0,0-36.3,17.1-50.5,28.1
						c0,0,18.6-24.8,40.7-36.5c0,0-34.9,5.9-45.4,16.3c0,0,23.6-43.7,74.2-55.1c0,0-72.8-3.4-99.8,80.7c0,0,14.9-14.9,36.4-25.5
						c0,0-24.9,31.7-34.2,50.7c0,0,22.4-17.2,42.4-25.1C274.3,272.9,231,309.3,223.9,329.8z"/>
					<g>
						
							<linearGradient id="SVGID_11_" gradientUnits="userSpaceOnUse" x1="112.2922" y1="968.6375" x2="861.6791" y2="968.6375" gradientTransform="matrix(1 0 0 -1 0 1216)">
							<stop  offset="0" style="stop-color:#52FFCE"/>
							<stop  offset="0.9948" style="stop-color:#6700E4"/>
						</linearGradient>
						<path class="st16" d="M590.4,223.8c0,0-187-9-274.3,104.3c0,0-52.1-97.9,62.7-161.4"/>
						<path class="st1" d="M590.4,223.8c-6.4,0-12.7,0.3-18.9,0.6c-6.3,0.3-12.7,0.8-18.9,1.4c-12.6,1.1-25.1,2.7-37.5,4.7
							c-6.2,1-12.4,2.1-18.6,3.4c-6.2,1.2-12.3,2.5-18.4,4.1c-12.2,3-24.3,6.5-36.2,10.4c-11.9,4.1-23.5,8.7-34.9,14
							c-11.4,5.3-22.3,11.2-32.9,18c-5.3,3.3-10.4,7-15.4,10.7s-9.8,7.7-14.4,11.8c-4.7,4.2-9.1,8.5-13.4,13.1
							c-4.2,4.5-8.2,9.3-12.1,14.2l-0.1,0.1c-1.1,1.4-3.1,1.5-4.4,0.5c-0.3-0.3-0.6-0.7-0.8-1c-0.5-1-0.9-2-1.4-2.9s-0.8-2-1.2-2.9
							c-0.8-2-1.5-3.8-2.2-5.8c-1.4-3.9-2.5-7.9-3.5-11.9c-2-8-3.1-16.2-3.5-24.4c-0.6-16.5,2.2-33.1,8.8-48.2
							c1.6-3.7,3.5-7.5,5.5-11c2-3.6,4.2-7,6.7-10.3c1.2-1.7,2.5-3.2,3.7-4.8c1.4-1.5,2.6-3.1,4-4.7c2.7-3.1,5.6-5.9,8.5-8.7
							c11.9-11,25.6-20,39.8-27.3c-13.8,8.2-26.8,17.8-38.1,29.2c-11.1,11.4-20.4,24.6-26.2,39.3c-5.9,14.6-8.2,30.5-7.2,46.2
							c0.4,7.8,1.7,15.6,3.7,23.3c1,3.8,2.1,7.6,3.5,11.2c0.7,1.9,1.4,3.7,2.1,5.4c0.4,0.9,0.8,1.8,1.2,2.6s0.8,1.8,1.3,2.5
							l-5.3-0.4c2-2.5,3.9-5.1,6-7.5c1-1.2,2-2.5,3.1-3.7l3.2-3.6c4.4-4.7,8.9-9.3,13.8-13.5c9.5-8.6,19.8-16.4,30.7-23.2
							c10.8-6.9,22.2-12.9,33.7-18.3c11.6-5.3,23.6-9.8,35.8-13.8c12.1-3.9,24.5-7.1,36.9-9.8c6.2-1.4,12.5-2.5,18.8-3.6
							c6.3-1,12.6-2,18.9-2.7c12.6-1.6,25.3-2.5,38-3.1C565.1,222.9,577.8,222.9,590.4,223.8z"/>
					</g>
					<g>
						<path class="st0" d="M308.3,560.9c0,0,74.7,3.7,96.8,49.7"/>
						<path class="st1" d="M308.3,560.9c2.4-0.3,4.8-0.3,7.1-0.3s4.8,0.1,7.2,0.3c4.8,0.3,9.5,0.9,14.3,1.8c4.8,0.8,9.4,2,14,3.3
							c2.3,0.7,4.6,1.4,6.9,2.2c2.3,0.8,4.5,1.7,6.8,2.7c8.9,3.8,17.4,9,24.6,15.6c3.6,3.3,6.8,7,9.6,11c2.6,4.1,4.8,8.4,6.3,13
							c-1.4-2-2.7-3.9-4.2-5.7c-1.4-1.9-3.1-3.6-4.6-5.3c-3.2-3.3-6.7-6.3-10.4-9.1c-7.4-5.4-15.5-9.9-24-13.5
							c-4.2-1.9-8.6-3.5-12.9-5c-4.4-1.5-8.8-3-13.3-4.2c-4.5-1.3-9-2.5-13.6-3.7c-2.3-0.6-4.6-1.1-6.9-1.7
							C313,562,310.6,561.5,308.3,560.9z"/>
					</g>
					<g>
						<path class="st0" d="M618.8,564.2c0,0-74.7,3.7-96.8,49.7"/>
						<path class="st1" d="M618.8,564.2c-2.4,0.5-4.7,1-7,1.5c-2.3,0.6-4.6,1.1-6.9,1.7c-4.6,1.1-9.1,2.3-13.6,3.7
							c-4.5,1.3-8.9,2.7-13.3,4.2c-4.4,1.5-8.7,3.1-12.9,5c-8.5,3.7-16.6,8.1-24,13.5c-3.7,2.7-7.1,5.8-10.4,9.1
							c-1.5,1.7-3.1,3.4-4.6,5.3c-1.5,1.8-2.8,3.7-4.2,5.7c1.4-4.6,3.7-8.9,6.3-13c2.7-4,6-7.7,9.6-11c7.2-6.6,15.7-11.7,24.6-15.6
							c2.2-0.9,4.5-1.9,6.8-2.7c2.3-0.8,4.6-1.6,6.9-2.2c4.7-1.4,9.3-2.5,14-3.3c4.8-0.8,9.5-1.4,14.3-1.8c2.4-0.2,4.8-0.3,7.2-0.3
							C613.9,563.9,616.3,563.9,618.8,564.2z"/>
					</g>
					<path class="st1" d="M519.5,680.3c0,0,40-9.3,46.6-20l1.4,16.1C567.4,676.4,546.5,684.3,519.5,680.3z"/>
				</g>
			</g>
		</g>
		<path class="st6" d="M329.5,308c0,0,79.2-88.9,244-78.4c0,0-44.9-17.2-93-10.6c0,0,52.2-16.7,97.9-9.8c0,0-49.2-31.9-90.5-19.6
			c0,0,10.6-17.9,54.7-15.5c0,0-79.2-36.7-168.2,28.1c0,0,55.2-20,89.2-18.3c0,0-59,28.5-94.8,60c0,0,11.4-26,29.9-41.7
			C398.6,202.3,340.1,215,329.5,308z"/>
	</g>
</g>
</svg>
