<?xml version="1.0" encoding="utf-8"?>
<!-- Generator: Adobe Illustrator 22.0.1, SVG Export Plug-In . SVG Version: 6.00 Build 0)  -->
<svg version="1.1" id="Capa_1" xmlns="http://www.w3.org/2000/svg" xmlns:xlink="http://www.w3.org/1999/xlink" x="0px" y="0px"
	 viewBox="0 0 1097.5 1215.7" style="enable-background:new 0 0 1097.5 1215.7;" xml:space="preserve">
<style type="text/css">
	.st0{fill:#FFFFFF;}
	.st1{fill:#5E004D;}
	.st2{fill:#FFFFFF;stroke:#5E004D;stroke-width:6.6176;stroke-linecap:round;stroke-linejoin:round;stroke-miterlimit:10;}
	.st3{fill:url(#SVGID_1_);}
	.st4{fill:#FFFFFF;stroke:#5E004D;stroke-width:4.9632;stroke-linecap:round;stroke-linejoin:round;stroke-miterlimit:10;}
	.st5{fill:url(#SVGID_2_);}
	.st6{fill:url(#SVGID_3_);}
	.st7{fill:url(#SVGID_4_);}
	.st8{fill:none;stroke:#5E004D;stroke-width:4.9632;stroke-linecap:round;stroke-linejoin:round;stroke-miterlimit:10;}
	.st9{fill:url(#SVGID_5_);}
	.st10{fill:#5E004D;stroke:#5E004D;stroke-width:0.8272;stroke-linecap:round;stroke-linejoin:round;stroke-miterlimit:10;}
	.st11{fill:url(#SVGID_6_);stroke:#5E004D;stroke-width:6.6176;stroke-linecap:round;stroke-linejoin:round;stroke-miterlimit:10;}
	.st12{fill:url(#SVGID_7_);stroke:#5E004D;stroke-width:6.6176;stroke-linecap:round;stroke-linejoin:round;stroke-miterlimit:10;}
	.st13{fill:url(#SVGID_8_);}
	.st14{fill:#5E004D;stroke:#5E004D;stroke-width:6.6176;stroke-linecap:round;stroke-linejoin:round;stroke-miterlimit:10;}
	.st15{fill:url(#SVGID_9_);}
	.st16{fill:url(#SVGID_10_);}
	.st17{fill:url(#SVGID_11_);}
	.st18{fill:url(#SVGID_12_);}
	.st19{fill:url(#SVGID_13_);}
	.st20{fill:url(#SVGID_14_);}
	.st21{fill:url(#SVGID_15_);}
	.st22{fill:url(#SVGID_16_);}
	.st23{fill:url(#SVGID_17_);}
	.st24{fill:url(#SVGID_18_);}
	.st25{fill:url(#SVGID_19_);}
	.st26{fill:url(#SVGID_20_);}
	.st27{fill:url(#SVGID_21_);}
	.st28{fill:url(#SVGID_22_);}
	.st29{fill:url(#SVGID_23_);}
	.st30{fill:url(#SVGID_24_);}
	.st31{fill:url(#SVGID_25_);}
	.st32{fill:url(#SVGID_26_);}
	.st33{fill:url(#SVGID_27_);}
	.st34{fill:url(#SVGID_28_);}
	.st35{fill:url(#SVGID_29_);}
	.st36{fill:url(#SVGID_30_);}
	.st37{fill:url(#SVGID_31_);}
	.st38{fill:url(#SVGID_32_);}
	.st39{fill:url(#SVGID_33_);}
	.st40{fill:url(#SVGID_34_);}
	.st41{fill:url(#SVGID_35_);}
	.st42{fill:url(#SVGID_36_);}
	.st43{fill:url(#SVGID_37_);}
	.st44{fill:url(#SVGID_38_);}
	.st45{fill:url(#SVGID_39_);}
	.st46{fill:url(#SVGID_40_);}
	.st47{fill:url(#SVGID_41_);}
	.st48{fill:url(#SVGID_42_);}
	.st49{fill:url(#SVGID_43_);}
	.st50{fill:url(#SVGID_44_);}
	.st51{fill:url(#SVGID_45_);}
	.st52{fill:url(#SVGID_46_);}
	.st53{fill:url(#SVGID_47_);stroke:#5E004D;stroke-width:6.6176;stroke-linecap:round;stroke-linejoin:round;stroke-miterlimit:10;}
</style>
<g>
	<g>
		<g>
			<path class="st0" d="M179.6,940.5c-1.6,0-3.2-0.2-5-0.4c-7.5-1.3-12.8-4.6-15.6-9.8c-1.8-3.4-2.4-7.1-2.2-10.7
				c-3.1,2.1-6.8,3.6-11.3,3.6c-2.2,0-4.6-0.4-6.9-1.2c-6.4-2-8.9-6-9.8-9.1c-1.6-5.1-0.3-11.9,3.7-20c-2.3,0.7-4.5,1.2-6.7,1.2
				c-3.9,0-7.2-1.3-9.6-3.8c-3-3.1-4.4-7.6-4.3-13.6c0.2-7.7,4.2-18,22.4-23.4c10.3-3,20.3-3.1,20.7-3.1c0.9,0,1.7,0.4,2.4,1
				l51.3,54c0.7,0.7,1.1,1.8,0.8,2.9c-0.1,0.3-1.5,8-5.6,15.8C198,934.8,189.6,940.5,179.6,940.5L179.6,940.5z"/>
			<path class="st1" d="M154.9,853.6L154.9,853.6l51.3,54c0,0-5.3,29.6-26.6,29.6c-1.4,0-2.8-0.2-4.4-0.4
				c-21.9-3.8-14.3-24.8-12.1-29.9c0.3-0.7,0.5-1.2,0.5-1.2s-0.2,0.4-0.5,1.2c-1.7,3.3-7.3,12.9-17.7,12.9c-1.8,0-3.8-0.3-6-1
				c-20-6.4,3.2-36.1,3.2-36.1c-4.6,4.6-11.3,8-17,8c-6,0-10.8-3.8-10.6-14C115.7,853.6,154.7,853.6,154.9,853.6 M154.9,847
				c-0.4,0-11,0-21.7,3.1c-6.6,2-12.1,4.7-16.1,8.3c-5.5,4.8-8.5,11.1-8.7,18.2c-0.2,6.9,1.6,12.3,5.2,16c3.1,3.1,7.2,4.8,12,4.8
				c0.4,0,0.7,0,1.2,0c-2.3,6.4-2.8,11.9-1.4,16.5c1.2,3.8,4.2,8.9,11.9,11.2c2.6,0.8,5.4,1.3,7.9,1.3c3.1,0,6-0.6,8.4-1.6
				c0.4,2.3,1.2,4.7,2.3,6.9c4.1,7.7,12.1,10.5,18,11.6c1.8,0.3,3.7,0.5,5.5,0.5c11.3,0,20.7-6.3,27.1-18.3c4.5-8.3,6-16.5,6-16.8
				c0.3-2.1-0.2-4.2-1.7-5.7l-51.3-54C158.5,847.7,156.8,847,154.9,847L154.9,847z"/>
		</g>
		<path class="st1" d="M158,859.4c0,0-34.5,0-35,20.3c-0.4,17.4,15.8,13.7,24.2,5.3c0,0-20.4,26.1-2.8,31.7
			c14.8,4.7,21.3-11.5,21.3-11.5s-11.8,23.5,10.2,27.3s27.2-25.6,27.2-25.6L158,859.4z"/>
		<g>
			<path class="st0" d="M213.7,962.5c-8.3,0-15-2.8-19.9-8.4c-9.4-10.7-9.3-28.4-8.9-34.8c-14.1-7.7-39.5-39.5-46-47.9
				c-3,0.5-5.9,0.7-8.8,0.7c-22.3,0-37.1-14.8-41.6-28.6c-3.2-9.9-1.2-19,5.5-23.8c3.1-2.2,5.7-3.2,8.4-3.2c3.5,0,6,1.9,8.5,3.6
				c3.2,2.3,6.5,4.8,13.1,4.8c7,0,16.5-3,28-8.8c17.5-8.7,30.4-13.2,38.7-13.2c4.3,0,7.5,1.2,9.5,3.5c1,1.1,1.5,2.3,1.7,3.3
				c4.3,2.1,13.1,9.3,27.5,40.2c8.4,18.1,14.9,35.9,14.9,36.1c0.5,1.4,0,3-1.2,3.8c-22.7,16.4-19.9,36-17.8,50.3
				c1.2,8.1,2.1,14.5-1.6,18.7C221.7,961.4,218.4,962.5,213.7,962.5z"/>
			<path class="st1" d="M190.8,806.4c9,0,8.1,5.9,8.1,5.9c17,4.5,42.4,74.9,42.4,74.9c-42.4,30.7-1.5,72-27.5,72
				c-30.4,0-25.3-41.9-25.3-41.9c-14.1-5.1-48.1-49.5-48.1-49.5c-3.6,0.7-6.9,1.1-10.2,1.1c-33.5,0-49-35.8-34.2-46.4
				c2.6-1.9,4.6-2.6,6.5-2.6c6,0,8.9,8.4,21.6,8.4c6.6,0,15.9-2.2,29.5-9.1C173.2,809.3,184.4,806.4,190.8,806.4 M190.8,799.8
				c-8.9,0-22.1,4.4-40.2,13.5c-11.2,5.5-20.1,8.4-26.6,8.4c-5.5,0-8.1-1.9-11.2-4.1c-2.6-1.9-6-4.3-10.5-4.3
				c-3.3,0-6.7,1.2-10.3,3.9c-7.8,5.6-10.3,16.1-6.7,27.5c2.6,8.1,8.1,15.6,15.4,21.3c8.4,6.4,18.4,9.7,29.4,9.7
				c2.4,0,4.9-0.2,7.4-0.5c3.3,4.1,9.5,11.8,16.6,20c14.5,16.5,22.7,23.2,27.4,26.2c-0.1,2.5-0.1,5.9,0.2,9.5
				c1,10.9,4.2,19.6,9.5,25.6c5.5,6.3,13.2,9.5,22.4,9.5c5.6,0,9.8-1.7,12.7-4.8c4.6-5.4,3.6-12.7,2.3-21.3
				c-2.1-14.2-4.6-31.9,16.4-47.2c2.4-1.7,3.3-4.8,2.3-7.6c-0.2-0.7-6.5-18.1-15.1-36.3c-13-27.8-21.7-37.5-27.7-41
				c-0.4-1.1-1.1-2.2-2-3.2C200.1,801.3,196.1,799.8,190.8,799.8L190.8,799.8z"/>
		</g>
		<path class="st2" d="M343.8,712.6c0,0-96,48-158.7,114c0,0-13,59.4,31.5,75c0,0,148.4-58.2,174-43.3
			C390.6,858.4,418.7,723.9,343.8,712.6z"/>
		<g>
			<path class="st0" d="M129.8,851.7c0,0,0.2,41.9,30.9,40.8c0,0,13.2,33,36.7,35.4"/>
			<path class="st1" d="M129.8,851.7c0.9,4.7,2,9.3,3.6,13.8c1.5,4.4,3.4,8.7,5.9,12.3c1.2,1.8,2.6,3.6,4.1,5c1.6,1.5,3.2,2.7,5,3.7
				c3.6,2,7.9,2.6,12.2,2.6h0.1c1.4,0,2.6,0.8,3.1,2.1c0.3,0.9,0.8,1.9,1.2,2.8c0.5,1,0.9,1.9,1.4,2.9c1,1.9,2,3.8,3.1,5.6
				c2.2,3.7,4.5,7.3,7.2,10.6c2.6,3.3,5.6,6.4,9,8.9c1.7,1.2,3.6,2.4,5.5,3.4c2,0.9,4,1.7,6.2,2.3c-2.2,0.1-4.5-0.2-6.8-0.7
				c-2.2-0.5-4.4-1.3-6.5-2.4c-4.1-2.1-7.9-5-11.2-8.2c-3.3-3.2-6.2-6.9-8.7-10.8c-1.2-1.9-2.5-3.9-3.6-5.9c-0.6-1-1.1-2.1-1.6-3.1
				c-0.5-1.1-1-2.1-1.5-3.2l3.1,2.1h-2h-1c-0.3,0-0.7-0.1-1-0.1l-2-0.2l-2-0.4c-2.6-0.6-5.2-1.6-7.5-3s-4.5-3.1-6.2-5.1
				c-1.7-2-3.2-4.1-4.4-6.5c-2.4-4.5-3.8-9.4-4.5-14.3c-0.3-2.4-0.6-4.9-0.7-7.3C129.5,856.6,129.5,854.1,129.8,851.7z"/>
		</g>
		<path class="st1" d="M165.8,809.3c0,0-11.1,25.9-35.9,24.2c0,0,6.9,42.9,33.7,39.9c0,0,19.3,45.7,39.5,44.4c0,0,13.3,17.9,0,19.4
			c0,0-9.3,18.4,10.6,22.1c19.9,3.6,12.2-22.1,12.2-22.1l1.3-27.5L165.8,809.3z"/>
	</g>
	<g>
		<g>
			<path class="st0" d="M485.8,1171.6c-30.1,0-55.8-4.5-56.1-4.5c-0.7-0.1-1.2-0.4-1.7-0.9c-0.3-0.2-29.4-28.9-60.5-70.6
				c-52.1-69.8-69.6-122.3-75.1-153.9c-6-34.5-4.3-69.8,5-105c7.4-28.1,19.8-56.2,36.6-83.5c28.7-46.4,61-74.9,61.4-75.2
				c0.5-0.4,1.2-0.7,1.8-0.8l258.4-30.2c0.2,0,0.2,0,0.4,0c0.9,0,1.8,0.4,2.5,1.1c0.7,0.7,1,1.9,0.8,2.9
				c-30,144.8-8,211.5,6.5,255.8c7.7,23.3,13.7,41.8,9.2,62.3c-7.8,34.8-30.8,62-66.6,78.6c-23.1,10.8-44.2,13.8-50.3,14.6
				c-18.2,32.8,0.9,91.7,1.2,92.3c0.5,1.6-0.2,3.2-1.7,4C540.4,1167.3,516.3,1171.6,485.8,1171.6L485.8,1171.6z"/>
			<path class="st1" d="M656.1,650.4L656.1,650.4 M656.1,650.4c-45.8,221,28.5,260.4,15.6,318c-18.4,82.6-115.6,90.7-115.6,90.7
				c-20.6,34.3,0,96.5,0,96.5c-19.6,9.9-46.4,12.7-70.2,12.7c-30.2,0-55.5-4.4-55.5-4.4S314.8,1051,295.6,941.2
				c-26-149.1,102-260.6,102-260.6L656.1,650.4 M656.1,643.8c-0.1,0-0.1,0-0.2,0l0,0l0,0c-0.2,0-0.5,0-0.7,0.1l-258.3,30.2
				c-1.3,0.2-2.6,0.7-3.6,1.6c-1.3,1.2-33.1,29.1-62,75.9c-17,27.5-29.5,55.9-37.1,84.4c-9.5,35.7-11.2,71.5-5.1,106.5
				c4.5,25.7,14.5,53.7,29.8,83.1c12.2,23.3,27.5,47.6,46,72.3c31.2,41.9,59.6,69.7,60.8,71c1,0.9,2.2,1.6,3.5,1.8
				c1.1,0.2,26.3,4.5,56.7,4.5c31,0,55.7-4.5,73.2-13.4c2.9-1.5,4.3-4.9,3.3-8c-0.2-0.6-18.4-56.3-2.2-88.2
				c7.9-1.1,28-4.5,49.5-14.6c16.2-7.5,29.9-17.2,40.9-28.8c13.8-14.6,23-32.1,27.5-52.1c4.8-21.4-1.4-40.2-9.3-64
				c-7.3-22.2-16.4-49.8-19.9-89.5c-4.1-47,0.2-100.7,13.5-164.3c0.1-0.5,0.2-1,0.2-1.6C662.7,646.8,659.8,643.9,656.1,643.8
				C656.1,643.8,656.1,643.8,656.1,643.8L656.1,643.8z M656.1,657L656.1,657L656.1,657L656.1,657z"/>
		</g>
		<g>
			
				<linearGradient id="SVGID_1_" gradientUnits="userSpaceOnUse" x1="278.6722" y1="124.6381" x2="400.2709" y2="124.6381" gradientTransform="matrix(1 0 0 -1 0 1216)">
				<stop  offset="0" style="stop-color:#52FFCE"/>
				<stop  offset="0.9948" style="stop-color:#6700E4"/>
			</linearGradient>
			<path class="st3" d="M333.1,1037.6c29.4,51.4,67.3,94.6,85.9,114.5h35.7v-121.5H333.1V1037.6z"/>
		</g>
		<path class="st1" d="M377.3,1082.9c0,0,21.4,42,29.4,47.2l20.1-51L377.3,1082.9z"/>
		<path class="st2" d="M676.7,959.2c0,0,24.7,90.1-129.9,231c0,0-158.7,15.2-168.6,0c-9.9-15.2,56-218.3,165.1-223.8"/>
		<path class="st1" d="M396.2,1122.8c0,0,112.7-25.2,171.5,50.7l19.4-18.6c0,0-71.1-93.4-180.5-58.4L396.2,1122.8z"/>
		<polygon class="st1" points="494.1,1100.2 470.4,1155.3 434.8,1148.3 453.9,1097.2 		"/>
		<polygon class="st4" points="480,1100.2 456.3,1155.3 420.7,1148.3 439.7,1097.2 		"/>
		<path class="st1" d="M414.2,1075.8c0,0,48.6-52.2,120.2,5.1c60.1,48.1,69.2,48.1,69.2,48.1l37.2-56.7
			C640.8,1072.3,473.2,939.3,414.2,1075.8z"/>
		<g>
			<path class="st0" d="M617.3,1093.1c-6.5,0-12.7-1.1-18.6-3.1c-13.4-4.8-26.9-11.6-41.2-18.9c-26.8-13.6-54.4-27.7-82.6-27.7
				c-25,0-47.5,11.3-68.7,34.7c-0.4,0.4-0.9,0.7-1.5,0.9c-0.8,0.2-21.5,6.4-52.3,6.4c-29.8,0-58.2-5.6-84.4-16.8
				c-1.6,0.2-4.7,0.6-8.9,0.6c-8.9,0-22-1.6-34.5-9.3c-15-9.1-25.1-24.4-30.1-45.5c-0.3-1.6,0.4-3.1,1.8-3.8
				c0.2-0.1,15.3-7.1,31.8-24c15.2-15.5,34.8-42.8,41.7-84.4c0.2-1.5,3.6-25.1,13.9-54.8c9.7-27.8,27.5-66.1,57.5-90.6
				c0.6-0.5,1.3-0.7,2.1-0.7c0,0,0,0,0.1,0c0.6,0,58.9,1.2,125.3,8.4c89.6,9.8,150.6,25.6,181.3,46.9c0.7,0.4,1.1,1.1,1.3,1.8
				c0.2,1,28,101,42.8,133.1c14.2,30.7,20.3,34.2,24,36.2c1.7,1,3.6,2.1,5.3,4.7c5.6,8.9-1.5,24.7-6.3,33.3
				C700.6,1050.7,658.6,1093.1,617.3,1093.1L617.3,1093.1z"/>
			<path class="st1" d="M343.4,759.4c0,0,231.9,4.1,304.8,54.8c0,0,27.9,100.8,43,133.6c20.3,43.7,24.9,34.1,29.4,41.4
				c12.1,19.2-47.8,100.8-103.3,100.8c-6,0-11.8-0.9-17.5-3c-38.8-13.8-81-46.7-124.9-46.7c-23.3,0-47.1,9.3-71.1,35.7
				c0,0-20.7,6.2-51.3,6.2c-23.7,0-53.4-3.7-84-16.9c0,0-3.6,0.7-9.3,0.7c-16.6,0-50.4-6-61.4-52.2c0,0,61.9-28.3,75.4-110.9
				C273.1,902.7,286.5,805.9,343.4,759.4 M343.4,752.7c-1.5,0-3,0.5-4.2,1.5c-13.6,11.1-25.9,25.8-36.5,43.8
				c-8.4,14.2-15.8,30.4-22,48.3c-10.3,29.7-13.8,53.4-14.1,55.4c-3,18-8.5,34.7-16.6,49.7c-6.5,12-14.6,23-24,32.7
				c-16.1,16.5-30.9,23.5-31.1,23.5c-2.9,1.3-4.4,4.5-3.6,7.5c5.2,21.9,15.8,38,31.6,47.6c13.2,8,27,9.7,36.2,9.7
				c3.7,0,6.7-0.2,8.5-0.5c26.4,11.1,54.9,16.7,84.9,16.7c31.2,0,52.4-6.2,53.2-6.5c1.2-0.3,2.2-1,3-1.9
				c20.5-22.6,42.2-33.6,66.3-33.6c27.4,0,54.7,13.9,81.1,27.4c14.4,7.3,28,14.2,41.5,19c6.3,2.2,12.9,3.3,19.8,3.3
				c24.2,0,46.5-13.8,60.9-25.4c16.8-13.5,32.4-31.8,41.9-48.8c6.2-11.3,12.4-26.9,6.2-36.7c-2.2-3.4-4.5-4.8-6.5-5.9
				c-3.1-1.7-8.9-5-22.6-34.7c-14.7-31.8-42.4-131.6-42.7-132.6c-0.4-1.5-1.3-2.8-2.6-3.6c-31.2-21.6-92.7-37.6-182.8-47.5
				C402.5,753.8,344,752.7,343.4,752.7C343.5,752.7,343.5,752.7,343.4,752.7L343.4,752.7z"/>
		</g>
		<g>
			
				<linearGradient id="SVGID_2_" gradientUnits="userSpaceOnUse" x1="268.4348" y1="260.5499" x2="784.0534" y2="260.5499" gradientTransform="matrix(1 0 0 -1 0 1216)">
				<stop  offset="0" style="stop-color:#52FFCE"/>
				<stop  offset="0.9948" style="stop-color:#6700E4"/>
			</linearGradient>
			<path class="st5" d="M406.6,1075.8c18.4-28.8,48.1-32.4,65.1-35.8c1.2-1.8,2.5-2.3,3.6-4.2c0,0,36.9-62.1,60.4-86.7
				c0,0-37.5,7.6-60.4,23.7c-15.4,10.8,29-99.3,71.6-99.9s39,82.1,56.5,98.6l6.5-114c0,0-113.5-30.6-144.6-28.3
				s-160.1,79.5-160.1,79.5L268.4,1065C338.6,1095.2,406.6,1075.8,406.6,1075.8z"/>
		</g>
		<path class="st1" d="M648.5,933.1c0,0,36.6,88.5,70,85c0,0-15.8,25.1-24.4,28.9C694,1047,659.6,1007.4,648.5,933.1z"/>
		<path class="st1" d="M350.8,895.3c0,0-24.5,7.8-37.3,56.5c-11.6,43.9,17.9-3.6,17.9-3.6s-35.6,127.7-47.1,124.3
			c0,0-20-7.8-35.2-4.5c-15.2,3.2-55.8-21.2-51.5-54.3c0,0,51.9-34.3,73.1-98.6L350.8,895.3z"/>
		<path class="st1" d="M367.9,876.4l-46.7,172.8c0,0,99.2-136.1,105.6-191.8L367.9,876.4z"/>
		<path class="st1" d="M282.8,893.7c0,0,37.3,31.8,94.4,3.6c58.5-29,97.4-70.4,105.5-56.3s-18.1,81.5-18.1,81.5s48.1-51.7,56.2-66.6
			c8.1-14.9,70.1,6.8,68.5,16.4s5,75,14,99.3c0,0,3.9-82.6,21.7-88.3c17.8-5.8,47.3,3.2,45.5-2.7c-1.8-6-27.3-56.2-27.3-56.2
			L340,771.4L282.8,893.7z"/>
		<g>
			<path class="st0" d="M415.5,1210c-46.2,0-76.8-10.1-79.8-26.3c-2.2-11.4,10.1-22.8,34.3-32.2c15.7-6,32.5-9.1,50.1-9.1
				c18.9,0,49.2,3.7,86.2,21.6c22.1,10.7,35.9,21.2,36.5,21.6c1,0.7,1.5,2.1,1.2,3.3c-0.2,1.2-1.2,2.2-2.4,2.6
				C495.9,1203.7,452.3,1210,415.5,1210C415.6,1210,415.6,1210,415.5,1210z"/>
			<path class="st1" d="M420.1,1145.8c65.2,0,120.7,42.5,120.7,42.5c-49.7,13.2-92.2,18.4-125.2,18.4c-78.2,0-103.2-29.4-44.4-52.1
				C387.6,1148.3,404.2,1145.8,420.1,1145.8 M420.1,1139.1c-18,0-35.2,3.1-51.3,9.3c-33.2,12.8-38.1,26.6-36.4,35.9
				c2.2,11.7,15.5,18.3,26.2,21.8c14.4,4.7,34.1,7.2,56.8,7.2c37.1,0,81-6.5,127-18.7c2.4-0.7,4.3-2.6,4.8-5.1
				c0.5-2.5-0.5-5-2.5-6.5c-0.6-0.4-14.6-11.2-37.1-22C487.1,1151,455.1,1139.1,420.1,1139.1L420.1,1139.1z"/>
		</g>
		<g>
			<path class="st1" d="M403.8,1072.5c5.6-7.8,11.4-15.3,17.4-22.8c6-7.4,12-14.8,18.4-21.9c6.4-7.1,12.8-14.1,19.8-20.7
				c6.9-6.5,14.1-12.9,21.9-18.2c-7.5,5.8-14.3,12.5-20.8,19.4c-6.5,6.9-12.5,14.2-18.4,21.6c-5.9,7.4-11.5,15.1-17,22.7
				s-10.8,15.6-15.8,23.5l0,0c-1,1.6-3.1,2-4.5,1C403.3,1076.1,402.9,1074,403.8,1072.5C403.8,1072.7,403.8,1072.6,403.8,1072.5z"/>
		</g>
		<g>
			<path class="st0" d="M611.1,1089.4c0,0,80.5,10.7,83.1-31.7c1.4-22.7-38.4-48-45.5-135.2"/>
			<path class="st1" d="M611.5,1086.1c4.8,0.7,9.8,1,14.8,1.2c5,0.2,9.9,0.2,14.9,0c5-0.2,9.9-0.7,14.8-1.4
				c4.9-0.8,9.7-1.9,14.2-3.6s8.9-3.8,12.5-6.8c3.6-3,6.4-6.8,7.9-11.2c0.7-2.2,1.2-4.5,1.3-6.9c0.2-2.2-0.1-4.5-0.7-6.8
				c-1.2-4.5-3.5-9-5.8-13.5c-2.4-4.4-4.9-8.9-7.4-13.2c-2.5-4.5-4.8-8.9-7-13.6c-4.5-9.2-8.3-18.6-11.4-28.3
				c-6.3-19.4-9.6-39.5-10.9-59.7c2,20.2,6,40.1,12.7,59.1c3.4,9.5,7.4,18.7,12.2,27.6c2.3,4.5,4.8,8.9,7.4,13.2
				c2.6,4.4,5.2,8.7,7.8,13.1c2.5,4.5,5,9,6.6,14.1c0.7,2.6,1.2,5.4,1.1,8.2c-0.2,2.7-0.6,5.5-1.4,8c-1.7,5.3-5,10-9.1,13.6
				c-4.1,3.6-8.9,6.1-13.9,8c-5,1.9-10,3.2-15.1,4.1s-10.3,1.5-15.4,1.8c-5.1,0.3-10.3,0.4-15.5,0.3c-5.1-0.1-10.3-0.4-15.5-1
				c-1.8-0.2-3.1-1.8-2.9-3.6c0.2-1.8,1.8-3.1,3.6-2.9c0,0,0,0,0.1,0L611.5,1086.1z"/>
		</g>
		<path class="st1" d="M337.3,1082.4c0,0,60.8-96.2,72.3-113.2c57.7-85.6,40.4-3.4,17,32.3c-19.2,29.4,32.5-21.3,81.6-30.1
			c0,0-79.7,44.8-101.6,105.1C406.7,1076.6,352.6,1091.2,337.3,1082.4z"/>
		<g>
			<path class="st0" d="M577.1,1163.3c-0.7-0.1-1.3-0.4-1.7-0.9c-19.7-24.6-58.5-53.9-131.3-53.9c-25.7,0-44.3,3.9-44.5,4
				c-0.2,0-0.3,0.1-0.5,0.1c-0.7,0-1.4-0.3-1.9-0.9c-0.6-0.7-0.7-1.7-0.4-2.6l10.8-26.3c0.2-0.7,0.8-1.2,1.6-1.4
				c17.1-5.3,34.4-7.9,51.4-7.9c44.3,0,79.7,18.3,101.5,33.6c23.7,16.5,36.7,32.9,37.3,33.6c0.8,1,0.7,2.5-0.2,3.4l-20.1,18.6
				c-0.5,0.4-1.1,0.7-1.7,0.7C577.2,1163.3,577.1,1163.3,577.1,1163.3z"/>
			<path class="st1" d="M460.5,1076c84.5,0,136.9,66.3,136.9,66.3l-20.1,18.6c-36.6-45.7-93.6-54.8-133.2-54.8
				c-26.3,0-45,4.1-45,4.1l10.8-26.3C427.8,1078.3,444.7,1076,460.5,1076 M460.5,1071.1c-17.2,0-34.7,2.7-52.1,8
				c-1.4,0.4-2.6,1.5-3.1,2.9l-10.8,26.3c-0.7,1.7-0.4,3.6,0.8,5c1,1.2,2.3,1.7,3.8,1.7c0.3,0,0.7,0,1.1-0.1
				c0.2,0,18.5-3.9,43.9-3.9c71.8,0,109.9,28.8,129.4,52.9c0.8,1.1,2.2,1.7,3.5,1.8c0.1,0,0.2,0,0.3,0c1.2,0,2.5-0.5,3.4-1.3
				l20.1-18.6c1.9-1.7,2.2-4.7,0.5-6.7c-0.6-0.7-13.8-17.3-37.8-34.1c-14.1-9.8-29-17.7-44.3-23.3
				C500.1,1074.6,480.4,1071.1,460.5,1071.1L460.5,1071.1z"/>
		</g>
		<path class="st1" d="M365.5,1168.1c-0.4,0.2,16-1.1,27.8,1.2c-7.2,3.5-15.8,8.2-19.9,12.5c-14.3-1.2-28.7,2.2-38,5.5
			c-3.6,5.3-2.9,9.2,1.7,13.6c13.8-6,31.2-7.6,49-0.9c13,4.9,22.5,10.4,29.4,16.2c8.4-0.2,17.4-0.6,26.8-1.4
			c-8.9-9.1-28-20.4-43.8-26.9c7-3.5,20.2-10.8,27.5-14.1c24.9,9,51.7,25.6,57.2,36.2c18.9-2.7,30-5.5,51.9-10.8
			C535.1,1199.2,449.2,1138.3,365.5,1168.1z"/>
		<g>
			<path class="st0" d="M421.3,1209.2c-0.6,0-1.2-0.2-1.7-0.7c-7.4-6.5-17-12.3-28.7-17c-7.4-3-15-4.5-22.6-4.5
				c-8.4,0-16.8,1.9-24.4,5.4c-0.3,0.2-0.7,0.2-1.1,0.2c-0.7,0-1.3-0.2-1.8-0.7c-5.6-5.8-6.3-11.2-2.1-17.8c0.2-0.4,0.7-0.8,1.2-1
				c6.2-2.4,18.7-6.4,32.8-6.4c1.7,0,3.4,0.1,5,0.2c2.8-2.8,7.3-6,13.3-9.5c-3.2-0.3-6.9-0.4-11-0.4c-3.4,0-6.2,0.1-7.8,0.2
				c-0.7,0-1.2,0.1-1.3,0.1c-1.5,0-2.4-1-2.6-2.1c-0.2-1.2,0.4-2.3,1.6-2.8c15.6-6,32.3-9,49.8-9c65.3,0,121.6,42.6,122.2,43
				c0.7,0.6,1.1,1.5,0.9,2.5c-0.2,0.9-0.9,1.7-1.8,1.9c-7.9,2.2-13.5,3.8-18.4,5.4c-8.4,2.6-14.6,4.5-26.7,6.5c-0.2,0-0.2,0-0.4,0
				c-0.9,0-1.8-0.6-2.2-1.4c-4.6-9.8-35.5-27-61.9-37.5c-4.1,2.1-9.8,5.4-15.4,8.6c-2.3,1.3-4.6,2.6-6.7,3.8
				c15.9,7.7,32.3,18.9,40.2,27.6c0.7,0.7,0.8,1.7,0.5,2.6c-0.3,0.9-1.2,1.5-2.1,1.6C439,1208.5,429.9,1209,421.3,1209.2
				L421.3,1209.2z"/>
			<path class="st1" d="M420.1,1145.8c65.2,0,120.7,42.5,120.7,42.5c-21.9,5.9-26,8.8-44.8,11.7c-5.4-11.4-39.3-29.4-64.2-39.1
				c-7.3,3.6-20.4,11.6-27.5,15.3c15.8,7,34.9,19.3,43.8,29.1c-9.5,0.8-18.4,1.3-26.8,1.5c-6.9-6.2-16.5-12.2-29.4-17.5
				c-8-3.2-16-4.7-23.5-4.7c-9.3,0-17.9,2.2-25.5,5.6c-4.7-4.8-5.5-9-1.7-14.7c7.9-3.1,19.8-6.2,31.9-6.2c2,0,4,0.1,6,0.2
				c4.1-4.6,12.7-9.7,19.9-13.5c-6-1.2-13.1-1.6-18.6-1.6c-4.8,0-8.4,0.2-9.1,0.2c-0.1,0-0.2,0-0.1,0
				C387.6,1148.3,404.2,1145.8,420.1,1145.8 M420.1,1140.8c-17.8,0-34.8,3.1-50.7,9.2c-2.2,0.8-3.6,3.2-3.1,5.5c0.3,2,2.1,4.1,5,4.1
				c0.3,0,0.7,0,1.4-0.1c1.7-0.1,4.3-0.2,7.7-0.2c1.1,0,2.1,0,3.1,0c-2.5,1.7-4.6,3.4-6.3,5c-1.3-0.1-2.7-0.1-4.1-0.1
				c-14.6,0-27.4,4.1-33.7,6.5c-1,0.4-1.8,1.1-2.4,2c-4.8,7.4-4,14.3,2.4,20.8c1,1,2.2,1.5,3.6,1.5c0.7,0,1.4-0.2,2.1-0.5
				c7.3-3.4,15.4-5.2,23.4-5.2c7.3,0,14.6,1.5,21.7,4.3c11.5,4.6,20.8,10.3,28,16.6c0.9,0.8,2.1,1.2,3.3,1.2h0.1
				c8.6-0.2,17.8-0.7,27.2-1.5c1.9-0.2,3.5-1.4,4.2-3.1c0.7-1.7,0.3-3.7-1-5.1c-8.3-9.1-23.4-19.1-36.8-26.1c0.9-0.5,1.7-1,2.6-1.6
				c5-2.9,10.3-6,14.3-8c28.7,11.5,55.7,27.7,59.5,35.8c0.8,1.7,2.6,2.8,4.5,2.8c0.2,0,0.5,0,0.7-0.1c12.3-1.9,18.5-3.9,27-6.5
				c4.9-1.5,10.3-3.2,18.3-5.3c1.8-0.5,3.2-2,3.6-3.8c0.3-1.8-0.3-3.7-1.8-4.9c-0.6-0.4-14.6-11.1-36.7-21.8
				C486.5,1152.6,454.7,1140.8,420.1,1140.8L420.1,1140.8z"/>
		</g>
		<path class="st1" d="M579.9,1078.2c0,0-3.6-81-2.2-109.5c0,0,26.5,103.3,44,124C621.6,1092.6,589.6,1089,579.9,1078.2z"/>
		<path class="st1" d="M500.1,1112.9l12.3-28.4c0,0,21.1,3.2,24.7,10.3s-9.3,31.3-9.3,31.3l-8.2-7c0,0,12.2-18,8.2-19.4
			c-4-1.4-11.8,18-11.8,18L500.1,1112.9z"/>
		<path class="st1" d="M577.3,1160.8c0,0-24.7-25.2-35.2-23.2l19-32.3l37.7,35.6L577.3,1160.8z"/>
		<path class="st1" d="M455.5,1176.2c0,0,29.7-22.7,36.2-21s29.5,15.1,29.5,15.1l-41.3,21.6l-6.1-5.3c0,0,31.8-20.3,17.9-18.3
			c-14,2.1-24.9,15.5-24.9,15.5L455.5,1176.2z"/>
		<g>
			
				<linearGradient id="SVGID_3_" gradientUnits="userSpaceOnUse" x1="338.7601" y1="48.0871" x2="435.7131" y2="48.0871" gradientTransform="matrix(1 0 0 -1 0 1216)">
				<stop  offset="0" style="stop-color:#52FFCE"/>
				<stop  offset="0.9948" style="stop-color:#6700E4"/>
			</linearGradient>
			<path class="st6" d="M371.2,1154.6c-0.4,0.2,16-1.2,27.8,1.3c-7.2,3.8-15.8,8.9-19.9,13.5c-14.3-1.3-28.7,2.4-38,6
				c-3.6,5.7-2.9,9.8,1.7,14.7c8.5-4,18.4-6.1,28.8-5.5c27.3-28.6,63.1-36.3,63.1-36.3s0.3-0.7,0.9-1.7
				C415.1,1144.5,393.1,1146.2,371.2,1154.6z"/>
		</g>
		<g>
			
				<linearGradient id="SVGID_4_" gradientUnits="userSpaceOnUse" x1="399.1327" y1="122.9583" x2="466.3842" y2="122.9583" gradientTransform="matrix(1 0 0 -1 0 1216)">
				<stop  offset="0" style="stop-color:#52FFCE"/>
				<stop  offset="0.9948" style="stop-color:#6700E4"/>
			</linearGradient>
			<path class="st7" d="M409.9,1083.8l-10.8,26.3c0,0,22.2-4.8,52.2-3.9c0.2-0.9,0-1.9,0.3-2.6c2.4-6.4,8-19.1,14.7-27.5
				C448.8,1075.4,430,1077.6,409.9,1083.8z"/>
		</g>
		<polygon class="st1" points="399.1,1194.1 425,1181.7 437.8,1191.9 410.5,1201.1 		"/>
		<path class="st2" d="M333.1,759.6c0,0,206.9-19.4,324.3,56.7l10.2,47.7c0,0-197-81-367.1-50.4
			C300.5,813.7,287.5,806.9,333.1,759.6z"/>
		<path class="st2" d="M333.1,759.6c0,0,206.9-19.4,324.3,56.7l10.2,47.7c0,0-197-81-367.1-50.4
			C300.5,813.7,287.5,806.9,333.1,759.6z"/>
		<path class="st8" d="M664.3,851.7c0,0-194.3-83.6-364.4-53.1"/>
		<path class="st1" d="M546.9,772.9l-6,39.5l15.1,3.7c0,0,7.2-45.5,7.9-28.2c0.8,17.4,0.8,30.4,0.8,30.4l13-37.4L546.9,772.9z"/>
		<path class="st1" d="M603,793.4l-5,34.7l23.7,7.7l-1-36.1c0,0-9.8,35.6-10.8,22.1c-1.1-13.5,3.1-28.5,3.1-28.5H603z"/>
	</g>
	<g>
		<g>
			
				<linearGradient id="SVGID_5_" gradientUnits="userSpaceOnUse" x1="170.4675" y1="423.713" x2="731.2244" y2="423.713" gradientTransform="matrix(1 0 0 -1 0 1216)">
				<stop  offset="0" style="stop-color:#52FFCE"/>
				<stop  offset="0.9948" style="stop-color:#6700E4"/>
			</linearGradient>
			<path class="st9" d="M242.4,914.2c-5.4,0-10.8-0.4-15.8-1.2c-18.7-3.1-32.7-11.5-41.6-25c-16-24.3-10.3-57.3-8.7-65.3
				c-4.6-5.9-16.8-29,18.5-82.8c37.6-57.1,116.2-69.5,133.8-69.5c2.2,0,3.1,0.2,3.7,0.3c0.4,0.1,0.7,0.2,1.1,0.5l48.7,36
				c1.1,0.8,1.6,2.2,1.2,3.5c-0.3,1.3-1.5,2.3-2.8,2.5c-31.9,3.9-56.2,9.9-72,17.8c-11.5,5.7-17.9,12.2-17.5,18
				c0.4,6.7,10,11.9,21.9,11.9c6.4,0,12.8-1.5,18.8-4.3c43.1-20.3,188.7-63.1,194.9-64.9c0.3-0.1,0.6-0.2,0.9-0.2
				c0.4,0,0.8,0.1,1.2,0.2l65.8,27.3c1.6,0.7,2.4,2.4,1.9,4c-0.4,1.4-1.7,2.4-3.1,2.4c-0.2,0-0.4,0-0.6-0.1
				c-1.5-0.2-3.1-0.4-4.9-0.4c-28.5,0-77.3,36.7-128.9,75.6C388.3,853.9,308.1,914.2,242.4,914.2z"/>
			<path class="st1" d="M328.7,673.7c1.3,0,2.3,0.1,2.8,0.2l48.7,36c-118.4,14.5-101.3,54.3-67.3,54.3c6.4,0,13.4-1.4,20.2-4.6
				c43.3-20.5,194.4-64.7,194.4-64.7l65.8,27.3c-1.7-0.3-3.6-0.4-5.5-0.4c-67.8,0-231.1,189.1-345.5,189.1c-5.2,0-10.3-0.4-15.2-1.2
				c-66.5-10.8-47.2-87.9-47.2-87.9s-22.2-19.4,17.7-80.1C234.6,685.6,311.9,673.7,328.7,673.7 M328.7,667.1
				c-10.2,0-34.7,3.6-60.3,13.4c-15.1,5.8-28.9,13.1-40.9,21.5c-14.5,10.3-26.4,22.4-35.4,36.1c-17.3,26.3-25.7,48.8-24.9,66.7
				c0.4,9.3,3.3,15.3,5.5,18.7c-2,10.3-6.4,42.3,9.4,66.3c9.4,14.3,24.2,23.2,43.8,26.5c5.2,0.8,10.8,1.3,16.3,1.3
				c66.8,0,147.5-60.6,218.6-114.2c51.2-38.5,99.6-74.9,126.9-74.9c1.5,0,3,0.1,4.3,0.3c0.4,0.1,0.7,0.1,1.2,0.1
				c2.9,0,5.5-1.9,6.4-4.8c0.9-3.2-0.7-6.7-3.8-7.9L530,688.9c-0.8-0.3-1.7-0.5-2.6-0.5c-0.7,0-1.2,0.1-1.8,0.2
				c-6.2,1.8-152,44.6-195.4,65.1c-5.5,2.6-11.5,4-17.4,4c-8.5,0-18.3-3.6-18.6-8.9c-0.3-6,14.5-23.5,86.6-32.3
				c2.7-0.3,4.9-2.2,5.6-4.9c0.7-2.6-0.3-5.4-2.5-7l-48.6-36c-0.7-0.5-1.4-0.8-2.2-1.1C332,667.3,330.6,667.1,328.7,667.1
				L328.7,667.1z"/>
		</g>
		<path class="st0" d="M389.3,749.7l20.3-7l-8.9-8.2c-28,9.3-53.5,18.5-67.6,25.1c-42.6,20.1-92.2-31.1,41.6-49l-15.4-14.1
			l-50.7,30.4c0,0-53.8,16.5-16.5,44.4c0,0-38,5.9-35.3-8.4C256.9,762.9,232.7,823.2,389.3,749.7z"/>
		<path class="st0" d="M277.9,839.9c0,0,40.3,8.9,142.7-61c0,0,12.3-2.8,11,3.2C430.3,788.2,342.1,861.3,277.9,839.9z"/>
		<path class="st0" d="M190.4,830.4c11.6,3.1,15.4-8.6,15.4-8.6c-52.4-27.8,45.8-126.6,45.8-126.6c-20.1,10.3-40,25.2-53.9,46.5
			c-39.9,60.6-17.7,80.1-17.7,80.1s-19.3,77.1,47.2,87.9c33.4,5.5,72-8.2,111.6-30.4C187.9,943.1,190.4,830.4,190.4,830.4z"/>
		<path class="st1" d="M373,740.8c0,0,40.4,11,38.7,19.5c-1.6,8.5-83.5,76.8-139.9,76.8c0,0,40.1,28.5,145.3-52.6
			c0,0,35.6,6.2,33,26c0,0,96.1-74,105.8-79.5l-146.2-8.9L373,740.8z"/>
		<path class="st10" d="M251.6,695.2c0,0,18,7.2,20.2,18.8c2.2,11.6-42,26.1-35.6,48.9c0,0,20.3-25.9,60.3-43l18.1,10.6l39.5-10.6
			l-59.3-58.4L251.6,695.2z"/>
		<path class="st1" d="M207.1,782.2c0,0,14.6,41.5,91.1,29c5.1-0.8,8.2,5.5,4.3,8.9c-7.4,6.6-22.2,13.5-50.6,11.9
			c0,0,20.4,30,70.5,18.3c33.1-7.8-84.4,89.5-123.9-0.3c0,0,35.9-17.2,17.6-25.6C194.8,814.5,185.3,790.3,207.1,782.2z"/>
	</g>
	<g>
		<g>
			
				<linearGradient id="SVGID_6_" gradientUnits="userSpaceOnUse" x1="1181.1604" y1="463.5988" x2="1418.6421" y2="557.9305" gradientTransform="matrix(0.957 0.2902 0.2902 -0.957 -1278.054 565.2313)">
				<stop  offset="0" style="stop-color:#52FFCE"/>
				<stop  offset="0.9948" style="stop-color:#6700E4"/>
			</linearGradient>
			<path class="st11" d="M55.7,247.2c85.6-44.1,116.7,39.1,164.7,107.2c13.2,18.6,3.1,65.2-25.1,56.6
				c-61.5-18.6-112.1,24.2-116,49.4c-1.3,8.4,30,34.1,32.8,56.1c1.7,13.6-23.6,44.8-41.4,44.1c-3.2-0.2-6.4-0.4-9.4-0.8
				c8,7.9,15.9,15.9,17.4,21.3c13.4,48.8-49,62-49.8,52.8C14.6,646.9,1.2,638-7.8,649c-19.3,23.7,10.4,37.2-4.7,35.1
				c-31.2-4.4-65.5-56.3-45.7-92c3.3-5.9,7.9-10.4,13.6-13.7c-2.6-2.3-4.6-4.5-6.2-6.5c-13.6-17.5-19.5-46.7-11.9-62.5
				c5.7-11.7,15.6-20.7,26.3-27.3c-10.3-14.5-21.2-31.2-32.8-50.3C-102.7,376.5,26.6,262.1,55.7,247.2z"/>
			<path class="st1" d="M94.5,240.6c0,0,26.4,22.3,41.7,55.3c0,0-44.5-25.7-76.7-6.1c0,0,27.4-6,54.8,11.4c0,0-46.6-20.3-92.6,35.3
				c0,0,35-27,58.5-26.1c0,0-69.9,37.4-78.1,108.7c0,0-10.7-18.6,4.4-50.6c0,0-51.5,45-1.6,101.5c0,0-15.6-6.4-21.8-14.9
				c0,0,41.4,89.2,96.9,76c0,0,28.4,6.9,0.2-36.7c0,0,6.9,43.8-19.9,5s20.4-85.9,43.5-89.2c0,0-20.3-2.6-37.1,10.2
				c0,0,40-37.6,71.4-30.4l-28.4,11.7c0,0,57.3,1.4,65.9-9.8C184.2,380.8,151,267,151,267S126.1,228.4,94.5,240.6z"/>
			<path class="st0" d="M-44.8,585.2c0,0-15.6,18.9-12.6,38.5c3,19.7,16,43.2,40.1,53.9c-23.5-23.5-28.3-40.6-30.9-56.3
				C-51.1,603-44.8,585.2-44.8,585.2z"/>
			<path class="st0" d="M-37.6,489.6c0,0-20.5,15.5-22.4,33.8c-2,18.4-1.6,39,42.4,69.4c18.2,12.2,11.6,6-6.1-9.3
				s-28.1-41.1-27.3-57.4C-50.3,509.9-37.6,489.6-37.6,489.6z"/>
			<path class="st0" d="M36.4,267.6c0,0-36.6,32.3-60.2,58.2s-50.9,69.1-44.6,91c4.7,16.4,47,81,72.5,106c8.8,7.9,4.1,2.8-7.9-16.8
				c-17.6-28.9-28-61.3-27.6-79s-6.7,1.7-4.2,19.4c2.5,17.7,1.7,15.3,1.7,15.3s-25.5-34.7-19.8-56.7c8.9-34.2,30.2-64.7,42.9-80.4
				s40-44.3,41.1-45.2C31.5,278.4,40.8,264.1,36.4,267.6z"/>
			<path class="st1" d="M-27.5,518.7c0,0,72.9,58.7,95.3,41.8c0,0,35.5,58.8-28,74.9c0,0-57.2-35.4-67.4-73.6
				c0,0,17.4,24.7,40.7,37.5c0,0-18.8-21.8-22.8-33.2c0,0,15.7,17.5,26.4,19c0,0-30.4-29.8-33.2-40.7c-2.9-10.9,38.9,30.9,32.5,19.5
				C9.6,552.6-28,529.4-27.5,518.7z"/>
			<path class="st1" d="M-17.2,677.7c0,0-29-27.5-16.5-64.1c0,0,3.3,21.9,6.7,27.9c0,0-0.7-41.4,9.8-33.6
				c10.6,7.8,24.7,26.3,31.8,23.4c0,0-18-19.1-21.4-23.4c0,0,45.8,24.8,31.8,33.6c0,0-25.6-9.3-32.9,7.5
				C-15.1,665.8-17.2,677.7-17.2,677.7z"/>
			<path class="st0" d="M-43.5,498.7c0,0,2.5,31.9,8.8,40.5c6.3,8.5-10.4-0.6-13.1-7.3c-2.6-6.7,8.9,20,16.1,31.8
				C-31.8,563.6-79.8,538.3-43.5,498.7z"/>
			<path class="st0" d="M-9.5,317.9c0,0-14.2,32.9-10.1,29.4c12.7-10.8,32.1-40.9,47.2-46.1c15.1-5.2-26.7,38.3-32.3,54
				c-5.5,15.7,33.6-22.6,42.2-20.8s-29,31.4-32.2,58.1c0,0-0.9-18.9,12-37.2c0,0-31.3,23.2-45,41.4c-13.7,18.1,3.4-20.6,10.3-35.6
				c0,0-40.5,55.9-21.5-4.3L-9.5,317.9z"/>
		</g>
		<g>
			
				<linearGradient id="SVGID_7_" gradientUnits="userSpaceOnUse" x1="2243.3188" y1="525.7169" x2="2480.8005" y2="620.0486" gradientTransform="matrix(-0.9968 -7.979635e-02 7.979635e-02 -0.9968 3137.5293 1185.0118)">
				<stop  offset="0" style="stop-color:#52FFCE"/>
				<stop  offset="0.9948" style="stop-color:#6700E4"/>
			</linearGradient>
			<path class="st12" d="M958.6,254.6c-63.5-72.4-122.9-6.3-192.5,39.5c-19,12.6-26.8,59.6,2.7,61.9c64.1,5.1,95.5,63.4,89.9,88.3
				c-1.8,8.3-40.5,20.7-51,40.2c-6.5,12,5.5,50.4,22.4,56.2c3.1,1.1,6,1.9,9.1,2.6c-10.3,4.5-20.6,8.9-23.9,13.4
				c-30.3,40.5,22.9,75.6,27,67.3c8.3,17.4,24.1,14.1,28.4,27.6c9.3,29.1-23.3,30.9-8.4,34.4c30.6,7.4,81.6-28.5,76.1-69
				c-0.9-6.7-3.6-12.6-7.6-17.7c3.2-1.2,6-2.5,8.2-3.8c19-11.3,35.2-36.2,33.9-53.8c-1-13-6.9-24.9-14.5-35.1
				c14.9-9.8,31.1-21.3,48.9-34.8C1058.8,432.9,980.2,279.2,958.6,254.6z"/>
			<path class="st1" d="M924.9,234.4c0,0-32.8,11.1-59,36.2c0,0,50.8-7.7,73.5,22.3c0,0-23.2-15.6-55.3-9.5c0,0,50.8-1.9,73.3,66.8
				c0,0-22.7-38-44.9-45.7c0,0,51.4,60.4,32.9,129.7c0,0,16.8-13.5,14.4-48.7c0,0,31.4,60.7-35.7,95c0,0,16.8-0.2,25.6-5.9
				c0,0-71.2,67.8-118,35.4c0,0-29-4,13.3-34.2c0,0-22.5,38.2,16.6,11.9s12.4-87.4-7.9-98.9c0,0,19.9,5,30.9,23
				c0,0-23.6-49.6-55.3-54.4l22.1,21.3c0,0-53.9-19.6-57.8-33.2c-4-13.6,68.7-107.3,68.7-107.3S899.9,211.4,924.9,234.4z"/>
			<path class="st0" d="M928.6,606c0,0,7.6,23.2-2.4,40.5s-30.8,34.3-57.1,35.6c30.4-13.3,41.2-27.5,49.4-41.2
				C927.9,624.9,928.6,606,928.6,606z"/>
			<path class="st0" d="M956.8,514.4c0,0,13.4,21.9,8.5,39.7c-4.9,17.8-12.7,36.9-64.9,49.1c-21.4,4.7-13,1.4,9.1-6.4
				s41.2-28,46.4-43.4C961.2,537.9,956.8,514.4,956.8,514.4z"/>
			<path class="st0" d="M969.1,280.7c0,0,22.3,43.4,34.8,76.2s22.1,82.9,8.3,101c-10.3,13.5-73.4,58.2-106.3,72
				c-11.1,4.1-4.9,1.1,13.4-12.7c27-20.4,48.5-46.8,54.6-63.4c6.1-16.6,5.6,4.1-3.1,19.6c-8.8,15.6-7.2,13.6-7.2,13.6
				s36.4-22.9,39.1-45.6c4.2-35.2-4.5-71.3-10.5-90.5c-6.1-19.3-21.1-55.8-21.8-57.1C969.7,292.6,966.3,275.9,969.1,280.7z"/>
			<path class="st1" d="M936.8,537.8c0,0-89.3,28-104,4c0,0-54.5,41.8-1.4,80c0,0,66.2-12,89.6-43.8c0,0-25.2,16.6-51.6,19.9
				c0,0,25.4-13.4,33.3-22.5c0,0-21.1,10.6-31.4,8c0,0,39.1-16.6,45.8-25.7c6.6-9.1-47.5,14.6-37.4,6.3
				C889.8,555.8,933.3,547.9,936.8,537.8z"/>
			<path class="st1" d="M869.1,682c0,0,37.1-14.9,38.8-53.6c0,0-11.1,19.2-16.5,23.5c0,0,15.8-38.2,3.1-34.9
				c-12.7,3.4-32.6,15.4-38.1,10.2c0,0,23.8-11.2,28.5-14c0,0-51.8,6.4-41.9,19.6c0,0,27.2,0.7,27.9,19S869.1,682,869.1,682z"/>
			<path class="st0" d="M959,525c0,0-14,28.9-22.9,34.4s9.9,3.2,14.8-2c4.9-5.3-15.6,15.4-26.6,23.7
				C924.3,581.1,978.3,575.1,959,525z"/>
			<path class="st0" d="M993.4,344.3c0,0,1.2,35.8-1.4,31c-7.9-14.6-14.9-49.8-27.1-60.1c-12.2-10.4,10.8,45.4,10.3,62.1
				c-0.6,16.7-23-33.3-31.7-34.7c-8.7-1.5,15.6,39.9,8.8,65.8c0,0,7.8-17.2,2.4-39c0,0,20.6,33.1,26.7,55
				c6.1,21.9,4.4-20.4,3.4-36.9c0,0,17.3,66.9,21.6,3.9L993.4,344.3z"/>
		</g>
		<g>
			<g>
				<circle class="st0" cx="231.7" cy="587.6" r="63.3"/>
				<path class="st1" d="M170.4,573.3c-1.9,8-2,16.5-0.3,24.5s5,15.6,9.6,22.2c9.2,13.2,22.8,22.7,38.1,26.7
					c7.7,2,15.7,2.6,23.7,1.7c4-0.5,7.9-1.4,11.8-2.6c3.8-1.3,7.5-3.1,11.1-5.1c6.9-4.2,13.1-9.9,17.7-16.6s7.8-14.3,9.3-22.3
					c3.1-15.9-0.2-32.4-8.7-45.7c-4.3-6.6-9.8-12.4-16.2-16.9s-13.6-7.8-21.3-9.6c-7.6-1.8-15.6-2.2-23.3-1.2
					c-1,0.2-1.9,0.3-2.9,0.5c-1,0.2-1.9,0.4-2.9,0.6c-1,0.2-1.9,0.5-2.9,0.7c-1,0.2-1.9,0.6-2.8,0.8c-3.7,1.2-7.4,2.8-10.9,4.7
					c-7,3.8-13.4,9.1-18.4,15.5C176,557.7,172.3,565.3,170.4,573.3z M169.7,573.2c1.9-8.1,5.2-15.9,9.8-22.9
					c4.6-7,10.6-13.3,17.6-18.2c3.6-2.4,7.3-4.5,11.3-6.2c1-0.4,2-0.8,3.1-1.2c1-0.3,2.1-0.7,3.1-1.1c1.1-0.2,2.1-0.6,3.1-0.8
					s2.2-0.5,3.2-0.7c8.6-1.6,17.5-1.4,26,0.6c8.5,2,16.6,5.6,23.7,10.8s13,11.7,17.5,19.2c4.5,7.4,7.4,15.8,8.6,24.3
					c1.2,8.5,0.5,17.3-1.7,25.5c-2.2,8.3-6,16-11.1,22.7c-5,6.8-11.3,12.6-18.4,17.1c-3.6,2.3-7.3,4.2-11.2,5.9
					c-3.9,1.7-8,2.9-12.2,3.7c-8.4,1.7-17.1,1.8-25.6,0c-8.4-1.7-16.6-5.4-23.6-10.5c-7-5.1-12.7-11.8-17-19.3
					c-4.1-7.5-6.7-15.8-7.7-24.1C167.4,589.7,167.8,581.3,169.7,573.2z"/>
			</g>
			<path class="st10" d="M194.8,536.3c0,0,13.6,10.8,17.7,27.1l17.6,61.1c0,0-3.9,17.1-10.8,24.2c0,0,35.1,1.9,41.5-7.9
				c6.5-9.8-34.9-121.6-34.9-121.6L194.8,536.3z"/>
			<path class="st1" d="M207.3,619.7c16,9,36.1,3.5,45.2-12.5c9-16,3.5-36.1-12.5-45.2s-36.1-3.5-45.2,12.5c0,0,13.5-8.9,17.2,0.7
				l16.1,16.5c0,0-22.2,15.3-0.7,22.3L207.3,619.7z"/>
		</g>
		<g>
			<g>
				<circle class="st0" cx="728.9" cy="587.6" r="63.3"/>
				<path class="st1" d="M790.8,573.2c1.9,8.1,2.4,16.5,1.3,24.9c-1.1,8.4-3.6,16.6-7.7,24.1c-4.1,7.4-9.9,14.2-17,19.3
					c-6.9,5.1-15.1,8.8-23.6,10.5c-8.4,1.7-17.3,1.7-25.6,0c-4.1-0.9-8.3-2.1-12.2-3.7c-3.9-1.6-7.7-3.6-11.2-5.9
					c-7.1-4.5-13.4-10.3-18.4-17.1c-5-6.8-8.9-14.5-11.1-22.7c-2.2-8.2-2.9-17-1.7-25.5c1.2-8.5,4.1-16.9,8.6-24.3
					s10.4-14.1,17.5-19.2c7-5.2,15.1-8.9,23.7-10.8c8.5-1.9,17.5-2.2,26-0.6c1.1,0.2,2.2,0.5,3.2,0.7c1.1,0.2,2.1,0.6,3.1,0.8
					c1.1,0.3,2.1,0.7,3.1,1.1c1,0.3,2,0.8,3.1,1.2c4,1.7,7.8,3.8,11.3,6.2c7,4.9,13,11.2,17.6,18.2
					C785.6,557.3,788.9,565.1,790.8,573.2z M790.2,573.3c-1.9-8-5.5-15.6-10.6-22c-5-6.5-11.4-11.7-18.4-15.5
					c-3.5-1.9-7.2-3.5-10.9-4.7c-0.9-0.2-1.9-0.6-2.8-0.8c-1-0.2-1.9-0.5-2.9-0.7c-1-0.2-1.9-0.4-2.9-0.6c-1-0.2-1.9-0.3-2.9-0.5
					c-7.8-1.1-15.7-0.7-23.3,1.2c-7.6,1.8-14.9,5.1-21.3,9.6c-6.5,4.5-11.9,10.3-16.2,16.9c-8.5,13.2-11.8,29.9-8.7,45.7
					c1.6,7.9,4.7,15.6,9.3,22.3c4.6,6.7,10.7,12.4,17.7,16.6c3.5,2.1,7.2,3.8,11.1,5.1c3.8,1.3,7.8,2.2,11.8,2.6
					c8,1,16,0.3,23.7-1.7c15.4-4.1,29-13.5,38.1-26.7c4.5-6.6,8-14.1,9.6-22.2C792.1,589.7,792.1,581.3,790.2,573.3z"/>
			</g>
			<path class="st10" d="M776.2,542c0,0-13.6,22.5-25.1,40.4l-15.4,42.1c0,0-0.2,17.1,6.9,24.2c0,0-36.3,1.9-42.8-7.9
				s34.9-121.6,34.9-121.6L776.2,542z"/>
			<path class="st1" d="M753.2,619.7c-16,9-36.1,3.5-45.2-12.5c-9-16-3.5-36.1,12.5-45.2c16-9,36.1-3.5,45.2,12.5
				c0,0-13.5-8.9-17.2,0.7l-8.1,16.5c0,0,19.5,15.3-2.1,22.3L753.2,619.7z"/>
		</g>
		<g>
			<g>
				<g>
					<path class="st0" d="M481.4,739.2c-63.2,0-122.8-11.8-167.6-33.3c-6.1-3-12-6.1-17.5-9.3c-2.8-1.7-5.6-3.5-8.3-5.3
						c-8.5-5.7-16-11.9-22.3-18.3c-15.1-15.6-22.7-32.3-22.7-49.7c0-4.1,0.4-8.2,1.2-12.2c2.7-12.9-0.7-26.8-9.3-38.1
						c-1.7-2.2-3.5-4.6-5.2-7l-0.1-0.1l0,0c-11.2-15.7-20.7-32.6-28-50c0-0.1-0.1-0.1-0.1-0.2c-13-30.8-19.6-63.2-19.6-96.5
						c0-9.3,0.5-18.5,1.6-27.7c1.6-13.9,4.3-27.6,8.2-40.9C226.1,231.9,345.3,149,481.4,149c66.5,0,129.5,19.3,182.1,55.7
						c25.3,17.5,47.3,38.5,65.3,62.3c18.3,24.2,32,50.6,40.8,78.7c4,12.7,6.9,25.7,8.9,38.9c1.7,11.5,2.5,23.2,2.5,34.9
						c0,28.8-5,57.2-14.8,84.3c-5,13.8-11.3,27.5-18.8,40.4c-5.8,10.1-12.3,19.9-19.4,29c-8.7,11.3-12.1,25.1-9.3,38.1
						c0.8,4,1.2,8.1,1.2,12.2c0,8.3-1.7,16.5-5.3,24.5c-5.9,13.4-16.5,26.1-31.5,37.6c-11.5,8.9-25.4,16.9-41.4,23.8
						c-10.3,4.5-21.4,8.6-33.1,12.2C570.6,733.1,526.6,739.2,481.4,739.2z"/>
					<path class="st1" d="M481.4,152.3c135.6,0,249.9,82.1,285,194.3c3.9,12.4,6.9,25.2,8.7,38.3c1.7,11.2,2.5,22.7,2.5,34.5
						c0,29-5.1,57-14.6,83.1c-5,13.8-11.2,27.1-18.5,39.9c-5.7,9.9-12.2,19.5-19.2,28.7c-9,11.7-13,26.6-10,40.8
						c0.8,3.7,1.2,7.6,1.2,11.4c0,7.9-1.7,15.7-5,23.2c-5.7,13.1-16.1,25.3-30.4,36.3c-11.3,8.7-25,16.5-40.6,23.5
						c-10.2,4.5-21.1,8.5-32.8,12.1c-36.5,11.2-79.7,17.5-126.1,17.5c-64.9,0-123.6-12.6-166.2-32.9c-6-2.9-11.8-6-17.2-9.2
						c-2.8-1.7-5.5-3.4-8.2-5.1c-8.4-5.6-15.6-11.6-21.8-17.9c-14-14.4-21.8-30.4-21.8-47.4c0-3.9,0.4-7.7,1.2-11.4
						c3-14.3-0.9-29-9.9-40.8c-1.8-2.3-3.6-4.7-5.2-7l0,0c-11-15.4-20.3-31.9-27.7-49.3l0,0c-12.6-29.6-19.4-61.7-19.4-95.3
						c0-9.3,0.5-18.4,1.5-27.3c1.6-13.8,4.3-27.3,8.1-40.5C228.2,236.9,343.8,152.3,481.4,152.3 M481.4,145.7
						c-34.3,0-68,5.1-100.2,15.3c-31.1,9.8-60.1,24.2-86.1,42.5c-25.8,18.2-48.1,40-66.2,64.6c-18.4,25.1-32,52.5-40.5,81.6
						c-3.9,13.5-6.7,27.5-8.4,41.5c-1.1,9.3-1.6,18.7-1.6,28c0,33.7,6.7,66.5,19.9,97.7c0,0.1,0.1,0.2,0.1,0.2
						c7.4,17.6,17,34.6,28.4,50.5l0,0c0,0.1,0.1,0.1,0.1,0.2c1.7,2.5,3.6,4.8,5.3,7.1c8.1,10.5,11.2,23.4,8.8,35.4
						c-0.9,4.2-1.3,8.5-1.3,12.8c0,18.3,7.9,35.8,23.7,52c6.4,6.6,14.1,12.9,22.8,18.8c2.7,1.8,5.6,3.6,8.4,5.4
						c5.5,3.3,11.5,6.5,17.7,9.4c45.2,21.7,105.3,33.6,169,33.6c45.5,0,89.8-6.2,128.1-17.9c11.8-3.6,23.1-7.8,33.5-12.3
						c16.2-7.1,30.4-15.3,42-24.2c15.5-11.9,26.4-25,32.5-38.9c3.6-8.4,5.5-17.1,5.5-25.8c0-4.3-0.4-8.6-1.3-12.8
						c-2.6-12,0.7-24.8,8.8-35.4c7.2-9.3,13.8-19.3,19.7-29.4c7.5-13.1,14-26.9,19-40.9c10-27.5,15.1-56.2,15.1-85.4
						c0-11.8-0.8-23.7-2.5-35.4c-1.9-13.3-4.9-26.6-8.9-39.4c-8.9-28.4-22.8-55.2-41.4-79.7c-18.2-24.1-40.5-45.2-66.1-63
						c-25.9-17.9-54.5-31.8-85.2-41.4C548.4,150.6,515.3,145.7,481.4,145.7L481.4,145.7z"/>
				</g>
			</g>
		</g>
		
			<linearGradient id="SVGID_8_" gradientUnits="userSpaceOnUse" x1="185.301" y1="845.9168" x2="777.6602" y2="845.9168" gradientTransform="matrix(1 0 0 -1 0 1216)">
			<stop  offset="0" style="stop-color:#52FFCE"/>
			<stop  offset="0.9948" style="stop-color:#6700E4"/>
		</linearGradient>
		<path class="st13" d="M766.4,346.6c-35.2-112.2-149.4-194.3-285-194.3c-137.6,0-253.3,84.6-286.5,199.4
			c-3.8,13.1-6.5,26.6-8.1,40.5c-1,9-1.5,18.1-1.5,27.3c0,33.6,6.9,65.7,19.4,95.3l0,0c7.4,17.4,16.7,33.9,27.7,49.3l0,0
			c1.7,2.4,3.5,4.7,5.2,7c1.4,1.9,2.7,3.8,3.9,5.9c21.7-23.6,53.4-50.9,33.3-170.1c-2.6-15.1,3.9-46.3,16-58.8
			c0,0,191.2-87.1,352.6-32.6c0,0,13.3,92.2,46.6,71.8c0,0,30.7-1,16.4,51.9c-13,47.8-4.5,119.7,10,148.8c1.8-6,4.8-11.7,8.8-16.9
			c7-9.2,13.4-18.8,19.2-28.7c7.4-12.7,13.6-26.1,18.5-39.9c9.5-26.1,14.6-54.1,14.6-83.1c0-11.7-0.8-23.2-2.5-34.5
			C773.3,371.8,770.3,359,766.4,346.6z"/>
		<path class="st10" d="M393.3,400c0,0-40.9-23.7-6.6-75.9c0,0,10.8,46.1,40,56.8C426.7,381.1,405.5,394.7,393.3,400z"/>
		<path class="st10" d="M600,400c0,0,40.9-23.7,6.6-75.9c0,0-10.8,46.1-40,56.8C566.5,381.1,587.7,394.7,600,400z"/>
		<path class="st10" d="M546.2,372.3c0,0,40.9-23.7,6.6-75.9c0,0-10.8,46.1-40,56.8C512.8,353.4,534,366.9,546.2,372.3z"/>
		<path class="st10" d="M462.2,367.4c0,0-37.4-28.8,3.3-76c0,0,4.7,47.1,32.3,61.6C497.8,353,475.1,363.6,462.2,367.4z"/>
		<path class="st14" d="M624.8,477.1c-4.1,73.4-64.3,81.6-137.6,77.4c-73.4-4.1-132.3-18.9-128.1-92.4
			c4.1-73.5,67-129.5,140.4-125.5C572.8,340.9,628.9,403.7,624.8,477.1z"/>
		<g>
			<path class="st0" d="M514.7,567.8c-8.3,0-17.3-0.2-27.5-0.8c-56.1-3.1-78.7-12.4-92.2-20.1c-26-14.9-37.6-38.9-35.7-73.3
				c4-70.3,62.2-125.5,132.6-125.5c2.5,0,5,0.1,7.5,0.2c35.4,2,68,17.6,91.7,44.1c23.7,26.5,35.6,60.6,33.6,96
				c-1.7,30.4-12.9,51.3-34.3,64C572.9,562.9,548.9,567.8,514.7,567.8z"/>
			<path class="st1" d="M491.9,351.4c2.5,0,4.9,0.1,7.4,0.2c71.5,4,126.1,65.2,122.1,136.7c-3.5,62.1-48.2,76.3-106.7,76.3
				c-8.9,0-18-0.3-27.3-0.8c-71.5-4-128.7-18.4-124.7-89.9C366.5,404.7,423.7,351.4,491.9,351.4 M491.9,344.8v6.6V344.8
				c-72.1,0-131.9,56.5-135.9,128.5c-1,18.4,1.8,34.2,8.4,47.1c6.2,12,16,21.9,28.9,29.3c26.2,15.1,63.8,18.9,93.6,20.5
				c10.3,0.6,19.3,0.8,27.6,0.8c34.8,0,59.4-5,77.4-15.8c10.8-6.5,19.3-15.1,25.2-25.7c6.2-11.2,9.8-25,10.8-40.9
				c2.1-36.3-10.2-71.3-34.4-98.4c-24.2-27.1-57.6-43.2-93.9-45.2C497.2,344.9,494.5,344.8,491.9,344.8L491.9,344.8z"/>
		</g>
		
			<linearGradient id="SVGID_9_" gradientUnits="userSpaceOnUse" x1="362.4546" y1="793.0776" x2="621.6134" y2="793.0776" gradientTransform="matrix(1 0 0 -1 0 1216)">
			<stop  offset="0" style="stop-color:#52FFCE"/>
			<stop  offset="0.9948" style="stop-color:#6700E4"/>
		</linearGradient>
		<path class="st15" d="M499.3,351.6c-71.5-4-132.6,50.6-136.7,122.1c-0.3,6-0.2,11.6,0.2,16.8c7.4-68,65.8-116,134.9-112.8
			c73.7,3.3,118.1,53.2,123.1,116.9c0.2-2.1,0.4-4.1,0.5-6.3C625.5,416.7,570.8,355.6,499.3,351.6z"/>
		<g>
			<path class="st1" d="M489.2,681.9c-16.6,0-31.8-5.8-45-17.3c-15.1-13-27.7-33.4-37.7-60.6c-0.5-1.4,0-3,1.2-3.9
				c0.6-0.4,1.2-0.6,1.9-0.6c0.8,0,1.6,0.2,2.2,0.8c0.1,0,7.4,6.1,24.1,6.1c10.3,0,22.1-2.2,34.9-6.7c8.9-3.1,17.5-4.5,26.4-4.5
				c13.7,0,25.7,3.6,37.3,6.9c10.6,3.1,20.5,6,30.9,6c4.4,0,8.5-0.5,12.7-1.6c1.2-0.3,2.2-0.5,3.2-0.5c4,0,6.5,2.6,6.5,6.5
				c0,8.6-13.2,26.1-30.6,40.6C544.4,663.8,518.5,681.9,489.2,681.9L489.2,681.9z"/>
			<path class="st1" d="M497.2,598.4c25.6,0,45.7,13,68.2,13c4.4,0,8.9-0.5,13.6-1.7c0.9-0.2,1.7-0.3,2.4-0.3
				c17,0-36.3,69.2-92.1,69.2c-29,0-58.7-18.8-79.7-75.8c0,0,7.9,6.9,26.3,6.9c9.2,0,21.1-1.7,36-6.9
				C480.9,599.5,489.3,598.4,497.2,598.4 M497.2,591.8c-9.3,0-18.3,1.6-27.5,4.7c-12.5,4.4-23.8,6.5-33.8,6.5
				c-14.6,0-21.3-4.8-21.9-5.3c-1.2-1.2-2.8-1.7-4.4-1.7c-1.2,0-2.6,0.3-3.6,1.1c-2.6,1.7-3.6,5-2.5,7.9
				c10.2,27.8,23.2,48.6,38.6,62c13.9,12,29.8,18.1,47.2,18.1c30.3,0,56.9-18.4,70.1-29.5c15.8-13.2,31.8-32.3,31.8-43.2
				c0-3.5-1.5-5.7-2.6-6.9c-1.2-1.2-3.5-2.8-7.1-2.8c-1.2,0-2.6,0.2-4.1,0.6c-3.9,1-7.8,1.5-11.9,1.5c-9.9,0-19.7-2.9-29.9-5.9
				C523.5,595.3,511.3,591.8,497.2,591.8L497.2,591.8z"/>
		</g>
		<g>
			
				<linearGradient id="SVGID_10_" gradientUnits="userSpaceOnUse" x1="174.7127" y1="969.5007" x2="792.3059" y2="969.5007" gradientTransform="matrix(1 0 0 -1 0 1216)">
				<stop  offset="0" style="stop-color:#52FFCE"/>
				<stop  offset="0.9948" style="stop-color:#6700E4"/>
			</linearGradient>
			<path class="st16" d="M186.7,395.3c-1.7,0-3-1.2-3.2-2.8l-6.9-47.3c-0.4-2.9-10.1-71.6,18.5-103.7c6.2-6.9,39.5-43.5,85.3-77.2
				c52.4-38.5,100.3-58.1,141.9-58.1c22.6,0,43.3,5.9,61.8,17.5c5.2-4.2,20.4-15.5,44.3-23.2c5.5-1.8,13.2-2.7,22.5-2.7
				c36.7,0,93.1,14.5,141,55.3c27.8,23.6,50.2,53.6,66.8,89.2c19.4,41.7,30.7,91.3,33.6,147.6c0.1,1.7-1.1,3.1-2.6,3.4
				c-0.2,0-0.4,0.1-0.7,0.1c-1.4,0-2.6-0.9-3.1-2.2c-0.2-0.4-14-39.5-51.7-78c-22.1-22.6-48-40.6-76.9-53.5
				c-36.2-16.1-77.4-24.3-122.3-24.3c-22.1,0-45.4,2-69.4,5.9c-58.1,9.5-108.8,23.4-150.6,41.4c-33.3,14.3-61.2,31.2-82.7,50.2
				c-29.2,25.8-40.4,50.5-42.2,60.1C189.8,394.2,188.4,395.3,186.7,395.3C186.8,395.3,186.7,395.3,186.7,395.3z"/>
			<path class="st1" d="M551,101.1c65.4,0,225.6,49,238.1,288.9c0,0-54.6-158.1-254.1-158.1c-21.6,0-44.8,1.8-70,6
				C207.9,279.8,186.8,392,186.8,392l-6.9-47.3c0,0-10.2-69.7,17.7-101.1C220.5,218,326,109.5,422.4,109.5c21.5,0,42.5,5.4,62,18.3
				c0,0,16.2-14.7,45-24.2C534.3,102.1,541.7,101.1,551,101.1 M551,94.5c-9.7,0-17.8,1-23.6,2.9c-21.8,7.2-36.7,17.3-43.4,22.3
				c-18.4-11.2-39.1-16.8-61.5-16.8c-23.2,0-48.5,6-75.3,18c-21.9,9.8-45,23.5-68.7,40.8c-46.1,33.8-79.6,70.6-85.9,77.6
				c-29.6,33.3-19.8,103.5-19.4,106.5l6.9,47.3c0.5,3.2,3.1,5.6,6.4,5.7c0.1,0,0.1,0,0.2,0c3.1,0,5.9-2.2,6.5-5.4
				c0,0,1.4-6.8,7.2-17.3c5.4-9.8,15.7-24.9,34.6-41.4c21.3-18.7,48.8-35.3,81.8-49.4c41.4-17.7,91.7-31.4,149.2-40.9
				c23.8-3.9,47-5.9,68.9-5.9c44.4,0,85.1,8.1,120.9,24c28.5,12.7,54.1,30.4,75.9,52.6c37.3,38.1,51,76.6,51.1,77
				c0.9,2.7,3.5,4.5,6.3,4.5c0.4,0,0.8,0,1.2-0.1c3.2-0.7,5.5-3.6,5.4-6.9c-3-56.7-14.4-106.7-33.9-148.8
				c-16.7-36.1-39.5-66.4-67.7-90.3c-23.1-19.6-49.4-34.5-78-44.3C586.3,95.9,562.5,94.5,551,94.5L551,94.5z"/>
		</g>
		<path class="st1" d="M535.4,187.9c0,0-0.3-26.4,23.3-56.4c0,0-19.2,8.6-31.4,20.4c0,0,14.8-17,29.9-30.4c0,0-28.9,6-50.5,31.7
			c0,0,11.2-23.5,21.6-29.3c0,0-36.1,1.7-44.5,31.6c0,0-18.9-24.4-52.1-28c0,0,23.6,21.8,28.4,36.5l-13.3-2.4
			c0,0,21.8,16.3,1.9,32.3S535.4,187.9,535.4,187.9z"/>
		<path class="st0" d="M197.7,253.3c28-31.4,179.6-186.5,286.8-115.8c0,0,16.2-14.7,45-24.2c37.9-12.4,239.4,11.5,258.9,274.7
			c0.5,1.2,0.7,2,0.7,2C774.8,115.8,568,91,529.5,103.6c-28.9,9.5-45,24.2-45,24.2c-107.3-70.7-258.9,84.5-286.8,115.8
			c-17.3,19.4-19.9,53.6-19.5,76.8C178.7,298.2,182.7,270.2,197.7,253.3z"/>
		<g>
			<g>
				
					<linearGradient id="SVGID_11_" gradientUnits="userSpaceOnUse" x1="136.3089" y1="782.1721" x2="801.17" y2="782.1721" gradientTransform="matrix(1 0 0 -1 0 1216)">
					<stop  offset="0" style="stop-color:#52FFCE"/>
					<stop  offset="0.9948" style="stop-color:#6700E4"/>
				</linearGradient>
				<path class="st17" d="M296.6,291.5c0,0-53.7,53.2-50.3,113.7c5.5,98.4,25.6,140-13.9,170.7c1.7,2.5-11-20.6-32.5-49.3
					c-19.5-26.1-48.3-104.1-16-154.6C183.9,372.1,269,307.8,296.6,291.5z"/>
				<path class="st1" d="M296.9,291.3c0.2,0.2-0.1,0.6-0.1,0.5l-0.1,0.1l-0.1,0.1l-0.2,0.2l-0.4,0.4l-0.7,0.9l-1.6,1.8
					c-1,1.2-2,2.5-3,3.7c-2,2.5-3.9,5-5.8,7.6c-3.8,5.1-7.3,10.4-10.7,15.8c-3.4,5.4-6.5,10.9-9.3,16.5c-2.8,5.6-5.4,11.4-7.5,17.3
					c-4.5,11.7-7.4,24.1-8.2,36.4c-0.2,3.1-0.2,6.2-0.2,9.3c0.1,3.1,0.3,6.3,0.6,9.4c0.4,6.4,0.8,12.7,1.3,19c0.5,6.4,1,12.7,1.6,19
					l1.7,19c1.1,12.7,2.3,25.5,2.9,38.3c0.2,6.4,0.5,12.8,0.2,19.3c-0.2,6.5-1,12.9-2.7,19.2c-0.8,3.1-1.9,6.2-3.2,9.2
					c-1.3,3-3,5.8-4.8,8.5c-3.7,5.4-8.4,10-13.4,14.1l0.2-1.7v0.1c0,0,0.1,0.1-0.1-0.1c-0.2-1.1-3.5,1.8-2.1,1.2v0.1l0,0l-0.2-0.3
					l-0.4-0.7l-0.8-1.5l-1.8-3c-1.2-2-2.5-3.9-3.7-5.9c-2.5-3.9-5.1-7.8-7.7-11.6c-5.3-7.6-10.8-15.1-16.4-22.4l-2.2-2.7
					c-0.7-0.9-1.5-1.9-2.2-2.9c-1.4-2-2.6-4-4-6c-2.5-4.1-4.7-8.2-6.8-12.5c-4.1-8.5-7.6-17.3-10.4-26.3c-2.9-9-5.1-18.2-6.7-27.5
					c-1.6-9.3-2.5-18.8-2.3-28.4c0.2-9.5,1.2-19.1,3.7-28.4c1.2-4.6,2.8-9.2,4.7-13.6c1.9-4.4,4.2-8.7,6.9-12.7l0,0
					c0.2-0.3,0.5-0.6,0.7-0.8c9.3-6.9,18.6-13.6,28-20.4c9.4-6.7,18.8-13.4,28.3-20c4.8-3.3,9.5-6.6,14.3-9.8
					c4.8-3.2,9.6-6.5,14.4-9.7l7.3-4.7l7.4-4.6c2.4-1.6,5-3.1,7.4-4.5c0.7-0.4,1.2-0.7,1.9-1.2c0.7-0.4,1.4-0.7,2.1-1.2
					C294.3,292.6,295.6,292,296.9,291.3z M296.3,291.7c-1.2,0.8-2.4,1.7-3.4,2.6c-0.5,0.4-1.1,0.7-1.6,1.2l-1.7,1.2
					c-2.3,1.7-4.7,3.3-7,5l-7,5.1l-6.9,5.1c-4.6,3.5-9.3,6.9-13.8,10.3L241,332.7l-27.5,21l-27.5,21l0.8-0.8
					c-2.4,3.8-4.4,7.8-6.1,11.8c-1.7,4.1-3.1,8.4-4.2,12.7s-2,8.8-2.5,13.2c-0.6,4.5-0.9,9-1,13.5c-0.3,18.1,2.6,36.4,7.9,53.9
					c2.6,8.8,5.9,17.4,9.6,25.7c1.9,4.1,4,8.3,6.2,12.2c1.2,2,2.3,3.9,3.6,5.8c0.7,0.9,1.2,1.8,1.9,2.8l2.1,2.8
					c5.4,7.6,10.6,15.4,15.6,23.2c2.5,4,5,7.9,7.4,11.9c1.2,2,2.4,4.1,3.6,6l1.7,3.1l0.8,1.6l0.4,0.8l0.2,0.4l0.1,0.2
					c0,0,0,0.1,0.1,0.2c1.5-0.5-1.9,2.4-2.1,1.3c-0.2-0.2-0.2-0.2-0.2-0.2l-0.1-0.2l0,0c-0.4-0.6-0.2-1.3,0.2-1.7
					c5-3.8,9.6-8.2,13.2-13.3c3.6-5.1,6.2-10.9,7.8-17c1.6-6.1,2.2-12.4,2.4-18.7c0.1-6.3-0.2-12.7-0.7-19c-1.1-12.7-3-25.3-4.7-38
					c-0.9-6.3-1.7-12.7-2.5-19c-0.7-6.4-1.4-12.7-2.1-19.1c-0.6-6.4-1.1-12.7-1.5-19.2c-0.2-3.2-0.4-6.4-0.4-9.7
					c-0.1-3.3,0.1-6.5,0.3-9.8c0.2-3.2,0.7-6.5,1.2-9.8c0.5-3.2,1.2-6.5,2.1-9.6c1.6-6.3,3.6-12.5,6.1-18.5
					c5-12,11.2-23.3,18.6-33.9c3.6-5.3,7.6-10.3,11.7-15.3c2.1-2.5,4.2-4.9,6.4-7.2c1.1-1.2,2.2-2.3,3.3-3.5l1.7-1.7l0.8-0.8
					l0.4-0.4l0.2-0.2l0.1-0.1l0.1-0.1C296.4,291.2,296.1,291.7,296.3,291.7z"/>
			</g>
			<g>
				<path class="st0" d="M232.5,576L232.5,576C232.6,576.3,232.6,576.2,232.5,576z"/>
				<path class="st0" d="M237.6,568.2c-5.5-9.1-9.3-25.6-21.2-41.5c-19.5-26.1-48.3-104.1-16-154.6c0,0,41.5-31.4,76-55.8
					c10.7-15.3,20.1-24.7,20.1-24.7c-27.6,16.2-108.7,80.5-108.7,80.5c-32.3,50.5-3.6,128.5,16,154.6c19.3,25.7,28.8,45.6,29.9,47.9
					C233.9,574.7,234.7,571.8,237.6,568.2z"/>
			</g>
			<path class="st1" d="M249.5,324.3c0,0-18.4,48.1-21.4,98.7c0,0-13.8-15.1-11.4-36.5c0,0-15.1,31-4.2,65.9
				c0,0-18.9-14.6-17.2-41.4c0,0-5,51.9,23.8,99.8c0,0,17.2-7.4,22.5-34c0,0,19.9,55-6,85c0,0-30.9-47.2-38-65.8
				c-4.8-12.8-31.6-84.3-13.8-124C183.9,372.1,234.5,330.5,249.5,324.3z"/>
			<g>
				<path class="st1" d="M237.9,500.1c0.1-7.5,0.1-15,0.1-22.5c0-7.5-0.1-15-0.2-22.5c1.3,7.4,2.5,14.8,3.6,22.3
					c1.2,7.4,2.2,14.9,3.2,22.3c0.2,1.8-1,3.5-2.8,3.7c-1.8,0.2-3.5-1-3.7-2.8C237.9,500.5,237.9,500.4,237.9,500.1L237.9,500.1z"/>
			</g>
			<g>
				<path class="st1" d="M229.1,511c-0.2-7.5-0.4-15-0.7-22.5c-0.2-7.5-0.6-15-1.1-22.5c1.6,7.4,3,14.7,4.3,22.2
					c1.4,7.4,2.7,14.8,4,22.3c0.3,1.8-0.9,3.6-2.7,3.8c-1.8,0.3-3.6-0.9-3.8-2.7C229.1,511.4,229.1,511.2,229.1,511L229.1,511z"/>
			</g>
			<g>
				<path class="st1" d="M220.1,521.9c-0.4-7.4-0.8-15-1.3-22.5c-0.5-7.5-1-15-1.7-22.5c1.7,7.3,3.3,14.6,5,22
					c1.6,7.4,3.1,14.7,4.6,22.1c0.3,1.8-0.8,3.6-2.6,3.9c-1.8,0.3-3.6-0.8-3.9-2.6C220.2,522.2,220.1,522.1,220.1,521.9L220.1,521.9
					z"/>
			</g>
		</g>
		<g>
			<g>
				
					<linearGradient id="SVGID_12_" gradientUnits="userSpaceOnUse" x1="136.3089" y1="800.5952" x2="801.17" y2="800.5952" gradientTransform="matrix(1 0 0 -1 0 1216)">
					<stop  offset="0" style="stop-color:#52FFCE"/>
					<stop  offset="0.9948" style="stop-color:#6700E4"/>
				</linearGradient>
				<path class="st18" d="M677.7,252.7c0,0,79.7,123.5,46.2,214.3c-23.4,63.4-2.2,111.3-2.2,111.3s93.1-59.3,69-236.3
					C790.6,341.9,706.6,247.8,677.7,252.7z"/>
				<path class="st1" d="M678,252.8c0.1,0,0.1-0.2,0.1-0.2c0-0.1,0,0,0,0l0.1,0.2l0.2,0.2l0.4,0.6l0.7,1.1l1.5,2.2
					c1,1.5,1.9,3,2.9,4.5c1.9,3,3.7,6,5.5,9.1c3.6,6.1,6.9,12.3,10.2,18.7c6.5,12.7,12.2,25.6,17.4,39c5,13.3,9.3,27,12.4,40.9
					c1.6,6.9,2.9,14,3.9,21.1c0.9,7.1,1.6,14.2,1.7,21.4c0.3,14.4-1.1,28.9-4.9,42.8c-0.5,1.7-1,3.5-1.5,5.2
					c-0.6,1.7-1.1,3.4-1.7,5.1l-1.8,5c-0.6,1.7-1.2,3.3-1.8,5c-2.3,6.6-4.2,13.4-5.7,20.3c-1.4,6.9-2.5,13.8-3.1,20.8
					c-0.5,7-0.6,14.1-0.2,21.1c0.4,7,1.3,14,2.7,20.9c0.7,3.5,1.6,6.9,2.5,10.2c1,3.3,2.1,6.7,3.5,9.8l-1.9-0.6
					c2.1-1.5,4.2-3.1,6.2-4.9c2-1.7,4-3.6,5.8-5.5c3.7-3.7,7.3-7.7,10.7-11.8c6.7-8.3,12.5-17.2,17.6-26.5
					c10.3-18.6,17.5-38.7,22.3-59.3c4.8-20.7,7-41.9,7.4-63.1c0.4-21.3-0.9-42.6-3.6-63.7l0.8,1.7c-8-9.1-16.3-18-24.7-26.8
					c-8.4-8.8-17-17.4-25.9-25.7c-4.4-4.1-8.9-8.3-13.5-12.2s-9.3-7.9-14.1-11.5c-4.8-3.6-9.8-7.1-15.1-10c-2.6-1.4-5.4-2.7-8.2-3.7
					c-1.4-0.5-2.9-0.9-4.3-1.1c-0.7-0.1-1.5-0.2-2.2-0.2c-0.3,0-0.7,0-1.1,0h-0.5C678.2,253,678.1,252.9,678,252.8z M677.3,252.5
					c0.2-0.1,0.5-0.2,0.7-0.2c0.2,0,0.2-0.1,0.3-0.1h0.3c0.4-0.1,0.7-0.1,1.2-0.1c0.7,0,1.6,0,2.3,0.1c1.6,0.2,3.1,0.4,4.6,0.8
					c3,0.8,5.9,2,8.7,3.3c5.6,2.6,10.8,5.9,16,9.3c10.2,6.9,19.8,14.6,29,22.7c9.3,8,18.2,16.5,27,25c8.8,8.6,17.3,17.4,25.6,26.4
					c0.4,0.5,0.7,1.1,0.8,1.7v0.1c1.5,10.7,2.6,21.5,3.4,32.3l0.5,8.1c0.1,2.7,0.2,5.4,0.2,8.1c0.1,5.4,0.2,10.8,0,16.3
					c-0.2,10.8-1.1,21.7-2.5,32.4c-0.7,5.4-1.6,10.8-2.5,16c-1,5.4-2.2,10.7-3.4,16c-1.3,5.3-2.8,10.5-4.4,15.7
					c-1.7,5.2-3.5,10.3-5.5,15.4c-4,10.1-8.8,19.9-14.3,29.3c-5.6,9.3-11.9,18.2-19,26.4c-3.6,4.1-7.3,8-11.2,11.7
					c-2,1.8-4.1,3.6-6.1,5.4c-2.2,1.7-4.2,3.4-6.6,4.9l0,0c-0.6,0.4-1.4,0.2-1.7-0.4c-0.1-0.1-0.1-0.2-0.1-0.2
					c-1.3-3.4-2.4-6.8-3.3-10.3c-0.9-3.5-1.7-6.9-2.4-10.4c-1.3-7-2.2-14.1-2.6-21.2c-0.4-7.1-0.4-14.2,0.1-21.3
					c0.5-7.1,1.3-14.2,2.6-21.2c1.2-7,2.9-14,5-20.8c1-3.4,2.2-6.9,3.2-10.1c0.6-1.7,1-3.3,1.5-5c0.4-1.7,0.8-3.4,1.2-5
					c3-13.6,3.9-27.5,3.3-41.5c-0.6-13.9-2.5-27.8-5.5-41.5c-3-13.6-6.9-27.2-11.5-40.5c-4.5-13.3-9.9-26.4-15.7-39.2
					c-2.9-6.4-6-12.8-9.1-19.1c-1.6-3.1-3.2-6.3-4.9-9.4l-2.5-4.6l-1.2-2.3l-0.7-1.2l-0.3-0.6l-0.2-0.2l-0.1-0.2c0-0.1,0,0-0.1-0.2
					C677.3,252.8,677.3,252.6,677.3,252.5z"/>
			</g>
			<path class="st1" d="M732.7,303.2c0,0,5.1,77,16.5,101c0,0-2.7-35.1,3.1-40.5c0,0,0,62.9,7.8,81.7c0,0,5.3-58.6,15-60.5
				c9.7-1.8,3.7,97.3-15,104.6c-18.8,7.3-21.9,0.7-21.9,0.7s-2.8-8.3,4.4-37c0,0-32.2,66.9-18.5,108.9c0,0,18.5-6.5,36.1-44.1
				c6.6-14.2,25.7-36.6,35.4-152.9C795.5,365,751.7,293.8,732.7,303.2z"/>
			<g>
				<path class="st1" d="M734.1,502.5c1.4-3.9,2.8-7.7,4.2-11.6c1.4-3.8,2.9-7.7,4.4-11.5c1.5-3.8,3.1-7.6,4.6-11.4
					c1.6-3.8,3.2-7.5,5-11.2c-1.2,3.9-2.4,7.8-3.5,11.7c-1.1,4-2.1,7.9-3.1,11.8c-1,4-1.9,7.9-2.8,11.9c-0.9,4-1.7,7.9-2.6,11.9l0,0
					c-0.4,1.8-2.2,3-3.9,2.6c-1.7-0.4-3-2.2-2.6-3.9C734,502.8,734.1,502.7,734.1,502.5z"/>
			</g>
			<g>
				<path class="st1" d="M744.3,502.4c3.3-8.4,6.5-16.8,9.6-25.2c3.1-8.4,6-17,8.6-25.6c-1.5,8.9-3.4,17.8-5.5,26.6
					c-2.1,8.9-4.2,17.6-6.5,26.4c-0.5,1.7-2.2,2.8-4.1,2.4c-1.8-0.4-2.8-2.2-2.4-4.1C744.2,502.7,744.3,502.5,744.3,502.4
					L744.3,502.4z"/>
			</g>
			<g>
				<path class="st1" d="M755.9,503c3.1-9.4,6-18.9,8.9-28.5c1.4-4.8,2.8-9.5,4.2-14.3c1.3-4.8,2.6-9.6,3.8-14.4
					c-0.7,5-1.4,9.8-2.2,14.8c-0.8,4.9-1.7,9.8-2.6,14.7c-1.8,9.8-3.7,19.6-5.7,29.4c-0.3,1.8-2.2,3-3.9,2.6c-1.8-0.3-3-2.2-2.6-3.9
					C755.8,503.3,755.8,503.1,755.9,503L755.9,503z"/>
			</g>
		</g>
		<g>
			<path class="st0" d="M797.2,414.9c-1.7,0-3.2-1.3-3.3-3.1l0,0c-0.7-11.7-8.7-41-33.8-68.6c-18.4-20.2-43.2-36.6-73.5-49
				c-38.1-15.4-85.1-24.2-139.9-26c-8.5-0.2-17-0.4-25.4-0.4c-56.7,0-110,6.6-158.5,19.8c-38.7,10.5-74.5,25.1-106.3,43.4
				c-54,31.2-77.9,62.5-78.2,62.9c-0.6,0.7-1.5,1.2-2.4,1.3c-0.1,0-0.2,0-0.2,0c-0.9,0-1.7-0.3-2.3-1c-19.1-19.4,2.1-49.1,3.9-51.5
				c34.7-55.7,89.8-97.5,163.5-124.3c74.3-27,147.2-31,184-31c7.5,0,15.1,0.2,22.3,0.5c83.6,3.7,148.1,23.4,191.4,58.6
				c42.4,34.3,52.9,74.2,55.5,95c6.6,54.5,6.6,69.5,6.6,70.1C800.5,413.3,799.1,414.8,797.2,414.9
				C797.3,414.9,797.3,414.9,797.2,414.9z"/>
			<path class="st1" d="M524.7,190.8c7.7,0,15.1,0.2,22.1,0.5C733.7,199.7,783.9,287,790.6,342s6.6,69.7,6.6,69.7
				s-8.1-138.4-250.4-146.6c-8.7-0.3-17.2-0.4-25.6-0.4c-249.7,0-345.7,127.4-345.7,127.4c-17.8-18,4.3-47.3,4.3-47.3
				C256.6,221.8,420.3,190.8,524.7,190.8 M524.7,184.2c-37.1,0-110.3,4.1-185,31.3c-34.6,12.6-65.6,28.7-92.1,48
				c-30,21.8-54.6,47.9-73.1,77.6c-1.1,1.5-6.3,8.9-9.6,18.4c-5.2,15.1-3.1,28,6,37.2c1.2,1.2,3,2,4.7,2c0.2,0,0.3,0,0.4,0
				c1.9-0.2,3.7-1.1,4.9-2.6c0.1-0.1,6-7.9,18.6-19.5c11.6-10.7,31.3-26.8,59.3-42.8c31.5-18.1,67-32.5,105.4-42.8
				c48.1-13,100.9-19.5,157.1-19.5c8.4,0,16.8,0.2,25.3,0.4c54.5,1.8,101.2,10.5,139.1,25.9c29.9,12.2,54.2,28.4,72.3,48.3
				c30.4,33.5,32.6,65.8,32.6,66.2c0.2,3.5,3.1,6.2,6.6,6.2c0.1,0,0.1,0,0.2,0c3.6-0.1,6.5-3,6.5-6.6c0-0.7,0-15.8-6.6-70.6
				c-2.6-21.3-13.4-62-56.7-97.1c-44-35.7-109-55.6-193.4-59.4C539.8,184.4,532.3,184.2,524.7,184.2L524.7,184.2z"/>
		</g>
		<g>
			<path class="st0" d="M797.2,414.9c-1.7,0-3.2-1.3-3.3-3.1l0,0c-0.7-11.7-8.7-41-33.8-68.6c-18.4-20.2-43.2-36.6-73.5-49
				c-38.1-15.4-85.1-24.2-139.9-26c-8.5-0.2-17-0.4-25.4-0.4c-56.7,0-110,6.6-158.5,19.8c-38.7,10.5-74.5,25.1-106.3,43.4
				c-54,31.2-77.9,62.5-78.2,62.9c-0.6,0.7-1.5,1.2-2.4,1.3c-0.1,0-0.2,0-0.2,0c-0.9,0-1.7-0.3-2.3-1c-19.1-19.4,2.1-49.1,3.9-51.5
				c34.7-55.7,89.8-97.5,163.5-124.3c74.3-27,147.2-31,184-31c7.5,0,15.1,0.2,22.3,0.5c83.6,3.7,148.1,23.4,191.4,58.6
				c42.4,34.3,52.9,74.2,55.5,95c6.6,54.5,6.6,69.5,6.6,70.1C800.5,413.3,799.1,414.8,797.2,414.9
				C797.3,414.9,797.3,414.9,797.2,414.9z"/>
			<path class="st1" d="M524.7,190.8c7.7,0,15.1,0.2,22.1,0.5C733.7,199.7,783.9,287,790.6,342s6.6,69.7,6.6,69.7
				s-8.1-138.4-250.4-146.6c-8.7-0.3-17.2-0.4-25.6-0.4c-249.7,0-345.7,127.4-345.7,127.4c-17.8-18,4.3-47.3,4.3-47.3
				C256.6,221.8,420.3,190.8,524.7,190.8 M524.7,184.2c-37.1,0-110.3,4.1-185,31.3c-34.6,12.6-65.6,28.7-92.1,48
				c-30,21.8-54.6,47.9-73.1,77.6c-1.1,1.5-6.3,8.9-9.6,18.4c-5.2,15.1-3.1,28,6,37.2c1.2,1.2,3,2,4.7,2c0.2,0,0.3,0,0.4,0
				c1.9-0.2,3.7-1.1,4.9-2.6c0.1-0.1,6-7.9,18.6-19.5c11.6-10.7,31.3-26.8,59.3-42.8c31.5-18.1,67-32.5,105.4-42.8
				c48.1-13,100.9-19.5,157.1-19.5c8.4,0,16.8,0.2,25.3,0.4c54.5,1.8,101.2,10.5,139.1,25.9c29.9,12.2,54.2,28.4,72.3,48.3
				c30.4,33.5,32.6,65.8,32.6,66.2c0.2,3.5,3.1,6.2,6.6,6.2c0.1,0,0.1,0,0.2,0c3.6-0.1,6.5-3,6.5-6.6c0-0.7,0-15.8-6.6-70.6
				c-2.6-21.3-13.4-62-56.7-97.1c-44-35.7-109-55.6-193.4-59.4C539.8,184.4,532.3,184.2,524.7,184.2L524.7,184.2z"/>
		</g>
		<path class="st1" d="M348.9,279.3c0,0,48.8-69.2,99.6-85.3c0,0-77.5-6.5-151.9,102.4L348.9,279.3z"/>
		<g>
			<path class="st1" d="M790.6,387.5c-1.2-7.3-3.1-14.4-5.9-21.2c-2.6-6.8-6-13.4-9.9-19.5c-3.9-6.2-8.4-12-13.3-17.4
				c-2.4-2.7-5-5.2-7.7-7.9c-2.7-2.4-5.4-5-8.3-7.2l-2.2-1.7c-0.7-0.6-1.4-1.2-2.2-1.7l-4.4-3.2c-1.4-1.1-3-2.1-4.5-3.1
				c-1.5-1-3-2.1-4.5-3l-4.7-2.8l-2.3-1.4l-2.3-1.4l-4.8-2.6c-0.8-0.4-1.7-0.8-2.4-1.2l-2.5-1.2c-13.2-6.4-26.8-11.6-40.8-15.8
				l-5.2-1.6l-5.3-1.4c-3.6-0.9-7-1.9-10.7-2.6l-5.4-1.2c-1.8-0.4-3.6-0.8-5.4-1.2l-10.8-2.1c-14.4-2.5-29-4.5-43.5-5.8
				c-14.6-1.2-29.2-2.2-43.8-2.5s-29.3-0.1-43.9,0.7c-29.3,1.4-58.4,4.8-87.3,10.1c-14.4,2.6-28.7,5.9-42.8,9.7
				c-14.1,3.8-28.1,8.1-41.9,13.2c-13.7,5-27.2,10.8-40.4,17.2c-13.1,6.5-25.8,13.9-38,22.1l-4.5,3.1c-1.5,1-3.1,2.1-4.5,3.1
				l-8.8,6.6l-8.4,7c-0.7,0.6-1.4,1.2-2.1,1.8l-2,1.9l-4.1,3.7l-2,1.9c-0.7,0.6-1.3,1.2-2,1.9l-3.8,4l-3.8,4
				c-0.7,0.7-1.2,1.3-1.8,2.1l-1.8,2.1l-3.6,4.1l-1.8,2.1c-0.6,0.7-1.2,1.4-1.7,2.2l-6.8,8.7l6.5-8.9c0.6-0.7,1.1-1.5,1.7-2.2
				l1.7-2.2l3.5-4.3l1.7-2.2c0.6-0.7,1.2-1.4,1.8-2.1l3.7-4.1l3.7-4.1c0.6-0.7,1.2-1.3,1.9-2l2-1.9l4-3.9l2-1.9
				c0.7-0.7,1.4-1.2,2.1-1.8l8.4-7.3l8.7-6.9c1.4-1.2,2.9-2.2,4.5-3.3l4.5-3.2c12.1-8.5,24.7-16.1,37.9-22.9
				c13.2-6.8,26.7-12.7,40.5-18c3.5-1.2,6.9-2.6,10.4-3.8l10.5-3.6c7-2.2,14.1-4.5,21.3-6.4c14.2-3.9,28.6-7.3,43.1-10.1
				c29-5.5,58.4-8.9,87.8-10.4c14.7-0.7,29.5-0.9,44.3-0.6c14.8,0.4,29.4,1.3,44.2,2.7c14.7,1.5,29.4,3.6,43.8,6.2
				c14.6,2.7,28.9,6.3,43,10.8c14.1,4.5,28,9.8,41.1,16.6l2.5,1.2c0.8,0.4,1.7,0.8,2.5,1.3l4.8,2.7l2.4,1.3l2.3,1.5l4.7,3
				c6.1,4.1,12.2,8.4,17.8,13.3c2.9,2.3,5.5,5,8.2,7.4c2.6,2.6,5.2,5.3,7.5,8.1c4.9,5.6,9.3,11.5,13.1,17.9c3.8,6.4,7,13,9.5,19.9
				C787.9,372.9,789.7,380.1,790.6,387.5z"/>
		</g>
		<g>
			
				<linearGradient id="SVGID_13_" gradientUnits="userSpaceOnUse" x1="106.4212" y1="942.7408" x2="827.2359" y2="942.7408" gradientTransform="matrix(1 0 0 -1 0 1216)">
				<stop  offset="0" style="stop-color:#52FFCE"/>
				<stop  offset="0.9948" style="stop-color:#6700E4"/>
			</linearGradient>
			<path class="st19" d="M799.4,369.2c-1.8,0-3.6-0.4-5.3-1.2c-16.2-7.9-26.1-28.4-36.6-50.1c-11.6-24-23.6-48.7-44.5-57.3
				c-11.7-4.8-19.6-12.5-23.7-22.8c-8.6-21.7,2.6-47.2,3.1-48.2c0.3-0.7,0.9-1.3,1.7-1.7c0.9-0.4,22.7-10.4,48.4-10.4
				c30.3,0,53.3,14.1,66.5,40.9c11.3,22.8,17.5,51.4,17.4,80.4c-0.1,24.8-5,48-12.7,60.5C808.3,367.4,803,369.2,799.4,369.2z"/>
			<path class="st1" d="M742.3,180.6c22.7,0,48.2,8.2,63.6,39c30.6,61.7,14.7,146.2-6.5,146.2c-1.2,0-2.6-0.3-3.9-0.9
				c-32.7-15.9-40.1-90.7-81.4-107.5c-41.3-17-18.9-66.7-18.9-66.7S716.9,180.6,742.3,180.6 M742.3,174v6.6V174
				c-26.5,0-48.9,10.3-49.8,10.8c-1.4,0.7-2.6,1.8-3.2,3.3c-0.5,1.2-12.3,27.9-3.1,50.8c4.5,11.2,13.1,19.5,25.6,24.7
				c19.7,8.1,31.4,32.3,42.8,55.7c10.8,22.3,20.9,43.3,38.2,51.7c2.2,1.1,4.5,1.6,6.8,1.6c4.4,0,10.9-2,17-11.7
				c8.2-13.2,13.1-36.4,13.2-62.2c0.1-29.5-6.2-58.6-17.7-81.9C797.9,188.8,773.9,174,742.3,174L742.3,174z"/>
		</g>
		<path class="st1" d="M752.8,184.1c0,0,30.7,24.4,30.7,37.6c0,0-19.4,36.3-18.8,73.7c0,0,10.3,22.5,14.2,28.7
			c4,6.2,16.5,17,16.5,17s-2.6-21.8-6.4-29.5c0,0,14.3,15.8,15.2,22.7c0,0-1.7-21.4,0-37.9c0,0,14,38.3-1.7,62.6l-1-11.2l-4.4,11.7
			c0,0-17-12.1-36-52.7c-21-45-18.9-35-18.9-35L752.8,184.1z"/>
		<path class="st0" d="M800.7,229.1c22.5,45.4,19.9,103.1,8.5,130.4c15.3-20.8,22.3-88.3-3.3-139.9c-32.4-65.4-110.6-29-110.6-29
			s-1.5,3.3-3,8.5C705,194,771.5,170.1,800.7,229.1z"/>
		<g>
			<g>
				
					<linearGradient id="SVGID_14_" gradientUnits="userSpaceOnUse" x1="133.7758" y1="919.7032" x2="852.4864" y2="919.7032" gradientTransform="matrix(1 0 0 -1 0 1216)">
					<stop  offset="0" style="stop-color:#52FFCE"/>
					<stop  offset="0.9948" style="stop-color:#6700E4"/>
				</linearGradient>
				<path class="st20" d="M157.3,388c-6.4,0-12.2-3.1-16.2-8.9c-7.1-10-15.6-36.6,7.1-102.6c20.5-59.5,53.5-72,77.6-72
					c18.9,0,32.8,7.6,33.4,7.9c0.4,0.2,0.8,0.6,1.1,1c1.1,1.6,27,39,22.3,59c-1.1,4.6-3.7,8.1-7.7,10.3
					c-14.4,7.9-48.7,41.4-96.7,94.4C171.9,384.1,164.5,388,157.3,388L157.3,388z"/>
				<path class="st1" d="M225.8,207.9c18.2,0,31.8,7.5,31.8,7.5s36.9,52.9,15.7,64.4c-21.2,11.5-74.7,69.7-97.6,95
					c-5.7,6.4-12.3,9.8-18.4,9.8c-18.3,0-32.3-30.9-6-107.1C171.2,220.4,202.3,207.9,225.8,207.9 M225.8,201.3
					c-25.1,0-59.5,12.9-80.7,74.2c-17.2,50-19.6,87.4-6.7,105.6c4.7,6.6,11.4,10.3,18.9,10.3c8.1,0,16.4-4.2,23.3-12
					c47.7-52.7,81.7-86,95.9-93.7c4.8-2.6,8-6.9,9.3-12.5c2.2-9.3-1.1-22.7-9.8-39.7c-6.1-12-12.7-21.5-13-21.9
					c-0.6-0.8-1.3-1.5-2.2-2C260.2,209.3,245.5,201.3,225.8,201.3L225.8,201.3z"/>
			</g>
			<path class="st1" d="M246.7,215.9c-0.6-0.2-33-5.5-57.5,34.5c0,0,24.2-6.5,23.7,11.9c-0.5,18.4-15.1,68.2-28.4,66.2
				s-17.4-29.9-17.4-29.9s-20,50.5-1.8,69.2c2.9,3,7.8,2.7,10.4-0.5c11.3-13.8,44.6-53.2,73.8-75.5
				C249.5,291.8,258,220.1,246.7,215.9z"/>
			<path class="st0" d="M164.5,277.9c18.4-53.1,46.5-67.7,69.2-69.6c-23.9-2.7-60.2,5.4-82.2,69.3c-29.4,85.1-8.6,113.7,12.4,105.9
				C149.2,376.5,141.4,344.6,164.5,277.9z"/>
			<g>
				
					<linearGradient id="SVGID_15_" gradientUnits="userSpaceOnUse" x1="188.279" y1="955.976" x2="219.0509" y2="955.976" gradientTransform="matrix(1 0 0 -1 0 1216)">
					<stop  offset="0" style="stop-color:#52FFCE"/>
					<stop  offset="0.9948" style="stop-color:#6700E4"/>
				</linearGradient>
				<path class="st21" d="M219.1,241.3c0,0-18.2,16.2-30.8,37.5"/>
				<path class="st1" d="M221.3,243.7c-3.1,2.4-6.1,5.1-9,7.8c-3,2.7-5.8,5.5-8.6,8.5c-2.8,2.9-5.5,6-8,9c-2.6,3.1-5,6.4-7.4,9.7
					c1.9-3.6,3.8-7.2,6-10.7c2.2-3.5,4.4-6.9,6.9-10.2c2.4-3.3,4.9-6.6,7.5-9.8c2.6-3.2,5.3-6.3,8.2-9.3c1.2-1.3,3.4-1.4,4.7-0.1
					c1.3,1.2,1.4,3.4,0.1,4.7C221.5,243.5,221.4,243.6,221.3,243.7L221.3,243.7z"/>
			</g>
			<g>
				
					<linearGradient id="SVGID_16_" gradientUnits="userSpaceOnUse" x1="407.6209" y1="873.9062" x2="438.4189" y2="873.9062" gradientTransform="matrix(0.9982 6.034931e-02 6.034931e-02 -0.9982 -282.3216 1099.1801)">
					<stop  offset="0" style="stop-color:#52FFCE"/>
					<stop  offset="0.9948" style="stop-color:#6700E4"/>
				</linearGradient>
				<path class="st22" d="M209.1,234.6c0,0-19.1,15.1-33,35.6"/>
				<path class="st1" d="M211.2,237.2c-3.1,2.2-6.4,4.7-9.5,7.3s-6.1,5.2-9.1,7.9c-3,2.7-5.8,5.6-8.6,8.5c-2.8,2.9-5.4,6-7.9,9.2
					c2.1-3.5,4.2-6.9,6.6-10.3c2.3-3.3,4.8-6.6,7.4-9.8c2.6-3.1,5.3-6.3,8.1-9.3c2.8-3.1,5.6-6,8.8-8.9c1.3-1.2,3.5-1.2,4.7,0.2
					c1.2,1.3,1.2,3.5-0.2,4.7C211.5,236.9,211.4,237,211.2,237.2L211.2,237.2z"/>
			</g>
			<g>
				
					<linearGradient id="SVGID_17_" gradientUnits="userSpaceOnUse" x1="192.994" y1="944.8915" x2="223.7659" y2="944.8915" gradientTransform="matrix(1 0 0 -1 0 1216)">
					<stop  offset="0" style="stop-color:#52FFCE"/>
					<stop  offset="0.9948" style="stop-color:#6700E4"/>
				</linearGradient>
				<path class="st23" d="M223.8,252.4c0,0-18.2,16.2-30.8,37.5"/>
				<path class="st1" d="M225.9,254.8c-3.1,2.4-6.1,5.1-9,7.8c-3,2.7-5.8,5.5-8.6,8.5c-2.8,2.9-5.5,6-8,9c-2.6,3.1-5,6.4-7.4,9.7
					c1.9-3.6,3.8-7.2,6-10.7c2.2-3.5,4.4-6.9,6.9-10.2c2.4-3.3,4.9-6.6,7.5-9.8c2.6-3.2,5.3-6.3,8.2-9.3c1.2-1.3,3.4-1.4,4.7-0.1
					c1.3,1.2,1.4,3.4,0.1,4.7C226.2,254.5,226.1,254.7,225.9,254.8L225.9,254.8z"/>
			</g>
			<g>
				
					<linearGradient id="SVGID_18_" gradientUnits="userSpaceOnUse" x1="194.9793" y1="931.1599" x2="225.7512" y2="931.1599" gradientTransform="matrix(1 0 0 -1 0 1216)">
					<stop  offset="0" style="stop-color:#52FFCE"/>
					<stop  offset="0.9948" style="stop-color:#6700E4"/>
				</linearGradient>
				<path class="st24" d="M225.8,266.1c0,0-18.2,16.2-30.8,37.5"/>
				<path class="st1" d="M227.9,268.6c-3.1,2.4-6.1,5.1-9,7.8c-3,2.7-5.8,5.5-8.6,8.5c-2.8,2.9-5.5,6-8,9c-2.6,3.1-5,6.4-7.4,9.7
					c1.9-3.6,3.8-7.2,6-10.7c2.2-3.5,4.4-6.9,6.9-10.2c2.4-3.3,4.9-6.6,7.5-9.8c2.6-3.2,5.3-6.3,8.2-9.3c1.2-1.3,3.4-1.4,4.7-0.1
					c1.3,1.2,1.4,3.4,0.1,4.7C228.2,268.3,228.1,268.4,227.9,268.6L227.9,268.6z"/>
			</g>
			<path class="st0" d="M151.4,277.6c0,0,29.4-41.8,37.8-27.2c0,0-17.7,43.8-15.8,50.8c1.9,6.9,25.7-41.9,30.4-29.2
				c0,0-30.4,57.3-4,40.5c0,0-29.9,30.3-19.8-8.9c0,0-32.4,25.8-3.8-43.1l-24.8,40.7C151.4,301.1,151.4,277.6,151.4,277.6z"/>
		</g>
		
			<ellipse transform="matrix(0.1602 -0.9871 0.9871 0.1602 -59.6719 887.5846)" class="st1" cx="491.8" cy="478.9" rx="43.3" ry="43.3"/>
		<g>
			
				<ellipse transform="matrix(0.1602 -0.9871 0.9871 0.1602 -12.8486 891.6632)" class="st0" cx="517.6" cy="453.4" rx="23.2" ry="23.2"/>
		</g>
		<path class="st10" d="M396.3,320c55-23.4,153.7-48.2,233.1,25.2c3.6,3.3,8.9-1.4,5.9-5.3c-36.5-47.6-115-111-242.6-27
			C388.6,315.7,391.9,321.9,396.3,320z"/>
		<path class="st10" d="M496.7,186.9v64.6l48.8,0.3l-6-61l-10.1-1.7c0,0,8.8,53.2-4.7,46.6c-13.5-6.6-6.3-47.7-6.3-47.7L496.7,186.9
			z"/>
		<path class="st1" d="M619.3,261.9l30.4,6.3c0,0-14.9-46.7-45.7-74C603.9,194.1,623.6,240.6,619.3,261.9z"/>
		<polygon class="st1" points="448.5,194 431.1,261.1 456.5,257.9 464.7,189.9 		"/>
		<g>
			<path class="st0" d="M511.7,637.8c-29.4,0-63.5-3-68.4-4.5c-7.9-2.5-17.5-17-19.4-19.8c-0.5-0.8-0.7-1.8-0.3-2.7l0.8-2.6
				c0.4-1.4,1.7-2.3,3.1-2.3c0.2,0,0.2,0,0.4,0c2.6,0.3,5.2,0.5,8,0.5c10.3,0,22.1-2.2,34.8-6.7c8.9-3.1,17.5-4.5,26.4-4.5
				c13.7,0,25.7,3.6,37.3,6.9c10.6,3.1,20.5,6,30.9,6c0.3,0,0.7,0,1.1,0h0.1c1.7,0,3.1,1.3,3.3,3.1c0.7,8.3-12.6,18.7-16.7,21.7
				c-0.1,0.1-0.2,0.2-0.3,0.2C547,636.3,533.6,637.8,511.7,637.8L511.7,637.8z"/>
			<path class="st1" d="M497.2,598.4c25.6,0,45.7,13,68.2,13c0.4,0,0.7,0,1.2,0c0.6,7-15.3,18.8-15.3,18.8
				c-5.9,3.3-21.7,4.5-39.5,4.5c-29,0-63-3-67.5-4.4c-7.2-2.2-17.5-18.4-17.5-18.4l0.8-2.6c2.5,0.3,5.3,0.5,8.4,0.5
				c9.2,0,21.1-1.7,36-6.9C480.9,599.5,489.3,598.4,497.2,598.4 M497.2,591.8L497.2,591.8c-9.3,0-18.3,1.6-27.5,4.8
				c-12.5,4.4-23.8,6.5-33.7,6.5c-2.6,0-5.2-0.2-7.6-0.5c-0.2,0-0.6-0.1-0.8-0.1c-2.9,0-5.5,1.8-6.3,4.6l-0.8,2.6
				c-0.6,1.9-0.3,3.9,0.7,5.5c2.7,4.3,12.3,18.4,21.2,21.2c6.3,1.9,43.2,4.7,69.4,4.7c14.3,0,34.2-0.6,42.7-5.3
				c0.2-0.2,0.5-0.2,0.7-0.4c0.2-0.2,4.4-3.2,8.6-7.4c6.9-6.7,9.8-12.2,9.4-17.3c-0.3-3.4-3.1-6-6.6-6c-0.1,0-0.1,0-0.2,0
				c-0.3,0-0.7,0-1,0c-9.9,0-19.7-2.9-29.9-5.9C523.5,595.3,511.3,591.8,497.2,591.8L497.2,591.8z"/>
		</g>
		<g>
			
				<linearGradient id="SVGID_19_" gradientUnits="userSpaceOnUse" x1="427.2406" y1="607.931" x2="799.8922" y2="607.931" gradientTransform="matrix(0.9998 1.775592e-02 1.775592e-02 -0.9998 -79.5266 1181.1143)">
				<stop  offset="0" style="stop-color:#52FFCE"/>
				<stop  offset="0.9948" style="stop-color:#6700E4"/>
			</linearGradient>
			<path class="st25" d="M604.9,578.2c-4.5,1-7.6,5-6.8,8.9c0.8,3.9,5.2,6.3,9.8,5.3c4.5-1,7.6-5,6.8-8.9
				C613.9,579.6,609.4,577.3,604.9,578.2z"/>
			
				<linearGradient id="SVGID_20_" gradientUnits="userSpaceOnUse" x1="457.7326" y1="615.2524" x2="830.3841" y2="615.2524" gradientTransform="matrix(0.9998 1.775592e-02 1.775592e-02 -0.9998 -79.5266 1181.1143)">
				<stop  offset="0" style="stop-color:#52FFCE"/>
				<stop  offset="0.9948" style="stop-color:#6700E4"/>
			</linearGradient>
			<path class="st26" d="M676.2,572.2c-4.5,1-7.6,5-6.8,8.9c0.8,3.9,5.2,6.3,9.8,5.3s7.6-5,6.8-8.9
				C685.2,573.5,680.8,571.2,676.2,572.2z"/>
			
				<linearGradient id="SVGID_21_" gradientUnits="userSpaceOnUse" x1="435.6647" y1="590.525" x2="808.3162" y2="590.525" gradientTransform="matrix(0.9998 1.775592e-02 1.775592e-02 -0.9998 -79.5266 1181.1143)">
				<stop  offset="0" style="stop-color:#52FFCE"/>
				<stop  offset="0.9948" style="stop-color:#6700E4"/>
			</linearGradient>
			<path class="st27" d="M629.9,596.1c-4.5,1-7.6,5-6.8,8.9s5.2,6.3,9.8,5.3c4.5-1,7.6-5,6.8-8.9
				C638.9,597.5,634.6,595.1,629.9,596.1z"/>
			
				<linearGradient id="SVGID_22_" gradientUnits="userSpaceOnUse" x1="395.0058" y1="624.0734" x2="767.6573" y2="624.0734" gradientTransform="matrix(0.9998 1.775592e-02 1.775592e-02 -0.9998 -79.5266 1181.1143)">
				<stop  offset="0" style="stop-color:#52FFCE"/>
				<stop  offset="0.9948" style="stop-color:#6700E4"/>
			</linearGradient>
			<path class="st28" d="M647.2,567.9c-0.8-3.9-5.2-6.3-9.8-5.3c-4.5,1-7.6,5-6.8,8.9c0.8,3.9,5.2,6.3,9.8,5.3
				C645,575.8,648,571.8,647.2,567.9z"/>
			
				<linearGradient id="SVGID_23_" gradientUnits="userSpaceOnUse" x1="-856.1083" y1="1287.5157" x2="-483.4569" y2="1287.5157" gradientTransform="matrix(0.9501 -0.3121 -0.3121 -0.9501 1491.6147 1544.3413)">
				<stop  offset="0" style="stop-color:#52FFCE"/>
				<stop  offset="0.9948" style="stop-color:#6700E4"/>
			</linearGradient>
			<path class="st29" d="M350.2,556.6c-4.6,0.4-8.2,4-7.8,7.9c0.3,4,4.4,6.9,9.1,6.5c4.6-0.4,8.2-4,7.8-7.9
				C358.9,559.1,354.9,556.2,350.2,556.6z"/>
			
				<linearGradient id="SVGID_24_" gradientUnits="userSpaceOnUse" x1="-842.5054" y1="1303.7198" x2="-469.8539" y2="1303.7198" gradientTransform="matrix(0.9501 -0.3121 -0.3121 -0.9501 1491.6147 1544.3413)">
				<stop  offset="0" style="stop-color:#52FFCE"/>
				<stop  offset="0.9948" style="stop-color:#6700E4"/>
			</linearGradient>
			<path class="st30" d="M319.4,549.7c-4.6,0.4-8.2,4-7.8,7.9c0.4,4,4.4,6.9,9.1,6.5c4.6-0.4,8.2-4,7.8-7.9
				C328.1,552.1,324,549.2,319.4,549.7z"/>
			
				<linearGradient id="SVGID_25_" gradientUnits="userSpaceOnUse" x1="-856.1083" y1="1270.0994" x2="-483.4569" y2="1270.0994" gradientTransform="matrix(0.9501 -0.3121 -0.3121 -0.9501 1491.6147 1544.3413)">
				<stop  offset="0" style="stop-color:#52FFCE"/>
				<stop  offset="0.9948" style="stop-color:#6700E4"/>
			</linearGradient>
			<path class="st31" d="M339.5,578.5c-4.6,0.4-8.2,4-7.8,7.9c0.3,4,4.4,6.9,9.1,6.5c4.6-0.4,8.2-4,7.8-7.9
				C348.3,580.9,344.2,578,339.5,578.5z"/>
			
				<linearGradient id="SVGID_26_" gradientUnits="userSpaceOnUse" x1="-856.1083" y1="1309.1282" x2="-483.4569" y2="1309.1282" gradientTransform="matrix(0.9501 -0.3121 -0.3121 -0.9501 1491.6147 1544.3413)">
				<stop  offset="0" style="stop-color:#52FFCE"/>
				<stop  offset="0.9948" style="stop-color:#6700E4"/>
			</linearGradient>
			<path class="st32" d="M282.2,556.2c-4.6,0.4-8.2,4-7.8,7.9c0.4,4,4.4,6.9,9.1,6.5c4.6-0.4,8.2-4,7.8-7.9
				C290.9,558.7,286.9,555.8,282.2,556.2z"/>
		</g>
		<g>
			<g>
				
					<linearGradient id="SVGID_27_" gradientUnits="userSpaceOnUse" x1="399.4493" y1="904.0543" x2="1086.1964" y2="904.0543" gradientTransform="matrix(0.9977 6.815560e-02 6.815560e-02 -0.9977 -321.8043 1064.1899)">
					<stop  offset="0" style="stop-color:#52FFCE"/>
					<stop  offset="0.9948" style="stop-color:#6700E4"/>
				</linearGradient>
				<path class="st33" d="M551.2,157.6c1.1-2.6,43.4-106.9,130.8-59.6c112,60.6,78.6,246.5,10.8,266.9
					c-29.8,8.9-26.8-131-96.9-176.7"/>
				<path class="st1" d="M551.2,157.6c5.4-13.3,12.6-26,21.5-37.4c4.5-5.7,9.4-11,14.9-15.9c5.5-4.8,11.4-9.1,18-12.4
					c6.5-3.4,13.6-5.9,20.8-7.1c3.6-0.7,7.3-1.1,11-1.2c3.7-0.1,7.4,0.1,11.1,0.6c3.6,0.4,7.3,1.2,10.8,2.1c3.6,1,7.1,2.1,10.5,3.4
					c1.7,0.6,3.4,1.4,5.1,2.1c1.7,0.7,3.3,1.5,5,2.3c3.3,1.7,6.5,3.4,9.7,5.3c6.3,3.8,12.2,8,17.9,12.8c5.5,4.8,10.8,10,15.4,15.7
					c9.4,11.3,16.9,24.2,22.4,37.7c5.5,13.6,9.2,27.9,11.2,42.4c2,14.5,2.5,29.1,1.4,43.7c-1.1,14.6-3.6,29-7.7,43
					c-2.1,7-4.5,13.9-7.4,20.7c-2.9,6.7-6.3,13.3-10.3,19.5s-8.5,12.1-13.8,17.4c-5.3,5.2-11.4,9.8-18.4,13
					c-1.7,0.7-3.5,1.5-5.3,2.1l-1.4,0.4c-0.6,0.2-1.1,0.2-1.7,0.4c-1.2,0.2-2.4,0.2-3.6,0c-2.4-0.4-4.5-1.7-6.1-3.1
					c-1.6-1.4-2.9-3.1-4-4.6c-2.2-3.3-3.7-6.7-5.1-10.1s-2.6-6.9-3.7-10.3c-2.2-6.9-4.1-13.8-6.1-20.8l-5.8-20.8
					c-3.9-13.8-8.1-27.5-13.3-40.8c-5.1-13.3-11.2-26.3-19.1-38.3c-3.9-6-8.3-11.7-13.2-16.9s-10.3-10-16.2-14.1
					c6.1,3.8,11.7,8.4,17,13.4c5.1,5,9.8,10.7,13.9,16.5c8.4,11.8,15,24.8,20.6,38.1c5.6,13.3,10.2,27,14.5,40.8
					c4.3,13.7,8,27.6,12.6,41.1c1.2,3.4,2.4,6.7,3.7,9.9c1.4,3.2,2.9,6.4,4.7,9c0.9,1.3,1.9,2.6,3.1,3.6c1.1,0.9,2.2,1.6,3.4,1.7
					c0.6,0.1,1.2,0.1,1.7,0c0.3-0.1,0.6-0.2,0.9-0.2l1.2-0.4c1.6-0.6,3.1-1.2,4.7-1.9c6.1-2.9,11.7-7.1,16.5-12s9.1-10.5,12.8-16.5
					c7.4-11.9,12.9-25.1,16.8-38.5c3.9-13.6,6.4-27.6,7.4-41.7c1.1-14.1,0.7-28.3-1.2-42.4c-1.9-14-5.4-27.8-10.6-40.9
					c-5.2-13.1-12.2-25.5-21.1-36.4s-19.5-20.3-31.5-27.8c-3-1.9-6-3.6-9.2-5.2c-1.6-0.8-3.1-1.6-4.7-2.3c-1.7-0.7-3.2-1.5-4.9-2.1
					c-3.2-1.3-6.6-2.4-9.9-3.4c-3.4-0.9-6.8-1.7-10.3-2.2c-13.8-2.1-28.2,0.1-40.9,6.4c-6.4,3.1-12.2,6.9-17.8,11.5
					c-5.5,4.5-10.5,9.6-15.1,15.1c-4.6,5.5-8.8,11.2-12.7,17.3C557.6,144.8,554.2,151,551.2,157.6z"/>
			</g>
			<path class="st1" d="M562.9,165.2c0,0,18.1-34.9,45.7-49.2l-13.4,25.1c0,0,42-12.7,50.8-2.6c0,0-31.5,6-36.3,10.3
				s36.3-0.2,68.2-1.4c14.8-0.6,2.4-26.1-42.8-39.3c0,0,30.9-11.9,76.6,34.2l-74.4,70.6C637.3,212.8,612.3,164.9,562.9,165.2z"/>
			<path class="st1" d="M665.6,268.7c0,0,19.2,40.5,25.1,75.8c0,0,2.7-1.8,8.4-32.8c0,0,0.4,26.3-6,39.7c0,0,59.3-27.1,44.3-157.3
				C737.3,194.1,734.3,278.7,665.6,268.7z"/>
			<path class="st1" d="M685.6,152.3c0,0-14.9-24-55.8-27.6c0,0,31-10.3,65.7,19.9L685.6,152.3z"/>
			<path class="st0" d="M569,130.9c0,0,68.3-73.2,136.9,3.6c67.7,75.9,35.2,199.8-10.3,223.7c0,0,71.1-22.2,54.8-150.3
				C736.1,95.6,621.6,47.5,569,130.9z"/>
			<g>
				
					<linearGradient id="SVGID_28_" gradientUnits="userSpaceOnUse" x1="936.6373" y1="894.8576" x2="958.8514" y2="894.8576" gradientTransform="matrix(0.9969 7.855584e-02 7.855584e-02 -0.9969 -370.2497 1039.3573)">
					<stop  offset="0" style="stop-color:#52FFCE"/>
					<stop  offset="0.9948" style="stop-color:#6700E4"/>
				</linearGradient>
				<path class="st34" d="M635.3,201.6c0,0,12.4,20.8,19.1,40.3"/>
				<path class="st1" d="M638.2,199.9c1.7,3.5,3.2,6.9,4.8,10.3c1.5,3.5,3,6.9,4.3,10.4c2.7,6.9,5.2,14.1,7.2,21.3
					c-3-6.9-6.5-13.4-10.2-19.9c-1.8-3.2-3.8-6.4-5.7-9.5c-2-3.1-4-6.3-6-9.3l0,0c-1.1-1.5-0.7-3.6,0.8-4.6s3.6-0.7,4.6,0.8
					C638,199.6,638.1,199.8,638.2,199.9z"/>
			</g>
			<g>
				
					<linearGradient id="SVGID_29_" gradientUnits="userSpaceOnUse" x1="944.2606" y1="903.0118" x2="966.4747" y2="903.0118" gradientTransform="matrix(0.9969 7.855584e-02 7.855584e-02 -0.9969 -370.2497 1039.3573)">
					<stop  offset="0" style="stop-color:#52FFCE"/>
					<stop  offset="0.9948" style="stop-color:#6700E4"/>
				</linearGradient>
				<path class="st35" d="M643.6,194.1c0,0,12.4,20.8,19.1,40.3"/>
				<path class="st1" d="M646.4,192.4c1.7,3.5,3.2,6.9,4.8,10.3c1.5,3.5,3,6.9,4.3,10.4c2.7,6.9,5.2,14.1,7.2,21.3
					c-3-6.9-6.5-13.4-10.2-19.9c-1.8-3.2-3.8-6.4-5.7-9.5c-2-3.1-4-6.3-6-9.3l0,0c-1.1-1.5-0.7-3.6,0.8-4.6s3.6-0.7,4.6,0.8
					C646.2,192.1,646.3,192.2,646.4,192.4z"/>
			</g>
			<g>
				
					<linearGradient id="SVGID_30_" gradientUnits="userSpaceOnUse" x1="951.8652" y1="911.1594" x2="974.0794" y2="911.1594" gradientTransform="matrix(0.9969 7.855584e-02 7.855584e-02 -0.9969 -370.2497 1039.3573)">
					<stop  offset="0" style="stop-color:#52FFCE"/>
					<stop  offset="0.9948" style="stop-color:#6700E4"/>
				</linearGradient>
				<path class="st36" d="M651.8,186.5c0,0,12.4,20.8,19.1,40.3"/>
				<path class="st1" d="M654.7,184.9c1.7,3.5,3.2,6.9,4.8,10.3c1.5,3.5,3,6.9,4.3,10.4c2.7,6.9,5.2,14.1,7.2,21.3
					c-3-6.9-6.5-13.4-10.2-19.9c-1.8-3.2-3.8-6.4-5.7-9.5c-2-3.1-4-6.3-6-9.3l0,0c-1.1-1.5-0.7-3.6,0.8-4.6s3.6-0.7,4.6,0.8
					C654.5,184.5,654.6,184.7,654.7,184.9z"/>
			</g>
			<g>
				
					<linearGradient id="SVGID_31_" gradientUnits="userSpaceOnUse" x1="959.4973" y1="919.2311" x2="981.7114" y2="919.2311" gradientTransform="matrix(0.9969 7.855584e-02 7.855584e-02 -0.9969 -370.2497 1039.3573)">
					<stop  offset="0" style="stop-color:#52FFCE"/>
					<stop  offset="0.9948" style="stop-color:#6700E4"/>
				</linearGradient>
				<path class="st37" d="M660,179.1c0,0,12.4,20.8,19.1,40.3"/>
				<path class="st1" d="M662.8,177.3c1.7,3.5,3.2,6.9,4.8,10.3c1.5,3.5,3,6.9,4.3,10.4c2.7,6.9,5.2,14.1,7.2,21.3
					c-3-6.9-6.5-13.4-10.2-19.9c-1.8-3.2-3.8-6.4-5.7-9.5c-2-3.1-4-6.3-6-9.3l0,0c-1.1-1.5-0.7-3.6,0.8-4.6s3.6-0.7,4.6,0.8
					C662.7,177.1,662.8,177.2,662.8,177.3z"/>
			</g>
			<g>
				
					<linearGradient id="SVGID_32_" gradientUnits="userSpaceOnUse" x1="967.0997" y1="927.3788" x2="989.3138" y2="927.3788" gradientTransform="matrix(0.9969 7.855584e-02 7.855584e-02 -0.9969 -370.2497 1039.3573)">
					<stop  offset="0" style="stop-color:#52FFCE"/>
					<stop  offset="0.9948" style="stop-color:#6700E4"/>
				</linearGradient>
				<path class="st38" d="M668.2,171.6c0,0,12.4,20.8,19.1,40.3"/>
				<path class="st1" d="M671.1,169.8c1.7,3.5,3.2,6.9,4.8,10.3c1.5,3.5,3,6.9,4.3,10.4c2.7,6.9,5.2,14.1,7.2,21.3
					c-3-6.9-6.5-13.4-10.2-19.9c-1.8-3.2-3.8-6.4-5.7-9.5c-2-3.1-4-6.3-6-9.3l0,0c-1.1-1.5-0.7-3.6,0.8-4.6s3.6-0.7,4.6,0.8
					C671,169.6,671,169.7,671.1,169.8z"/>
			</g>
			<g>
				
					<linearGradient id="SVGID_33_" gradientUnits="userSpaceOnUse" x1="974.7549" y1="935.533" x2="996.969" y2="935.533" gradientTransform="matrix(0.9969 7.855584e-02 7.855584e-02 -0.9969 -370.2497 1039.3573)">
					<stop  offset="0" style="stop-color:#52FFCE"/>
					<stop  offset="0.9948" style="stop-color:#6700E4"/>
				</linearGradient>
				<path class="st39" d="M676.5,164c0,0,12.4,20.8,19.1,40.3"/>
				<path class="st1" d="M679.3,162.3c1.7,3.5,3.2,6.9,4.8,10.3c1.5,3.5,3,6.9,4.3,10.4c2.7,6.9,5.2,14.1,7.2,21.3
					c-3-6.9-6.5-13.4-10.2-19.9c-1.8-3.2-3.8-6.4-5.7-9.5c-2-3.1-4-6.3-6-9.3l0,0c-1.1-1.5-0.7-3.6,0.8-4.6s3.6-0.7,4.6,0.8
					C679.1,162,679.2,162.2,679.3,162.3z"/>
			</g>
			<g>
				
					<linearGradient id="SVGID_34_" gradientUnits="userSpaceOnUse" x1="982.3522" y1="943.6807" x2="1004.5663" y2="943.6807" gradientTransform="matrix(0.9969 7.855584e-02 7.855584e-02 -0.9969 -370.2497 1039.3573)">
					<stop  offset="0" style="stop-color:#52FFCE"/>
					<stop  offset="0.9948" style="stop-color:#6700E4"/>
				</linearGradient>
				<path class="st40" d="M684.7,156.5c0,0,12.4,20.8,19.1,40.3"/>
				<path class="st1" d="M687.6,154.8c1.7,3.5,3.2,6.9,4.8,10.3c1.5,3.5,3,6.9,4.3,10.4c2.7,6.9,5.2,14.1,7.2,21.3
					c-3-6.9-6.5-13.4-10.2-19.9c-1.8-3.2-3.8-6.4-5.7-9.5c-2-3.1-4-6.3-6-9.3l0,0c-1.1-1.5-0.7-3.6,0.8-4.6s3.6-0.7,4.6,0.8
					C687.4,154.5,687.5,154.7,687.6,154.8z"/>
			</g>
			<g>
				
					<linearGradient id="SVGID_35_" gradientUnits="userSpaceOnUse" x1="989.9827" y1="951.8349" x2="1012.1969" y2="951.8349" gradientTransform="matrix(0.9969 7.855584e-02 7.855584e-02 -0.9969 -370.2497 1039.3573)">
					<stop  offset="0" style="stop-color:#52FFCE"/>
					<stop  offset="0.9948" style="stop-color:#6700E4"/>
				</linearGradient>
				<path class="st41" d="M693,149c0,0,12.4,20.8,19.1,40.3"/>
				<path class="st1" d="M695.8,147.2c1.7,3.5,3.2,6.9,4.8,10.3c1.5,3.5,3,6.9,4.3,10.4c2.7,6.9,5.2,14.1,7.2,21.3
					c-3-6.9-6.5-13.4-10.2-19.9c-1.8-3.2-3.8-6.4-5.7-9.5c-2-3.1-4-6.3-6-9.3l0,0c-1.1-1.5-0.7-3.6,0.8-4.6s3.6-0.7,4.6,0.8
					C695.6,147,695.8,147.2,695.8,147.2z"/>
			</g>
			<g>
				
					<linearGradient id="SVGID_36_" gradientUnits="userSpaceOnUse" x1="997.5889" y1="959.989" x2="1019.803" y2="959.989" gradientTransform="matrix(0.9969 7.855584e-02 7.855584e-02 -0.9969 -370.2497 1039.3573)">
					<stop  offset="0" style="stop-color:#52FFCE"/>
					<stop  offset="0.9948" style="stop-color:#6700E4"/>
				</linearGradient>
				<path class="st42" d="M701.2,141.4c0,0,12.4,20.8,19.1,40.3"/>
				<path class="st1" d="M704,139.7c1.7,3.5,3.2,6.9,4.8,10.3c1.5,3.5,3,6.9,4.3,10.4c2.7,6.9,5.2,14.1,7.2,21.3
					c-3-6.9-6.5-13.4-10.2-19.9c-1.8-3.2-3.8-6.4-5.7-9.5c-2-3.1-4-6.3-6-9.3l0,0c-1.1-1.5-0.7-3.6,0.8-4.6s3.6-0.7,4.6,0.8
					C703.9,139.5,704,139.6,704,139.7z"/>
			</g>
			<g>
				
					<linearGradient id="SVGID_37_" gradientUnits="userSpaceOnUse" x1="410.6617" y1="1052.625" x2="426.8469" y2="1052.625" gradientTransform="matrix(0.9978 -6.572313e-02 -6.572313e-02 -0.9978 317.2755 1342.1992)">
					<stop  offset="0" style="stop-color:#52FFCE"/>
					<stop  offset="0.9948" style="stop-color:#6700E4"/>
				</linearGradient>
				<path class="st43" d="M675,278.8c0,0-11.7-19.4-18.1-28.8"/>
				<path class="st1" d="M672.2,280.5c-2.5-5.1-5-10.3-7.5-15.3c-2.6-5.1-5.1-10.2-7.8-15.1c3.6,4.4,7.1,8.9,10.6,13.4
					c3.5,4.5,6.9,9.1,10.3,13.6c1.1,1.5,0.8,3.6-0.7,4.6s-3.6,0.8-4.6-0.7C672.4,280.8,672.3,280.7,672.2,280.5L672.2,280.5z"/>
			</g>
			<g>
				
					<linearGradient id="SVGID_38_" gradientUnits="userSpaceOnUse" x1="419.7892" y1="1053.3477" x2="435.9743" y2="1053.3477" gradientTransform="matrix(0.9978 -6.572313e-02 -6.572313e-02 -0.9978 317.2755 1342.1992)">
					<stop  offset="0" style="stop-color:#52FFCE"/>
					<stop  offset="0.9948" style="stop-color:#6700E4"/>
				</linearGradient>
				<path class="st44" d="M684.1,277.4c0,0-11.7-19.4-18.1-28.8"/>
				<path class="st1" d="M681.2,279.2c-2.5-5.1-5-10.3-7.5-15.3c-2.6-5.1-5.1-10.2-7.8-15.1c3.6,4.4,7.1,8.9,10.6,13.4
					c3.5,4.5,6.9,9.1,10.3,13.6c1.1,1.5,0.8,3.6-0.7,4.6c-1.5,1.1-3.6,0.8-4.6-0.7C681.5,279.6,681.4,279.3,681.2,279.2L681.2,279.2
					z"/>
			</g>
			<g>
				
					<linearGradient id="SVGID_39_" gradientUnits="userSpaceOnUse" x1="428.9275" y1="1053.9932" x2="445.1127" y2="1053.9932" gradientTransform="matrix(0.9978 -6.572313e-02 -6.572313e-02 -0.9978 317.2755 1342.1992)">
					<stop  offset="0" style="stop-color:#52FFCE"/>
					<stop  offset="0.9948" style="stop-color:#6700E4"/>
				</linearGradient>
				<path class="st45" d="M693.1,276.2c0,0-11.7-19.4-18.1-28.8"/>
				<path class="st1" d="M690.3,277.9c-2.5-5.1-5-10.3-7.5-15.3c-2.6-5.1-5.1-10.2-7.8-15.1c3.6,4.4,7.1,8.9,10.6,13.4
					c3.5,4.5,6.9,9.1,10.3,13.6c1.1,1.5,0.8,3.6-0.7,4.6c-1.5,1.1-3.6,0.8-4.6-0.7C690.5,278.3,690.4,278.1,690.3,277.9L690.3,277.9
					z"/>
			</g>
			<g>
				
					<linearGradient id="SVGID_40_" gradientUnits="userSpaceOnUse" x1="438.044" y1="1054.7158" x2="454.2292" y2="1054.7158" gradientTransform="matrix(0.9978 -6.572313e-02 -6.572313e-02 -0.9978 317.2755 1342.1992)">
					<stop  offset="0" style="stop-color:#52FFCE"/>
					<stop  offset="0.9948" style="stop-color:#6700E4"/>
				</linearGradient>
				<path class="st46" d="M702.2,274.9c0,0-11.7-19.4-18.1-28.8"/>
				<path class="st1" d="M699.3,276.6c-2.5-5.1-5-10.3-7.5-15.3c-2.6-5.1-5.1-10.2-7.8-15.1c3.6,4.4,7.1,8.9,10.6,13.4
					c3.5,4.5,6.9,9.1,10.3,13.6c1.1,1.5,0.8,3.6-0.7,4.6c-1.5,1.1-3.6,0.8-4.6-0.7C699.6,276.9,699.5,276.8,699.3,276.6L699.3,276.6
					z"/>
			</g>
			<g>
				
					<linearGradient id="SVGID_41_" gradientUnits="userSpaceOnUse" x1="447.1787" y1="1055.444" x2="463.3639" y2="1055.444" gradientTransform="matrix(0.9978 -6.572313e-02 -6.572313e-02 -0.9978 317.2755 1342.1992)">
					<stop  offset="0" style="stop-color:#52FFCE"/>
					<stop  offset="0.9948" style="stop-color:#6700E4"/>
				</linearGradient>
				<path class="st47" d="M711.2,273.5c0,0-11.7-19.4-18.1-28.8"/>
				<path class="st1" d="M708.4,275.3c-2.5-5.1-5-10.3-7.5-15.3c-2.6-5.1-5.1-10.2-7.8-15.1c3.6,4.4,7.1,8.9,10.6,13.4
					c3.5,4.5,6.9,9.1,10.3,13.6c1.1,1.5,0.8,3.6-0.7,4.6c-1.5,1.1-3.6,0.8-4.6-0.7C708.7,275.7,708.5,275.5,708.4,275.3L708.4,275.3
					z"/>
			</g>
			<g>
				
					<linearGradient id="SVGID_42_" gradientUnits="userSpaceOnUse" x1="456.2989" y1="1056.084" x2="472.484" y2="1056.084" gradientTransform="matrix(0.9978 -6.572313e-02 -6.572313e-02 -0.9978 317.2755 1342.1992)">
					<stop  offset="0" style="stop-color:#52FFCE"/>
					<stop  offset="0.9948" style="stop-color:#6700E4"/>
				</linearGradient>
				<path class="st48" d="M720.3,272.3c0,0-11.7-19.4-18.1-28.8"/>
				<path class="st1" d="M717.5,274c-2.5-5.1-5-10.3-7.5-15.3c-2.6-5.1-5.1-10.2-7.8-15.1c3.6,4.4,7.1,8.9,10.6,13.4
					c3.5,4.5,6.9,9.1,10.3,13.6c1.1,1.5,0.8,3.6-0.7,4.6c-1.5,1.1-3.6,0.8-4.6-0.7C717.7,274.4,717.6,274.2,717.5,274L717.5,274z"/>
			</g>
			<g>
				
					<linearGradient id="SVGID_43_" gradientUnits="userSpaceOnUse" x1="461.11" y1="1064.3088" x2="477.2951" y2="1064.3088" gradientTransform="matrix(0.9978 -6.572313e-02 -6.572313e-02 -0.9978 317.2755 1342.1992)">
					<stop  offset="0" style="stop-color:#52FFCE"/>
					<stop  offset="0.9948" style="stop-color:#6700E4"/>
				</linearGradient>
				<path class="st49" d="M724.6,263.8c0,0-11.7-19.4-18.1-28.8"/>
				<path class="st1" d="M721.7,265.4c-2.5-5.1-5-10.3-7.5-15.3c-2.6-5.1-5.1-10.2-7.8-15.1c3.6,4.4,7.1,8.9,10.6,13.4
					c3.5,4.5,6.9,9.1,10.3,13.6c1.1,1.5,0.8,3.6-0.7,4.6c-1.5,1.1-3.6,0.8-4.6-0.7C721.9,265.9,721.8,265.7,721.7,265.4L721.7,265.4
					z"/>
			</g>
			<g>
				
					<linearGradient id="SVGID_44_" gradientUnits="userSpaceOnUse" x1="467.2612" y1="1072.111" x2="483.4464" y2="1072.111" gradientTransform="matrix(0.9978 -6.572313e-02 -6.572313e-02 -0.9978 317.2755 1342.1992)">
					<stop  offset="0" style="stop-color:#52FFCE"/>
					<stop  offset="0.9948" style="stop-color:#6700E4"/>
				</linearGradient>
				<path class="st50" d="M730.2,255.6c0,0-11.7-19.4-18.1-28.8"/>
				<path class="st1" d="M727.4,257.3c-2.5-5.1-5-10.3-7.5-15.3c-2.6-5.1-5.1-10.2-7.8-15.1c3.6,4.4,7.1,8.9,10.6,13.4
					c3.5,4.5,6.9,9.1,10.3,13.6c1.1,1.5,0.8,3.6-0.7,4.6c-1.5,1.1-3.6,0.8-4.6-0.7C727.6,257.7,727.4,257.6,727.4,257.3L727.4,257.3
					z"/>
			</g>
			<g>
				
					<linearGradient id="SVGID_45_" gradientUnits="userSpaceOnUse" x1="471.3862" y1="1081.5349" x2="487.5714" y2="1081.5349" gradientTransform="matrix(0.9978 -6.572313e-02 -6.572313e-02 -0.9978 317.2755 1342.1992)">
					<stop  offset="0" style="stop-color:#52FFCE"/>
					<stop  offset="0.9948" style="stop-color:#6700E4"/>
				</linearGradient>
				<path class="st51" d="M733.7,245.9c0,0-11.7-19.4-18.1-28.8"/>
				<path class="st1" d="M730.8,247.7c-2.5-5.1-5-10.3-7.5-15.3c-2.6-5.1-5.1-10.2-7.8-15.1c3.6,4.4,7.1,8.9,10.6,13.4
					c3.5,4.5,6.9,9.1,10.3,13.6c1.1,1.5,0.8,3.6-0.7,4.6s-3.6,0.8-4.6-0.7C731.1,248,731,247.8,730.8,247.7L730.8,247.7z"/>
			</g>
			<g>
				
					<linearGradient id="SVGID_46_" gradientUnits="userSpaceOnUse" x1="474.5113" y1="1095.0759" x2="488.6506" y2="1095.0759" gradientTransform="matrix(0.9978 -6.572313e-02 -6.572313e-02 -0.9978 317.2755 1342.1992)">
					<stop  offset="0" style="stop-color:#52FFCE"/>
					<stop  offset="0.9948" style="stop-color:#6700E4"/>
				</linearGradient>
				<path class="st52" d="M733.7,229.6c0,0-9.3-14.1-15.7-23.5"/>
				<path class="st1" d="M730.9,231.4l-13-25.3l18.4,21.6c1.2,1.4,1,3.5-0.3,4.7c-1.4,1.2-3.5,1-4.7-0.3
					C731.3,231.9,731.1,231.7,730.9,231.4L730.9,231.4z"/>
			</g>
			<path class="st0" d="M716.4,147.2c0,0,15.2,42.8,1.6,39.6c-13.6-3.2-11.5-32.8-17.8-16.8c-6.3,16,4.1,64.3-6.3,54.2
				s-15.2-35.2-19.3-25.5c-4.1,9.8,4.1,58.8,4.1,58.8s-0.2-38.3,5-29.2c5.2,9.1,24.5,34.6,26.1,2.2s0.9-33.4,13.7-20.4
				c12.8,12.9,13.6-34.9,13.6-34.9L716.4,147.2z"/>
		</g>
		<path class="st0" d="M799.7,217.1c0,0,5.5,38.4,0,40.4c-5.5,1.9-7.2-30.1-16.3-22.5c-9,7.6,6.6,34.1,0,38.3
			c-6.6,4.2-7-21.3-14.6-15.8c-7.6,5.5,3.3,39.5,8.7,49.3c0,0-8.5-35.5-4.6-28.8c3.9,6.7,16.3,38.6,19.2,13.3s-3-41.4-3-41.4
			s25.7,67.3,23.3,2.5C812.4,252.5,801.6,225.5,799.7,217.1z"/>
		<g>
			
				<linearGradient id="SVGID_47_" gradientUnits="userSpaceOnUse" x1="137.1309" y1="1010.8527" x2="823.878" y2="1010.8527" gradientTransform="matrix(1 0 0 -1 0 1216)">
				<stop  offset="0" style="stop-color:#52FFCE"/>
				<stop  offset="0.9948" style="stop-color:#6700E4"/>
			</linearGradient>
			<path class="st53" d="M435,148.7c0,0-49.8-92.6-111.7-50.9S217.8,248.6,244,310.2C269.4,369.8,333.1,207,435,190.6"/>
			<path class="st0" d="M422.3,141.4c0,0-38.7-83.8-102.2-34.7s-106.3,179.4-61.2,211.4c0,0-30.2-66.7,36.2-161.6
				S422.3,141.4,422.3,141.4z"/>
			<path class="st1" d="M382.6,134.2c0,0,19.2,17,22.1,22.3c0,0-14.6-0.7-32.1,3.3c0,0,23.7,10.3,18.3,11.7
				c-17.8,5.1-67.4,53.9-80.1,62.9c-13.2,9.4-6.6-33.3,24.9-52.6c0,0-22.7-11.1-22.3-29.4c0,0-58,54.2-47.6,134.5
				c0.8,6.3,8.6,8.7,12.7,4c24.6-27.8,92.5-97.2,148.1-112.2c4.4-1.2,6.5-6.2,4.2-10.3C423.9,155.9,408.1,134.2,382.6,134.2z"/>
			<path class="st0" d="M358.8,101.1c-4.4,1.6-39.5,27-10.8,21.8c31.2-5.5,46.3-5.5,25,11.2s-42.2,20.2-21.3,16.8
				c20.8-3.4,40.9-6.4,30.9,1.2c-10,7.5-23.7,16.3-45.9,32.5c0,0,12.5-14.6,25.9-24.9c22.7-17.4-53.3,10.5-34.4-6
				c19.9-17.5,30.7-19.6,30.7-19.6s-66.9,15.6-47.2-12.7S358.8,101.1,358.8,101.1z"/>
		</g>
	</g>
	<g>
		<g>
			<path class="st0" d="M546.9,750.1c1.6-23.7,19.7-59.6,79.3-74.8c87.7-22.3,206.3-55.5,206.3-55.5l-12.8,197
				c0,0-140-26.6-181-20.3"/>
			<path class="st1" d="M546.5,750c0.1-3.5,0.5-6.9,1.2-10.3c0.7-3.4,1.7-6.8,3-10c1.2-3.2,2.7-6.5,4.5-9.5c1.7-3.1,3.6-6,5.8-8.8
				c8.5-11.2,19.9-20,32.3-26.6c6.2-3.3,12.7-6,19.3-8.4c1.7-0.6,3.3-1.2,5-1.7l2.5-0.8l2.5-0.7c3.4-1,6.7-1.8,10-2.6l19.9-5.3
				l19.9-5.2l20-5l20-4.9l40-9.8c26.6-6.8,53.2-14.1,79.6-21.9c0.7-0.2,1.4,0.2,1.7,0.9c0.1,0.2,0.1,0.2,0.1,0.4v0.1l-2.2,49.3
				c-0.7,16.5-1.6,32.8-2.5,49.3l-2.8,49.3c-0.5,8.2-0.9,16.5-1.4,24.7l-1.6,24.7c-0.2,2-1.8,3.4-3.7,3.3c-0.2,0-0.3,0-0.4-0.1
				c-14.9-2.8-29.9-5.5-44.8-8.1c-15-2.6-29.9-5-45-7.4c-7.5-1.2-15.1-2.2-22.5-3.2c-7.5-1-15.1-2-22.6-2.8
				c-7.5-0.8-15.1-1.6-22.7-2c-3.8-0.2-7.6-0.3-11.3-0.4c-3.8,0-7.6,0.1-11.3,0.5l0,0c-0.2,0-0.3-0.1-0.3-0.3c0-0.2,0.1-0.3,0.2-0.3
				c7.5-1.4,15.2-1.6,22.8-1.7c7.6,0,15.3,0.2,22.9,0.7c7.6,0.4,15.2,1.1,22.8,1.8c7.6,0.7,15.1,1.6,22.7,2.5
				c15.1,1.8,30.2,3.9,45.3,6.2c7.5,1.2,15.1,2.4,22.6,3.6c7.5,1.2,15.1,2.6,22.5,4l-4.2,3.2l1.7-24.7c0.5-8.2,1.2-16.4,1.7-24.7
				l3.6-49.2c1.2-16.4,2.5-32.8,3.9-49.2l4.1-49.2l1.7,1.4c-26.6,6.9-53.2,14.2-79.6,21.9l-39.6,11.7l-19.9,5.7l-19.9,5.5l-19.9,5.3
				l-20,5c-6.7,1.7-13.2,3.3-19.7,5.4s-12.7,4.6-18.8,7.6c-6,3-11.8,6.5-17.2,10.5c-5.4,4.1-10.3,8.6-14.7,13.8
				c-8.7,10.3-14.8,23-16.4,36.6c0,0.2-0.2,0.3-0.3,0.3C546.6,750.3,546.5,750.2,546.5,750z"/>
		</g>
		<path class="st2" d="M742.5,651.2c0,0-23.1-1.3-29.8,5.2s-55.6,65.8-10.7,141.9l-42.4-2.7l-20.9,0.9c0,0,101.1,118.5,119.4,24.7
			C758.1,821.3,694.6,729.2,742.5,651.2z"/>
		<g>
			<path class="st0" d="M800.5,820.1l-55.7-2.6c-0.6,0-1.2-0.2-1.7-0.6c-11-7.2-42.4-38-42.4-82.8c0-46.9,21.8-69.4,36.3-84.2
				c3.4-3.6,6.4-6.5,8.6-9.4c7.3-9.3,40.9-11.3,47.5-11.7c0.1,0,0.1,0,0.2,0c0.8,0,1.7,0.3,2.2,0.9c0.7,0.6,1,1.4,1.1,2.3l7.4,184.6
				c0,0.9-0.3,1.8-1,2.5c-0.7,0.6-1.5,1-2.3,1C800.7,820.1,800.6,820.1,800.5,820.1z"/>
			<path class="st1" d="M793.3,632.2l7.4,184.6l-55.7-2.6c-12.1-7.9-40.9-38.1-40.9-80.1c0-56.3,32-75.9,44.3-91.7
				C755.1,633.9,793.3,632.2,793.3,632.2 M793.3,625.6c-0.1,0-0.2,0-0.3,0c-0.4,0-10,0.5-20.6,2c-21,3.1-26.8,7.7-29.3,10.9
				c-2.2,2.7-5,5.7-8.4,9.2c-14.9,15.3-37.3,38.3-37.3,86.5c0,19.3,5.9,38.8,17,56.3c5.8,9.1,16.3,22.3,27,29.3c1,0.7,2.2,1,3.3,1.1
				l55.7,2.6c0.1,0,0.2,0,0.3,0c1.7,0,3.4-0.7,4.6-1.9c1.3-1.3,2-3.1,2-5L799.9,632c-0.1-1.7-0.8-3.4-2.2-4.6
				C796.6,626.2,794.9,625.6,793.3,625.6L793.3,625.6z"/>
		</g>
		<g>
			<path class="st0" d="M962,851.7c-22.3,0-51-27.1-59.6-41c-0.8-1.3-3.1-2-6.6-2c-6.9,0-17.6,2.6-29.9,5.5
				c-17.1,4.1-38.5,9.3-58.6,9.3c-20.3,0-35.9-5.1-47.7-15.6c-14.2-12.7-22.7-33.3-25.2-61.5c-1.3-15.1-1.6-44.5,11.6-71.6
				c14.5-29.7,40.5-47.1,77.4-51.5c39.4-4.8,63.1-19.7,80.4-30.5c11-6.9,19.7-12.3,28.2-12.3c6.9,0,13.2,3.6,19.6,11.1
				c10.2,12,14,21.9,11.7,30.4c-3.6,12.7-20.4,18.4-35.4,23.4c-10.7,3.6-21.7,7.3-23.9,12.4c0,0.1,0.2,2.5,11.2,8.2
				c7.9,4.1,19,8.6,30.8,13.5c36.5,15.1,81.9,33.7,87.2,58.3c1.8,8.5-1.2,17-9,25.4c-4.6,4.9-11,7.4-18.9,7.4
				c-15.4,0-34.7-9.2-51.8-17.2c-12.8-6-25-11.8-31.8-11.8c-1.1,0-2,0.2-2.6,0.4c1.6,3.4,13,11.8,21.5,18.1
				c22.6,16.7,53.4,39.6,52.5,62.4c-0.4,9.8-6.7,18.5-18.6,26C970.8,850.6,966.7,851.7,962,851.7z"/>
			<path class="st1" d="M932,583.8c5.7,0,11.1,2.8,17.1,9.9c40.9,48.2-39.7,43.6-48.1,62.7c-8.4,19.1,170.1,52.1,120.8,104.5
				c-4.3,4.5-10,6.4-16.5,6.4c-26.4,0-66.6-29-83.5-29c-2,0-3.6,0.4-4.9,1.2c-15.1,10.3,119.2,66.8,55.9,106.1
				c-3.2,2-6.9,2.9-10.7,2.9c-20.8,0-48.5-25.8-56.7-39.5c-1.6-2.6-4.9-3.6-9.4-3.6c-17.6,0-54.6,14.9-88.4,14.9s-64.5-14.8-69.7-74
				c-3.2-36.6,4.6-109.6,86.1-119.5C888.8,618.8,912.1,583.8,932,583.8 M932,577.2c-9.5,0-18.5,5.7-30,12.9
				c-17,10.8-40.4,25.4-79.1,30c-20.2,2.4-37.5,8.8-51.4,18.9c-12.1,8.8-21.7,20.3-28.6,34.5c-13.6,27.7-13.3,57.8-11.9,73.3
				c2.6,29,11.4,50.4,26.3,63.6c12.5,11.1,28.9,16.5,50,16.5c20.4,0,42-5.2,59.3-9.4c12.1-2.9,22.6-5.5,29.1-5.5
				c2.6,0,3.6,0.4,3.9,0.6c9.2,14.9,38.5,42.4,62.3,42.4c5.3,0,10-1.3,14.1-3.9c12.9-8,19.7-17.7,20.2-28.6
				c0.5-11.2-5.7-23.2-18.9-36.4c-10.5-10.6-23.5-20.2-35-28.7c-4.9-3.6-10.8-7.9-15.1-11.6c6.5,1.9,15.6,6.2,24.5,10.4
				c17.4,8.3,37.1,17.5,53.2,17.5c8.9,0,16.1-2.8,21.3-8.4c8.6-9.1,11.9-18.7,9.8-28.4c-2.6-12.3-13.6-23.6-34.3-35.4
				c-16.6-9.5-36.9-17.9-54.8-25.2c-10.5-4.4-20.5-8.4-28-12.1c-6.8-3.3-9.8-5.5-11.2-6.6c3.5-3.3,13.4-6.7,20.8-9.2
				c15.7-5.3,33.5-11.2,37.6-25.6c2.6-9.5-1.4-20.4-12.3-33.3C947.1,581.1,940,577.2,932,577.2L932,577.2z"/>
		</g>
		<g>
			<path class="st0" d="M772.9,821.8c0,0-80.7-37.1-47.2-108.4c23.6-50.1,63.3-20.3,106.5-17.9"/>
			<path class="st1" d="M772.9,821.8c-5-1.9-9.6-4.4-14.2-7.1c-4.5-2.7-8.9-5.8-13.2-9.1c-4.1-3.4-8.1-7-11.7-11.1
				c-3.6-4.1-6.9-8.4-9.7-13.1c-5.5-9.3-9.2-20.2-9.7-31.3c-0.6-11.1,1.7-22.2,5.8-32.3c2.1-5,4.4-9.9,7.4-14.6c3-4.6,6.5-9,11-12.7
				c4.4-3.6,9.7-6.2,15.1-7.5c5.5-1.3,11.1-1.5,16.5-1c5.5,0.4,10.7,1.5,15.9,2.6c5.2,1.2,10.3,2.6,15.4,4
				c10.2,2.7,20.3,5.4,30.9,6.6c-10.6,0-21.1-1.7-31.4-3.8c-5.2-1-10.3-2.1-15.5-3s-10.3-1.6-15.4-1.7c-5-0.2-10.2,0.2-14.9,1.6
				c-4.7,1.3-9,3.6-12.7,6.9c-3.7,3.1-6.8,7.1-9.4,11.4s-4.8,8.9-6.6,13.6c-3.7,9.4-5.8,19.5-5.4,29.5c0.1,2.5,0.3,5,0.7,7.4
				c0.4,2.5,0.9,5,1.6,7.4c1.4,4.9,3.3,9.5,5.7,14c2.4,4.5,5.2,8.8,8.4,12.7c3.2,4.1,6.7,7.9,10.5,11.4c3.8,3.6,7.8,6.9,11.9,10.1
				c2.1,1.6,4.2,3.1,6.4,4.5C768.5,819.1,770.7,820.5,772.9,821.8z"/>
		</g>
		<path class="st1" d="M725.9,713.3c0,0,11.8,32.9,32.3,20.3l-3.1,77.3C755,810.8,695.4,752.9,725.9,713.3z"/>
		<path class="st1" d="M744.8,790.1c0,0-10.2-62,24.1-68.1c25.7-4.5,42.6,19.3,42.6,19.3s7.1-22.6,30.7-25.6s46.3,17.7,46.3,17.7
			s34.2-30.5,35.1-43c0,0,5.8,13.7-5.5,31.5c0,0,103.1,49,112.4,37.3c0,0-25,35.3-106.8-18c0,0-6.8-2,8,16.1c0,0-18.3,38.2,2.6,56.9
			c20.9,18.7,48.9,22,55.9,15.6c0,0-15.3,41.5-56.3,14.4c-28.1-18.6-73.6-46-73.6-46S788,860.2,744.8,790.1z"/>
		<g>
			<path class="st0" d="M871.7,834.3c-9.1,0-22.1-2.5-32.5-14.4c-10.1-11.6-15.3-29.2-15.4-52.4c-0.1-12.6,20.2-17.7,32.2-19.7
				c0.7-0.1,1.6-0.2,2.3-0.2c8.1,0,16.4,6.4,21.8,11.7c6.8,6.7,13.2,15.5,18.2,24.9c4.1,7.5,12.6,26.2,5.7,36.5
				C898.8,828.6,885.1,834.3,871.7,834.3z"/>
			<path class="st1" d="M858.3,750.9c20.7,0,53.5,52.4,43,68c-4.2,6.3-16.4,12.1-29.6,12.1c-20.8,0-44.4-14.3-44.6-63.5
				c0-6.5,8.4-13,29.4-16.4C857.1,751,857.7,750.9,858.3,750.9 M858.3,744.3L858.3,744.3c-1,0-1.9,0.1-2.8,0.2
				c-10.8,1.7-19.2,4.4-25,7.9c-8.3,5-10,10.9-10,15.1c0.1,24.1,5.5,42.4,16.2,54.6c8.8,10,21.3,15.6,35,15.6
				c14.5,0,29.3-6.3,35.1-15c3.1-4.7,4-11.1,2.4-19.1c-1.2-6.2-4-13.4-7.9-20.8c-5.1-9.7-11.8-18.8-18.9-25.6
				C873.9,748.6,865.8,744.3,858.3,744.3L858.3,744.3z"/>
		</g>
		<g>
			<path class="st0" d="M797.5,825.1c-12.7,0-24.7-5-32.6-13.5c-9.3-10.1-13.4-24.7-12-43.2c0.6-7,17.3-16,29.8-16
				c4.6,0,8.5,1.2,11.6,3.5c11.9,8.9,21.4,19.6,26.8,29.9c5.9,11.4,6.4,21.9,1.3,29.6C818.5,821.3,808.8,825.1,797.5,825.1z"/>
			<path class="st1" d="M782.7,755.7c3.6,0,6.9,0.8,9.6,2.8c23.2,17.5,36.6,41,27.3,55.1c-3.1,4.8-12,8.2-22.2,8.2
				c-19.8,0-44.4-12.8-41.3-53.1C756.6,764.4,771,755.7,782.7,755.7 M782.7,749.1L782.7,749.1c-6.4,0-13.9,2.1-20.7,5.6
				c-5.5,2.9-12,7.5-12.5,13.5c-1.5,19.4,2.8,34.8,12.8,45.7c8.6,9.3,21.3,14.6,35.1,14.6c12.3,0,23.2-4.4,27.7-11.1
				c5.8-8.7,5.4-20.4-1.2-33c-5.5-10.8-15.4-21.8-27.7-31.1C792.7,750.5,788.1,749.1,782.7,749.1L782.7,749.1z"/>
		</g>
		<g>
			<path class="st0" d="M653.7,803c-9.8,0-19.9-5.7-29.4-16.5c-8.4-9.7-15.6-22.5-19.9-36.1c-11.7-36.6,8.5-63.2,10-65.2
				c7.9-11,16.7-16.8,21.3-19.4c1.6-1,3.1-1.7,4.7-2.2c0.3-0.1,0.6-0.1,0.9-0.1c1.4,0,2.7,0.9,3.1,2.3c0.5,1.7-0.4,3.6-2.1,4.1
				c0,0-1.2,0.4-3.3,1.6c-10.5,7.1-20.1,36.3-10.3,70.8c9.3,32.5,32.8,53.7,33.1,53.9c0.9,0.8,1.3,2,1,3.2c-0.2,1.2-1.2,2.2-2.3,2.5
				C658.3,802.7,656,803,653.7,803L653.7,803z"/>
			<path class="st1" d="M641.3,667c0,0-1.5,0.5-3.9,1.8C638.6,668,639.9,667.3,641.3,667 M637.3,668.8
				c-12.8,8.5-21.5,40.3-11.7,74.6c9.7,33.9,34,55.5,34,55.5c-2,0.6-4,0.8-6,0.8c-18.6,0-37.8-24.1-46.2-50.3
				c-11.5-36,9.5-62.1,9.5-62.1C624.5,676.8,632.7,671.4,637.3,668.8 M641.3,660.3c-0.6,0-1.2,0.1-1.7,0.2c-1.9,0.5-3.8,1.4-5.5,2.6
				c-5.9,3.2-14.3,9.3-22.2,20.2c-2,2.6-22.6,30.4-10.5,68.2c8.8,27.3,29.5,54.9,52.4,54.9c2.6,0,5.3-0.4,7.9-1.2
				c2.3-0.7,4.1-2.6,4.5-4.9c0.5-2.3-0.2-4.8-2.1-6.4c-0.2-0.2-23.1-20.8-32.1-52.4c-9-31.6-1-60.2,8.8-67.1
				c1.5-0.8,2.5-1.2,2.6-1.2c3.4-1.2,5.2-4.7,4.2-8.2C646.7,662.2,644.1,660.3,641.3,660.3L641.3,660.3z"/>
		</g>
		<g>
			<path class="st0" d="M653.2,803.9c-10.3,0-22-5.7-32.8-16.1c-10.4-10-18.7-23.5-22.8-36.8c-11.7-37.7,8.5-65.2,10-67.2
				c12.1-17.3,34.3-20.8,35.3-21c0.2,0,0.3,0,0.5,0c1.6,0,2.9,1.1,3.2,2.6c0.3,1.7-0.7,3.4-2.3,3.9c-5.9,1.7-14.4,9.3-20.1,22.4
				c-4.5,10.5-8.9,28-3.5,51.3c4.9,20.9,15.5,34.3,23.6,41.9c8.8,8.3,16.5,11.7,16.6,11.7c1.2,0.6,2.1,1.8,2,3.2s-1,2.6-2.3,3
				C658.3,803.5,655.8,803.9,653.2,803.9L653.2,803.9z"/>
			<path class="st1" d="M643.4,666.1L643.4,666.1 M643.4,666.1c-14.8,4.2-35.9,34.7-25.9,77.7c9.8,42.3,42.1,55.9,42.1,55.9
				c-2.1,0.7-4.2,0.9-6.5,0.9c-19.6,0-44.1-23.7-52.4-50.6c-11.5-37.1,9.5-64.2,9.5-64.2C621.6,669.4,643.4,666.1,643.4,666.1
				 M643.4,659.4c-0.2,0-0.3,0-0.5,0c-0.2,0-0.5,0.1-0.7,0.1c-2.4,0.4-24.8,4.5-37.3,22.3c-2,2.6-22.5,31.2-10.5,70.1
				c9.3,29.9,36.2,55.3,58.7,55.3c2.9,0,5.7-0.4,8.4-1.2s4.5-3.2,4.6-6c0.1-2.7-1.5-5.4-4.1-6.5c-0.1,0-7.4-3.3-15.8-11.2
				c-11.2-10.6-18.7-24.1-22.4-40.1c-5.2-22.4-1.1-39.1,3.3-49.2c3.6-8.4,10.8-18.4,17.9-20.5c0.6-0.2,1.2-0.4,1.7-0.7
				c0.5-0.3,1-0.7,1.3-1.1c1.2-1.2,1.9-2.8,1.9-4.6c0-3.3-2.5-6.1-5.7-6.5C644.1,659.4,643.7,659.4,643.4,659.4L643.4,659.4z
				 M643.4,672.7L643.4,672.7L643.4,672.7L643.4,672.7z"/>
		</g>
		<g>
			<path class="st1" d="M704.7,796.4c2,3.3,3.8,6.5,5.5,10c0.8,1.7,1.6,3.5,2.2,5.4c0.3,1,0.6,1.9,0.7,3c0.1,0.6,0.1,1.1,0.1,1.7
				c-0.1,0.7-0.2,1.3-0.6,2.1c-0.4,0.7-1.2,1.4-1.9,1.6c-0.7,0.2-1.4,0.2-2,0.2c-1.2-0.1-2.2-0.4-3.1-0.7c-1.8-0.7-3.5-1.7-5-2.6
				c-3.2-1.9-6.2-4.1-9.1-6.3c3.2,1.7,6.5,3.4,9.8,4.8c1.7,0.7,3.4,1.3,5,1.7c0.8,0.2,1.7,0.3,2.3,0.2c0.3,0,0.7-0.1,0.7-0.2
				c0.1-0.1,0.1-0.1,0.1-0.2c0.1-0.2,0-0.9-0.2-1.6c-0.2-0.7-0.6-1.5-0.9-2.2c-0.7-1.5-1.7-3-2.6-4.5c-2-2.9-4.2-5.8-6.5-8.5l0,0
				c-1.2-1.4-1-3.5,0.4-4.7c1.4-1.2,3.5-1,4.7,0.4C704.5,796.1,704.6,796.3,704.7,796.4z"/>
		</g>
		<path class="st1" d="M712.7,656.4c0,0-78.7,67.8-26.6,141l8.9-2.4C695,794.9,651.6,724.1,712.7,656.4z"/>
		<path class="st1" d="M593.4,712L625,702c0,0-6.4,32.8,0.6,41.4l-24.8,6.5l-7.4-6.4c0,0,22.7-8.2,21.4-11.5c-1.3-3.3-26.1,1-26.1,1
			L593.4,712z"/>
		<path class="st1" d="M712.7,679.1l39.6-8.4l-7.5,23.2l-42.9,13.6l2.2-5.5c0,0,27.3-12,18.2-12.1c-9.1-0.1-18.6,5.3-18.6,5.3
			L712.7,679.1z"/>
		<path class="st1" d="M743.4,690.5c0,0,13.4-9.8,45.9-3c0,0,25.6,5.6,40.5,6.9c-7.7-9.1-29-1.7-37.6-27.5
			c-8.9-26.6,34.6-43.8,24.7-43.6C807.1,623.6,746.7,653.6,743.4,690.5z"/>
	</g>
</g>
</svg>
