<?xml version="1.0" encoding="utf-8"?>
<!-- Generator: Adobe Illustrator 22.0.1, SVG Export Plug-In . SVG Version: 6.00 Build 0)  -->
<svg version="1.1" id="Capa_1" xmlns="http://www.w3.org/2000/svg" xmlns:xlink="http://www.w3.org/1999/xlink" x="0px" y="0px"
	 viewBox="0 0 1097.5 1215.7" style="enable-background:new 0 0 1097.5 1215.7;" xml:space="preserve">
<style type="text/css">
	.st0{fill:#FFFFFF;stroke:#5E004D;stroke-width:7.6935;stroke-linecap:round;stroke-linejoin:round;stroke-miterlimit:10;}
	.st1{fill:#5E004D;}
	.st2{fill:#FFFFFF;}
	.st3{fill:none;stroke:#5E004D;stroke-width:7.6935;stroke-linecap:round;stroke-linejoin:round;stroke-miterlimit:10;}
	.st4{fill:url(#SVGID_1_);}
	.st5{fill:url(#SVGID_2_);}
	.st6{fill:url(#SVGID_3_);}
	.st7{fill:url(#SVGID_4_);}
	.st8{fill:url(#SVGID_5_);}
	.st9{fill:url(#SVGID_6_);}
	.st10{fill:url(#SVGID_7_);stroke:#5E004D;stroke-width:7.6935;stroke-linecap:round;stroke-miterlimit:10;}
	.st11{fill:url(#SVGID_8_);stroke:#5E004D;stroke-width:7.6935;stroke-linecap:round;stroke-miterlimit:10;}
	.st12{fill:url(#SVGID_9_);stroke:#5E004D;stroke-width:7.6935;stroke-linecap:round;stroke-miterlimit:10;}
	.st13{fill:url(#SVGID_10_);stroke:#5E004D;stroke-width:7.6935;stroke-linecap:round;stroke-miterlimit:10;}
	.st14{fill:url(#SVGID_11_);}
	.st15{fill:url(#SVGID_12_);}
	.st16{fill:none;stroke:#5E004D;stroke-width:7.6935;stroke-linecap:round;stroke-miterlimit:10;}
	.st17{fill:url(#SVGID_13_);}
	.st18{fill:url(#SVGID_14_);}
	.st19{fill:url(#SVGID_15_);}
	.st20{fill:url(#SVGID_16_);}
	.st21{fill:#FFFFFF;stroke:#5E004D;stroke-width:7.6935;stroke-linecap:round;stroke-miterlimit:10;}
	.st22{fill:url(#SVGID_17_);}
	.st23{fill:url(#SVGID_18_);stroke:#5E004D;stroke-width:7.6935;stroke-linecap:round;stroke-miterlimit:10;}
	.st24{fill:url(#SVGID_19_);stroke:#5E004D;stroke-width:7.6935;stroke-linecap:round;stroke-miterlimit:10;}
	.st25{fill:url(#SVGID_20_);}
	.st26{fill:url(#SVGID_21_);}
	.st27{fill:url(#SVGID_22_);}
	.st28{fill:url(#SVGID_23_);}
	.st29{fill:url(#SVGID_24_);}
	.st30{fill:url(#SVGID_25_);}
	.st31{fill:url(#SVGID_26_);}
	.st32{fill:url(#SVGID_27_);}
</style>
<g>
	<path class="st0" d="M861.6,541.4c0,0,12.2-136,74.2-124.3l28.4,204.4c0,0-77.4,67.3-110.4,27.1L861.6,541.4z"/>
	<g>
		<path class="st1" d="M874.8,540.1c0,0,10-111.3,60.8-101.7l23.3,167.2c0,0-63.3,55.1-90.4,22.2L874.8,540.1z"/>
	</g>
	<g>
		<path class="st2" d="M631.6,826.8c-18.5,0-33.9-32.8-47.2-100.4c-9.4-48.3-14.2-97.2-14.2-97.7c-0.2-1.8,1-3.5,2.7-4L788.4,560
			l6.4-1.9l62.6-18.8c0.4-0.1,0.7-0.2,1.1-0.2c0.7,0,1.3,0.2,1.9,0.5c0.9,0.5,1.6,1.4,1.8,2.4l3.7,14.1l4.8,18.2l4.7,18l16.8,64.2
			c0.4,1.6-0.2,3.2-1.5,4.1c-8.5,5.8-208.8,143.5-251.5,164.4C636.7,826.2,634.1,826.8,631.6,826.8z"/>
		<path class="st1" d="M858.5,543l3.7,14.1l4.8,18.2l4.7,18l9.7,36.9l7.1,27.2c0,0-208,143.1-251,164.1c-2,1-4,1.5-5.9,1.5
			c-39,0-57.5-194.6-57.5-194.6l215.5-64.7l6.4-1.9L858.5,543 M858.5,535.3c-0.7,0-1.5,0.1-2.2,0.3l-62.6,18.8l-6.4,1.9L571.9,621
			c-3.5,1.1-5.8,4.4-5.4,8.1c0,0.5,4.8,49.6,14.3,98c5.6,28.7,11.8,51.7,18.3,68.3c9.4,23.7,20.1,35.3,32.6,35.3
			c3.1,0,6.2-0.8,9.3-2.2c43-21,243.5-158.8,252-164.7c2.7-1.8,3.9-5.2,3.1-8.3l-7.1-27.2l-9.7-36.9l-4.7-18l-4.8-18.2l-3.7-14.1
			c-0.5-2-1.9-3.7-3.7-4.8C861.1,535.6,859.8,535.3,858.5,535.3L858.5,535.3z"/>
	</g>
	<g>
		<path class="st1" d="M886.7,645.2c0,0-208.4,140.7-251.4,161.7c-43,21-58.5-160.2-58.5-160.2l283.9-89.1L886.7,645.2z"/>
	</g>
	<g>
		<path class="st2" d="M708.9,687.9l40.2,55.4l-20.1,11.9C728.9,755.1,714.1,710.2,708.9,687.9z"/>
	</g>
	<path class="st3" d="M701.7,585.8c0,0-5.4,93.3,28.9,179.9"/>
	<g>
		
			<linearGradient id="SVGID_1_" gradientUnits="userSpaceOnUse" x1="100.7754" y1="-391.9538" x2="1135.1072" y2="-391.9538" gradientTransform="matrix(0.9889 -0.1485 0.1485 0.9889 -33.0435 1162.5525)">
			<stop  offset="0" style="stop-color:#52FFCE"/>
			<stop  offset="0.9948" style="stop-color:#6700E4"/>
		</linearGradient>
		<path class="st4" d="M767.7,644.8c-9.1,4.6-34,15.1-71.6,15.6l-18.4,0.3l16.8-7.6c0.6-0.3,62.5-28.6,83.5-51.3l3.9-4.2l20.3,44
			l75.3-41.3l8.3,31.8l-2.4,1.5c-4.1,2.6-9.2,5.9-14.9,9.5c-37.6,24.1-69.5,44.1-78.6,45.9l-3,0.6L767.7,644.8z"/>
		<path class="st1" d="M780.8,604.4l19.6,42.5l74.6-41l6.4,24.3c-24,15.2-81.1,52.8-92.2,54.8l-19.6-45.6c0,0-26.8,16.5-73.5,17.2
			C696.1,656.6,759,628,780.8,604.4 M783,590.7l-7.8,8.5c-8.3,9-25.1,20.6-48.5,33.4c-18,9.9-33.6,17-33.8,17.1l-33.5,15.2l36.8-0.5
			c13.9-0.2,34.9-2,56.6-9.2c5.3-1.8,9.6-3.6,13-5.1l16.3,38.1l2.4,5.7l6-1.1c9-1.7,34-16.9,80-46.4c5.8-3.7,10.8-6.9,14.9-9.5
			l4.8-3l-1.4-5.5l-6.4-24.3l-2.5-9.5l-8.6,4.7l-67.3,37l-16.2-35L783,590.7L783,590.7z"/>
	</g>
	<g>
		
			<linearGradient id="SVGID_2_" gradientUnits="userSpaceOnUse" x1="29.4981" y1="-451.4472" x2="1312.2444" y2="-451.4472" gradientTransform="matrix(0.9889 -0.1485 0.1485 0.9889 -33.0435 1162.5525)">
			<stop  offset="0" style="stop-color:#52FFCE"/>
			<stop  offset="0.9948" style="stop-color:#6700E4"/>
		</linearGradient>
		<path class="st5" d="M820.9,601.9c-8.3-0.9-16.7-13.3-28.6-32c-1.2-2-2.5-3.9-3.7-5.7l-3.5-5.4l12.1-1l1.2,1
			c8.7,7.1,18,17.2,22,21.7l45.1-22.7l6.2,19.5L822,602L820.9,601.9z"/>
		<path class="st1" d="M795.9,561.8c11.1,9.1,23.5,23.5,23.5,23.5l43.8-22l3.9,12.1l-45.7,22.8c-8.1-0.9-19.7-20.9-29.5-36
			L795.9,561.8 M867.7,552.3l-8,4.1l-38.5,19.4c-4.7-5.2-12.8-13.7-20.4-19.9l-2.4-2l-3.1,0.2l-4.1,0.3l-12.8,1l7,10.8
			c1.2,1.8,2.4,3.8,3.7,5.7c12.9,20.3,21.5,32.7,31.5,33.8l2.3,0.2l2-1l45.7-22.8l5.9-2.9l-2-6.3l-3.9-12.1L867.7,552.3L867.7,552.3
			z"/>
	</g>
	<g>
		<path class="st2" d="M272,975.4c-20.9-1.2-57.8-15.8-96.3-37.9c-41.8-24-78.3-52.8-100.2-78.9c-18.3-21.8-26.5-41.7-24.4-59
			c8.3-69.9,170.6-114.2,177.5-116.1c0.3-0.1,0.7-0.1,1-0.1c0.1,0,0.2,0,0.3,0l59.9,5.2c2.1,0.2,3.6,2,3.5,4.1l-17.2,278.9
			c-0.1,2-1.8,3.6-3.8,3.6C272.2,975.4,272.1,975.4,272,975.4z"/>
		<path class="st1" d="M229.6,687.3l59.9,5.2l-17.2,278.9c-55.5-3.3-225.4-103.3-217.3-171.4S229.6,687.3,229.6,687.3 M229.6,679.6
			c-0.7,0-1.3,0.1-2,0.3c-1.7,0.5-42.8,11.6-85.5,31.3c-59.2,27.3-91.1,56.9-94.8,88c-2.2,18.4,6.3,39.2,25.3,61.9
			c22.1,26.4,59,55.5,101.2,79.7c39,22.4,76.5,37.1,98,38.4c0.2,0,0.3,0,0.5,0c4,0,7.4-3.1,7.7-7.2l17.2-278.9
			c0.3-4.2-2.9-7.8-7-8.1l-59.9-5.2C230,679.7,229.8,679.6,229.6,679.6L229.6,679.6z"/>
	</g>
	<g>
		<path class="st1" d="M236.7,697.3c0,0-150.6,40.4-158,102c-7.3,61.6,146.4,152,196.6,155l15.6-252.3L236.7,697.3z"/>
	</g>
	<g>
		<path class="st2" d="M76.7,797.9c0,0,54.4-18.2,88.2-7.5c0,0-79.8,10.7-88.9,41.7C76,832,65.2,821,76.7,797.9z"/>
	</g>
	<g>
		
			<linearGradient id="SVGID_3_" gradientUnits="userSpaceOnUse" x1="183.8043" y1="-292.106" x2="1203.981" y2="-292.106" gradientTransform="matrix(0.9889 -0.1485 0.1485 0.9889 -33.0435 1162.5525)">
			<stop  offset="0" style="stop-color:#52FFCE"/>
			<stop  offset="0.9948" style="stop-color:#6700E4"/>
		</linearGradient>
		<path class="st6" d="M198.7,856.1l-25.7,8.5l-0.3,0c-0.5,0.1-1,0.1-1.5,0.1c-5.2,0-12.8-4-25.2-35.6
			c-6.5-16.5-11.3-33.3-11.4-33.5l-4.8-16.8l11.5,13.2c9.4,10.8,32.6,26.4,38.4,30.3l25.4-6.1l64.9,40l-33.5,34.2L198.7,856.1z"/>
		<path class="st1" d="M138.4,794.6c11.2,12.9,40.6,31.9,40.6,31.9l25.5-6.1l59.5,36.6l-27.6,28.1l-36.8-33.4l-27.6,9.1
			c-0.3,0-0.5,0.1-0.8,0.1C157.5,860.9,138.4,794.6,138.4,794.6 M121.3,763.2l9.7,33.6c0.2,0.7,5,17.1,11.5,33.8
			c10.6,27,18.9,38,28.8,38c0.7,0,1.5-0.1,2.2-0.2l0.5-0.1l0.5-0.2l23.3-7.7l33.5,30.4l5.5,5l5.2-5.3l27.6-28.1l6.8-6.9l-8.2-5.1
			l-59.5-36.6l-2.7-1.7l-3.1,0.7l-22.2,5.3c-7.4-4.9-27.8-19-36.3-28.7L121.3,763.2L121.3,763.2z"/>
	</g>
	<path class="st3" d="M54.9,800.1c0,0,103.5-29.6,177.7,3.2"/>
	<g>
		<path class="st2" d="M367,1232c-0.8,0-1.6-0.2-2.2-0.7c-0.3-0.2-29.2-20.7-63.6-53.4c-31.7-30.2-74.8-77.3-99.5-130.3
			c-8.9-19.1-14-45.7-15.1-79.2c-0.9-26.6,0.7-57.8,4.7-92.9c4.3-37.9,11.5-80.2,21.2-125.6c11-51.5,21.5-88.8,21.6-89.1
			c0.4-1.6,1.8-2.7,3.4-2.8l368.8-27c0.1,0,0.2,0,0.3,0c1.8,0,3.5,1.3,3.8,3.2l17.6,99l18.6,104.6l6.6,37.2l9.3,52.5l135,116.2
			l120.8,103.9c1.1,1,1.6,2.5,1.2,4c-0.4,1.4-1.6,2.5-3.1,2.7L812.9,1170l-51.8,7.8l-30,4.5c-0.2,0-0.4,0-0.6,0
			c-0.4,0-0.8-0.1-1.2-0.2c-41.7-14.3-79.8-27-113.3-37.9c-14.9-4.8-28.8-9.2-41.4-13.1c-49.8-15.4-72-20.8-79.5-22.2
			c0.7,12.4,8.3,57.7,15.8,98.2c0.2,1,0,2.1-0.7,2.9c-0.6,0.9-1.5,1.4-2.6,1.6l-140.1,20.1C367.4,1231.9,367.2,1232,367,1232z"/>
		<path class="st1" d="M606.5,634.9l17.6,99l7.8,44l0,0l10.8,60.7l6.6,37.2l9.6,53.8l20.4,17.6l115.7,99.5l92.9,80l27.8,23.9
			l-103.4,15.6l0,0l-51.8,7.8l-30,4.5c-44.8-15.4-82.3-27.9-113.4-37.9c-15.4-5-29.1-9.3-41.4-13.1c-53.8-16.7-79.1-22.8-83.6-22.8
			c-0.3,0-0.5,0-0.6,0.1c-3.4,1.3,15.5,103.1,15.5,103.1L367,1228.1c0,0-114.4-80.8-161.8-182.2c-9.4-20-13.8-47.1-14.8-77.7
			c-1-28.7,1-60.4,4.7-92.3c5-44.1,13.2-88.4,21.1-125.2c11.1-52,21.6-88.9,21.6-88.9L606.5,634.9 M606.6,627.2c-0.2,0-0.4,0-0.6,0
			l-368.8,27c-3.2,0.2-6,2.5-6.8,5.6c-0.1,0.4-10.6,37.8-21.7,89.4c-9.7,45.5-16.9,87.9-21.2,125.9c-4,35.2-5.6,66.7-4.7,93.4
			c1.1,33.9,6.4,61.1,15.5,80.7c11.1,23.7,26.6,48.2,46.2,72.8c15.6,19.6,33.8,39.3,54.1,58.7c34.5,32.9,62.8,52.9,64,53.8
			c1.3,0.9,2.9,1.4,4.4,1.4c0.4,0,0.7,0,1.1-0.1l140.1-20.1c2.1-0.3,3.9-1.4,5.2-3.1c1.2-1.7,1.7-3.8,1.3-5.9
			c-6.7-36.3-13.4-76.2-15.3-92.7c10.4,2.3,32.6,8.2,74.1,21.1c12.6,3.9,26.5,8.3,41.3,13.1c33.4,10.8,71.5,23.5,113.2,37.8
			c0.8,0.3,1.7,0.4,2.5,0.4c0.4,0,0.8,0,1.1-0.1l30-4.5l51.8-7.8l103.4-15.6c3-0.4,5.4-2.6,6.2-5.5c0.8-2.9-0.1-6-2.4-8l-27.8-23.9
			l-92.9-80l-115.7-99.5L666,925.6l-9.1-51.1l-6.6-37.2l-10.8-60.6c0,0,0,0,0-0.1l-7.8-44l-17.6-99
			C613.5,629.9,610.3,627.2,606.6,627.2L606.6,627.2z"/>
	</g>
	<g>
		<path class="st1" d="M915.7,1150.7l-103.4,15.6l0,0l-51.8,7.8l0,0c-44.8-15.4-110.3-39.6-141.3-49.6c-15.4-5-48.1-15.7-60.4-19.5
			c-31.4-9.7-64.9,0.2-67.1-0.1c-19.2-2.1,0,105.3,0,105.3L367,1228.1c0,0-113.5-95.5-152.2-200.5c-24.1-65.2,40.1-368.3,40.1-368.3
			l351.7-24.4l-7.1,93.4l18.8,57.5l21.2,141l17.6,18.4l205.3,185.2L915.7,1150.7z"/>
	</g>
	<path class="st2" d="M349.4,1096.9c0,0,43.5-4.3,57.3-1.9l-39.7,19.8L349.4,1096.9z"/>
	<g>
		<path class="st2" d="M413,814.6c-53.4,0-96.7-7.7-97.1-7.7c-1.5-0.3-2.6-1.3-3-2.8c-8.7-32.3-7.1-59.7-7.1-60.8
			c0.1-2,1.8-3.6,3.8-3.6c0.1,0,0.2,0,0.2,0l223.1,13.1c1.1,0.1,2.1,0.6,2.8,1.5c0.7,0.9,1,2,0.7,3.1l-7.5,39.5
			c-0.3,1.4-1.3,2.5-2.6,3C494.9,809.7,456.7,814.6,413,814.6C413,814.6,413,814.6,413,814.6z"/>
		<path class="st1" d="M309.6,743.5l223.1,13.1l-7.5,39.5c-36,11.3-76.6,14.7-112.2,14.7c-53.7,0-96.5-7.7-96.5-7.7
			C307.9,771,309.6,743.5,309.6,743.5 M309.6,735.8c-4,0-7.4,3.1-7.7,7.2c-0.1,1.2-1.6,29.1,7.2,62c0.8,2.9,3.1,5,6.1,5.6
			c1.8,0.3,44,7.8,97.8,7.8c44.1,0,82.7-5,114.5-15c2.7-0.8,4.7-3.1,5.3-5.9l7.5-39.5c0.4-2.2-0.1-4.4-1.5-6.2
			c-1.4-1.7-3.4-2.8-5.6-2.9L310,735.9C309.9,735.9,309.7,735.8,309.6,735.8L309.6,735.8z"/>
	</g>
	<g>
		
			<linearGradient id="SVGID_4_" gradientUnits="userSpaceOnUse" x1="213.8004" y1="70.6755" x2="1064.4447" y2="70.6755" gradientTransform="matrix(0.9889 -0.1485 0.1485 0.9889 -33.0435 1162.5525)">
			<stop  offset="0" style="stop-color:#52FFCE"/>
			<stop  offset="0.9948" style="stop-color:#6700E4"/>
		</linearGradient>
		<path class="st7" d="M419.3,1200.3l-0.7-1.9c-0.1-0.2-6.2-15.9-11-32.9c-6.9-24.6-7.4-38.9-1.6-44.9c6.6-6.9,29.5-10.4,68.1-10.4
			c9.7,0,16.6,0.2,16.7,0.3l3,0.1l4.3,20.2l-53.4,10.6L466,1211L419.3,1200.3z"/>
		<path class="st1" d="M474.1,1114.1c9.8,0,16.6,0.2,16.6,0.2l2.9,13.4l-53.7,10.6l20.5,67.4l-38.2-8.8c0,0-24.5-62.3-13.4-73.8
			C416.4,1115.3,452.5,1114.1,474.1,1114.1 M474.1,1106.4v7.7V1106.4c-10.3,0-25.5,0.3-38.7,1.7c-22.3,2.3-28.9,6.5-32.2,9.9
			c-4.6,4.8-8.7,14.7,0.7,48.6c4.8,17.2,10.8,32.7,11.1,33.3l1.5,3.8l4,0.9l38.2,8.8l13,3l-3.9-12.7l-18.1-59.3l45.4-9l7.7-1.5
			l-1.6-7.6l-2.9-13.4l-1.3-5.9l-6-0.2C490.7,1106.6,483.9,1106.4,474.1,1106.4L474.1,1106.4z"/>
	</g>
	<g>
		
			<linearGradient id="SVGID_5_" gradientUnits="userSpaceOnUse" x1="184.5316" y1="86.5749" x2="1046.7211" y2="86.5749" gradientTransform="matrix(0.9889 -0.1485 0.1485 0.9889 -33.0435 1162.5525)">
			<stop  offset="0" style="stop-color:#52FFCE"/>
			<stop  offset="0.9948" style="stop-color:#6700E4"/>
		</linearGradient>
		<path class="st8" d="M678.7,1128.5c-6.5,1.4-33.5,7.4-60.4,15.9l-1.2,0.4l-1.2-0.4c-14.9-4.8-28.8-9.2-41.4-13.1l-11.3-3.5
			l11.3-3.8c37.3-12.6,86.5-27.7,109.4-27.7c3,0,5.5,0.3,7.6,0.8l0.5,0.1l132.4,71.2l-64.6,9.7L678.7,1128.5z"/>
		<path class="st1" d="M683.9,1100.1c2.6,0,4.8,0.2,6.6,0.7l121.8,65.5l-51.8,7.8l-81.1-49.6c0,0-31,6.5-62.2,16.3
			c-15.4-5-29.1-9.3-41.4-13.1C608.1,1116.6,660.7,1100.1,683.9,1100.1 M683.9,1092.4v7.7V1092.4L683.9,1092.4
			c-23.4,0-73.1,15.2-110.6,27.9l-22.5,7.6l22.7,7c12.6,3.9,26.5,8.3,41.3,13.1l2.3,0.8l2.3-0.7c25-7.8,50.1-13.6,58.5-15.4l78.5,48
			l2.4,1.5l2.8-0.4l51.8-7.8l22.8-3.4l-20.3-10.9L694.2,1094l-0.8-0.5l-0.9-0.2C690,1092.7,687.2,1092.4,683.9,1092.4L683.9,1092.4z
			"/>
	</g>
	<g>
		
			<linearGradient id="SVGID_6_" gradientUnits="userSpaceOnUse" x1="150.5002" y1="54.3765" x2="1036.922" y2="54.3765" gradientTransform="matrix(0.9889 -0.1485 0.1485 0.9889 -33.0435 1162.5525)">
			<stop  offset="0" style="stop-color:#52FFCE"/>
			<stop  offset="0.9948" style="stop-color:#6700E4"/>
		</linearGradient>
		<polygon class="st9" points="790.2,1061.4 791.6,1038.8 895.3,1128 874.1,1136.2 		"/>
		<path class="st1" d="M794.9,1046.7l92.9,80l-13,5.1l-80.7-72.1L794.9,1046.7 M788.2,1030.8l-1,15.5l-0.8,13l-0.2,3.7l2.8,2.5
			l80.7,72.1l3.5,3.1l4.4-1.7l13-5.1l11.9-4.6l-9.7-8.4l-92.9-80L788.2,1030.8L788.2,1030.8z"/>
	</g>
	
		<linearGradient id="SVGID_7_" gradientUnits="userSpaceOnUse" x1="234.9866" y1="-247.1833" x2="811.4473" y2="-247.1833" gradientTransform="matrix(0.9889 -0.1485 0.1485 0.9889 -33.0435 1162.5525)">
		<stop  offset="0" style="stop-color:#52FFCE"/>
		<stop  offset="0.9948" style="stop-color:#6700E4"/>
	</linearGradient>
	<polygon class="st10" points="641.3,829.5 611.1,860 513.6,866.3 426.2,886.5 511.2,850.6 608,839.7 630.6,768.8 	"/>
	
		<linearGradient id="SVGID_8_" gradientUnits="userSpaceOnUse" x1="234.9866" y1="-277.3733" x2="811.4473" y2="-277.3733" gradientTransform="matrix(0.9889 -0.1485 0.1485 0.9889 -33.0435 1162.5525)">
		<stop  offset="0" style="stop-color:#52FFCE"/>
		<stop  offset="0.9948" style="stop-color:#6700E4"/>
	</linearGradient>
	<polygon class="st11" points="196.2,829.4 238,857.7 322.9,869.7 409.7,892.3 325.7,854.1 245.3,839.3 208.7,769.1 	"/>
	
		<linearGradient id="SVGID_9_" gradientUnits="userSpaceOnUse" x1="234.9866" y1="-281.8287" x2="811.4473" y2="-281.8287" gradientTransform="matrix(0.9889 -0.1485 0.1485 0.9889 -33.0435 1162.5525)">
		<stop  offset="0" style="stop-color:#52FFCE"/>
		<stop  offset="0.9948" style="stop-color:#6700E4"/>
	</linearGradient>
	<path class="st12" d="M438,861l43.5-55.5l43.9-8.2l10.6-59l63.5-9.9c0,0-9.9,88.1-29.8,88.8l-72.9,15.6L438,861z"/>
	
		<linearGradient id="SVGID_10_" gradientUnits="userSpaceOnUse" x1="234.9866" y1="-304.7434" x2="811.4473" y2="-304.7434" gradientTransform="matrix(0.9889 -0.1485 0.1485 0.9889 -33.0435 1162.5525)">
		<stop  offset="0" style="stop-color:#52FFCE"/>
		<stop  offset="0.9948" style="stop-color:#6700E4"/>
	</linearGradient>
	<path class="st13" d="M399.9,872l-39-59.4l-44.4-9.4l-6.9-59.6l-62.8-13.8c0,0,4.5,88.5,24.3,90.4l71.8,20L399.9,872z"/>
	<g>
		
			<linearGradient id="SVGID_11_" gradientUnits="userSpaceOnUse" x1="305.3853" y1="-379.3658" x2="717.4545" y2="-379.3658" gradientTransform="matrix(0.9889 -0.1485 0.1485 0.9889 -33.0435 1162.5525)">
			<stop  offset="0" style="stop-color:#52FFCE"/>
			<stop  offset="0.9948" style="stop-color:#6700E4"/>
		</linearGradient>
		<path class="st14" d="M408.6,788c-81,0-149.3-21.8-192.4-40.2l-2.9-1.2l0.7-3.1c11-51.5,20-82.4,20.1-82.7l0.8-2.6l374.9-27.4
			l17.9,100.3l-2.5,1.3C556.8,769.3,483.9,788,408.6,788z"/>
		<g>
			<path class="st1" d="M606.5,634.9l16.8,94.1c-76.6,41.3-150.3,55.1-214.8,55.1c-83.4,0-151.5-23.1-190.9-39.8
				c11.1-52,20-82.4,20-82.4L606.5,634.9 M612.9,626.8l-6.9,0.5l-368.8,27l-5.3,0.4l-1.5,5.1c-0.1,0.3-9.1,31.3-20.2,83l-1.3,6.2
				l5.8,2.5c43.4,18.5,112.3,40.5,193.9,40.5c76,0,149.5-18.9,218.4-56l4.9-2.6l-1-5.5l-16.8-94.1L612.9,626.8L612.9,626.8z"/>
		</g>
	</g>
	<g>
		<g>
			<path class="st2" d="M407.5,733.7c-21.2,0-42.1-1.2-62.3-3.6c-87.8-10.3-134-39.6-134.4-39.9c-30.1-19.9-46.1-43.7-46.1-68.7
				v-0.3c0-19-2.1-42.1-8.2-49.8c-35.5-45.5-54.3-99-54.3-154.6c-0.1-72.8,31.7-141.2,89.5-192.7c57.6-51.4,134.3-79.7,215.8-79.8
				h0.4c81.5,0,158.1,28.2,215.7,79.4c57.8,51.3,89.7,119.7,89.7,192.4c0,12.3,0.7,24.9,1.3,37c2.2,43.8,4.5,89.1-22.6,124.1
				c-4.1,5.3-12.6,14.1-20.8,22.6c-7.7,8-18.1,18.8-19.9,21.8c-0.3,32.7-28.6,62.9-79.8,85.2c-8.3,3.6-51.8,18.4-112.3,24.3
				c-17,1.7-34.2,2.5-51.1,2.6H407.5z"/>
			<path class="st1" d="M407.8,148.2c166.5,0,301.5,119.9,301.6,267.9c0.1,56.6,13,115.4-20.6,158.7c-9.2,11.8-41.5,42.3-41.5,46.1
				c0,33-29.8,61.6-77.4,82.3c-8.2,3.6-50.9,18.1-111.1,24c-15.8,1.6-32.8,2.5-50.8,2.5c-0.2,0-0.4,0-0.6,0
				c-22.4,0-43.1-1.3-61.8-3.6c-80.6-9.5-126.5-35.1-132.8-39.3c-27.9-18.5-44.4-41.1-44.4-65.5c0-3.9,0.2-40.7-9-52.5
				c-33.7-43.2-53.5-95.7-53.5-152.3c-0.1-148.2,134.8-268.4,301.4-268.6C407.5,148.2,407.7,148.2,407.8,148.2 M407.8,140.5v7.7
				V140.5l-0.4,0c-41.7,0-82.1,7.3-120.1,21.7c-36.8,13.9-69.9,33.7-98.2,59c-28.5,25.4-50.8,54.9-66.4,87.8
				c-16.2,34.1-24.4,70.4-24.3,107.8c0.1,56.5,19.1,110.8,55.2,157c4.5,5.8,7.4,24.4,7.4,47.4l0,0.3c0,26.4,16.6,51.3,47.8,71.9
				c12.5,8.3,61.4,31.7,136.1,40.5c20.3,2.4,41.4,3.6,62.7,3.6l0.6,0c17,0,34.3-0.9,51.5-2.6c61-6,105-21,113.4-24.6
				c25.3-11,45.1-23.9,59.1-38.3c14.8-15.3,22.5-31.8,23-49.3c2.7-3.6,11.9-13.2,18.8-20.3c8.3-8.6,16.9-17.4,21.1-22.9
				c28-36.1,25.7-82.1,23.4-126.6c-0.6-12.1-1.2-24.7-1.3-36.8c0-37.3-8.3-73.5-24.5-107.6c-15.7-32.8-38-62.3-66.5-87.6
				c-28.4-25.2-61.5-45-98.2-58.9C489.8,147.7,449.4,140.5,407.8,140.5L407.8,140.5z"/>
		</g>
		<g>
			
				<linearGradient id="SVGID_12_" gradientUnits="userSpaceOnUse" x1="238.5821" y1="-614.8431" x2="866.5647" y2="-614.8431" gradientTransform="matrix(0.9889 -0.1485 0.1485 0.9889 -33.0435 1162.5525)">
				<stop  offset="0" style="stop-color:#52FFCE"/>
				<stop  offset="0.9948" style="stop-color:#6700E4"/>
			</linearGradient>
			<path class="st15" d="M712.8,520.4c-3.8,10.7-8.4,21.2-13.8,31.5c-4.9,9.4-10.4,18.5-16.7,27.2c-7,9.8-14.8,19.1-23.5,27.9
				c-3,3-6,6-9,8.7c-0.7,0.6-1.3,1.2-1.9,1.8c-12.5,11.6-24.4,20.9-35.7,28.2c-9,5.8-17.5,10.3-25.8,13.7c-26.3,11-49,11-68.6,5.5
				c-36.6-10.2-62.4-39.6-80.6-52.3c-35.8-25.2-84,18.8-106.1,30.9c-112.9,61.8-213.4-153.1-213.4-153.1
				c-58.4-93.4,39.1-193.6,39.1-193.6s130.2,2,258.1-0.1c10.9-0.2,21.8-0.4,32.6-0.6c10.4-0.2,20.6-0.5,30.7-0.8
				c14.7-0.4,29.1-1,42.9-1.6c1.9-0.1,3.7-0.2,5.6-0.3c12.1-0.6,23.7-1.2,34.6-1.9c10.1-0.7,19.7-1.4,28.7-2.1
				c9.4-0.8,18-1.7,25.8-2.7c12-1.5,21.9-3.2,29.2-5.2C709,264.4,755.4,402.2,712.8,520.4z"/>
		</g>
		<path class="st1" d="M159.5,569.1c0,0,28.4-47.3,32.9-87.8c0,0,13.7,39,56.9,48.1c0,0-2.5-93.4,7.4-112c0,0,60.7,71.6,168.2,74.2
			l9-40.9c0,0,103.2,54.1,186.3,44.9l5.8-66l23.5,28.3l44-64.8l-7-15.2l-42,54.9l-36.9-47.9l-1.7,79.4c0,0-101.8,18.7-183.4-35.8
			l-5.5,46.6c0,0-110.9-6.4-176.5-92.7c0,0-9.8,80.1-8.6,126.9c0,0-47.8-12.4-60.3-96.9c0,0,14.8,121.9-21,153.8L159.5,569.1z"/>
		<path class="st3" d="M158.5,557.9c0,0,25.8-62.5,13.3-145.7c0,0,12.3,79.5,60.3,96.9c0,0-4.2-54.4,6.4-115.7
			c0.6-3.7,1.4-7.5,2.1-11.2c0,0,65.6,87.6,176.5,92.7l5.5-46.6c0,0,80.6,50.8,183.4,35.8c0,0,11.3-48.1,1.7-79.4
			c0,0,32.4,34.7,36.9,47.9c0,0,42.7-32.1,41.4-97.6S616,242.7,616,242.7l-468.9,25.9l-72.7,97.9C74.3,366.5,95.7,555.7,158.5,557.9
			z"/>
		<g>
			<path class="st1" d="M117.6,490.5c0,0,35-17.8,24.3-68.7c0,0,5.8,48.5,3.8,71.3c0,0,24-59.7,22-109c0,0,21.3,55.3,38,64.7
				c0,0-3.5-88,15.2-91.1c0,0,117.4,90.6,165.5,89.5c0,0-29.4-28.7-41.1-48.1l146.8-2.6l52.6,36.6l-18.5-45.7l71.7-47.9
				c0,0,40.2,33.7,45.3,49.3l-10.5-73.5l-128.5,44.2c0,0-153.7,19-215.4-0.2s-118.6-49.1-129.7-31.5
				C148.1,345.5,98.3,411.3,117.6,490.5z"/>
		</g>
		<g>
			<path class="st2" d="M302,593.9c-13.3,0-28.6-3.2-41.8-6.3c-19.2-4.5-38.8-10.1-51.5-20c-14.2-11.1-18.7-26.2-14-46.4
				c8.4-35.8,40-60.9,76.8-60.9c6.1,0,12.2,0.7,18.2,2.1c20.5,4.8,37.9,17.4,49,35.3s14.5,39.1,9.7,59.6
				C342.7,582,327.5,593.9,302,593.9C302,593.9,302,593.9,302,593.9z"/>
			<path class="st1" d="M271.6,464.2c5.7,0,11.5,0.7,17.3,2c40.4,9.5,65.4,50,55.9,90.3c-6,25.6-21.7,33.5-42.7,33.5
				c-12.2,0-26.1-2.7-40.9-6.2c-40.4-9.5-72.1-21.4-62.6-61.8C206.7,487.5,237.5,464.2,271.6,464.2 M271.6,456.5
				c-18.3,0-36.4,6.3-51,17.6c-14.8,11.5-25.3,28-29.6,46.2c-5.1,21.5,0.1,38.4,15.3,50.3c13.3,10.4,33.3,16.1,53,20.8
				c13.4,3.2,28.9,6.4,42.7,6.4c13,0,23.3-2.8,31.4-8.6c9.2-6.5,15.5-16.9,18.8-30.9c10.5-44.4-17.2-89.1-61.6-99.6
				C284.4,457.2,278,456.5,271.6,456.5L271.6,456.5z"/>
		</g>
		<g>
			<path class="st2" d="M521.6,591c-25.6,0-40.9-12-46.7-36.7c-10.2-42.7,16.3-85.7,59.1-95.9c6.1-1.4,12.3-2.2,18.5-2.2
				c37,0,68.8,25.2,77.4,61.2c4.8,20.3,0.3,35.6-14,46.8c-12.8,10.1-32.5,15.7-51.9,20.3C550.6,587.8,535.1,591,521.6,591z"/>
			<path class="st1" d="M552.4,460.1c34.3,0,65.4,23.4,73.7,58.3c9.7,40.7-22.3,52.8-63,62.5c-15,3.6-29.1,6.3-41.4,6.3
				c-21.1,0-36.9-8-43-33.7c-9.7-40.7,15.5-81.6,56.2-91.3C540.7,460.8,546.6,460.1,552.4,460.1 M552.4,452.4
				C552.4,452.4,552.4,452.4,552.4,452.4c-6.5,0-13,0.8-19.4,2.3c-44.8,10.7-72.6,55.8-61.9,100.5c3.3,14,9.7,24.5,18.9,31
				c8.2,5.8,18.5,8.7,31.6,8.7c13.9,0,29.6-3.3,43.2-6.5c33.5-8,45.5-14.8,53.4-21c15.3-12,20.5-29.1,15.4-50.7
				c-4.4-18.4-15-34.9-29.8-46.5C589.1,458.7,570.9,452.4,552.4,452.4L552.4,452.4z"/>
		</g>
		<circle class="st1" cx="542.7" cy="532.4" r="18.3"/>
		<g>
			<path class="st1" d="M318.2,616c0.6,1.7,1.4,3.3,2.3,4.9c0.2,0.4,0.4,0.8,0.7,1.2l0.7,1.1c0.5,0.8,1,1.4,1.5,2.1l0.8,1l0.9,1
				c0.6,0.6,1.1,1.3,1.8,1.9l1.9,1.8l2,1.6c0.3,0.3,0.7,0.5,1,0.8l1.1,0.7l2.1,1.4l2.3,1.2c0.8,0.4,1.5,0.8,2.3,1.1
				c3.1,1.3,6.4,2.4,9.7,3.1l2.5,0.5c0.8,0.2,1.7,0.4,2.5,0.4l5.1,0.6l10.8,0.8c7.2,0.5,14.4,1.1,21.5,1.8c14.3,1.3,28.7,2.8,43,4.7
				c14.3,2,28.6,4,42.7,7.5c-14.5-0.2-28.9-0.7-43.3-1.4c-14.4-0.8-28.8-1.8-43.1-3.1c-7.2-0.7-14.4-1.4-21.5-2.2
				c-3.6-0.4-7.2-0.8-10.8-1.3l-5.6-1c-0.9-0.1-1.8-0.4-2.8-0.7l-2.7-0.8c-7.2-2.2-14.2-5.9-19.5-11.3l-1.9-2.1l-1.7-2.2
				c-0.6-0.7-1.1-1.5-1.6-2.3l-0.8-1.2l-0.6-1.2C320,623.1,318.7,619.6,318.2,616z"/>
		</g>
		<path class="st1" d="M640.5,450.7c-35.4-18-115.3-38-179.5,98.6l-15.6-35.7l13.2,10.7c0,0,80.8-194.5,186.2-79.2
			C647.4,448.1,644,452.5,640.5,450.7z"/>
		<path class="st1" d="M194.5,465.5c35.6-20.1,109.2-38.8,181.1,84.7l12.4-36.6l-12.1,11.7c0,0-94.1-180.4-187.1-66.7
			C185.5,462.6,190.1,468,194.5,465.5z"/>
		<path class="st16" d="M118.4,495.4c0,0,100.5,214.9,213.4,153.1c22.1-12.1,70.3-56.1,106.1-30.9c35.8,25.2,101.7,115.2,221.6-5.6
			s67.2-347.1-14-325.5c-81.2,21.7-488.1,15.3-488.1,15.3S60,402,118.4,495.4z"/>
		<path class="st16" d="M117.6,490.5c0,0,100.5,214.9,213.4,153.1c22.1-12.1,70.3-56.1,106.1-30.9c35.8,25.2,101.7,115.2,221.6-5.6
			s67.2-347.1-14-325.5s-488.1,15.3-488.1,15.3S59.3,397.1,117.6,490.5z"/>
		<circle class="st1" cx="281.2" cy="535.8" r="18.1"/>
		<g>
			<path class="st2" d="M569.9,703.8c13.5-6.3,46.1-28.1,73.3-65.9c20-27.7,34.4-59.8,42.8-95.3c10.6-44.5,11.8-94.6,3.7-148.9
				c-6-39.9-24.8-62.7-51.5-62.7c-8,0-16.4,2-25.1,6l-1.7,0.8C537.9,371.2,461.9,405.9,410,406l-0.4,0c-55.9,0-116.9-17-171.8-47.9
				c-15.2-8.5-30.4-12.8-45.3-12.8c-19.8,0-38.5,7.8-52.6,21.9c-13.3,13.3-21.3,31-22,48.6c-2,47.5,3.5,91.9,16.4,132.1
				c10.2,32,25.1,61.4,44.3,87.4c32.5,44,66.3,62.9,66.7,63.1l19.7,10.8l-22.1-3.6c-0.9-0.1-22-3.9-63.7-31.8
				c-23.6-15.9-57.7-44.9-85.9-93.4c-28.6-49.1-43.7-105.8-45.1-168.4c-2-94.5,33.8-184.2,100.8-252.7
				c33.6-34.3,73.1-61.4,117.3-80.3c45.7-19.6,94.1-29.5,144-29.5c0.6,0,1.3,0,1.9,0c48.5,0.3,95.6,10.1,139.9,29.4
				c42.8,18.5,81.2,44.9,114.3,78.5c33.5,33.9,59.7,73.4,78,117.2c18.9,45.4,28.3,93.3,27.9,142.5c-0.4,45.9-5.6,81.5-16.6,112.1
				c-10.1,28-24.6,51.6-44.8,80.4c-42,60-101.2,94.8-138.4,101.8l-30.2,5.6L569.9,703.8z"/>
			<g>
				<path class="st1" d="M410,53.1c0.6,0,1.3,0,1.9,0c197.7,1,357.8,165.9,356.3,363.7c-0.7,96-22.7,136-60.8,190.3
					c-38.9,55.5-96.4,92.8-136,100.2c0,0,158.2-73.4,122-314.2c-6.7-44.7-28.5-66-55.3-66c-8.5,0-17.5,2.1-26.7,6.3
					c-72.6,33.2-150,68.7-201.5,68.7c-0.1,0-0.3,0-0.4,0c-49.5,0-109.8-13.6-169.9-47.4c-16.6-9.3-32.5-13.3-47.2-13.3
					c-44.4,0-76.9,36.8-78.5,74.2c-8.7,210.2,129.3,286.1,129.3,286.1s-20.7-3.4-62.2-31.2C124.6,632.5,54.7,548.9,51.8,411.7
					C47.5,213.8,212,53.1,410,53.1 M410,45.4L410,45.4c-50.4,0-99.3,10-145.5,29.8c-44.7,19.2-84.6,46.5-118.5,81.2
					c-32.9,33.6-58.4,72.4-76,115.2c-18.2,44.6-27,91.8-25.9,140.2c1.4,63.3,16.7,120.6,45.6,170.3c28.6,49.1,63.1,78.6,87.1,94.7
					c42.4,28.4,64.3,32.3,65.2,32.4l44.3,7.3L247,694.9c-0.3-0.2-33.9-19-65.9-62.7c-18.8-25.6-33.4-54.5-43.4-86.1
					c-12.6-39.6-18-83.4-16-130.2c0.7-16.6,8.3-33.4,20.9-46c13.4-13.4,31.1-20.8,49.9-20.8c14.3,0,28.9,4.2,43.4,12.3
					c29.2,16.4,59.7,28.9,90.8,37.1c28.3,7.5,56.2,11.3,82.9,11.3l0.4,0c52.8-0.1,129.1-34.9,203-68.6l1.7-0.8
					c8.2-3.7,16.1-5.6,23.5-5.6c11.6,0,21.5,4.6,29.4,13.6c9.1,10.3,15.3,25.7,18.3,45.8c8.1,53.7,6.9,103.2-3.5,147.2
					c-8.3,35-22.4,66.6-42,93.9c-17.4,24.3-36.1,40.7-48.7,50.2c-13.7,10.3-23.3,14.8-23.4,14.9L513.4,726l59.5-11.1
					c21.3-4,46.6-15.8,71.3-33.3c26.8-19,50.8-43.2,69.6-70c20.4-29.1,35.1-52.9,45.3-81.3c11.1-31,16.5-67,16.8-113.3
					c0.4-49.7-9.1-98.2-28.2-144c-18.4-44.3-44.9-84.1-78.8-118.4c-33.4-33.9-72.3-60.6-115.5-79.3c-44.9-19.5-92.5-29.4-141.5-29.7
					C411.3,45.4,410.7,45.4,410,45.4L410,45.4z"/>
			</g>
		</g>
		<g>
			<path class="st2" d="M569.9,703.8c13.5-6.3,46.1-28.1,73.3-65.9c20-27.7,34.4-59.8,42.8-95.3c10.6-44.5,11.8-94.6,3.7-148.9
				c-6-39.9-24.8-62.7-51.5-62.7c-8,0-16.4,2-25.1,6l-1.8,0.8C537.8,371.2,461.9,405.9,410,406l-0.4,0c-55.9,0-116.9-17-171.9-47.9
				c-9.9-5.6-20-9.4-30-11.3c-4.3-0.8-8.6-1.3-12.8-1.5c-0.8,0-1.7,0-2.5,0c-19.8,0-38.4,7.8-52.6,21.9c-13.3,13.3-21.3,31-22,48.5
				c-2,47.2,3.5,91.4,16.1,131.3c10.1,32,24.9,61.3,43.9,87.2c32.4,44.2,65.9,63.2,67.4,64l18.8,10.5l-21.3-3.3
				c-0.2,0-21.7-3.6-63.7-31.8c-23.6-15.9-57.7-44.9-85.9-93.4c-28.6-49.1-43.7-105.8-45.1-168.4c-0.9-44.1,6.3-87.2,21.6-128.3
				c3.6-9.6,7.6-19.1,11.9-28.2c7.4-15.6,16.1-30.8,25.8-45.3c8.7-13,18.5-25.6,29-37.5c7.7-8.7,16-17.2,24.5-25.2
				c14.5-13.6,30.3-26,46.8-37c60.2-40,130.1-61.1,202.4-61.1c0.7,0,1.3,0,2,0c54.3,0.3,106.5,12.5,155.2,36.4
				c18.2,8.9,35.9,19.5,52.4,31.5c9.6,6.9,18.9,14.4,27.8,22.2c11.6,10.2,22.6,21.2,32.8,32.8c59.9,67.9,92.5,154.7,91.8,244.7
				c-0.4,45.9-5.6,81.5-16.6,112.1c-10.1,28-24.6,51.6-44.8,80.4c-42,60-101.2,94.8-138.4,101.8l-30.2,5.6L569.9,703.8z"/>
			<g>
				<path class="st1" d="M410,53.1c0.6,0,1.3,0,1.9,0c55,0.3,107,13.2,153.5,36c18.2,8.9,35.6,19.4,51.9,31.1
					c9.5,6.9,18.7,14.2,27.5,22c11.5,10.1,22.4,21,32.5,32.5c57.1,64.7,91.6,149.8,90.9,242.1c-0.7,96-22.7,136-60.7,190.3
					c-38.9,55.5-96.4,92.8-136,100.2c0,0,158.2-73.4,122-314.2c-6.7-44.7-28.5-66-55.3-66c-8.5,0-17.5,2.1-26.7,6.3
					c-72.7,33.2-150,68.7-201.5,68.7c-0.1,0-0.2,0-0.4,0c-49.5,0-109.8-13.6-170-47.4c-10.7-6-21.1-9.8-31.2-11.7
					c-4.6-0.9-9.1-1.4-13.4-1.5c-0.9,0-1.8,0-2.6,0c-44.4,0-76.9,36.8-78.5,74.2c-8.6,208.8,127.5,285,129.3,286
					c-0.6-0.1-21.3-3.8-62.2-31.2C124.6,632.5,54.7,548.9,51.8,411.7c-1-44.7,6.7-87.4,21.3-126.8c3.5-9.5,7.5-18.8,11.8-27.9
					c7.4-15.6,16-30.6,25.5-44.8c8.7-13,18.3-25.4,28.7-37.1c7.7-8.7,15.8-17,24.3-24.9c14.4-13.4,29.9-25.6,46.3-36.6
					C267.1,75.4,336.2,53.1,410,53.1 M410,45.4L410,45.4c-73.1,0-143.8,21.4-204.6,61.8c-16.7,11.1-32.6,23.6-47.3,37.3
					c-8.7,8.1-17,16.6-24.8,25.5c-10.6,12-20.4,24.7-29.3,37.9c-9.8,14.6-18.6,30-26.1,45.8c-4.4,9.2-8.5,18.8-12.1,28.5
					c-15.4,41.5-22.8,85.1-21.8,129.7c1.4,63.3,16.7,120.6,45.6,170.3c28.6,49.1,63.1,78.6,87.1,94.7c42.7,28.6,64.4,32.3,65.3,32.4
					l42.6,6.7l-37.7-21c-1.4-0.8-34.2-19.4-66.1-62.9c-18.7-25.6-33.3-54.5-43.3-86.1c-12.5-39.5-17.9-83.2-16-130
					c0.7-16.6,8.3-33.4,20.9-46c13.4-13.4,31.1-20.8,49.9-20.8c0.8,0,1.6,0,2.4,0c4,0.1,8.1,0.6,12.2,1.4
					c9.6,1.8,19.3,5.5,28.8,10.9c29.2,16.4,59.7,28.9,90.8,37.1c28.3,7.5,56.2,11.3,83,11.3l0.4,0c52.7-0.1,129.1-34.9,202.9-68.6
					l1.8-0.8c8.2-3.7,16.1-5.6,23.5-5.6c11.5,0,21.4,4.6,29.4,13.6c9.1,10.3,15.3,25.7,18.3,45.8c8.1,53.7,6.9,103.2-3.5,147.2
					c-8.3,35-22.4,66.6-42,93.9c-17.4,24.3-36.1,40.7-48.7,50.2c-13.7,10.3-23.3,14.8-23.4,14.9L513.4,726l59.5-11.1
					c21.3-4,46.6-15.8,71.3-33.3c26.8-19,50.8-43.2,69.6-70c20.4-29.1,35.1-52.9,45.3-81.3c11.1-31,16.5-67,16.8-113.4
					c0.7-90.9-32.3-178.7-92.8-247.2c-10.3-11.7-21.5-22.8-33.2-33.1c-9-7.9-18.5-15.5-28.1-22.4c-16.7-12.1-34.6-22.8-53-31.8
					c-24-11.8-49.3-20.9-75.2-27c-26.6-6.3-54.1-9.6-81.7-9.8C411.3,45.4,410.7,45.4,410,45.4L410,45.4z"/>
			</g>
		</g>
		<g>
			<path class="st1" d="M759.9,420.5c-0.7,92.5-24.4,131.1-73.2,185.6c-43.5,48.7-54.8,82.2-92.9,89.4c0,0,141.5-91.9,106.7-323.9
				c-8.5-56.8-69.5-45.9-106.2-29.1c-70,31.9-144.6,66.2-194.2,66.2c-47.7,0.1-106-13-164.1-45.7c-10.3-5.8-20.4-9.5-30-11.3
				c-4.4-0.9-8.7-1.3-13-1.5c-44.1-1.4-76.6,34.7-78.1,71.4c-8.3,201.2,122.8,274.6,124.6,275.6c-0.6-0.1-20.6-3.7-59.9-30.1
				C125.2,630.5,57.9,550,55.1,417.8c-0.9-43,6.4-84.2,20.5-122.2c3.4-9.2,7.2-18.1,11.4-26.9c7.1-15,15.4-29.4,24.6-43.2
				c8.4-12.5,17.6-24.4,27.6-35.7c7.4-8.4,15.2-16.4,23.4-24c13.9-12.9,28.8-24.7,44.6-35.2C263,93.5,330.3,72,402,72.3
				C455,72.6,505.1,85.1,549.9,107c17.5,8.6,34.3,18.7,50,30c9.2,6.6,18,13.7,26.5,21.1c11.1,9.8,21.5,20.2,31.3,31.3
				C712.7,251.8,760.6,331.6,759.9,420.5z"/>
		</g>
		
			<ellipse transform="matrix(0.7264 -0.6873 0.6873 0.7264 62.3164 414.2827)" class="st2" cx="551.5" cy="128.9" rx="26.2" ry="52.1"/>
		<g>
			
				<linearGradient id="SVGID_13_" gradientUnits="userSpaceOnUse" x1="141.0536" y1="-818.1686" x2="1197.0365" y2="-818.1686" gradientTransform="matrix(0.9889 -0.1485 0.1485 0.9889 -33.0435 1162.5525)">
				<stop  offset="0" style="stop-color:#52FFCE"/>
				<stop  offset="0.9948" style="stop-color:#6700E4"/>
			</linearGradient>
			<path class="st17" d="M62.8,318.3l6.6-34.5l0.1-0.3c3.6-9.6,7.6-19.1,11.9-28.2l4-8.3l8.7,24.2L89,302.9l17.4,48.9L90,387.2
				L62.8,318.3z"/>
			<path class="st1" d="M84.9,257l5.2,14.6L85,303.3l17.2,48.4l-11.9,25.7L66.8,318l6.3-33.1C76.6,275.4,80.6,266,84.9,257
				 M85.9,237l-8,16.7c-4.4,9.3-8.5,18.9-12.1,28.5l-0.2,0.6l-0.1,0.6l-6.3,33.1l-0.4,2.2l0.8,2.1l23.5,59.4l6.6,16.7l7.5-16.3
				l11.9-25.7l1.3-2.8l-1-2.9l-16.5-46.5l4.8-29.8l0.3-2l-0.7-1.9l-5.2-14.6L85.9,237L85.9,237z"/>
		</g>
		<g>
			
				<linearGradient id="SVGID_14_" gradientUnits="userSpaceOnUse" x1="-2.9749" y1="-765.4483" x2="1021.2055" y2="-765.4483" gradientTransform="matrix(0.9889 -0.1485 0.1485 0.9889 -33.0435 1162.5525)">
				<stop  offset="0" style="stop-color:#52FFCE"/>
				<stop  offset="0.9948" style="stop-color:#6700E4"/>
			</linearGradient>
			<path class="st18" d="M701.5,313.5l9.6-51l-9.9-30.6l4.9-25.2l5.2,7.6c5.7,8.4,11.1,17.1,16.1,26.1l0.2,0.3l11.8,33.1L723,345.9
				L701.5,313.5z"/>
			<path class="st1" d="M708,216.4c5.7,8.3,11,16.9,15.9,25.8l11.3,31.7l-14.1,62.4l-15.7-23.6l9.5-50.5l-9.9-30.6L708,216.4
				 M704,196.8l-3.5,18.1l-2.9,15.2l-0.4,1.9l0.6,1.9l9.3,28.7l-9.2,48.5l-0.6,3.1l1.7,2.6l15.7,23.6l9.9,15l4-17.6l14.1-62.4
				l0.5-2.2l-0.7-2.1l-11.3-31.7L731,239l-0.3-0.6c-5-9-10.5-17.9-16.3-26.3L704,196.8L704,196.8z"/>
		</g>
		<g>
			
				<linearGradient id="SVGID_15_" gradientUnits="userSpaceOnUse" x1="188.4864" y1="-854.2595" x2="1070.6587" y2="-854.2595" gradientTransform="matrix(0.9889 -0.1485 0.1485 0.9889 -33.0435 1162.5525)">
				<stop  offset="0" style="stop-color:#52FFCE"/>
				<stop  offset="0.9948" style="stop-color:#6700E4"/>
			</linearGradient>
			<path class="st19" d="M540.6,234.3l58.1-65.2L582,147.3l-55.8,8.4L563.7,84l3.4,1.6c18.2,8.9,35.9,19.5,52.4,31.5l3.4,2.4
				l-9.8,11.6l19,17.4l12.7-11.5l2.6,2.3c11.6,10.2,22.6,21.2,32.8,32.8l1.6,1.8l-63,152L540.6,234.3z"/>
			<path class="st1" d="M565.4,89.1c18.2,8.9,35.6,19.4,51.9,31.1l-9.5,11.2l24.3,22.2l12.7-11.5c11.5,10.1,22.4,21,32.5,32.5
				l-59.7,144l-71.9-84.3l58-65.1l-20.1-26.1l-50.5,7.6L565.4,89.1 M562.1,78.9l-3.5,6.6l-32.2,61.6l-7,13.4l15-2.3l46-6.9
				l13.4,17.5L540,229.2l-4.5,5l4.4,5.1l71.9,84.3l8.2,9.6l4.8-11.6l59.7-144l1.8-4.4l-3.2-3.6c-10.3-11.7-21.5-22.8-33.2-33.1
				l-5.1-4.5l-5.1,4.6l-7.6,6.8l-13.7-12.5l4.7-5.6l5.4-6.3l-6.8-4.9c-16.7-12.1-34.6-22.8-53-31.8L562.1,78.9L562.1,78.9z"/>
		</g>
		<g>
			
				<linearGradient id="SVGID_16_" gradientUnits="userSpaceOnUse" x1="228.9585" y1="-888.2032" x2="1106.853" y2="-888.2032" gradientTransform="matrix(0.9889 -0.1485 0.1485 0.9889 -33.0435 1162.5525)">
				<stop  offset="0" style="stop-color:#52FFCE"/>
				<stop  offset="0.9948" style="stop-color:#6700E4"/>
			</linearGradient>
			<path class="st20" d="M192.8,345.1l-87-133l1.4-2.1c8.7-13,18.5-25.6,29-37.5l2.1-2.4l10.8,6.6l15.5-20.6l-7.1-5.7l3.2-3
				c14.6-13.6,30.3-26,46.8-37l3-2l44,55.7l-56.3,2.1l-12.4,24.5l68.9,53.1l-43.7,103.4L192.8,345.1z"/>
			<path class="st1" d="M209.7,113.6l37.1,46.9l-51,1.9l-14.9,29.4l69.1,53.2l-41.4,98l-13.4-1.5l-84.6-129.3
				c8.7-13,18.3-25.4,28.7-37.1l11,6.7l19.8-26.4l-6.5-5.3C177.7,136.8,193.2,124.5,209.7,113.6 M211.3,103.3l-5.9,3.9
				c-16.7,11.1-32.6,23.6-47.3,37.3l-6.5,6l6.9,5.6l0.8,0.6l-11.1,14.8l-5.1-3.1l-5.5-3.4l-4.3,4.8c-10.6,12-20.4,24.7-29.3,37.9
				l-2.8,4.2l2.8,4.3l84.6,129.3l2,3l3.6,0.4l13.4,1.5l5.7,0.6l2.2-5.3l41.4-98l2.3-5.5l-4.7-3.6l-64-49.3l9.9-19.7l46.5-1.7
				l15.1-0.6l-9.4-11.9l-37.1-46.9L211.3,103.3L211.3,103.3z"/>
		</g>
		<path class="st21" d="M180.6,307.2c0,0,84.2-105.8,120.2-113.1c36-7.2,165-25.7,218.7-9.6c42.5,12.7,117,74.7,134.6,115.8
			c0,0-124.3,82.9-268.9,82.4S180.6,307.2,180.6,307.2z"/>
		<polygon class="st2" points="468.7,265 571.9,212.8 575.4,236.3 		"/>
		
			<linearGradient id="SVGID_17_" gradientUnits="userSpaceOnUse" x1="362.1311" y1="-796.1982" x2="783.7298" y2="-796.1982" gradientTransform="matrix(0.9889 -0.1485 0.1485 0.9889 -33.0435 1162.5525)">
			<stop  offset="0" style="stop-color:#52FFCE"/>
			<stop  offset="0.9948" style="stop-color:#6700E4"/>
		</linearGradient>
		<path class="st22" d="M205.8,314.7c0,0,75.6-95.1,108-101.6c32.4-6.5,148.2-23.1,196.5-8.7c38.2,11.4,105.1,67.1,120.9,104.1
			c0,0-111.7,74.5-241.6,74C259.7,382.1,205.8,314.7,205.8,314.7z"/>
		<polygon class="st2" points="468.7,265 571.9,212.8 575.4,236.3 		"/>
		<path class="st16" d="M260.2,220.6l158.6,69.9l153.1-77.7c-18.8-13.4-37.5-23.9-52.4-28.3c-53.7-16-182.7,2.4-218.7,9.6
			C290.3,196.2,275.6,206.8,260.2,220.6L260.2,220.6z"/>
		<polygon class="st21" points="335,253.6 348.2,216.6 420.2,250.4 493.6,212.1 512.6,242.2 446.9,276.2 451.8,369.8 394.9,372.2 
			399.5,282 		"/>
		<g>
			<path class="st1" d="M568.1,707.8c16.9-3.1,37.1-11.6,57.7-24.5c48.8-39.3,122.4-125.8,96-301.5c-9.3-61.7-47-84.9-89-66.4
				c-79.9,35.3-162.8,72.8-219.2,73.3c-54.3,0.4-120.5-13.4-186.4-48.5c-72.9-38.9-124.8,26.6-127.4,78.8
				c-7.5,150.4,49.2,220.7,93.1,259.2c37.9,23.7,56.9,26.5,56.9,26.5s-133.4-69.5-123.6-264.8c2.3-46.2,57.8-91.7,122.3-57.3
				c58.3,31.1,116.9,43.3,164.9,42.9c50-0.4,125.3-33.9,195.9-65.1c37.1-16.4,71,0.2,79.2,54.9C722,638.6,568.1,707.8,568.1,707.8z"
				/>
		</g>
		<path class="st2" d="M519.3,348.6l62.4-26.8c0,0,62.4,202,45.9,310.7c0,0-22,13.8-42,22.2C585.6,654.6,584.8,453,519.3,348.6z"/>
		<path class="st2" d="M606.9,321.5c0,0,51.7,135.8,51.9,285.5l23.5-27.9c0,0-4.4-219.4-63.6-270.7L606.9,321.5z"/>
		<g>
			<path class="st2" d="M569.9,703.8c0,0,5-2.4,12.8-7.4c7.7-5,19.5-13.5,32.5-26.1c9.1-8.8,17.7-18.6,25.4-28.9
				c5.9-7.9,11.5-16.3,16.4-25c3.6-6.2,7-12.8,10.1-19.4c24-51.2,32.6-111.9,25.5-180.4c-0.8-7.6-1.8-15.4-2.9-23
				c-6-39.8-24.8-62.7-51.5-62.7c-6.3,0-12.9,1.3-19.7,3.8c-1.7,0.6-3.5,1.4-5.4,2.2c-4.1,1.9-8.2,3.7-12.3,5.6l-1.3,0.6
				c-9,4.1-18.7,8.5-28.3,12.8c-13.1,5.8-24.5,10.8-34.9,15.1c-57.8,24.2-96.8,35-126.4,35l-0.4,0c-55.9,0-116.9-17-171.8-47.9
				c-15.2-8.5-30.4-12.8-45.3-12.8c-19.8,0-38.5,7.8-52.6,21.9c-13.3,13.3-21.3,31-22,48.5c-1.9,47.2,3.5,91.4,16.1,131.3
				c10.1,32,24.9,61.3,43.9,87.2c32.5,44.3,65.9,63.2,67.4,64l19.2,10.7l-21.7-3.5c-0.8-0.1-20.8-3.6-60.3-29.5l-0.3-0.2l-0.2-0.2
				c-30.5-28.1-53.2-59.5-69.4-96.2C89.8,527.9,79.9,465,82.9,392.6c2-48.6,38.5-100.7,89.5-100.7c15.3,0,31.1,4.5,47,13.5
				c60.9,34.2,128.4,53.1,190.2,53.1l0.4,0c28.6,0,66.1-9.7,118.1-30.5c10.7-4.3,22.1-9,34.8-14.5c8.4-3.6,17.4-7.6,28.3-12.5
				c6.1-2.8,12.3-5.6,18.5-8.4c0,0,20-9.1,24.3-11.1c10-4.5,19.8-6.8,29.3-6.8c35.1,0,60.6,30.6,68.3,81.9
				c15.1,100.3,3.1,185.4-35.7,253c-8.2,14.2-17.6,27.8-28.1,40.3c-5.5,6.6-11.6,13.1-17.9,19.3c-5.3,5.2-10.8,10.2-16.4,14.9
				l-0.2,0.2l-0.2,0.1c-3.7,2.4-7.4,4.7-10.9,6.7c-12.2,7.1-24.2,12.5-35.4,16.1c-5,1.6-9.9,2.9-14.4,3.7l-30,5.6L569.9,703.8z"/>
			<g>
				<path class="st1" d="M663.2,278.5c31.3,0,56.7,26.8,64.5,78.7c17.5,116.5-4.3,196.5-35.2,250.5c-8.7,15.2-18.2,28.4-27.7,39.8
					c-5.9,7-11.8,13.4-17.6,19.1c-5.6,5.5-11,10.4-16.2,14.7c-3.6,2.3-7.2,4.5-10.8,6.6c-12.1,7-23.8,12.3-34.7,15.8
					c-4.8,1.6-9.5,2.8-13.9,3.6c0,0,5.1-2.4,13.3-7.7c8.5-5.5,20.3-14.1,33.1-26.5c8.4-8.1,17.2-17.8,25.8-29.3
					c5.7-7.6,11.3-16.1,16.7-25.3c3.6-6.2,7-12.8,10.3-19.7c20.6-44,34-103.5,25.9-182.5c-0.8-7.6-1.8-15.3-3-23.2
					c-6.7-44.7-28.5-66-55.3-66c-6.7,0-13.8,1.3-21,4c-1.9,0.7-3.8,1.5-5.7,2.3c-4.5,2.1-9,4.1-13.6,6.2
					c-9.4,4.3-18.8,8.6-28.3,12.8c-11.7,5.2-23.3,10.3-34.8,15.1c-47,19.6-91.4,34.7-124.9,34.7c-0.1,0-0.2,0-0.4,0
					c-49.5,0-109.8-13.6-169.9-47.4c-16.6-9.3-32.5-13.3-47.2-13.3c-44.4,0-76.9,36.8-78.5,74.2c-8.6,208.8,127.5,285,129.3,286
					c-0.6-0.1-20.2-3.6-58.8-29C139,630.9,80,554.7,86.7,392.8c1.8-44.2,34.9-97,85.6-97c13.8,0,29,3.9,45.1,13
					c68,38.2,136.1,53.6,192.1,53.6c0.1,0,0.3,0,0.4,0c33,0,74.7-12.9,119.6-30.8c11.4-4.6,23.1-9.5,34.9-14.6
					c9.4-4.1,18.8-8.3,28.3-12.5c6.4-2.9,12.8-5.8,19.2-8.7c7.9-3.6,15.7-7.2,23.6-10.8C645,280.7,654.3,278.5,663.2,278.5
					 M663.2,270.9v7.7V270.9c-10.1,0-20.5,2.4-30.9,7.2c-4.2,1.9-8.5,3.9-12.7,5.8c-3.6,1.7-7.2,3.3-10.9,5l-0.3,0.1
					c-6.3,2.9-12.6,5.7-18.8,8.5c-10.9,4.9-19.9,8.9-28.2,12.5c-12.7,5.5-24,10.2-34.7,14.5c-51.6,20.6-88.6,30.2-116.7,30.2l-0.4,0
					c-61.1,0-128-18.7-188.3-52.6c-16.5-9.3-33-14-48.9-14c-25.5,0-49.4,12.4-67.2,34.8C89.8,342.4,80,368.3,79,392.5
					c-1.6,38.7,0.5,75,6.2,107.8c5,29.1,13.1,56.2,23.8,80.6c16.4,37.1,39.3,69,70.3,97.4l0.5,0.4l0.5,0.3
					c40.2,26.4,60.9,30,61.8,30.1l43.3,7L247,694.9c-1.4-0.8-34.1-19.3-66.1-62.9c-18.7-25.6-33.3-54.5-43.3-86.1
					c-12.5-39.5-17.9-83.2-16-130c0.7-16.6,8.3-33.4,20.9-46c13.4-13.4,31.1-20.8,49.9-20.8c14.3,0,28.9,4.2,43.4,12.3
					c29.2,16.4,59.7,28.9,90.8,37.1c28.3,7.5,56.2,11.3,82.9,11.3l0.4,0c30.1,0,69.5-10.9,127.9-35.3c10.4-4.4,21.9-9.3,35-15.1
					c9.6-4.3,19.3-8.7,28.3-12.8l0.7-0.3c4.3-2,8.6-3.9,12.9-5.9c1.8-0.8,3.5-1.5,5.1-2.1c6.4-2.3,12.6-3.5,18.4-3.5
					c11.5,0,21.4,4.6,29.4,13.6c9.1,10.3,15.3,25.7,18.3,45.8c1.1,7.6,2.1,15.3,2.9,22.9c7,67.8-1.5,127.8-25.2,178.4
					c-3.1,6.6-6.4,13-10,19.1c-4.9,8.5-10.3,16.8-16.2,24.6c-7.6,10.1-16,19.7-25,28.4c-12.7,12.3-24.4,20.7-31.9,25.6
					c-7.5,4.9-12.3,7.1-12.4,7.1l-54.5,25.6l59.2-11.1c4.7-0.9,9.7-2.2,14.8-3.8c11.5-3.7,23.7-9.3,36.2-16.5
					c3.6-2.1,7.3-4.4,11.1-6.8l0.4-0.3l0.4-0.3c5.7-4.8,11.3-9.9,16.7-15.1c6.4-6.3,12.5-12.9,18.1-19.6
					c10.6-12.7,20.2-26.4,28.5-40.9c39.2-68.3,51.4-154.3,36.2-255.5c-4-26.6-12.5-47.7-25.2-62.6
					C697.5,278.7,681.2,270.9,663.2,270.9L663.2,270.9z"/>
			</g>
		</g>
		
			<linearGradient id="SVGID_18_" gradientUnits="userSpaceOnUse" x1="487.4953" y1="-935.4058" x2="667.111" y2="-935.4058" gradientTransform="matrix(0.9889 -0.1485 0.1485 0.9889 -33.0435 1162.5525)">
			<stop  offset="0" style="stop-color:#52FFCE"/>
			<stop  offset="0.9948" style="stop-color:#6700E4"/>
		</linearGradient>
		<path class="st23" d="M325.7,169.9c0,0,71-19.3,150.8-15.5c0,0,22.8-1.2,7-15.4c-17.4-15.6-142.4,6-161,13.9
			C303.9,160.8,307.6,175.4,325.7,169.9z"/>
		
			<linearGradient id="SVGID_19_" gradientUnits="userSpaceOnUse" x1="471.5059" y1="-983.222" x2="679.7192" y2="-983.222" gradientTransform="matrix(0.9889 -0.1485 0.1485 0.9889 -33.0435 1162.5525)">
			<stop  offset="0" style="stop-color:#52FFCE"/>
			<stop  offset="0.9948" style="stop-color:#6700E4"/>
		</linearGradient>
		<path class="st24" d="M305.1,125.2c0,0,82.5-21.5,174.6-20c0,0,26.4-1.9,8.5-15.7c-19.7-15.2-164.6,10.1-186.2,18.6
			C280.3,116.7,284.1,131.4,305.1,125.2z"/>
		<g>
			
				<linearGradient id="SVGID_20_" gradientUnits="userSpaceOnUse" x1="431.9182" y1="-380.2063" x2="558.074" y2="-380.2063" gradientTransform="matrix(0.9889 -0.1485 0.1485 0.9889 -33.0435 1162.5525)">
				<stop  offset="0" style="stop-color:#52FFCE"/>
				<stop  offset="0.9948" style="stop-color:#6700E4"/>
			</linearGradient>
			<path class="st25" d="M407.3,732.5c-21.2,0-42.1-1.2-62.3-3.6l-6.6-0.8l3.9-5.3c0.8-1.1,1.7-2.3,2.6-3.6
				c5.5-7.4,14.7-19.9,15.5-23.3l0.7-3.2l3.3,0.2c0.3,0,32,2,56.8,2c7.4,0,13.5-0.2,18.1-0.5l2.5-0.2l1.2,2.2
				c0.1,0.1,7.4,13.9,18.4,27.1l4.6,5.6l-7.2,0.7c-17.1,1.7-34.3,2.5-51.1,2.6H407.3z"/>
			<g>
				<path class="st1" d="M364.3,696.8c0,0,31.8,2,57,2c6.9,0,13.3-0.2,18.4-0.5c0,0,7.4,14,18.9,27.8c-15.8,1.6-32.8,2.5-50.8,2.5
					c-0.2,0-0.4,0-0.6,0c-22.4,0-43.1-1.3-61.8-3.6C352.4,715.6,363.2,701.5,364.3,696.8 M358.3,688.7l-1.5,6.3
					c-1.1,3.4-10.4,15.9-14.9,22c-0.9,1.2-1.8,2.5-2.6,3.6l-7.8,10.6l13.1,1.5c20.3,2.4,41.4,3.6,62.7,3.6l0.6,0
					c17,0,34.3-0.9,51.5-2.6l14.4-1.4l-9.3-11.2c-10.8-13-17.9-26.3-18-26.5l-2.4-4.5l-5,0.4c-4.5,0.3-10.5,0.5-17.8,0.5
					c-24.7,0-56.2-2-56.5-2L358.3,688.7L358.3,688.7z"/>
			</g>
		</g>
		<g>
			<g>
				<path class="st1" d="M409.9,362.4c-11,0-22.5-0.6-34.4-1.8c0.3,12.9-6.2,27.3-4.6,40.3c10.3,1.1,28.1,1.2,37.7,1.3
					c0.3-13.1,1.3-27.1,2.4-39.7C410.7,362.4,410.3,362.4,409.9,362.4z"/>
			</g>
			<g>
				<path class="st1" d="M355.8,355.7c-39.4-7.9-96.1-23.1-138.3-46.9C142,266.4,89,336.6,86.7,392.8c-1.6,39.5,0.7,73.9,5.7,104
					c10.7,8.2,21.1,16.2,30.1,22.7c-6.7-30.2-10.2-64.7-8.6-103.9c2.1-49.8,58.9-98.4,125.7-60.8c31.8,17.9,75.3,36.9,105.6,44.4
					C346.8,383.1,352.3,364.6,355.8,355.7z"/>
			</g>
		</g>
		<path class="st1" d="M727.7,357.2c17.5,116.5-4.3,196.5-35.2,250.5l-21.8-9c20.6-44,34-103.5,25.9-182.5L727.7,357.2z"/>
	</g>
	<polygon class="st1" points="722,319.3 695.6,387 727.8,342.5 	"/>
	<g>
		<path class="st2" d="M305.2,1249.6c-0.3,0-0.5,0-0.8-0.1c-0.5-0.1-12.2-2.7-14.8-12.7c-2.5-9.7,4.5-21.5,21.3-36.1
			c16.7-14.5,41.4-21.9,73.3-21.9c58.8,0,121.6,24.5,124.3,25.6c1.8,0.7,2.8,2.6,2.3,4.4c-1.4,6.4-11.9,11.4-36.3,17
			c-17,4-40.4,8-69.5,12.1c-49.5,6.9-99,11.6-99.5,11.6C305.5,1249.6,305.3,1249.6,305.2,1249.6z"/>
		<path class="st1" d="M384.2,1182.7c58.7,0,122.9,25.3,122.9,25.3c-4.3,19.5-201.9,37.8-201.9,37.8s-32.4-6.9,8.3-42.2
			C331.4,1188,357.3,1182.7,384.2,1182.7 M384.2,1175c-32.9,0-58.4,7.7-75.8,22.8c-18.1,15.7-25.4,28.7-22.5,40
			c3.1,12.1,16.2,15.2,17.7,15.5c0.5,0.1,1.1,0.2,1.6,0.2c0.2,0,0.5,0,0.7,0c0.5,0,50.1-4.7,99.7-11.6c29.2-4.1,52.7-8.2,69.9-12.2
			c26.7-6.2,37.3-11.6,39.1-19.9c0.8-3.7-1.2-7.4-4.7-8.8C507.3,1199.8,443.7,1175,384.2,1175L384.2,1175z"/>
	</g>
	<g>
		<path class="st1" d="M459.4,1182.2c0,0-57,26.2-94.5,29.1l2.8,13c0,0,75-10.9,93.7-23.3c0,0,17.8,11.4-92.6,33.7
			c0,0,88.2-5.6,117.8-36.4L459.4,1182.2z"/>
	</g>
	<g>
		
			<linearGradient id="SVGID_21_" gradientUnits="userSpaceOnUse" x1="309.5913" y1="118.7917" x2="451.0737" y2="118.7917" gradientTransform="matrix(0.9889 -0.1485 0.1485 0.9889 -33.0435 1162.5525)">
			<stop  offset="0" style="stop-color:#52FFCE"/>
			<stop  offset="0.9948" style="stop-color:#6700E4"/>
		</linearGradient>
		<path class="st26" d="M304.4,1249.5c-0.6-0.1-6.5-1.5-10.7-5.8l-1.7-1.7l0.8-2.3c1.9-5.3,5.6-11.3,11.2-17.8
			c9.4-10.9,23.3-16.4,41.2-16.4c30.5,0,64.7,15.9,78,22.7l10.6,5.4l-11.8,1.8c-54.5,8.3-115.8,14-116.4,14.1l-0.6,0.1L304.4,1249.5
			z"/>
		<path class="st1" d="M345.2,1209.4c29.8,0,63.9,15.9,76.2,22.3c-55,8.4-116.2,14.1-116.2,14.1s-5.2-1.1-8.8-4.7
			c1.5-4.4,4.7-9.9,10.5-16.5C316.5,1213.4,330.3,1209.4,345.2,1209.4 M345.2,1201.7v7.7V1201.7c-19.1,0-34,6-44.1,17.7
			c-6,6.9-9.9,13.2-11.9,19l-1.6,4.6l3.4,3.4c5.1,5.1,11.9,6.6,12.7,6.8l1.1,0.2l1.2-0.1c0.6-0.1,62.1-5.8,116.7-14.1l23.5-3.6
			l-21.2-10.9C411.4,1217.9,376.5,1201.7,345.2,1201.7L345.2,1201.7z"/>
	</g>
	<g>
		<path class="st2" d="M759,1185.5c-18,0-23.6-2.6-26.2-4.5c-0.9-0.7-1.4-1.7-1.5-2.7c-0.1-1.1,0.3-2.2,1-3
			c0.6-0.7,15.6-16.4,41.9-32.6c24.2-14.9,63-32.8,109.8-33.6c1.1,0,2.2,0,3.2,0c34.9,0,49.8,9.3,56.1,17.1c4.3,5.3,6,11.6,4.7,17.6
			c-0.3,1.6-0.9,3.1-1.6,4.6c-1,1.9-3,6-33,13.8c-17.4,4.6-40,9.3-63.7,13.4C813,1181.9,779.9,1185.5,759,1185.5z"/>
		<path class="st1" d="M887.2,1112.9c47.3,0,59.6,17.6,57,30.1c-0.3,1.3-0.7,2.5-1.3,3.7c-3,6.1-47,17.1-93.9,25.1
			c-33,5.7-67.4,9.9-90.1,9.9c-11.8,0-20.3-1.1-23.9-3.8c0,0,60-63.5,148.9-64.9C885.1,1112.9,886.2,1112.9,887.2,1112.9
			 M887.2,1105.2v7.7V1105.2c-1.1,0-2.2,0-3.3,0c-21.1,0.3-42.3,4.1-63.2,11.2c-16.6,5.6-32.9,13.4-48.6,23
			c-26.7,16.4-42,32.5-42.7,33.2c-1.5,1.6-2.3,3.8-2.1,5.9c0.2,2.2,1.3,4.2,3,5.5c3.3,2.5,9.5,5.3,28.5,5.3c21.1,0,54.5-3.6,91.4-10
			c23.8-4.1,46.6-8.8,64-13.4c9.1-2.4,16.5-4.7,21.9-6.7c8-3,11.7-5.6,13.5-9.1c0.9-1.8,1.5-3.6,1.9-5.5c1.5-7.2-0.4-14.6-5.4-20.8
			C939.4,1115.3,923.6,1105.2,887.2,1105.2L887.2,1105.2z"/>
	</g>
	<g>
		<path class="st1" d="M765.3,1141c0,0,61.7,10.9,98.8,4.2l0.6,13.3c0,0-75.3,8.4-96.6,1.2c0,0-14.3,15.5,98.1,9.1
			c0,0-86.8,16.9-123.2-5.4L765.3,1141z"/>
	</g>
	<g>
		<path class="st2" d="M420.1,942.3c-14.6,0-28.9-5.3-40.1-14.8c-11.3-9.7-18.8-23.1-21-37.8c-2.5-16.3,1.6-32.6,11.4-45.9
			s24.2-21.9,40.5-24.4c3.1-0.5,6.2-0.7,9.2-0.7c14.6,0,28.9,5.3,40.1,14.8c11.3,9.7,18.8,23.1,21,37.8
			c5.1,33.7-18.2,65.2-51.9,70.3C426.3,942,423.2,942.3,420.1,942.3z"/>
		<path class="st1" d="M420.2,822.5c28.2,0,52.9,20.6,57.2,49.4c4.8,31.7-17.1,61.2-48.7,65.9c-2.9,0.4-5.8,0.7-8.7,0.7
			c-28.2,0-52.9-20.6-57.2-49.4c-4.8-31.7,17.1-61.2,48.7-65.9C414.5,822.7,417.4,822.5,420.2,822.5 M420.3,814.8v7.7V814.8
			c-3.3,0-6.6,0.2-9.8,0.7c-35.8,5.4-60.5,38.9-55.2,74.7c2.3,15.6,10.3,29.9,22.3,40.2c11.9,10.2,27,15.7,42.6,15.7
			c3.3,0,6.6-0.2,9.8-0.7c17.3-2.6,32.6-11.8,43-25.9c10.4-14.1,14.7-31.4,12.1-48.8c-2.3-15.6-10.3-29.9-22.3-40.2
			C450.9,820.4,435.8,814.8,420.3,814.8L420.3,814.8z"/>
	</g>
	<g>
		<path class="st2" d="M546.9,986c-0.7,0-1.3-0.2-1.9-0.5c-1-0.6-1.7-1.5-1.9-2.6c-5.2-27.1,13.7-76,14.5-78c0.4-1,1.2-1.8,2.3-2.2
			l86.9-31.7c0.4-0.2,0.9-0.2,1.3-0.2c1,0,2,0.4,2.7,1.1l1.2,1.2c0.5,0.6,0.9,1.3,1.1,2l9.3,52.5l15.5,13.8c1.1,1,1.5,2.4,1.2,3.8
			c-0.4,1.4-1.5,2.5-2.9,2.8c-58,13-127.4,37.5-128.1,37.7C547.7,986,547.3,986,546.9,986z"/>
		<path class="st1" d="M648.1,874.6l1.2,1.2l9.6,53.8l16.5,14.7c-58.9,13.2-128.5,37.9-128.5,37.9c-5-26.4,14.3-75.9,14.3-75.9
			L648.1,874.6 M648.1,866.9c-0.9,0-1.8,0.2-2.6,0.5L558.5,899c-2.1,0.8-3.7,2.4-4.5,4.4c-0.8,2.1-20.1,52-14.7,80.2
			c0.4,2.2,1.8,4.1,3.7,5.2c1.2,0.7,2.5,1,3.8,1c0.9,0,1.7-0.1,2.6-0.4c0.7-0.2,69.8-24.6,127.6-37.6c2.8-0.6,5-2.8,5.8-5.6
			c0.7-2.8-0.2-5.8-2.3-7.7L666,925.7l-9.1-51.2c-0.3-1.5-1-3-2.1-4.1l-1.2-1.2C652.1,867.7,650.1,866.9,648.1,866.9L648.1,866.9z"
			/>
	</g>
	<g>
		<path class="st2" d="M327.3,1003.5c-0.3,0-0.7,0-1-0.1l-136.6-37.2c-1.6-0.4-2.8-1.9-2.8-3.6c-0.9-26.6,0.4-51.8,4.4-87
			c0.1-1.2,0.8-2.3,1.9-2.9c0.6-0.3,1.3-0.5,1.9-0.5c0.5,0,1,0.1,1.5,0.3c7.7,3.3,17.1,7.2,27.1,11.4c35.1,14.6,74.8,31.2,86.2,39.1
			c0.6,0.4,1.1,1.1,1.4,1.8c0.8,2.2,20.3,53.9,19.9,75c0,1.2-0.6,2.3-1.5,3C328.9,1003.2,328.1,1003.5,327.3,1003.5z"/>
		<path class="st1" d="M195.1,876c33.9,14.5,98.2,40.2,112.6,50.1c0,0,20.1,53,19.6,73.5l-136.6-37.2
			C189.7,933.7,191.4,907.9,195.1,876 M195.1,868.3c-1.3,0-2.7,0.3-3.9,1c-2.1,1.2-3.5,3.4-3.8,5.8c-4.1,35.4-5.3,60.8-4.4,87.6
			c0.1,3.4,2.4,6.3,5.7,7.2l136.6,37.2c0.7,0.2,1.3,0.3,2,0.3c1.6,0,3.3-0.5,4.6-1.5c1.9-1.4,3-3.6,3.1-6
			c0.4-21.4-18-70.8-20.1-76.4c-0.5-1.5-1.5-2.7-2.8-3.6c-11.7-8.2-51.7-24.8-86.9-39.5c-9.9-4.1-19.3-8-27-11.4
			C197.2,868.5,196.1,868.3,195.1,868.3L195.1,868.3z"/>
	</g>
	<g>
		
			<linearGradient id="SVGID_22_" gradientUnits="userSpaceOnUse" x1="314.6924" y1="11.4174" x2="940.0519" y2="11.4174" gradientTransform="matrix(0.9889 -0.1485 0.1485 0.9889 -33.0435 1162.5525)">
			<stop  offset="0" style="stop-color:#52FFCE"/>
			<stop  offset="0.9948" style="stop-color:#6700E4"/>
		</linearGradient>
		<path class="st27" d="M316,1155.9c-17.1,0-36.5-7.8-57.6-23.2l-0.4-0.3l-0.3-0.4c-0.2-0.3-5-6.6-2.5-15.1
			c2.6-9.2,12.3-17,28.7-23.2c10.4-3.9,22.9-6,36.2-6c21.6,0,47.6,5.9,53.9,18.8c1.7,3.5,2.6,9-2.4,15.4
			C361.4,1134.5,344.6,1155.9,316,1155.9z"/>
		<path class="st1" d="M320,1091.5c31.6,0,60.9,12.2,48.4,27.9c-10.9,13.8-26.5,32.6-52.5,32.6c-14.7,0-32.8-6-55.3-22.5
			c0,0-13.8-17.9,24.5-32.3C295.7,1093.3,308,1091.5,320,1091.5 M320,1083.8v7.7V1083.8c-13.8,0-26.8,2.1-37.6,6.2
			c-17.6,6.7-28.1,15.3-31,25.7c-2.9,10.2,2.6,17.7,3.2,18.5l0.7,0.9l0.9,0.6c22.1,16.1,41.6,24,59.8,24c30.5,0,48-22.2,58.5-35.5
			c6.6-8.4,4.6-15.8,2.9-19.4C370.3,1090.3,343.5,1083.8,320,1083.8L320,1083.8z"/>
	</g>
	<path class="st1" d="M265.5,1108.1c0,0,24-7.9,32.1-0.1c0,0-16.9,9.6-4.7,18.6c12.3,9,42.2,4.1,42.2,4.1s8.6,7.5,3.5,15.9
		c0,0,34.6-19.8,22.7-34.7C349.4,1096.9,293.6,1088.4,265.5,1108.1z"/>
	<path class="st2" d="M285.2,1097.2c-9.3,3.5-15.6,7.2-19.7,10.9c2.6-1.3,5.5-2.6,8.9-3.9c38.3-14.4,100.4,0.5,83.3,22.2
		c-5.1,6.5-11.2,14-18.9,20.2c13.1-6.6,22.4-18,29.7-27.2C385.6,1097.7,323.4,1082.8,285.2,1097.2z"/>
	<g>
		
			<linearGradient id="SVGID_23_" gradientUnits="userSpaceOnUse" x1="285.471" y1="-17.4139" x2="913.4055" y2="-17.4139" gradientTransform="matrix(0.9889 -0.1485 0.1485 0.9889 -33.0435 1162.5525)">
			<stop  offset="0" style="stop-color:#52FFCE"/>
			<stop  offset="0.9948" style="stop-color:#6700E4"/>
		</linearGradient>
		<path class="st28" d="M694.2,1068.9c-11.7,0-22.7-1.9-30.4-5.1c-7-3-10.3-8.5-9.4-15.4c2.5-19.9,38.7-46.8,69-51.4
			c4.6-0.7,8.9-1,12.7-1c10.8,0,18.7,2.7,23.5,8.2c4.9,5.5,4.6,11.9,4.5,13.2C763,1055.4,725.8,1068.9,694.2,1068.9
			C694.2,1068.9,694.2,1068.9,694.2,1068.9z"/>
		<path class="st1" d="M736.1,999.7c26.3,0,24.2,17.3,24.2,17.3c-1,36-36.8,48-66.1,48c-11.4,0-21.9-1.8-28.9-4.8
			c-25-10.6,19.6-53.6,58.7-59.5C728.6,1000,732.6,999.7,736.1,999.7 M736.1,992c-4,0-8.5,0.4-13.3,1.1
			c-15.2,2.3-32.3,9.9-46.9,20.9c-7,5.3-23.5,19.2-25.4,33.8c-1.1,8.7,3.2,15.8,11.7,19.5c8.1,3.5,19.8,5.4,31.9,5.4
			c18,0,34.9-4.1,47.6-11.6c16.6-9.8,25.6-24.9,26.2-43.7c0.2-2.1,0.2-9.5-5.5-16C757,995.2,748.1,992,736.1,992L736.1,992z"/>
	</g>
	<g>
		<path class="st1" d="M658.5,1047.2c0,0,25.5-18.9,41.8-14.2c0,0-0.6,13.6,23,10.9c23.5-2.6,28.3-22.6,30.6-4.6
			c0,0,17.1-38.6-18.3-36.2C684.7,1006.6,658.5,1047.2,658.5,1047.2z"/>
	</g>
	<path class="st2" d="M724,1000.7c-29.3,4.4-61.6,29.7-65.5,46.5c10.5-15.7,36.9-33.8,61.3-37.4c39.1-5.9,36.3,16.3,36.3,16.3
		c-0.1,4.9-0.9,9.3-2.2,13.3c3.8-6.1,6.2-13.5,6.5-22.4C760.3,1017,763.1,994.8,724,1000.7z"/>
	<g>
		
			<linearGradient id="SVGID_24_" gradientUnits="userSpaceOnUse" x1="866.2749" y1="120.855" x2="973.5623" y2="120.855" gradientTransform="matrix(0.9889 -0.1485 0.1485 0.9889 -33.0435 1162.5525)">
			<stop  offset="0" style="stop-color:#52FFCE"/>
			<stop  offset="0.9948" style="stop-color:#6700E4"/>
		</linearGradient>
		<path class="st29" d="M845.2,1171.7c0.7-18,8.9-41.1,44.5-48.8c5.6-1.2,11-1.8,16.1-1.8c17,0,30.9,6.6,41.4,19.5l1.1,1.4l-0.4,1.8
			c-0.3,1.6-0.9,3.1-1.6,4.6c-1,1.9-3,6-33,13.8c-17.4,4.6-40,9.3-63.7,13.4l-4.7,0.8L845.2,1171.7z"/>
		<g>
			<path class="st1" d="M905.8,1124.9c18.2,0,30.3,8.2,38.4,18.1c-0.3,1.3-0.7,2.5-1.3,3.7c-3,6.1-47,17.1-93.9,25.1
				c0.6-17.4,8.8-38.1,41.5-45.2C896,1125.4,901.1,1124.9,905.8,1124.9 M905.8,1117.2v7.7V1117.2L905.8,1117.2
				c-5.4,0-11.1,0.6-16.9,1.9c-16.6,3.6-29.2,10.9-37.3,21.6c-6.4,8.5-9.8,18.8-10.3,30.8l-0.3,9.5l9.3-1.6
				c23.8-4.1,46.6-8.8,64.1-13.4c29.3-7.7,33.5-11.9,35.4-15.9c0.9-1.8,1.5-3.6,1.9-5.5l0.7-3.6l-2.3-2.8
				C939.1,1124.4,923.7,1117.2,905.8,1117.2L905.8,1117.2z"/>
		</g>
	</g>
	<g>
		<g>
			<g>
				<path class="st2" d="M779.3,383.6c-0.8,0-1.7-0.3-2.4-0.8l-17.5-13.6c-1.5-1.2-1.9-3.3-1-4.9l32.7-57.7c0.6-1,1.6-1.7,2.7-1.9
					c0.2,0,0.4-0.1,0.6-0.1c0.9,0,1.9,0.3,2.6,1l14,12.5c1.3,1.2,1.7,3,0.9,4.6l-29.1,58.8c-0.5,1-1.5,1.8-2.6,2
					C779.9,383.5,779.6,383.6,779.3,383.6z"/>
				<path class="st1" d="M794.5,308.4l14,12.5l-29.1,58.8l-17.5-13.6L794.5,308.4 M794.5,300.7c-0.4,0-0.8,0-1.2,0.1
					c-2.3,0.4-4.3,1.8-5.4,3.8l-32.7,57.7c-1.9,3.3-1,7.5,2,9.9l17.5,13.6c1.4,1.1,3,1.6,4.7,1.6c0.6,0,1.1-0.1,1.7-0.2
					c2.3-0.5,4.2-2,5.2-4.1l29.1-58.8c1.5-3.1,0.8-6.8-1.8-9.1l-14-12.5C798.2,301.4,796.3,300.7,794.5,300.7L794.5,300.7z"/>
			</g>
			<g>
				
					<linearGradient id="SVGID_25_" gradientUnits="userSpaceOnUse" x1="-1232.9005" y1="-713.3396" x2="-891.2837" y2="-1084.6622" gradientTransform="matrix(0.6967 -0.1325 0.1208 0.9904 1643.7546 1070.9358)">
					<stop  offset="0" style="stop-color:#52FFCE"/>
					<stop  offset="0.9948" style="stop-color:#6700E4"/>
				</linearGradient>
				<path class="st30" d="M757.3,553.7c-1,0-2-0.6-2.5-1.5l-40.9-75.7c-0.4-0.7-0.4-1.5-0.2-2.2l31-100.8l-10.7-9.3l-9.5-7.3
					c-1-0.8-1.4-2.1-0.9-3.3l82.6-211.1c0.3-0.8,0.9-1.4,1.7-1.7c0.3-0.1,0.6-0.2,1-0.2c0.5,0,1,0.1,1.4,0.4l12,6.7
					c1.1,0.6,1.6,1.8,1.4,3l-38.5,212l23.3-42.5c0.5-0.9,1.5-1.5,2.5-1.5c0.3,0,0.7,0.1,1,0.2c1.3,0.5,2.1,1.9,1.8,3.4l-53.9,229.1
					c-0.3,1.2-1.2,2-2.4,2.2C757.6,553.7,757.4,553.7,757.3,553.7z"/>
				<path class="st1" d="M808.9,143.5l12,6.7l-41.7,229.5l31.8-58l-53.9,229.1l-40.9-75.7L748,372.5l-12.1-10.6l-9.6-7.4
					L808.9,143.5 M811.2,321.7L811.2,321.7 M808.9,137.7c-0.7,0-1.3,0.1-1.9,0.3c-1.6,0.6-2.8,1.8-3.4,3.3l-82.6,211.1
					c-0.9,2.4-0.2,5.1,1.9,6.7l9.4,7.3l9.2,8l-30.5,99c-0.5,1.5-0.3,3.1,0.4,4.4l40.9,75.7c1,1.9,3,3,5.1,3c0.3,0,0.5,0,0.8-0.1
					c2.4-0.3,4.3-2.1,4.9-4.4l53.8-228.9c0.1-0.5,0.2-1,0.2-1.5c0-3-2.3-5.5-5.2-5.7c-0.2,0-0.4,0-0.6,0c-0.2,0-0.4,0-0.7,0
					c-0.9,0.1-1.8,0.4-2.6,0.9c-0.5,0.4-1,0.8-1.4,1.4c-0.2,0.2-0.3,0.5-0.5,0.7l-14.7,26.8l35.3-194.5c0.4-2.4-0.7-4.9-2.9-6.1
					l-12-6.7C810.9,138,809.9,137.7,808.9,137.7L808.9,137.7z"/>
			</g>
			<g>
				<path class="st2" d="M703.6,509.7c-0.6,0-1.2-0.1-1.8-0.4c-1.6-0.8-2.4-2.6-2-4.4L736,365.7c0.4-1.5,1.6-2.6,3-2.8
					c0.2,0,0.5-0.1,0.7-0.1c1.2,0,2.4,0.6,3.1,1.6l7.7,10.9c0.6,0.9,0.9,2.1,0.6,3.1l-26.7,108.1c-0.1,0.6-0.4,1.1-0.8,1.6
					l-17.1,20.2C705.8,509.2,704.7,509.7,703.6,509.7z"/>
				<path class="st1" d="M739.7,366.7l7.7,10.9l-26.7,108.1l-17.1,20.2L739.7,366.7 M739.7,359c-0.5,0-0.9,0-1.4,0.1
					c-2.9,0.5-5.3,2.7-6.1,5.6l-36.1,139.2c-0.9,3.5,0.7,7.1,3.9,8.8c1.1,0.6,2.3,0.9,3.5,0.9c2.2,0,4.4-1,5.9-2.7l17.1-20.2
					c0.8-0.9,1.3-2,1.6-3.1l26.7-108.1c0.5-2.2,0.1-4.5-1.2-6.3l-7.7-10.9C744.5,360.2,742.2,359,739.7,359L739.7,359z"/>
			</g>
			<g>
				<path class="st2" d="M737.9,374c-0.8,0-1.7-0.3-2.3-0.8l-13.6-10.5c-1.4-1-1.9-2.9-1.2-4.5l84.7-216.2c0.4-1,1.2-1.8,2.3-2.2
					c0.4-0.2,0.9-0.2,1.3-0.2c0.7,0,1.3,0.2,1.9,0.5l12,6.7c1.7,0.9,2.4,2.9,1.7,4.7l-83.1,220c-0.4,1.1-1.4,2-2.5,2.3
					C738.6,374,738.3,374,737.9,374z"/>
				<path class="st1" d="M808.9,143.5l12,6.7l-83.1,220l-13.6-10.5L808.9,143.5 M808.9,135.8c-0.9,0-1.8,0.1-2.6,0.4
					c-2.1,0.7-3.8,2.4-4.6,4.4l-84.7,216.2c-1.2,3.2-0.2,6.8,2.5,8.9l13.6,10.5c1.4,1,3,1.6,4.7,1.6c0.7,0,1.4-0.1,2.1-0.3
					c2.3-0.7,4.2-2.4,5.1-4.7l83.1-220c1.3-3.6-0.1-7.6-3.4-9.4l-12-6.7C811.5,136.1,810.2,135.8,808.9,135.8L808.9,135.8z"/>
			</g>
		</g>
		<g>
			<g>
				<path class="st2" d="M767.6,575.3c-20.9,51.9-53.7,72.5-80.5,72.5c-43.1-0.1-31.4-66.2-10.5-118.1s56-99,86.2-70
					C782.9,479,788.5,523.3,767.6,575.3z"/>
				<path class="st1" d="M767.6,575.3c-4,9.7-8.6,19.2-14.1,28.1c-5.5,8.9-12,17.3-19.7,24.6c-2,1.8-3.9,3.6-6,5.2l-3.1,2.5
					l-3.3,2.2c-2.2,1.6-4.5,2.8-6.8,4.1c-0.6,0.3-1.2,0.6-1.8,0.9l-1.8,0.8c-1.2,0.5-2.4,1.2-3.7,1.6l-3.8,1.3
					c-1.3,0.4-2.6,0.7-3.9,1.1l-1.9,0.5c-0.7,0.1-1.3,0.2-2,0.3c-1.3,0.2-2.6,0.5-4,0.6c-5.3,0.5-11,0.5-16.3-1.3
					c-5.3-1.8-10.2-5.5-13.3-10.3c-3.1-4.7-4.9-10.1-6-15.5c-1-5.4-1.3-10.8-1.3-16.2c0.1-5.4,0.4-10.8,1.2-16.1
					c2.9-21.2,9.1-41.7,16.9-61.4c2-4.9,4.1-9.8,6.4-14.6c2.3-4.8,4.7-9.6,7.2-14.2c5.2-9.3,10.9-18.4,17.7-26.7
					c3.4-4.2,7.1-8.2,11.1-11.8c4.1-3.6,8.6-6.9,13.6-9.3c5-2.4,10.9-3.7,16.6-3.1c5.7,0.7,11,3.4,15.3,6.9c1,0.9,2,1.8,3,2.8
					c0.9,1,1.9,2,2.7,3c1.8,2.1,3.3,4.3,4.7,6.7c1.4,2.3,2.5,4.8,3.6,7.2c1,2.5,1.9,5,2.7,7.6c3.1,10.2,3.9,20.9,3.7,31.4
					c-0.2,10.5-1.8,21-4.2,31.2C774.8,555.5,771.5,565.5,767.6,575.3z M767.6,575.3c7.8-19.4,12.7-40.3,12.6-61.2
					c-0.1-10.4-1.5-20.9-4.8-30.7c-0.8-2.5-1.8-4.8-2.9-7.2c-1.2-2.3-2.3-4.6-3.8-6.7c-1.4-2.1-2.9-4.2-4.7-6
					c-0.8-1-1.8-1.8-2.7-2.7c-1-0.8-1.9-1.6-2.9-2.4c-4-3-8.6-4.9-13.3-5.3c-4.7-0.2-9.5,1-13.8,3.3c-4.3,2.3-8.3,5.4-11.9,8.9
					c-3.6,3.5-6.9,7.4-10,11.4c-6.2,8.1-11.5,17-16.4,26.1c-4.8,9.1-9.1,18.6-13,28.2c-3.9,9.6-7.3,19.4-10.3,29.3
					c-1.5,5-2.9,9.9-4.1,15c-1.2,5-2.2,10.1-3.1,15.2c-0.8,5.1-1.4,10.2-1.7,15.3c-0.3,5.1-0.2,10.2,0.6,15.1
					c0.7,4.9,2.1,9.8,4.6,13.9c2.4,4.2,6.2,7.4,10.7,9.2c4.5,1.8,9.6,2.2,14.7,1.9c1.3,0,2.5-0.3,3.8-0.4c0.6-0.1,1.3-0.1,1.9-0.2
					l1.9-0.4c1.2-0.3,2.5-0.5,3.8-0.8l3.7-1.1c1.2-0.3,2.4-0.9,3.6-1.4l1.8-0.7c0.6-0.2,1.2-0.5,1.8-0.8c2.3-1.2,4.7-2.3,6.8-3.7
					l3.3-2l3.2-2.3c2.2-1.5,4.1-3.2,6.1-4.9c7.8-6.9,14.5-15.1,20.2-23.9C759,594.4,763.6,585,767.6,575.3z"/>
			</g>
			
				<ellipse transform="matrix(0.36 -0.9329 0.9329 0.36 -48.5543 1052.9337)" class="st0" cx="743.2" cy="561.9" rx="61.2" ry="21"/>
			<g>
				<path class="st1" d="M764.8,575.4c-2.9,7.2-6,14.3-9.7,21.1c-3.6,6.9-7.6,13.5-12.1,19.8c-4.6,6.3-9.6,12.3-15.8,17.2
					c-1.5,1.2-3.2,2.3-4.9,3.4c-1.7,1-3.6,1.9-5.5,2.5c-2,0.6-4.1,0.9-6.2,0.7c-2.1-0.2-4.2-0.9-6.1-2c-1.8-1.2-3.3-2.7-4.5-4.4
					c-0.6-0.8-1.1-1.8-1.6-2.7c-0.4-0.9-0.9-1.9-1.3-2.8c-1.5-3.8-2.3-7.8-2.8-11.7c-0.9-7.9-0.6-15.9,0.3-23.7
					c1-7.8,2.5-15.5,4.5-23.1c2.1-7.6,4.6-15,7.4-22.3c5.9-14.5,13.2-28.6,22.8-41.1c2.4-3.1,5-6.2,7.7-9c2.8-2.9,5.7-5.5,9-7.9
					c1.6-1.2,3.4-2.3,5.2-3.2c1.8-0.9,3.7-1.7,5.8-2.3c2-0.5,4.2-0.7,6.4-0.5c2.2,0.3,4.3,1.1,6.1,2.3c1.8,1.2,3.2,2.9,4.3,4.6
					c0.6,0.9,1,1.8,1.5,2.7c0.4,0.9,0.8,1.9,1.1,2.8c1.3,3.8,1.9,7.7,2.2,11.6c0.6,7.8-0.1,15.6-1.2,23.3
					c-1.2,7.7-2.9,15.3-5.1,22.7C770.2,560.9,767.6,568.2,764.8,575.4z M764.8,575.4c2.8-7.2,5.3-14.6,7.3-22
					c2-7.5,3.5-15.1,4.5-22.8c0.9-7.7,1.2-15.4,0.3-23c-0.4-3.8-1.2-7.5-2.6-11c-0.3-0.9-0.8-1.7-1.1-2.5c-0.5-0.8-0.9-1.6-1.4-2.3
					c-1-1.5-2.3-2.7-3.7-3.7c-1.5-0.9-3.1-1.4-4.8-1.5c-1.7-0.1-3.4,0.1-5.1,0.6c-1.7,0.5-3.3,1.3-4.9,2.2c-1.6,1-3.1,2-4.5,3.1
					c-5.8,4.6-10.7,10.5-15.2,16.7c-4.5,6.2-8.3,12.7-11.9,19.5c-3.6,6.7-6.7,13.7-9.6,20.8c-2.8,7.1-5.4,14.3-7.4,21.7
					c-2.1,7.3-3.8,14.8-5,22.3c-1.1,7.5-1.8,15.1-1.2,22.6c0.3,3.7,0.8,7.5,2,10.9c0.3,0.9,0.6,1.7,1,2.5c0.4,0.8,0.8,1.6,1.3,2.3
					c1,1.5,2.1,2.8,3.5,3.8c1.4,1,3,1.6,4.8,1.8c1.7,0.2,3.5,0.1,5.3-0.4c1.8-0.4,3.5-1.2,5.2-2c1.7-0.9,3.3-1.9,4.8-3
					c3.1-2.2,5.9-4.8,8.6-7.6c2.7-2.8,5.2-5.7,7.5-8.8c4.7-6.1,8.9-12.7,12.6-19.5C758.6,589.6,761.8,582.6,764.8,575.4z"/>
			</g>
			<path class="st1" d="M685.6,506.8c0,0,33,23.3,44.4,34.6c0,0-11.7,27.2-14.1,48c0,0-10.7-23.4-14.1-33.1
				c-3.3-9.7-39.3-4.6-39.3-4.6S670.6,514.6,685.6,506.8z"/>
			<g>
				<path class="st1" d="M715.5,482c-2.9,3.1-5.5,6.3-7.9,9.8c-2.4,3.4-4.6,6.9-6.7,10.5c-2.1,3.6-4.1,7.2-6.1,10.9
					c-1.9,3.7-3.8,7.4-5.5,11.1l0.1-0.2c-1.6,4.5-3.2,9.1-4.8,13.6c-1.5,4.6-3.1,9.1-4.6,13.7c-1.5,4.6-3,9.2-4.4,13.8
					c-1.4,4.6-2.6,9.3-3.8,14c-0.2-4.9,0.2-9.8,0.8-14.7c0.7-4.9,1.6-9.7,2.7-14.4c1.1-4.8,2.4-9.5,3.9-14.1c1.5-4.7,3-9.3,4.8-13.9
					l0-0.1c0,0,0-0.1,0.1-0.1c1.9-3.9,4-7.6,6.2-11.2c2.2-3.6,4.6-7.2,7.1-10.6c1.3-1.7,2.6-3.4,4-5c1.4-1.6,2.8-3.3,4.3-4.8
					C708.6,487.1,711.9,484.2,715.5,482z"/>
			</g>
			<g>
				<path class="st1" d="M718,489.3c-2.1,3.4-4.2,6.7-6.1,10.1c-1,1.7-2,3.3-3,5l-3,5l-11.7,20.2l0.2-0.3c-1.4,3.6-2.8,7.4-4.1,11.1
					c-1.3,3.8-2.5,7.5-3.7,11.3c-1.2,3.8-2.3,7.6-3.4,11.5c-1.1,3.9-2,7.8-3,11.7c-0.2-4.1-0.1-8.1,0.3-12.2c0.4-4,1-8.1,1.8-12.1
					c0.8-4,1.7-8,2.9-11.9c1.1-3.9,2.4-7.8,3.9-11.6c0-0.1,0.1-0.2,0.1-0.3l0,0c2-3.5,4-6.8,6.1-10.2c2.2-3.3,4.4-6.6,6.7-9.8
					c2.3-3.2,4.8-6.3,7.4-9.3C712.2,494.7,714.9,491.8,718,489.3z"/>
			</g>
			<g>
				<path class="st1" d="M724.1,494.7l-5.7,9.6l-5.6,9.5l-11.1,19l0.2-0.3c-1.3,3.1-2.6,6.3-3.8,9.5l-3.8,9.6l-3.8,9.6
					c-1.2,3.2-2.4,6.4-3.6,9.7c0.1-3.5,0.6-7,1.2-10.4c0.6-3.4,1.4-6.8,2.2-10.2c0.9-3.4,1.9-6.7,2.9-10c1.1-3.3,2.2-6.6,3.4-9.9
					c0-0.1,0.1-0.2,0.1-0.2l0-0.1c1.8-3.3,3.7-6.5,5.7-9.7c2-3.2,4.1-6.2,6.4-9.3c2.3-3,4.6-5.9,7.1-8.7
					C718.5,499.7,721.1,497,724.1,494.7z"/>
			</g>
			<g>
				<path class="st1" d="M727.4,500.6c-3.3,5.7-6.4,11.3-9.4,17l-8.9,17.1c-1.5,2.8-3,5.8-4.4,8.6c-1.4,2.9-2.7,5.8-4,8.7
					c-2.6,5.9-5,11.9-7.6,17.9c0.7-6.5,2.2-12.9,4.1-19.2c1-3.1,2.1-6.2,3.4-9.3c1.3-3.1,2.7-6,4.2-8.9c3-5.8,6.3-11.5,9.9-16.9
					C718.4,510.2,722.4,505,727.4,500.6z"/>
			</g>
			<path class="st1" d="M715.1,596.4c0,0-12.1,17.3-18.7,7.2c0,0-26,12.2-39-1c0,0,0.5,31.8,10.5,36c0,0,24.8,1.9,33.5-5.6
				c0,0,12.5-1.2,19.4-13.2L715.1,596.4z"/>
		</g>
	</g>
	<g>
		<g>
			<g>
				<path class="st2" d="M28.1,387.6c-0.2,0-0.4,0-0.6-0.1c-1-0.2-1.9-0.8-2.5-1.6L-13.7,329c-1.1-1.6-0.8-3.8,0.7-5.1l15.7-13.3
					c0.7-0.6,1.6-0.9,2.5-0.9c0.1,0,0.3,0,0.4,0c1,0.1,2,0.6,2.6,1.5L51,366.7c0.6,0.8,0.9,1.9,0.8,2.9c-0.1,1-0.7,1.9-1.5,2.6
					l-19.8,14.7C29.8,387.3,29,387.6,28.1,387.6z"/>
				<path class="st1" d="M5.1,313.5L48,369l-19.8,14.7l-38.7-56.9L5.1,313.5 M5.1,305.8c-1.8,0-3.6,0.6-5,1.8L-15.5,321
					c-3,2.5-3.6,6.9-1.4,10.2l38.7,56.9c1.2,1.7,3,2.9,5.1,3.3c0.4,0.1,0.9,0.1,1.3,0.1c1.6,0,3.2-0.5,4.6-1.5l19.8-14.7
					c1.7-1.2,2.8-3.1,3-5.1s-0.3-4.1-1.5-5.8l-42.8-55.5c-1.3-1.7-3.2-2.7-5.3-3C5.7,305.8,5.4,305.8,5.1,305.8L5.1,305.8z"/>
			</g>
			<g>
				
					<linearGradient id="SVGID_26_" gradientUnits="userSpaceOnUse" x1="-689.0357" y1="-722.0557" x2="-840.5646" y2="-1053.1133" gradientTransform="matrix(0.8295 -0.1476 0.1255 0.989 789.8685 1157.6798)">
					<stop  offset="0" style="stop-color:#52FFCE"/>
					<stop  offset="0.9948" style="stop-color:#6700E4"/>
				</linearGradient>
				<path class="st31" d="M66.3,556c-0.1,0-0.2,0-0.2,0c-1.1-0.1-2.1-0.8-2.5-1.9l-80.1-225.4c-0.5-1.3,0.1-2.8,1.4-3.5
					c0.4-0.2,0.9-0.3,1.4-0.3c0.9,0,1.8,0.4,2.3,1.2L21,369.3l-61.2-211.3c-0.4-1.3,0.2-2.7,1.4-3.3l13.8-7.5
					c0.4-0.2,0.9-0.3,1.4-0.3c1,0,2,0.5,2.5,1.5L91.8,354c0.7,1.3,0.3,2.9-0.8,3.7l-10.8,7.9l-11.9,9.9l43.8,98.4
					c0.4,0.8,0.3,1.8-0.1,2.6l-43.1,78C68.4,555.4,67.4,556,66.3,556z"/>
				<path class="st1" d="M-23.7,149.8l113,205.6l-10.9,7.9l-13.7,11.3l44.7,100.4l-43.1,78l-80.1-225.4l41.9,56l-65.6-226.5
					L-23.7,149.8 M-23.7,144c-0.9,0-1.9,0.2-2.7,0.7l-13.8,7.5c-2.4,1.3-3.6,4.1-2.8,6.7l56.8,196l-22.9-30.6
					c-1.1-1.5-2.9-2.3-4.6-2.3c-0.9,0-1.9,0.2-2.7,0.7c-2.5,1.3-3.7,4.3-2.7,7L60.9,555c0.8,2.1,2.7,3.6,5,3.8c0.2,0,0.3,0,0.5,0
					c2.1,0,4-1.1,5-3l43.1-78c0.9-1.6,1-3.5,0.2-5.1l-42.9-96.4l10.2-8.4l10.7-7.8c2.3-1.7,3-4.9,1.6-7.4L-18.6,147
					C-19.7,145.1-21.7,144-23.7,144L-23.7,144z"/>
			</g>
			<g>
				<path class="st2" d="M126.9,508.8c-0.9,0-1.8-0.3-2.5-1l-21.7-19.1c-0.5-0.4-0.8-1-1.1-1.5L62.3,381c-0.4-1.2-0.3-2.6,0.5-3.6
					l8.3-11.4c0.7-1,1.9-1.6,3.1-1.6c0.2,0,0.3,0,0.5,0c1.4,0.2,2.6,1.1,3.1,2.4l52.7,136.7c0.6,1.7,0.1,3.5-1.4,4.5
					C128.4,508.6,127.7,508.8,126.9,508.8z"/>
				<path class="st1" d="M74.2,368.3L126.9,505l-21.7-19.1L65.9,379.7L74.2,368.3 M74.2,360.6c-2.4,0-4.7,1.2-6.2,3.1l-8.3,11.4
					c-1.5,2.1-1.9,4.8-1,7.2L98,488.6c0.4,1.2,1.2,2.3,2.1,3.1l21.7,19.1c1.4,1.3,3.3,1.9,5.1,1.9c1.5,0,3.1-0.5,4.4-1.4
					c2.9-2,4.1-5.8,2.8-9.1L81.4,365.5c-1-2.6-3.4-4.5-6.2-4.9C74.9,360.6,74.5,360.6,74.2,360.6L74.2,360.6z"/>
			</g>
			<g>
				<path class="st2" d="M76.6,375.5c-0.3,0-0.6,0-0.9-0.1c-1.1-0.2-2-1-2.5-1.9L-40.9,159.1c-1-1.9-0.3-4.2,1.6-5.2l13.8-7.5
					c0.6-0.3,1.2-0.5,1.8-0.5c1.4,0,2.7,0.7,3.4,2L95.4,358.5c0.9,1.7,0.5,3.8-1.1,5l-15.4,11.3C78.2,375.3,77.4,375.5,76.6,375.5z"
					/>
				<path class="st1" d="M-23.7,149.8L92,360.4l-15.4,11.3L-37.5,157.3L-23.7,149.8 M-23.7,142.1c-1.2,0-2.5,0.3-3.7,0.9l-13.8,7.5
					c-3.7,2-5.1,6.6-3.1,10.4L69.8,375.3c1,2,2.9,3.4,5.1,3.9c0.6,0.1,1.1,0.2,1.7,0.2c1.6,0,3.2-0.5,4.5-1.5l15.4-11.3
					c3.1-2.3,4.1-6.5,2.2-9.9L-17,146.1C-18.4,143.5-21,142.1-23.7,142.1L-23.7,142.1z"/>
			</g>
		</g>
		<g>
			<g>
				<path class="st2" d="M56.6,578.9c24,50.6,58,69.1,84.7,67.5c43-2.7,27.4-67.9,3.4-118.5s-61.9-95.4-90.2-64.6
					C35.5,483.8,32.6,528.4,56.6,578.9z"/>
				<path class="st1" d="M56.6,578.9c4.6,9.4,9.8,18.6,16,27c6.2,8.5,13.4,16.2,21.6,22.7c2.1,1.6,4.1,3.2,6.3,4.6l3.3,2.1l3.4,1.8
					c2.2,1.3,4.7,2.2,7,3.3c0.6,0.3,1.2,0.5,1.8,0.7l1.8,0.6c1.2,0.4,2.4,0.9,3.7,1.1l3.8,0.9c1.3,0.3,2.5,0.4,3.8,0.6l1.9,0.3
					c0.6,0.1,1.3,0.1,1.9,0.1c1.3,0,2.6,0.2,3.8,0.2c5.1,0,10.2-0.7,14.6-2.8c4.4-2.1,7.9-5.5,10.1-9.8c2.2-4.3,3.3-9.2,3.7-14.2
					c0.4-5,0.2-10.1-0.3-15.1c-0.6-5.1-1.5-10.1-2.6-15.1c-1.1-5-2.5-10-4-14.9c-1.5-4.9-3.2-9.8-5-14.7
					c-3.6-9.7-7.7-19.3-12.1-28.6c-4.4-9.4-9.3-18.5-14.7-27.4c-5.4-8.8-11.2-17.4-17.9-25.1c-3.4-3.8-6.9-7.5-10.7-10.8
					c-3.8-3.3-8-6.1-12.4-8.2c-4.4-2-9.3-3-14-2.4c-4.7,0.7-9.2,2.9-13,6.1c-0.9,0.8-1.8,1.7-2.7,2.6c-0.8,0.9-1.7,1.8-2.5,2.8
					c-1.6,1.9-3,4.1-4.3,6.3c-1.3,2.2-2.4,4.5-3.4,6.9c-0.9,2.4-1.8,4.8-2.5,7.3c-2.8,10-3.5,20.5-3,30.9
					C41.4,539.5,47.6,560,56.6,578.9z M56.6,578.9c-4.5-9.5-8.4-19.3-11.3-29.3c-3-10.1-5.2-20.4-6.1-30.9
					c-0.9-10.5-0.6-21.2,1.8-31.6c0.6-2.6,1.4-5.2,2.2-7.7c0.9-2.5,1.9-5,3.2-7.4c1.2-2.4,2.6-4.7,4.2-6.9c0.8-1.1,1.7-2.1,2.6-3.2
					c1-1,1.9-2,2.9-3c4-3.8,9.1-6.7,14.8-7.8c5.7-0.9,11.6-0.1,16.8,2.1c5.2,2.1,9.9,5.1,14.2,8.5c4.3,3.4,8.2,7.1,11.8,11.1
					c7.3,7.9,13.6,16.6,19.3,25.6c2.8,4.5,5.5,9.1,8.1,13.8c2.5,4.7,4.9,9.4,7.2,14.2c9,19.2,16.4,39.2,20.6,60.2
					c1,5.2,1.7,10.6,2.1,16c0.4,5.4,0.4,10.8-0.3,16.3c-0.7,5.4-2.2,10.9-5,15.8c-2.8,4.9-7.4,8.9-12.6,11.1
					c-5.2,2.2-10.9,2.5-16.2,2.3c-1.3,0-2.7-0.2-4-0.4c-0.7-0.1-1.3-0.1-2-0.2l-2-0.4c-1.3-0.3-2.6-0.5-3.9-0.8l-3.9-1.1
					c-1.3-0.3-2.5-0.9-3.8-1.3l-1.9-0.7c-0.6-0.2-1.2-0.5-1.8-0.8c-2.4-1.2-4.8-2.2-7.1-3.7l-3.4-2l-3.3-2.3
					c-2.2-1.4-4.2-3.2-6.3-4.8c-8.1-6.7-15.1-14.8-21.1-23.3C66.3,597.5,61.1,588.4,56.6,578.9z"/>
			</g>
			
				<ellipse transform="matrix(0.9095 -0.4158 0.4158 0.9095 -227.284 84.3919)" class="st0" cx="80.1" cy="564.1" rx="21" ry="61.2"/>
			<g>
				<path class="st1" d="M59.4,578.9c3.4,7,7,13.8,11.1,20.4c4.1,6.6,8.7,12.8,13.7,18.7c2.5,2.9,5.2,5.7,8,8.3c2.8,2.6,5.8,5,9.1,7
					c1.6,1,3.3,1.9,5,2.7c1.7,0.7,3.5,1.4,5.3,1.7c1.8,0.3,3.6,0.4,5.3,0.1c1.7-0.3,3.3-1.1,4.6-2.1c1.3-1.1,2.4-2.5,3.3-4
					c0.5-0.8,0.8-1.6,1.1-2.4c0.3-0.9,0.6-1.7,0.8-2.6c1-3.5,1.3-7.3,1.4-11c0.1-7.5-1-15.1-2.6-22.5c-1.6-7.4-3.8-14.8-6.3-22
					c-2.5-7.2-5.5-14.3-8.7-21.2c-3.3-6.9-6.8-13.7-10.8-20.2c-4-6.5-8.2-12.9-13.1-18.7c-4.8-5.9-10-11.4-16.2-15.7
					c-1.5-1.1-3.1-2-4.7-2.9c-1.6-0.8-3.3-1.5-5-1.9c-1.7-0.4-3.5-0.6-5.1-0.3c-1.7,0.2-3.3,0.8-4.7,1.8c-1.4,1-2.6,2.4-3.5,3.9
					c-0.5,0.7-0.9,1.6-1.3,2.4c-0.3,0.9-0.7,1.7-1,2.6c-1.2,3.5-1.7,7.3-2,11.2c-0.4,7.6,0.3,15.4,1.7,23c1.4,7.6,3.4,15.1,5.8,22.4
					C53.3,564.7,56.2,571.9,59.4,578.9z M59.4,578.9c-3.3-7-6.3-14.2-8.9-21.5c-2.6-7.3-4.8-14.8-6.4-22.4
					c-1.6-7.6-2.8-15.3-2.6-23.2c0.1-3.9,0.4-7.9,1.5-11.8c0.2-1,0.6-1.9,0.9-2.9c0.4-0.9,0.8-1.9,1.3-2.8c1-1.8,2.3-3.5,4-4.9
					c1.7-1.3,3.8-2.3,5.9-2.7c2.1-0.4,4.3-0.3,6.4,0.1c2.1,0.4,4,1.1,5.9,1.9c1.9,0.9,3.7,1.8,5.3,2.9c3.4,2.2,6.5,4.7,9.5,7.3
					c2.9,2.7,5.7,5.5,8.3,8.5c10.4,12,18.5,25.5,25.3,39.7c3.3,7.1,6.3,14.4,8.8,21.8c2.5,7.4,4.5,15.1,5.9,22.8
					c1.4,7.8,2.2,15.7,1.8,23.6c-0.2,4-0.8,8-2.1,11.9c-0.3,1-0.7,1.9-1.1,2.9c-0.5,0.9-0.9,1.9-1.5,2.8c-1.1,1.8-2.5,3.4-4.3,4.7
					c-1.8,1.3-3.8,2.1-5.9,2.4c-2.1,0.3-4.2,0.1-6.2-0.4c-2-0.5-3.9-1.3-5.7-2.1c-1.8-0.9-3.5-1.9-5.1-3.1
					c-6.5-4.5-11.8-10.3-16.8-16.3c-4.9-6-9.3-12.5-13.3-19.1C66.3,592.8,62.7,585.9,59.4,578.9z"/>
			</g>
			<path class="st1" d="M134.3,505.6c0,0-31.5,25.3-42.2,37.2c0,0,13.3,26.5,17,47.1c0,0,9.3-24,12-33.9s38.9-6.9,38.9-6.9
				S149.8,512.5,134.3,505.6z"/>
			<g>
				<path class="st1" d="M103,482.7c3.7,2,7.2,4.7,10.3,7.5c1.6,1.4,3.1,3,4.6,4.5c1.5,1.6,2.9,3.1,4.3,4.8
					c2.8,3.3,5.3,6.7,7.7,10.2c2.4,3.5,4.7,7.1,6.8,10.9c0,0,0,0.1,0.1,0.1l0,0.1c2.1,4.5,3.9,9,5.6,13.5c1.7,4.6,3.3,9.2,4.7,13.9
					c1.4,4.7,2.6,9.4,3.6,14.2c0.9,4.8,1.6,9.7,1.7,14.6c-1.5-4.7-3-9.2-4.7-13.8c-1.6-4.5-3.4-9-5.2-13.5
					c-1.8-4.5-3.6-8.9-5.4-13.4c-1.8-4.4-3.7-8.9-5.6-13.3l0.1,0.2c-1.9-3.6-4-7.2-6.2-10.7c-2.2-3.5-4.4-7.1-6.7-10.5
					c-2.3-3.4-4.7-6.8-7.3-10.1C108.8,488.7,106.1,485.6,103,482.7z"/>
			</g>
			<g>
				<path class="st1" d="M100.9,490.1c3.2,2.3,6.1,5.1,9,7.8c2.8,2.8,5.5,5.8,8,8.8c2.6,3,5,6.2,7.3,9.3c2.3,3.2,4.6,6.4,6.7,9.8
					l0,0c0.1,0.1,0.1,0.2,0.2,0.3c1.7,3.8,3.2,7.5,4.6,11.4c1.4,3.8,2.5,7.7,3.6,11.7c1,3.9,1.8,7.9,2.5,12c0.6,4,1,8.1,1,12.1
					c-1.2-3.9-2.3-7.7-3.7-11.5c-1.3-3.8-2.6-7.5-4.1-11.3c-1.4-3.7-2.9-7.4-4.4-11.1c-1.5-3.7-3.1-7.3-4.7-10.9l0.2,0.3l-12.9-19.5
					l-3.3-4.9c-1.1-1.6-2.2-3.2-3.3-4.9C105.5,496.6,103.2,493.4,100.9,490.1z"/>
			</g>
			<g>
				<path class="st1" d="M95.2,495.9c3.1,2.1,5.9,4.7,8.6,7.3c2.7,2.6,5.2,5.4,7.7,8.3c2.4,2.9,4.7,5.8,6.9,8.9
					c2.2,3,4.3,6.1,6.3,9.3l0,0.1c0,0.1,0.1,0.2,0.1,0.3c1.4,3.2,2.8,6.4,4,9.6c1.2,3.2,2.4,6.5,3.5,9.8c1.1,3.3,2.1,6.7,2.8,10.1
					c0.8,3.4,1.5,6.8,1.8,10.3c-1.4-3.2-2.8-6.4-4.2-9.5l-4.3-9.4l-4.4-9.3c-1.5-3.1-2.9-6.2-4.4-9.3l0.2,0.3l-12.3-18.3l-6.2-9.2
					L95.2,495.9z"/>
			</g>
			<g>
				<path class="st1" d="M92.2,502c5.2,4.1,9.6,9.1,13.6,14.2c4,5.2,7.6,10.7,10.9,16.3c1.7,2.8,3.2,5.6,4.7,8.6
					c1.5,3,2.7,6,3.9,9.1c2.3,6.1,4.2,12.4,5.3,18.9c-2.9-5.9-5.7-11.7-8.7-17.4c-1.5-2.9-3-5.7-4.5-8.5c-1.6-2.7-3.2-5.5-4.9-8.3
					l-9.9-16.6C99.3,512.8,95.9,507.4,92.2,502z"/>
			</g>
			<path class="st1" d="M110.3,596.8c0,0,13.1,16.5,19.1,6c0,0,26.7,10.6,38.9-3.4c0,0,1.4,31.8-8.3,36.6c0,0-24.6,3.4-33.7-3.5
				c0,0-12.5-0.4-20.2-12L110.3,596.8z"/>
		</g>
	</g>
	<path class="st0" d="M906.1,560.3c0,0,6.2-57.6,42.5-58.5l-4.3-25C944.2,476.8,890.4,481.3,906.1,560.3z"/>
	<path class="st2" d="M206,1029.2c0,0,37.7,19.4,57.3,18.5c0,0-38,5.1-48.1,1.7C205.2,1045.9,206,1029.2,206,1029.2z"/>
	
		<ellipse transform="matrix(0.9889 -0.1485 0.1485 0.9889 -143.197 118.1238)" class="st2" cx="719.4" cy="1017.9" rx="18.2" ry="12.1"/>
	
		<ellipse transform="matrix(0.9889 -0.1485 0.1485 0.9889 -161.2826 61.6625)" class="st2" cx="332.3" cy="1110.8" rx="18.2" ry="12.1"/>
	<g>
		<path class="st1" d="M631.6,874.9l7.8,52l21.8,21.6L625.7,962l-18.6-29.1l-4.9-32.5c0,0-16.5-7.2,3.1,49c0,0-17.4-24.8-19.6-56.2
			L631.6,874.9z"/>
	</g>
	<path class="st1" d="M221.6,878.7c0,0-10.4,54.5-8.6,101.7l42,11.8l4-92.6l-8.7-5.2c0,0,0.6,75.3-12.3,67.9l3.4-72.2L221.6,878.7z"
		/>
	<path class="st2" d="M558.8,1105c0,0,54.7-29.8,73.2-38.8l-58,49.6L558.8,1105z"/>
	<g>
		<g>
			<circle class="st2" cx="420.8" cy="880.4" r="38.7"/>
			<path class="st1" d="M422.5,919c-10.1,0.5-20.4-3-28.2-9.7c-7.9-6.6-13.1-16.5-14.1-27.1c-0.5-5.3,0-10.8,1.7-15.9
				c1.6-5.2,4.3-10.1,7.9-14.2c3.6-4.2,8-7.6,13-10.1c5-2.4,10.5-3.8,16.1-4.1c5.6-0.2,11.2,0.6,16.4,2.6c5.2,2,10,5,13.9,8.9
				c4,3.8,7,8.5,9.1,13.5c2.1,5,3.1,10.4,3.1,15.7c0,10.7-4.4,21-11.6,28.3C442.6,914.2,432.7,918.6,422.5,919z M422.5,919
				c5.1-0.3,10.1-1.5,14.6-3.7c4.5-2.2,8.6-5.4,11.8-9.2c3.2-3.8,5.6-8.3,7.1-13c1.5-4.7,1.9-9.6,1.4-14.5
				c-1-9.6-5.8-18.5-12.9-24.5c-7.1-6-16.3-9.1-25.4-8.7c-9.1,0.4-18.1,4.3-24.6,10.9c-6.6,6.6-10.5,15.9-10.6,25.5
				c0,4.8,0.9,9.7,2.7,14.3c1.9,4.5,4.7,8.8,8.3,12.3c3.6,3.5,7.9,6.3,12.6,8.1C412.4,918.5,417.5,919.2,422.5,919z"/>
		</g>
		
			<linearGradient id="SVGID_27_" gradientUnits="userSpaceOnUse" x1="461.5481" y1="-207.3143" x2="524.5512" y2="-207.3143" gradientTransform="matrix(0.9889 -0.1485 0.1485 0.9889 -33.0435 1162.5525)">
			<stop  offset="0" style="stop-color:#52FFCE"/>
			<stop  offset="0.9948" style="stop-color:#6700E4"/>
		</linearGradient>
		<path class="st32" d="M400.4,862.3c0,0-14.7,13.1-5.9,30.5c2.7,5.3,10.8,12.6,16.4,14.4c0,0-1.7-11.9,7.1-9.4s7.4,10.8,14.5,10.6
			c7.1-0.2,20.1-8.7,22.3-29.4l-9.5-15.3l-16.6,21.4l-19.5-12.7L400.4,862.3z"/>
		<path class="st1" d="M392.4,883.2c0,0-7-18.9,18.3-34.3c0,0-2.3,26.2,17.1,25s6.2-24.1,6.2-24.1s34.1,13.6,15.2,48.3
			c0,0,3.7-11.3-5.6-22.7c0,0-2.7,19.7-21,16.7c-18.3-3.1-17.7-22.7-17.7-22.7S397,870.6,392.4,883.2z"/>
		<g>
			<path class="st1" d="M401.2,868.4c-0.3,1-0.6,2.2-0.9,3.4c-0.2,1.2-0.4,2.4-0.6,3.6c-0.3,2.4-0.3,4.8,0,7.2
				c0.3,2.4,1,4.7,2.2,6.8c0.6,1,1.4,2,2.3,2.9c0.9,0.8,2,1.5,3.1,2.2c-1.2-0.4-2.4-0.9-3.5-1.6c-1.1-0.7-2.1-1.6-3-2.6
				c-1.8-2-3-4.5-3.9-7.1c-0.8-2.6-1.3-5.3-1.5-7.9c-0.1-1.3-0.1-2.7-0.1-4c0-1.4,0.1-2.7,0.3-4.1l0,0c0.2-1.6,1.7-2.7,3.2-2.5
				c1.6,0.2,2.7,1.7,2.5,3.2C401.3,868,401.2,868.2,401.2,868.4z"/>
		</g>
		<g>
			<path class="st1" d="M453.3,876.2c-0.2,1.5-0.4,2.8-0.7,4.1c-0.3,1.3-0.6,2.6-1,3.9c-0.8,2.6-1.8,5.1-3.2,7.4
				c-1.4,2.3-3.2,4.4-5.4,6c-1.1,0.8-2.3,1.4-3.5,1.8c-1.2,0.4-2.5,0.6-3.8,0.7c1.2-0.3,2.4-0.8,3.5-1.4c1.1-0.6,2-1.4,2.9-2.3
				c1.7-1.8,2.9-3.9,3.7-6.2c0.8-2.3,1.3-4.6,1.6-7c0.1-1.2,0.2-2.4,0.2-3.6c0-1.2,0-2.5-0.1-3.5c-0.2-1.6,1-3,2.6-3.2
				c1.6-0.2,3,1,3.2,2.6C453.3,875.9,453.3,876,453.3,876.2L453.3,876.2z"/>
		</g>
	</g>
	
		<ellipse transform="matrix(0.9889 -0.1485 0.1485 0.9889 -31.3363 86.988)" class="st2" cx="566.8" cy="253.3" rx="32.8" ry="16.6"/>
	<polygon class="st1" points="421.9,360 424.6,399.5 435.5,357.9 	"/>
	<polygon class="st1" points="441.8,354.9 444.1,383.3 455.4,352.9 	"/>
	<polygon class="st1" points="682.7,364.5 711.1,326.3 686.6,377.8 	"/>
</g>
</svg>
