<?xml version="1.0" encoding="utf-8"?>
<!-- Generator: Adobe Illustrator 22.0.1, SVG Export Plug-In . SVG Version: 6.00 Build 0)  -->
<svg version="1.1" id="Capa_1" xmlns="http://www.w3.org/2000/svg" xmlns:xlink="http://www.w3.org/1999/xlink" x="0px" y="0px"
	 viewBox="0 0 1097.5 1215.7" style="enable-background:new 0 0 1097.5 1215.7;" xml:space="preserve">
<style type="text/css">
	.st0{fill:#FFFFFF;stroke:#5E004D;stroke-width:7.2276;stroke-linecap:round;stroke-linejoin:round;stroke-miterlimit:10;}
	.st1{fill:#5E004D;stroke:#5E004D;stroke-width:7.2276;stroke-linecap:round;stroke-linejoin:round;stroke-miterlimit:10;}
	.st2{fill:url(#SVGID_1_);stroke:#5E004D;stroke-width:7.2276;stroke-linecap:round;stroke-linejoin:round;stroke-miterlimit:10;}
	.st3{fill:#FFFFFF;}
	.st4{fill:#5E004D;}
	.st5{fill:url(#SVGID_2_);stroke:#5E004D;stroke-width:7.2276;stroke-linecap:round;stroke-linejoin:round;stroke-miterlimit:10;}
	.st6{fill:#52FFCE;stroke:#5E004D;stroke-width:7.2276;stroke-linecap:round;stroke-linejoin:round;stroke-miterlimit:10;}
	.st7{fill:url(#SVGID_3_);stroke:#5E004D;stroke-width:7.2276;stroke-linecap:round;stroke-linejoin:round;stroke-miterlimit:10;}
	.st8{fill:url(#SVGID_4_);stroke:#5E004D;stroke-width:7.2276;stroke-linecap:round;stroke-linejoin:round;stroke-miterlimit:10;}
	.st9{fill:#5E004D;stroke:#5E004D;stroke-width:4.5172;stroke-linecap:round;stroke-linejoin:round;stroke-miterlimit:10;}
	.st10{fill:url(#SVGID_5_);stroke:#5E004D;stroke-width:7.2276;stroke-linecap:round;stroke-linejoin:round;stroke-miterlimit:10;}
	.st11{fill:#52FFCE;stroke:#5E004D;stroke-width:4.5172;stroke-linecap:round;stroke-linejoin:round;stroke-miterlimit:10;}
	.st12{fill:url(#SVGID_6_);}
	.st13{fill:#52FFCE;}
	.st14{fill:url(#SVGID_7_);}
	.st15{fill:url(#SVGID_8_);}
	.st16{fill:url(#SVGID_9_);}
	.st17{fill:#5E004D;stroke:#5E004D;stroke-width:0.9034;stroke-linecap:round;stroke-linejoin:round;stroke-miterlimit:10;}
	.st18{fill:url(#SVGID_10_);}
	.st19{fill:url(#SVGID_11_);}
	.st20{fill:url(#SVGID_12_);}
	.st21{fill:url(#SVGID_13_);}
	.st22{fill:url(#SVGID_14_);}
	.st23{fill:url(#SVGID_15_);}
	.st24{fill:url(#SVGID_16_);}
	.st25{fill:url(#SVGID_17_);}
	.st26{fill:url(#SVGID_18_);stroke:#5E004D;stroke-width:7.2276;stroke-linecap:round;stroke-linejoin:round;stroke-miterlimit:10;}
	.st27{fill:url(#SVGID_19_);stroke:#5E004D;stroke-width:7.2276;stroke-linecap:round;stroke-linejoin:round;stroke-miterlimit:10;}
	.st28{fill:url(#SVGID_20_);stroke:#5E004D;stroke-width:7.2276;stroke-linecap:round;stroke-linejoin:round;stroke-miterlimit:10;}
	.st29{fill:url(#SVGID_21_);stroke:#5E004D;stroke-width:7.2276;stroke-linecap:round;stroke-linejoin:round;stroke-miterlimit:10;}
	.st30{fill:url(#SVGID_22_);stroke:#5E004D;stroke-width:7.2276;stroke-linecap:round;stroke-linejoin:round;stroke-miterlimit:10;}
	.st31{fill:url(#SVGID_23_);}
	.st32{fill:url(#SVGID_24_);}
</style>
<g>
	<g>
		<g>
			<path class="st0" d="M253.1,727.4c0,0-55.8,50.6-74.7,117.5c-23.9,84.4,48.7,93.7,70.5,81c21.8-12.7,91-94.8,91-94.8
				S306,713.7,253.1,727.4z"/>
		</g>
		<path class="st1" d="M267.4,789.3c0,0-25.6-25.6-49.4-19.7l37.6-26.5l27.8,13.9L267.4,789.3z"/>
		<g>
			<path class="st0" d="M619,723.7c0,0,56.8,49.5,77,116c25.5,83.9-46.9,94.6-68.9,82.4c-22.1-12.2-92.8-93-92.8-93
				S565.8,711,619,723.7z"/>
		</g>
		<path class="st1" d="M652.1,768.9c0,0-24.2-15.9-46.2,17.7l-5.8-40.5l8.1-19.7L652.1,768.9z"/>
		<g>
			<g>
				
					<linearGradient id="SVGID_1_" gradientUnits="userSpaceOnUse" x1="368.5565" y1="1197.9268" x2="954.9282" y2="1197.9268" gradientTransform="matrix(0.9761 0.2173 -0.2173 0.9761 -74.3934 -954.9141)">
					<stop  offset="0" style="stop-color:#52FFCE"/>
					<stop  offset="0.9948" style="stop-color:#6700E4"/>
				</linearGradient>
				<path class="st2" d="M609.4,155.5c0,0-32.2-230.6-386.5-121.6c0,0,114.5,14.4,139.7,47.9c0,0-153.8-77.8-317.8,129.4
					c0,0,130.7-50.9,225.9-42.4c0,0-249.6,31.1-254.6,273.2l127.4-102.4c0,0-166.6,188.8-199,316.7c0,0,107.3-120.5,275.2-139.2
					c0,0-25,53-87.5,70.5C132.3,587.6,714.4,657.5,609.4,155.5z"/>
				<g>
					<path class="st3" d="M516.3,31.8c-57-30.2-148.1-42.6-293.4,2.1C222.9,33.9,434.5-11.3,516.3,31.8z"/>
					<path class="st3" d="M384.7,89c12.4,2.8-26.1-12.5-22.1-7.1c0,0-148-77.8-312,129.4C50.6,211.3,195.2,45.5,384.7,89z"/>
					<path class="st3" d="M293.5,165.4c18.9-5.6-53.5,11.9-81.2,16.1C138.2,207,20.5,285.7,20.8,436.3
						C20.8,436.3,24,245.2,293.5,165.4z"/>
					<path class="st3" d="M219.8,517.1c-22.9,43.8-34,60.7-87.5,70.5C132.3,587.6,180.1,574.1,219.8,517.1z"/>
					<path class="st3" d="M158.5,319.8L75.3,424.3c-50,66.2-112.2,159.1-130.8,232.1L158.5,319.8z"/>
				</g>
				<path class="st4" d="M577.7,210.6c0,0,11.4-118.4-79-157.3c0,0,27.1,21.3,30.8,58.9c0,0-89.8-71.4-131-82.3c0,0,36.3-3.7,68,5.2
					c0,0-37.3-32.8-149.4-9.4c0,0,114.2,9,178.6,107.7c0,0-61.9-38-141.3-31.6c0,0,72.9,18.4,105.7,46c0,0-116.8-49.4-230.1-23.3
					c0,0,104.3,2.8,168.7,36.6c0,0-169.9,51.4-245,103.5c0,0,56.4-49.6,110.6-69.3c0,0-104.2-0.1-181.6,122.5l49.5-30.2
					c0,0-68.4,73.3-82.7,104c0,0,85.5-81.2,171.4-112.3c0,0-96.2,104.9-111.4,141l57.7-49.7c0,0-37.6,90.3-67.6,107.1l106.2-31.1
					l1.6,25.6c0,0-18.5,28.2-70.3,43.7c0,0,101.4-1,130.5-32.6C296.8,451.7,577.7,210.6,577.7,210.6z"/>
				<path class="st3" d="M239.6,84.3c0,0-68.6,38.9-31.6,29.4s-13.9,21.2-47.3,38.5s42.4-2.7,42.4-2.7s-58.8,33.2-82.5,27.6
					c0,0,24.5-29,60-45.4s-54,12.6-25.2-12.6S239.6,84.3,239.6,84.3z"/>
			</g>
			
				<linearGradient id="SVGID_2_" gradientUnits="userSpaceOnUse" x1="689.071" y1="1024.1746" x2="784.9517" y2="1024.1746" gradientTransform="matrix(0.9761 0.2173 -0.2173 0.9761 -74.3934 -954.9141)">
				<stop  offset="0" style="stop-color:#52FFCE"/>
				<stop  offset="0.9948" style="stop-color:#6700E4"/>
			</linearGradient>
			<circle class="st5" cx="422.5" cy="204.9" r="47.9"/>
			<g>
				<path class="st4" d="M458.1,185.4c3.3,4.3,5.8,9.3,7.3,14.6c1.5,5.3,2,10.9,1.4,16.4c-1.1,11-6.6,21.7-15.5,29.1
					c-4.4,3.7-9.5,6.5-15.1,8.2c-5.6,1.7-11.5,2.3-17.4,1.7c-5.9-0.6-11.6-2.4-16.8-5.3c-5.2-2.9-9.8-6.9-13.4-11.6
					c-3.6-4.7-6.3-10.2-7.7-16c-1.5-5.8-1.7-11.8-0.8-17.6c0.9-5.8,3.1-11.4,6.2-16.3c3.1-4.9,7.2-9.1,11.9-12.4
					c9.4-6.6,21.2-9.1,32.1-7.3c5.5,0.9,10.7,2.8,15.5,5.7C450.6,177.4,454.8,181.1,458.1,185.4z M458.1,185.4
					c-3.4-4.3-7.6-8-12.3-10.7c-4.8-2.7-10.1-4.3-15.5-4.9c-5.4-0.6-10.9,0-15.9,1.6c-5.1,1.6-9.8,4.2-13.8,7.6
					c-8.1,6.8-13.1,16.6-14.1,26.7c-1,10.1,1.9,20.4,8,28.3c6.1,8,15.2,13.5,25.3,15.2c10,1.7,20.8-0.6,29.5-6.6
					c4.3-3,8.1-6.9,10.9-11.4c2.8-4.5,4.8-9.6,5.7-15c0.9-5.3,0.6-10.9-0.7-16.2C463.9,194.8,461.4,189.8,458.1,185.4z"/>
			</g>
			<g>
				<path class="st4" d="M582,194.9c0.1-0.4,0.3-1,0.4-1.5c0.1-0.5,0.3-1.1,0.4-1.6c0.2-1.1,0.5-2.2,0.7-3.4
					c0.4-2.3,0.7-4.6,0.9-6.9c0.5-4.6,0.7-9.3,0.6-14c-0.2-9.4-1.5-18.7-3.7-27.9c-2.3-9.2-5.4-18.2-9.4-26.8
					c-4-8.6-8.8-16.9-14.2-24.8c5.9,7.5,11.3,15.5,15.9,24c4.6,8.4,8.4,17.4,11.3,26.6c2.9,9.3,4.8,18.9,5.6,28.6
					c0.4,4.9,0.5,9.8,0.3,14.7c-0.1,2.5-0.3,4.9-0.5,7.4c-0.1,1.2-0.3,2.5-0.5,3.7c-0.2,1.3-0.4,2.4-0.7,3.8L582,194.9z"/>
			</g>
			<g>
				<path class="st4" d="M596.5,200.1c0.1-0.4,0.3-1,0.4-1.5c0.1-0.5,0.3-1.1,0.4-1.6c0.2-1.1,0.5-2.2,0.7-3.4
					c0.4-2.3,0.7-4.6,0.9-6.9c0.5-4.6,0.7-9.3,0.6-14c-0.2-9.4-1.5-18.7-3.7-27.9c-2.3-9.2-5.4-18.2-9.4-26.8
					c-4-8.6-8.8-16.9-14.2-24.8c5.9,7.5,11.3,15.5,15.9,24c4.6,8.4,8.4,17.4,11.3,26.6c2.9,9.3,4.8,18.9,5.6,28.6
					c0.4,4.9,0.5,9.8,0.3,14.7c-0.1,2.5-0.3,4.9-0.5,7.4c-0.1,1.2-0.3,2.5-0.5,3.7c-0.2,1.3-0.4,2.4-0.7,3.8L596.5,200.1z"/>
			</g>
			<g>
				<path class="st4" d="M243.8,408.3c1.2-5.4,2.6-10.5,4.1-15.6c1.5-5.1,3.2-10.2,5.1-15.2c1.9-5,4-9.9,6.3-14.8
					c2.4-4.8,5-9.5,7.9-13.9c-2.4,4.7-4.5,9.6-6.3,14.6c-1.7,5-3.2,10.1-4.5,15.2c-1.3,5.1-2.4,10.3-3.3,15.4
					c-0.9,5.2-1.7,10.4-2.3,15.5L243.8,408.3z"/>
			</g>
			<g>
				<path class="st4" d="M252.2,411.8c1.2-5.4,2.6-10.5,4.1-15.6c1.5-5.1,3.2-10.2,5.1-15.2c1.9-5,4-9.9,6.3-14.8
					c2.4-4.8,5-9.5,7.9-13.9c-2.4,4.7-4.5,9.6-6.3,14.6c-1.7,5-3.2,10.1-4.5,15.2c-1.3,5.1-2.4,10.3-3.3,15.4
					c-0.9,5.2-1.7,10.4-2.3,15.5L252.2,411.8z"/>
			</g>
			<g>
				<path class="st4" d="M260.6,417.3c1.2-5.4,2.6-10.5,4.1-15.6c1.5-5.1,3.2-10.2,5.1-15.2c1.9-5,4-9.9,6.3-14.8
					c2.4-4.8,5-9.5,7.9-13.9c-2.4,4.7-4.5,9.6-6.3,14.6c-1.7,5-3.2,10.1-4.5,15.2c-1.3,5.1-2.4,10.3-3.3,15.4
					c-0.9,5.2-1.7,10.4-2.3,15.5L260.6,417.3z"/>
			</g>
			<g>
				<path class="st4" d="M267.2,425c1.2-5.4,2.6-10.5,4.1-15.6c1.5-5.1,3.2-10.2,5.1-15.2c1.9-5,4-9.9,6.3-14.8
					c2.4-4.8,5-9.5,7.9-13.9c-2.4,4.7-4.5,9.6-6.3,14.6c-1.7,5-3.2,10.1-4.5,15.2c-1.3,5.1-2.4,10.3-3.3,15.4
					c-0.9,5.2-1.7,10.4-2.3,15.5L267.2,425z"/>
			</g>
			<g>
				<path class="st4" d="M550.8,213c-1.6-0.6-3.4-1.3-5.2-1.8c-1.8-0.6-3.6-1.1-5.4-1.6c-1.8-0.5-3.6-1-5.4-1.5
					c-1.8-0.5-3.7-0.9-5.5-1.3c-7.3-1.6-14.8-2.8-22.3-3.5c-7.5-0.8-15.1-0.8-22.7-0.3l-5.7,0.5c-1.9,0.2-3.8,0.5-5.6,0.8l-2.8,0.4
					c-0.9,0.2-1.9,0.4-2.8,0.6l-5.6,1.3l5.5-1.7c0.9-0.3,1.8-0.6,2.7-0.8l2.8-0.7c1.9-0.4,3.7-0.9,5.6-1.3l5.7-0.9
					c7.6-1.1,15.3-1.6,23-1.5c7.7,0.1,15.4,0.7,23.1,1.8c1.9,0.3,3.8,0.6,5.7,0.9c1.9,0.4,3.8,0.7,5.7,1.1c1.9,0.4,3.8,0.8,5.7,1.3
					c1.9,0.5,3.8,0.9,5.7,1.5L550.8,213z"/>
			</g>
			<g>
				<path class="st4" d="M421.2,21.5c1.5-0.1,2.5,0,3.6,0.1c1.1,0.1,2.2,0.3,3.3,0.4l3.2,0.6l3.2,0.8c1.1,0.2,2.1,0.6,3.1,0.9
					c1,0.3,2.1,0.6,3.1,0.9c2,0.7,4.1,1.4,6,2.2c2,0.8,4,1.6,5.9,2.5l5.7,2.8c3.7,2.1,7.4,4,11,6.3c3.6,2.2,7,4.6,10.5,7
					c1.7,1.2,3.4,2.5,5,3.8l5,3.8c3.2,2.7,6.4,5.4,9.6,8.1l9.2,8.5l-9.8-7.8c-3.3-2.5-6.7-4.9-10.1-7.4l-5.2-3.4
					c-1.7-1.1-3.4-2.3-5.2-3.4c-3.6-2.1-7.1-4.3-10.8-6.1c-3.6-2-7.4-3.7-11.1-5.4l-5.7-2.3c-1.9-0.8-3.9-1.3-5.8-2
					c-1.9-0.7-3.9-1.1-5.8-1.7c-1-0.3-2-0.4-2.9-0.7c-1-0.2-2-0.5-2.9-0.6l-3-0.5l-2.9-0.3c-1-0.1-1.9-0.1-2.9-0.1l-1.4,0l-0.7,0
					l-0.3,0l-0.2,0L421.2,21.5z"/>
			</g>
			<g>
				<path class="st4" d="M398.8,20.9l0.6,0l0.5,0l1,0l2,0.1c1.3,0.1,2.6,0.3,3.9,0.5l3.8,0.7l3.7,0.9c1.3,0.3,2.5,0.7,3.7,1
					c1.2,0.4,2.4,0.7,3.6,1.1l3.6,1.3c1.2,0.4,2.4,0.8,3.5,1.3c2.3,1,4.7,1.9,6.9,2.9l6.8,3.2c4.4,2.4,8.8,4.7,13,7.4
					c4.3,2.5,8.3,5.4,12.4,8.2c2.1,1.4,4,2.9,6,4.4l5.9,4.5c3.8,3.2,7.6,6.3,11.3,9.5l10.9,10l-11.5-9.3c-3.9-3-7.9-5.8-11.8-8.8
					l-6.1-4.1c-2.1-1.3-4-2.8-6.2-4c-4.2-2.5-8.3-5.1-12.7-7.3c-4.3-2.4-8.7-4.4-13.1-6.5l-6.7-2.7c-2.2-0.9-4.6-1.6-6.8-2.4
					c-1.1-0.4-2.3-0.7-3.5-1.1l-3.5-1c-1.2-0.3-2.3-0.5-3.5-0.8c-1.2-0.3-2.3-0.6-3.5-0.7l-3.5-0.6l-3.5-0.4
					c-1.2-0.1-2.3-0.2-3.5-0.2l-1.7,0l-0.8,0l-0.4,0l-0.3,0L398.8,20.9z"/>
			</g>
			<g>
				<path class="st4" d="M395.3,29.2l0.6,0l0.5,0l1,0l2,0.1c1.3,0.1,2.6,0.3,3.8,0.4l3.8,0.6l3.7,0.8c1.2,0.3,2.4,0.6,3.6,1
					c1.2,0.4,2.4,0.7,3.6,1c2.3,0.8,4.7,1.6,7,2.5c2.3,1,4.6,1.8,6.9,2.8l6.7,3.1c4.3,2.3,8.7,4.5,12.9,7.2l3.2,1.9l1.6,1l1.5,1
					l6.1,4.1c2.1,1.3,4,2.8,6,4.3l5.9,4.4c3.8,3.1,7.6,6.1,11.3,9.3l10.9,9.7l-11.5-9c-3.9-2.9-7.9-5.7-11.8-8.5l-6.1-4
					c-2-1.3-4-2.7-6.1-3.9l-6.3-3.7l-1.6-0.9l-1.6-0.8l-3.2-1.7c-4.2-2.3-8.7-4.2-13-6.2l-6.7-2.6c-2.2-0.9-4.5-1.5-6.8-2.3
					c-2.3-0.7-4.6-1.3-6.9-2c-1.1-0.3-2.3-0.5-3.5-0.8c-1.2-0.2-2.3-0.5-3.5-0.7l-3.5-0.6l-3.5-0.4c-1.1-0.1-2.3-0.1-3.4-0.2l-1.7,0
					l-0.8,0l-0.4,0l-0.3,0L395.3,29.2z"/>
			</g>
			<g>
				<path class="st4" d="M131,292.1c-3.7,2.6-7.4,5.5-11,8.5c-1.8,1.5-3.6,3-5.4,4.5l-5.3,4.6c-7,6.3-13.6,12.9-19.9,19.8
					c-3.2,3.4-6.2,7-9.3,10.6c-1.5,1.8-2.9,3.7-4.4,5.5l-2.2,2.8l-2.1,2.9l-4.1,5.7l-3.9,5.9l-1.9,3l-1.8,3l-3.6,6.1l3.2-6.3
					l1.6-3.2l1.7-3.1l3.5-6.2l3.8-6l1.9-3l2-2.9c1.4-1.9,2.7-3.9,4.1-5.8c2.8-3.8,5.6-7.6,8.7-11.3c6-7.4,12.3-14.5,18.9-21.4
					l5.1-5.1c1.7-1.6,3.4-3.3,5.2-4.9c3.5-3.3,7-6.4,10.9-9.5L131,292.1z"/>
			</g>
			<g>
				<path class="st4" d="M126.5,284.3c-3.7,2.6-7.4,5.5-11,8.5c-1.8,1.5-3.6,3-5.4,4.5l-5.3,4.6c-7,6.3-13.6,12.9-19.9,19.8
					c-3.2,3.4-6.2,7-9.3,10.6c-1.5,1.8-2.9,3.7-4.4,5.5l-2.2,2.8l-2.1,2.9l-4.1,5.7l-3.9,5.9l-1.9,3l-1.8,3l-3.6,6.1l3.2-6.3
					l1.6-3.2l1.7-3.1l3.5-6.2l3.8-6l1.9-3l2-2.9c1.4-1.9,2.7-3.9,4.1-5.8c2.8-3.8,5.6-7.6,8.7-11.3c6-7.4,12.3-14.5,18.9-21.4
					l5.1-5.1c1.7-1.6,3.4-3.3,5.2-4.9c3.5-3.3,7-6.4,10.9-9.5L126.5,284.3z"/>
			</g>
			<g>
				<path class="st4" d="M149.4,257.3c6.8-4.1,13.6-8,20.4-11.8l10.3-5.6l10.4-5.5c13.9-7.2,28-14,42.3-20.4
					c3.6-1.6,7.1-3.2,10.7-4.7l10.8-4.6c3.6-1.5,7.3-2.9,10.9-4.3l5.5-2.2c1.8-0.7,3.7-1.4,5.5-2l11-4l11.1-3.7l5.6-1.9l5.6-1.7
					l11.2-3.4l-11.1,3.8l-5.5,1.9l-5.5,2.1l-10.9,4.1l-10.8,4.4c-1.8,0.7-3.6,1.5-5.4,2.2l-5.4,2.4c-3.6,1.6-7.2,3.1-10.7,4.7
					l-10.6,4.9c-3.5,1.6-7,3.4-10.5,5.1c-14,6.9-27.8,14.2-41.3,21.9L183,245l-10,6c-6.6,4-13.3,8.2-19.7,12.4L149.4,257.3z"/>
			</g>
			<path class="st4" d="M-47.9,652.5c0,0,31.9-73,129.2-138.1c0,0-30.1,37.4-1.1,46.7C80.2,561.2-10.1,608.5-47.9,652.5z"/>
			<g>
				<path class="st4" d="M32.3,564.5c8-7.6,16.2-14.8,24.7-21.8c8.5-6.9,17.1-13.6,26-19.9c4.5-3.2,9-6.2,13.6-9.1
					c4.6-2.9,9.3-5.8,14.1-8.4c9.6-5.3,19.5-9.9,30-13c-10.3,3.7-19.9,8.8-29.1,14.5c-4.6,2.9-9.1,5.9-13.5,9.1
					c-4.4,3.1-8.7,6.4-13,9.8c-8.5,6.7-16.7,13.8-24.7,21.1c-7.9,7.3-15.7,14.9-23.1,22.7L32.3,564.5z"/>
			</g>
			<g>
				<path class="st4" d="M30.9,569.3c8.5-7.1,17.1-13.8,25.9-20.2c8.9-6.4,17.9-12.6,27.2-18.4c4.6-2.9,9.3-5.7,14.1-8.3
					c4.8-2.7,9.6-5.2,14.6-7.5c9.9-4.7,20.1-8.7,30.7-11.2c-10.5,3.1-20.4,7.6-29.9,12.8c-4.8,2.6-9.4,5.4-14,8.2
					c-4.6,2.9-9.1,5.9-13.5,9c-8.9,6.2-17.5,12.8-25.9,19.6c-8.4,6.8-16.6,14-24.4,21.3L30.9,569.3z"/>
			</g>
			<g>
				<path class="st4" d="M29.9,574.4c8.8-6.7,17.8-12.9,26.9-18.9c9.2-6,18.5-11.7,28.1-17c4.8-2.7,9.6-5.2,14.5-7.6
					c4.9-2.4,9.9-4.7,14.9-6.8c10.1-4.2,20.5-7.7,31.2-9.6c-10.6,2.5-20.7,6.5-30.5,11.2c-4.9,2.3-9.7,4.9-14.4,7.5
					c-4.7,2.6-9.4,5.4-14,8.3c-9.2,5.7-18.1,11.9-26.8,18.3c-8.7,6.4-17.3,13.1-25.4,20.1L29.9,574.4z"/>
			</g>
			<g>
				<path class="st4" d="M28.8,579c9.2-6.2,18.5-11.9,28-17.3c9.5-5.4,19.1-10.6,29-15.3c4.9-2.4,9.9-4.6,14.9-6.7
					c5-2.1,10.1-4.1,15.3-5.9c10.3-3.6,20.9-6.5,31.7-7.8c-10.7,1.9-21.1,5.3-31.1,9.5c-5,2-9.9,4.3-14.8,6.7
					c-4.9,2.4-9.7,4.9-14.4,7.5c-9.5,5.2-18.8,10.8-27.8,16.7c-9.1,5.9-18,12.1-26.5,18.5L28.8,579z"/>
			</g>
			<g>
				<path class="st4" d="M27.9,558.7c8-7.6,16.2-14.8,24.7-21.8c8.5-6.9,17.1-13.6,26-19.9c4.5-3.2,9-6.2,13.6-9.1
					c4.6-2.9,9.3-5.8,14.1-8.4c9.6-5.3,19.5-9.9,30-13c-10.3,3.7-19.9,8.8-29.1,14.5c-4.6,2.9-9.1,5.9-13.5,9.1
					c-4.4,3.1-8.7,6.4-13,9.8c-8.5,6.7-16.7,13.8-24.7,21.1c-7.9,7.3-15.7,14.9-23.1,22.7L27.9,558.7z"/>
			</g>
			<g>
				<path class="st4" d="M215.8,453.4c-6.3,2.7-12.5,5.1-18.8,7.3c-6.3,2.2-12.7,4.3-19.1,6.2c-6.4,1.8-12.9,3.4-19.5,4.8
					c-6.6,1.2-13.2,2.2-19.8,2.6c6.6-1,13-2.5,19.4-4.3c6.3-1.9,12.6-4.1,18.7-6.4c6.2-2.4,12.2-5,18.2-7.8c6-2.8,11.9-5.7,17.6-8.8
					L215.8,453.4z"/>
			</g>
			<g>
				<path class="st4" d="M218.6,465.4c-6.3,2.7-12.5,5.1-18.8,7.3c-6.3,2.2-12.7,4.3-19.1,6.2c-6.4,1.8-12.9,3.4-19.5,4.8
					c-6.6,1.2-13.2,2.2-19.8,2.6c6.6-1,13-2.5,19.4-4.3c6.3-1.9,12.6-4.1,18.7-6.4c6.2-2.4,12.2-5,18.2-7.8c6-2.8,11.9-5.7,17.6-8.8
					L218.6,465.4z"/>
			</g>
			<g>
				<path class="st4" d="M219.3,477.5c-6.3,2.7-12.5,5.1-18.8,7.3c-6.3,2.2-12.7,4.3-19.1,6.2c-6.4,1.8-12.9,3.4-19.5,4.8
					c-6.6,1.2-13.2,2.2-19.8,2.6c6.6-1,13-2.5,19.4-4.3c6.3-1.9,12.6-4.1,18.7-6.4c6.2-2.4,12.2-5,18.2-7.8c6-2.8,11.9-5.7,17.6-8.8
					L219.3,477.5z"/>
			</g>
		</g>
		<g>
			<g>
				<path class="st0" d="M243.9,975.2c0,0-18,129.3-26.6,174.4c0,0,60.6,41.1,169.2-8.7c0,0,16.5-48.9,54.3-160.4L243.9,975.2z"/>
				<path class="st6" d="M226.5,1089c0,0,96,23.4,176.6,3c0,0,3.1,40.7-16.5,48.9l-170.4,21.9C216.2,1162.7,227.1,1088.9,226.5,1089
					z"/>
				<path class="st4" d="M376.8,1100.9c0,0-19.1,5.4-43.5,9.7c-4.1,0.7-3.9,6.3,0.2,6.7c6.4,0.7,13.3,1.4,20.2,1.9
					c1.6,0.1,1.6,2.3,0.1,2.4c-10.9,1.1-25.7,2.2-42.1,2.1c-3.4,0-4,4.5-0.8,5.3c24,6.3,61.4,14.6,86,13.6c0,0,2.9-35.9,6.4-49.4
					L376.8,1100.9z"/>
				<g>
					<path class="st1" d="M216.9,1164.7l3.3-21.4c49.3-11.5,183.9-16.2,199.3,38C431.8,1224.4,221.6,1217.4,216.9,1164.7z"/>
					
						<linearGradient id="SVGID_3_" gradientUnits="userSpaceOnUse" x1="7222.3154" y1="1487.5629" x2="7426.4912" y2="1487.5629" gradientTransform="matrix(-0.9963 -8.626882e-02 -8.626882e-02 0.9963 7744.9185 314.0954)">
						<stop  offset="0" style="stop-color:#52FFCE"/>
						<stop  offset="0.9948" style="stop-color:#6700E4"/>
					</linearGradient>
					<path class="st7" d="M218,1153.3c0,0,182.9-52.6,202.6,16.6C432.9,1213,222.6,1206,218,1153.3z"/>
					<path class="st4" d="M369.6,1197c0,0-59.9-69.4-128.7-49.5l-23,7.1c0,0,75.1-7.9,132.8,40.9L369.6,1197z"/>
					<path class="st4" d="M407.6,1150.4c0,0-26.7,12.2-27.8,45.4l-17.6-1.4c0,0-0.3-48.4,25.8-52.7L407.6,1150.4z"/>
				</g>
			</g>
			<g>
				<path class="st0" d="M661.1,977c0,0,29.5,127.4,42,171.7c0,0-57.1,45.7-170.5,4.5c0,0-20.9-47.4-68.6-155.6L661.1,977z"/>
				<path class="st6" d="M688.6,1089c0,0-94.2,30.8-176.8,16.7c0,0,0.5,40.8,20.9,47.4l172.8,8.5C705.4,1161.7,688,1089,688.6,1089z
					"/>
				<path class="st4" d="M538.7,1110.3c0,0,20.9,4.6,46.6,5.8c3.6,0.2,3.9,5,0.4,5.6c-5.9,1.1-12.5,2.1-19.1,2.9
					c-2.7,0.3-2.7,4,0,4.3c11.3,1.1,26.1,1.8,42.1,0.8c3.2-0.2,4.1,4,1.1,5c-23.4,8.1-61.8,20.1-87.5,21.1c0,0-6-35.5-10.8-48.8
					L538.7,1110.3z"/>
				<g>
					<path class="st1" d="M705.4,1171.1l-2.4-21.5c-49.1-13.4-184.2-23.5-202.1,30.1C486.7,1222.2,698.4,1223.5,705.4,1171.1z"/>
					
						<linearGradient id="SVGID_4_" gradientUnits="userSpaceOnUse" x1="-134.849" y1="1028.7068" x2="70.6695" y2="1028.7068" gradientTransform="matrix(0.999 -4.462019e-02 4.462019e-02 0.999 588.506 137.4895)">
						<stop  offset="0" style="stop-color:#52FFCE"/>
						<stop  offset="0.9948" style="stop-color:#6700E4"/>
					</linearGradient>
					<path class="st8" d="M704.9,1159.6c0,0-181.6-59.8-204.5,8.6C486.2,1210.8,697.9,1212.1,704.9,1159.6z"/>
					<path class="st4" d="M550.5,1197.3c0,0,63.3-66.9,131.6-44.3l22.8,8c0,0-75.1-10.9-135.3,35.6L550.5,1197.3z"/>
					<path class="st4" d="M514.3,1149.2c0,0,26.3,13.2,25.9,46.5l17.7-0.7c0,0,2.4-48.4-23.6-53.6L514.3,1149.2z"/>
				</g>
			</g>
			<path class="st4" d="M226,1094.1c0,0,13.6,7.1,27.1,11.3c2.8,0.9,2.6,4.7-0.2,5.3c-3.7,0.8-7.8,1.7-11.3,2.3
				c-2.2,0.4-2.7,3.2-0.7,4.2c3.6,1.8,8.4,4,13.5,5.7c3.1,1,2.8,5.3-0.5,5.9c-10,1.6-22.8,3.1-33.6,2.1L226,1094.1z"/>
			<polygon class="st9" points="372.9,1050.9 363.1,1098.4 403.3,1093.5 420.1,1041.9 			"/>
			<polygon class="st9" points="522.5,1051.8 532.3,1106.3 507.7,1101.6 490.7,1050 			"/>
			<path class="st4" d="M232.4,1052.4c0,0,75.3,16.2,176-10.4l-2.3,15.1c0,0,65.3,4.4,93.8,0c0,0-2.8-10.4-1.2-6.9
				c0,0,129.7,18.5,181.8-13.9c0,0-11.6-74.1-41.7-86.9c-30.1-12.7-383.3-4.6-383.3-4.6L232.4,1052.4z"/>
			<linearGradient id="SVGID_5_" gradientUnits="userSpaceOnUse" x1="255.6766" y1="826.6895" x2="647.3761" y2="826.6895">
				<stop  offset="0" style="stop-color:#52FFCE"/>
				<stop  offset="0.9948" style="stop-color:#6700E4"/>
			</linearGradient>
			<path class="st10" d="M647.4,928.5c-0.4-0.2-0.7-0.3-1.1-0.5c0-0.4-0.1-0.7-0.1-1.1c-2.1-26.1-36.9-110.6-38.2-218.7l-352.4,16.3
				c0,0,31.3,133.8,1,215.4C240.6,956.3,647.4,928.5,647.4,928.5z"/>
			<polygon class="st4" points="344.6,741.5 545.1,738.1 476.4,890.7 405.2,885.7 			"/>
			<path class="st11" d="M508.9,731.1c0,0-59.1,118.5-82.5,138.8l0,0c0,0-66.9-118.5-65.7-141.4l-45.3,0.3c0,0,50.4,147.1,92.5,184
				l38.2-3.5c0,0,52.1-60.2,108.2-180.8L508.9,731.1z"/>
			<g>
				<linearGradient id="SVGID_6_" gradientUnits="userSpaceOnUse" x1="229.9485" y1="989.1249" x2="489.5231" y2="989.1249">
					<stop  offset="0" style="stop-color:#52FFCE"/>
					<stop  offset="0.9948" style="stop-color:#6700E4"/>
				</linearGradient>
				<path class="st12" d="M489.5,969c0,0-47.7,112.9-259.6,72.3c0,0,8.5-86.9,28.6-113.1L489.5,969z"/>
				<path class="st4" d="M489.8,968.8c0,0.1,0,0.2,0,0.3l0,0.1l-0.1,0.1l-0.1,0.3l-0.2,0.5l-0.5,1c-0.3,0.7-0.6,1.4-1,2.1
					c-0.7,1.4-1.4,2.7-2.1,4c-1.5,2.6-3.1,5.2-4.8,7.7c-3.5,5-7.3,9.7-11.5,14.1c-4.2,4.4-8.6,8.6-13.4,12.4
					c-4.7,3.8-9.7,7.4-14.8,10.7c-5.1,3.3-10.5,6.2-15.9,8.9c-5.5,2.7-11.1,5.1-16.8,7.2c-5.7,2.1-11.5,4-17.3,5.7
					c-5.9,1.6-11.8,3-17.8,4.1c-23.9,4.5-48.3,4.8-72.3,3.3c-24-1.6-47.9-4.7-71.5-8.9c-0.7-0.1-1.1-0.7-1-1.4l0,0
					c0.9-9.8,2-19.5,3.2-29.3c1.3-9.7,2.7-19.5,4.5-29.2c0.9-4.8,1.9-9.7,3-14.5c1.1-4.8,2.4-9.6,3.8-14.4c1.5-4.8,3.1-9.5,5-14.2
					c2-4.6,4.3-9.3,7.4-13.6c0.8-1,2-1.5,3.2-1.3l0.1,0l29.3,4.9l14.7,2.5l14.6,2.6l14.6,2.6l14.6,2.7c9.7,1.8,19.5,3.7,29.1,5.6
					l28.9,5.7l28.6,5.8L489.8,968.8z M489.2,969.2l-59.2-8.8l-29.1-4.4l-28.9-4.5c-9.6-1.5-19.1-3.1-28.7-4.6l-14.3-2.4l-14.2-2.5
					l-14.2-2.5l-14.2-2.6l-28.5-5.3l3.3-1.3c-2.7,3.5-4.9,7.7-6.9,12c-1.9,4.3-3.6,8.8-5.1,13.4c-1.5,4.6-2.9,9.2-4.2,13.9
					c-1.3,4.7-2.5,9.4-3.6,14.1c-2.2,9.5-4.2,19.1-5.9,28.7c-1.7,9.6-3.2,19.3-4.3,29l-1-1.4c23.4,4.8,47.3,7.8,71.2,8.2
					c11.9,0.2,23.9-0.3,35.7-1.4c3-0.2,5.9-0.6,8.9-0.9c2.9-0.4,5.9-0.7,8.8-1.2c5.9-0.8,11.7-1.9,17.5-3
					c23.2-4.6,45.9-12.2,66.3-24.2c10.2-5.9,19.8-13,28.4-21.1c4.3-4.1,8.4-8.4,12.1-13c1.9-2.3,3.7-4.7,5.4-7.1
					c0.8-1.2,1.7-2.5,2.5-3.7c0.4-0.6,0.8-1.3,1.2-1.9l0.5-1l0.3-0.5l0.1-0.2l0.1-0.1c0,0,0-0.1,0,0
					C489.1,969,489.2,969.1,489.2,969.2z"/>
			</g>
			<g>
				<path class="st13" d="M234.6,1007.1c0,0,0-0.3,0.1-0.9c-3.2,19.7-4.7,35.1-4.7,35.1c211.9,40.6,259.6-72.3,259.6-72.3l-18.7-3.3
					C439.5,995.7,371.1,1033.3,234.6,1007.1z"/>
				<g>
					<path class="st4" d="M234.4,1007.2c0-0.3,0-0.7,0-1.1l0.5,0.1l-1.1,8.8c-0.4,2.9-0.7,5.9-1,8.8c-0.6,5.9-1.2,11.7-1.7,17.6
						l-1-1.3c23.6,4,47.4,6.8,71.2,7.7c3,0.1,6,0.1,8.9,0.1l4.5,0.1c1.5,0,3,0.1,4.5,0l8.9-0.2l4.5-0.1l4.5-0.3l8.9-0.5
						c3-0.3,5.9-0.6,8.9-0.9l4.5-0.4c1.5-0.2,2.9-0.4,4.4-0.6c2.9-0.5,5.9-0.8,8.8-1.3c11.7-2.1,23.4-5,34.6-9
						c11.3-4,22.1-9.1,32.3-15.4c10.2-6.3,19.6-13.7,27.9-22.3c4.1-4.3,8-8.8,11.5-13.6l1.3-1.8l1.2-1.8c0.8-1.2,1.6-2.5,2.4-3.7
						c1.5-2.5,3-5.1,4.1-7.7l1.3,2.3l-18.7-3.1l1.6-0.5c-15.1,14.7-33.3,25.9-52.7,33.9c-19.4,8-40.1,12.7-60.8,15.1
						c-10.4,1.2-20.8,1.7-31.3,1.8c-2.6,0.1-5.2,0-7.8,0c-2.6,0-5.2,0-7.8-0.2l-7.8-0.3l-7.8-0.6c-10.4-0.9-20.7-2-31-3.6
						c-5.1-0.7-10.3-1.7-15.4-2.6c-2.5-0.4-5.2-1-7.8-1.5L234.4,1007.2z M234.8,1007l7.7,1.1c2.5,0.4,5,0.8,7.6,1.1
						c5.1,0.7,10.3,1.4,15.4,1.9c10.3,1.2,20.6,2,30.9,2.5c20.6,1,41.3,0.6,61.7-2.1c20.4-2.6,40.5-7.3,59.6-14.9
						c4.7-1.9,9.5-4,14-6.3c2.3-1.1,4.5-2.4,6.8-3.6l3.3-1.9l1.7-1l1.6-1c4.4-2.7,8.6-5.6,12.6-8.7c4.1-3.1,8-6.4,11.7-9.9l0,0
						c0.4-0.4,1.1-0.6,1.6-0.5l18.7,3.5l0.1,0c0.9,0.2,1.5,1,1.3,1.9c0,0.1-0.1,0.3-0.1,0.4c-1.4,2.9-2.9,5.5-4.6,8
						c-0.8,1.3-1.7,2.5-2.6,3.8l-1.3,1.8l-1.4,1.8c-3.7,4.8-7.8,9.3-12.1,13.5c-1.1,1.1-2.2,2.1-3.3,3.1l-1.7,1.5l-1.7,1.5l-3.5,2.9
						l-3.6,2.8c-4.8,3.7-9.8,7-14.9,10.1c-10.3,6.2-21.2,11.4-32.5,15.6c-11.3,4.2-22.9,7.6-34.6,10.2c-3,0.6-5.9,1.1-8.9,1.7
						c-1.5,0.3-3,0.6-4.5,0.8l-4.5,0.6c-3,0.4-6,0.8-9,1.2l-9,0.8l-4.5,0.4l-4.5,0.2l-9,0.3c-6,0.1-12.1-0.1-18.1-0.3
						c-24.1-1-48-4.4-71.5-9.3l0,0c-0.6-0.1-1-0.7-0.9-1.3c0.7-5.9,1.6-11.7,2.5-17.6c0.5-2.9,1-5.8,1.5-8.7
						c0.5-2.9,1.1-5.8,1.6-8.7l0,0c0-0.1,0.2-0.2,0.3-0.2c0.1,0,0.2,0.2,0.2,0.3C234.9,1006.5,234.8,1006.7,234.8,1007z"/>
				</g>
			</g>
			<g>
				
					<linearGradient id="SVGID_7_" gradientUnits="userSpaceOnUse" x1="8086.2529" y1="989.1249" x2="8349.3018" y2="989.1249" gradientTransform="matrix(-1 0 0 1 8766.8662 0)">
					<stop  offset="5.181347e-03" style="stop-color:#6700E4"/>
					<stop  offset="1" style="stop-color:#52FFCE"/>
				</linearGradient>
				<path class="st14" d="M417.6,969c0,0,51.2,112.9,263,72.3c0,0-12-86.9-32-113.1L417.6,969z"/>
				<path class="st4" d="M417.9,969.2c0.1,0,0.1,0,0.2,0c0,0,0.1,0.1,0.1,0.2l0.3,0.5c0.2,0.3,0.4,0.6,0.6,1
					c0.4,0.6,0.8,1.3,1.2,1.9c0.8,1.3,1.7,2.5,2.6,3.7c0.9,1.2,1.8,2.4,2.7,3.6l1.4,1.8l1.5,1.7c3.9,4.6,8.1,8.9,12.5,12.9
					c4.5,4,9.1,7.8,13.9,11.3c4.8,3.5,9.9,6.7,15,9.7c10.3,6,21.3,10.8,32.5,14.9c2.8,1.1,5.6,1.9,8.5,2.8l4.3,1.3
					c1.4,0.4,2.9,0.8,4.3,1.1l4.3,1.1c1.4,0.4,2.9,0.8,4.3,1.1l8.8,1.9c2.9,0.6,5.9,1.1,8.8,1.6l4.4,0.8c1.5,0.2,3,0.4,4.5,0.6
					l8.9,1.2l9,0.9l4.5,0.4c1.5,0.2,3,0.2,4.5,0.3l9,0.5l2.3,0.1l2.3,0l4.5,0l9,0.1c24.1-0.4,48.2-3.5,71.9-8.3l-1.1,1.5
					c-1.6-9.7-3.4-19.4-5.5-29c-2.1-9.6-4.3-19.2-6.9-28.7c-1.3-4.7-2.6-9.5-4-14.1c-1.4-4.7-2.9-9.3-4.6-13.9
					c-1.7-4.6-3.4-9.1-5.4-13.4c-2-4.3-4.3-8.5-7.1-12.1l3.4,1.3l-28.5,5.3c-9.5,1.8-19,3.4-28.4,5.1l-14.2,2.5l-14.3,2.3
					c-9.5,1.6-19.1,3.1-28.7,4.6l-28.9,4.5l-29.1,4.4L417.9,969.2z M417.2,968.8l56.3-11.6l28.6-5.8l28.9-5.7
					c9.6-1.9,19.4-3.7,29.1-5.6l14.6-2.8l14.6-2.6c9.8-1.8,19.5-3.5,29.3-5.1l29.3-4.9l0.1,0c1.3-0.2,2.5,0.3,3.3,1.3
					c3.2,4.3,5.5,8.9,7.6,13.6c2.1,4.6,3.8,9.4,5.4,14.1c3.2,9.5,5.6,19.1,7.8,28.8c2.1,9.7,3.9,19.4,5.6,29.2
					c1.6,9.8,3.1,19.5,4.3,29.4l0,0c0.1,0.7-0.4,1.3-1.1,1.5c-23.9,4.2-48,7.3-72.3,8.8l-9.1,0.4l-4.6,0.2l-2.3,0.1l-2.3,0l-9.1,0
					c-1.5,0-3.1,0-4.6,0l-4.6-0.2c-3-0.1-6.1-0.3-9.2-0.4l-9.1-0.9c-1.5-0.2-3-0.3-4.6-0.5l-4.5-0.7l-4.5-0.7
					c-1.5-0.2-3-0.4-4.5-0.8l-9-1.9c-1.5-0.3-3-0.7-4.5-1.1l-4.4-1.2c-1.5-0.4-3-0.8-4.4-1.2l-4.4-1.4c-2.9-1-5.9-1.9-8.7-3
					c-11.5-4.2-22.7-9.7-33.1-16.1c-10.4-6.6-20.1-14.2-28.7-23c-4.3-4.4-8.2-9.1-11.8-14l-1.3-1.9l-1.3-1.9
					c-0.9-1.3-1.7-2.6-2.5-3.9c-0.8-1.3-1.5-2.6-2.2-4c-0.4-0.7-0.7-1.4-1-2c-0.2-0.3-0.3-0.7-0.5-1l-0.2-0.5c0-0.1-0.1-0.1-0.1-0.3
					C417.3,969.2,417.2,969,417.2,968.8z"/>
			</g>
			<g>
				<path class="st13" d="M670.2,1007.1c-135.5,26-205.2-10.8-237.9-40.7l-14.7,2.6c0,0,51.2,112.9,263,72.3L670.2,1007.1z"/>
				<g>
					<path class="st4" d="M670.1,1007.3l-7.6,1.7c-2.5,0.5-4.9,1.1-7.5,1.5l-7.7,1.4c-2.6,0.5-5.2,0.8-7.7,1.3
						c-5.2,0.8-10.3,1.4-15.5,2.1c-2.6,0.3-5.2,0.5-7.8,0.8c-2.6,0.3-5.2,0.5-7.8,0.7l-7.8,0.5l-7.8,0.3c-2.6,0.1-5.2,0.1-7.9,0.2
						l-3.9,0.1c-1.3,0-2.6,0-3.9-0.1c-10.5-0.2-21-0.7-31.4-2c-20.8-2.5-41.4-7.7-60.8-15.7c-19.3-8.2-37.5-19.1-53-33.1l0.6,0.2
						l-14.7,2.7l0.6-1.1c2.7,5.3,6.2,10.2,10,14.9c3.8,4.7,7.9,9.1,12.3,13.2c4.4,4,9,8,13.9,11.5c4.8,3.6,9.8,6.8,15,9.9
						c1.3,0.8,2.6,1.5,3.9,2.2l3.9,2.1c2.6,1.4,5.4,2.6,8.1,3.9c1.3,0.7,2.7,1.2,4.1,1.8l4.1,1.8c0.7,0.3,1.4,0.6,2.1,0.9l2.1,0.8
						l4.2,1.6c2.8,1.1,5.7,1.9,8.5,2.8l4.3,1.3c1.4,0.4,2.9,0.8,4.3,1.2l4.4,1.1c1.5,0.4,2.9,0.8,4.4,1.1l8.8,1.8
						c1.5,0.3,3,0.5,4.4,0.8l4.4,0.7l4.4,0.7c1.5,0.2,3,0.4,4.5,0.5l8.9,1l9,0.7l4.5,0.3c1.5,0.1,3,0.1,4.5,0.2l9,0.3l2.3,0.1l2.3,0
						l4.5,0l9,0c6-0.3,12-0.5,18.1-0.9l9-0.8l4.5-0.4c1.5-0.1,3-0.3,4.5-0.5c6-0.8,12-1.4,18-2.2l17.9-2.8l-0.9,1.4
						c-1.6-5.6-3.1-11.3-4.7-17L670.1,1007.3z M670.3,1006.9l5.7,16.8c1.9,5.7,3.9,11.4,5.7,17.2c0.2,0.6-0.1,1.2-0.7,1.4
						c0,0-0.1,0-0.1,0l0,0l-17.9,3.4c-3,0.6-6,1-9,1.4c-3,0.5-6,0.9-9,1.4c-1.5,0.2-3,0.4-4.5,0.6l-4.5,0.5l-9.1,1
						c-6.1,0.5-12.1,0.9-18.2,1.3c-24.3,1.1-48.9-0.2-72.9-4.9l-9-2c-1.5-0.3-3-0.7-4.4-1.1l-4.4-1.2c-1.5-0.4-3-0.8-4.4-1.2
						l-4.4-1.4c-2.9-1-5.8-1.8-8.7-3l-4.3-1.6l-2.1-0.8c-0.7-0.3-1.4-0.6-2.1-0.9l-4.2-1.8c-1.4-0.6-2.8-1.2-4.2-1.9
						c-2.7-1.4-5.5-2.7-8.2-4.2l-4-2.3c-1.3-0.8-2.7-1.5-3.9-2.3c-10.4-6.4-20.1-14-28.8-22.6c-4.3-4.3-8.4-8.9-12.1-13.8
						c-3.7-4.9-7.1-9.9-9.8-15.5c-0.2-0.4,0-0.9,0.4-1.1c0.1,0,0.1-0.1,0.2-0.1l0,0l14.7-2.5l0,0c0.2,0,0.4,0,0.6,0.2
						c7.6,7,16,13.2,24.9,18.5c8.9,5.4,18.4,9.7,28,13.4c19.4,7.3,39.8,11.5,60.3,14c2.6,0.3,5.1,0.6,7.7,0.8l7.7,0.7l7.8,0.4
						c2.6,0.2,5.2,0.2,7.8,0.3c10.4,0.3,20.7,0.2,31.1-0.4c10.4-0.5,20.7-1.3,31.1-2.5c2.6-0.3,5.2-0.5,7.8-0.9l7.7-1
						c2.5-0.3,5.2-0.7,7.9-1.1L670.3,1006.9z"/>
				</g>
			</g>
			<g>
				<path class="st4" d="M416.4,993.8c-57.5,0-115-11.5-170.9-34.2c-1.1-0.4-1.6-1.6-1.3-2.7c0.1-0.5,13.4-50,23.3-92.8
					c0.2-1,1.2-1.8,2.2-1.8c0.1,0,0.3,0,0.4,0c0.7,0.1,71.1,12,159.4,12c74.2,0,139.2-8.1,193.1-24.1c0.2-0.1,0.4-0.1,0.6-0.1
					c0.6,0,1.1,0.2,1.5,0.6c1.2,1.1,28.9,27.6,25,74c-0.1,0.7-0.4,1.3-0.9,1.6c-0.2,0.2-23.8,17.1-64,33.8
					C547.7,975.4,488.4,993.8,416.4,993.8z"/>
				<path class="st4" d="M623.2,852.3c0,0,28.1,26.4,24.3,72.1c0,0-92.4,67.1-231.1,67.1c-51.2,0-108.6-9.1-170.1-34.1
					c0,0,13.3-49.5,23.3-92.9c0,0,70.2,12,159.8,12C490.4,876.5,560.3,871,623.2,852.3 M623.2,847.8c-0.4,0-0.9,0.1-1.3,0.2
					c-53.7,16-118.5,24-192.4,24c-88.2,0-158.3-11.8-159-11.9c-0.3,0-0.5-0.1-0.8-0.1c-2.1,0-3.9,1.4-4.4,3.5
					c-9.9,42.8-23.1,92.3-23.3,92.8c-0.6,2.2,0.6,4.5,2.7,5.4c56.2,22.8,114,34.4,171.8,34.4c32,0,64.1-3.6,95.6-10.6
					c25.2-5.6,50-13.5,73.7-23.3c40.5-16.8,63.5-33.4,64.4-34c1.1-0.8,1.7-2,1.8-3.3c2.1-24.7-5-44-11.2-55.7
					c-6.8-12.8-14.2-19.8-14.5-20.1C625.4,848.2,624.3,847.8,623.2,847.8L623.2,847.8z"/>
			</g>
			<g>
				<path class="st4" d="M442.9,986.9c-62.8,0-126.1-15.2-188.1-45.2c-0.9-0.4-1.4-1.3-1.3-2.3c0-0.3,3.9-32.4,13.9-75.4
					c0.2-1,1.2-1.8,2.2-1.8c0.1,0,0.3,0,0.4,0c0.7,0.1,71.1,12,159.4,12c74.2,0,139.2-8.1,193.1-24.1c0.2-0.1,0.4-0.1,0.6-0.1
					c0.6,0,1.1,0.2,1.5,0.6c1.2,1.1,28.9,27.6,25,74c-0.1,0.6-0.4,1.2-0.9,1.6c-0.2,0.2-20.6,15.4-56,30.4
					C560.2,970.4,507.7,986.9,442.9,986.9z"/>
				<path class="st4" d="M623.2,852.3c0,0,28.1,26.4,24.3,72.1c0,0-79.9,60.2-204.6,60.2c-54.7,0-118.1-11.6-187.1-44.9
					c0,0,3.8-31.8,13.8-75.2c0,0,70.2,12,159.8,12C490.4,876.5,560.3,871,623.2,852.3 M623.2,847.8c-0.4,0-0.9,0.1-1.3,0.2
					c-53.7,16-118.5,24-192.4,24c-88.1,0-158.3-11.8-159-11.9c-0.3,0-0.5-0.1-0.8-0.1c-2.1,0-3.9,1.4-4.4,3.5
					c-10,43.1-13.9,75.3-13.9,75.7c-0.2,1.9,0.8,3.8,2.5,4.6c62.3,30.1,126,45.4,189.1,45.4c28.8,0,57.6-3.2,85.6-9.5
					c22.4-5.1,44.4-12.1,65.2-20.9c35.7-15.1,55.6-30,56.5-30.7c1-0.8,1.7-2,1.8-3.2c2.1-24.7-5-44-11.2-55.7
					c-6.8-12.8-14.2-19.8-14.5-20.1C625.4,848.2,624.3,847.8,623.2,847.8L623.2,847.8z"/>
			</g>
			<linearGradient id="SVGID_8_" gradientUnits="userSpaceOnUse" x1="519.2653" y1="916.866" x2="647.4798" y2="916.866">
				<stop  offset="0" style="stop-color:#52FFCE"/>
				<stop  offset="0.9948" style="stop-color:#6700E4"/>
			</linearGradient>
			<path class="st15" d="M617,859.7c0,0-37.7,11.4-97.7,13.9c0,0,37.1,5.3,62.8,8.3c4.3,0.5,5,6.4,1,7.9
				c-12.3,4.8-24.9,11.3-14.5,14.3c17.8,5.1,50.9-1.3,40.7,8.9s-68.7,14.4-59.8,18.7c8.9,4.2,53.4,3,59.8,0.4c0,0-45.3,25.4-76.7,42
				c0,0,88.1-26.7,114.8-48.3C647.5,925.7,639.8,873.8,617,859.7z"/>
			<linearGradient id="SVGID_9_" gradientUnits="userSpaceOnUse" x1="255.7915" y1="917.4554" x2="369.7433" y2="917.4554">
				<stop  offset="0" style="stop-color:#52FFCE"/>
				<stop  offset="0.9948" style="stop-color:#6700E4"/>
			</linearGradient>
			<path class="st16" d="M269.8,864.7c0,0,62.6,8.9,100,10.2c0,0-46.6,11.5-64.4,10.2s-6.4,17.8,8.9,19.1s3.8,15.3-14,16.5
				s7.6,16.5,30.5,19.1c22.9,2.5,3.8,19.1,33.1,30.5c0,0-83.9-17.8-108.1-30.5L269.8,864.7z"/>
			<polygon class="st4" points="263.4,886.9 363.9,910.5 257.1,900.3 			"/>
			<polygon class="st4" points="257.1,919.3 348.6,934.6 253.2,927 			"/>
			<polygon class="st4" points="640,881.8 515.2,925.7 646,897.3 			"/>
			<path class="st9" d="M427.1,989.1c0,0,12.3,24.4,19,30.3l9.5-7.3L427.1,989.1z"/>
		</g>
		<g>
			<circle class="st3" cx="679.3" cy="602.2" r="62.3"/>
			<path class="st4" d="M741.9,602.2c0,8.2-1.4,16.4-4.2,24.2c-2.8,7.8-7.1,15.2-12.7,21.5c-5.7,6.3-12.7,11.5-20.6,14.8
				c-7.9,3.4-16.5,5-25.1,4.8c-8.6-0.2-17-2.3-24.6-5.9c-3.8-1.8-7.5-3.9-10.8-6.4c-3.4-2.4-6.6-5.2-9.4-8.2
				c-5.8-6-10.5-12.9-13.8-20.6c-3.3-7.6-5.3-15.9-5.6-24.3c-0.3-8.4,1-17,4-25c3-8,7.8-15.3,13.8-21.5c6-6.2,13.2-11.2,21.2-14.6
				c7.9-3.4,16.6-5.1,25.3-5.1c8.7,0.1,17.3,1.9,25.2,5.4c1,0.4,1.9,0.9,2.9,1.4c1,0.5,1.9,1,2.8,1.5c0.9,0.5,1.8,1.1,2.7,1.7
				c0.9,0.6,1.8,1.2,2.6,1.8c3.5,2.5,6.6,5.4,9.4,8.6c5.7,6.3,9.9,13.7,12.7,21.5C740.6,585.7,742,594,741.9,602.2z M741.2,602.2
				c0-8.1-1.8-16.2-5.3-23.5c-3.4-7.3-8.4-13.7-14.3-18.9c-2.9-2.6-6.1-4.9-9.4-6.9c-0.8-0.5-1.7-1-2.5-1.4
				c-0.9-0.4-1.7-0.9-2.6-1.3c-0.9-0.4-1.7-0.8-2.6-1.2c-0.9-0.4-1.8-0.7-2.7-1.1c-7.2-2.8-14.8-4.2-22.5-4.1
				c-7.7,0-15.3,1.5-22.4,4.4c-7.1,2.8-13.7,7.1-19.2,12.4c-11.1,10.7-18,25.8-18.7,41.6c-0.3,7.9,0.9,15.9,3.9,23.4
				c2.9,7.4,7.5,14.3,13.2,19.9c2.9,2.8,6.1,5.2,9.4,7.3c3.4,2.1,7,3.8,10.7,5.2c7.4,2.7,15.3,3.8,23.1,3.6
				c15.5-0.5,30.6-6.4,42.4-16.9c5.9-5.2,10.9-11.6,14.3-18.9C739.5,618.4,741.2,610.3,741.2,602.2z"/>
		</g>
		<g>
			<path class="st4" d="M695.4,638.3c-17.3,5.1-35.5-4.8-40.5-22.1c-5.1-17.3,4.8-35.5,22.1-40.5c17.3-5.1,35.5,4.8,40.5,22.1
				c0,0-14.1-5.8-16-0.1s-3.2,28.6-15.3,28S695.4,638.3,695.4,638.3z"/>
			<path class="st4" d="M695.8,638.4c-0.3,0.2-0.7,0.5-1.2,0.7c-0.2,0.1-0.5,0.2-0.7,0.3l-0.6,0.2c-0.8,0.3-1.6,0.5-2.4,0.7
				c-1.6,0.4-3.3,0.7-4.9,0.8c-3.4,0.3-6.8,0-10.1-0.8c-6.7-1.6-12.9-5.5-17.4-10.9c-4.5-5.4-7.4-12.2-7.7-19.3
				c-0.3-7,1.8-14,5.4-19.6c3.7-5.7,8.7-10.3,14.5-13.5c5.8-3.1,12.5-4.7,19.3-4.5c6.8,0.3,13.7,2.6,19.2,7
				c5.6,4.3,9.8,10.4,11.9,17.2c0.6,1.9-0.4,3.9-2.3,4.5c-0.8,0.2-1.6,0.2-2.3,0l-0.2-0.1c-2.5-0.9-5.4-1.7-8-2
				c-1.2-0.2-2.5-0.1-3,0.1c-0.3,0.1-0.2,0.1-0.1,0c0.1-0.1,0.1-0.2,0.1-0.2c0,0,0,0,0,0l0,0.1l-0.1,0.2l-0.1,0.4
				c-0.3,1.3-0.6,2.8-0.9,4.3c-0.3,1.5-0.6,3-1,4.6c-0.8,3.1-1.6,6.2-3,9.3c-0.7,1.5-1.5,3.1-2.5,4.6c-1,1.5-2.3,2.9-4,4.1
				c-1.7,1.2-3.8,1.9-5.8,2c-0.5,0-1,0-1.5,0l-1-0.1c-0.3,0-0.6,0-0.7,0c-0.2,0-0.3,0-0.1-0.1c0.1-0.1,0.3-0.3,0.4-0.6
				c0.1-0.3,0.1-0.5,0.1-0.7c-0.1-0.2-0.1,0,0,0.2c0.2,0.4,0.6,1,1,1.5c0.8,1.1,1.9,2.2,3,3.2c1.1,1.1,2.2,2.1,3.3,3.1l1.7,1.5
				l0.9,0.8l0.4,0.4l0.2,0.2l0.1,0.1l0.1,0C695.7,638,695.8,638.2,695.8,638.4z M695.1,638.3c-0.1,0.1,0,0.3,0.1,0.3l-0.1,0
				l-0.1-0.1l-0.3-0.1l-0.5-0.2l-1.1-0.5l-2.1-1c-1.4-0.7-2.7-1.5-4.1-2.3c-1.3-0.8-2.7-1.7-4-2.8c-0.7-0.6-1.3-1.2-1.9-2.1
				c-0.3-0.5-0.7-1-0.8-2c-0.1-0.5-0.1-1.1,0.2-1.8c0.3-0.7,0.7-1.2,1.1-1.5c0.8-0.6,1.5-0.8,2.1-0.9c0.6-0.1,1.1-0.2,1.5-0.2
				c0.5,0,1-0.1,1.3-0.1c0.3,0,0.5,0,0.8-0.1c1-0.2,1.9-0.6,2.6-1.3c1.6-1.4,2.8-3.8,3.7-6.3c0.9-2.6,1.5-5.4,2.1-8.3l0.8-4.4
				c0.3-1.5,0.5-3,0.9-4.7l0.2-0.7l0.1-0.4l0.1-0.2l0.1-0.3c0.3-0.8,0.7-1.5,1.3-2.2c1.2-1.3,2.6-2,3.8-2.3c2.4-0.6,4.3-0.4,6.1-0.2
				c1.8,0.3,3.4,0.7,5,1.2c1.6,0.5,3.1,1,4.7,1.7l-4.9,4.4c-1.4-5.5-4.6-10.6-8.9-14.5c-4.3-3.9-9.7-6.8-15.7-7.9
				c-5.9-1.1-12.4-0.2-17.9,2.6c-2.8,1.4-5.3,3.3-7.4,5.5c-1.1,1.1-2,2.3-2.9,3.6c-0.9,1.3-1.6,2.6-2.2,4
				c-2.5,5.6-3.2,11.7-2.3,17.5c0.8,5.7,3,11.3,6.5,15.9c3.5,4.6,8.4,8.3,13.9,10.5c1.4,0.5,2.8,1,4.3,1.4c1.5,0.4,3,0.6,4.5,0.8
				c1.5,0.2,3.1,0.2,4.6,0.2c0.8,0,1.6-0.1,2.4-0.1l0.6,0c0.2,0,0.3,0,0.4,0C694.2,638.2,694.6,638.3,695.1,638.3z"/>
		</g>
		<g>
			<circle class="st3" cx="173.1" cy="602.2" r="62.3"/>
			<path class="st4" d="M111.2,602.2c0,8.1,1.8,16.2,5.2,23.5c3.4,7.3,8.4,13.7,14.3,18.9c11.8,10.5,26.9,16.4,42.4,16.9
				c7.8,0.2,15.6-0.9,23.1-3.6c3.7-1.3,7.3-3.1,10.7-5.2c3.4-2.1,6.6-4.6,9.4-7.3c5.8-5.6,10.3-12.4,13.2-19.9
				c3-7.4,4.2-15.5,3.9-23.4c-0.7-15.8-7.6-30.9-18.7-41.6c-5.6-5.3-12.1-9.6-19.2-12.4c-7.1-2.8-14.7-4.3-22.4-4.4
				c-7.7-0.1-15.3,1.3-22.5,4.1c-0.9,0.3-1.8,0.7-2.7,1.1c-0.9,0.4-1.7,0.8-2.6,1.2c-0.9,0.4-1.7,0.9-2.6,1.3
				c-0.9,0.5-1.7,1-2.5,1.4c-3.3,2-6.5,4.3-9.4,6.9c-5.9,5.2-10.9,11.6-14.3,18.9C113,585.9,111.2,594,111.2,602.2z M110.5,602.2
				c0-8.2,1.4-16.4,4.2-24.2c2.8-7.8,7.1-15.2,12.7-21.5c2.8-3.1,6-6.1,9.4-8.6c0.9-0.6,1.7-1.2,2.6-1.8c0.9-0.6,1.8-1.2,2.7-1.7
				c0.9-0.5,1.9-1.1,2.8-1.5c1-0.5,1.9-1,2.9-1.4c7.9-3.5,16.5-5.3,25.2-5.4c8.7,0,17.3,1.7,25.3,5.1c8,3.4,15.2,8.4,21.2,14.6
				c6,6.2,10.7,13.5,13.8,21.5c3.1,8,4.3,16.6,4,25c-0.3,8.4-2.3,16.7-5.6,24.3c-3.3,7.6-8,14.6-13.8,20.6c-2.9,3-6,5.7-9.4,8.2
				c-3.4,2.5-7,4.6-10.8,6.4c-7.6,3.6-16.1,5.7-24.6,5.9c-8.5,0.2-17.2-1.4-25.1-4.8c-7.9-3.4-15-8.6-20.6-14.8
				c-5.7-6.3-9.9-13.7-12.7-21.5C111.9,618.6,110.5,610.4,110.5,602.2z"/>
		</g>
		<path class="st17" d="M126.2,561.2c0,0,0.6,11.6,8.1,26.4l43.2,50.9c0,0,1.3,17-3.8,25.4c0,0,35.2-6.4,39.2-17.2
			c4-10.8-60.8-108.7-60.8-108.7L126.2,561.2z"/>
		<g>
			<path class="st4" d="M157,638.3c17.3,5.1,35.5-4.8,40.5-22.1s-4.8-35.5-22.1-40.5c-17.3-5.1-35.5,4.8-40.5,22.1
				c0,0,10.9-11.5,16.7-3.2l11.4,14c0,0-15.3,19.1,7,21L157,638.3z"/>
			<path class="st4" d="M157.3,638.3c0.4,0,0.8-0.1,1.1-0.1c0.2,0,0.2,0,0.4,0l0.6,0c0.8,0.1,1.6,0.1,2.4,0.1c1.6,0,3.1,0,4.6-0.2
				c1.5-0.2,3-0.4,4.5-0.8c1.5-0.4,2.9-0.8,4.3-1.4c5.6-2.2,10.4-5.9,13.9-10.5c3.5-4.6,5.7-10.2,6.5-15.9
				c0.8-5.7,0.1-11.9-2.4-17.4c-2.5-5.6-6.9-10.4-12.5-13.2c-5.5-2.9-12-3.8-17.9-2.7c-6,1-11.5,4-15.7,7.9c-4.3,3.9-7.4,9-8.9,14.6
				l-6-3.5c0.7-0.8,1.3-1.3,2-2c0.7-0.6,1.4-1.2,2.1-1.7c1.5-1.1,3.1-2.1,5.1-2.9c1-0.4,2-0.7,3.2-0.9c1.2-0.2,2.5-0.2,3.8,0.1
				c1.3,0.3,2.6,0.9,3.6,1.7c1.1,0.8,1.8,1.7,2.5,2.7l-0.2-0.2l2.9,3.5l2.8,3.6c1.8,2.4,3.7,4.8,5.4,7.2l0.2,0.2
				c0.9,1.3,0.8,3-0.1,4.1c-0.3,0.3-0.6,0.8-1,1.3c-0.3,0.5-0.6,0.9-0.9,1.4c-0.6,1-1.1,1.9-1.6,2.9c-0.9,1.9-1.4,4-1.1,5.5
				c0.1,0.7,0.4,1.4,0.8,1.9c0.5,0.6,1.2,1.1,2,1.6c1.7,0.9,4,1.4,6.3,1.7l0.4,0.1c1.4,0.2,2.4,1.4,2.2,2.8
				c-0.1,0.9-0.7,1.6-1.4,1.9c-1,0.5-2,1-3.1,1.5c-1.1,0.5-2.2,0.9-3.3,1.4c-1.2,0.5-2.4,1-3.7,1.6
				C160,636.8,158.7,637.5,157.3,638.3z M156.6,638.4c0.8-0.7,1.6-1.5,2.5-2.4l2.8-2.8c1-1,2-2,3.1-3c1.1-1,2.3-2,3.4-2.9l1.3,4.8
				c-2.7-0.2-5.4-0.5-8.3-1.7c-1.4-0.6-2.8-1.5-4-2.8c-1.2-1.3-2.1-3-2.4-4.7c-0.4-1.7-0.3-3.4-0.1-4.9c0.3-1.5,0.7-2.9,1.2-4.3
				c0.5-1.3,1.2-2.6,1.8-3.8c0.3-0.6,0.7-1.2,1.1-1.8c0.4-0.6,0.7-1.1,1.2-1.8l0,4.3c-2-2.2-4-4.5-6-6.8l-2.9-3.4l-2.9-3.5l0,0
				l-0.2-0.2c-0.3-0.4-0.6-0.7-0.8-0.9c-0.3-0.2-0.5-0.3-0.8-0.4c-0.5-0.2-1.5-0.1-2.6,0.3c-1.1,0.4-2.3,1.1-3.5,1.8
				c-0.6,0.4-1.2,0.8-1.7,1.3c-0.5,0.4-1.1,1-1.6,1.4l-0.2,0.2c-1.4,1.4-3.7,1.3-5-0.1c-0.9-1-1.2-2.3-0.8-3.5
				c2.2-6.8,6.4-12.9,11.9-17.1c5.6-4.3,12.4-6.6,19.2-6.9c6.8-0.3,13.5,1.3,19.3,4.3c5.9,3.1,10.9,7.7,14.6,13.4
				c3.7,5.7,5.7,12.6,5.4,19.7c-0.3,7-3.2,13.9-7.7,19.3c-4.5,5.4-10.7,9.2-17.4,10.9c-3.3,0.8-6.8,1.1-10.1,0.8
				c-1.7-0.1-3.3-0.4-4.9-0.8c-0.8-0.2-1.6-0.4-2.4-0.7l-0.6-0.2c-0.2-0.1-0.5-0.2-0.7-0.3C157.4,638.9,157,638.6,156.6,638.4z"/>
		</g>
		<path class="st0" d="M725.1,466.6c0-153.5-131-277.9-292.7-277.9S139.7,313.2,139.7,466.6c0,58.6,19.1,113,51.8,157.8
			c8.9,12.2,12.8,27.6,9.9,42.4c-0.8,3.9-1.2,7.9-1.2,11.9c0,64.7,104,117.1,232.3,117.1s232.3-52.4,232.3-117.1c0-4-0.4-8-1.2-11.9
			c-3-14.8,0.9-30.2,9.9-42.4C705.9,579.6,725.1,525.3,725.1,466.6z"/>
		<linearGradient id="SVGID_10_" gradientUnits="userSpaceOnUse" x1="198.7456" y1="496.595" x2="675.4576" y2="496.595">
			<stop  offset="0" style="stop-color:#52FFCE"/>
			<stop  offset="0.9948" style="stop-color:#6700E4"/>
		</linearGradient>
		<path class="st18" d="M203.4,493.3l43.5,9.7c0,0,6.1,10,22.6,20.2s128.9,40.1,177.2,38.2c33.1-1.3,173.7-53.2,173.7-67.2l55.1-9
			L650,431.8l-451.3,19.5L203.4,493.3z"/>
		<g>
			<linearGradient id="SVGID_11_" gradientUnits="userSpaceOnUse" x1="198.7456" y1="716.9319" x2="664.6299" y2="716.9319">
				<stop  offset="0" style="stop-color:#52FFCE"/>
				<stop  offset="0.9948" style="stop-color:#6700E4"/>
			</linearGradient>
			<path class="st19" d="M664.6,678.8c0-4-1.7-8-2.5-11.9c-0.6-3-3.4-5.9-3.5-8.9c-45,27.4-121.5,72.1-172.7,38.3
				c-59.8-39.4-130.6,8.1-130.6,8.1c-96.9-10.7-153.1-63-156.6-66.4c3.5,9.2,4.5,19.2,2.6,28.9c-0.8,3.9-1.2,7.9-1.2,11.9
				c0,64.7,104,117.1,232.3,117.1C560.6,795.9,664.6,743.5,664.6,678.8z"/>
			<g>
				<path class="st4" d="M664.3,678.8c0-3.6-1.3-7-2.2-10.6l-0.3-1.3c-0.1-0.4-0.2-0.8-0.4-1.2c-0.3-0.8-0.8-1.6-1.2-2.4
					c-0.8-1.6-1.9-3.2-1.9-5.3l0.6,0.4l-8.7,5.3l-8.7,5.3c-5.8,3.5-11.7,6.9-17.6,10.1c-11.8,6.6-23.9,12.7-36.5,18
					c-12.5,5.3-25.6,9.6-39.1,12.1c-6.8,1.2-13.7,2-20.6,2c-6.9,0-13.9-0.7-20.8-2.4c-6.8-1.6-13.5-4.3-19.6-7.8
					c-0.8-0.4-1.5-0.9-2.3-1.4l-2.2-1.3c-1.4-0.9-2.8-1.7-4.2-2.5c-2.9-1.6-5.8-3-8.8-4.3c-6-2.6-12.3-4.5-18.7-5.8
					c-6.4-1.2-13-1.9-19.5-1.9c-13.1,0-26.3,2.2-39.1,6.1c-6.4,1.9-12.6,4.3-18.7,7c-6.1,2.7-12.1,5.7-17.7,9.2l-0.1,0.1
					c-0.4,0.2-0.8,0.3-1.2,0.3c-14.4-1.8-28.6-4.7-42.6-8.4c-7-1.9-13.9-3.9-20.7-6.3c-6.8-2.3-13.6-4.8-20.3-7.7
					c-6.6-2.8-13.2-5.8-19.7-9.1c-6.5-3.2-12.8-6.7-19-10.5c-6.2-3.7-12.3-7.6-18.2-11.8c-5.9-4.2-11.6-8.6-17.1-13.5l2.5-1.6
					c2.4,6,3.7,12.5,3.9,19c0.1,3.3-0.1,6.5-0.7,9.8l-0.4,2.3c-0.1,0.8-0.2,1.5-0.3,2.3c-0.2,1.5-0.3,3-0.4,4.6
					c-0.1,1.5-0.1,3,0,4.6c0,1.5,0.2,3,0.3,4.6c0.4,3,0.9,6,1.7,9c1.6,5.9,4.1,11.5,7.2,16.7c6.2,10.5,14.9,19.5,24.5,27.3
					c9.6,7.7,20.2,14.4,31.3,20c22.2,11.3,46.1,19.1,70.4,24.6c12.2,2.7,24.5,4.8,36.9,6.4c12.4,1.6,24.9,2.7,37.4,3.2
					c12.5,0.5,25,0.6,37.5,0.2c12.5-0.4,25-1.3,37.4-2.8c12.4-1.4,24.8-3.4,37-5.9c12.3-2.5,24.4-5.6,36.3-9.3
					c11.9-3.7,23.7-8.2,35-13.6c11.3-5.4,22.2-11.6,32.2-19.2c5-3.8,9.8-7.9,14.1-12.4c4.3-4.5,8.4-9.4,11.8-14.6
					C660,703.7,664.2,691.4,664.3,678.8z M665,678.8c0,3.2-0.2,6.3-0.7,9.5c-0.5,3.1-1.2,6.2-2.2,9.3c-1.9,6.1-4.7,11.8-8,17.2
					c-6.7,10.8-15.7,20-25.5,28.1c-9.9,8-20.7,14.8-31.9,20.7c-11.3,5.9-23,10.9-34.9,15.2c-23.9,8.6-48.9,14.1-74.1,17.4
					c-12.6,1.6-25.3,2.6-38,3.2c-12.7,0.5-25.4,0.5-38.1-0.1c-12.7-0.6-25.4-1.7-38-3.3c-12.6-1.7-25.1-4-37.5-6.9
					c-24.8-5.8-49.1-14-71.8-25.9c-11.3-6-22.2-12.9-32-21.2c-9.8-8.3-18.7-18-25-29.4c-3.2-5.7-5.6-11.8-7.2-18.1
					c-0.8-3.2-1.3-6.4-1.6-9.7c-0.1-1.6-0.2-3.3-0.2-4.9c0-1.6,0-3.3,0.1-4.9c0.1-1.6,0.3-3.2,0.5-4.9c0.1-0.8,0.3-1.6,0.4-2.4
					l0.5-2.3c0.6-3,0.9-6,0.9-9.1c0-6.1-1.1-12.2-3.2-18l0,0c-0.3-0.8,0.1-1.7,0.9-2c0.6-0.2,1.2-0.1,1.6,0.3c2.5,2.4,5.3,4.8,8,7.1
					c2.8,2.3,5.6,4.5,8.5,6.6c5.8,4.2,11.7,8.2,17.8,12c12.2,7.4,25.1,14,38.3,19.4c6.6,2.8,13.4,5.2,20.2,7.5
					c6.8,2.2,13.7,4.1,20.7,5.9c13.9,3.4,28.1,5.7,42.3,7.1l-1.3,0.3c2.9-2,5.8-3.7,8.8-5.3c3-1.7,6-3.2,9.1-4.7
					c6.2-2.9,12.5-5.5,19-7.7c13-4.4,26.7-7.2,40.6-7.4c6.9-0.1,13.9,0.4,20.8,1.8c6.9,1.3,13.6,3.4,20,6.1c3.2,1.4,6.3,3,9.4,4.7
					c1.5,0.9,3,1.8,4.5,2.7l2.1,1.4c0.7,0.4,1.4,0.9,2.1,1.3c5.5,3.3,11.6,5.8,17.8,7.5c6.3,1.7,12.8,2.5,19.4,2.7
					c6.6,0.2,13.2-0.2,19.8-1.2c13.2-1.9,26.1-5.6,38.7-10.3c12.6-4.7,24.9-10.3,36.9-16.5c6-3.1,11.9-6.4,17.8-9.7
					c2.9-1.7,5.9-3.4,8.8-5.1l8.7-5.2c0.2-0.1,0.5-0.1,0.6,0.1c0,0.1,0.1,0.1,0.1,0.2c0.1,1.7,1,3.3,1.8,4.9
					c0.4,0.8,0.9,1.6,1.2,2.5c0.2,0.4,0.3,0.9,0.4,1.4l0.3,1.3C663.7,671.5,665,675,665,678.8z"/>
			</g>
		</g>
		<path class="st4" d="M239.4,666.7c0,0-41,37.5,19.5,64.5c60.5,27,127.5,20.5,147.2-6.3l33.1,3.7h28.5c0,0,16.1,0.7,28.8,14.6
			s53,30,112.8,11.5c0,0-146.4,76.7-303.9,22.2c0,0-105.4-33.7-106.6-97.4v-41.7C198.8,637.8,228.9,663.3,239.4,666.7z"/>
		<g>
			<linearGradient id="SVGID_12_" gradientUnits="userSpaceOnUse" x1="641.1014" y1="539.2219" x2="723.7827" y2="539.2219">
				<stop  offset="0" style="stop-color:#52FFCE"/>
				<stop  offset="0.9948" style="stop-color:#6700E4"/>
			</linearGradient>
			<path class="st20" d="M641.1,450.8c0,0-1.3,64.9,16.5,101.7c17.5,36.2,5.1,85.2,5.1,85.2s50.9-35.6,61-190.8
				C723.8,447,667.8,430.5,641.1,450.8z"/>
			<path class="st4" d="M641.4,451l0.9,11.7c0.3,4,0.7,7.9,1.1,11.8c0.8,7.9,1.8,15.7,2.9,23.5c1.2,7.8,2.6,15.5,4.4,23.2
				c0.9,3.8,1.9,7.6,2.9,11.3c1.1,3.7,2.3,7.4,3.7,11c0.3,0.9,0.7,1.8,1.1,2.7c0.4,0.9,0.7,1.8,1.1,2.6l1.2,2.6l1.3,2.8
				c1.6,3.8,2.8,7.7,3.9,11.7c1,4,1.7,8,2.2,12c0.5,4,0.8,8.1,0.9,12.1c0.2,8.1-0.3,16.1-1.2,24.1c-0.5,4-1,7.9-1.7,11.9
				c-0.7,3.9-1.4,7.9-2.4,11.8l-1.7-1.2c1.6-1.2,3.1-2.7,4.6-4.1c1.4-1.5,2.8-3.1,4.2-4.7c2.7-3.2,5.1-6.7,7.4-10.3
				c4.5-7.2,8.3-14.7,11.6-22.5c3.3-7.8,6.1-15.7,8.7-23.8c1.3-4,2.4-8.1,3.6-12.1c1.1-4.1,2.2-8.1,3.2-12.3
				c4.1-16.4,7-33.1,9.4-49.8c1.2-8.4,2.2-16.8,3.2-25.2c0.4-4.2,0.9-8.4,1.3-12.6c0.4-4.2,0.8-8.4,1.2-12.7l2.4,3.5
				c-3.2-1-6.7-1.9-10-2.6c-3.4-0.8-6.8-1.5-10.3-2.1c-6.9-1.2-13.8-2.1-20.8-2.5c-7-0.3-14-0.2-20.8,0.9c-3.4,0.6-6.8,1.4-10.1,2.5
				c-1.6,0.6-3.3,1.3-4.8,2C644.4,449.2,642.8,450.2,641.4,451z M640.8,450.7c1.5-1.4,2.9-2.3,4.4-3.3c1.5-1,3.1-1.8,4.8-2.6
				c3.3-1.6,6.7-2.7,10.2-3.7c3.5-0.9,7.1-1.5,10.7-2c3.6-0.4,7.2-0.7,10.8-0.7c7.2-0.1,14.5,0.4,21.6,1.3c3.6,0.5,7.1,1,10.7,1.7
				c3.6,0.7,7,1.4,10.7,2.4c1.5,0.4,2.5,1.9,2.5,3.4l0,0.1c-0.3,4.3-0.5,8.5-0.7,12.8c-0.3,4.3-0.7,8.5-1.1,12.8
				c-0.2,2.1-0.4,4.3-0.6,6.4c-0.2,2.1-0.4,4.3-0.7,6.4c-0.5,4.3-1.2,8.5-1.7,12.7c-2.5,17-6.1,33.8-10.6,50.4
				c-4.5,16.6-10.6,32.8-18.3,48.1c-3.9,7.7-8.2,15.1-13,22.2c-2.4,3.5-5,7-7.8,10.3c-2.8,3.3-5.7,6.4-9.2,9.2
				c-0.5,0.4-1.2,0.3-1.5-0.2c-0.2-0.3-0.3-0.6-0.2-0.9l0-0.1c1.8-7.6,2.7-15.5,3.2-23.4c0.2-3.9,0.3-7.9,0.2-11.8
				c-0.1-3.9-0.3-7.8-0.7-11.7c-0.8-7.8-2.2-15.4-4.4-22.8c-1.1-3.7-2.4-7.3-3.9-10.8l-2.5-5.4c-0.4-0.9-0.8-1.9-1.2-2.8
				c-0.4-0.9-0.8-1.9-1.1-2.9c-5.7-15.3-8.4-31.3-9.9-47.2c-0.8-8-1.2-16-1.3-23.9c0-4,0-8,0.1-12c0.1-2,0.1-4,0.2-6l0.2-3l0.1-1.5
				l0.1-0.7l0-0.4l0-0.2C640.8,450.9,640.8,450.8,640.8,450.7z"/>
		</g>
		<path class="st4" d="M650.4,445.8c0,0,1.5,69.3,20.6,93.4l1.3-40.7c0,0,8.3,26.1,11.4,58.5c0,0,8.3-36.2,15.3-66.1
			c0,0,5.7,51.5-10.8,89.7l-12.7-29.2c0,0,12.8,51.6-2.2,73.2c0,0,53.6-65.4,51.3-203.2L650.4,445.8z"/>
		<g>
			<linearGradient id="SVGID_13_" gradientUnits="userSpaceOnUse" x1="127.2075" y1="538.7735" x2="207.4663" y2="538.7735">
				<stop  offset="0" style="stop-color:#52FFCE"/>
				<stop  offset="0.9948" style="stop-color:#6700E4"/>
			</linearGradient>
			<path class="st21" d="M207.5,450.8c0,0-8.9,44.5-19.1,101.7c-8.5,47.6,10.2,85.2,10.2,85.2s-75-53.4-71.2-193.3
				C127.3,444.5,180.8,430.5,207.5,450.8z"/>
			<path class="st4" d="M207.8,450.7c0,0.3-0.1,0.7-0.1,0.9l-0.1,0.7l-0.2,1.5l-0.4,3l-0.8,5.9l-1.7,11.8
				c-1.2,7.9-2.4,15.7-3.6,23.5c-2.5,15.7-5.2,31.3-7.9,47c-0.6,3.9-1.4,7.9-2,11.6c-0.6,3.8-1.1,7.7-1.4,11.6
				c-0.7,7.7-0.8,15.6-0.4,23.4c0.4,7.8,1.4,15.6,3.1,23.3c0.8,3.9,1.9,7.6,3,11.4c1.2,3.7,2.6,7.5,4.2,11l0,0.1
				c0.3,0.6,0,1.2-0.5,1.5c-0.4,0.2-0.8,0.1-1.1-0.1c-7.2-5.6-13.4-12-19.3-18.7c-5.9-6.8-11.3-13.9-16.3-21.3
				c-5-7.5-9.5-15.2-13.5-23.3c-4-8.1-7.4-16.4-10.4-24.9c-5.9-17-10-34.6-12.4-52.4c-0.6-4.5-1.1-8.9-1.5-13.4
				c-0.4-4.5-0.6-9-0.8-13.4c-0.2-4.5-0.2-9-0.2-13.4c0-2.2,0.1-4.5,0.1-6.7l0.2-6.7l0-0.1c0.1-1.5,1.1-2.7,2.5-3.1
				c3.5-0.8,6.9-1.4,10.4-2c3.5-0.5,6.9-0.9,10.4-1.3c7-0.7,14-0.8,21-0.4c7,0.4,14,1.4,20.8,3.4c3.4,1,6.7,2.2,9.8,3.8
				c1.6,0.8,3.1,1.7,4.6,2.6C205,448.4,206.3,449.3,207.8,450.7z M207.1,451c-1.3-0.7-2.8-1.7-4.3-2.4c-1.5-0.8-3.1-1.4-4.7-2
				c-3.2-1.2-6.4-2.1-9.7-2.8c-6.6-1.3-13.4-1.7-20.2-1.6c-6.8,0.1-13.5,0.7-20.2,1.7c-3.4,0.5-6.7,1.1-10,1.7
				c-3.3,0.7-6.7,1.4-9.8,2.2l2.5-3.2l0,6.6l0.1,6.6c0.1,4.4,0.2,8.8,0.5,13.2c0.2,4.4,0.6,8.8,1,13.1c0.3,4.4,0.8,8.7,1.4,13.1
				c1.1,8.7,2.5,17.3,4.3,25.9c1.8,8.6,4,17.1,6.7,25.4c5.3,16.7,12.1,32.9,20.9,48.2c4.4,7.6,9.4,14.9,14.9,21.7
				c2.8,3.4,5.7,6.7,8.8,9.8c3.1,3.1,6.4,6.2,9.8,8.7l-1.7,1.4c-1.8-3.7-3.2-7.4-4.6-11.2c-1.4-3.8-2.5-7.6-3.6-11.5
				c-2.2-7.7-3.8-15.6-4.9-23.6c-0.5-4-0.9-8-1.1-12.1c-0.1-2-0.1-4-0.2-6.1c0-2,0.1-4.1,0.2-6.1c0.2-4.1,0.6-8.1,1.1-12.1
				c0.6-4.1,1.3-7.9,2.1-11.8c2.9-15.6,6-31.2,9.4-46.7c1.7-7.8,3.4-15.5,5.3-23.3c0.9-3.9,1.8-7.7,2.8-11.6l1.5-5.8l0.8-2.9
				l0.4-1.4l0.2-0.7C207,451.2,207,451.1,207.1,451z"/>
		</g>
		<path class="st4" d="M203.4,471.4c0,0-7.4,73.5-15,82.4c0,0-2.5-36.9,0-52.1c0,0-20.3,26.7-15.3,78.8c0,0-16.5-39.4-14-80.1
			c0,0-8.9,21.6-7.6,36.9c0,0-17.1-47.9-5.4-86.9L203.4,471.4z"/>
		<g>
			<linearGradient id="SVGID_14_" gradientUnits="userSpaceOnUse" x1="168.7222" y1="293.7932" x2="702.6182" y2="293.7932">
				<stop  offset="0" style="stop-color:#52FFCE"/>
				<stop  offset="0.9948" style="stop-color:#6700E4"/>
			</linearGradient>
			<path class="st22" d="M473.3,190.8c0,0,155.2-69.5,229.3,161c0,0-238.6,70.6-278,69.5c-39.4-1.2-255.9-123.9-255.9-123.9
				S315.4,98.5,473.3,190.8z"/>
			<path class="st4" d="M473.3,190.4C473.3,190.4,473.2,190.4,473.3,190.4l0.1-0.1l0.3-0.1l0.6-0.3l1.2-0.5c0.8-0.3,1.5-0.6,2.3-0.9
				c1.6-0.6,3.1-1.2,4.7-1.7c3.2-1.1,6.4-2,9.6-2.8c6.5-1.6,13-2.9,19.7-3.6c13.3-1.5,26.8-1.4,40,0.7c26.6,4.1,51.8,16.3,72.3,33.6
				c10.3,8.6,19.6,18.5,28,29c8.3,10.6,15.7,21.8,22.3,33.4c13.1,23.3,23.1,48.3,31.1,73.7l0,0.1c0.5,1.5-0.4,3.2-1.9,3.6
				c0,0-0.1,0-0.1,0c-23,6.4-46,12.7-69,18.9l-34.6,9.1l-34.6,9.1c-11.5,3-23.1,6-34.6,9c-11.5,3-23.1,5.9-34.7,8.7
				c-11.6,2.8-23.2,5.6-34.9,8.1c-2.9,0.6-5.8,1.3-8.8,1.8l-4.4,0.9l-4.4,0.8c-5.9,1-11.8,2-18,2.1c-0.8,0.1-1.6,0-2.4-0.1
				c-0.8,0-1.6-0.2-2.3-0.3c-1.5-0.2-3.1-0.5-4.5-0.9c-3-0.7-5.9-1.5-8.8-2.4c-5.8-1.8-11.4-3.8-17-6c-11.2-4.3-22.1-9.1-33-14
				c-10.9-4.9-21.7-10-32.4-15.2c-10.7-5.2-21.4-10.6-32-16c-21.3-10.8-42.4-21.9-63.4-33.2c-10.5-5.6-21-11.3-31.5-17
				c-10.5-5.7-20.9-11.5-31.3-17.4l0,0c-1.8-1-2.5-3.4-1.4-5.2c0.1-0.1,0.2-0.3,0.3-0.4c4.6-6.1,9.3-11.7,14.2-17.3
				c4.9-5.6,9.9-11.1,15.1-16.4c10.4-10.6,21.2-20.8,32.6-30.4c11.4-9.6,23.3-18.5,35.8-26.6c6.2-4,12.6-7.9,19.1-11.5
				c6.5-3.6,13.2-6.9,20-10c6.8-3,13.7-5.8,20.8-8.2c7.1-2.4,14.3-4.4,21.6-6c14.6-3.1,29.5-4.7,44.5-4.2c1.9,0.1,3.7,0.1,5.6,0.3
				l5.6,0.4c3.7,0.5,7.4,0.8,11.1,1.5c3.7,0.5,7.3,1.4,10.9,2.2c3.6,1,7.2,1.9,10.7,3c3.6,1.1,7,2.4,10.5,3.7
				c1.7,0.7,3.4,1.4,5.1,2.1l2.6,1.1l2.5,1.2l5,2.4l4.9,2.6l2.4,1.3l2.3,1.4L473.3,190.4z M473.3,191.1l-5-2.6l-2.5-1.3l-2.5-1.2
				l-5-2.4l-5.1-2.2l-2.5-1.1l-2.6-1c-1.7-0.6-3.4-1.3-5.2-1.9c-3.5-1.1-6.9-2.3-10.5-3.2c-3.5-1-7.1-1.8-10.6-2.6
				c-3.6-0.6-7.2-1.4-10.8-1.8c-3.6-0.6-7.2-0.8-10.9-1.2l-5.5-0.3c-1.8-0.1-3.6-0.1-5.5-0.1c-14.6-0.1-29.1,1.8-43.2,5.3
				c-14.1,3.6-27.9,8.5-41,14.7c-26.4,12.4-50.6,29.2-72.8,48.1c-11.1,9.5-21.7,19.5-31.8,30.1c-5,5.3-10,10.6-14.8,16.1
				c-4.8,5.5-9.5,11.1-13.8,16.8l-1.2-5.6c41.5,23.4,83.2,46.5,125.4,68.5c10.5,5.5,21.1,11,31.7,16.3c10.6,5.4,21.3,10.7,32,15.8
				c10.7,5.1,21.5,10.1,32.4,14.7c5.5,2.3,11,4.4,16.6,6.3c2.8,0.9,5.6,1.8,8.4,2.5c2.8,0.7,5.6,1.3,8.4,1.3l2.1,0l1.1,0l1.1-0.1
				l4.4-0.4c2.9-0.4,5.9-0.7,8.8-1.2l4.4-0.7l4.4-0.8c2.9-0.5,5.8-1,8.8-1.6c11.7-2.3,23.3-4.9,34.9-7.6c11.6-2.8,23.1-5.6,34.7-8.6
				c11.5-3,23-6.1,34.5-9.2c11.5-3.2,23-6.4,34.4-9.7l34.3-10.1c22.8-6.8,45.7-13.7,68.4-20.7l-2,3.7c-4.2-12.5-8.8-24.8-13.9-36.9
				c-5.1-12.1-10.9-23.9-17.2-35.4c-6.4-11.4-13.5-22.4-21.5-32.8l-3.1-3.8c-1-1.3-2-2.5-3.1-3.8l-3.2-3.7l-3.3-3.6
				c-4.5-4.7-9.1-9.3-14.1-13.6c-9.9-8.5-20.7-15.9-32.4-21.7c-11.7-5.8-24.1-10-37-12.4c-12.8-2.4-26-3.1-39.1-2
				c-6.5,0.5-13.1,1.4-19.5,2.8c-3.2,0.7-6.4,1.4-9.6,2.3c-1.6,0.4-3.2,0.9-4.7,1.4c-0.8,0.3-1.6,0.5-2.3,0.8l-1.2,0.4l-0.6,0.2
				l-0.3,0.1l-0.1,0.1C473.6,191,473.4,191.1,473.3,191.1z"/>
		</g>
		<path class="st4" d="M478.5,221.4c-2.6,0.3,100.8-41.7,154.6,47.5c0,0-33.9-44-81.1-45.7c0,0,56.7,16.2,90.5,72
			c0,0-41.8-16-85-8.4c0,0-14.6,19.2-4,17.5s66.4-5.9,90.6,11.8c0,0-78.9-7.7-133.3,16.6c0,0,11.2-22.6,21.8-24.6
			c0,0-18.9-7.3-29.4-0.3c0,0,18-35.3,53.9-41.1c0,0-20.3-4.1-57.3,11c0,0,8.7-24.9,49.2-30.7c0,0-45.7-2.9-56.2-0.6
			c0,0,23.2-13.9,51-15.1C544,231.3,506.3,218,478.5,221.4z"/>
		<path class="st3" d="M472.2,204.7c0,0,144.9-67,220.5,148.6c3.4-1,5.3-1.6,5.3-1.6c-74.1-230.5-224.7-159.8-224.7-159.8
			c-157.9-92.2-293,111.2-293,111.2s2.4,1.4,6.8,3.9C219.8,267.7,336,125.2,472.2,204.7z"/>
		<g>
			<path class="st4" d="M142.6,340c0,0,251.8,51.7,562.1-1.1c0,0,21.8,38.6,20.5,82.9c0,0-335.9,129.6-602.9,23.9
				C122.3,445.7,128.6,387.4,142.6,340z"/>
			<path class="st4" d="M142.5,339.8c0.9,0.1,1.6,0.3,2.3,0.4l2.2,0.4l4.3,0.7l8.7,1.4c5.8,0.9,11.6,1.7,17.5,2.6
				c11.6,1.6,23.3,3,35,4.3c23.4,2.7,46.8,4.8,70.2,6.4c23.5,1.6,46.9,2.9,70.4,3.6c23.5,0.8,47,1.1,70.5,1c23.5,0,47-0.6,70.5-1.5
				l17.6-0.7l17.6-0.9l8.8-0.5l8.8-0.6l17.6-1.2l17.6-1.5l8.8-0.7l8.8-0.9l17.5-1.8c5.8-0.6,11.7-1.4,17.5-2c11.7-1.3,23.3-3,35-4.6
				c5.8-0.8,11.6-1.8,17.4-2.7l17.4-2.8l0,0c0.3,0,0.6,0.1,0.7,0.3c3.5,6.4,6.3,13,8.9,19.7c2.6,6.7,4.8,13.6,6.6,20.6
				c1.8,7,3.2,14.1,4.2,21.3c1,7.2,1.4,14.4,1.3,21.7c0,0.5-0.3,0.8-0.7,1l0,0c-12,4.6-24.2,8.7-36.4,12.7
				c-12.2,3.9-24.5,7.7-36.9,11.2c-24.7,7-49.6,13.2-74.8,18.6c-50.2,10.7-101.2,18.4-152.5,22c-51.3,3.6-102.9,3-154-3.1
				c-51-6.2-101.6-18-149.3-37.3l0,0c-0.5-0.2-0.9-0.8-0.8-1.3c1.1-8.9,2.4-17.8,3.8-26.7c1.4-8.9,3-17.7,4.8-26.5
				c1.7-8.8,3.7-17.6,5.8-26.3c1.1-4.4,2.1-8.7,3.4-13.1C139.8,348.6,141.2,344.1,142.5,339.8z M142.7,340.2
				c-1.1,4.4-2.3,8.5-3.3,12.9c-1.1,4.4-2.1,8.7-3.1,13.1c-1.9,8.8-3.7,17.6-5.2,26.4c-1.5,8.8-2.9,17.7-4.2,26.6
				c-1.3,8.9-2.4,17.8-3.4,26.7l-0.8-1.3c47.8,18.4,98,29.7,148.8,35.4c50.8,5.7,102.2,6.1,153.2,2.6c25.5-1.7,51-4.4,76.3-7.9
				c25.3-3.6,50.6-8,75.6-13.2c25.1-5.2,50-11.2,74.7-17.9c12.4-3.3,24.7-6.9,36.9-10.7c12.2-3.8,24.4-7.7,36.4-12.2l-0.7,1
				c0.2-7.1-0.1-14.3-0.9-21.4c-0.4-3.6-1-7.1-1.6-10.6c-0.7-3.5-1.5-7-2.3-10.5c-1.8-6.9-3.9-13.8-6.4-20.5
				c-2.5-6.7-5.4-13.3-8.7-19.6l0.7,0.3l-17.4,2.8c-5.8,0.9-11.6,1.9-17.4,2.7c-11.7,1.7-23.3,3.5-35,4.9l-17.5,2.3l-17.5,2l-8.8,1
				l-8.8,0.9l-17.6,1.7c-46.9,4.2-94,6.7-141.1,6.7c-47.1,0.1-94.2-1.7-141.2-5.6c-23.5-2-46.9-4.4-70.3-7.4
				c-11.7-1.6-23.3-3.2-34.9-5.1c-5.8-0.9-11.6-1.9-17.4-2.9l-8.7-1.6l-4.3-0.9l-2.2-0.4C144,340.5,143.2,340.4,142.7,340.2z"/>
		</g>
		<path class="st0" d="M594.8,493.8c-33.4,12.1-114.3,40.3-154,43.2c-11.6,0.9-27.8-0.7-45.8-3.7c-6.8-1.1-13.8-2.4-21-3.9
			c-5.3-1.1-10.8-2.3-16.2-3.5c-14.6-3.3-29.2-6.9-42.7-10.5c-17.3-4.6-32.6-9-43.7-12.2c-10.3-3-16.9-12.3-15.7-22.1l14.2-123
			l0.5-4.6c0,0,13.9-2.1,36.5-4.8c4.6-0.5,9.5-1.1,14.7-1.7c6-0.6,12.5-1.3,19.3-2c69.9-6.7,177-12.3,250.3,5.3
			c0,0,14.5,81.4,17.9,122.2C610,482,604.1,490.5,594.8,493.8z"/>
		<g>
			<path class="st4" d="M515.7,516c-2.4-25.2-4.7-50.4-7-75.6c-1.1-12.6-2.2-25.2-3.3-37.8l-1.5-18.9c-0.4-6.3-1-12.6-1.1-19
				c0.4,6.3,1.2,12.6,2,18.9l2.4,18.8c1.6,12.5,3.3,25.1,5.1,37.6c3.4,25.1,7,50.1,10.6,75.2c0.3,2-1.1,3.8-3.1,4.1
				c-2,0.3-3.8-1.1-4.1-3.1C515.7,516.1,515.7,516,515.7,516z"/>
		</g>
		<path class="st4" d="M357.9,526.1c-14.6-3.3-29.2-6.9-42.7-10.5L270,358.3l0.5-4.6c0,0,13.9-2.1,36.5-4.8L357.9,526.1z"/>
		<path class="st4" d="M395.1,533.4c-6.8-1.1-13.8-2.4-21-3.9l-52.4-182.2c6-0.6,12.5-1.3,19.3-2L395.1,533.4z"/>
		<g>
			<g>
				<path class="st3" d="M665.7,824.3c0,0-38.5-29.2-66.6-25.4c-28,3.8-116.4,9.6-116.4,9.6s-8.6,98.5,8.9,104.8
					c17.5,6.4,165.4,37.1,195.4-8.8"/>
				<path class="st4" d="M665.5,824.6c-6.7-4.2-13.5-8.1-20.6-11.5c-7-3.5-14.2-6.5-21.6-8.7c-3.7-1.1-7.4-1.9-11.2-2.5
					c-3.7-0.5-7.5-0.7-11.1-0.3l-1.4,0.2l-1.5,0.2l-3,0.4c-2,0.3-3.9,0.5-5.9,0.7c-3.9,0.5-7.9,0.9-11.8,1.3
					c-15.7,1.6-31.5,2.6-47.3,3.2c-15.8,0.6-31.6,1.1-47.4,2l1.1-1.1c-0.3,3.2-0.5,6.4-0.8,9.7c-0.2,3.2-0.4,6.5-0.5,9.7
					c-0.3,6.5-0.4,12.9-0.5,19.4c0,6.5,0.2,12.9,0.5,19.4c0.3,6.4,0.9,12.9,1.7,19.2c0.9,6.3,1.9,12.7,4.1,18.3
					c0.5,1.4,1.2,2.7,1.9,3.8c0.7,1.1,1.5,1.9,2.2,2.2c0.1,0,0.2,0.1,0.2,0.1l0.5,0.2c0.3,0.1,0.7,0.2,1.1,0.3l2.3,0.6
					c1.5,0.4,3.1,0.8,4.6,1.2c6.2,1.5,12.6,2.7,18.9,3.9c6.3,1.2,12.7,2.2,19.1,3.1c25.5,3.7,51.2,6.5,76.8,6.4
					c6.4,0,12.8-0.3,19.2-0.9c6.4-0.6,12.7-1.4,18.9-2.8c3.1-0.7,6.2-1.5,9.2-2.5c3-1,6-2.2,8.8-3.6c5.6-2.8,10.9-6.6,14.8-11.8
					c0.1-0.2,0.3-0.2,0.5-0.1c0.1,0.1,0.2,0.3,0.1,0.5c-3.3,5.7-8.4,10.3-14,13.8c-2.8,1.8-5.8,3.2-8.9,4.5
					c-3.1,1.3-6.2,2.4-9.4,3.3c-6.3,1.9-12.8,3.2-19.3,4.2c-6.5,0.9-13.1,1.5-19.6,1.9c-6.6,0.3-13.1,0.4-19.7,0.3
					c-6.5-0.1-13.1-0.5-19.6-0.9c-3.3-0.2-6.5-0.5-9.8-0.8c-3.3-0.3-6.5-0.7-9.7-1.1c-6.5-0.8-13-1.7-19.4-2.8
					c-12.9-2.2-25.7-4.7-38.4-8c-1.6-0.4-3.2-0.9-4.8-1.3c-0.8-0.2-1.6-0.5-2.4-0.8c-0.4-0.1-0.8-0.3-1.2-0.4l-0.6-0.2l-0.9-0.4
					c-0.6-0.3-1-0.6-1.5-1c-0.4-0.4-0.9-0.7-1.2-1.1c-0.4-0.4-0.7-0.8-1-1.2c-0.3-0.4-0.6-0.8-0.8-1.2c-1-1.7-1.7-3.3-2.3-5
					c-1.1-3.3-1.8-6.7-2.3-10c-0.5-3.3-0.8-6.6-1.1-9.9c-0.9-13.1-0.5-26.2,0-39.2c0.5-13,1.3-25.9,2.2-38.9c0-0.6,0.5-1,1-1.1l0,0
					c15.7-1.2,31.5-3,47.1-4.7c15.7-1.7,31.4-3.3,47.1-4.6c3.9-0.4,7.9-0.7,11.8-1.1c2-0.2,3.9-0.4,5.9-0.6l2.9-0.3l1.5-0.2l1.6-0.1
					c8.5-0.6,16.7,1.3,24.3,4c7.6,2.7,14.8,6.4,21.7,10.5c6.8,4.1,13.4,8.7,19.4,13.8c0.2,0.1,0.2,0.4,0,0.5
					C665.8,824.7,665.6,824.7,665.5,824.6L665.5,824.6z"/>
			</g>
			<g>
				<path class="st0" d="M509.6,807.9c0,0,75.9-10.8,81.4-7.6c0,0,30.4,83.4-1,127.2l-74.7-12.1L509.6,807.9z"/>
				<g>
					<path class="st4" d="M527,852l65.9,8.7l-66.4-1.5c-2,0-3.6-1.7-3.5-3.7c0-2,1.7-3.6,3.7-3.5C526.7,852,526.9,852,527,852z"/>
				</g>
				<path class="st4" d="M604.2,870.2l-76.3-6.6l-3,30.8l41.3,5c3.3,0.4,4.3-4.3,1.1-5.3c-11.8-3.8-21.8-7.7-19.5-9.5
					c5.1-4.2,56.5,0.4,56.5,0.4V870.2z"/>
			</g>
		</g>
		<g>
			<g>
				<path class="st3" d="M489.1,774.5c0,0-32-36-36.7-48.5c-4.8-12.5-49.7,12.7,9.8,52.2L489.1,774.5z"/>
				<path class="st4" d="M489.1,774.5c-8.9-8.2-17.1-16.9-25-26.1c-3.9-4.7-7.7-9.3-11.1-14.5c-0.4-0.6-0.8-1.3-1.3-2
					c-0.4-0.7-0.8-1.3-1.2-2.1l-1.1-2.3c-0.2-0.5-0.2-0.5-0.3-0.6c-0.1-0.1-0.1-0.2-0.2-0.2c-0.2-0.2-0.8-0.5-1.7-0.5
					c-0.9,0-2,0.2-3.1,0.6c-2.1,0.8-4.2,2.3-5.7,4.1c-1.5,1.8-2.5,4-3,6.4c-0.9,4.7,0.8,10,3.6,14.7c2.8,4.8,6.6,9.1,10.8,13.1
					c4.2,4,8.8,7.7,13.5,11.3l-1.4-0.3c2.1-0.2,4.2-0.3,6.4-0.4l6.6-0.3c2.2-0.1,4.6-0.2,7-0.3C484.2,774.9,486.7,774.8,489.1,774.5
					z M489.1,774.5c-2,0.4-4.1,0.8-6.2,1.3l-6.5,1.5l-6.9,1.5c-2.3,0.5-4.7,1-7.1,1.4c-0.4,0.1-0.9,0-1.2-0.2l-0.2-0.1
					c-5.2-3.1-10.3-6.5-15.1-10.5c-4.7-4-9.2-8.4-12.7-13.9c-1.8-2.7-3.2-5.7-4.2-9c-1-3.3-1.3-6.9-0.7-10.5c0.6-3.6,2.2-7,4.5-9.7
					c2.3-2.8,5.3-4.9,8.8-6.1c1.8-0.6,3.6-1,5.7-0.9c1,0.1,2.1,0.2,3.3,0.7c1.1,0.4,2.2,1.1,3.1,2.1c0.4,0.5,0.8,1,1.1,1.6
					c0.3,0.5,0.6,1.3,0.7,1.4l0.8,1.8c0.3,0.6,0.7,1.2,1,1.8c0.3,0.6,0.6,1.2,1,1.9c3,5,6.3,9.9,9.7,14.8
					C475,755.1,482.2,764.7,489.1,774.5z"/>
			</g>
			<g>
				<path class="st3" d="M494.5,769.6c0,0-24.5-41.5-26.8-54.7c-2.3-13.2-51.2,3-0.4,53.1L494.5,769.6z"/>
				<path class="st4" d="M494.5,769.6c-7.1-9.7-13.6-19.9-19.5-30.4c-2.9-5.3-5.8-10.6-8.1-16.4c-0.3-0.7-0.6-1.5-0.8-2.2
					c-0.3-0.8-0.6-1.5-0.8-2.3l-0.6-2.5c-0.1-0.5-0.1-0.5-0.2-0.6c0-0.1-0.1-0.2-0.1-0.3c-0.2-0.3-0.7-0.6-1.6-0.8
					c-0.9-0.2-2-0.2-3.1,0c-2.3,0.4-4.5,1.5-6.4,3c-1.8,1.5-3.3,3.5-4.1,5.7c-1.8,4.5-1.2,9.9,0.7,15.1c1.8,5.2,4.8,10.2,8.1,14.9
					c3.4,4.7,7.1,9.3,11.1,13.7l-1.4-0.6c2.1,0.3,4.2,0.5,6.3,0.8l6.5,1c2.2,0.3,4.5,0.7,6.9,1C489.6,769.1,492,769.4,494.5,769.6z
					 M494.5,769.6c-2,0-4.2,0-6.3,0.1l-6.7,0.2l-7,0.2c-2.4,0.1-4.8,0-7.2,0c-0.5,0-0.9-0.2-1.2-0.4l-0.2-0.2
					c-4.5-4-8.9-8.3-12.8-13.1c-3.9-4.8-7.4-10.1-9.8-16.1c-1.2-3-2.1-6.2-2.4-9.7c-0.3-3.4,0.1-7,1.4-10.4c1.3-3.4,3.5-6.4,6.3-8.7
					c2.8-2.3,6.2-3.8,9.8-4.3c1.8-0.3,3.8-0.3,5.8,0.2c1,0.3,2.1,0.6,3.1,1.3c1,0.6,2,1.5,2.7,2.7c0.3,0.6,0.6,1.2,0.8,1.8
					c0.2,0.6,0.3,1.3,0.4,1.5l0.4,1.9c0.2,0.6,0.4,1.3,0.6,2c0.2,0.7,0.4,1.3,0.7,2c1.9,5.4,4.3,10.9,6.7,16.3
					C484.3,747.8,489.5,758.6,494.5,769.6z"/>
			</g>
			<g>
				<path class="st3" d="M488.8,915c-30.4-3.1-41.2-69.1-41.2-69.1s-9.7,11.8-21.7,0.3c-11.4-10.9,3.1-50.9,4.6-58.7
					c1.6-7.8,49.4-24.4,61.7-22.9c12.2,1.5,34.1,42.5,39,59.6C538,848.3,542.8,920.4,488.8,915z"/>
				<path class="st4" d="M488.8,915.3c-3.6-0.3-7.1-1.6-10.1-3.5c-3.1-1.9-5.8-4.2-8.3-6.9c-2.4-2.6-4.7-5.5-6.6-8.5
					c-2-3-3.8-6.1-5.5-9.3c-3.3-6.4-6.1-13-8.5-19.8c-2.3-6.8-4.3-13.7-5.7-20.9l6.3,1.7c-0.3,0.3-0.4,0.5-0.6,0.7
					c-0.2,0.2-0.4,0.4-0.6,0.6c-0.4,0.4-0.8,0.7-1.2,1.1c-0.8,0.7-1.7,1.3-2.6,1.9c-1.9,1.1-4,2-6.3,2.3c-2.3,0.4-4.7,0.2-6.9-0.5
					c-2.2-0.7-4.2-1.7-5.9-3c-0.9-0.6-1.7-1.3-2.4-2c-0.4-0.3-0.8-0.8-1.2-1.2c-0.4-0.5-0.8-1-1.1-1.4c-1.3-2-2.1-4.1-2.6-6.2
					c-1-4.1-1.1-8-0.9-11.8c0.4-7.6,2-14.8,3.8-21.9c0.9-3.5,1.9-7,2.9-10.5l1.5-5.2l0.7-2.5l0.3-1.2l0.2-0.6
					c0.1-0.3,0.1-0.5,0.2-0.8c0.1-0.2,0.2-0.4,0.3-0.6c0.8-1.5,1.7-2.3,2.5-3c0.8-0.7,1.7-1.3,2.5-1.9c1.6-1.1,3.3-2,5-2.9
					c3.3-1.7,6.7-3.2,10.1-4.5c6.8-2.6,13.8-4.8,20.8-6.6c3.5-0.9,7.1-1.7,10.7-2.4c3.6-0.6,7.2-1.2,11-1.2c1,0,2,0.1,3,0.4
					c1,0.3,1.9,0.8,2.8,1.3c1.7,1,3.1,2.3,4.4,3.6c2.6,2.6,4.9,5.4,7.1,8.4c2.1,2.9,4.2,5.9,6.2,8.9c2,3,3.9,6.1,5.8,9.2
					c3.8,6.2,7.4,12.5,10.5,19.1c1.5,3.3,3,6.7,4.1,10.3c1,3.6,1.8,7.2,2.4,10.8c1.2,7.3,1.8,14.6,1.6,21.9
					c-0.1,7.3-0.9,14.7-2.6,21.9c-1.7,7.2-4.5,14.2-8.6,20.4c-2.1,3.1-4.6,5.9-7.4,8.2c-2.9,2.4-6.1,4.2-9.5,5.6
					C503.4,915.6,496,916,488.8,915.3z M488.9,914.6c7.1,0.7,14.4,0.1,20.9-2.9c6.4-2.9,11.6-8.1,14.9-14.2
					c3.4-6.1,5.2-12.9,6.3-19.8c1-6.9,1.4-13.9,1.2-20.9c-0.1-7-0.7-14-1.7-20.9c-0.5-3.5-1.1-6.9-2-10.2c-0.8-3.3-1.9-6.6-3.1-9.9
					c-2.4-6.7-5.1-13.3-8.3-19.6c-3.2-6.4-6.8-12.6-11.1-18.2c-2.2-2.8-4.4-5.6-7-7.9c-1.3-1.1-2.7-2.2-4.1-3
					c-0.7-0.4-1.5-0.7-2.2-0.8c-0.7-0.1-1.5-0.2-2.3-0.1c-3.3,0.1-6.8,0.9-10.2,1.8c-3.4,0.9-6.8,1.9-10.2,3
					c-3.4,1.1-6.7,2.3-10,3.6c-3.3,1.3-6.6,2.6-9.8,4.1c-3.2,1.4-6.4,2.9-9.4,4.6c-1.5,0.8-3,1.7-4.3,2.7c-0.7,0.5-1.3,0.9-1.8,1.4
					c-0.5,0.4-0.9,1-0.9,1.1c0,0,0,0,0,0c0,0,0-0.1,0-0.1l-0.1,0.7l-0.3,1.4l-0.7,2.7l-1.4,5.2c-0.9,3.4-1.8,6.9-2.6,10.3
					c-1.6,6.9-2.8,13.8-3.2,20.5c-0.1,3.4-0.1,6.7,0.6,9.6c0.3,1.4,0.9,2.7,1.5,3.7c0.2,0.2,0.3,0.5,0.5,0.7
					c0.2,0.2,0.3,0.4,0.6,0.7c0.6,0.5,1.1,1,1.7,1.4c2.4,1.7,4.8,2.6,7.3,2.3c1.2-0.1,2.5-0.6,3.7-1.3c0.6-0.3,1.2-0.7,1.8-1.2
					c0.3-0.2,0.6-0.5,0.8-0.7l0.4-0.4l0.3-0.3l0.3-0.3c1.4-1.4,3.6-1.4,5,0c0.6,0.6,0.9,1.3,1,2c0.5,3.3,1.2,6.8,1.8,10.2
					c0.7,3.4,1.4,6.8,2.3,10.2c1.6,6.8,3.6,13.5,6.1,20c2.6,6.5,5.7,12.8,10.1,18.3c2.2,2.7,4.7,5.2,7.7,7
					C482.1,913,485.4,914.2,488.9,914.6z"/>
			</g>
			<g>
				<path class="st4" d="M459.8,858.3c-2.1-2.4-4.1-4.7-6.2-6.9c-2-2.2-4.2-4.3-6.3-6.3c-1.1-1-2.2-1.9-3.3-2.9
					c-1.2-0.9-2.3-1.9-3.5-2.7c-2.4-1.9-4.9-3.4-7.6-5.3c3.2,0.1,6.4,0.9,9.4,2.3l1.1,0.5c0.4,0.2,0.7,0.4,1.1,0.6
					c0.7,0.4,1.4,0.8,2.1,1.3c1.3,1,2.6,1.9,3.8,3c2.4,2.2,4.5,4.7,6.1,7.5C458,852.1,459.3,855.1,459.8,858.3z"/>
			</g>
			<path class="st4" d="M427.3,823.5c0,0,37.3-15.5,43.2-10.6c5.9,4.8,16.3,86.4,29.7,92.1c0,0-28.6,27.9-40-31.5
				c0,0,8.9-28.9-16.6-39.9C443.7,833.6,423.6,850.1,427.3,823.5z"/>
		</g>
		<g>
			<g>
				<path class="st3" d="M209,830c0,0,40.1-31.8,70.8-29.9s127.1,1.8,127.1,1.8s15.4,97.7-3.2,105.2c-18.6,7.5-177.4,48.2-212.9,4.4
					"/>
				<path class="st4" d="M208.8,829.8c6.5-5.7,13.5-10.7,20.7-15.4c7.3-4.6,15-8.7,23.1-11.9c8.1-3.2,16.8-5.5,26-5.4
					c1.2,0,2.2,0.1,3.3,0.1l3.2,0.1c2.1,0.1,4.3,0.1,6.4,0.2c4.3,0.1,8.5,0.2,12.8,0.3c17.1,0.2,34.2,0.8,51.3,1.5
					c17.1,0.7,34.2,1.4,51.3,1.5l0,0c0.6,0,1,0.4,1.1,1c1.9,13.6,3.7,27.2,5.1,40.8c1.3,13.7,2.5,27.4,1.9,41.3
					c-0.2,3.5-0.5,7-1.1,10.5c-0.3,1.8-0.7,3.5-1.3,5.3c-0.6,1.8-1.3,3.6-2.3,5.4c-0.5,0.9-1.2,1.8-2,2.6c-0.8,0.8-1.8,1.6-3,2.1
					l-0.4,0.2l-0.3,0.1l-0.6,0.3l-1.3,0.5l-2.5,0.9c-3.3,1.1-6.6,2.1-9.9,3.1c-13.3,3.8-26.6,7.1-40.1,9.9
					c-13.5,2.8-27.1,5.2-40.8,6.8c-13.7,1.7-27.5,2.8-41.3,3c-6.9,0-13.8-0.1-20.8-0.6c-6.9-0.6-13.8-1.4-20.6-2.9
					c-3.4-0.7-6.8-1.6-10.1-2.7c-3.3-1-6.6-2.3-9.7-3.8c-6.3-3-12.2-7.2-16.3-12.8c-0.1-0.2-0.1-0.4,0.1-0.5
					c0.2-0.1,0.4-0.1,0.5,0.1c4.6,5,10.6,8.4,16.8,10.8c3.1,1.2,6.4,2.1,9.6,2.9c3.3,0.8,6.6,1.4,9.9,1.9c6.7,1,13.4,1.4,20.2,1.6
					c6.8,0.2,13.5,0,20.3-0.3c27.1-1.4,54-5.7,80.7-10.8c6.7-1.3,13.3-2.7,20-4.2c6.6-1.5,13.3-3.1,19.8-4.8
					c3.3-0.9,6.5-1.8,9.7-2.8l2.4-0.8l1.2-0.4l0.6-0.2l0.3-0.1l0.2-0.1c0.4-0.1,0.8-0.5,1.2-0.8c0.4-0.4,0.8-0.9,1.2-1.4
					c1.5-2.3,2.5-5.4,3.2-8.6c0.7-3.2,1.2-6.5,1.6-9.8c0.7-6.7,0.9-13.5,1-20.3c0-6.8-0.2-13.6-0.6-20.4
					c-0.8-13.6-2.3-27.2-4.4-40.7l1.1,1c-17.1,0.1-34.2,0.7-51.3,1.1c-17.1,0.4-34.2,0.6-51.4,0.1c-4.3-0.1-8.6-0.3-12.9-0.5
					c-2.1-0.1-4.3-0.2-6.4-0.3l-3.2-0.2c-1.1-0.1-2.2-0.2-3.1-0.2c-4-0.2-8.1,0.2-12.1,0.9c-4,0.8-8.1,1.8-12,3.1
					c-7.9,2.7-15.7,6.2-23.2,10.1c-7.5,3.9-14.8,8.3-21.9,13.1l0,0c-0.2,0.1-0.4,0.1-0.5-0.1C208.7,830.1,208.7,829.9,208.8,829.8z"
					/>
			</g>
			<path class="st4" d="M284.2,802.2c0,0-71.4,66.4-26.3,126.3l42.6,1C300.5,929.5,273.2,821.1,284.2,802.2z"/>
			<path class="st0" d="M387.2,803.5c0,0-73.9-2.6-90.7-2.6c-16.7-0.1-57.1,95.9,1.8,128.3c0,0,89.7-14.5,91.1-17.6L387.2,803.5z"/>
			<path class="st4" d="M370.1,869.8l-102.5,6.3c0,0,0.3,30.6,18.4,44.1l82-11.5l-7.9-14.1c0,0-76.8,10.5-64.7,2.4
				c12.1-8.1,71.7-13,71.7-13L370.1,869.8z"/>
		</g>
		<g>
			<g>
				<path class="st4" d="M447.7,455.5c-0.4-2.5-1.5-10-2.5-17.5c-0.3-2.4,0.5-4.8,2.1-6.5c21.7-22.9,34.8-35.7,38.7-38.8
					c3.9-2.9,9.1-5.1,12.1-5.9c5.9-1.5,8.5-5.6-1.7-11.7c-5.3-3.1-33.7-18.2-39.6-18c-1.6,0-3.1,0.4-4.5,1
					c-2.8,1.2-5.9,2.6-21.9,30.9c0,0,0,0.1-0.1,0.1c-2.9,5.2-10.3,5.4-13.5,0.4c0,0-0.1-0.1-0.1-0.1c-17.5-27.3-20.7-28.6-23.5-29.6
					c-1.4-0.5-2.9-0.8-4.5-0.7c-5.9,0.2-15.3,4.9-32.8,14.7c-1.9,1-7.3,4.2-7.8,4.5c-5.6,4.6-8.8,10.6,0.7,12
					c0.5,0.1,1.1,0.2,1.6,0.4c2.1,0.7,7.7,2.9,11.2,5.7c4,2.8,17.8,15,40.8,36.6c1.7,1.6,2.7,4,2.5,6.4c-0.5,7.5-1.2,15.1-1.5,17.7
					c-0.5,5.2-2.3,13.3-3.9,20.5c-2.6,11.7-3.4,15.7-2.9,19.1c1.6,12.5,22.9,11.9,29.9,11.7l0,0l0.6,0c5.1-0.2,10.7-0.9,15.5-1.9
					c4.4-1,13.5-3,14.2-11.4c0.2-3.4-0.8-7.4-4-19C450.7,468.7,448.4,460.7,447.7,455.5z"/>
			</g>
			<g>
				<linearGradient id="SVGID_15_" gradientUnits="userSpaceOnUse" x1="354.4291" y1="432.5516" x2="492.5389" y2="432.5516">
					<stop  offset="0" style="stop-color:#52FFCE"/>
					<stop  offset="0.9948" style="stop-color:#6700E4"/>
				</linearGradient>
				<path class="st23" d="M482.3,383.7c4.7-1.2,10.2-2,10.2-2c-1.7-0.3-32-16.6-36.2-14.7c-4.2,1.9-31.6,51.2-31.8,55.3c0,0,0,0,0,0
					c0,0,0,0,0,0c0,0,0,0,0,0c0,0,0,0,0,0c-0.4-4.1-30.4-51.8-34.8-53.5c-4.3-1.7-33.6,16.3-35.4,16.7c0,0,5.6,0.5,10.3,1.5
					c3.7,0.7,33.9,29.1,47.6,42c1.7,1.6,2.6,3.9,2.4,6.2c-0.4,7.4-1.2,16.2-1.8,22.6c-1.1,11.5-7.3,33.4-6.8,37.4
					c0.2,1.7,10,3.6,20.5,3.2c9.7-0.3,20.2-2.7,20.3-4.4c0.3-4-7.1-25.6-8.8-37c-1-6.3-2.2-15.1-3.1-22.4c-0.3-2.3,0.5-4.6,2.1-6.3
					C450.1,414.5,478.7,384.6,482.3,383.7z"/>
			</g>
		</g>
		<path class="st4" d="M520.3,338.9l15.3,178l22.9-12.7c0,0-10.6-119.7-6.4-129.7c7.6-17.8,14.5,105.5,14.5,105.5
			s13.4-107.6-5.6-135.2L520.3,338.9z"/>
		<linearGradient id="SVGID_16_" gradientUnits="userSpaceOnUse" x1="638.5778" y1="392.426" x2="715.2215" y2="392.426">
			<stop  offset="0" style="stop-color:#52FFCE"/>
			<stop  offset="0.9948" style="stop-color:#6700E4"/>
		</linearGradient>
		<path class="st24" d="M647.1,356.7c0,0,41.2-4,52.7-4.6c0,0,14.4,32.8,15.4,60.1c0,0-30.7,17.5-68.1,20.6c0,0,37.7-21.4,45-26.7
			c0,0-48.5-0.7-20.5-13.4c26.7-12-20.2-1.1-33.1-3.4c0,0,40.7-13.5,47-19c6.4-5.6-52.3,6.1-43.8,0S686.6,360.5,647.1,356.7z"/>
		<linearGradient id="SVGID_17_" gradientUnits="userSpaceOnUse" x1="130.8879" y1="408.2236" x2="215.0966" y2="408.2236">
			<stop  offset="0" style="stop-color:#52FFCE"/>
			<stop  offset="0.9948" style="stop-color:#6700E4"/>
		</linearGradient>
		<path class="st25" d="M146.4,351.6c0,0,16.5,3.2,18.4,5.4c0,0-14,14-9.2,18.9c4.8,4.9,36.6,25.3,30.2,34.2s-48.3-8.9-30.5,7.6
			c17.8,16.5,49.6,21.6,49.6,21.6s-35.6,6.4-44.5,1.3c0,0,38.2,21.6,54.7,24.2c0,0-53.4-3.8-84.2-24.8L146.4,351.6z"/>
		<g>
			<path class="st4" d="M513,339.9c2.3,25.2,4.6,50.4,6.8,75.6c1.1,12.6,2.1,25.2,3.2,37.8l1.4,18.9c0.4,6.3,0.9,12.6,1,19
				c-0.4-6.3-1.2-12.6-1.9-18.9l-2.3-18.8c-1.6-12.5-3.3-25.1-5-37.6c-3.4-25.1-6.8-50.1-10.3-75.2c-0.3-2,1.1-3.8,3.1-4.1
				c2-0.3,3.8,1.1,4.1,3.1C513,339.8,513,339.9,513,339.9z"/>
		</g>
		<g>
			<g>
				<linearGradient id="SVGID_18_" gradientUnits="userSpaceOnUse" x1="83.021" y1="358.4083" x2="426.4502" y2="358.4083">
					<stop  offset="0" style="stop-color:#52FFCE"/>
					<stop  offset="0.9948" style="stop-color:#6700E4"/>
				</linearGradient>
				<path class="st26" d="M96,534.1c0,0,149.1-325,330.5-228.4c0,0-52.1-204.2-225-86.1S96,534.1,96,534.1z"/>
			</g>
			<path class="st3" d="M211.1,227.1c80.1-50.7,132.6-38.7,167.8-8.7c-34.6-36.3-90.9-57.9-177.4,1.2C28.5,337.7,96,534.1,96,534.1
				S48.6,329.9,211.1,227.1z"/>
			<path class="st4" d="M371,229.1c0,0-49.1-60.9-138.5-13c0,0,29.1-9.1,53.8-6.3c0,0-73.7,25.4-95.9,52.3c0,0,9.1-22.8,28.2-37
				c0,0-27.4,7.4-65.6,55.7c0,0,58.9-7.8,84.6,22.8C237.5,303.7,312.5,226.3,371,229.1z"/>
			<path class="st4" d="M97.8,513.9c0,0-15.9-96.7,18.5-168.4l-4.2,65.4l29.7-3l70-68.8c0,0-85.5,119-99.4,148.4l5.5-54.9
				C118,432.5,97.9,487.3,97.8,513.9z"/>
			<g>
				<path class="st4" d="M109.3,418.3c1.4-6.2,3-12.3,4.5-18.4c1.6-6.1,3.2-12.2,4.9-18.2c1.7-6.1,3.5-12.1,5.5-18.1
					c2-6,4-11.9,6.7-17.6c-2.1,5.9-3.5,12-4.9,18.1c-1.4,6.1-2.6,12.2-3.7,18.4c-1.1,6.2-2.2,12.3-3.2,18.5
					c-1,6.2-1.9,12.4-2.7,18.5L109.3,418.3z"/>
			</g>
			<g>
				<path class="st4" d="M122.7,417.4c1.8-6.1,3.6-12,5.5-18c1.9-6,3.9-12,5.9-17.9c2-5.9,4.2-11.8,6.4-17.7
					c2.3-5.8,4.7-11.7,7.6-17.2c-2.4,5.8-4.2,11.8-5.9,17.8c-1.7,6-3.2,12.1-4.7,18.1c-1.5,6.1-2.8,12.2-4.1,18.3
					c-1.3,6.1-2.6,12.2-3.7,18.3L122.7,417.4z"/>
			</g>
			<g>
				<path class="st4" d="M137,415.2c2.3-5.9,4.6-11.6,7-17.4c2.4-5.8,4.8-11.5,7.4-17.2c2.5-5.7,5.1-11.4,7.9-17
					c2.8-5.6,5.6-11.2,9-16.4c-2.8,5.5-5.1,11.3-7.4,17.1c-2.2,5.8-4.2,11.7-6.2,17.6c-2,5.9-3.8,11.8-5.6,17.8
					c-1.8,5.9-3.6,11.9-5.2,17.9L137,415.2z"/>
			</g>
			<g>
				<path class="st4" d="M172.3,271.6c-4,3.6-8,7.4-11.8,11.3c-3.8,3.9-7.6,8-11.2,12.1c-3.6,4.1-7.1,8.4-10.4,12.8
					c-3.4,4.4-6.4,9-9.4,13.6c2.5-5,5.1-9.9,7.9-14.6c2.9-4.8,5.9-9.5,9.1-14c3.2-4.6,6.5-9.1,9.9-13.5c3.5-4.4,7-8.7,10.8-12.9
					L172.3,271.6z"/>
			</g>
			<g>
				<path class="st4" d="M187.5,271.5c-4,3.6-8,7.4-11.8,11.3c-3.8,3.9-7.6,8-11.2,12.1c-3.6,4.1-7.1,8.4-10.4,12.8
					c-3.4,4.4-6.4,9-9.4,13.6c2.5-5,5.1-9.9,7.9-14.6c2.9-4.8,5.9-9.5,9.1-14c3.2-4.6,6.5-9.1,9.9-13.5c3.5-4.4,7-8.7,10.8-12.9
					L187.5,271.5z"/>
			</g>
			<g>
				<path class="st4" d="M204.1,268.6c-4,3.6-8,7.4-11.8,11.3c-3.8,3.9-7.6,8-11.2,12.1c-3.6,4.1-7.1,8.4-10.4,12.8
					c-3.4,4.4-6.4,9-9.4,13.6c2.5-5,5.1-9.9,7.9-14.6c2.9-4.8,5.9-9.5,9.1-14c3.2-4.6,6.5-9.1,9.9-13.5c3.5-4.4,7-8.7,10.8-12.9
					L204.1,268.6z"/>
			</g>
			<g>
				<path class="st4" d="M217.4,269.2c-4,3.6-8,7.4-11.8,11.3c-3.8,3.9-7.6,8-11.2,12.1c-3.6,4.1-7.1,8.4-10.4,12.8
					c-3.4,4.4-6.4,9-9.4,13.6c2.5-5,5.1-9.9,7.9-14.6c2.9-4.8,5.9-9.5,9.1-14c3.2-4.6,6.5-9.1,9.9-13.5c3.5-4.4,7-8.7,10.8-12.9
					L217.4,269.2z"/>
			</g>
			<g>
				<path class="st4" d="M230.6,269.8c-4,3.6-8,7.4-11.8,11.3c-3.8,3.9-7.6,8-11.2,12.1c-3.6,4.1-7.1,8.4-10.4,12.8
					c-3.4,4.4-6.4,9-9.4,13.6c2.5-5,5.1-9.9,7.9-14.6c2.9-4.8,5.9-9.5,9.1-14c3.2-4.6,6.5-9.1,9.9-13.5c3.5-4.4,7-8.7,10.8-12.9
					L230.6,269.8z"/>
			</g>
			<g>
				<path class="st4" d="M241.8,270.9c-4,3.6-8,7.4-11.8,11.3c-3.8,3.9-7.6,8-11.2,12.1c-3.6,4.1-7.1,8.4-10.4,12.8
					c-3.4,4.4-6.4,9-9.4,13.6c2.5-5,5.1-9.9,7.9-14.6c2.9-4.8,5.9-9.5,9.1-14c3.2-4.6,6.5-9.1,9.9-13.5c3.5-4.4,7-8.7,10.8-12.9
					L241.8,270.9z"/>
			</g>
			<g>
				<path class="st4" d="M249.4,274.8c-4,3.6-8,7.4-11.8,11.3c-3.8,3.9-7.6,8-11.2,12.1c-3.6,4.1-7.1,8.4-10.4,12.8
					c-3.4,4.4-6.4,9-9.4,13.6c2.5-5,5.1-9.9,7.9-14.6c2.9-4.8,5.9-9.5,9.1-14c3.2-4.6,6.5-9.1,9.9-13.5c3.5-4.4,7-8.7,10.8-12.9
					L249.4,274.8z"/>
			</g>
			<g>
				<path class="st4" d="M258.2,280.7c-4,3.6-8,7.4-11.8,11.3c-3.8,3.9-7.6,8-11.2,12.1c-3.6,4.1-7.1,8.4-10.4,12.8
					c-3.4,4.4-6.4,9-9.4,13.6c2.5-5,5.1-9.9,7.9-14.6c2.9-4.8,5.9-9.5,9.1-14c3.2-4.6,6.5-9.1,9.9-13.5c3.5-4.4,7-8.7,10.8-12.9
					L258.2,280.7z"/>
			</g>
			<path class="st3" d="M127.6,306.4c0,0-12.4,43,1.6,27.6c14-15.3,39.3-37.3,39.3-37.3s-25.1,46.9-11.7,37.3s32.6-29.8,32.6-29.8
				s-21,43.3-9.6,34.3s46.5-45.8,8.8,13.7c0,0,12.1-30.4-16,8.1s0.1-32.1,0.1-32.1s-40.2,44.6-29.2,2.1c0,0-29,51.3-30.2-1.5
				L127.6,306.4z"/>
			<g>
				<path class="st4" d="M183.3,260.1c1.2-1.3,2.3-2.4,3.5-3.6c1.2-1.2,2.3-2.2,3.5-3.4c2.4-2.2,4.8-4.3,7.4-6.3
					c5-4,10.3-7.7,15.7-11.1c1.4-0.9,2.7-1.7,4.1-2.5l4.2-2.3c2.9-1.4,5.7-2.9,8.6-4.2c5.8-2.7,11.8-4.7,17.9-6.5
					c-5.8,2.4-11.6,5-17,8.2c-2.8,1.5-5.4,3.2-8,4.9l-3.9,2.7c-1.3,0.9-2.5,1.8-3.8,2.8c-5,3.8-9.7,7.8-14.2,12.2
					c-2.2,2.2-4.4,4.4-6.5,6.7c-1,1.2-2.1,2.3-3,3.5c-1,1.2-2,2.4-2.8,3.5L183.3,260.1z"/>
			</g>
		</g>
		<g>
			<linearGradient id="SVGID_19_" gradientUnits="userSpaceOnUse" x1="187.1809" y1="372.3661" x2="457.5512" y2="372.3661">
				<stop  offset="0" style="stop-color:#52FFCE"/>
				<stop  offset="0.9948" style="stop-color:#6700E4"/>
			</linearGradient>
			<path class="st27" d="M457.6,324.1c0,0-207.1-19.7-265.5,200.3c0,0-50-293.3,169.3-303.9C361.4,220.4,446.1,227.5,457.6,324.1z"
				/>
			<path class="st3" d="M368.9,232.1c0,0,44.8,3.8,73.6,42.9c-27.7-50.1-81.1-54.7-81.1-54.7c-219.3,10.7-169.3,303.9-169.3,303.9
				C193.5,519.2,172.2,226.8,368.9,232.1z"/>
			<path class="st4" d="M441.2,295.5c0,0-26.3-76.2-110.2-64.1c0,0,39.5,6.4,54.7,25.1c0,0-29.6-23.6-69.3,1.3c0,0,23.9-2.8,46,9.1
				c0,0-36.8-7.3-72.5,27.4l31-3.4l-63.3,83.1C257.6,374.1,361.6,286,441.2,295.5z"/>
			<path class="st4" d="M194.6,504c0,0-4-125.4,33.5-185.6c0,0-12.4,50.8,2.9,53.8s63.9-27,63.9-27S210.3,411.5,194.6,504z"/>
			<g>
				<path class="st4" d="M211.3,367c2.6-5.8,5.4-11.3,8.3-16.8c2.9-5.5,6-10.9,9.2-16.2c3.2-5.3,6.7-10.5,10.3-15.5
					c3.7-5,7.6-9.8,11.8-14.3c-3.7,4.9-7.1,10-10.2,15.3c-3.1,5.3-5.9,10.7-8.6,16.2c-2.6,5.5-5.1,11.1-7.4,16.8
					c-2.3,5.6-4.5,11.4-6.4,17.1L211.3,367z"/>
			</g>
			<g>
				<path class="st4" d="M216.8,379.4c2.6-5.8,5.4-11.3,8.3-16.8c2.9-5.5,6-10.9,9.2-16.2c3.2-5.3,6.7-10.5,10.3-15.5
					c3.7-5,7.6-9.8,11.8-14.3c-3.7,4.9-7.1,10-10.2,15.3c-3.1,5.3-5.9,10.7-8.6,16.2c-2.6,5.5-5.1,11.1-7.4,16.8
					c-2.3,5.6-4.5,11.4-6.4,17.1L216.8,379.4z"/>
			</g>
			<g>
				<path class="st4" d="M226.6,382.6c3.1-5.5,6.3-10.7,9.7-15.9c3.4-5.2,6.9-10.2,10.5-15.2c3.7-4.9,7.5-9.7,11.6-14.4
					c4.1-4.6,8.4-9,13-13.1c-4.2,4.5-8,9.3-11.5,14.2c-3.5,5-6.8,10.1-10,15.3c-3.1,5.2-6.1,10.5-8.9,15.9
					c-2.8,5.4-5.5,10.9-7.9,16.3L226.6,382.6z"/>
			</g>
			<g>
				<path class="st4" d="M234.4,392.6c3.2-5.4,6.5-10.6,9.9-15.7c3.4-5.1,7-10.1,10.8-15c3.8-4.9,7.7-9.6,11.8-14.2
					c4.2-4.5,8.5-8.9,13.1-12.9c-4.2,4.4-8.1,9.1-11.7,14c-3.6,4.9-7,10-10.2,15.1c-3.2,5.2-6.2,10.4-9.1,15.8
					c-2.9,5.3-5.6,10.8-8.1,16.2L234.4,392.6z"/>
			</g>
			<path class="st3" d="M291.9,246.8c0,0-31.8,35.7-10.2,26.7s50.8-21.7,29.6-3.4s-46.8,40.4-26.7,34.2c20.1-6.3,24.1-6.1,9.8,12.2
				c0,0,2.4-11.3-27,4.9s20.7-40.5,20.7-40.5s-49.9,33.2-34.3-2.2L291.9,246.8z"/>
		</g>
		<g>
			<linearGradient id="SVGID_20_" gradientUnits="userSpaceOnUse" x1="520.4827" y1="372.6552" x2="690.5375" y2="372.6552">
				<stop  offset="0" style="stop-color:#52FFCE"/>
				<stop  offset="0.9948" style="stop-color:#6700E4"/>
			</linearGradient>
			<path class="st28" d="M520.5,330.6c0,0,52-103.2,130.5-30.5s16.1,171.1,16.1,171.1S664.1,335.3,520.5,330.6z"/>
			<path class="st4" d="M532.8,327.4c0,0,31-51,78.5-35.9c0,0-20.7,0-32.4,6.7c0,0,40.5-9,56.7,9.2c0,0-23.8-10.6-49.4,0.7
				c0,0,43.3-1.1,51.4,17.3L532.8,327.4z"/>
			<path class="st3" d="M648.1,310.3c43.6,40.4,43.7,88.8,35.2,123.8C694.2,398.8,699,344.5,651,300
				c-78.4-72.6-130.5,30.5-130.5,30.5c1.1,0,2.1,0.1,3.2,0.2C539.5,306.7,585.4,252.2,648.1,310.3z"/>
			<path class="st4" d="M666.7,469.1c0,0,11.8-51.4-11.8-97c0,0,18.4,22,22.5,38.2c0,0-0.5-33.7-11.8-59.3
				C665.7,351,705.7,396.7,666.7,469.1z"/>
			<path class="st3" d="M653.6,313.1c0,0,5.5,7.7-26.8-5.9c0,0,19.7,9.6,24.7,28.8c5,19.3-11.1-12-32.3-2.1
				c-21.1,9.9,19.4-4.5,34.1,51.8c0,0,3.1-19.4-7.7-36c0,0,16.8,10.9,23.9,33.4c0,0,0-28.4-10.4-48.8c-10.3-20.5,16,6.3,16,6.3
				S664,322.6,653.6,313.1z"/>
		</g>
		<g>
			<linearGradient id="SVGID_21_" gradientUnits="userSpaceOnUse" x1="255.2359" y1="380.8745" x2="478.407" y2="380.8745">
				<stop  offset="0" style="stop-color:#52FFCE"/>
				<stop  offset="0.9948" style="stop-color:#6700E4"/>
			</linearGradient>
			<path class="st29" d="M478.4,336.4c0,0-123.1,10.4-223.2,149.1C255.2,485.5,291.2,140.6,478.4,336.4z"/>
			<path class="st3" d="M474.3,336.9c2.7-0.4,4.1-0.5,4.1-0.5C291.2,140.6,255.2,485.5,255.2,485.5C259.1,480.2,307,163,474.3,336.9
				z"/>
			<path class="st4" d="M260.9,469.8c0,0,19.1-91.2,41.1-118.7c0,0,13.2,30.1,29.5,29.8c16.3-0.3,32.7-23.6,54.6-24.4
				C386.1,356.4,305.5,405.4,260.9,469.8z"/>
			<g>
				<path class="st4" d="M290.5,376.3c0.6-1.7,1.1-3.2,1.7-4.7c0.6-1.5,1.2-3.1,1.9-4.6c1.3-3,2.7-6,4.3-8.8
					c3-5.8,6.5-11.4,10.4-16.6c3.9-5.2,8.2-10.1,13-14.5c4.8-4.4,10.1-8.1,15.9-11c-5.4,3.5-10.3,7.6-14.6,12.3
					c-4.3,4.7-8,9.8-11.3,15.2c-3.3,5.4-6.1,11.1-8.5,16.9c-1.2,2.9-2.3,5.9-3.3,8.8c-0.5,1.5-1,3-1.4,4.5c-0.4,1.5-0.8,3-1.2,4.4
					L290.5,376.3z"/>
			</g>
			<g>
				<path class="st4" d="M296.2,384.2c0.6-1.7,1.1-3.2,1.7-4.7c0.6-1.5,1.2-3.1,1.9-4.6c1.3-3,2.7-6,4.3-8.8
					c3-5.8,6.5-11.4,10.4-16.6c3.9-5.2,8.2-10.1,13-14.5c4.8-4.4,10.1-8.1,15.9-11c-5.4,3.5-10.3,7.6-14.6,12.3
					c-4.3,4.7-8,9.8-11.3,15.2c-3.3,5.4-6.1,11.1-8.5,16.9c-1.2,2.9-2.3,5.9-3.3,8.8c-0.5,1.5-1,3-1.4,4.5c-0.4,1.5-0.8,3-1.2,4.4
					L296.2,384.2z"/>
			</g>
			<g>
				<path class="st4" d="M301.9,392.2c0.6-1.7,1.1-3.2,1.7-4.7c0.6-1.5,1.2-3.1,1.9-4.6c1.3-3,2.7-6,4.3-8.8
					c3-5.8,6.5-11.4,10.4-16.6c3.9-5.2,8.2-10.1,13-14.5c4.8-4.4,10.1-8.1,15.9-11c-5.4,3.5-10.3,7.6-14.6,12.3
					c-4.3,4.7-8,9.8-11.3,15.2c-3.3,5.4-6.1,11.1-8.5,16.9c-1.2,2.9-2.3,5.9-3.3,8.8c-0.5,1.5-1,3-1.4,4.5c-0.4,1.5-0.8,3-1.2,4.4
					L301.9,392.2z"/>
			</g>
			<g>
				<path class="st4" d="M306.7,396.6c0.7-1.6,1.4-3,2.2-4.5c0.8-1.5,1.6-2.9,2.4-4.3c1.6-2.8,3.3-5.6,5.2-8.3
					c3.6-5.4,7.6-10.5,12-15.2c4.4-4.7,9.2-9.1,14.5-12.8c5.2-3.7,10.9-6.8,16.9-9c-5.7,2.8-11,6.3-15.8,10.4
					c-4.8,4.1-9,8.8-12.8,13.7c-3.8,5-7.2,10.3-10.2,15.7c-1.5,2.7-2.9,5.5-4.2,8.4c-0.6,1.4-1.3,2.8-1.8,4.3
					c-0.6,1.4-1.2,2.9-1.6,4.2L306.7,396.6z"/>
			</g>
			<g>
				<path class="st4" d="M314,400.3c0.9-1.5,1.7-2.8,2.7-4.2c0.9-1.4,1.8-2.7,2.8-4c1.9-2.6,3.9-5.2,6-7.6
					c4.2-4.9,8.7-9.6,13.5-13.8c4.9-4.2,10.1-8,15.7-11c5.6-3.1,11.6-5.5,17.7-7c-6,2.1-11.6,5-16.7,8.5c-5.2,3.5-9.9,7.6-14.2,12.1
					c-4.3,4.5-8.2,9.3-11.7,14.4c-1.8,2.5-3.4,5.2-5,7.8c-0.8,1.3-1.5,2.7-2.3,4c-0.7,1.3-1.4,2.7-2,4L314,400.3z"/>
			</g>
			<path class="st4" d="M467.6,331.8c0,0-43.9,0.7-71.5,17.2c0,0,20.8-22.7,36-25.1c0,0-19.4-9-51.4-1.5c0,0,15.5-16.2,37-15.4
				c0,0-25.9-17.5-60-5.8C357.7,301.2,402.3,260.5,467.6,331.8z"/>
			<path class="st3" d="M303.7,336.2c0,0,17.6-40.4,60.7-49.4l-24.5,21.9c0,0,28.4-8.2,59.5-4.8c0,0-25.3,9.1-35.5,23.5l46.8-0.6
				l-25.1,22.1l6.1-13.5c0,0-31.7-2.6-52.2,10.1c0,0,16.3-24,31-33.2c0,0-29.4,6.1-45.2,20.9c0,0-0.6-15.2,10.4-28.9L303.7,336.2z"
				/>
		</g>
		<g>
			<linearGradient id="SVGID_22_" gradientUnits="userSpaceOnUse" x1="515.6348" y1="412.5935" x2="647.3871" y2="412.5935">
				<stop  offset="0" style="stop-color:#52FFCE"/>
				<stop  offset="0.9948" style="stop-color:#6700E4"/>
			</linearGradient>
			<path class="st30" d="M515.6,335.7c0,0,109,28.2,76.3,174.5C591.9,510.1,757.9,239.7,515.6,335.7z"/>
			<path class="st4" d="M594.5,504.6c0,0,10-42.7,12.7-89.9c0,0,4.2,16.3,6.1,26.6c0,0,6.7-14.5,9.5-29.5
				C622.7,411.9,621.5,458.6,594.5,504.6z"/>
			<path class="st4" d="M518.6,335.8c0,0,66-30.8,101.3,0.4c0,0-42.4-2.1-33,17.8c0,0,14.2,17.5,13,48.4
				C599.8,402.5,591.1,359.9,518.6,335.8z"/>
			<path class="st3" d="M515.6,335.7c0,0,4.1,1.1,10.5,3.8c196.3-73.7,67.5,163.2,65.8,170.6C591.9,510.1,757.9,239.7,515.6,335.7z"
				/>
			<g>
				<path class="st4" d="M574.7,337.8c0.6,0.1,0.9,0.2,1.3,0.3c0.4,0.1,0.8,0.2,1.2,0.3c0.8,0.2,1.5,0.4,2.3,0.7
					c1.5,0.5,3,1.1,4.4,1.8c2.8,1.3,5.5,3,8,4.9c4.9,3.9,8.8,9,11.2,14.6c2.4,5.6,3.4,11.6,3.6,17.5c0.2,5.9-0.5,11.7-1.7,17.4
					c0.6-5.8,0.7-11.6-0.1-17.3c-0.8-5.7-2.3-11.2-5-16c-2.7-4.8-6.5-8.9-11.1-11.7c-2.3-1.4-4.7-2.6-7.2-3.5
					c-1.3-0.4-2.5-0.8-3.8-1.1c-0.6-0.1-1.3-0.3-1.9-0.4c-0.3-0.1-0.6-0.1-0.9-0.1c-0.3,0-0.7-0.1-0.8-0.1L574.7,337.8z"/>
			</g>
			<g>
				<path class="st4" d="M583.6,330.8c0.6,0.1,0.9,0.2,1.3,0.3c0.4,0.1,0.8,0.2,1.2,0.3c0.8,0.2,1.5,0.4,2.3,0.7
					c1.5,0.5,3,1.1,4.4,1.8c2.8,1.3,5.5,3,8,4.9c4.9,3.9,8.8,9,11.2,14.6c2.4,5.6,3.4,11.6,3.6,17.5c0.2,5.9-0.5,11.7-1.7,17.4
					c0.6-5.8,0.7-11.6-0.1-17.3c-0.8-5.7-2.3-11.2-5-16c-2.7-4.8-6.5-8.9-11.1-11.7c-2.3-1.4-4.7-2.6-7.2-3.5
					c-1.3-0.4-2.5-0.8-3.8-1.1c-0.6-0.1-1.3-0.3-1.9-0.4c-0.3-0.1-0.6-0.1-0.9-0.1c-0.3,0-0.7-0.1-0.8-0.1L583.6,330.8z"/>
			</g>
			<g>
				<path class="st4" d="M593.6,327.9c0.6,0.1,0.9,0.2,1.3,0.3c0.4,0.1,0.8,0.2,1.2,0.3c0.8,0.2,1.5,0.4,2.3,0.7
					c1.5,0.5,3,1.1,4.4,1.8c2.8,1.3,5.5,3,8,4.9c4.9,3.9,8.8,9,11.2,14.6c2.4,5.6,3.4,11.6,3.6,17.5c0.2,5.9-0.5,11.7-1.7,17.4
					c0.6-5.8,0.7-11.6-0.1-17.3c-0.8-5.7-2.3-11.2-5-16c-2.7-4.8-6.5-8.9-11.1-11.7c-2.3-1.4-4.7-2.6-7.2-3.5
					c-1.3-0.4-2.5-0.8-3.8-1.1c-0.6-0.1-1.3-0.3-1.9-0.4c-0.3-0.1-0.6-0.1-0.9-0.1c-0.3,0-0.7-0.1-0.8-0.1L593.6,327.9z"/>
			</g>
			<path class="st3" d="M618.8,328.9c0,0,22.6,44.2,12.2,64.7c-10.4,20.5-9.4-30.6-9.4-30.6s-4.3,32.3-7.7,35.5s-9.4,1.6-10.9-22.5
				c0,0-4.4,43.3-1.7,56.2l7.6-24.6c0,0,6.4,26,11.5,3.8c5-22.2,2.7,20.5,13.9,0.9s7.8-59.6,7.8-59.6L618.8,328.9z"/>
		</g>
		<g>
			<g>
				<path class="st3" d="M385.8,777.5c0,0,28.9-38.5,32.6-51.4s50.5,8.6-5.4,52.8L385.8,777.5z"/>
				<path class="st4" d="M385.8,777.5c6.1-10.4,12.5-20.5,18.5-30.8c3-5.1,5.9-10.3,8.5-15.5c0.3-0.6,0.6-1.3,0.9-1.9
					c0.3-0.6,0.6-1.3,0.8-1.9l0.6-1.8c0.1-0.2,0.3-0.9,0.5-1.5c0.3-0.6,0.6-1.1,1-1.7c0.8-1,1.9-1.8,2.9-2.4
					c1.1-0.5,2.2-0.8,3.2-0.9c2.1-0.3,4,0,5.8,0.4c3.6,0.9,6.7,2.8,9.3,5.4c2.5,2.6,4.5,5.8,5.3,9.3c0.9,3.5,0.9,7.1,0.2,10.5
					c-0.7,3.4-1.9,6.5-3.4,9.3c-3,5.7-7.1,10.6-11.5,14.9c-4.4,4.3-9.2,8.2-14.2,11.7l-0.2,0.1c-0.4,0.3-0.8,0.4-1.2,0.3
					c-2.4-0.3-4.8-0.5-7.2-0.8l-7-1l-6.6-0.9C389.9,778,387.8,777.7,385.8,777.5z M385.8,777.5c2.5,0,4.9,0,7.3-0.1
					c2.4,0,4.7-0.2,7-0.2l6.6-0.3c2.2-0.1,4.3-0.1,6.4-0.1l-1.4,0.4c4.4-3.9,8.7-8,12.5-12.4c3.8-4.4,7.3-9,9.7-14
					c2.4-4.9,3.6-10.3,2.3-14.9c-0.6-2.3-1.8-4.4-3.5-6.1c-1.7-1.7-3.8-3-6-3.6c-1.1-0.3-2.2-0.4-3.1-0.3c-0.9,0.1-1.5,0.4-1.7,0.6
					c-0.1,0.1-0.1,0.1-0.2,0.2c-0.1,0.1-0.1,0.1-0.3,0.6l-0.9,2.4c-0.3,0.8-0.7,1.4-1,2.2c-0.4,0.7-0.7,1.4-1.1,2.1
					c-3,5.5-6.4,10.4-9.9,15.4C401.4,759.2,393.9,768.6,385.8,777.5z"/>
			</g>
			<g>
				<path class="st3" d="M378.8,771.7c0,0,28.9-38.5,32.6-51.4c3.7-12.9,50.5,8.6-5.4,52.8L378.8,771.7z"/>
				<path class="st4" d="M378.8,771.7c6.1-10.4,12.5-20.5,18.5-30.8c3-5.1,5.9-10.3,8.5-15.5c0.3-0.6,0.6-1.3,0.9-1.9
					c0.3-0.6,0.6-1.3,0.8-1.9l0.6-1.8c0.1-0.2,0.3-0.9,0.5-1.5c0.3-0.6,0.6-1.1,1-1.7c0.8-1,1.9-1.8,2.9-2.4
					c1.1-0.5,2.2-0.8,3.2-0.9c2.1-0.3,4,0,5.8,0.4c3.6,0.9,6.7,2.8,9.3,5.4c2.5,2.5,4.5,5.8,5.3,9.3c0.9,3.5,0.9,7.1,0.2,10.5
					c-0.7,3.4-1.9,6.5-3.4,9.3c-3,5.7-7.1,10.6-11.5,14.9c-4.4,4.3-9.2,8.2-14.2,11.7l-0.2,0.1c-0.4,0.3-0.8,0.4-1.2,0.3
					c-2.4-0.3-4.8-0.5-7.2-0.8l-7-1l-6.6-0.9C382.9,772.2,380.9,771.9,378.8,771.7z M378.8,771.7c2.5,0,4.9,0,7.3-0.1
					c2.4,0,4.7-0.2,7-0.2l6.6-0.3c2.2-0.1,4.3-0.1,6.4-0.1l-1.4,0.4c4.4-3.9,8.7-8,12.5-12.4c3.8-4.4,7.3-9,9.7-14
					c2.4-4.9,3.6-10.3,2.3-14.9c-0.6-2.3-1.8-4.4-3.5-6.1c-1.7-1.7-3.8-3-6-3.6c-1.1-0.3-2.2-0.4-3.1-0.3c-0.9,0.1-1.5,0.4-1.7,0.6
					c-0.1,0.1-0.1,0.1-0.2,0.2c-0.1,0.1-0.1,0.1-0.3,0.6l-0.9,2.4c-0.3,0.8-0.7,1.4-1,2.2c-0.4,0.7-0.7,1.4-1.1,2.1
					c-3,5.5-6.4,10.4-9.9,15.4C394.5,753.4,387,762.8,378.8,771.7z"/>
			</g>
			<g>
				<path class="st3" d="M389.3,915c30.4-3.1,41.2-69.1,41.2-69.1s9.7,11.8,21.7,0.3c11.4-10.9-3.1-50.9-4.6-58.7
					c-1.6-7.8-49.4-24.4-61.7-22.9c-12.2,1.5-34.1,42.5-39,59.6C340.1,848.3,335.4,920.4,389.3,915z"/>
				<path class="st4" d="M389.3,914.6c3.5-0.4,6.8-1.6,9.7-3.5c2.9-1.9,5.5-4.3,7.7-7c4.4-5.4,7.5-11.8,10.1-18.3
					c2.5-6.5,4.5-13.2,6.1-20c0.9-3.4,1.6-6.8,2.3-10.2c0.7-3.4,1.3-6.9,1.8-10.2c0.3-1.9,2.1-3.3,4-3c0.8,0.1,1.5,0.5,2,1l0.3,0.3
					l0.3,0.3l0.4,0.4c0.3,0.2,0.5,0.5,0.8,0.7c0.6,0.4,1.2,0.8,1.8,1.2c1.2,0.7,2.5,1.1,3.7,1.3c2.5,0.3,4.9-0.5,7.3-2.3
					c0.6-0.4,1.2-0.9,1.7-1.4c0.3-0.3,0.5-0.4,0.6-0.7c0.2-0.2,0.3-0.4,0.5-0.7c0.6-1,1.2-2.3,1.5-3.7c0.7-2.9,0.8-6.2,0.6-9.6
					c-0.4-6.7-1.6-13.7-3.2-20.5c-0.8-3.4-1.7-6.9-2.6-10.3l-1.4-5.2l-0.7-2.7l-0.3-1.4l-0.1-0.7c0,0,0,0.1,0,0.1c0,0,0,0,0,0
					c0-0.1-0.4-0.6-0.9-1.1c-0.5-0.5-1.1-1-1.8-1.4c-1.3-0.9-2.8-1.8-4.3-2.7c-3-1.7-6.2-3.2-9.4-4.6c-3.2-1.4-6.5-2.8-9.8-4.1
					c-3.3-1.3-6.6-2.5-10-3.6c-3.4-1.1-6.8-2.2-10.2-3c-3.4-0.8-6.9-1.6-10.2-1.8c-0.8,0-1.6,0-2.3,0.1c-0.7,0.1-1.4,0.4-2.2,0.8
					c-1.4,0.7-2.8,1.8-4.1,3c-2.6,2.3-4.9,5-7,7.9c-4.3,5.6-7.9,11.9-11.1,18.2c-3.2,6.4-5.9,13-8.3,19.6c-1.2,3.3-2.2,6.7-3.1,9.9
					c-0.8,3.3-1.4,6.8-2,10.2c-1,6.9-1.6,13.9-1.7,20.9c-0.1,7,0.2,14,1.2,20.9c1.1,6.9,2.9,13.7,6.3,19.8
					c3.3,6.1,8.4,11.3,14.9,14.2C374.9,914.7,382.2,915.3,389.3,914.6z M389.4,915.3c-7.2,0.7-14.6,0.3-21.4-2.4
					c-3.4-1.4-6.6-3.2-9.5-5.6c-2.8-2.4-5.3-5.2-7.4-8.2c-4.2-6.2-6.9-13.2-8.6-20.4c-1.8-7.2-2.5-14.6-2.6-21.9
					c-0.1-7.3,0.4-14.7,1.6-21.9c0.6-3.6,1.4-7.2,2.4-10.8c1.1-3.7,2.6-7,4.1-10.3c3.2-6.6,6.8-12.9,10.5-19.1
					c1.9-3.1,3.8-6.2,5.8-9.2c2-3,4-6,6.2-8.9c2.2-2.9,4.5-5.7,7.1-8.4c1.3-1.3,2.8-2.5,4.4-3.6c0.8-0.5,1.8-1,2.8-1.3
					c1.1-0.3,2.1-0.4,3-0.4c3.8,0,7.4,0.5,11,1.2c3.6,0.7,7.1,1.5,10.7,2.4c7,1.8,14,4,20.8,6.6c3.4,1.3,6.8,2.8,10.1,4.5
					c1.7,0.9,3.3,1.8,5,2.9c0.8,0.6,1.7,1.1,2.5,1.9c0.8,0.8,1.7,1.5,2.5,3c0.1,0.2,0.2,0.4,0.3,0.6c0.1,0.2,0.2,0.5,0.2,0.8
					l0.2,0.6l0.3,1.2l0.7,2.5l1.5,5.2c1,3.5,2,7,2.9,10.5c1.8,7.1,3.4,14.3,3.8,21.9c0.2,3.8,0.1,7.7-0.9,11.8
					c-0.5,2-1.3,4.2-2.6,6.2c-0.3,0.5-0.7,1-1.1,1.4c-0.4,0.5-0.9,0.9-1.2,1.2c-0.8,0.7-1.6,1.4-2.4,2c-1.7,1.2-3.7,2.3-5.9,3
					c-2.2,0.7-4.6,0.8-6.9,0.5c-2.3-0.3-4.5-1.2-6.3-2.3c-0.9-0.6-1.8-1.2-2.6-1.9c-0.4-0.3-0.8-0.7-1.2-1.1
					c-0.2-0.2-0.4-0.4-0.6-0.6c-0.2-0.2-0.3-0.4-0.6-0.7l6.3-1.7c-1.4,7.2-3.4,14.1-5.7,20.9c-2.4,6.8-5.1,13.5-8.5,19.8
					c-1.7,3.2-3.5,6.3-5.5,9.3c-2,3-4.2,5.9-6.6,8.5c-2.4,2.6-5.2,5-8.3,6.9C396.4,913.7,392.9,915,389.4,915.3z"/>
			</g>
			<g>
				<path class="st4" d="M418.4,858.3c0.5-3.2,1.7-6.2,3.4-9c1.6-2.8,3.7-5.3,6.1-7.5c1.2-1.1,2.5-2.1,3.8-3
					c0.7-0.4,1.4-0.9,2.1-1.3c0.4-0.2,0.7-0.4,1.1-0.6l1.1-0.5c2.9-1.4,6.2-2.1,9.4-2.3c-2.6,1.9-5.2,3.5-7.6,5.3
					c-1.2,0.8-2.3,1.9-3.5,2.7c-1.1,1-2.3,1.9-3.3,2.9c-2.2,2-4.3,4.1-6.3,6.3C422.5,853.6,420.5,855.9,418.4,858.3z"/>
			</g>
			<g>
				<path class="st4" d="M387.6,792.5c-1.8,1.9-3.4,3.4-5.1,5c-1.6,1.5-3.2,3-4.7,4.5c-1.5,1.5-2.9,3-4.3,4.7
					c-0.3,0.4-0.7,0.8-1.1,1.2c-0.3,0.4-0.7,0.9-1,1.3c-0.8,0.9-1.4,1.9-2.3,2.9c-0.1-0.6-0.2-1.3-0.2-1.9c0-0.3,0-0.6,0-1
					c0-0.3,0.1-0.6,0.1-0.9c0.1-0.6,0.2-1.3,0.3-1.9c0.2-0.6,0.4-1.2,0.6-1.8c0.9-2.4,2.4-4.6,4.2-6.4c1.8-1.8,3.9-3.2,6.2-4.2
					C382.6,792.9,385,792.3,387.6,792.5z"/>
			</g>
			<g>
				<path class="st4" d="M451.6,808.9l-50-17.4l51.7,11.3c1.7,0.4,2.8,2.1,2.4,3.8c-0.4,1.7-2.1,2.8-3.8,2.4
					C451.9,808.9,451.8,808.9,451.6,808.9z"/>
			</g>
			<path class="st4" d="M450.8,823.5c0,0-37.3-15.5-43.2-10.6c-5.9,4.8-16.3,86.4-29.7,92.1c0,0,28.6,27.9,40-31.5
				c0,0-8.9-28.9,16.6-39.9C434.5,833.6,454.5,850.1,450.8,823.5z"/>
		</g>
		<g>
			<path class="st3" d="M493,768.7c0,0-27.8-15.1-33.6-17.4c-5.8-2.3-29.2,16.1-37.8,17.9c-8.6,1.8-2,29.3,34.7,8.6l15.8,4.8"/>
			<path class="st4" d="M492.8,769c-5.4-1.6-10.5-3.6-15.6-5.8c-5.1-2.2-10-4.6-14.9-7l-3.5-1.8c-0.2-0.1-0.7-0.3-0.5-0.3
				c0,0-0.1-0.1-0.2-0.1c-0.3-0.1-0.8,0-1.4,0c-2.3,0.3-4.9,1.2-7.4,2.2c-5.1,2-9.9,4.8-14.5,7.8c-2.3,1.5-4.6,3.1-7,4.6
				c-1.2,0.8-2.4,1.5-3.8,2.2c-0.4,0.2-0.7,0.3-1.1,0.5c-0.2,0.1-0.4,0.1-0.6,0.2l-0.2,0l0,0l-0.1,0c-0.2,0.1-0.3,0.3-0.4,0.5
				c-0.2,0.4-0.3,1.2-0.3,2c0.1,0.9,0.4,1.8,0.8,2.6c0.9,1.7,2.5,3,4.4,3.7c3.8,1.5,8.8,1.1,13.6,0c4.9-1.1,9.9-3,14.8-5.2l0.5-0.2
				c0.5-0.2,1.1-0.2,1.6,0c2.6,1,5.1,2.2,7.6,3.3c1.3,0.6,2.5,1.2,3.8,1.8c1.3,0.6,2.5,1.2,3.7,1.9c0.2,0.1,0.2,0.3,0.1,0.5
				c-0.1,0.1-0.2,0.2-0.4,0.2c-1.4-0.1-2.8-0.3-4.2-0.5c-1.4-0.2-2.8-0.4-4.1-0.6c-2.7-0.4-5.5-0.9-8.2-1.5l2.1-0.2
				c-4.7,3.2-9.8,6-15.5,7.8c-2.9,0.8-5.9,1.4-9.1,1.4c-3.2,0-6.5-0.6-9.6-2.2c-3.1-1.6-5.8-4.2-7.2-7.5c-0.7-1.7-1.1-3.5-1-5.4
				c0.1-1.9,0.7-4,2.3-5.6c0.8-0.8,1.9-1.4,3-1.7l0.4-0.1l0.2,0l0.1,0c0.1,0,0.3,0,0.4,0c0.3,0,0.6-0.1,0.9-0.2
				c1.2-0.3,2.5-0.7,3.7-1.1c2.5-0.9,5-2.1,7.4-3.4c2.4-1.3,4.8-2.7,7.1-4.1c2.3-1.5,4.6-3.1,6.9-4.7c1.2-0.8,2.3-1.6,3.6-2.4
				c1.3-0.7,2.5-1.5,4.1-2.1c0.8-0.3,1.6-0.5,2.7-0.6c0.5,0,1.1,0,1.8,0.1c0.9,0.2,1,0.3,1.4,0.5c1.4,0.5,2.7,1.1,4,1.7
				c5,2.5,9.8,5.2,14.5,8.2c4.7,3,9.2,6.1,13.5,9.8c0.2,0.1,0.2,0.4,0,0.5C493.1,769,493,769,492.8,769z"/>
		</g>
		<g>
			<path class="st3" d="M492.9,785.3c0,0-30.8-7.1-37-7.8c-6.2-0.7-20,16.1-27.8,20.1c-7.8,4,8.1,29,31.8,10.9l17.7,6.2"/>
			<path class="st4" d="M492.8,785.7c-10.1-0.4-19.9-1.8-29.7-3.2c-2.4-0.4-4.9-0.7-7.1-1c-0.3,0-0.7-0.1-0.5,0c0,0,0,0-0.1,0
				c-0.2,0-0.5,0.2-0.9,0.3c-0.8,0.3-1.7,0.9-2.6,1.5c-1.9,1.2-3.8,2.6-5.7,4.1c-1.9,1.5-3.8,3.1-5.8,4.6c-2,1.5-4.1,3-6.3,4.3
				c-1.1,0.7-2.2,1.3-3.4,1.9c-0.6,0.3-1.2,0.6-1.8,0.8c-0.4,0.1-0.7,0.3-0.9,0.6c-0.5,0.6-0.7,1.7-0.5,2.7c0.1,1.1,0.6,2.1,1.1,3.1
				c1.1,2,2.9,3.7,4.9,4.8c2,1.1,4.2,1.7,6.4,1.8c2.2,0.1,4.3-0.1,6.3-0.5c2.1-0.4,4.2-1.1,6.2-2c2-0.9,4.1-2,6-3.2l0.4-0.2
				c0.7-0.4,1.5-0.4,2.1-0.2c2.9,1.2,5.7,2.5,8.6,3.9c1.4,0.7,2.8,1.4,4.2,2.1c1.4,0.8,2.8,1.5,4.2,2.3c0.2,0.1,0.2,0.3,0.1,0.5
				c-0.1,0.1-0.2,0.2-0.4,0.2c-1.6-0.2-3.1-0.5-4.7-0.8c-1.6-0.3-3.1-0.6-4.6-1c-3.1-0.7-6.1-1.4-9.1-2.3l2.5-0.4
				c-2,1.7-4.1,3.3-6.6,4.6c-2.4,1.3-5.1,2.3-7.9,2.6c-2.8,0.4-5.8,0.1-8.5-0.9c-2.7-0.9-5.1-2.5-7.1-4.3c-2-1.8-3.7-3.9-5-6.2
				c-0.6-1.2-1.2-2.4-1.4-3.8c-0.3-1.4-0.3-2.9,0.4-4.5c0.4-0.8,1-1.4,1.8-1.9c0.5-0.4,0.9-0.7,1.4-1.1c0.9-0.8,1.7-1.6,2.6-2.5
				c1.7-1.8,3.3-3.6,5-5.4c1.7-1.8,3.5-3.6,5.3-5.3c1.8-1.8,3.7-3.5,5.9-5.2c1.1-0.8,2.3-1.6,3.8-2.3c0.8-0.3,1.6-0.6,2.6-0.8
				c0.5-0.1,1.1-0.2,1.7-0.1c0.8,0,1,0.1,1.4,0.2c0.7,0.1,1.4,0.2,2,0.4c0.6,0.1,1.3,0.3,1.9,0.4c1.2,0.3,2.5,0.6,3.7,0.9
				c4.9,1.2,9.6,2.6,14.4,4.2c4.7,1.6,9.5,3.3,14.1,5.3c0.2,0.1,0.3,0.3,0.2,0.5C493.1,785.6,493,785.7,492.8,785.7z"/>
		</g>
		<g>
			<linearGradient id="SVGID_23_" gradientUnits="userSpaceOnUse" x1="414.0549" y1="604.5927" x2="588.8455" y2="604.5927">
				<stop  offset="0" style="stop-color:#52FFCE"/>
				<stop  offset="0.9948" style="stop-color:#6700E4"/>
			</linearGradient>
			<path class="st31" d="M473.6,657.1c0,0,72.7-50.6,143.3-44.8l-0.2-3.1c0,0,54.7-34,19.9-57.2
				C636.6,552.1,466.4,569.5,473.6,657.1z"/>
			<g>
				<path class="st4" d="M470.4,630.3c0,0,125.1-85.7,185.3-70.6C655.7,559.6,610,479.1,470.4,630.3z"/>
			</g>
			<g>
				<path class="st4" d="M477.5,654.7c0,0,32.3-68.7,146.5-74.4c0,0,24.4,70.3-80.4,82.7c0,0,66.9-19.9,62.2-64.2
					C605.8,598.9,549,593.4,477.5,654.7z"/>
			</g>
			<circle class="st4" cx="547.2" cy="622.5" r="17.8"/>
			<g>
				<path class="st4" d="M614.5,580.8c0,0,25.3,0.6,37-12.3c0,0-2.2,33.4-34.6,38.1L614.5,580.8z"/>
			</g>
		</g>
		<g>
			
				<linearGradient id="SVGID_24_" gradientUnits="userSpaceOnUse" x1="6633.4058" y1="601.6973" x2="6802.0186" y2="601.6973" gradientTransform="matrix(-1 0 0 1 7113.543 0)">
				<stop  offset="5.181347e-03" style="stop-color:#6700E4"/>
				<stop  offset="1" style="stop-color:#52FFCE"/>
			</linearGradient>
			<path class="st32" d="M391.7,654.8c0,0-50.4-41.3-139.6-48.3l-5.8,2.7c0,0-29.8-31.4-20.9-60.6
				C225.5,548.6,405,594.9,391.7,654.8z"/>
			<g>
				<path class="st4" d="M391.1,630.8c0,0-118.7-86.3-178.9-71.2C212.2,559.6,251.5,479.7,391.1,630.8z"/>
			</g>
			<g>
				<path class="st4" d="M392.1,654.7c0,0-32.3-68.7-146.5-74.4c0,0-24.4,70.3,80.4,82.7c0,0-66.9-19.9-62.2-64.2
					C263.8,598.9,320.6,593.4,392.1,654.7z"/>
			</g>
			<circle class="st4" cx="322.4" cy="622.5" r="17.8"/>
			<g>
				<path class="st4" d="M255.1,580.8c0,0-25.3,0.6-37-12.3c0,0,2.2,33.4,34.6,38.1L255.1,580.8z"/>
			</g>
		</g>
	</g>
</g>
</svg>
